<svg width="12" height="22" viewBox="0 0 12 22" fill="none" xmlns="http://www.w3.org/2000/svg">
<path d="M10.5057 22C10.3082 22.0012 10.1124 21.9614 9.92955 21.8828C9.74672 21.8043 9.58042 21.6886 9.4402 21.5423L0.436374 12.0735C0.156879 11.7778 0 11.3778 0 10.9609C0 10.544 0.156879 10.144 0.436374 9.84831L9.4402 0.379475C9.72728 0.120934 10.0965 -0.0141644 10.4742 0.00117695C10.8519 0.0165183 11.2102 0.181169 11.4774 0.462226C11.7447 0.743284 11.9012 1.12005 11.9158 1.51723C11.9304 1.91441 11.8019 2.30275 11.5561 2.60465L3.61773 10.953L11.5561 19.3014C11.7668 19.5211 11.9108 19.8017 11.9699 20.1076C12.029 20.4134 12.0006 20.7309 11.8881 21.0197C11.7757 21.3086 11.5844 21.5559 11.3383 21.7304C11.0922 21.9048 10.8024 21.9987 10.5057 22Z" fill="#682EC6"/>
</svg>
