<svg width="12" height="22" viewBox="0 0 12 22" fill="none" xmlns="http://www.w3.org/2000/svg">
<path d="M1.49435 2.63051e-05C1.69184 -0.00117449 1.88762 0.0386334 2.07045 0.117169C2.25328 0.195704 2.41958 0.311424 2.5598 0.457688L11.5636 9.92652C11.8431 10.2222 12 10.6222 12 11.0391C12 11.456 11.8431 11.856 11.5636 12.1517L2.5598 21.6205C2.27272 21.8791 1.90345 22.0142 1.52578 21.9988C1.1481 21.9835 0.789843 21.8188 0.522588 21.5378C0.255333 21.2567 0.0987667 20.88 0.0841787 20.4828C0.0695908 20.0856 0.198055 19.6973 0.443899 19.3954L8.38227 11.047L0.443899 2.69864C0.233177 2.47885 0.0891595 2.19829 0.0300566 1.89242C-0.0290462 1.58656 -0.000579588 1.26913 0.111857 0.980283C0.224293 0.691432 0.415649 0.44413 0.661729 0.269646C0.907809 0.095163 1.19756 0.00133495 1.49435 2.63051e-05Z" fill="#682EC6"/>
</svg>
