<svg width="17" height="13" viewBox="0 0 17 13" fill="none" xmlns="http://www.w3.org/2000/svg">
<path fill-rule="evenodd" clip-rule="evenodd" d="M16.6051 0.676305C16.6939 0.753976 16.7664 0.848508 16.8183 0.954406C16.8702 1.0603 16.9005 1.17546 16.9075 1.29316C16.9145 1.41087 16.8979 1.52879 16.8589 1.64005C16.8198 1.75132 16.759 1.85372 16.6799 1.94129L7.31697 12.3218C7.23755 12.4097 7.14137 12.4809 7.03405 12.5312C6.92673 12.5815 6.81044 12.6099 6.692 12.6147C6.57355 12.6195 6.45534 12.6006 6.3443 12.5592C6.23325 12.5178 6.1316 12.4546 6.0453 12.3734L0.627362 7.27879C0.464822 7.12376 0.366409 6.91346 0.35157 6.68946C0.33673 6.46545 0.406544 6.24403 0.547215 6.06896C0.623146 5.97404 0.717594 5.89553 0.824826 5.83819C0.932058 5.78085 1.04984 5.74588 1.17101 5.73539C1.29219 5.72491 1.41423 5.73914 1.52974 5.77721C1.64524 5.81528 1.75179 5.87641 1.84293 5.95687L6.0462 9.73404C6.2217 9.89184 6.45275 9.97354 6.68855 9.9612C6.92435 9.94885 7.14558 9.84347 7.30361 9.66821L15.3566 0.748361C15.5134 0.574748 15.7322 0.46976 15.9659 0.456109C16.1995 0.442458 16.4292 0.52124 16.6051 0.675415V0.676305Z" fill="#F0F5FC"/>
</svg>
