<svg width="224" height="205" viewBox="0 0 224 205" fill="none" xmlns="http://www.w3.org/2000/svg">
<path fill-rule="evenodd" clip-rule="evenodd" d="M0 0H223.985L224 188.156C224 196.954 217.249 204.091 208.907 204.196C208.194 195.808 206.493 187.326 203.706 178.893L142.08 178.906C149.068 185.837 153.527 194.754 155.287 204.198H143.235C139.46 189.635 126.928 178.914 112.097 178.914C97.2542 178.903 84.7291 189.631 80.9568 204.198H56.2171C46.9261 186.964 36.7458 168.046 30.6993 156.791C21.5689 171.714 16.5972 187.961 15.2877 204.198H15.2811C6.83745 204.198 0 197.004 0 188.156V0ZM69.1288 202.82L38.4068 145.842C83.5848 89.7716 167.356 100.835 198.662 166.338C187.515 166.344 173.182 166.341 159.318 166.337C145.759 166.334 132.649 166.331 123.406 166.338C122.657 166.338 121.922 166.337 121.202 166.336C108.879 166.319 100.566 166.308 91.6146 171.338C80.475 177.596 72.0565 189.191 69.1288 202.82ZM78 30C70.8203 30 65 35.8203 65 43C65 50.1797 70.8203 56 78 56H146C153.18 56 159 50.1797 159 43C159 35.8203 153.18 30 146 30H78Z" fill="white"/>
</svg>
