<svg width="22" height="13" viewBox="0 0 22 13" fill="none" xmlns="http://www.w3.org/2000/svg">
<path d="M5 12.2C4.10667 12.2 3.32 12.0267 2.64 11.68C1.97333 11.32 1.46 10.82 1.1 10.18C0.74 9.54 0.56 8.79333 0.56 7.94V5.06C0.56 4.19333 0.74 3.44667 1.1 2.82C1.46 2.18 1.97333 1.68667 2.64 1.34C3.32 0.98 4.10667 0.8 5 0.8C5.90667 0.8 6.69333 0.98 7.36 1.34C8.02667 1.68667 8.54 2.18 8.9 2.82C9.26 3.44667 9.44 4.19333 9.44 5.06V7.02H2.64V7.94C2.64 8.75333 2.84 9.37333 3.24 9.8C3.65333 10.2267 4.24667 10.44 5.02 10.44C5.64667 10.44 6.15333 10.3333 6.54 10.12C6.92667 9.89333 7.16667 9.56667 7.26 9.14H9.4C9.24 10.0733 8.76 10.82 7.96 11.38C7.16 11.9267 6.17333 12.2 5 12.2ZM7.36 5.72V5.04C7.36 4.24 7.16 3.62 6.76 3.18C6.36 2.74 5.77333 2.52 5 2.52C4.24 2.52 3.65333 2.74 3.24 3.18C2.84 3.62 2.64 4.24667 2.64 5.06V5.56L7.52 5.54L7.36 5.72ZM12.6722 12V1H14.8122V3.1H15.3322L14.8122 3.6C14.8122 2.72 15.0722 2.03333 15.5922 1.54C16.1122 1.04667 16.8322 0.8 17.7522 0.8C18.8455 0.8 19.7189 1.15333 20.3722 1.86C21.0255 2.55333 21.3522 3.49333 21.3522 4.68V12H19.1922V4.92C19.1922 4.2 18.9989 3.64667 18.6122 3.26C18.2255 2.87333 17.6989 2.68 17.0322 2.68C16.3522 2.68 15.8122 2.88667 15.4122 3.3C15.0255 3.7 14.8322 4.28667 14.8322 5.06V12H12.6722Z" fill="#202020"/>
</svg>
