<svg width="48" height="27" viewBox="0 0 48 27" fill="none" xmlns="http://www.w3.org/2000/svg">
<path opacity="0.5" d="M10.545 26.45C8.445 26.45 6.615 26.045 5.055 25.235C3.495 24.425 2.28 23.3 1.41 21.86C0.57 20.39 0.15 18.68 0.15 16.73V10.52C0.15 8.57 0.57 6.875 1.41 5.435C2.28 3.965 3.495 2.825 5.055 2.015C6.615 1.205 8.445 0.8 10.545 0.8C12.615 0.8 14.415 1.205 15.945 2.015C17.505 2.825 18.705 3.965 19.545 5.435C20.415 6.875 20.85 8.57 20.85 10.52V14.975H5.595V16.73C5.595 18.47 6.015 19.79 6.855 20.69C7.695 21.56 8.94 21.995 10.59 21.995C11.85 21.995 12.87 21.785 13.65 21.365C14.43 20.915 14.925 20.27 15.135 19.43H20.67C20.25 21.56 19.11 23.27 17.25 24.56C15.42 25.82 13.185 26.45 10.545 26.45ZM15.405 11.825V10.475C15.405 8.765 15 7.46 14.19 6.56C13.38 5.63 12.165 5.165 10.545 5.165C8.925 5.165 7.695 5.63 6.855 6.56C6.015 7.49 5.595 8.81 5.595 10.52V11.465L15.81 11.375L15.405 11.825ZM27.4474 26V1.25H32.9374V5.975H34.4674L32.9374 7.28C32.9374 5.24 33.5224 3.65 34.6924 2.51C35.8924 1.37 37.5274 0.8 39.5974 0.8C42.0274 0.8 43.9624 1.61 45.4024 3.23C46.8724 4.85 47.6074 7.025 47.6074 9.755V26H41.9824V10.34C41.9824 8.84 41.5924 7.685 40.8124 6.875C40.0324 6.065 38.9374 5.66 37.5274 5.66C36.1474 5.66 35.0524 6.08 34.2424 6.92C33.4624 7.76 33.0724 8.96 33.0724 10.52V26H27.4474Z" fill="#202020"/>
</svg>
