<svg width="15" height="15" viewBox="0 0 15 15" fill="none" xmlns="http://www.w3.org/2000/svg">
<path d="M7.5 0C3.35625 0 0 3.44343 0 7.69032C0 11.0887 2.14875 13.9707 5.12812 14.9867C5.50312 15.0591 5.64062 14.8211 5.64062 14.617C5.64062 14.4343 5.63438 13.9504 5.63125 13.3094C3.545 13.7731 3.105 12.2776 3.105 12.2776C2.76375 11.39 2.27062 11.1527 2.27062 11.1527C1.59125 10.6759 2.32313 10.6857 2.32313 10.6857C3.07625 10.7392 3.47187 11.4781 3.47187 11.4781C4.14062 12.6539 5.2275 12.3142 5.65625 12.1179C5.72375 11.6203 5.91688 11.2818 6.13125 11.0894C4.46563 10.897 2.715 10.2357 2.715 7.28924C2.715 6.4499 3.00563 5.76383 3.48687 5.22579C3.4025 5.03145 3.14938 4.2495 3.5525 3.19039C3.5525 3.19039 4.18063 2.9843 5.615 3.97885C6.215 3.80799 6.8525 3.72321 7.49 3.71929C8.1275 3.72321 8.765 3.80799 9.365 3.97885C10.79 2.9843 11.4181 3.19039 11.4181 3.19039C11.8212 4.2495 11.5681 5.03145 11.4931 5.22579C11.9712 5.76383 12.2619 6.4499 12.2619 7.28924C12.2619 10.2435 10.5088 10.8937 8.84 11.0829C9.1025 11.3137 9.34625 11.7853 9.34625 12.5059C9.34625 13.535 9.33688 14.362 9.33688 14.6117C9.33688 14.8133 9.46812 15.0539 9.8525 14.977C12.8531 13.9674 15 11.0835 15 7.69032C15 3.44343 11.6419 0 7.5 0Z" fill="#F0F5FC"/>
</svg>
