<svg width="55" height="55" viewBox="0 0 55 55" fill="none" xmlns="http://www.w3.org/2000/svg">
<path fill-rule="evenodd" clip-rule="evenodd" d="M0 45.815C0 50.82 4.125 55 9.075 55H45.925C50.875 55 54.725 51.095 55 45.815V25.74C55 23.21 53.9 20.68 51.975 19.03L33.55 2.31C29.975 -0.77 25.025 -0.77 21.45 2.31L3.025 19.03C1.1 20.735 0 23.21 0 25.74V45.815ZM25.84 9.664C26.56 9.184 27.28 8.944 28 8.944C28.72 8.944 29.44 9.184 29.92 9.664L46 24.256C46.0219 24.291 46.0437 24.3259 46.0655 24.3607C46.5227 25.0901 46.96 25.7877 46.96 26.704V44.224C46.96 45.952 45.52 47.392 43.84 47.392H11.92C10.24 47.392 8.8 45.904 8.8 44.224V26.704C8.8 25.696 9.04 24.736 9.76 24.256L25.84 9.664Z" fill="#682EC6"/>
</svg>
