<svg width="26" height="26" viewBox="0 0 26 26" fill="none" xmlns="http://www.w3.org/2000/svg">
<path fill-rule="evenodd" clip-rule="evenodd" d="M11.8509 20.3372C11.4564 20.1738 11.098 19.9342 10.7962 19.6322L7.31764 16.1579C7.11436 15.9548 7.0001 15.6792 7 15.3918C6.9999 15.1045 7.11396 14.8288 7.31709 14.6255C7.52023 14.4223 7.79579 14.308 8.08317 14.3079C8.37055 14.3078 8.64619 14.4219 8.84947 14.625L12.002 17.7753L12.0117 1.08333C12.0117 0.796016 12.1259 0.520465 12.329 0.317301C12.5322 0.114137 12.8077 0 13.0951 0C13.3824 0 13.6579 0.114137 13.8611 0.317301C14.0642 0.520465 14.1784 0.796016 14.1784 1.08333L14.1708 17.7959L17.3406 14.625C17.5465 14.4381 17.8164 14.3374 18.0944 14.344C18.3724 14.3505 18.6373 14.4637 18.8341 14.6602C19.031 14.8566 19.1447 15.1212 19.1519 15.3992C19.159 15.6772 19.059 15.9473 18.8725 16.1536L15.3939 19.6322C15.0921 19.9342 14.7337 20.1738 14.3393 20.3372C13.9448 20.5007 13.522 20.5848 13.0951 20.5848C12.6681 20.5848 12.2453 20.5007 11.8509 20.3372ZM24.1506 16.6877C24.3538 16.4845 24.6293 16.3704 24.9167 16.3704C25.204 16.3704 25.4795 16.4845 25.6827 16.6877C25.8859 16.8908 26 17.1664 26 17.4537V21.787C26 22.649 25.6576 23.4756 25.0481 24.0851C24.4386 24.6946 23.612 25.037 22.75 25.037H3.25C2.38805 25.037 1.5614 24.6946 0.951903 24.0851C0.34241 23.4756 0 22.649 0 21.787V17.4537C0 17.1664 0.114137 16.8908 0.317301 16.6877C0.520465 16.4845 0.796016 16.3704 1.08333 16.3704C1.37065 16.3704 1.6462 16.4845 1.84937 16.6877C2.05253 16.8908 2.16667 17.1664 2.16667 17.4537V21.787C2.16667 22.0743 2.2808 22.3499 2.48397 22.5531C2.68713 22.7562 2.96268 22.8704 3.25 22.8704H22.75C23.0373 22.8704 23.3129 22.7562 23.516 22.5531C23.7192 22.3499 23.8333 22.0743 23.8333 21.787V17.4537C23.8333 17.1664 23.9475 16.8908 24.1506 16.6877Z" fill="#F0F5FC"/>
</svg>
