<svg width="15" height="15" viewBox="0 0 15 15" fill="none" xmlns="http://www.w3.org/2000/svg">
<path fill-rule="evenodd" clip-rule="evenodd" d="M4.41324 0.0471167C5.79449 -0.0141333 9.21259 -0.0172583 10.5926 0.0471167C13.4157 0.177117 14.8288 1.77399 14.9526 4.40712C15.0138 5.78837 15.0176 9.20587 14.9526 10.5865C14.8501 12.8171 13.8013 14.059 12.412 14.5984C11.3949 14.9921 10.402 14.9921 7.54328 14.9921H7.5026C7.20121 14.9921 6.9095 14.9943 6.62706 14.9964C4.26978 15.0139 2.55894 15.0266 1.26576 13.734C-0.0182518 12.45 -0.00897114 10.7754 0.00468642 8.31097C0.00613944 8.04879 0.007642 7.77766 0.007642 7.49712C0.007642 7.19737 0.00560339 6.90765 0.00363203 6.62749C-0.0131444 4.24326 -0.0250514 2.55106 1.26576 1.26024C2.12888 0.397117 3.1995 0.103992 4.41324 0.0471167ZM8.17261 13.6419C10.7246 13.6478 11.9061 13.6505 12.777 12.7796C13.6522 11.9003 13.6511 10.731 13.6485 8.01805C13.6483 7.8502 13.6482 7.67645 13.6482 7.49649C13.6482 5.49524 13.6401 5.25774 13.6044 4.46712C13.461 1.29902 11.2642 1.3191 8.34312 1.3458C8.06936 1.34831 7.78924 1.35087 7.50385 1.35087L7.47573 1.33212C5.50178 1.33212 5.24451 1.34121 4.47661 1.36835L4.44074 1.36962C1.2776 1.53163 1.29675 3.6175 1.32419 6.60597C1.32681 6.89173 1.32951 7.18574 1.32951 7.48712C1.32951 7.8425 1.32581 8.18104 1.32229 8.50336C1.30054 10.4955 1.28555 11.8681 2.19201 12.7702C3.06331 13.6439 4.2422 13.6431 7.05522 13.6411C7.19426 13.641 7.33729 13.6409 7.48448 13.6409C7.7244 13.6409 7.95355 13.6414 8.17261 13.6419ZM6.03005 3.94124C6.49704 3.74785 6.99755 3.64836 7.50299 3.64844C8.00844 3.64836 8.50895 3.74785 8.97593 3.94124C9.44292 4.13463 9.86724 4.41812 10.2246 4.77553C10.582 5.13293 10.8655 5.55725 11.0589 6.02424C11.2523 6.49123 11.3518 6.99174 11.3517 7.49719C11.3518 8.00264 11.2523 8.50315 11.0589 8.97014C10.8655 9.43713 10.582 9.86144 10.2246 10.2189C9.86724 10.5763 9.44292 10.8598 8.97593 11.0531C8.50895 11.2465 8.00844 11.346 7.50299 11.3459C6.99755 11.346 6.49704 11.2465 6.03005 11.0531C5.56306 10.8598 5.13875 10.5763 4.78135 10.2189C4.42394 9.86144 4.14045 9.43713 3.94706 8.97014C3.75367 8.50315 3.65418 8.00264 3.65426 7.49719C3.65418 6.99174 3.75367 6.49123 3.94706 6.02424C4.14045 5.55725 4.42394 5.13293 4.78135 4.77553C5.13875 4.41812 5.56306 4.13463 6.03005 3.94124ZM6.1157 9.57415C6.52631 9.84863 7.00909 9.99519 7.50299 9.99532C7.8311 9.99548 8.15601 9.93098 8.45917 9.80549C8.76233 9.68001 9.03779 9.496 9.26979 9.264C9.5018 9.03199 9.6858 8.75654 9.81128 8.45337C9.93677 8.15021 10.0013 7.82529 10.0011 7.49719C10.001 7.00328 9.85442 6.5205 9.57994 6.10989C9.30547 5.69927 8.91541 5.37926 8.45908 5.1903C8.00275 5.00135 7.50064 4.95195 7.01623 5.04833C6.53182 5.14472 6.08687 5.38257 5.73763 5.73181C5.38839 6.08106 5.15054 6.52601 5.05415 7.01042C4.95776 7.49483 5.00717 7.99694 5.19612 8.45328C5.38507 8.90961 5.70508 9.29967 6.1157 9.57415Z" fill="#F0F5FC"/>
</svg>
