<svg width="15" height="13" viewBox="0 0 15 13" fill="none" xmlns="http://www.w3.org/2000/svg">
<path d="M2.8075 6.55882C2.6049 7.16698 2.50099 7.80595 2.5 8.44958C2.5 8.52042 2.50812 8.58932 2.51 8.65952C1.02937 7.9296 0 6.36383 0 4.54977C0 2.04155 1.9625 0 4.375 0H6.875C9.28687 0 11.25 2.04155 11.25 4.54977C11.25 6.99885 9.37812 8.99685 7.04437 9.09045C6.93493 8.89593 6.87653 8.67494 6.875 8.44958C6.875 7.86006 7.0775 7.43888 7.8425 6.94685C8.29632 6.74832 8.68375 6.41501 8.95634 5.98864C9.22893 5.56227 9.37455 5.06178 9.375 4.54977C9.375 3.11594 8.25375 1.9499 6.875 1.9499H4.375C2.99625 1.9499 1.875 3.11594 1.875 4.54977C1.875 5.36353 2.24313 6.08175 2.8075 6.55882ZM12.49 4.34048C12.4925 4.41068 12.5 4.47958 12.5 4.55042C12.499 5.19405 12.3951 5.83302 12.1925 6.44118C12.7569 6.91825 13.125 7.63647 13.125 8.45023C13.125 9.88406 12.0038 11.0501 10.625 11.0501H8.125C6.74625 11.0501 5.625 9.88406 5.625 8.45023C5.62561 7.93826 5.7713 7.43784 6.04387 7.0115C6.31643 6.58516 6.70378 6.25183 7.1575 6.05315C7.9225 5.56112 8.125 5.13929 8.125 4.55042C8.125 4.31643 8.06063 4.09935 7.95563 3.90955C5.62188 4.00315 3.75 6.00115 3.75 8.45023C3.75 10.9585 5.7125 13 8.125 13H10.625C13.0369 13 15 10.9585 15 8.45023C15 6.63617 13.9706 5.0704 12.49 4.34048Z" fill="#F0F5FC"/>
</svg>
