<svg width="25" height="25" viewBox="0 0 25 25" fill="none" xmlns="http://www.w3.org/2000/svg">
<path d="M17.6755 8.89663L20.1045 7.68183L21.32 5.25326L22.5356 7.68183L24.9656 8.89663L22.5366 10.1125L21.3211 12.541L20.1045 10.1125L17.6755 8.89663ZM23.9584 17.7115C23.6822 17.7115 23.4172 17.8212 23.2219 18.0164C23.0265 18.2116 22.9168 18.4764 22.9168 18.7525C22.9168 19.0286 23.0265 19.2933 23.2219 19.4885C23.4172 19.6838 23.6822 19.7934 23.9584 19.7934C24.2347 19.7934 24.4996 19.6838 24.6949 19.4885C24.8903 19.2933 25 19.0286 25 18.7525C25 18.4764 24.8903 18.2116 24.6949 18.0164C24.4996 17.8212 24.2347 17.7115 23.9584 17.7115ZM17.7088 13.5477C17.4326 13.5477 17.1677 13.6573 16.9723 13.8525C16.777 14.0478 16.6672 14.3125 16.6672 14.5886C16.6672 14.8647 16.777 15.1295 16.9723 15.3247C17.1677 15.5199 17.4326 15.6296 17.7088 15.6296C17.9851 15.6296 18.25 15.5199 18.4454 15.3247C18.6407 15.1295 18.7504 14.8647 18.7504 14.5886C18.7504 14.3125 18.6407 14.0478 18.4454 13.8525C18.25 13.6573 17.9851 13.5477 17.7088 13.5477ZM19.542 22.806L21.069 21.7588L19.3806 20.9978C12.0759 17.8375 11.5686 7.23838 18.5473 3.39931L20.1535 2.48326L18.5369 1.58595C10.451 -3.09214 -0.155552 3.18383 0.00172885 12.5067C-0.0033403 14.7805 0.613999 17.0124 1.78692 18.9608C2.95985 20.9091 4.64367 22.4998 6.65614 23.5605C8.66861 24.6212 10.933 25.1117 13.2043 24.9787C15.4757 24.8457 17.6673 24.0943 19.542 22.806Z" fill="#202020"/>
</svg>
