<svg width="17" height="17" viewBox="0 0 17 17" fill="none" xmlns="http://www.w3.org/2000/svg">
<path d="M12.9099 0.717283C12.2233 1.40388 12.9099 2.1315 12.3796 2.66183C12.2371 2.79891 12.047 2.87549 11.8492 2.87549C11.6515 2.87549 11.4614 2.79891 11.3189 2.66183L9.02082 0.363729C8.83328 0.176193 8.57892 0.0708362 8.31371 0.0708362C8.04849 0.0708362 7.79414 0.176193 7.6066 0.363729L5.3085 2.66183C5.16599 2.79891 4.97592 2.87549 4.77817 2.87549C4.58043 2.87549 4.39036 2.79891 4.24784 2.66183C3.71751 2.1315 4.40411 1.40388 3.71751 0.717283C3.10587 0.105635 2.02046 0.293018 1.24264 1.07084C0.464823 1.84865 0.27744 2.93406 0.889087 3.54571C1.57569 4.23231 2.3033 3.54571 2.83363 4.07604C2.97072 4.21856 3.04729 4.40862 3.04729 4.60637C3.04729 4.80412 2.97072 4.99418 2.83363 5.1367L0.535534 7.4348C0.347997 7.62233 0.242641 7.87669 0.242641 8.1419C0.242641 8.40712 0.347997 8.66147 0.535534 8.84901L2.12652 10.44C2.26904 10.5771 2.45911 10.6537 2.65685 10.6537C2.8546 10.6537 3.04467 10.5771 3.18718 10.44C3.71751 9.90967 3.03091 9.18206 3.71751 8.49546C4.32916 7.88381 5.41457 8.07119 6.19239 8.84901C6.97021 9.62683 7.15759 10.7122 6.54594 11.3239C5.85934 12.0105 5.13173 11.3239 4.6014 11.8542C4.46431 11.9967 4.38774 12.1868 4.38774 12.3845C4.38774 12.5823 4.46431 12.7724 4.6014 12.9149L7.6066 15.9201C7.79414 16.1076 8.04849 16.213 8.31371 16.213C8.57892 16.213 8.83328 16.1076 9.02082 15.9201L11.3189 13.622C11.456 13.4795 11.5326 13.2894 11.5326 13.0917C11.5326 12.8939 11.456 12.7038 11.3189 12.5613C10.7886 12.031 10.061 12.7176 9.37437 12.031C8.76272 11.4193 8.9501 10.3339 9.72792 9.55612C10.5057 8.7783 11.5911 8.59092 12.2028 9.20256C12.8894 9.88916 12.2028 10.6168 12.7331 11.1471C12.8756 11.2842 13.0657 11.3608 13.2635 11.3608C13.4612 11.3608 13.6513 11.2842 13.7938 11.1471L16.0919 8.84901C16.2794 8.66147 16.3848 8.40712 16.3848 8.1419C16.3848 7.87669 16.2794 7.62233 16.0919 7.4348L13.7938 5.1367C13.6567 4.99418 13.5801 4.80412 13.5801 4.60637C13.5801 4.40862 13.6567 4.21856 13.7938 4.07604C14.3241 3.54571 15.0517 4.23231 15.7383 3.54571C16.35 2.93406 16.1626 1.84865 15.3848 1.07084C14.607 0.293018 13.5215 0.105635 12.9099 0.717283Z" fill="#F0F5FC"/>
</svg>
