<svg width="15" height="17" viewBox="0 0 15 17" fill="none" xmlns="http://www.w3.org/2000/svg">
<path fill-rule="evenodd" clip-rule="evenodd" d="M3.45738 9.92796V9.96142C4.14924 13.0821 6.85008 15.4716 10.1547 15.7413C9.32781 16.072 8.43534 16.2609 7.49975 16.2609C3.36457 16.2609 0 12.7288 0 8.38778C0 4.04673 3.36457 0.514648 7.49975 0.514648C8.43534 0.514648 9.32781 0.703604 10.1556 1.03428C6.85008 1.30491 4.14924 3.69343 3.45738 6.81414V6.8476C3.34395 7.33573 3.28114 7.85241 3.28114 8.38778C3.28109 8.90672 3.34026 9.4238 3.45738 9.92796ZM10.7814 1.99072C11.1985 1.99072 11.6063 2.03304 12.0029 2.10587C13.8188 3.54468 15 5.821 15 8.38764C15 10.9543 13.8188 13.2306 12.0029 14.6694C11.6063 14.7422 11.1985 14.7846 10.7814 14.7846C9.4914 14.7846 8.2905 14.4145 7.27522 13.7857C7.30023 13.7873 7.32512 13.7895 7.35002 13.7917C7.39981 13.7961 7.4496 13.8004 7.50022 13.8004C9.82982 13.8004 11.7188 11.3775 11.7188 8.38764C11.7188 5.39782 9.82982 2.97486 7.50022 2.97486C7.44959 2.97486 7.3998 2.97924 7.35001 2.98361C7.32512 2.9858 7.30022 2.98799 7.27522 2.98963C8.29144 2.36076 9.4914 1.99072 10.7814 1.99072Z" fill="#F0F5FC"/>
</svg>
