<svg width="23" height="17" viewBox="0 0 23 17" fill="none" xmlns="http://www.w3.org/2000/svg">
<path d="M23 15.9375C23 16.2193 22.8899 16.4895 22.6938 16.6888C22.4977 16.8881 22.2318 17 21.9545 17H9.40909C9.13182 17 8.8659 16.8881 8.66984 16.6888C8.47378 16.4895 8.36364 16.2193 8.36364 15.9375C8.36364 14.2467 9.02451 12.6252 10.2009 11.4297C11.3772 10.2342 12.9727 9.5625 14.6364 9.5625H16.7273C18.3909 9.5625 19.9864 10.2342 21.1628 11.4297C22.3391 12.6252 23 14.2467 23 15.9375ZM15.6818 0C14.8547 0 14.0462 0.249258 13.3585 0.716254C12.6708 1.18325 12.1348 1.84701 11.8183 2.6236C11.5018 3.40018 11.419 4.25471 11.5804 5.07913C11.7417 5.90355 12.14 6.66083 12.7248 7.2552C13.3097 7.84958 14.0548 8.25435 14.866 8.41834C15.6772 8.58233 16.518 8.49816 17.2821 8.17649C18.0463 7.85482 18.6994 7.31008 19.1589 6.61117C19.6184 5.91226 19.8636 5.09057 19.8636 4.25C19.8636 3.12283 19.4231 2.04183 18.6388 1.2448C17.8546 0.447766 16.7909 0 15.6818 0ZM6.27273 0C5.44564 0 4.63713 0.249258 3.94943 0.716254C3.26174 1.18325 2.72574 1.84701 2.40923 2.6236C2.09272 3.40018 2.00991 4.25471 2.17126 5.07913C2.33262 5.90355 2.7309 6.66083 3.31573 7.2552C3.90057 7.84958 4.6457 8.25435 5.45689 8.41834C6.26809 8.58233 7.10891 8.49816 7.87304 8.17649C8.63717 7.85482 9.29028 7.31008 9.74978 6.61117C10.2093 5.91226 10.4545 5.09057 10.4545 4.25C10.4545 3.12283 10.014 2.04183 9.22972 1.2448C8.44548 0.447766 7.38181 0 6.27273 0ZM6.27273 15.9375C6.27117 14.8215 6.48752 13.7162 6.90925 12.6857C7.33097 11.6553 7.94968 10.7201 8.72955 9.93438C8.09133 9.68949 7.41491 9.56352 6.73273 9.5625H5.81273C4.27194 9.56531 2.79506 10.1886 1.70556 11.2959C0.616062 12.4031 0.00276374 13.9041 0 15.47V15.9375C0 16.2193 0.110146 16.4895 0.306206 16.6888C0.502267 16.8881 0.768183 17 1.04545 17H6.46091C6.33919 16.6593 6.27555 16.3 6.27273 15.9375Z" fill="#F0F5FC"/>
</svg>
