<svg width="43" height="43" viewBox="0 0 43 43" fill="none" xmlns="http://www.w3.org/2000/svg">
<path fill-rule="evenodd" clip-rule="evenodd" d="M21.7436 0C20.0867 0 18.7436 1.34314 18.7436 3V18.7436H3C1.34315 18.7436 0 20.0867 0 21.7436V22.359C0 24.0158 1.34314 25.359 3 25.359H18.7436V40C18.7436 41.6569 20.0867 43 21.7436 43H22.359C24.0158 43 25.359 41.6569 25.359 40V25.359H40C41.6569 25.359 43 24.0158 43 22.359V21.7436C43 20.0867 41.6569 18.7436 40 18.7436H25.359V3C25.359 1.34315 24.0158 0 22.359 0H21.7436Z" fill="#682EC6"/>
</svg>
