<svg width="9" height="18" viewBox="0 0 9 18" fill="none" xmlns="http://www.w3.org/2000/svg">
<path d="M2.444 12.358L2.422 8.178H3.83C4.68067 8.178 5.348 7.95067 5.832 7.496C6.33067 7.04133 6.58 6.43267 6.58 5.67C6.58 4.90733 6.33067 4.29867 5.832 3.844C5.33333 3.38933 4.65867 3.162 3.808 3.162H0.816V0.94H3.742C4.81267 0.94 5.72933 1.138 6.492 1.534C7.26933 1.91533 7.87067 2.458 8.296 3.162C8.72133 3.866 8.934 4.702 8.934 5.67C8.934 6.53533 8.75067 7.30533 8.384 7.98C8.032 8.65467 7.53333 9.19 6.888 9.586C6.25733 9.96733 5.50933 10.1727 4.644 10.202V12.358H2.444ZM3.214 17.11C2.78867 17.11 2.444 16.9853 2.18 16.736C1.916 16.472 1.784 16.1347 1.784 15.724C1.784 15.3133 1.916 14.9833 2.18 14.734C2.444 14.47 2.78867 14.338 3.214 14.338H3.874C4.314 14.338 4.65867 14.47 4.908 14.734C5.15733 14.9833 5.282 15.306 5.282 15.702C5.282 16.1127 5.15 16.45 4.886 16.714C4.622 16.978 4.27733 17.11 3.852 17.11H3.214Z" fill="white"/>
</svg>
