<svg width="26" height="48" viewBox="0 0 26 48" fill="none" xmlns="http://www.w3.org/2000/svg">
<path d="M5.352 33.112L5.224 20.312H10.28C12.4133 20.312 14.12 19.736 15.4 18.584C16.68 17.432 17.32 15.9173 17.32 14.04C17.32 12.12 16.68 10.6053 15.4 9.496C14.12 8.344 12.392 7.768 10.216 7.768H0.68V0.279999H9.832C12.9893 0.279999 15.72 0.855999 18.024 2.008C20.328 3.11733 22.12 4.696 23.4 6.744C24.68 8.792 25.32 11.224 25.32 14.04C25.32 16.6427 24.7653 18.9253 23.656 20.888C22.5893 22.8507 21.096 24.408 19.176 25.56C17.256 26.712 15.016 27.3093 12.456 27.352V33.112H5.352ZM7.976 47.32C6.65333 47.32 5.58667 46.936 4.776 46.168C3.96533 45.3573 3.56 44.3333 3.56 43.096C3.56 41.8587 3.96533 40.856 4.776 40.088C5.58667 39.2773 6.65333 38.872 7.976 38.872H9.896C11.2187 38.872 12.264 39.256 13.032 40.024C13.8427 40.792 14.248 41.816 14.248 43.096C14.248 44.3333 13.8427 45.3573 13.032 46.168C12.2213 46.936 11.1547 47.32 9.832 47.32H7.976Z" fill="#202020"/>
</svg>
