<svg width="51" height="53" viewBox="0 0 51 53" fill="none" xmlns="http://www.w3.org/2000/svg">
<path fill-rule="evenodd" clip-rule="evenodd" d="M47.3092 28.8975L49.4982 30.7126C50.2516 31.334 50.7607 32.2053 50.9343 33.1704C51.1079 34.1355 50.9347 35.1314 50.4457 35.9795L46.1233 43.5203C45.6386 44.3711 44.869 45.0202 43.9524 45.3513C43.0358 45.6825 42.032 45.674 41.121 45.3275L38.4659 44.3257C36.6503 43.6404 34.6623 44.7939 34.3431 46.7232L33.877 49.5401C33.7195 50.508 33.2249 51.3878 32.4819 52.0218C31.7389 52.6559 30.796 53.0026 29.8222 53H21.1777C20.2039 53.0026 19.261 52.6558 18.5179 52.0218C17.7749 51.3877 17.2803 50.5079 17.1228 49.5399L16.6567 46.723C16.338 44.7971 14.3529 43.6391 12.534 44.3255L9.87899 45.3274C7.98926 46.0402 5.88577 45.2803 4.87677 43.5202L0.554477 35.9795C0.0653501 35.1314 -0.107944 34.1355 0.0656473 33.1704C0.239238 32.2052 0.748369 31.3339 1.50181 30.7125L3.69081 28.8974C5.18745 27.6565 5.19043 25.3458 3.69081 24.1024L1.50191 22.2873C0.748455 21.6659 0.239311 20.7946 0.0657183 19.8294C-0.107874 18.8643 0.0654321 17.8684 0.55458 17.0203L4.87677 9.47966C5.3615 8.62898 6.13109 7.97993 7.04769 7.64879C7.96428 7.31764 8.96799 7.32605 9.87899 7.67249L12.5341 8.67452C14.3493 9.35938 16.3375 8.20673 16.6568 6.27689L17.1229 3.45992C17.2805 2.49197 17.775 1.61215 18.5181 0.978144C19.2611 0.344137 20.204 -0.00261989 21.1778 1.49053e-05H29.8223C30.7961 -0.00259925 31.7389 0.344154 32.482 0.978138C33.225 1.61212 33.7196 2.4919 33.8771 3.45982L34.3432 6.27689C34.6618 8.20331 36.6474 9.36051 38.466 8.67441L41.121 7.67249C42.032 7.32605 43.0357 7.31764 43.9523 7.64879C44.8689 7.97993 45.6385 8.62898 46.1233 9.47966L50.4455 17.0204C50.9346 17.8685 51.1079 18.8644 50.9343 19.8295C50.7607 20.7947 50.2516 21.666 49.4982 22.2874L47.3093 24.1025C45.8125 25.3433 45.8098 27.6542 47.3092 28.8975ZM15.36 26.5C15.36 20.8682 19.9088 16.2864 25.5 16.2864C31.0912 16.2864 35.64 20.8682 35.64 26.5C35.64 32.1318 31.0912 36.7136 25.5 36.7136C19.9088 36.7136 15.36 32.1318 15.36 26.5ZM38.2131 38.8691L40.5558 39.7576L44.3694 33.0704L42.4379 31.4609C39.3567 28.8931 39.3506 24.1118 42.438 21.5389L44.3693 19.9294L44.3703 19.9285L40.5557 13.2424L38.213 14.1309C34.4755 15.5481 30.3824 13.1633 29.7249 9.16995L29.3137 6.67189H21.6862L21.275 9.16995C20.6189 13.1551 16.532 15.551 12.787 14.1309L10.4443 13.2424L6.63056 19.9295L8.56194 21.539C11.643 24.1068 11.6495 28.8879 8.56194 31.461L6.63056 33.0705L10.4443 39.7576L12.787 38.8691C16.5247 37.4516 20.6177 39.8372 21.275 43.83L21.6863 46.3281H29.3138L29.725 43.83C30.3811 39.8449 34.4681 37.4489 38.2131 38.8691ZM20.1801 26.5C20.1801 29.4695 22.5666 31.8854 25.5 31.8854C28.4334 31.8854 30.8199 29.4695 30.8199 26.5C30.8199 23.5305 28.4334 21.1146 25.5 21.1146C22.5666 21.1146 20.1801 23.5305 20.1801 26.5Z" fill="#682EC6"/>
</svg>
