<svg width="15" height="15" viewBox="0 0 15 15" fill="none" xmlns="http://www.w3.org/2000/svg">
<path d="M11.875 8.75012C11.4185 8.75181 10.968 8.85412 10.5556 9.04975C10.1431 9.24538 9.77887 9.52953 9.48875 9.88197L6.11375 8.35825C6.1996 8.08012 6.24548 7.79119 6.25 7.50014C6.24595 7.21225 6.20156 6.92635 6.11812 6.65079L9.48937 5.11957C9.9624 5.67625 10.6164 6.04849 11.3366 6.17093C12.0568 6.29337 12.7971 6.15817 13.4275 5.78908C14.0579 5.41999 14.5382 4.84061 14.7839 4.15267C15.0296 3.46473 15.0251 2.71222 14.7712 2.02727C14.5172 1.34232 14.0301 0.768722 13.3953 0.407207C12.7605 0.0456923 12.0186 -0.0806314 11.3 0.0504182C10.5813 0.181468 9.93178 0.561512 9.46546 1.12382C8.99913 1.68612 8.74582 2.39474 8.75 3.12523C8.75 3.21398 8.76875 3.29773 8.77625 3.3846L5.0625 5.07019C4.515 4.62405 3.83126 4.37878 3.125 4.3752C2.2962 4.3752 1.50134 4.70444 0.915291 5.29048C0.32924 5.87652 0 6.67136 0 7.50014C0 8.32893 0.32924 9.12377 0.915291 9.70981C1.50134 10.2958 2.2962 10.6251 3.125 10.6251C3.8282 10.6222 4.50941 10.3797 5.05625 9.9376L8.77625 11.6169C8.76875 11.7038 8.75 11.7869 8.75 11.8751C8.75 12.4931 8.93328 13.0973 9.27666 13.6112C9.62004 14.1251 10.1081 14.5256 10.6791 14.7621C11.2501 14.9986 11.8785 15.0605 12.4847 14.94C13.0908 14.8194 13.6477 14.5218 14.0847 14.0847C14.5217 13.6477 14.8194 13.0909 14.94 12.4847C15.0605 11.8785 14.9986 11.2502 14.7621 10.6792C14.5256 10.1082 14.1251 9.62014 13.6112 9.27677C13.0973 8.9334 12.4931 8.75012 11.875 8.75012ZM11.875 1.87525C12.1222 1.87525 12.3639 1.94856 12.5695 2.08591C12.775 2.22326 12.9352 2.41848 13.0298 2.64688C13.1245 2.87529 13.1492 3.12662 13.101 3.36909C13.0527 3.61156 12.9337 3.83428 12.7589 4.0091C12.5841 4.18391 12.3613 4.30296 12.1189 4.35119C11.8764 4.39942 11.6251 4.37466 11.3966 4.28006C11.1682 4.18545 10.973 4.02524 10.8357 3.81968C10.6983 3.61412 10.625 3.37245 10.625 3.12523C10.625 2.79371 10.7567 2.47578 10.9911 2.24136C11.2255 2.00695 11.5435 1.87525 11.875 1.87525ZM3.125 8.75012C2.87777 8.75012 2.6361 8.67681 2.43054 8.53946C2.22498 8.40211 2.06476 8.20689 1.97015 7.97849C1.87554 7.75009 1.85079 7.49876 1.89902 7.25629C1.94725 7.01381 2.0663 6.79109 2.24112 6.61628C2.41593 6.44147 2.63866 6.32242 2.88114 6.27419C3.12361 6.22596 3.37495 6.25071 3.60335 6.34532C3.83176 6.43993 4.02698 6.60014 4.16434 6.8057C4.30169 7.01125 4.375 7.25292 4.375 7.50014C4.375 7.83166 4.2433 8.14959 4.00888 8.38401C3.77446 8.61843 3.45652 8.75012 3.125 8.75012ZM11.875 13.125C11.6278 13.125 11.3861 13.0517 11.1805 12.9144C10.975 12.777 10.8148 12.5818 10.7201 12.3534C10.6255 12.125 10.6008 11.8737 10.649 11.6312C10.6972 11.3887 10.8163 11.166 10.9911 10.9912C11.1659 10.8164 11.3887 10.6973 11.6311 10.6491C11.8736 10.6009 12.1249 10.6256 12.3534 10.7202C12.5818 10.8148 12.777 10.9751 12.9143 11.1806C13.0517 11.3862 13.125 11.6278 13.125 11.8751C13.125 12.2066 12.9933 12.5245 12.7589 12.7589C12.5245 12.9933 12.2065 13.125 11.875 13.125Z" fill="#F0F5FC"/>
</svg>
