<svg width="45" height="45" viewBox="0 0 45 45" fill="none" xmlns="http://www.w3.org/2000/svg">
<path d="M35.625 26.2504C34.2555 26.2554 32.904 26.5624 31.6667 27.1493C30.4293 27.7362 29.3366 28.5886 28.4662 29.6459L18.3412 25.0748C18.5988 24.2404 18.7364 23.3736 18.75 22.5004C18.7379 21.6368 18.6047 20.7791 18.3544 19.9524L28.4681 15.3587C29.8872 17.0287 31.8493 18.1455 34.0098 18.5128C36.1704 18.8801 38.3913 18.4745 40.2825 17.3672C42.1738 16.26 43.6145 14.5218 44.3516 12.458C45.0888 10.3942 45.0753 8.13665 44.3135 6.0818C43.5517 4.02695 42.0903 2.30617 40.1859 1.22162C38.2815 0.137077 36.0559 -0.241894 33.8999 0.151255C31.7439 0.544403 29.7954 1.68454 28.3964 3.37145C26.9974 5.05836 26.2375 7.18421 26.25 9.37569C26.25 9.64193 26.3062 9.89318 26.3287 10.1538L15.1875 15.2106C13.545 13.8721 11.4938 13.1364 9.375 13.1256C6.8886 13.1256 4.50403 14.1133 2.74587 15.8714C0.98772 17.6296 0 20.0141 0 22.5004C0 24.9868 0.98772 27.3713 2.74587 29.1294C4.50403 30.8876 6.8886 31.8753 9.375 31.8753C11.4846 31.8666 13.5282 31.1391 15.1687 29.8128L26.3287 34.8508C26.3062 35.1114 26.25 35.3608 26.25 35.6252C26.25 37.4793 26.7998 39.2919 27.83 40.8335C28.8601 42.3752 30.3243 43.5768 32.0373 44.2864C33.7504 44.9959 35.6354 45.1816 37.454 44.8199C39.2725 44.4581 40.943 43.5653 42.2541 42.2542C43.5652 40.9431 44.4581 39.2727 44.8199 37.4541C45.1816 35.6356 44.9959 33.7506 44.2864 32.0376C43.5768 30.3246 42.3752 28.8604 40.8335 27.8303C39.2918 26.8002 37.4792 26.2504 35.625 26.2504ZM35.625 5.62576C36.3667 5.62576 37.0917 5.84569 37.7084 6.25774C38.3251 6.66978 38.8057 7.25544 39.0895 7.94065C39.3734 8.62586 39.4476 9.37985 39.3029 10.1073C39.1582 10.8347 38.8011 11.5028 38.2766 12.0273C37.7522 12.5517 37.084 12.9089 36.3566 13.0536C35.6292 13.1983 34.8752 13.124 34.1899 12.8402C33.5047 12.5563 32.919 12.0757 32.507 11.459C32.0949 10.8424 31.875 10.1174 31.875 9.37569C31.875 8.38114 32.2701 7.42733 32.9733 6.72409C33.6766 6.02084 34.6304 5.62576 35.625 5.62576ZM9.375 26.2504C8.63332 26.2504 7.9083 26.0304 7.29161 25.6184C6.67493 25.2063 6.19428 24.6207 5.91045 23.9355C5.62662 23.2503 5.55236 22.4963 5.69705 21.7689C5.84175 21.0414 6.1989 20.3733 6.72335 19.8488C7.2478 19.3244 7.91598 18.9673 8.64341 18.8226C9.37084 18.6779 10.1248 18.7521 10.8101 19.036C11.4953 19.3198 12.081 19.8004 12.493 20.4171C12.9051 21.0338 13.125 21.7588 13.125 22.5004C13.125 23.495 12.7299 24.4488 12.0266 25.152C11.3234 25.8553 10.3696 26.2504 9.375 26.2504ZM35.625 39.3751C34.8833 39.3751 34.1583 39.1552 33.5416 38.7431C32.9249 38.3311 32.4443 37.7454 32.1604 37.0602C31.8766 36.375 31.8024 35.621 31.9471 34.8936C32.0917 34.1662 32.4489 33.498 32.9733 32.9736C33.4978 32.4491 34.166 32.092 34.8934 31.9473C35.6208 31.8026 36.3748 31.8769 37.0601 32.1607C37.7453 32.4445 38.331 32.9252 38.743 33.5418C39.1551 34.1585 39.375 34.8835 39.375 35.6252C39.375 36.6197 38.9799 37.5735 38.2766 38.2768C37.5734 38.98 36.6196 39.3751 35.625 39.3751Z" fill="#682EC6"/>
</svg>
