<svg width="27" height="27" viewBox="0 0 27 27" fill="none" xmlns="http://www.w3.org/2000/svg">
<path d="M13.5 19.125C10.395 19.125 7.875 16.605 7.875 13.5C7.875 10.395 10.395 7.875 13.5 7.875C16.605 7.875 19.125 10.395 19.125 13.5C19.125 16.605 16.605 19.125 13.5 19.125ZM14.625 4.5V1.125C14.625 0.50625 14.1188 0 13.5 0C12.8812 0 12.375 0.50625 12.375 1.125V4.5C12.375 5.11875 12.8812 5.625 13.5 5.625C14.1188 5.625 14.625 5.11875 14.625 4.5ZM14.625 25.875V22.5C14.625 21.8812 14.1188 21.375 13.5 21.375C12.8812 21.375 12.375 21.8812 12.375 22.5V25.875C12.375 26.4938 12.8812 27 13.5 27C14.1188 27 14.625 26.4938 14.625 25.875ZM5.625 13.5C5.625 12.8812 5.11875 12.375 4.5 12.375H1.125C0.50625 12.375 0 12.8812 0 13.5C0 14.1188 0.50625 14.625 1.125 14.625H4.5C5.11875 14.625 5.625 14.1188 5.625 13.5ZM27 13.5C27 12.8812 26.4938 12.375 25.875 12.375H22.5C21.8812 12.375 21.375 12.8812 21.375 13.5C21.375 14.1188 21.8812 14.625 22.5 14.625H25.875C26.4938 14.625 27 14.1188 27 13.5ZM7.54875 7.54875C7.65304 7.44467 7.73578 7.32105 7.79224 7.18495C7.84869 7.04886 7.87775 6.90296 7.87775 6.75563C7.87775 6.60829 7.84869 6.46239 7.79224 6.3263C7.73578 6.1902 7.65304 6.06658 7.54875 5.9625L5.29875 3.7125C5.1946 3.60835 5.07095 3.52573 4.93486 3.46936C4.79878 3.41299 4.65292 3.38398 4.50563 3.38398C4.35833 3.38398 4.21247 3.41299 4.07639 3.46936C3.9403 3.52573 3.81665 3.60835 3.7125 3.7125C3.60835 3.81665 3.52573 3.9403 3.46936 4.07639C3.41299 4.21247 3.38398 4.35833 3.38398 4.50563C3.38398 4.65292 3.41299 4.79878 3.46936 4.93486C3.52573 5.07095 3.60835 5.1946 3.7125 5.29875L5.9625 7.54875C6.1875 7.77375 6.46875 7.875 6.76125 7.875C7.05375 7.875 7.335 7.7625 7.56 7.54875H7.54875ZM23.2987 23.2987C23.403 23.1947 23.4858 23.071 23.5422 22.935C23.5987 22.7989 23.6277 22.653 23.6277 22.5056C23.6277 22.3583 23.5987 22.2124 23.5422 22.0763C23.4858 21.9402 23.403 21.8166 23.2987 21.7125L21.0487 19.4625C20.9446 19.3583 20.8209 19.2757 20.6849 19.2194C20.5488 19.163 20.4029 19.134 20.2556 19.134C20.1083 19.134 19.9625 19.163 19.8264 19.2194C19.6903 19.2757 19.5667 19.3583 19.4625 19.4625C19.3583 19.5667 19.2757 19.6903 19.2194 19.8264C19.163 19.9625 19.134 20.1083 19.134 20.2556C19.134 20.4029 19.163 20.5488 19.2194 20.6849C19.2757 20.8209 19.3583 20.9446 19.4625 21.0487L21.7125 23.2987C21.9375 23.5237 22.2188 23.625 22.5113 23.625C22.8038 23.625 23.085 23.5125 23.31 23.2987H23.2987ZM5.29875 23.2987L7.54875 21.0487C7.7591 20.8384 7.87727 20.5531 7.87727 20.2556C7.87727 19.9581 7.7591 19.6728 7.54875 19.4625C7.3384 19.2521 7.0531 19.134 6.75563 19.134C6.45815 19.134 6.17285 19.2521 5.9625 19.4625L3.7125 21.7125C3.55551 21.8696 3.44875 22.0698 3.40578 22.2877C3.36281 22.5056 3.38557 22.7314 3.47116 22.9363C3.55676 23.1413 3.70133 23.3162 3.88651 23.4388C4.0717 23.5614 4.28915 23.6262 4.51125 23.625C4.80375 23.625 5.085 23.5125 5.31 23.2987H5.29875ZM21.0487 7.54875L23.2987 5.29875C23.4029 5.1946 23.4855 5.07095 23.5419 4.93486C23.5983 4.79878 23.6273 4.65292 23.6273 4.50563C23.6273 4.35833 23.5983 4.21247 23.5419 4.07639C23.4855 3.9403 23.4029 3.81665 23.2987 3.7125C23.1946 3.60835 23.0709 3.52573 22.9349 3.46936C22.7988 3.41299 22.6529 3.38398 22.5056 3.38398C22.3583 3.38398 22.2125 3.41299 22.0764 3.46936C21.9403 3.52573 21.8167 3.60835 21.7125 3.7125L19.4625 5.9625C19.3055 6.11961 19.1988 6.31983 19.1558 6.53773C19.1128 6.75564 19.1356 6.9814 19.2212 7.18634C19.3068 7.39129 19.4513 7.56617 19.6365 7.68879C19.8217 7.8114 20.0392 7.87622 20.2613 7.875C20.5538 7.875 20.835 7.7625 21.06 7.54875H21.0487Z" fill="#202020"/>
</svg>
