<svg width="45" height="39" viewBox="0 0 45 39" fill="none" xmlns="http://www.w3.org/2000/svg">
<path d="M8.4225 19.6765C7.81471 21.501 7.50296 23.4179 7.5 25.3487C7.5 25.5613 7.52437 25.768 7.53 25.9786C3.08812 23.7888 0 19.0915 0 13.6493C0 6.12464 5.8875 0 13.125 0H20.625C27.8606 0 33.75 6.12464 33.75 13.6493C33.75 20.9966 28.1344 26.9906 21.1331 27.2713C20.8048 26.6878 20.6296 26.0248 20.625 25.3487C20.625 23.5802 21.2325 22.3166 23.5275 20.8406C24.8889 20.2449 26.0513 19.245 26.869 17.9659C27.6868 16.6868 28.1237 15.1853 28.125 13.6493C28.125 9.34783 24.7613 5.84971 20.625 5.84971H13.125C8.98875 5.84971 5.625 9.34783 5.625 13.6493C5.625 16.0906 6.72938 18.2452 8.4225 19.6765ZM37.47 13.0215C37.4775 13.232 37.5 13.4387 37.5 13.6513C37.497 15.5821 37.1853 17.499 36.5775 19.3235C38.2706 20.7548 39.375 22.9094 39.375 25.3507C39.375 29.6522 36.0113 33.1503 31.875 33.1503H24.375C20.2387 33.1503 16.875 29.6522 16.875 25.3507C16.8768 23.8148 17.3139 22.3135 18.1316 21.0345C18.9493 19.7555 20.1113 18.7555 21.4725 18.1594C23.7675 16.6834 24.375 15.4179 24.375 13.6513C24.375 12.9493 24.1819 12.298 23.8669 11.7287C16.8656 12.0095 11.25 18.0035 11.25 25.3507C11.25 32.8754 17.1375 39 24.375 39H31.875C39.1106 39 45 32.8754 45 25.3507C45 19.9085 41.9119 15.2112 37.47 13.0215Z" fill="#682EC6"/>
</svg>
