<svg width="15" height="9" viewBox="0 0 15 9" fill="none" xmlns="http://www.w3.org/2000/svg">
<path d="M12.4473 5.16086C12.2048 4.84586 12.2742 4.70571 12.4473 4.42414C12.4504 4.42093 14.4524 1.57564 14.6586 0.610714L14.6599 0.610071C14.7624 0.258428 14.6599 0 14.1642 0H12.5242C12.1067 0 11.9142 0.221786 11.811 0.469929C11.811 0.469929 10.976 2.52579 9.79471 3.85843C9.41345 4.2435 9.23719 4.36693 9.02906 4.36693C8.92656 4.36693 8.76718 4.2435 8.76718 3.89186V0.610071C8.76718 0.188357 8.6503 0 8.30466 0H5.72582C5.46394 0 5.30831 0.196714 5.30831 0.379929C5.30831 0.779786 5.89895 0.871714 5.96021 1.99671V4.43764C5.96021 4.9725 5.86583 5.07086 5.65645 5.07086C5.09893 5.07086 3.74575 3.00664 2.94385 0.644143C2.78197 0.185786 2.62384 0.000642811 2.2032 0.000642811H0.562519C0.0943782 0.000642811 0 0.222428 0 0.470571C0 0.909 0.557519 3.08893 2.59259 5.96893C3.94889 7.93479 5.85895 9 7.59651 9C8.64092 9 8.76843 8.76343 8.76843 8.3565C8.76843 6.47807 8.67405 6.30064 9.19719 6.30064C9.4397 6.30064 9.85722 6.42407 10.8322 7.37229C11.9467 8.49664 12.1298 9 12.7536 9H14.3936C14.8611 9 15.098 8.76343 14.9618 8.29671C14.6499 7.31507 12.5423 5.29586 12.4473 5.16086Z" fill="#F0F5FC"/>
</svg>
