<svg width="723" height="470" viewBox="0 0 723 470" fill="none" xmlns="http://www.w3.org/2000/svg">
<g clip-path="url(#clip0_550_403)">
<path d="M638.821 420.123L447.375 414.557C438.289 414.293 431.147 406.341 431.425 396.796L436.943 207.001C437.22 197.457 444.812 189.933 453.898 190.197L645.344 195.763C654.431 196.027 661.572 203.979 661.295 213.524L655.777 403.318C655.499 412.863 647.908 420.387 638.821 420.123Z" fill="white"/>
<path d="M638.821 420.123L447.375 414.557C438.289 414.293 431.147 406.341 431.425 396.796L436.943 207.001C437.22 197.457 444.812 189.933 453.898 190.197L645.344 195.763C654.431 196.027 661.572 203.979 661.295 213.524L655.777 403.318C655.499 412.863 647.908 420.387 638.821 420.123Z" stroke="#202020" stroke-width="2.30043" stroke-linecap="round" stroke-linejoin="round"/>
<path d="M660.75 232.243L661.295 213.524C661.572 203.979 654.431 196.027 645.344 195.763L453.898 190.197C444.812 189.933 437.22 197.457 436.943 207.001L436.399 225.72L660.75 232.243Z" fill="white"/>
<path d="M660.75 232.243L661.295 213.524C661.572 203.979 654.431 196.027 645.344 195.763L453.898 190.197C444.812 189.933 437.22 197.457 436.943 207.001L436.399 225.72L660.75 232.243Z" stroke="#202020" stroke-width="2.30043" stroke-linecap="round" stroke-linejoin="round"/>
<path d="M639.125 320.244L561.518 317.988L563.5 249.816L641.107 252.073L639.125 320.244Z" fill="#682EC6"/>
<path d="M639.125 320.244L561.518 317.988L563.5 249.816L641.107 252.073L639.125 320.244Z" stroke="#202020" stroke-width="2.39596" stroke-linecap="round" stroke-linejoin="round"/>
<path d="M563.5 249.816L639.125 320.244" stroke="#202020" stroke-width="2.39596" stroke-linecap="round" stroke-linejoin="round"/>
<path d="M561.518 317.988L641.107 252.073" stroke="#202020" stroke-width="2.39596" stroke-linecap="round" stroke-linejoin="round"/>
<mask id="mask0_550_403" style="mask-type:alpha" maskUnits="userSpaceOnUse" x="430" y="189" width="233" height="233">
<path d="M638.821 420.123L447.375 414.557C438.289 414.293 431.147 406.341 431.425 396.796L436.943 207.001C437.22 197.457 444.812 189.933 453.898 190.197L645.344 195.763C654.431 196.027 661.572 203.979 661.295 213.524L655.777 403.318C655.499 412.863 647.908 420.387 638.821 420.123Z" fill="white"/>
<path d="M638.821 420.123L447.375 414.557C438.289 414.293 431.147 406.341 431.425 396.796L436.943 207.001C437.22 197.457 444.812 189.933 453.898 190.197L645.344 195.763C654.431 196.027 661.572 203.979 661.295 213.524L655.777 403.318C655.499 412.863 647.908 420.387 638.821 420.123Z" stroke="#231F20" stroke-width="2.30043" stroke-linecap="round" stroke-linejoin="round"/>
</mask>
<g mask="url(#mask0_550_403)">
<path d="M600.605 397.351L619.36 397.896" stroke="#202020" stroke-width="2.30043" stroke-linecap="round" stroke-linejoin="round"/>
<path d="M560.793 396.193L593.217 397.136" stroke="#202020" stroke-width="2.30043" stroke-linecap="round" stroke-linejoin="round"/>
<path d="M577.902 376.922L635.88 378.608" stroke="#202020" stroke-width="2.30043" stroke-linecap="round" stroke-linejoin="round"/>
<path d="M561.562 376.447L570.869 376.718" stroke="#202020" stroke-width="2.30043" stroke-linecap="round" stroke-linejoin="round"/>
<path d="M599.835 357.791L561.941 356.689" stroke="#202020" stroke-width="2.30043" stroke-linecap="round" stroke-linejoin="round"/>
<path d="M637.03 339.104L613.434 338.418" stroke="#202020" stroke-width="2.30043" stroke-linecap="round" stroke-linejoin="round"/>
<path d="M606.401 338.213L579.312 337.426" stroke="#202020" stroke-width="2.30043" stroke-linecap="round" stroke-linejoin="round"/>
<path d="M572.278 337.221L562.516 336.937" stroke="#202020" stroke-width="2.30043" stroke-linecap="round" stroke-linejoin="round"/>
</g>
<path d="M540.242 395.596L452.098 393.033L456.312 248.06L544.457 250.622L540.242 395.596Z" fill="#202020"/>
<path d="M540.242 395.596L452.098 393.033L456.312 248.06L544.457 250.622L540.242 395.596Z" stroke="#202020" stroke-width="2.30043" stroke-linecap="round" stroke-linejoin="round"/>
<path d="M403.323 459.614C344.575 469.201 278.142 467.255 219.016 468.105C159.9 467.255 93.445 469.2 34.709 459.614C93.4578 450.027 159.891 451.973 219.016 451.123C278.132 451.973 344.587 450.028 403.323 459.614Z" fill="#202020"/>
<path d="M403.323 459.614C344.575 469.201 278.142 467.255 219.016 468.105C159.9 467.255 93.445 469.2 34.709 459.614C93.4578 450.027 159.891 451.973 219.016 451.123C278.132 451.973 344.587 450.028 403.323 459.614Z" stroke="#202020" stroke-width="2.4" stroke-linecap="round" stroke-linejoin="round"/>
<path d="M351.266 129.731C346.856 131.112 332.699 149.162 333.768 154.783C334.837 160.404 355.218 158.769 360.465 156.438C365.711 154.108 375.104 151.982 375.104 140.897C375.104 129.812 355.676 128.349 351.266 129.731Z" fill="#202020"/>
<path d="M351.266 129.731C346.856 131.112 332.699 149.162 333.768 154.783C334.837 160.404 355.218 158.769 360.465 156.438C365.711 154.108 375.104 151.982 375.104 140.897C375.104 129.812 355.676 128.349 351.266 129.731Z" stroke="#202020" stroke-width="2.4" stroke-linecap="round" stroke-linejoin="round"/>
<path d="M331.48 131.112C322.588 137.929 312.227 146 306.511 149.327C287.224 161.384 328.366 212.455 342.376 196.823C349.034 192.861 353.951 188.39 357.574 184.128C371.101 167.109 357.203 149.327 346.264 149.039C352.922 139.246 338.883 125.506 331.48 131.112Z" fill="white"/>
<path d="M331.48 131.112C322.588 137.929 312.227 146 306.511 149.327C287.224 161.384 328.366 212.455 342.376 196.823C349.034 192.861 353.951 188.39 357.574 184.128C371.101 167.109 357.203 149.327 346.264 149.039C352.922 139.246 338.883 125.506 331.48 131.112Z" stroke="#202020" stroke-width="2.4" stroke-linecap="round" stroke-linejoin="round"/>
<path d="M346.265 149.039C355.583 135.837 351.505 136.582 368.205 136.149C372.271 139.124 378.687 144.075 384.006 141.409C387.599 137.76 388.711 134.164 385.233 130.088C382.698 127.117 375.107 120.056 369.896 119.289C366.171 118.74 350.58 119.117 347.182 120.136C345.446 120.497 338.986 125.358 331.48 131.112" fill="white"/>
<path d="M346.265 149.039C355.583 135.837 351.505 136.582 368.205 136.149C372.271 139.124 378.687 144.075 384.006 141.409C387.599 137.76 388.711 134.164 385.233 130.088C382.698 127.117 375.107 120.056 369.896 119.289C366.171 118.74 350.58 119.117 347.182 120.136C345.446 120.497 338.986 125.358 331.48 131.112" stroke="#202020" stroke-width="2.4" stroke-linecap="round" stroke-linejoin="round"/>
<path d="M505.411 289.858H377.148V144.912H505.411V289.858Z" stroke="#202020" stroke-width="2.4" stroke-linecap="round" stroke-linejoin="round"/>
<mask id="mask1_550_403" style="mask-type:alpha" maskUnits="userSpaceOnUse" x="450" y="246" width="96" height="151">
<path d="M540.242 395.596L452.098 393.033L456.312 248.06L544.457 250.622L540.242 395.596Z" fill="#231F20"/>
<path d="M540.242 395.596L452.098 393.033L456.312 248.06L544.457 250.622L540.242 395.596Z" stroke="#231F20" stroke-width="2.30043" stroke-linecap="round" stroke-linejoin="round"/>
</mask>
<g mask="url(#mask1_550_403)">
<path d="M505.411 289.858H377.148V144.912H505.411V289.858Z" stroke="white" stroke-width="2.4" stroke-linecap="round" stroke-linejoin="round"/>
</g>
<path d="M519.214 158.714H491.609V131.11H519.214V158.714Z" fill="white"/>
<path d="M519.214 158.714H491.609V131.11H519.214V158.714Z" stroke="#202020" stroke-width="2.4" stroke-linecap="round" stroke-linejoin="round"/>
<path d="M519.214 303.523H491.609V275.919H519.214V303.523Z" fill="white"/>
<path d="M519.214 303.523H491.609V275.919H519.214V303.523Z" stroke="#202020" stroke-width="2.4" stroke-linecap="round" stroke-linejoin="round"/>
<path d="M390.952 158.718L363.347 158.717L363.348 131.113L390.952 131.113L390.952 158.718Z" fill="white"/>
<path d="M390.952 158.718L363.347 158.717L363.348 131.113L390.952 131.113L390.952 158.718Z" stroke="#202020" stroke-width="2.4" stroke-linecap="round" stroke-linejoin="round"/>
<path d="M390.956 303.797L363.351 303.797L363.352 276.192L390.956 276.192L390.956 303.797Z" fill="white"/>
<path d="M390.956 303.797L363.351 303.797L363.352 276.192L390.956 276.192L390.956 303.797Z" stroke="#202020" stroke-width="2.4" stroke-linecap="round" stroke-linejoin="round"/>
<path d="M357.572 184.128C363.611 177.024 366.055 170.501 366.975 167.885C370.146 164.91 379.002 158.654 380.734 154.458C382.348 150.548 379.691 144.938 374.347 144.915C370.603 144.899 362.314 149.462 359.004 150.71C359.004 150.71 352.951 148.129 346.262 149.04" fill="white"/>
<path d="M357.572 184.128C363.611 177.024 366.055 170.501 366.975 167.885C370.146 164.91 379.002 158.654 380.734 154.458C382.348 150.548 379.691 144.938 374.347 144.915C370.603 144.899 362.314 149.462 359.004 150.71C359.004 150.71 352.951 148.129 346.262 149.04" stroke="#202020" stroke-width="2.4" stroke-linecap="round" stroke-linejoin="round"/>
<path d="M212.57 162.447C212.57 162.447 213.506 115.378 213.503 115.257C213.372 108.736 208.634 103.016 201.967 101.879C195.3 100.742 188.932 104.567 186.647 110.676C186.591 110.825 173.359 155.362 173.359 155.362C168.53 168.153 211.629 177.705 212.57 162.447Z" fill="white"/>
<path d="M212.57 162.447C212.57 162.447 213.506 115.378 213.503 115.257C213.372 108.736 208.634 103.016 201.967 101.879C195.3 100.742 188.932 104.567 186.647 110.676C186.591 110.825 173.359 155.362 173.359 155.362C168.53 168.153 211.629 177.705 212.57 162.447Z" stroke="#202020" stroke-width="2.4" stroke-linecap="round" stroke-linejoin="round"/>
<path d="M196.106 75.7716C196.771 83.2082 191.282 89.776 183.845 90.4415C176.409 91.1069 169.841 85.6177 169.175 78.1811C168.51 70.7444 173.999 64.1766 181.436 63.5112C188.872 62.8457 195.44 68.3349 196.106 75.7716Z" fill="#202020"/>
<path d="M196.106 75.7716C196.771 83.2082 191.282 89.776 183.845 90.4415C176.409 91.1069 169.841 85.6177 169.175 78.1811C168.51 70.7444 173.999 64.1766 181.436 63.5112C188.872 62.8457 195.44 68.3349 196.106 75.7716Z" stroke="#202020" stroke-width="2.4" stroke-linecap="round" stroke-linejoin="round"/>
<path d="M182.363 125.073C182.363 125.073 177.303 115.924 179.238 107.834C180.847 101.103 184.505 91.8318 201.809 92.1271C218.631 92.4143 225.083 111.046 213.49 114.825C211.231 115.661 201.13 113.989 198.479 108.242C193.438 118.879 182.363 125.073 182.363 125.073Z" fill="#202020"/>
<path d="M182.363 125.073C182.363 125.073 177.303 115.924 179.238 107.834C180.847 101.103 184.505 91.8318 201.809 92.1271C218.631 92.4143 225.083 111.046 213.49 114.825C211.231 115.661 201.13 113.989 198.479 108.242C193.438 118.879 182.363 125.073 182.363 125.073Z" stroke="#202020" stroke-width="2.4" stroke-linecap="round" stroke-linejoin="round"/>
<path d="M199.571 121.001C202.581 119.104 207.143 119.135 207.559 124.237" stroke="#202020" stroke-width="2.4" stroke-linecap="round" stroke-linejoin="round"/>
<path d="M204.961 140.051C201.71 139.391 198.863 138.543 197.54 136.141C196.087 133.501 196.977 130.479 199.84 129.933C203.05 129.32 207.97 132.466 213.183 131.612L213.014 140.132C213.014 140.132 207.933 140.655 204.961 140.051Z" fill="white"/>
<path d="M204.961 140.051C201.71 139.391 198.863 138.543 197.54 136.141C196.087 133.501 196.977 130.479 199.84 129.933C203.05 129.32 207.97 132.466 213.183 131.612L213.014 140.132C213.014 140.132 207.933 140.655 204.961 140.051Z" stroke="#202020" stroke-width="2.4" stroke-linecap="round" stroke-linejoin="round"/>
<path d="M196.43 92.3746L184.123 97.1041C182.049 97.9047 179.719 96.8722 178.918 94.7982C178.118 92.7241 179.15 90.3936 181.224 89.593L193.531 84.8635C195.605 84.0629 197.935 85.0954 198.736 87.1694C199.536 89.2435 198.504 91.574 196.43 92.3746Z" fill="white"/>
<path d="M196.43 92.3746L184.123 97.1041C182.049 97.9047 179.719 96.8722 178.918 94.7982C178.118 92.7241 179.15 90.3936 181.224 89.593L193.531 84.8635C195.605 84.0629 197.935 85.0954 198.736 87.1694C199.536 89.2435 198.504 91.574 196.43 92.3746Z" stroke="#202020" stroke-width="2.4" stroke-linecap="round" stroke-linejoin="round"/>
<path d="M103.647 333.947C159.233 360.127 168.929 323.279 135.18 311.194C110.875 302.489 95.8454 289.546 89.8696 297.745L81.7527 306.336C77.273 316.036 95.5855 329.726 103.647 333.947Z" fill="#202020"/>
<path d="M103.647 333.947C159.233 360.127 168.929 323.279 135.18 311.194C110.875 302.489 95.8454 289.546 89.8697 297.745L81.7527 306.336C77.273 316.036 95.5855 329.726 103.647 333.947Z" stroke="#202020" stroke-width="2.4" stroke-linecap="round" stroke-linejoin="round"/>
<path d="M310.642 339.34L105.04 277.034C96.9291 286.37 65.3219 312.017 70.9931 361.213C74.2459 389.427 92.0291 412.159 117.897 421.762C126.519 424.962 256.886 459.614 292.519 459.614C326.481 459.614 354.013 430.843 354.013 396.88C354.013 369.91 334.8 347.632 310.642 339.34Z" fill="white"/>
<path d="M310.642 339.34L105.04 277.034C96.9291 286.37 65.3219 312.017 70.9931 361.213C74.2459 389.427 92.0291 412.159 117.897 421.762C126.519 424.962 256.886 459.614 292.519 459.614C326.481 459.614 354.013 430.843 354.013 396.88C354.013 369.91 334.8 347.632 310.642 339.34Z" stroke="#202020" stroke-width="2.4" stroke-linecap="round" stroke-linejoin="round"/>
<path d="M267.886 374.95C267.886 374.95 260.791 371.875 234.22 374.323C218.319 375.788 170.069 389.014 170.069 389.014C170.066 389.014 160.449 391.447 149.987 390.981C134.331 387.422 130.11 459.614 149.987 459.614L292.518 459.615C309.963 459.615 333.868 451.124 346.494 426.656" fill="white"/>
<path d="M267.886 374.95C267.886 374.95 260.791 371.875 234.22 374.323C218.319 375.788 170.069 389.014 170.069 389.014C170.066 389.014 160.449 391.447 149.987 390.981C134.331 387.422 130.11 459.614 149.987 459.614L292.518 459.615C309.963 459.615 333.868 451.124 346.494 426.656" stroke="#202020" stroke-width="2.4" stroke-linecap="round" stroke-linejoin="round"/>
<mask id="mask2_550_403" style="mask-type:alpha" maskUnits="userSpaceOnUse" x="69" y="275" width="287" height="186">
<path d="M310.642 339.34L105.04 277.034C96.9291 286.37 65.3219 312.017 70.9931 361.213C74.2459 389.427 92.0291 412.159 117.897 421.762C126.519 424.962 256.886 459.614 292.519 459.614C326.481 459.614 354.013 430.843 354.013 396.88C354.013 369.91 334.8 347.632 310.642 339.34Z" fill="#CAE062"/>
<path d="M310.642 339.34L105.04 277.034C96.9291 286.37 65.3219 312.017 70.9931 361.213C74.2459 389.427 92.0291 412.159 117.897 421.762C126.519 424.962 256.886 459.614 292.519 459.614C326.481 459.614 354.013 430.843 354.013 396.88C354.013 369.91 334.8 347.632 310.642 339.34Z" stroke="#231F20" stroke-width="2.4" stroke-linecap="round" stroke-linejoin="round"/>
</mask>
<g mask="url(#mask2_550_403)">
<path d="M243.822 356.377C293.199 351.707 340.957 339.32 364.556 332.39C355.316 277.831 265.664 323.479 229.52 308.74C193.375 294 203.871 219.468 183.915 204.239C163.66 188.781 158.805 234.054 158.805 234.054C159.681 269.051 160.221 278.025 162.922 301.426C167.675 342.6 195.754 360.923 243.822 356.377Z" fill="#202020"/>
<path d="M243.822 356.377C293.199 351.707 340.957 339.32 364.556 332.39C355.316 277.831 265.664 323.479 229.52 308.74C193.375 294 203.871 219.468 183.915 204.239C163.66 188.781 158.805 234.054 158.805 234.054C159.681 269.051 160.221 278.025 162.922 301.426C167.675 342.6 195.754 360.923 243.822 356.377Z" stroke="#202020" stroke-width="2.4" stroke-linecap="round" stroke-linejoin="round"/>
</g>
<path d="M81.3223 391.687C88.9295 404.222 100.19 414.153 114.031 420.189C131.387 427.248 138.045 384.74 116.856 379.026C97.2199 374.353 81.6071 391.374 81.3223 391.687Z" fill="#202020"/>
<path d="M81.3223 391.687C88.9295 404.222 100.19 414.153 114.031 420.189C131.387 427.248 138.045 384.74 116.856 379.026C97.2199 374.353 81.6071 391.374 81.3223 391.687Z" stroke="#202020" stroke-width="2.4" stroke-linecap="round" stroke-linejoin="round"/>
<path d="M165.344 403.6C165.344 396.602 171.792 395.796 170.07 389.013C170.07 389.013 151.673 393.671 138.084 388.87C124.957 384.311 122.342 378.467 111.585 378.467C100.599 378.467 94.7676 384.182 88.4156 399.158C84.2556 408.966 77.5919 420.467 57.0181 427.07C49.7502 429.402 34.4648 431.459 33.4531 431.564C28.4892 432.078 24.2876 435.947 23.6483 441.226C22.9397 447.074 27.1404 452.399 32.9367 453.447C32.9367 453.447 74.0568 459.933 99.4806 460.237C132.593 460.632 165.344 459.615 165.344 459.615C165.344 452.613 170.144 452.612 170.144 445.61C170.144 438.607 165.344 438.607 165.344 431.605C165.344 424.604 170.144 424.604 170.144 417.603C170.144 410.602 165.344 410.601 165.344 403.6Z" fill="white"/>
<path d="M165.344 403.6C165.344 396.602 171.792 395.796 170.07 389.013C170.07 389.013 151.673 393.671 138.084 388.87C124.957 384.311 122.342 378.467 111.585 378.467C100.599 378.467 94.7676 384.182 88.4156 399.158C84.2556 408.966 77.5919 420.467 57.0181 427.07C49.7502 429.402 34.4648 431.459 33.4531 431.564C28.4892 432.078 24.2876 435.947 23.6483 441.226C22.9397 447.074 27.1404 452.399 32.9367 453.447C32.9367 453.447 74.0568 459.933 99.4806 460.237C132.593 460.632 165.344 459.615 165.344 459.615C165.344 452.613 170.144 452.612 170.144 445.61C170.144 438.607 165.344 438.607 165.344 431.605C165.344 424.604 170.144 424.604 170.144 417.603C170.144 410.602 165.344 410.601 165.344 403.6Z" stroke="#202020" stroke-width="2.4" stroke-linecap="round" stroke-linejoin="round"/>
<path d="M57.0168 427.071C49.7489 429.402 34.465 431.459 33.4532 431.563C28.6975 432.057 24.641 435.629 23.7473 440.571C22.6616 446.573 26.8049 452.473 32.7989 453.557C32.9692 453.588 50.7548 457.789 72.0923 458.595C55.1474 449.438 57.0102 427.129 57.0168 427.071Z" fill="#682EC6"/>
<path d="M57.0168 427.071C49.7489 429.402 34.465 431.459 33.4532 431.563C28.6975 432.057 24.641 435.629 23.7473 440.571C22.6616 446.573 26.8049 452.473 32.7989 453.557C32.9692 453.588 50.7548 457.789 72.0923 458.595C55.1474 449.438 57.0102 427.129 57.0168 427.071Z" stroke="#202020" stroke-width="2.4" stroke-linecap="round" stroke-linejoin="round"/>
<path d="M165.343 459.614C165.343 452.613 170.143 452.613 170.143 445.61C170.143 438.608 165.343 438.608 165.343 431.606C165.343 424.605 170.143 424.604 170.143 417.602C170.143 410.602 165.343 410.602 165.343 403.601C165.343 396.602 171.792 395.797 170.07 389.014C170.07 389.014 151.672 393.672 138.084 388.87C136.596 397.481 134.332 399.454 134.332 403.601C134.332 410.602 139.132 410.602 139.132 417.602C139.132 424.604 134.332 424.605 134.332 431.606C134.332 438.608 139.132 438.608 139.132 445.61C139.132 452.613 134.332 452.613 134.332 459.614H165.343Z" fill="#682EC6"/>
<path d="M165.343 459.614C165.343 452.613 170.143 452.613 170.143 445.61C170.143 438.608 165.343 438.608 165.343 431.606C165.343 424.605 170.143 424.604 170.143 417.602C170.143 410.602 165.343 410.602 165.343 403.601C165.343 396.602 171.792 395.797 170.07 389.014C170.07 389.014 151.672 393.672 138.084 388.87C136.596 397.481 134.332 399.454 134.332 403.601C134.332 410.602 139.132 410.602 139.132 417.602C139.132 424.604 134.332 424.605 134.332 431.606C134.332 438.608 139.132 438.608 139.132 445.61C139.132 452.613 134.332 452.613 134.332 459.614H165.343Z" stroke="#202020" stroke-width="2.4" stroke-linecap="round" stroke-linejoin="round"/>
<path d="M222.131 189.632C212.413 181.304 196.809 169.142 190.157 165.065C183.779 161.155 173.245 155.86 159.708 160.028C137.929 166.733 136.204 188.763 136.204 188.763C136.204 188.763 130.879 215.298 175.307 248.883C195.018 263.783 212.988 271.394 222.937 274.291C227.855 275.723 233.04 276.582 238.431 276.555C264.489 276.426 244.556 209.116 222.131 189.632Z" fill="#682EC6"/>
<path d="M222.131 189.632C212.413 181.304 196.809 169.142 190.157 165.065C183.779 161.155 173.245 155.86 159.708 160.028C137.929 166.733 136.204 188.763 136.204 188.763C136.204 188.763 130.879 215.298 175.307 248.883C195.018 263.783 212.988 271.394 222.937 274.291C227.855 275.723 233.04 276.582 238.431 276.555C264.489 276.426 244.556 209.116 222.131 189.632Z" stroke="#202020" stroke-width="2.4" stroke-linecap="round" stroke-linejoin="round"/>
<path d="M308.658 147.889C308.658 147.889 265.621 169.542 230.895 190.311C204.576 206.051 192.688 240.78 209.951 263.06C226.17 283.99 252.473 276.87 271.612 264.063C286.56 254.06 314.598 222.466 328.347 209.545C335.47 202.851 340.317 198.286 340.317 198.286C340.317 198.286 334.164 182.531 324.908 168.155C315.653 153.78 308.658 147.889 308.658 147.889Z" fill="#682EC6"/>
<path d="M308.658 147.889C308.658 147.889 265.621 169.542 230.895 190.311C204.576 206.051 192.688 240.78 209.951 263.06C226.17 283.99 252.473 276.87 271.612 264.063C286.56 254.06 314.598 222.466 328.347 209.545C335.47 202.851 340.317 198.286 340.317 198.286C340.317 198.286 334.164 182.531 324.908 168.155C315.653 153.78 308.658 147.889 308.658 147.889Z" stroke="#202020" stroke-width="2.4" stroke-linecap="round" stroke-linejoin="round"/>
<mask id="mask3_550_403" style="mask-type:alpha" maskUnits="userSpaceOnUse" x="200" y="146" width="142" height="132">
<path d="M308.656 147.889C308.656 147.889 265.619 169.542 230.893 190.311C204.574 206.051 192.686 240.78 209.95 263.06C226.168 283.99 252.471 276.87 271.61 264.063C286.558 254.06 314.596 222.466 328.345 209.545C335.468 202.851 340.315 198.286 340.315 198.286C340.315 198.286 334.162 182.531 324.907 168.155C315.651 153.78 308.656 147.889 308.656 147.889Z" fill="#EE4878"/>
<path d="M308.656 147.889C308.656 147.889 265.619 169.542 230.893 190.311C204.574 206.051 192.686 240.78 209.95 263.06C226.168 283.99 252.471 276.87 271.61 264.063C286.558 254.06 314.596 222.466 328.345 209.545C335.468 202.851 340.315 198.286 340.315 198.286C340.315 198.286 334.162 182.531 324.907 168.155C315.651 153.78 308.656 147.889 308.656 147.889Z" stroke="#231F20" stroke-width="2.4" stroke-linecap="round" stroke-linejoin="round"/>
</mask>
<g mask="url(#mask3_550_403)">
<path d="M268.985 283.567C266.159 254.761 263.979 247.478 257.342 215.253C250.705 183.028 241.568 144.162 228.795 129.633L192.745 166.633C162.868 299.852 260.849 290.946 268.985 283.567Z" fill="#202020"/>
<path d="M268.985 283.567C266.159 254.761 263.979 247.478 257.342 215.253C250.705 183.028 241.568 144.162 228.795 129.633L192.745 166.633C162.868 299.852 260.849 290.946 268.985 283.567Z" stroke="#202020" stroke-width="2.4" stroke-linecap="round" stroke-linejoin="round"/>
</g>
<path d="M269.75 317.277C269.75 317.277 207.321 358.849 138.68 324.678C116.781 313.776 102.304 303.459 81.4785 306.092C81.4492 306.152 91.5058 287.169 101.343 252.877C112.519 213.914 116.872 196.158 128.972 174.157C138.272 156.669 156.802 144.867 178.034 143.026C209.524 140.296 237.612 161.219 244.753 191.066C244.754 191.074 244.754 191.075 244.754 191.075C248.181 203.553 269.75 317.277 269.75 317.277Z" fill="#682EC6"/>
<path d="M269.75 317.277C269.75 317.277 207.321 358.849 138.68 324.678C116.781 313.776 102.304 303.459 81.4785 306.092C81.4492 306.152 91.5058 287.169 101.343 252.877C112.519 213.914 116.872 196.158 128.972 174.157C138.272 156.669 156.802 144.867 178.034 143.026C209.524 140.296 237.612 161.219 244.753 191.066C244.754 191.074 244.754 191.075 244.754 191.075C248.181 203.553 269.75 317.277 269.75 317.277Z" stroke="#202020" stroke-width="2.4" stroke-linecap="round" stroke-linejoin="round"/>
<mask id="mask4_550_403" style="mask-type:luminance" maskUnits="userSpaceOnUse" x="118" y="167" width="152" height="217">
<path d="M167.034 167.21C164.701 168.19 119.306 225.393 118.54 257.544C117.774 289.695 158.804 375.631 191.318 381.184C223.833 386.736 257.093 380.999 265.383 373.951C273.673 366.903 265.479 269.644 265.479 269.644C265.479 269.644 249.835 201.032 222.359 187.876C194.883 174.72 169.366 166.23 167.034 167.21Z" fill="white"/>
</mask>
<g mask="url(#mask4_550_403)">
<path d="M243.821 356.377C293.197 351.707 340.955 339.32 364.554 332.39C355.314 277.831 265.662 323.479 229.518 308.74C193.373 294 203.869 219.468 183.913 204.239C163.658 188.781 158.803 234.054 158.803 234.054C159.679 269.051 160.219 278.025 162.92 301.426C167.673 342.6 195.752 360.923 243.821 356.377Z" fill="#202020"/>
<path d="M243.821 356.377C293.197 351.707 340.955 339.32 364.554 332.39C355.314 277.831 265.662 323.479 229.518 308.74C193.373 294 203.869 219.468 183.913 204.239C163.658 188.781 158.803 234.054 158.803 234.054C159.679 269.051 160.219 278.025 162.92 301.426C167.673 342.6 195.752 360.923 243.821 356.377Z" stroke="#202020" stroke-width="2.4" stroke-linecap="round" stroke-linejoin="round"/>
</g>
<path d="M352.002 269.972C352.002 269.972 337.458 260.091 315.086 270.453C296.811 277.034 306.186 335.631 328.088 329.706L371.478 317.998C381.924 312.632 370 294.923 362.787 289.335C370.977 286.004 360.57 269.627 352.002 269.972Z" fill="white"/>
<path d="M352.002 269.972C352.002 269.972 337.458 260.091 315.086 270.453C296.811 277.034 306.186 335.631 328.088 329.706L371.478 317.998C381.924 312.632 370 294.923 362.787 289.335C370.977 286.004 360.57 269.627 352.002 269.972Z" stroke="#202020" stroke-width="2.4" stroke-linecap="round" stroke-linejoin="round"/>
<path d="M371.475 317.998L391.679 307.619C391.679 307.619 401.816 298.73 402.503 293.709C403.033 289.837 399.506 287.013 395.808 287.013C390.952 287.319 384.328 292.616 384.328 292.616L369.998 294.923L362.785 289.335" fill="white"/>
<path d="M371.475 317.998L391.679 307.619C391.679 307.619 401.816 298.73 402.503 293.709C403.033 289.837 399.506 287.013 395.808 287.013C390.952 287.319 384.328 292.616 384.328 292.616L369.998 294.923L362.785 289.335" stroke="#202020" stroke-width="2.4" stroke-linecap="round" stroke-linejoin="round"/>
<path d="M362.788 289.335C362.788 289.335 378.153 283.086 378.169 283.08C380.603 281.943 382.303 279.376 382.303 276.386C382.303 272.341 379.195 269.062 375.36 269.062C374.394 269.062 352.004 269.972 352.004 269.972" fill="white"/>
<path d="M362.788 289.335C362.788 289.335 378.153 283.086 378.169 283.08C380.603 281.943 382.303 279.376 382.303 276.386C382.303 272.341 379.195 269.062 375.36 269.062C374.394 269.062 352.004 269.972 352.004 269.972" stroke="#202020" stroke-width="2.4" stroke-linecap="round" stroke-linejoin="round"/>
<path d="M171.672 169.974C161.555 177.712 151.92 190.653 160.788 244.054C164.836 268.429 166.946 273.311 168.295 287.982C174.984 334.692 259.442 307.623 248.716 265.765C248.716 265.765 238.889 226.547 231.081 199.678" fill="#682EC6"/>
<path d="M171.672 169.974C161.555 177.712 151.92 190.653 160.788 244.054C164.836 268.429 166.946 273.311 168.295 287.982C174.984 334.692 259.442 307.623 248.716 265.765C248.716 265.765 238.889 226.547 231.081 199.678" stroke="#202020" stroke-width="2.4" stroke-linecap="round" stroke-linejoin="round"/>
<path d="M167.675 279.223C167.397 280.922 167.439 282.885 167.869 285.16C176.649 331.567 199.519 346.168 232.222 345.515C269.563 344.768 326.977 329.938 326.977 329.938C326.977 329.938 338.992 291.196 316.047 270.267C300.278 272.095 277.732 267.802 259.782 264.891C240.831 261.817 229.403 260.354 220.509 260.665" fill="#682EC6"/>
<path d="M167.675 279.223C167.397 280.922 167.439 282.885 167.869 285.16C176.649 331.567 199.519 346.168 232.222 345.515C269.563 344.768 326.977 329.938 326.977 329.938C326.977 329.938 338.992 291.196 316.047 270.267C300.278 272.095 277.732 267.802 259.782 264.891C240.831 261.817 229.403 260.354 220.509 260.665" stroke="#202020" stroke-width="2.4" stroke-linecap="round" stroke-linejoin="round"/>
<path d="M681.169 51.4524L688.691 83.078L721.053 86.1494L689.428 93.6716L686.356 126.034L678.834 94.4082L646.472 91.3367L678.097 83.8146L681.169 51.4524Z" fill="white"/>
<path d="M681.169 51.4524L688.691 83.078L721.053 86.1494L689.428 93.6716L686.356 126.034L678.834 94.4082L646.472 91.3367L678.097 83.8146L681.169 51.4524Z" stroke="#202020" stroke-width="2.4" stroke-linecap="round" stroke-linejoin="round"/>
<path d="M164.189 255.644C164.657 260.287 168.748 286.274 170.31 291.812C171.603 296.392 199.912 293.027 196.218 278.282C189.047 249.657 163.721 251.001 164.189 255.644Z" fill="#682EC6"/>
<path d="M588.96 209.434L573.791 172.991L547.556 202.757L566.814 168.136L527.121 166.402L566.305 159.673L543.045 127.744L572.648 153.974L583.335 115.894L581.066 155.332L617.653 139.774L585.22 162.722L620.156 181.404L581.983 170.581L588.96 209.434Z" fill="white"/>
<path d="M588.96 209.434L573.791 172.991L547.556 202.757L566.814 168.136L527.121 166.402L566.305 159.673L543.045 127.744L572.648 153.974L583.335 115.894L581.066 155.332L617.653 139.774L585.22 162.722L620.156 181.404L581.983 170.581L588.96 209.434Z" stroke="#202020" stroke-width="2.4" stroke-linecap="round" stroke-linejoin="round"/>
<path d="M677.014 282.229L608.554 283.25L658.554 331.993L659.887 312.232L686.089 323.275L691.032 309.972L664.93 298.988L677.014 282.229Z" fill="white"/>
<path d="M677.014 282.229L608.554 283.25L658.554 331.993L659.887 312.232L686.089 323.275L691.032 309.972L664.93 298.988L677.014 282.229Z" stroke="#202020" stroke-width="2.30075" stroke-linecap="round" stroke-linejoin="round"/>
<path d="M31.6409 122.84L33.8329 146.77L57.1929 152.407L33.2623 154.599L27.6254 177.959L25.4335 154.028L2.0734 148.392L26.004 146.2L31.6409 122.84Z" fill="white"/>
<path d="M31.6409 122.84L33.8329 146.77L57.1929 152.407L33.2623 154.599L27.6254 177.959L25.4335 154.028L2.0734 148.392L26.004 146.2L31.6409 122.84Z" stroke="#202020" stroke-width="2.4" stroke-linecap="round" stroke-linejoin="round"/>
<path d="M533.505 76.2409C528.517 74.7521 526.041 81.6545 530.836 83.6761C535.824 85.1649 538.3 78.2625 533.505 76.2409Z" fill="white"/>
<path d="M533.505 76.2409C528.517 74.7521 526.041 81.6545 530.836 83.6761C535.824 85.1649 538.3 78.2625 533.505 76.2409Z" stroke="#202020" stroke-width="2.4" stroke-linecap="round" stroke-linejoin="round"/>
<path d="M702.309 413.598C697.321 412.109 694.845 419.011 699.641 421.033C704.629 422.522 707.105 415.619 702.309 413.598Z" fill="white"/>
<path d="M702.309 413.598C697.321 412.109 694.845 419.011 699.641 421.033C704.629 422.522 707.105 415.619 702.309 413.598Z" stroke="#202020" stroke-width="2.4" stroke-linecap="round" stroke-linejoin="round"/>
<path d="M121.27 120.672C116.282 119.183 113.806 126.085 118.601 128.107C123.589 129.596 126.065 122.693 121.27 120.672Z" fill="white"/>
<path d="M121.27 120.672C116.282 119.183 113.806 126.085 118.601 128.107C123.589 129.596 126.065 122.693 121.27 120.672Z" stroke="#202020" stroke-width="2.4" stroke-linecap="round" stroke-linejoin="round"/>
<path d="M28.4912 356.443C28.4912 351.227 24.2624 346.998 19.0464 346.998C13.8304 346.998 9.60156 351.227 9.60156 356.443C9.60156 361.659 13.8304 365.888 19.0464 365.888C24.2624 365.888 28.4912 361.659 28.4912 356.443Z" fill="white"/>
<path d="M28.4912 356.443C28.4912 351.227 24.2624 346.998 19.0464 346.998C13.8304 346.998 9.60156 351.227 9.60156 356.443C9.60156 361.659 13.8304 365.888 19.0464 365.888C24.2624 365.888 28.4912 361.659 28.4912 356.443Z" stroke="#202020" stroke-width="2.4" stroke-linecap="round" stroke-linejoin="round"/>
<path d="M13.9853 236.841C14.5882 234.743 16.7986 233.519 18.8973 234.122L77.6832 251.015C79.7818 251.618 81.0047 253.829 80.4018 255.928C79.7988 258.026 77.5884 259.25 75.4898 258.647L16.7039 241.754C14.6052 241.151 13.3823 238.94 13.9853 236.841Z" fill="white"/>
<path d="M13.9853 236.841C14.5882 234.743 16.7986 233.519 18.8973 234.122L77.6832 251.015C79.7818 251.618 81.0047 253.829 80.4018 255.928C79.7988 258.026 77.5884 259.25 75.4898 258.647L16.7039 241.754C14.6052 241.151 13.3823 238.94 13.9853 236.841Z" stroke="#202020" stroke-width="2.4" stroke-linecap="round" stroke-linejoin="round"/>
<path d="M360.71 36.0236C359.688 34.0939 360.43 31.6789 362.36 30.6569L416.41 2.02556C418.339 1.00357 420.754 1.74545 421.776 3.67515C422.798 5.60484 422.056 8.0198 420.127 9.04179L366.077 37.6732C364.147 38.6952 361.732 37.9533 360.71 36.0236Z" fill="white"/>
<path d="M360.71 36.0236C359.688 34.0939 360.43 31.6789 362.36 30.6569L416.41 2.02556C418.339 1.00357 420.754 1.74545 421.776 3.67514C422.798 5.60484 422.056 8.0198 420.127 9.04179L366.077 37.6732C364.147 38.6952 361.732 37.9533 360.71 36.0236Z" stroke="#202020" stroke-width="2.4" stroke-linecap="round" stroke-linejoin="round"/>
<path d="M415.415 397.433C413.262 397.801 411.2 396.342 410.832 394.189L400.515 333.9C400.147 331.748 401.607 329.685 403.759 329.317C405.911 328.949 407.974 330.409 408.342 332.561L418.658 392.85C419.026 395.002 417.567 397.065 415.415 397.433Z" fill="white"/>
<path d="M415.415 397.433C413.262 397.801 411.2 396.342 410.832 394.189L400.515 333.9C400.147 331.748 401.607 329.685 403.759 329.317C405.911 328.949 407.974 330.409 408.342 332.561L418.658 392.85C419.026 395.002 417.567 397.065 415.415 397.433Z" stroke="#202020" stroke-width="2.4" stroke-linecap="round" stroke-linejoin="round"/>
<path d="M358.424 381.567C363.642 393.415 374.668 403.538 387.199 407.057L387.204 407.139C375.207 412.1 365.344 423.392 361.679 435.805C356.47 423.926 345.402 413.908 332.928 410.232C344.906 405.251 354.762 393.975 358.424 381.567Z" fill="white"/>
<path d="M358.424 381.567C363.642 393.415 374.668 403.538 387.199 407.057L387.204 407.139C375.207 412.1 365.344 423.392 361.679 435.805C356.47 423.926 345.402 413.908 332.928 410.232C344.906 405.251 354.762 393.975 358.424 381.567Z" stroke="#202020" stroke-width="2.36276" stroke-linecap="round" stroke-linejoin="round"/>
<path d="M708.042 228.479C708.042 223.119 703.696 218.773 698.335 218.773C692.975 218.773 688.629 223.119 688.629 228.479C688.629 233.84 692.975 238.186 698.335 238.186C703.696 238.186 708.042 233.84 708.042 228.479Z" fill="white"/>
<path d="M708.042 228.479C708.042 223.119 703.696 218.773 698.335 218.773C692.975 218.773 688.629 223.119 688.629 228.479C688.629 233.84 692.975 238.186 698.335 238.186C703.696 238.186 708.042 233.84 708.042 228.479Z" stroke="#202020" stroke-width="2.4" stroke-linecap="round" stroke-linejoin="round"/>
</g>
<defs>
<clipPath id="clip0_550_403">
<rect width="723" height="470" fill="white"/>
</clipPath>
</defs>
</svg>
