<svg width="636" height="545" viewBox="0 0 636 545" fill="none" xmlns="http://www.w3.org/2000/svg">
<g clip-path="url(#clip0_550_402)">
<path d="M420.453 30.6642L174.135 32.4933L175.166 171.37L421.485 169.541L420.453 30.6642Z" fill="#202020"/>
<path d="M420.453 30.6642L174.135 32.4933L175.166 171.37L421.485 169.541L420.453 30.6642Z" stroke="#202020" stroke-width="2.25" stroke-linecap="round" stroke-linejoin="round"/>
<path d="M192.035 3.61953L402.128 2.05945C412.131 1.98517 420.301 10.0345 420.375 20.0377L421.584 182.829L175.265 184.658L174.056 21.8668C173.982 11.8636 182.031 3.69381 192.035 3.61953Z" stroke="#202020" stroke-width="2.25" stroke-linecap="round" stroke-linejoin="round"/>
<path d="M421.485 169.54L175.166 171.369L175.265 184.657L421.583 182.828L421.485 169.54Z" fill="white"/>
<path d="M421.485 169.54L175.166 171.369L175.265 184.657L421.583 182.828L421.485 169.54Z" stroke="#202020" stroke-width="2.25" stroke-linejoin="round"/>
<path d="M198.598 18.179C198.578 15.5008 196.391 13.3457 193.713 13.3656C191.034 13.3855 188.879 15.5728 188.899 18.251C188.919 20.9292 191.106 23.0842 193.785 23.0643C196.463 23.0444 198.618 20.8571 198.598 18.179Z" fill="white"/>
<path d="M198.598 18.179C198.578 15.5008 196.391 13.3457 193.713 13.3656C191.034 13.3855 188.879 15.5728 188.899 18.251C188.919 20.9292 191.106 23.0842 193.785 23.0643C196.463 23.0444 198.618 20.8571 198.598 18.179Z" stroke="#202020" stroke-width="2.25" stroke-linecap="round" stroke-linejoin="round"/>
<path d="M219.159 18.0262C219.139 15.3481 216.951 13.193 214.273 13.2129C211.595 13.2328 209.44 15.4201 209.46 18.0983C209.48 20.7764 211.667 22.9315 214.345 22.9116C217.023 22.8917 219.178 20.7044 219.159 18.0262Z" fill="white"/>
<path d="M219.159 18.0262C219.139 15.3481 216.951 13.193 214.273 13.2129C211.595 13.2328 209.44 15.4201 209.46 18.0983C209.48 20.7764 211.667 22.9315 214.345 22.9116C217.023 22.8917 219.178 20.7044 219.159 18.0262Z" stroke="#202020" stroke-width="2.25" stroke-linecap="round" stroke-linejoin="round"/>
<path d="M244.958 122.124L196.592 171.213L293.915 170.36L244.958 122.124ZM245.044 138.784L265.619 159.056L224.717 159.415L245.044 138.784Z" fill="white"/>
<path d="M244.958 122.124L196.592 171.213L293.915 170.36L244.958 122.124ZM245.044 138.784L265.619 159.056L224.717 159.415L245.044 138.784Z" stroke="#202020" stroke-width="2.25" stroke-linecap="round" stroke-linejoin="round"/>
<path d="M362.171 169.882L299.63 170.347L299.523 155.96L362.064 155.496L362.171 169.882Z" fill="white"/>
<path d="M362.171 169.882L299.63 170.347L299.523 155.96L362.064 155.496L362.171 169.882Z" stroke="#202020" stroke-width="2.25" stroke-linecap="round" stroke-linejoin="round"/>
<path d="M311.518 155.793L311.622 169.899" stroke="#202020" stroke-width="2.25" stroke-linecap="round" stroke-linejoin="round"/>
<path d="M283.7 89.7784C284.512 89.1364 285.314 88.4877 286.109 87.8345C297.64 78.3609 300.695 67.9961 295.78 64.2938C289.884 59.8532 277.938 84.5411 291.289 96.245C303.812 107.223 319.725 91.2007 322.818 80.9797C322.451 92.3655 330.419 100.822 347.049 99.7543" stroke="white" stroke-width="2.25" stroke-linecap="round" stroke-linejoin="round"/>
<path d="M198.48 327.106H374.639V221.853C374.639 215.064 369.135 209.56 362.345 209.56H210.774C203.985 209.56 198.48 215.064 198.48 221.853V327.106Z" fill="white"/>
<path d="M198.48 327.106H374.639V221.853C374.639 215.064 369.135 209.56 362.345 209.56H210.774C203.985 209.56 198.48 215.064 198.48 221.853V327.106Z" stroke="#202020" stroke-width="2.25" stroke-linecap="round" stroke-linejoin="round"/>
<path d="M209.4 316.826H363.719V223.542H209.4V316.826Z" fill="#202020"/>
<path d="M209.4 316.826H363.719V223.542H209.4V316.826Z" stroke="#202020" stroke-width="2.25" stroke-linecap="round" stroke-linejoin="round"/>
<path d="M288.927 217.612C288.927 216.304 287.867 215.244 286.559 215.244C285.251 215.244 284.191 216.304 284.191 217.612C284.191 218.92 285.251 219.98 286.559 219.98C287.867 219.98 288.927 218.92 288.927 217.612Z" stroke="#202020" stroke-width="2.25" stroke-linecap="round" stroke-linejoin="round"/>
<path d="M304.418 537.097C304.418 541.056 243.959 544.264 169.379 544.264C94.7988 544.264 34.3398 541.056 34.3398 537.097C34.3398 533.139 94.7988 529.93 169.379 529.93C243.959 529.93 304.418 533.139 304.418 537.097Z" fill="#202020"/>
<path d="M552.618 536.207C552.618 540.657 504.302 544.264 444.701 544.264C385.1 544.264 336.783 540.657 336.783 536.207C336.783 531.757 385.1 528.15 444.701 528.15C504.302 528.15 552.618 531.757 552.618 536.207Z" fill="#202020"/>
<path d="M257.794 450.851C257.794 450.851 250.96 457.741 250.96 467.864C250.96 477.987 257.429 485.141 257.429 485.141H181.719C181.719 485.141 175.848 478.508 175.848 467.642C175.848 456.776 181.571 450.851 181.571 450.851H257.794Z" fill="white"/>
<path d="M257.794 450.851C257.794 450.851 250.96 457.741 250.96 467.864C250.96 477.987 257.429 485.141 257.429 485.141H181.719C181.719 485.141 175.848 478.508 175.848 467.642C175.848 456.776 181.571 450.851 181.571 450.851H257.794Z" stroke="#202020" stroke-width="2.25" stroke-linejoin="round"/>
<path d="M181.572 450.851H257.795C254.703 454.446 252.713 458.04 251.825 461.634L181.572 450.851Z" fill="#202020"/>
<path d="M267.563 444.442H178.108C178.108 444.442 167.295 452.798 167.295 467.477C167.295 482.156 176.894 490.556 176.894 490.556L266.152 490.555L266.152 485.14H181.72C181.72 485.14 175.849 476.722 175.849 467.641C175.849 458.56 181.572 450.851 181.572 450.851H267.586L267.563 444.442Z" fill="#682EC6"/>
<path d="M267.563 444.442H178.108C178.108 444.442 167.295 452.798 167.295 467.477C167.295 482.156 176.894 490.556 176.894 490.556L266.152 490.555L266.152 485.14H181.72C181.72 485.14 175.849 476.722 175.849 467.641C175.849 458.56 181.572 450.851 181.572 450.851H267.586L267.563 444.442Z" stroke="#202020" stroke-width="2.25" stroke-linecap="round" stroke-linejoin="round"/>
<path d="M176.894 490.555C176.894 490.555 167.295 482.156 167.295 467.477C167.295 452.798 178.107 444.442 178.107 444.442L65.635 444.442C65.635 444.442 54.8223 452.799 54.8223 467.478C54.8223 482.157 64.4223 490.556 64.4223 490.556L176.894 490.555Z" fill="#682EC6"/>
<path d="M176.894 490.555C176.894 490.555 167.295 482.156 167.295 467.477C167.295 452.798 178.107 444.442 178.107 444.442L65.635 444.442C65.635 444.442 54.8223 452.799 54.8223 467.478C54.8223 482.157 64.4223 490.556 64.4223 490.556L176.894 490.555Z" stroke="#202020" stroke-width="2.25" stroke-linecap="round" stroke-linejoin="round"/>
<path d="M110.997 490.561C110.997 490.561 101.397 482.161 101.397 467.482C101.397 452.803 112.21 444.447 112.21 444.447H102.703C102.703 444.447 91.8906 452.803 91.8906 467.482C91.8906 482.161 101.49 490.561 101.49 490.561H110.997Z" fill="white"/>
<path d="M110.997 490.561C110.997 490.561 101.397 482.161 101.397 467.482C101.397 452.803 112.21 444.447 112.21 444.447H102.703C102.703 444.447 91.8906 452.803 91.8906 467.482C91.8906 482.161 101.49 490.561 101.49 490.561H110.997Z" stroke="#202020" stroke-width="2.25" stroke-linecap="round" stroke-linejoin="round"/>
<path d="M133.188 490.561C133.188 490.561 123.588 482.161 123.588 467.482C123.588 452.803 134.401 444.447 134.401 444.447H124.895C124.895 444.447 114.082 452.803 114.082 467.482C114.082 482.161 123.681 490.561 123.681 490.561H133.188Z" fill="white"/>
<path d="M133.188 490.561C133.188 490.561 123.588 482.161 123.588 467.482C123.588 452.803 134.401 444.447 134.401 444.447H124.895C124.895 444.447 114.082 452.803 114.082 467.482C114.082 482.161 123.681 490.561 123.681 490.561H133.188Z" stroke="#202020" stroke-width="2.25" stroke-linecap="round" stroke-linejoin="round"/>
<path d="M255.944 495.495C255.944 495.495 249.056 502.187 249.056 512.309C249.056 522.432 255.568 529.785 255.568 529.785H179.857C179.857 529.785 173.943 522.953 173.943 512.087C173.943 501.221 179.709 495.495 179.709 495.495H255.944Z" fill="white"/>
<path d="M255.944 495.495C255.944 495.495 249.056 502.187 249.056 512.309C249.056 522.432 255.568 529.785 255.568 529.785H179.857C179.857 529.785 173.943 522.953 173.943 512.087C173.943 501.221 179.709 495.495 179.709 495.495H255.944Z" stroke="#202020" stroke-width="2.25" stroke-linejoin="round"/>
<path d="M179.721 495.582H255.943C252.851 499.177 250.861 502.771 249.973 506.366L179.721 495.582Z" fill="#202020"/>
<path d="M273.199 488.712L176.895 488.712C176.895 488.712 165.432 497.443 165.432 512.122C165.432 526.801 175.682 534.825 175.682 534.825L271.789 534.826V529.785H179.857C179.857 529.785 173.985 521.367 173.985 512.286C173.985 503.205 179.709 495.495 179.709 495.495H273.223L273.199 488.712Z" fill="white"/>
<path d="M273.199 488.712L176.895 488.712C176.895 488.712 165.432 497.443 165.432 512.122C165.432 526.801 175.682 534.825 175.682 534.825L271.789 534.826V529.785H179.857C179.857 529.785 173.985 521.367 173.985 512.286C173.985 503.205 179.709 495.495 179.709 495.495H273.223L273.199 488.712Z" stroke="#202020" stroke-width="2.25" stroke-linecap="round" stroke-linejoin="round"/>
<path d="M175.681 534.825C175.681 534.825 166.082 526.426 166.082 511.747C166.082 497.068 176.894 488.712 176.894 488.712L64.4221 488.712C64.4221 488.712 53.6094 497.069 53.6094 511.748C53.6094 526.427 63.2094 534.826 63.2094 534.826L175.681 534.825Z" fill="white"/>
<path d="M175.681 534.825C175.681 534.825 166.082 526.426 166.082 511.747C166.082 497.068 176.894 488.712 176.894 488.712L64.4221 488.712C64.4221 488.712 53.6094 497.069 53.6094 511.748C53.6094 526.427 63.2094 534.826 63.2094 534.826L175.681 534.825Z" stroke="#202020" stroke-width="2.25" stroke-linecap="round" stroke-linejoin="round"/>
<path d="M122.805 534.776C122.805 534.776 113.205 526.376 113.205 511.697C113.205 497.018 124.018 488.661 124.018 488.661H102.705C102.705 488.661 91.8926 497.018 91.8926 511.697C91.8926 526.376 101.492 534.776 101.492 534.776H122.805Z" fill="white"/>
<path d="M122.805 534.776C122.805 534.776 113.205 526.376 113.205 511.697C113.205 497.018 124.018 488.661 124.018 488.661H102.705C102.705 488.661 91.8926 497.018 91.8926 511.697C91.8926 526.376 101.492 534.776 101.492 534.776H122.805Z" stroke="#202020" stroke-width="2.25" stroke-linecap="round" stroke-linejoin="round"/>
<mask id="mask0_550_402" style="mask-type:luminance" maskUnits="userSpaceOnUse" x="185" y="470" width="77" height="54">
<path d="M199.987 470.775L185.933 520.444L259.36 523.728L261.051 473.508L199.987 470.775Z" fill="white"/>
</mask>
<g mask="url(#mask0_550_402)">
<path d="M209.365 508.87C209.365 508.87 215.853 482.938 216.22 475.672C216.693 466.36 213.771 458.937 229.526 459.078C241.778 459.188 240.809 463.476 240.078 475.969C239.385 487.817 232.347 513.614 232.347 513.614L222.971 500.997L209.365 508.87Z" fill="white"/>
<path d="M209.365 508.87C209.365 508.87 215.853 482.938 216.22 475.672C216.693 466.36 213.771 458.937 229.526 459.078C241.778 459.188 240.809 463.476 240.078 475.969C239.385 487.817 232.347 513.614 232.347 513.614L222.971 500.997L209.365 508.87Z" stroke="#202020" stroke-width="2.25" stroke-linecap="round" stroke-linejoin="round"/>
</g>
<path d="M201.84 472.669H240.028" stroke="#202020" stroke-width="2.25" stroke-linecap="round" stroke-linejoin="round"/>
<path d="M123.967 172.718C120.619 170.329 111.164 172.489 109.083 178.524C107.002 184.559 106.391 190.361 107.176 191.678C107.962 192.995 121.882 191.869 121.882 191.869C121.882 191.869 127.4 175.17 123.967 172.718Z" fill="#202020"/>
<path d="M123.967 172.718C120.619 170.329 111.164 172.489 109.083 178.524C107.002 184.559 106.391 190.361 107.176 191.678C107.962 192.995 121.882 191.869 121.882 191.869C121.882 191.869 127.4 175.17 123.967 172.718Z" stroke="#202020" stroke-width="2.25" stroke-linecap="round" stroke-linejoin="round"/>
<path d="M117.627 192.756C117.627 192.756 116.721 160.078 116.476 155.742C115.866 144.95 131.742 140.221 136.593 148.988C143.091 160.734 155.405 193.248 155.405 193.248C161.399 207.429 118.228 206.462 117.627 192.756Z" fill="white"/>
<path d="M117.627 192.756C117.627 192.756 116.721 160.078 116.476 155.742C115.866 144.95 131.742 140.221 136.593 148.988C143.091 160.734 155.405 193.248 155.405 193.248C161.399 207.429 118.228 206.462 117.627 192.756Z" stroke="#202020" stroke-width="2.25" stroke-linecap="round" stroke-linejoin="round"/>
<path d="M135.823 164.556C138.443 165.983 141.207 165.391 143.065 163.682" stroke="#202020" stroke-width="2.25" stroke-linecap="round" stroke-linejoin="round"/>
<path d="M130.115 156.101C130.115 156.101 134.159 150.783 134.151 146.208C127.829 141.583 115.946 146.377 116.476 155.742C116.589 157.737 116.841 165.736 117.081 173.79C129.993 169.406 126.124 163.153 130.115 156.101Z" fill="#202020"/>
<path d="M130.115 156.101C130.115 156.101 134.159 150.783 134.151 146.208C127.829 141.583 115.946 146.377 116.476 155.742C116.589 157.737 116.841 165.736 117.081 173.79C129.993 169.406 126.124 163.153 130.115 156.101Z" stroke="#202020" stroke-width="2.25" stroke-linecap="round" stroke-linejoin="round"/>
<path d="M134.564 152.366C134.564 152.366 141.033 148.987 143.754 146.872C145.994 145.13 143.309 142.47 140.639 143.224C137.968 143.979 132.568 144.918 130.4 146.286C127.955 147.827 131.102 154.339 134.564 152.366Z" fill="white"/>
<path d="M134.564 152.366C134.564 152.366 141.033 148.987 143.754 146.872C145.994 145.13 143.309 142.47 140.639 143.224C137.968 143.979 132.568 144.918 130.4 146.286C127.955 147.827 131.102 154.339 134.564 152.366Z" stroke="#202020" stroke-width="2.25" stroke-linecap="round" stroke-linejoin="round"/>
<path d="M116.747 162.939C119.526 160.818 137.507 150.701 137.507 150.701C137.507 150.701 134.485 141.908 123.493 145.396C112.5 148.884 116.747 162.939 116.747 162.939Z" fill="white"/>
<path d="M116.747 162.939C119.526 160.818 137.507 150.701 137.507 150.701C137.507 150.701 134.485 141.908 123.493 145.396C112.5 148.884 116.747 162.939 116.747 162.939Z" stroke="#202020" stroke-width="2.25" stroke-linecap="round" stroke-linejoin="round"/>
<path d="M501.278 442.086C490.159 442.655 468.381 439.998 457.635 432.027C412.313 398.407 381.903 468.888 425.06 495.805C443.003 506.996 487.278 529.547 493.368 530.589C499.458 531.631 511.41 538.78 518.722 525.755C523.155 517.857 531.116 497.892 543.549 476.133C554.177 457.452 568.029 437.969 571.47 431.262C577.491 419.526 567.364 407.475 555.566 413.069C543.71 418.691 518.44 441.209 501.278 442.086Z" fill="white"/>
<path d="M501.278 442.086C490.159 442.655 468.381 439.998 457.635 432.027C412.313 398.407 381.903 468.888 425.06 495.805C443.003 506.996 487.278 529.547 493.368 530.589C499.458 531.631 511.41 538.78 518.722 525.755C523.155 517.857 531.116 497.892 543.549 476.133C554.177 457.452 568.029 437.969 571.47 431.262C577.491 419.526 567.364 407.475 555.566 413.069C543.71 418.691 518.44 441.209 501.278 442.086Z" stroke="#202020" stroke-width="2.25" stroke-linecap="round" stroke-linejoin="round"/>
<path d="M559.936 449.125C565.913 441.143 569.733 434.647 571.47 431.262C577.491 419.526 567.363 407.475 555.566 413.07C553.77 413.921 550.6 415.583 548.248 417.122C545.093 430.003 551.717 444.303 559.936 449.125Z" fill="white"/>
<path d="M559.936 449.125C565.913 441.143 569.733 434.647 571.47 431.262C577.491 419.526 567.363 407.475 555.566 413.07C553.77 413.921 550.6 415.583 548.248 417.122C545.093 430.003 551.717 444.303 559.936 449.125Z" stroke="#202020" stroke-width="2.25" stroke-linejoin="round"/>
<path d="M496.66 499.167C482.675 501.081 472.192 512.196 467.405 518.98C481.269 525.187 490.824 529.867 493.368 530.59C501.142 532.884 511.41 538.781 518.722 525.756C520.749 522.144 523.315 515.122 527.759 506.668C519.789 502.589 508.387 497.562 496.66 499.167Z" fill="white"/>
<path d="M496.66 499.167C482.675 501.081 472.192 512.196 467.405 518.98C481.269 525.187 490.824 529.867 493.368 530.59C501.142 532.884 511.41 538.781 518.722 525.756C520.749 522.144 523.315 515.122 527.759 506.668C519.789 502.589 508.387 497.562 496.66 499.167Z" stroke="#202020" stroke-width="2.25" stroke-linejoin="round"/>
<mask id="mask1_550_402" style="mask-type:luminance" maskUnits="userSpaceOnUse" x="367" y="440" width="110" height="85">
<path d="M431.75 440.125C431.75 440.125 366.875 455.875 367.25 472C367.625 488.125 402.5 527.125 438.125 524.875C473.75 522.625 479.375 508.75 474.5 489.625C469.625 470.5 431.75 440.125 431.75 440.125Z" fill="white"/>
</mask>
<g mask="url(#mask1_550_402)">
<path d="M458.132 507.978C429.405 513.572 406.722 507.042 389.435 495.4C378.169 487.813 387.797 461.695 387.797 461.695C387.774 435.4 394.532 394.068 398.814 374.568C401.184 376.45 414.617 391.278 416.972 393.168C417.876 428.875 419.188 456.25 429.556 474.036C435.541 484.302 451.194 500.95 458.132 507.978Z" fill="#202020"/>
<path d="M458.132 507.978C429.405 513.572 406.722 507.042 389.435 495.4C378.169 487.813 387.797 461.695 387.797 461.695C387.774 435.4 394.532 394.068 398.814 374.568C401.184 376.45 414.617 391.278 416.972 393.168C417.876 428.875 419.188 456.25 429.556 474.036C435.541 484.302 451.194 500.95 458.132 507.978Z" stroke="#202020" stroke-width="2.25" stroke-linecap="round" stroke-linejoin="round"/>
</g>
<path d="M290.34 397.342L424.667 494.066L458.693 430.352C458.693 430.352 347.402 335.175 328.963 325.889C316.227 319.476 306.477 318.315 291.481 319.696" fill="white"/>
<path d="M290.34 397.342L424.667 494.066L458.693 430.352C458.693 430.352 347.402 335.175 328.963 325.889C316.227 319.476 306.477 318.315 291.481 319.696" stroke="#202020" stroke-width="2.25" stroke-linecap="round" stroke-linejoin="round"/>
<mask id="mask2_550_402" style="mask-type:alpha" maskUnits="userSpaceOnUse" x="289" y="318" width="171" height="178">
<path d="M290.34 397.342L424.667 494.066L458.693 430.352C458.693 430.352 347.402 335.175 328.963 325.889C316.227 319.476 306.477 318.315 291.481 319.696" fill="#7248EE"/>
<path d="M290.34 397.342L424.667 494.066L458.693 430.352C458.693 430.352 347.402 335.175 328.963 325.889C316.227 319.476 306.477 318.315 291.481 319.696" stroke="#231F20" stroke-width="2.25" stroke-linecap="round" stroke-linejoin="round"/>
</mask>
<g mask="url(#mask2_550_402)">
<path d="M458.132 507.978C429.405 513.572 406.722 507.042 389.435 495.4C378.169 487.813 387.797 461.695 387.797 461.695C387.774 435.4 394.532 394.068 398.814 374.568C401.184 376.45 414.617 391.278 416.972 393.168C417.876 428.875 419.188 456.25 429.556 474.036C435.541 484.302 451.194 500.95 458.132 507.978Z" fill="#202020"/>
<path d="M458.132 507.978C429.405 513.572 406.722 507.042 389.435 495.4C378.169 487.813 387.797 461.695 387.797 461.695C387.774 435.4 394.532 394.068 398.814 374.568C401.184 376.45 414.617 391.278 416.972 393.168C417.876 428.875 419.188 456.25 429.556 474.036C435.541 484.302 451.194 500.95 458.132 507.978Z" stroke="#202020" stroke-width="2.25" stroke-linecap="round" stroke-linejoin="round"/>
</g>
<path d="M295.922 319.756C282.272 320.47 88.8329 349.014 79.7264 353.662C70.6199 358.311 56.0519 365.76 56.5619 389.167C56.9256 405.882 52.0356 440.972 102.704 442.603C136.076 443.678 141.468 435.01 145.308 431.065C148.932 427.342 300.79 406.8 309.484 402.126" stroke="#202020" stroke-width="2.25" stroke-linecap="round" stroke-linejoin="round"/>
<path d="M298.921 407.705C298.921 407.705 354.838 390.069 359.302 387.443C363.767 384.816 368.869 361.43 363.979 357.177C359.089 352.925 296.37 395.022 298.921 407.705Z" fill="#202020"/>
<path d="M339.481 469.128C339.4 474.488 339.481 483.77 340.077 501.874C341.029 530.812 359.763 535.62 387.697 535.374C398.989 535.275 415.711 535.534 432.326 535.765C456.811 536.106 481.064 536.388 487.371 535.374C497.958 533.674 502.735 526.812 501.958 520.926C501.18 515.04 499.26 508.887 488.435 505.857C477.61 502.827 434.263 496.976 421.927 485.092C417.311 480.645 415.136 475.775 415.136 468.198C415.136 443.389 339.989 435.449 339.481 469.128Z" fill="white"/>
<path d="M339.481 469.128C339.4 474.488 339.481 483.77 340.077 501.874C341.029 530.812 359.763 535.62 387.697 535.374C398.989 535.275 415.711 535.534 432.326 535.765C456.811 536.106 481.064 536.388 487.371 535.374C497.958 533.674 502.735 526.812 501.958 520.926C501.18 515.04 499.26 508.887 488.435 505.857C477.61 502.827 434.263 496.976 421.927 485.092C417.311 480.645 415.136 475.775 415.136 468.198C415.136 443.389 339.989 435.449 339.481 469.128Z" stroke="#202020" stroke-width="2.25" stroke-linecap="round" stroke-linejoin="round"/>
<path d="M501.958 520.927C500.399 509.91 494.095 505.945 477.7 503.505C476.563 506.124 473.001 511.938 469.234 518.142C464.855 525.356 463.063 528.437 457.875 536.052C471.958 536.14 483.337 536.022 487.372 535.374C497.959 533.674 502.79 526.806 501.958 520.927Z" fill="white"/>
<path d="M501.958 520.927C500.399 509.91 494.095 505.945 477.7 503.505C476.563 506.124 473.001 511.938 469.234 518.142C464.855 525.356 463.063 528.437 457.875 536.052C471.958 536.14 483.337 536.022 487.372 535.374C497.959 533.674 502.79 526.806 501.958 520.927Z" stroke="#202020" stroke-width="2.25" stroke-linejoin="round"/>
<path d="M340.041 501.44C340.473 530.878 360.035 535.374 388.352 535.37C385.784 529.332 381.086 520.055 373.949 512.46C365.793 503.781 350.882 501.739 340.041 501.44Z" fill="white"/>
<path d="M340.041 501.44C340.473 530.878 360.035 535.374 388.352 535.37C385.784 529.332 381.086 520.055 373.949 512.46C365.793 503.781 350.882 501.739 340.041 501.44Z" stroke="#202020" stroke-width="2.25" stroke-linejoin="round"/>
<path d="M343.495 363.139C343.328 368.488 339.48 469.129 339.48 469.129L381.107 468.617L415.136 468.199C415.136 468.199 414.732 356.034 414.896 336.734C415.136 308.502 403.035 287.821 382.694 287.848C342.802 287.899 344.015 346.525 343.495 363.139Z" fill="white"/>
<path d="M343.495 363.139C343.328 368.488 339.48 469.129 339.48 469.129L381.107 468.617L415.136 468.199C415.136 468.199 414.732 356.034 414.896 336.734C415.136 308.502 403.035 287.821 382.694 287.848C342.802 287.899 344.015 346.525 343.495 363.139Z" stroke="#202020" stroke-width="2.25" stroke-linecap="round" stroke-linejoin="round"/>
<path d="M356.43 370.052C356.43 370.052 335.156 389.344 291.813 417.053C269.526 431.301 253.977 435.21 231.202 439.326C212.913 442.632 159.555 445.734 145.306 431.065C126.849 412.065 129.08 367.693 134.4 353.55C134.4 353.55 219.847 354.576 240.027 350.231C267.585 344.296 286.687 331.085 316.035 313.857C345.382 296.63 375.703 282.541 392.682 289.703" fill="white"/>
<path d="M356.43 370.052C356.43 370.052 335.156 389.344 291.813 417.053C269.526 431.301 253.977 435.21 231.202 439.326C212.913 442.632 159.555 445.734 145.306 431.065C126.849 412.065 129.08 367.693 134.4 353.55C134.4 353.55 219.847 354.576 240.027 350.231C267.585 344.296 286.687 331.085 316.035 313.857C345.382 296.63 375.703 282.541 392.683 289.703" stroke="#202020" stroke-width="2.25" stroke-linecap="round" stroke-linejoin="round"/>
<path d="M222.849 341.551C217.194 339.397 56.5611 335.776 56.3361 353.551C56.1111 371.326 55.1533 406.753 58.7278 418.133C65.3031 439.065 89.9646 442.597 112.21 442.603C134.456 442.608 140.321 436.9 145.307 431.065C151.073 438.019 173.256 443.795 194.356 442.597C204.245 442.036 216.655 442.239 231.203 439.327" fill="white"/>
<path d="M222.849 341.551C217.194 339.397 56.5611 335.776 56.3361 353.551C56.1111 371.326 55.1533 406.753 58.7278 418.133C65.3031 439.065 89.9646 442.597 112.21 442.603C134.456 442.608 140.321 436.9 145.307 431.065C151.073 438.019 173.256 443.795 194.356 442.597C204.245 442.036 216.655 442.239 231.203 439.327" stroke="#202020" stroke-width="2.25" stroke-linecap="round" stroke-linejoin="round"/>
<path d="M17.242 266.013C17.242 266.013 3.03554 311.069 2.22594 320.178C1.36714 329.842 3.40487 340.607 16.1728 346.122C22.8515 349.007 35.8995 346.513 38.9997 345.34C100.108 322.213 63.6955 275.706 63.6955 275.706C67.7451 250.816 23.6479 243.678 17.242 266.013Z" fill="white"/>
<path d="M17.242 266.013C17.242 266.013 3.03554 311.069 2.22594 320.178C1.36714 329.842 3.40487 340.607 16.1728 346.122C22.8515 349.007 35.8995 346.513 38.9997 345.34C100.108 322.213 63.6955 275.706 63.6955 275.706C67.7451 250.816 23.6479 243.678 17.242 266.013Z" stroke="#202020" stroke-width="2.25" stroke-linecap="round" stroke-linejoin="round"/>
<mask id="mask3_550_402" style="mask-type:alpha" maskUnits="userSpaceOnUse" x="0" y="251" width="76" height="98">
<path d="M17.242 266.013C17.242 266.013 3.03554 311.069 2.22594 320.178C1.36714 329.842 3.40487 340.607 16.1728 346.122C22.8515 349.007 35.8995 346.513 38.9997 345.34C100.108 322.213 63.6955 275.706 63.6955 275.706C67.7451 250.816 23.6479 243.678 17.242 266.013Z" fill="#F5B7A6"/>
<path d="M17.242 266.013C17.242 266.013 3.03554 311.069 2.22594 320.178C1.36714 329.842 3.40487 340.607 16.1728 346.122C22.8515 349.007 35.8995 346.513 38.9997 345.34C100.108 322.213 63.6955 275.706 63.6955 275.706C67.7451 250.816 23.6479 243.678 17.242 266.013Z" stroke="#231F20" stroke-width="2.25" stroke-linecap="round" stroke-linejoin="round"/>
</mask>
<g mask="url(#mask3_550_402)">
<path d="M78.6576 267.938C77.4095 264.998 74.3235 260.178 70.8593 256.753C66.8355 258.11 68.1386 261.722 62.9708 264.31C58.9045 276.255 52.9095 284.414 48.6214 303.377C45.7602 316.029 50.1344 350.787 57.4705 364.121C63.4331 360.465 77.5783 361.06 84.1733 356.068C89.5373 335.076 80.3897 272.017 78.6576 267.938Z" fill="#202020"/>
</g>
<path d="M90.9979 187.886C61.0716 190.304 43.7943 206.912 33.9749 219.505C26.4794 229.117 17.2406 266.013 17.2406 266.013L62.5762 277.451C62.5762 277.451 79.5277 240.36 83.7947 229.61C88.0617 218.86 117.184 185.771 90.9979 187.886Z" fill="#682EC6"/>
<path d="M90.9979 187.886C61.0716 190.304 43.7943 206.912 33.9749 219.505C26.4794 229.117 17.2406 266.013 17.2406 266.013L62.5762 277.451C62.5762 277.451 79.5277 240.36 83.7947 229.61C88.0617 218.86 117.184 185.771 90.9979 187.886Z" stroke="#202020" stroke-width="2.25" stroke-linecap="round" stroke-linejoin="round"/>
<path d="M58.4839 246.479C57.8682 253.965 57.6266 261.69 57.6191 269.352C57.6062 282.618 56.4156 352.48 56.4156 352.48C101.918 369.078 163.189 368.328 218.183 354.21C225.16 310.514 223.212 260.818 216.114 207.658C216.114 207.658 203.982 192.605 172.914 186.593C158.438 183.792 112.642 184.771 92.2263 187.642C90.4702 187.889 88.7993 188.269 87.2101 188.773" fill="#682EC6"/>
<path d="M58.4839 246.479C57.8682 253.965 57.6266 261.69 57.6191 269.352C57.6062 282.618 56.4156 352.48 56.4156 352.48C101.918 369.078 163.189 368.328 218.183 354.21C225.16 310.514 223.212 260.818 216.114 207.658C216.114 207.658 203.982 192.605 172.914 186.593C158.438 183.792 112.642 184.771 92.2263 187.642C90.4702 187.889 88.7993 188.269 87.2101 188.773" stroke="#202020" stroke-width="2.25" stroke-linecap="round" stroke-linejoin="round"/>
<path d="M271.883 252.003C266.586 256.519 236.694 280.392 225.071 289.986C205.698 305.975 221.884 364.461 251.271 360.176C276.4 356.512 308.698 319.234 314.471 314.791" fill="white"/>
<path d="M271.883 252.003C266.586 256.519 236.694 280.392 225.071 289.986C205.698 305.975 221.884 364.461 251.271 360.176C276.4 356.512 308.698 319.234 314.471 314.791" stroke="#202020" stroke-width="2.25" stroke-linecap="round" stroke-linejoin="round"/>
<path d="M314.47 314.791C326.89 304.899 341.562 294.631 341.562 294.631C354.094 284.802 316.498 236.776 304.607 244.568C304.607 244.568 289.237 242.412 282.353 245.015C276.278 247.31 268.596 254.73 268.596 254.73" fill="white"/>
<path d="M314.47 314.791C326.89 304.899 341.562 294.631 341.562 294.631C354.094 284.802 316.498 236.776 304.607 244.568C304.607 244.568 289.237 242.412 282.353 245.015C276.278 247.31 268.596 254.73 268.596 254.73" stroke="#202020" stroke-width="2.25" stroke-linecap="round" stroke-linejoin="round"/>
<path d="M268.597 254.73C270.051 253.47 273.717 250.088 278.065 246.099C286.356 238.491 289.911 231.256 291.397 228.602C294.349 223.286 301.962 225.053 303.298 229.368C304.546 233.4 302.583 247.702 301.549 249.766" fill="white"/>
<path d="M268.597 254.73C270.051 253.47 273.717 250.088 278.065 246.099C286.356 238.491 289.911 231.256 291.397 228.602C294.349 223.286 301.962 225.053 303.298 229.368C304.546 233.4 302.583 247.702 301.549 249.766" stroke="#202020" stroke-width="2.25" stroke-linecap="round" stroke-linejoin="round"/>
<path d="M315.843 256.186L323.281 249.562L323.006 248.986C324.26 246.478 328.974 245.316 333.214 247.166L333.215 247.166C336.846 249.069 338.269 253.045 336.463 257.639C335.134 261.92 325.814 269.78 325.814 269.78" fill="white"/>
<path d="M315.843 256.186L323.281 249.562L323.006 248.986C324.26 246.478 328.974 245.316 333.214 247.166L333.215 247.166C336.846 249.069 338.269 253.045 336.463 257.639C335.134 261.92 325.814 269.78 325.814 269.78" stroke="#202020" stroke-width="2.25" stroke-linecap="round" stroke-linejoin="round"/>
<path d="M325.815 269.78L332.712 263.468L332.929 263.579C334.128 262.344 337.264 261.368 341.068 262.874C344.335 264.66 346.183 269.502 344.279 273.537C343.22 276.34 339.793 278.561 339.793 278.561L333.832 283.596" fill="white"/>
<path d="M325.815 269.78L332.712 263.468L332.929 263.579C334.128 262.344 337.264 261.368 341.068 262.874C344.335 264.66 346.183 269.502 344.279 273.537C343.22 276.34 339.793 278.561 339.793 278.561L333.832 283.596" stroke="#202020" stroke-width="2.25" stroke-linecap="round" stroke-linejoin="round"/>
<path d="M333.037 284.248L339.991 278.408C343.132 275.978 344.325 275.131 344.667 275.572L344.504 275.569C347.238 276.123 348.547 280.261 347.951 282.56C347.791 284.671 346.412 288.797 343.982 291.577C342.47 293.307 339.635 295.31 339.635 295.31" fill="white"/>
<path d="M333.037 284.248L339.991 278.408C343.132 275.978 344.325 275.131 344.667 275.572L344.504 275.569C347.238 276.123 348.547 280.261 347.951 282.56C347.791 284.671 346.412 288.797 343.982 291.577C342.47 293.307 339.635 295.31 339.635 295.31" stroke="#202020" stroke-width="2.25" stroke-linecap="round" stroke-linejoin="round"/>
<path d="M315.841 256.186C315.841 256.186 333.995 238.352 334.701 236.943C337.854 232.198 336.631 227.097 333.14 224.961C328.315 222.582 324.348 226.256 320.917 230.418C317.734 234.278 309.041 241.014 309.041 241.014C304.557 243.636 299.753 247.876 290.772 247.987" fill="white"/>
<path d="M315.841 256.186C315.841 256.186 333.995 238.352 334.701 236.943C337.854 232.198 336.631 227.097 333.14 224.961C328.315 222.582 324.348 226.256 320.917 230.418C317.734 234.278 309.041 241.014 309.041 241.014C304.557 243.636 299.753 247.876 290.772 247.987" stroke="#202020" stroke-width="2.25" stroke-linecap="round" stroke-linejoin="round"/>
<path d="M192.434 274.66C192.498 290.208 194.636 342.019 202.503 353.908C211.161 366.994 239.649 363.325 251.772 361.198C261.262 359.533 223.185 271.702 217.642 268.543C210.362 264.392 192.409 268.654 192.434 274.66Z" fill="#202020"/>
<path d="M255.558 293.298C255.558 293.298 242.213 259.133 238.293 247.555C234.372 235.974 215.072 229.116 200.495 239.193C191.175 245.637 190.008 258.055 194.465 278.466C200.337 305.359 210.87 347.888 227.437 356.555C237.775 361.964 250.054 361.945 259.907 357.801" fill="white"/>
<path d="M255.558 293.298C255.558 293.298 242.213 259.133 238.293 247.555C234.372 235.974 215.072 229.116 200.495 239.193C191.175 245.637 190.008 258.055 194.465 278.466C200.337 305.359 210.87 347.888 227.437 356.555C237.775 361.964 250.054 361.945 259.907 357.801" stroke="#202020" stroke-width="2.25" stroke-linecap="round" stroke-linejoin="round"/>
<path d="M177.889 189.006C189.902 191.861 206.329 195.719 219.717 210.353C231.48 223.213 244.536 264.482 244.536 264.482L194.464 278.466C194.464 278.466 188.098 258.985 193.664 241.526" fill="#682EC6"/>
<path d="M177.889 189.006C189.902 191.861 206.329 195.719 219.717 210.353C231.48 223.213 244.536 264.482 244.536 264.482L194.464 278.466C194.464 278.466 188.098 258.985 193.664 241.526" stroke="#202020" stroke-width="2.25" stroke-linecap="round" stroke-linejoin="round"/>
<path d="M126.794 186.287C85.8571 187.255 74.1874 193.411 74.1874 193.411C74.1874 193.411 94.6883 209.852 95.2263 211.734C95.7644 213.617 166.93 226.721 166.93 226.721L204.535 200.01C204.535 200.01 187.707 188.594 165.974 186.569C156.758 185.71 139.64 185.983 126.794 186.287Z" fill="#682EC6"/>
<path d="M446.54 210.35C433.871 225.89 427.082 241.326 431.377 244.827C435.672 248.329 449.424 238.57 462.093 223.03C474.763 207.491 481.552 192.055 477.257 188.553C472.962 185.052 459.21 194.81 446.54 210.35Z" fill="#202020"/>
<path d="M446.54 210.35C433.871 225.89 427.082 241.326 431.377 244.827C435.672 248.329 449.424 238.57 462.093 223.03C474.763 207.491 481.552 192.055 477.257 188.553C472.962 185.052 459.21 194.81 446.54 210.35Z" stroke="#202020" stroke-width="2.25" stroke-linecap="round" stroke-linejoin="round"/>
<path d="M633.971 209.915C637.383 168.519 606.591 132.196 565.195 128.785C523.8 125.374 487.477 156.166 484.065 197.561C480.654 238.956 511.446 275.279 552.841 278.691C594.237 282.102 630.56 251.31 633.971 209.915Z" fill="white"/>
<path d="M633.971 209.915C637.383 168.519 606.591 132.196 565.195 128.785C523.8 125.374 487.477 156.166 484.065 197.561C480.654 238.956 511.446 275.279 552.841 278.691C594.237 282.102 630.56 251.31 633.971 209.915Z" stroke="#202020" stroke-width="2.25" stroke-linecap="round" stroke-linejoin="round"/>
<path d="M494.953 225.459L549.726 190.229C567.545 179.126 594.25 220.813 576.661 237.618C576.661 237.618 517.709 285.964 500.155 286.197C490.45 286.327 484.918 284.751 481.684 283.252" fill="white"/>
<path d="M494.953 225.459L549.726 190.229C567.545 179.126 594.25 220.813 576.661 237.618C576.661 237.618 517.709 285.964 500.155 286.197C490.45 286.327 484.918 284.751 481.684 283.252" stroke="#202020" stroke-width="2.25" stroke-linecap="round" stroke-linejoin="round"/>
<mask id="mask4_550_402" style="mask-type:alpha" maskUnits="userSpaceOnUse" x="482" y="127" width="154" height="154">
<path d="M633.747 209.973C637.121 168.574 606.296 132.279 564.898 128.905C523.499 125.531 487.204 156.356 483.83 197.754C480.456 239.153 511.281 275.448 552.679 278.822C594.078 282.196 630.373 251.371 633.747 209.973Z" fill="#7248EE"/>
<path d="M633.747 209.973C637.121 168.574 606.296 132.279 564.898 128.905C523.499 125.531 487.204 156.356 483.83 197.754C480.456 239.153 511.281 275.448 552.679 278.822C594.078 282.196 630.373 251.371 633.747 209.973Z" stroke="#231F20" stroke-width="2.25" stroke-linecap="round" stroke-linejoin="round"/>
</mask>
<g mask="url(#mask4_550_402)">
<path d="M525.804 256.757C525.06 275.39 530.81 290.736 551.611 293.643C574.667 296.865 636.617 286.769 618.373 255.466L571.68 182.507L549.877 189.838" fill="white"/>
<path d="M525.804 256.757C525.06 275.39 530.81 290.736 551.611 293.643C574.667 296.865 636.617 286.769 618.373 255.466L571.68 182.507L549.877 189.838" stroke="#202020" stroke-width="2.25" stroke-linecap="round" stroke-linejoin="round"/>
</g>
<path d="M422.497 206.436L450.749 243.421C463.516 258.502 502.209 219.866 483.394 195.112L457.872 161.914C444.681 141.724 402.548 180.006 422.497 206.436Z" fill="white"/>
<path d="M422.497 206.436L450.749 243.421C463.516 258.502 502.209 219.866 483.394 195.112L457.872 161.914C444.681 141.724 402.548 180.006 422.497 206.436Z" stroke="#202020" stroke-width="2.25" stroke-linecap="round" stroke-linejoin="round"/>
<path d="M468.823 175.911C468.823 175.911 440.988 142.698 418.991 144.719C410.707 145.48 397.474 184.74 401.761 190.825C406.27 197.225 420.801 217.997 436.492 215.312" fill="white"/>
<path d="M468.823 175.911C468.823 175.911 440.988 142.698 418.991 144.719C410.707 145.48 397.474 184.74 401.761 190.825C406.27 197.225 420.801 217.997 436.492 215.312" stroke="#202020" stroke-width="2.25" stroke-linecap="round" stroke-linejoin="round"/>
<path d="M420.629 149.144C422.54 147.657 430.593 152.549 430.593 152.549L433.731 158.134L432.776 175.08L425.589 193.235C425.589 193.235 417.196 189.732 416.107 185.791C415.294 182.851 418.718 150.63 420.629 149.144Z" fill="#202020"/>
<path d="M420.629 149.144C422.54 147.657 430.593 152.549 430.593 152.549L433.731 158.134L432.776 175.08L425.589 193.235C425.589 193.235 417.196 189.732 416.107 185.791C415.294 182.851 418.718 150.63 420.629 149.144Z" stroke="#202020" stroke-width="2.25" stroke-linecap="round" stroke-linejoin="round"/>
<path d="M432.812 150.546L428.868 152.756L375.225 57.0151L379.169 54.8054L432.812 150.546Z" fill="white"/>
<path d="M432.812 150.546L428.868 152.756L375.225 57.0151L379.169 54.8054L432.812 150.546Z" stroke="#202020" stroke-width="2.25" stroke-linecap="round" stroke-linejoin="round"/>
<path d="M472.522 181.323C460.78 164.596 439.72 126.49 433.744 123.69C427.85 120.93 421.688 123.524 422.801 131.874C423.914 140.224 436.649 162.998 436.649 162.998" fill="white"/>
<path d="M472.522 181.323C460.78 164.596 439.72 126.49 433.744 123.69C427.85 120.93 421.688 123.524 422.801 131.874C423.914 140.224 436.649 162.998 436.649 162.998" stroke="#202020" stroke-width="2.25" stroke-linecap="round" stroke-linejoin="round"/>
<path d="M420.669 156.075L406.692 149.429C402.994 147.67 401.407 143.206 403.166 139.508C404.925 135.809 409.39 134.222 413.088 135.981L427.064 142.628C430.763 144.387 432.35 148.851 430.591 152.549C428.832 156.247 424.367 157.834 420.669 156.075Z" fill="white"/>
<path d="M420.669 156.075L406.692 149.429C402.994 147.67 401.407 143.206 403.166 139.508C404.925 135.809 409.39 134.222 413.088 135.981L427.064 142.628C430.763 144.387 432.35 148.851 430.591 152.549C428.832 156.247 424.367 157.834 420.669 156.075Z" stroke="#202020" stroke-width="2.25" stroke-linecap="round" stroke-linejoin="round"/>
<path d="M420.929 169.279L406.381 164.001C402.531 162.604 400.525 158.312 401.921 154.463C403.318 150.613 407.61 148.607 411.46 150.003L426.008 155.282C429.857 156.678 431.863 160.97 430.467 164.82C429.07 168.67 424.778 170.676 420.929 169.279Z" fill="white"/>
<path d="M420.929 169.279L406.381 164.001C402.531 162.604 400.525 158.312 401.921 154.463C403.318 150.613 407.61 148.607 411.46 150.003L426.008 155.282C429.857 156.678 431.863 160.97 430.467 164.82C429.07 168.67 424.778 170.676 420.929 169.279Z" stroke="#202020" stroke-width="2.25" stroke-linecap="round" stroke-linejoin="round"/>
<path d="M418.102 182.625L403.554 177.347C399.705 175.95 397.699 171.658 399.095 167.808C400.492 163.959 404.784 161.953 408.633 163.349L423.181 168.628C427.031 170.024 429.037 174.316 427.641 178.166C426.244 182.016 421.952 184.022 418.102 182.625Z" fill="white"/>
<path d="M418.102 182.625L403.554 177.347C399.705 175.95 397.699 171.658 399.095 167.808C400.492 163.959 404.784 161.953 408.633 163.349L423.181 168.628C427.031 170.024 429.037 174.316 427.641 178.166C426.244 182.016 421.952 184.022 418.102 182.625Z" stroke="#202020" stroke-width="2.25" stroke-linecap="round" stroke-linejoin="round"/>
<path d="M402.722 192.337C399.915 189.034 396.311 185.355 397.707 181.505C399.104 177.655 403.396 175.649 407.246 177.045L421.794 182.324C425.644 183.721 427.65 188.013 426.254 191.862C424.857 195.712 420.565 197.718 416.716 196.322L410.807 194.178" fill="white"/>
<path d="M402.722 192.337C399.915 189.034 396.311 185.355 397.707 181.505C399.104 177.655 403.396 175.649 407.246 177.045L421.794 182.324C425.644 183.721 427.65 188.013 426.254 191.862C424.857 195.712 420.565 197.718 416.716 196.322L410.807 194.178" stroke="#202020" stroke-width="2.25" stroke-linecap="round" stroke-linejoin="round"/>
<path d="M503.206 285.809C472.47 293.223 445.899 255.531 431.377 244.827C431.377 244.827 436.561 242.796 440.093 239.222C446.077 233.167 476.333 185.822 476.333 185.822L504.982 222.186" fill="white"/>
<path d="M503.206 285.809C472.47 293.223 445.899 255.531 431.377 244.827C431.377 244.827 436.561 242.796 440.093 239.222C446.077 233.167 476.333 185.822 476.333 185.822L504.983 222.186" stroke="#202020" stroke-width="2.25" stroke-linecap="round" stroke-linejoin="round"/>
<path d="M521.982 230.86C520.631 229.007 519.987 226.507 520.424 223.586C522.404 210.318 554.443 186.311 557.785 184.168C561.126 182.025 565.042 185.427 564.611 189.236L537.853 214.374" fill="white"/>
<path d="M521.982 230.86C520.631 229.007 519.987 226.507 520.424 223.586C522.404 210.318 554.443 186.311 557.785 184.168C561.126 182.025 565.042 185.427 564.611 189.236L537.853 214.374" stroke="#202020" stroke-width="2.25" stroke-linecap="round" stroke-linejoin="round"/>
<path d="M550.025 205.261C550.025 205.261 552.48 175.452 553.327 166.812C554.094 159 566.328 154.793 569.339 165.379C571.897 174.37 574.489 190.564 574.489 190.564C579.38 209.411 549.258 218.569 550.025 205.261Z" fill="white"/>
<path d="M550.025 205.261C550.025 205.261 552.48 175.452 553.327 166.812C554.094 159 566.328 154.793 569.339 165.379C571.897 174.37 574.489 190.564 574.489 190.564C579.38 209.411 549.258 218.569 550.025 205.261Z" stroke="#202020" stroke-width="2.25" stroke-linecap="round" stroke-linejoin="round"/>
<path d="M575.19 161.04C573.751 163.881 569.086 164.412 564.771 162.226C560.456 160.04 558.125 155.964 559.564 153.123C561.004 150.282 565.669 149.752 569.984 151.938C574.298 154.124 576.63 158.2 575.19 161.04Z" fill="#202020"/>
<path d="M575.19 161.04C573.751 163.881 569.086 164.412 564.771 162.226C560.456 160.04 558.125 155.964 559.564 153.123C561.004 150.282 565.669 149.752 569.984 151.938C574.298 154.124 576.63 158.2 575.19 161.04Z" stroke="#202020" stroke-width="2.25" stroke-linecap="round" stroke-linejoin="round"/>
<path d="M564.083 167.948C565.686 171.515 567.449 172.891 571.166 172.849C570.58 170.159 569.958 167.557 569.339 165.379C566.862 156.674 558.156 157.975 554.711 163.055C559.436 163.623 562.817 165.099 564.083 167.948Z" fill="#202020"/>
<path d="M564.083 167.948C565.686 171.515 567.449 172.891 571.166 172.849C570.58 170.159 569.958 167.557 569.339 165.379C566.862 156.674 558.156 157.975 554.711 163.055C559.436 163.623 562.817 165.099 564.083 167.948Z" stroke="#202020" stroke-width="2.25" stroke-linecap="round" stroke-linejoin="round"/>
<mask id="mask5_550_402" style="mask-type:alpha" maskUnits="userSpaceOnUse" x="482" y="127" width="154" height="154">
<path d="M633.747 209.973C637.121 168.574 606.296 132.279 564.898 128.905C523.499 125.531 487.204 156.356 483.83 197.754C480.456 239.153 511.281 275.448 552.679 278.822C594.078 282.196 630.373 251.371 633.747 209.973Z" fill="white"/>
<path d="M633.747 209.973C637.121 168.574 606.296 132.279 564.898 128.905C523.499 125.531 487.204 156.356 483.83 197.754C480.456 239.153 511.281 275.448 552.679 278.822C594.078 282.196 630.373 251.371 633.747 209.973Z" stroke="#231F20" stroke-width="2.25" stroke-linecap="round" stroke-linejoin="round"/>
</mask>
<g mask="url(#mask5_550_402)">
<path d="M560.217 242.893L562.029 279.619C585.885 280.496 611.193 266.225 617.957 255.445L580.149 187.691C575.373 179.511 553.017 200.036 555.591 211.815" fill="white"/>
<path d="M560.217 242.893L562.029 279.619C585.885 280.496 611.193 266.225 617.957 255.445L580.149 187.691C575.373 179.511 553.017 200.036 555.591 211.815" stroke="#202020" stroke-width="2.25" stroke-linecap="round" stroke-linejoin="round"/>
</g>
<mask id="mask6_550_402" style="mask-type:luminance" maskUnits="userSpaceOnUse" x="526" y="174" width="139" height="165">
<path d="M655.242 194.879C630.452 157.647 593.484 179.405 561.034 205.408C528.584 231.41 510.128 307.572 548.089 328.687C632.855 375.838 687.868 243.881 655.242 194.879Z" fill="white"/>
</mask>
<g mask="url(#mask6_550_402)">
<path d="M633.971 209.915C637.383 168.519 606.591 132.196 565.195 128.785C523.8 125.374 487.477 156.166 484.065 197.561C480.654 238.956 511.446 275.279 552.841 278.691C594.237 282.102 630.56 251.31 633.971 209.915Z" stroke="#202020" stroke-width="2.25" stroke-linecap="round" stroke-linejoin="round"/>
</g>
<path d="M537.852 214.373C537.852 214.373 571.989 181.832 578.539 176.882C585.089 171.932 591.688 179.801 588.014 185.521C583.906 191.917 541.793 230.618 532.905 233.699C528.449 235.243 524.232 233.949 521.981 230.859" fill="white"/>
<path d="M537.852 214.373C537.852 214.373 571.989 181.832 578.539 176.882C585.089 171.932 591.688 179.801 588.014 185.521C583.906 191.917 541.793 230.618 532.905 233.699C528.449 235.243 524.232 233.949 521.981 230.859" stroke="#202020" stroke-width="2.25" stroke-linecap="round" stroke-linejoin="round"/>
</g>
<defs>
<clipPath id="clip0_550_402">
<rect width="636" height="545" fill="white"/>
</clipPath>
</defs>
</svg>
