<svg width="582" height="508" viewBox="0 0 582 508" fill="none" xmlns="http://www.w3.org/2000/svg">
<g clip-path="url(#clip0_550_3)">
<path d="M146.879 263.805V258.046C146.879 254.674 144.022 251.914 140.529 251.914H46.9979C43.5058 251.914 40.6484 254.674 40.6484 258.046V263.805H146.879Z" fill="#202020"/>
<path d="M146.879 263.805V258.046C146.879 254.674 144.022 251.914 140.529 251.914H46.9979C43.5058 251.914 40.6484 254.674 40.6484 258.046V263.805H146.879Z" stroke="#202020" stroke-width="2.33496" stroke-linecap="round" stroke-linejoin="round"/>
<path d="M61.4824 252.873C61.6782 244.541 61.6603 221.636 61.5298 213.318L75.2335 213.357C75.3583 221.66 75.3791 244.565 75.1826 252.881L61.4824 252.873Z" fill="#202020"/>
<path d="M61.4824 252.873C61.6782 244.541 61.6603 221.636 61.5298 213.318L75.2335 213.357C75.3583 221.66 75.3791 244.565 75.1826 252.881L61.4824 252.873Z" stroke="#202020" stroke-width="2.33496" stroke-linecap="round" stroke-linejoin="round"/>
<path d="M151.547 251.914H138.044C138.219 240.344 137.957 225.411 138.142 214.647C138.142 214.647 93.3718 213.397 74.3356 213.353C74.4038 221.36 74.4174 242.91 74.3191 251.914H58.0155C54.5234 251.914 51.666 254.674 51.666 258.046V263.805H157.896V258.046C157.896 254.674 155.039 251.914 151.547 251.914Z" fill="white"/>
<path d="M151.547 251.914H138.044C138.219 240.344 137.957 225.411 138.142 214.647C138.142 214.647 93.3718 213.397 74.3356 213.353C74.4038 221.36 74.4174 242.91 74.3191 251.914H58.0155C54.5234 251.914 51.666 254.674 51.666 258.046V263.805H157.896V258.046C157.896 254.674 155.039 251.914 151.547 251.914Z" stroke="#202020" stroke-width="2.33496" stroke-linecap="round" stroke-linejoin="round"/>
<path d="M138.541 214.044H61.4824V224.984H138.541V214.044Z" fill="#202020"/>
<path d="M172.791 87.8711H19.7449C15.3204 87.8711 11.7344 92.0951 11.7344 97.3057V205.521C11.7344 210.731 15.3204 214.955 19.7449 214.955H172.791C177.215 214.955 180.801 210.731 180.801 205.521V97.3057C180.801 92.0951 177.215 87.8711 172.791 87.8711Z" fill="#202020"/>
<path d="M172.791 87.8711H19.7449C15.3204 87.8711 11.7344 92.0951 11.7344 97.3057V205.521C11.7344 210.731 15.3204 214.955 19.7449 214.955H172.791C177.215 214.955 180.801 210.731 180.801 205.521V97.3057C180.801 92.0951 177.215 87.8711 172.791 87.8711Z" stroke="#202020" stroke-width="2.33496" stroke-linecap="round" stroke-linejoin="round"/>
<path d="M179.962 87.8711H26.9168C22.4923 87.8711 18.9062 92.0951 18.9062 97.3057V205.521C18.9062 210.731 22.4923 214.955 26.9168 214.955H179.962C184.387 214.955 187.973 210.731 187.973 205.521V97.3057C187.973 92.0951 184.387 87.8711 179.962 87.8711Z" fill="white"/>
<path d="M179.962 87.8711H26.9168C22.4923 87.8711 18.9062 92.0951 18.9062 97.3057V205.521C18.9062 210.731 22.4923 214.955 26.9168 214.955H179.962C184.387 214.955 187.973 210.731 187.973 205.521V97.3057C187.973 92.0951 184.387 87.8711 179.962 87.8711Z" stroke="#202020" stroke-width="2.33496" stroke-linecap="round" stroke-linejoin="round"/>
<path d="M250.826 16.845L203.701 15.8559C196.344 15.7015 190.216 22.6651 190.085 31.3292L189.674 58.5023L173.813 102.961L198.565 83.0884C199.856 83.6144 201.235 83.9215 202.67 83.9516L249.796 84.9407C257.153 85.0951 263.28 78.1315 263.412 69.4674L263.965 32.8798C264.096 24.2157 258.183 16.9994 250.826 16.845Z" fill="white"/>
<path d="M250.826 16.845L203.701 15.8559C196.344 15.7015 190.216 22.6651 190.085 31.3292L189.674 58.5023L173.813 102.961L198.565 83.0884C199.856 83.6144 201.235 83.9215 202.67 83.9516L249.796 84.9407C257.153 85.0951 263.28 78.1315 263.412 69.4674L263.965 32.8798C264.096 24.2157 258.183 16.9994 250.826 16.845Z" stroke="#202020" stroke-width="2.36552" stroke-linecap="round" stroke-linejoin="round"/>
<path d="M279.613 13.6785L269.497 1.92457L226.344 49.5148L213.336 34.6817L202.871 46.0045L225.822 72.3902L226.001 72.1971L226.173 72.3976L279.613 13.6785Z" fill="#202020"/>
<path d="M279.613 13.6785L269.497 1.92457L226.344 49.5148L213.336 34.6817L202.871 46.0045L225.822 72.3902L226.001 72.1971L226.173 72.3976L279.613 13.6785Z" stroke="#202020" stroke-width="2.36552" stroke-linecap="round" stroke-linejoin="round"/>
<path d="M123.719 164.37C97.6116 164.387 51.6914 164.416 51.6914 164.416" stroke="#202020" stroke-width="2.33496" stroke-linecap="round" stroke-linejoin="round"/>
<path d="M109.669 158.27H99.2305V170.563H109.669V158.27Z" fill="white"/>
<path d="M109.669 158.27H99.2305V170.563H109.669V158.27Z" stroke="#202020" stroke-width="2.33496" stroke-linecap="round" stroke-linejoin="round"/>
<path d="M141.153 138.269C141.153 138.269 66.5461 138.165 54.9883 138.148" stroke="#202020" stroke-width="2.33496" stroke-linecap="round" stroke-linejoin="round"/>
<path d="M133.266 138.173L125.885 129.48L118.504 138.173L125.885 146.865L133.266 138.173Z" fill="white"/>
<path d="M133.266 138.173L125.885 129.48L118.504 138.173L125.885 146.865L133.266 138.173Z" stroke="#202020" stroke-width="2.33496" stroke-linecap="round" stroke-linejoin="round"/>
<path d="M55.4576 87.5435C55.497 87.5764 55.5888 87.606 55.6971 87.6178C55.5895 87.6296 55.497 87.6583 55.4583 87.6921C55.4189 87.6583 55.3263 87.6296 55.2188 87.6178C55.3263 87.606 55.4189 87.5772 55.4576 87.5435Z" fill="white"/>
<path d="M55.4576 87.5435C55.497 87.5764 55.5888 87.606 55.6971 87.6178C55.5895 87.6296 55.497 87.6583 55.4583 87.6921C55.4189 87.6583 55.3263 87.6296 55.2188 87.6178C55.3263 87.606 55.4189 87.5772 55.4576 87.5435Z" stroke="#202020" stroke-width="2.33496" stroke-linecap="round" stroke-linejoin="round"/>
<path d="M523.047 503.643C523.868 503.677 523.868 504.699 523.047 504.733C440.064 508.1 347.319 507.442 264.543 507.729C184.504 507.451 95.1045 508.057 14.2621 505.052C12.9517 505.003 12.9517 503.373 14.2621 503.324C95.1157 500.318 184.491 500.925 264.544 500.647C347.306 500.934 440.077 500.276 523.047 503.643Z" fill="#202020"/>
<path d="M333.427 146.764C322.916 161.289 292.534 197.041 299.301 211.499C304.682 222.997 336.516 245.899 355.539 234.035C380.826 218.263 407.714 171.308 413.016 157.731C423.754 130.232 347.386 127.475 333.427 146.764Z" fill="white"/>
<path d="M333.427 146.764C322.916 161.289 292.534 197.041 299.301 211.499C304.682 222.997 336.516 245.899 355.539 234.035C380.826 218.263 407.714 171.308 413.016 157.731C423.754 130.232 347.386 127.475 333.427 146.764Z" stroke="#202020" stroke-width="2.4" stroke-linecap="round" stroke-linejoin="round"/>
<mask id="mask0_550_3" style="mask-type:alpha" maskUnits="userSpaceOnUse" x="297" y="133" width="119" height="106">
<path d="M333.427 146.764C322.916 161.289 292.534 197.041 299.301 211.499C304.682 222.997 336.516 245.899 355.539 234.035C380.826 218.263 407.714 171.308 413.016 157.731C423.754 130.232 347.386 127.475 333.427 146.764Z" fill="#B25539"/>
<path d="M333.427 146.764C322.916 161.289 292.534 197.041 299.301 211.499C304.682 222.997 336.516 245.899 355.539 234.035C380.826 218.263 407.714 171.308 413.016 157.731C423.754 130.232 347.386 127.475 333.427 146.764Z" stroke="#231F20" stroke-width="2.4" stroke-linecap="round" stroke-linejoin="round"/>
</mask>
<g mask="url(#mask0_550_3)">
<path d="M368.163 162.743C365.173 162.444 343.145 166.32 339.153 175.79C335.161 185.261 361.52 204.858 369.039 203.858C376.557 202.858 384.599 196.216 385.556 190.738C386.512 185.261 377.356 163.663 368.163 162.743Z" fill="#202020"/>
</g>
<path d="M314.341 180.465C286.068 191.337 256.416 225.342 241.484 234.759C231.322 241.168 270.236 295.711 283.65 289.232C301.59 280.569 340.293 252.341 365.954 221.248" fill="white"/>
<path d="M314.341 180.465C286.068 191.337 256.416 225.342 241.484 234.759C231.322 241.168 270.236 295.711 283.65 289.232C301.59 280.569 340.293 252.341 365.954 221.248" stroke="#202020" stroke-width="2.4" stroke-linecap="round" stroke-linejoin="round"/>
<path d="M241.959 234.203C241.959 234.203 224.975 238.674 214.029 253.676C205.93 264.777 214.068 268.233 192.9 277.439C185.476 280.297 216.539 328.259 229.684 322.188C239.936 317.453 274.258 296.914 289.381 285.887" fill="white"/>
<path d="M241.959 234.203C241.959 234.203 224.975 238.674 214.029 253.676C205.93 264.777 214.068 268.233 192.9 277.439C185.476 280.297 216.539 328.259 229.684 322.188C239.936 317.453 274.258 296.914 289.381 285.887" stroke="#202020" stroke-width="2.4" stroke-linecap="round" stroke-linejoin="round"/>
<path d="M245.391 231.822C232.752 235.369 212.145 242.103 203.165 241.615C196.637 241.903 193.681 252.679 201.358 254.825C208.126 256.813 212.681 258.728 212.681 258.728C212.681 258.728 218.318 271.637 230.617 270.329" fill="white"/>
<path d="M245.391 231.822C232.752 235.369 212.145 242.103 203.165 241.615C196.637 241.903 193.681 252.679 201.358 254.825C208.126 256.813 212.681 258.728 212.681 258.728C212.681 258.728 218.318 271.637 230.617 270.329" stroke="#202020" stroke-width="2.4" stroke-linecap="round" stroke-linejoin="round"/>
<path d="M197.966 288.389C197.563 288.763 197.103 289.088 196.59 289.349C196.59 289.349 195.67 289.818 195.67 289.818C192.661 291.353 188.944 290.148 187.41 287.139L180.653 273.893C179.118 270.884 180.323 267.167 183.332 265.633L184.252 265.164C187.261 263.629 190.978 264.834 192.512 267.843C192.512 267.843 197.126 276.887 198.729 280.029" fill="white"/>
<path d="M197.966 288.389C197.563 288.763 197.103 289.088 196.59 289.349C196.59 289.349 195.67 289.818 195.67 289.818C192.661 291.353 188.944 290.148 187.41 287.139L180.653 273.893C179.118 270.884 180.323 267.167 183.332 265.633L184.252 265.164C187.261 263.629 190.978 264.834 192.512 267.843C192.512 267.843 197.126 276.887 198.729 280.029" stroke="#202020" stroke-width="2.4" stroke-linecap="round" stroke-linejoin="round"/>
<path d="M204.627 299.944C204.083 300.721 203.355 301.384 202.466 301.86C202.466 301.86 201.536 302.358 201.536 302.358C198.494 303.988 194.671 302.832 193.041 299.789L185.865 286.393C184.235 283.35 185.391 279.527 188.434 277.897L189.364 277.399C192.406 275.769 196.229 276.925 197.859 279.968C197.859 279.968 201.874 287.461 203.897 291.239" fill="white"/>
<path d="M204.627 299.944C204.083 300.721 203.355 301.384 202.466 301.86C202.466 301.86 201.536 302.358 201.536 302.358C198.494 303.988 194.671 302.832 193.041 299.789L185.865 286.393C184.235 283.35 185.391 279.527 188.434 277.897L189.364 277.399C192.406 275.769 196.229 276.925 197.859 279.968C197.859 279.968 201.874 287.461 203.897 291.239" stroke="#202020" stroke-width="2.4" stroke-linecap="round" stroke-linejoin="round"/>
<path d="M215.843 309.967C216.309 312.477 215.188 315.131 212.865 316.484C212.865 316.484 211.962 317.01 211.962 317.01C209.009 318.729 205.187 317.72 203.468 314.767L195.898 301.767C194.179 298.814 195.188 294.992 198.141 293.273L199.043 292.747C201.996 291.028 205.819 292.036 207.538 294.989C207.538 294.989 209.563 298.466 211.518 301.824" fill="white"/>
<path d="M215.843 309.967C216.309 312.477 215.188 315.131 212.865 316.484C212.865 316.484 211.962 317.01 211.962 317.01C209.009 318.729 205.187 317.72 203.468 314.767L195.898 301.767C194.179 298.814 195.188 294.992 198.141 293.273L199.043 292.747C201.996 291.028 205.819 292.036 207.538 294.989C207.538 294.989 209.563 298.466 211.518 301.824" stroke="#202020" stroke-width="2.4" stroke-linecap="round" stroke-linejoin="round"/>
<path d="M229.683 322.187C224.701 324.994 221.977 324.79 218.24 325.813C212.918 326.821 207.945 321.97 206.77 318.204L207.842 313.327C206.667 309.561 208.786 305.518 212.552 304.343C216.318 303.168 220.36 305.287 221.535 309.053L223.834 314.168" fill="white"/>
<path d="M229.683 322.187C224.701 324.994 221.977 324.79 218.24 325.813C212.918 326.821 207.945 321.97 206.77 318.204L207.842 313.327C206.667 309.561 208.786 305.518 212.552 304.343C216.318 303.168 220.36 305.287 221.535 309.053L223.834 314.168" stroke="#202020" stroke-width="2.4" stroke-linecap="round" stroke-linejoin="round"/>
<path d="M375.789 99.0885C360.45 106.527 354.253 117.103 334.894 144.919C348.639 147.78 381.959 153.042 415.482 170.086C417.201 170.96 440.506 139.817 441.217 122.03C441.698 110.019 442.145 93.2451 417.431 92.4943C395.665 91.8336 387.324 93.4949 375.789 99.0885Z" fill="#682EC6"/>
<path d="M375.789 99.0885C360.45 106.527 354.253 117.103 334.894 144.919C348.639 147.78 381.959 153.042 415.482 170.086C417.201 170.96 440.506 139.817 441.217 122.03C441.698 110.019 442.145 93.2451 417.431 92.4943C395.665 91.8336 387.324 93.4949 375.789 99.0885Z" stroke="#202020" stroke-width="2.4" stroke-linecap="round" stroke-linejoin="round"/>
<path d="M287.616 169.615C335.553 179.763 368.289 198.679 406.046 219.416C442.327 239.343 486.024 241.764 490.077 270.128C498.927 332.047 457.205 335.287 416.87 335.359C376.533 335.431 272.674 264.266 272.674 264.266C260.216 256.287 233.43 227.27 243.409 195.992C251.227 171.486 262.958 164.396 287.616 169.615Z" fill="white"/>
<path d="M287.616 169.615C335.553 179.763 368.289 198.679 406.046 219.416C442.327 239.343 486.024 241.764 490.077 270.128C498.927 332.047 457.205 335.287 416.87 335.359C376.533 335.431 272.674 264.266 272.674 264.266C260.216 256.287 233.43 227.27 243.409 195.992C251.227 171.486 262.958 164.396 287.616 169.615Z" stroke="#202020" stroke-width="2.4" stroke-linecap="round" stroke-linejoin="round"/>
<path d="M451.238 463.69H463.72V356.963H451.238V463.69Z" fill="white"/>
<path d="M451.238 463.69H463.72V356.963H451.238V463.69Z" stroke="#202020" stroke-width="2.4" stroke-linecap="round" stroke-linejoin="round"/>
<path d="M505.365 350.379C515.496 350.379 523.135 334.014 523.135 312.311V269.073C523.135 247.37 515.496 231.005 505.365 231.005V247.508C506.787 247.508 511.076 255.156 511.076 269.073V312.311C511.076 326.228 506.787 333.876 505.365 333.876" fill="white"/>
<path d="M505.365 350.379C515.496 350.379 523.135 334.014 523.135 312.311V269.073C523.135 247.37 515.496 231.005 505.365 231.005V247.508C506.787 247.508 511.076 255.156 511.076 269.073V312.311C511.076 326.228 506.787 333.876 505.365 333.876" stroke="#202020" stroke-width="2.4" stroke-linecap="round" stroke-linejoin="round"/>
<path d="M504.551 272.878H529.262C537.401 272.878 544.061 266.218 544.061 258.079V219.301C544.061 211.162 537.401 204.502 529.262 204.502H504.551C496.412 204.502 489.752 211.162 489.752 219.301V258.079C489.752 266.218 496.412 272.878 504.551 272.878Z" fill="white"/>
<path d="M504.551 272.878H529.262C537.401 272.878 544.061 266.218 544.061 258.079V219.301C544.061 211.162 537.401 204.502 529.262 204.502H504.551C496.412 204.502 489.752 211.162 489.752 219.301V258.079C489.752 266.218 496.412 272.878 504.551 272.878Z" stroke="#202020" stroke-width="2.4" stroke-linecap="round" stroke-linejoin="round"/>
<path d="M451.146 358.246H463.662V367.724H451.146V358.246Z" fill="#202020"/>
<path d="M398.478 358.325H516.507C523.296 358.325 528.851 352.77 528.851 345.98C528.851 339.19 523.296 333.635 516.507 333.635H398.478C391.688 333.635 386.133 339.19 386.133 345.98C386.133 352.77 391.688 358.325 398.478 358.325Z" fill="white"/>
<path d="M398.478 358.325H516.507C523.296 358.325 528.851 352.77 528.851 345.98C528.851 339.19 523.296 333.635 516.507 333.635H398.478C391.688 333.635 386.133 339.19 386.133 345.98C386.133 352.77 391.688 358.325 398.478 358.325Z" stroke="#202020" stroke-width="2.4" stroke-linecap="round" stroke-linejoin="round"/>
<path d="M521.041 482.026V473.039C521.041 468.096 516.997 464.052 512.054 464.052H402.933C397.989 464.052 393.945 468.096 393.945 473.039V482.026" stroke="#202020" stroke-width="2.4" stroke-linecap="round" stroke-linejoin="round"/>
<path d="M405.705 491.667C405.705 498.098 400.493 503.31 394.062 503.31C387.632 503.31 382.42 498.098 382.42 491.667C382.42 485.237 387.632 480.025 394.062 480.025C400.493 480.025 405.705 485.237 405.705 491.667Z" fill="#202020"/>
<path d="M405.705 491.667C405.705 498.098 400.493 503.31 394.062 503.31C387.632 503.31 382.42 498.098 382.42 491.667C382.42 485.237 387.632 480.025 394.062 480.025C400.493 480.025 405.705 485.237 405.705 491.667Z" stroke="#202020" stroke-width="2.4" stroke-linecap="round" stroke-linejoin="round"/>
<path d="M451.731 464.052C446.788 464.052 442.744 468.096 442.744 473.039V482.026" stroke="#202020" stroke-width="2.4" stroke-linecap="round" stroke-linejoin="round"/>
<path d="M454.506 491.667C454.506 498.098 449.294 503.31 442.863 503.31C436.433 503.31 431.221 498.098 431.221 491.667C431.221 485.237 436.433 480.025 442.863 480.025C449.294 480.025 454.506 485.237 454.506 491.667Z" fill="#202020"/>
<path d="M454.506 491.667C454.506 498.098 449.294 503.31 442.863 503.31C436.433 503.31 431.221 498.098 431.221 491.667C431.221 485.237 436.433 480.025 442.863 480.025C449.294 480.025 454.506 485.237 454.506 491.667Z" stroke="#202020" stroke-width="2.4" stroke-linecap="round" stroke-linejoin="round"/>
<path d="M532.904 491.667C532.904 498.098 527.692 503.31 521.262 503.31C514.831 503.31 509.619 498.098 509.619 491.667C509.619 485.237 514.831 480.025 521.262 480.025C527.692 480.025 532.904 485.237 532.904 491.667Z" fill="#202020"/>
<path d="M532.904 491.667C532.904 498.098 527.692 503.31 521.262 503.31C514.831 503.31 509.619 498.098 509.619 491.667C509.619 485.237 514.831 480.025 521.262 480.025C527.692 480.025 532.904 485.237 532.904 491.667Z" stroke="#202020" stroke-width="2.4" stroke-linecap="round" stroke-linejoin="round"/>
<path d="M521.055 472.052V466.942C521.055 462.87 517.755 459.57 513.684 459.57H401.303C397.232 459.57 393.932 462.87 393.932 466.942V472.052H521.055Z" fill="white"/>
<path d="M521.055 472.052V466.942C521.055 462.87 517.755 459.57 513.684 459.57H401.303C397.232 459.57 393.932 462.87 393.932 466.942V472.052H521.055Z" stroke="#202020" stroke-width="2.4" stroke-linecap="round" stroke-linejoin="round"/>
<path d="M160.693 231.526C170.001 278.599 158.3 284.11 149.596 284.249C140.2 284.399 133.926 275.065 127.271 233.409C121.867 199.585 132.977 194.275 138.859 193.163C145.934 191.826 154.6 200.712 160.693 231.526Z" fill="white"/>
<path d="M160.693 231.526C170.001 278.599 158.3 284.11 149.596 284.249C140.2 284.399 133.926 275.065 127.271 233.409C121.867 199.585 132.977 194.275 138.859 193.163C145.934 191.826 154.6 200.712 160.693 231.526Z" stroke="#202020" stroke-width="2.4" stroke-linecap="round" stroke-linejoin="round"/>
<path d="M145.697 264.222C125.25 268.846 114.575 270.034 91.978 275.398C82.7251 234.107 72.759 187.835 63.506 146.542C63.506 146.542 75.0865 144.057 84.0004 149.098C92.9143 154.14 102.288 167.635 110.596 177.233C121.105 189.376 134.834 194.94 134.834 194.94C145.231 194.497 163.383 188.323 169.975 195.645C185.842 213.27 207.418 256.084 145.697 264.222Z" fill="#682EC6"/>
<path d="M145.697 264.222C125.25 268.846 114.575 270.034 91.978 275.398C82.7251 234.107 72.759 187.835 63.506 146.542C63.506 146.542 75.0865 144.057 84.0004 149.098C92.9143 154.14 102.288 167.635 110.596 177.233C121.105 189.376 134.834 194.94 134.834 194.94C145.231 194.497 163.383 188.323 169.975 195.645C185.842 213.27 207.418 256.084 145.697 264.222Z" stroke="#202020" stroke-width="2.4" stroke-linecap="round" stroke-linejoin="round"/>
<path d="M63.5291 146.584L60.3264 146.906C57.5601 147.183 55.6595 149.816 56.2653 152.529C64.8929 191.165 74.0813 233.704 82.7067 272.322C83.3061 275.005 85.9638 276.695 88.6484 276.104L91.9764 275.398L63.5291 146.584Z" fill="white"/>
<path d="M63.5291 146.584L60.3264 146.906C57.5601 147.183 55.6595 149.816 56.2653 152.529C64.8929 191.165 74.0813 233.704 82.7067 272.322C83.3061 275.005 85.9638 276.695 88.6484 276.104L91.9764 275.398L63.5291 146.584Z" stroke="#202020" stroke-width="2.4" stroke-linecap="round" stroke-linejoin="round"/>
<path d="M83.452 236.958C86.3324 250.041 89.1883 262.947 91.978 275.398C108.516 271.472 118.671 269.782 130.942 267.346C126.332 248.232 106.975 231.888 83.452 236.958Z" fill="white"/>
<path d="M83.452 236.958C86.3324 250.041 89.1883 262.947 91.978 275.398C108.516 271.472 118.671 269.782 130.942 267.346C126.332 248.232 106.975 231.888 83.452 236.958Z" stroke="#202020" stroke-width="2.4" stroke-linecap="round" stroke-linejoin="round"/>
<mask id="mask1_550_3" style="mask-type:alpha" maskUnits="userSpaceOnUse" x="54" y="144" width="135" height="134">
<path d="M145.697 264.222C125.25 268.846 114.575 270.034 91.978 275.398C82.7251 234.107 72.759 187.835 63.506 146.542C63.506 146.542 75.0865 144.057 84.0004 149.098C92.9143 154.14 102.288 167.635 110.596 177.233C121.105 189.376 134.834 194.94 134.834 194.94C145.231 194.497 163.383 188.323 169.975 195.645C185.842 213.27 207.418 256.084 145.697 264.222Z" fill="#EE4878"/>
<path d="M145.697 264.222C125.25 268.846 114.575 270.034 91.978 275.398C82.7251 234.107 72.759 187.835 63.506 146.542C63.506 146.542 75.0865 144.057 84.0004 149.098C92.9143 154.14 102.288 167.635 110.596 177.233C121.105 189.376 134.834 194.94 134.834 194.94C145.231 194.497 163.383 188.323 169.975 195.645C185.842 213.27 207.418 256.084 145.697 264.222Z" stroke="#231F20" stroke-width="2.4" stroke-linecap="round" stroke-linejoin="round"/>
<path d="M63.5291 146.584L60.3264 146.906C57.5601 147.183 55.6595 149.816 56.2653 152.529C64.8929 191.165 74.0813 233.704 82.7067 272.322C83.3061 275.005 85.9638 276.695 88.6484 276.104L91.9764 275.398L63.5291 146.584Z" fill="white"/>
<path d="M63.5291 146.584L60.3264 146.906C57.5601 147.183 55.6595 149.816 56.2653 152.529C64.8929 191.165 74.0813 233.704 82.7067 272.322C83.3061 275.005 85.9638 276.695 88.6484 276.104L91.9764 275.398L63.5291 146.584Z" stroke="#231F20" stroke-width="2.4" stroke-linecap="round" stroke-linejoin="round"/>
<path d="M83.452 236.958C86.3324 250.041 89.1883 262.947 91.978 275.398C108.516 271.472 118.671 269.782 130.942 267.346C126.332 248.232 106.975 231.888 83.452 236.958Z" fill="#F7B3C7"/>
<path d="M83.452 236.958C86.3324 250.041 89.1883 262.947 91.978 275.398C108.516 271.472 118.671 269.782 130.942 267.346C126.332 248.232 106.975 231.888 83.452 236.958Z" stroke="#231F20" stroke-width="2.4" stroke-linecap="round" stroke-linejoin="round"/>
</mask>
<g mask="url(#mask1_550_3)">
<path d="M124.411 286.206C124.411 286.206 125.488 290.907 129.119 290.194C132.749 289.48 167.884 272.073 167.884 272.073C167.884 272.073 172.842 298.218 186.869 294.231C198.5 290.924 317.93 261.778 317.93 261.778C317.93 261.778 200.383 267.67 171.676 250.277L118.396 272.983L124.411 286.206Z" fill="#202020"/>
</g>
<path d="M282.1 266.305C268.97 268.944 222.66 277.804 175.134 281.569C166.716 282.235 158.26 282.742 149.943 283.027C149.943 283.027 163.552 261.236 139.876 193.441C139.876 193.441 141.074 193.144 143.246 192.615C162.444 187.934 258.321 167.456 275.115 170.297" fill="white"/>
<path d="M282.1 266.305C268.97 268.944 222.66 277.804 175.134 281.569C166.716 282.235 158.26 282.742 149.943 283.027C149.943 283.027 163.552 261.236 139.876 193.441C139.876 193.441 141.074 193.144 143.246 192.615C162.444 187.934 258.321 167.456 275.115 170.297" stroke="#202020" stroke-width="2.4" stroke-linecap="round" stroke-linejoin="round"/>
<mask id="mask2_550_3" style="mask-type:alpha" maskUnits="userSpaceOnUse" x="138" y="168" width="146" height="117">
<path d="M282.1 266.305C268.97 268.944 222.66 277.804 175.134 281.569C166.716 282.235 158.26 282.742 149.943 283.027C149.943 283.027 163.552 261.236 139.876 193.441C139.876 193.441 141.074 193.144 143.246 192.615C162.444 187.934 258.321 167.456 275.115 170.297" fill="#7248EE"/>
<path d="M282.1 266.305C268.97 268.944 222.66 277.804 175.134 281.569C166.716 282.235 158.26 282.742 149.943 283.027C149.943 283.027 163.552 261.236 139.876 193.441C139.876 193.441 141.074 193.144 143.246 192.615C162.444 187.934 258.321 167.456 275.115 170.297" stroke="#231F20" stroke-width="2.4" stroke-linecap="round" stroke-linejoin="round"/>
</mask>
<g mask="url(#mask2_550_3)">
<path d="M124.409 286.206C124.409 286.206 125.486 290.907 129.117 290.194C132.747 289.48 167.882 272.073 167.882 272.073C167.882 272.073 172.84 298.218 186.867 294.231C198.498 290.924 317.928 261.778 317.928 261.778C317.928 261.778 200.381 267.67 171.674 250.277L118.394 272.983L124.409 286.206Z" fill="#202020"/>
</g>
<path d="M399.829 92.6475C418.889 91.0173 434.229 94.5093 447.245 91.4531C460.261 88.3968 502.03 88.5928 526.9 90.0614C533.985 90.4827 531.829 128.421 527.49 167.656C522.961 208.622 516.054 251.002 514.805 253.564C509.323 270.16 468.091 259.357 430.839 253.739C377.952 245.764 345.812 212.161 345.812 212.161C351.58 197.62 377.554 147.512 377.554 147.512" fill="#682EC6"/>
<path d="M399.829 92.6475C418.889 91.0173 434.229 94.5093 447.245 91.4531C460.261 88.3968 502.03 88.5928 526.9 90.0614C533.985 90.4827 531.829 128.421 527.49 167.656C522.961 208.622 516.054 251.002 514.805 253.564C509.323 270.16 468.091 259.357 430.839 253.739C377.952 245.764 345.812 212.161 345.812 212.161C351.58 197.62 377.554 147.512 377.554 147.512" stroke="#202020" stroke-width="2.4" stroke-linecap="round" stroke-linejoin="round"/>
<path d="M472.955 160.229L432.118 153.838L433.381 145.775L474.217 152.166L472.955 160.229Z" fill="white"/>
<path d="M472.955 160.229L432.118 153.838L433.381 145.775L474.217 152.166L472.955 160.229Z" stroke="#202020" stroke-width="2.4" stroke-linecap="round" stroke-linejoin="round"/>
<path d="M426.4 62.5L426.422 62.4963C425.39 53.6935 431.433 45.5455 440.27 44.0876C449.106 42.6298 457.445 48.4062 459.296 57.074L459.317 57.0703L469.316 90.1855C469.316 90.1855 448.287 99.3654 433.371 100.891C428.132 101.428 427.634 99.0452 427.634 99.0452L426.4 62.5Z" fill="white"/>
<path d="M426.4 62.5L426.422 62.4963C425.39 53.6935 431.433 45.5455 440.27 44.0876C449.106 42.6298 457.445 48.4062 459.296 57.074L459.317 57.0703L469.316 90.1855C469.316 90.1855 448.287 99.3654 433.371 100.891C428.132 101.428 427.634 99.0452 427.634 99.0452L426.4 62.5Z" stroke="#202020" stroke-width="2.4" stroke-linecap="round" stroke-linejoin="round"/>
<path d="M462.539 69.3415C446.032 70.8341 442.608 57.9894 442.608 57.9894C426.568 63.1746 419.792 51.918 419.792 51.918C419.792 51.918 426.874 52.736 432.185 47.8029C441.233 39.4002 455.619 44.9046 458.543 54.5459C461.466 64.1871 462.539 69.3415 462.539 69.3415Z" fill="#202020"/>
<path d="M462.539 69.3415C446.032 70.8341 442.608 57.9894 442.608 57.9894C426.568 63.1746 419.792 51.918 419.792 51.918C419.792 51.918 426.874 52.736 432.185 47.8029C441.233 39.4002 455.619 44.9046 458.543 54.5459C461.466 64.1871 462.539 69.3415 462.539 69.3415Z" stroke="#202020" stroke-width="2.4" stroke-linecap="round" stroke-linejoin="round"/>
<path d="M426.912 75.1949C426.912 75.1949 430.762 77.6915 439.044 73.4751" stroke="#202020" stroke-width="2.4" stroke-linecap="round" stroke-linejoin="round"/>
<path d="M431.906 68.1751C431.906 68.1751 436.287 63.741 440.189 67.8231" stroke="#202020" stroke-width="2.4" stroke-linecap="round" stroke-linejoin="round"/>
<path d="M433.369 100.891C433.369 100.891 458.193 93.0051 467.231 80.1606C467.231 80.1606 472.945 81.5811 475.47 84.7854C476.028 85.4937 475.637 86.7447 474.503 88.3351C469.835 94.8856 452.581 107.183 437.276 110.919L433.369 100.891L422.945 108.701C422.945 108.701 409.373 90.0794 427.166 85.221C427.166 85.221 426.36 95.7058 433.369 100.891Z" fill="white"/>
<path d="M433.369 100.891C433.369 100.891 458.193 93.0051 467.231 80.1606C467.231 80.1606 472.945 81.5811 475.47 84.7854C476.028 85.4937 475.637 86.7447 474.503 88.3351C469.835 94.8856 452.581 107.183 437.276 110.919L433.369 100.891ZM433.369 100.891L422.945 108.701C422.945 108.701 409.373 90.0794 427.166 85.221C427.166 85.221 426.36 95.7058 433.369 100.891Z" stroke="#202020" stroke-width="2.4" stroke-linecap="round" stroke-linejoin="round"/>
<path d="M319.16 166.478C365.857 181.32 392.401 197 430.121 217.804C466.366 237.796 510.058 240.295 514.062 268.665C522.801 330.6 481.074 333.766 440.738 333.766C400.401 333.766 291.669 264.616 291.669 264.616C279.177 265.027 257.491 225.351 267.525 194.09C275.387 169.599 297.924 159.729 319.16 166.478Z" fill="white"/>
<path d="M319.16 166.478C365.857 181.32 392.401 197 430.121 217.804C466.366 237.796 510.058 240.295 514.062 268.665C522.801 330.6 481.074 333.766 440.738 333.766C400.401 333.766 291.669 264.616 291.669 264.616C279.177 265.027 257.491 225.351 267.525 194.09C275.387 169.599 297.924 159.729 319.16 166.478Z" stroke="#202020" stroke-width="2.4" stroke-linecap="round" stroke-linejoin="round"/>
<path d="M179.049 235.864C185.432 263.901 179.138 280.55 172.845 280.806C165.99 281.084 161.739 252.6 159.189 236.634C155.722 214.933 149.798 187.406 161.93 187.062C170.784 186.811 170.338 197.6 179.049 235.864Z" fill="white"/>
<path d="M179.049 235.864C185.432 263.901 179.138 280.55 172.845 280.806C165.99 281.084 161.739 252.6 159.189 236.634C155.722 214.933 149.798 187.406 161.93 187.062C170.784 186.811 170.338 197.6 179.049 235.864Z" stroke="#202020" stroke-width="2.4" stroke-linecap="round" stroke-linejoin="round"/>
<path d="M169.688 262.147C149.233 266.734 138.555 267.903 115.949 273.227C106.77 231.919 96.8863 185.629 87.7069 144.32C87.7069 144.32 99.2917 141.856 108.197 146.913C117.102 151.97 126.452 165.482 134.742 175.095C145.229 187.257 158.953 190.444 158.953 190.444C166.259 190.146 193.745 187.75 199.357 191.851C220.96 207.638 238.337 263.278 169.688 262.147Z" fill="#682EC6"/>
<path d="M169.688 262.147C149.233 266.734 138.555 267.903 115.949 273.227C106.77 231.919 96.8863 185.629 87.7069 144.32C87.7069 144.32 99.2917 141.856 108.197 146.913C117.102 151.97 126.452 165.482 134.742 175.095C145.229 187.257 158.953 190.444 158.953 190.444C166.259 190.146 193.745 187.75 199.357 191.851C220.96 207.638 238.337 263.278 169.688 262.147Z" stroke="#202020" stroke-width="2.4" stroke-linecap="round" stroke-linejoin="round"/>
<path d="M87.7313 144.363L84.528 144.679C81.7612 144.951 79.856 147.58 80.4569 150.294C89.0158 188.946 98.1284 231.501 106.685 270.134C107.28 272.818 109.934 274.513 112.62 273.926L115.949 273.227L87.7313 144.363Z" fill="white"/>
<path d="M87.7313 144.363L84.528 144.679C81.7612 144.951 79.856 147.58 80.4569 150.294C89.0158 188.946 98.1284 231.501 106.685 270.134C107.28 272.818 109.934 274.513 112.62 273.926L115.949 273.227L87.7313 144.363Z" stroke="#202020" stroke-width="2.4" stroke-linecap="round" stroke-linejoin="round"/>
<path d="M107.493 234.772C110.35 247.859 113.183 260.771 115.951 273.226C132.495 269.33 142.654 267.658 154.929 265.244C150.353 246.122 131.025 229.744 107.493 234.772Z" fill="white"/>
<path d="M107.493 234.772C110.35 247.859 113.183 260.771 115.951 273.226C132.495 269.33 142.654 267.658 154.929 265.244C150.353 246.122 131.025 229.744 107.493 234.772Z" stroke="#202020" stroke-width="2.4" stroke-linecap="round" stroke-linejoin="round"/>
<path d="M303.177 265.046C283.981 268.781 226.18 279.265 173.904 280.958C173.904 280.958 185.16 254.387 161.605 186.551C161.605 186.551 181.749 182.519 206.729 178.006C242.309 171.578 291.901 165.4 303.481 164.651" fill="white"/>
<path d="M303.177 265.046C283.981 268.781 226.18 279.265 173.904 280.958C173.904 280.958 185.16 254.387 161.605 186.551C161.605 186.551 181.749 182.519 206.729 178.006C242.309 171.578 291.901 165.4 303.481 164.651" stroke="#202020" stroke-width="2.4" stroke-linecap="round" stroke-linejoin="round"/>
<path d="M313.451 166.4C310.401 165.2 288.352 167.95 288.352 167.95C288.352 167.95 318.401 198.2 310.801 224.2C303.621 248.762 293.194 262.41 296.371 262.507C302.701 262.7 311.601 270.1 311.601 270.1C311.601 270.1 345.801 248.8 346.801 211C347.801 173.2 319.921 168.946 313.451 166.4Z" fill="white"/>
<mask id="mask3_550_3" style="mask-type:alpha" maskUnits="userSpaceOnUse" x="263" y="163" width="254" height="172">
<path d="M319.16 166.478C365.857 181.32 392.401 197 430.121 217.804C466.366 237.796 510.058 240.295 514.062 268.665C522.801 330.6 481.074 333.766 440.738 333.766C400.401 333.766 291.669 264.616 291.669 264.616C279.177 265.027 257.491 225.351 267.525 194.09C275.387 169.599 297.924 159.729 319.16 166.478Z" fill="#7248EE"/>
<path d="M319.16 166.478C365.857 181.32 392.401 197 430.121 217.804C466.366 237.796 510.058 240.295 514.062 268.665C522.801 330.6 481.074 333.766 440.738 333.766C400.401 333.766 291.669 264.616 291.669 264.616C279.177 265.027 257.491 225.351 267.525 194.09C275.387 169.599 297.924 159.729 319.16 166.478Z" stroke="#231F20" stroke-width="2.4" stroke-linecap="round" stroke-linejoin="round"/>
</mask>
<g mask="url(#mask3_550_3)">
<path d="M351.227 213.506C351.227 213.506 391.777 240.088 452.896 263.663C516.749 288.292 539.121 241.976 539.121 241.976C539.121 241.976 510.752 253.534 466.61 248.377C435.861 244.785 408.789 230.854 390.902 225.241C373.331 219.728 351.227 213.506 351.227 213.506Z" fill="#202020"/>
</g>
<path d="M574.997 185.297C574.411 189.921 554.824 191.243 531.25 188.252C507.676 185.262 489.041 179.09 489.627 174.466C490.213 169.843 509.8 168.521 533.374 171.511C556.948 174.502 575.583 180.674 574.997 185.297Z" fill="#202020"/>
<path d="M30.1465 280.307H268.31V323.813H30.1465V280.307Z" fill="white"/>
<path d="M30.1465 280.307H268.31V323.813H30.1465V280.307Z" stroke="#202020" stroke-width="2.4" stroke-linecap="round" stroke-linejoin="round"/>
<path d="M296.298 280.306H1.90625V263.49H296.298V280.306Z" fill="white"/>
<path d="M296.298 280.306H1.90625V263.49H296.298V280.306Z" stroke="#202020" stroke-width="2.4" stroke-linecap="round" stroke-linejoin="round"/>
<path d="M268.311 503.309V280.546H285.127V503.309H268.311Z" fill="white"/>
<path d="M268.311 503.309V280.546H285.127V503.309H268.311Z" stroke="#202020" stroke-width="2.4" stroke-linecap="round" stroke-linejoin="round"/>
<path d="M13.1094 503.309V280.546H29.9254V503.309H13.1094Z" fill="white"/>
<path d="M13.1094 503.309V280.546H29.9254V503.309H13.1094Z" stroke="#202020" stroke-width="2.4" stroke-linecap="round" stroke-linejoin="round"/>
<path d="M13.0781 279.507H285.126V284.528H13.0781V279.507Z" fill="#202020"/>
<path d="M149.102 323.813V283.534" stroke="#202020" stroke-width="2.4" stroke-linecap="round" stroke-linejoin="round"/>
<path d="M195.621 301.84H221.807V295.198H195.621V301.84Z" fill="white"/>
<path d="M195.621 301.84H221.807V295.198H195.621V301.84Z" stroke="#202020" stroke-width="2.4" stroke-linecap="round" stroke-linejoin="round"/>
<path d="M76.4219 301.84H102.607V295.198H76.4219V301.84Z" fill="white"/>
<path d="M76.4219 301.84H102.607V295.198H76.4219V301.84Z" stroke="#202020" stroke-width="2.4" stroke-linecap="round" stroke-linejoin="round"/>
<path d="M324.84 104.702C323.15 108.397 331.145 114.791 332.719 131.546C333.261 135.948 335.135 113.769 333.091 108.798C331.229 104.15 326.406 101.278 324.84 104.702Z" fill="white"/>
<path d="M324.84 104.702C323.15 108.397 331.145 114.791 332.719 131.546C333.261 135.948 335.135 113.769 333.091 108.798C331.229 104.15 326.406 101.278 324.84 104.702Z" stroke="#202020" stroke-width="2"/>
<path d="M337.778 170.7L351.806 140.131L357.263 138.106L387.833 152.133L389.858 157.591L375.83 188.16L370.373 190.184L339.803 176.157L337.778 170.7ZM380.659 157.898L357.571 147.304L346.977 170.392L370.065 180.987L380.659 157.898Z" fill="white"/>
<path d="M337.778 170.7L351.806 140.131L357.263 138.106L387.833 152.133L389.858 157.591L375.83 188.16L370.373 190.184L339.803 176.157L337.778 170.7ZM380.659 157.898L357.571 147.304L346.977 170.392L370.065 180.987L380.659 157.898Z" stroke="#202020" stroke-width="2.4" stroke-linecap="round" stroke-linejoin="round"/>
<path d="M321.683 112.159L299.076 161.43C294.957 170.408 298.93 181.123 307.908 185.242L329.743 195.262C338.721 199.381 349.437 195.406 353.556 186.429L376.164 137.157L321.683 112.159Z" fill="white"/>
<path d="M321.683 112.159L299.076 161.43C294.957 170.408 298.93 181.123 307.908 185.242L329.743 195.262C338.721 199.381 349.437 195.406 353.556 186.429L376.164 137.157L321.683 112.159Z" stroke="#202020" stroke-width="2.4" stroke-linecap="round" stroke-linejoin="round"/>
<path d="M407.559 161.936C392.239 158.221 389.235 170.509 383.026 198.907C376.882 227.014 377.721 230.505 389.913 233.981C447.973 251.104 489.182 263.661 509.106 258.773C545.573 249.826 516.258 176.082 480.446 174.675C455.289 173.474 423.682 165.658 407.559 161.936Z" fill="white"/>
<path d="M407.559 161.936C392.239 158.221 389.235 170.509 383.026 198.907C376.882 227.014 377.721 230.505 389.913 233.981C447.973 251.104 489.182 263.661 509.106 258.773C545.573 249.826 516.258 176.082 480.446 174.675C455.289 173.474 423.682 165.658 407.559 161.936Z" stroke="#202020" stroke-width="2.4" stroke-linecap="round" stroke-linejoin="round"/>
<path d="M512.759 257.573C522.476 253.531 529.13 247.165 536.7 238.056C551.499 220.247 563.65 196.413 568.729 177.483C576.47 145.654 518.544 127.257 503.249 145.33C487.602 161.331 472.447 181.685 472.447 181.685" fill="white"/>
<path d="M512.759 257.573C522.476 253.531 529.13 247.165 536.7 238.056C551.499 220.247 563.65 196.413 568.729 177.483C576.47 145.654 518.544 127.257 503.249 145.33C487.602 161.331 472.447 181.685 472.447 181.685" stroke="#202020" stroke-width="2.4" stroke-linecap="round" stroke-linejoin="round"/>
<path d="M408.011 161.679C395.706 158.737 376.953 155.482 371.644 154.818C355.79 152.833 348.973 165.53 346.854 178.959C343.655 199.234 338.912 223.319 354.524 225.3C363.159 226.527 376.978 230.968 387.604 233.411" fill="white"/>
<path d="M408.011 161.679C395.706 158.737 376.953 155.482 371.644 154.818C355.79 152.833 348.973 165.53 346.854 178.959C343.655 199.234 338.912 223.319 354.524 225.3C363.159 226.527 376.978 230.968 387.604 233.411" stroke="#202020" stroke-width="2.4" stroke-linecap="round" stroke-linejoin="round"/>
<path d="M345.12 205.071C340.283 205.833 332.585 203.047 330.47 202.876C326.402 202.548 323.433 205.561 322.462 210.136C321.441 214.949 324.885 218.017 328.307 219.248C332.589 220.787 349.066 224.489 353.865 225.133" fill="white"/>
<path d="M345.12 205.071C340.283 205.833 332.585 203.047 330.47 202.876C326.402 202.548 323.433 205.561 322.462 210.136C321.441 214.949 324.885 218.017 328.307 219.248C332.589 220.787 349.066 224.489 353.865 225.133" stroke="#202020" stroke-width="2.4" stroke-linecap="round" stroke-linejoin="round"/>
<path d="M352.579 187.811C349.919 187.211 323.039 180.226 323.039 180.226C319.714 179.646 316.736 181.356 315.45 186.382C314.359 190.65 316.532 193.781 319.579 195.254C321.743 196.301 342.959 204.317 345.262 204.651" fill="white"/>
<path d="M352.579 187.811C349.919 187.211 323.039 180.226 323.039 180.226C319.714 179.646 316.736 181.356 315.45 186.382C314.359 190.65 316.532 193.781 319.579 195.254C321.743 196.301 342.959 204.317 345.262 204.651" stroke="#202020" stroke-width="2.4" stroke-linecap="round" stroke-linejoin="round"/>
<path d="M357.829 171.168C357.829 171.168 330.315 162.828 327.022 161.853C321.694 160.276 316.975 162.638 315.681 167.472C314.473 171.984 315.493 177.119 319.508 178.736C319.508 178.736 349.487 187.149 352.578 187.81" fill="white"/>
<path d="M357.829 171.168C357.829 171.168 330.315 162.828 327.022 161.853C321.694 160.276 316.975 162.638 315.681 167.472C314.473 171.984 315.493 177.119 319.508 178.736C319.508 178.736 349.487 187.149 352.578 187.81" stroke="#202020" stroke-width="2.4" stroke-linecap="round" stroke-linejoin="round"/>
<path d="M371.644 154.818C364.098 154.294 339.183 146.791 339.183 146.791C334.579 145.948 329.642 147.605 328.026 152.558C326.611 156.898 327.678 160.594 329.126 162.136C333.669 164.408 357.83 171.169 357.83 171.169" fill="white"/>
<path d="M371.644 154.818C364.098 154.294 339.183 146.791 339.183 146.791C334.579 145.948 329.642 147.605 328.026 152.558C326.611 156.898 327.678 160.594 329.126 162.136C333.669 164.408 357.83 171.169 357.83 171.169" stroke="#202020" stroke-width="2.4" stroke-linecap="round" stroke-linejoin="round"/>
<path d="M525.96 89.8714C533.302 91.4413 540.579 93.7199 544.281 95.5841C576.591 111.856 573.797 185.046 573.797 185.046C573.623 181.653 563.307 177.643 536.703 177.121C495.437 176.311 484.532 162.675 484.532 162.675L497.886 142.254" fill="#682EC6"/>
<path d="M525.96 89.8714C533.302 91.4413 540.579 93.7199 544.281 95.5841C576.591 111.856 573.797 185.046 573.797 185.046C573.623 181.653 563.307 177.643 536.703 177.121C495.437 176.311 484.532 162.675 484.532 162.675L497.886 142.254" stroke="#202020" stroke-width="2.4" stroke-linecap="round" stroke-linejoin="round"/>
<path d="M61.4567 311.951L14.5769 305.271C13.2011 305.085 11.9229 306.059 11.7373 307.435L11.6845 307.825C11.4988 309.201 12.4737 310.479 13.8495 310.664L60.7292 317.344C62.105 317.53 63.3832 316.555 63.5689 315.18L63.6217 314.79C63.8073 313.414 62.8325 312.136 61.4567 311.951Z" fill="white"/>
<path d="M61.4567 311.951L14.5769 305.271C13.2011 305.085 11.9229 306.059 11.7373 307.435L11.6845 307.825C11.4988 309.201 12.4737 310.479 13.8495 310.664L60.7292 317.344C62.105 317.53 63.3832 316.555 63.5689 315.18L63.6217 314.79C63.8073 313.414 62.8325 312.136 61.4567 311.951Z" stroke="#202020" stroke-width="2.4" stroke-linecap="round" stroke-linejoin="round"/>
<path d="M578.46 71.8798L531.65 64.723C530.276 64.5234 528.988 65.4846 528.789 66.8584L528.732 67.2479C528.532 68.6217 529.494 69.9092 530.868 70.1088L577.677 77.2657C579.051 77.4653 580.339 76.5041 580.539 75.1302L580.595 74.7408C580.795 73.3669 579.833 72.0795 578.46 71.8798Z" fill="white"/>
<path d="M578.46 71.8798L531.65 64.723C530.276 64.5234 528.988 65.4846 528.789 66.8584L528.732 67.2479C528.532 68.6217 529.494 69.9092 530.868 70.1088L577.677 77.2657C579.051 77.4653 580.339 76.5041 580.539 75.1302L580.595 74.7408C580.795 73.3669 579.833 72.0795 578.46 71.8798Z" stroke="#202020" stroke-width="2.4" stroke-linecap="round" stroke-linejoin="round"/>
<path d="M214.223 409.584L252.183 369.958L273.229 401.915L236.589 444.164L214.223 409.584Z" fill="white"/>
<path d="M214.223 409.584L252.183 369.958L273.229 401.915L236.589 444.164L214.223 409.584Z" stroke="#202020" stroke-width="2.4" stroke-linecap="round" stroke-linejoin="round"/>
<path d="M209.427 378.884L253.138 415.676L234.685 446.359L189.029 408.662L209.427 378.884Z" fill="white"/>
<path d="M209.427 378.884L253.138 415.676L234.685 446.359L189.029 408.662L209.427 378.884Z" stroke="#202020" stroke-width="2.4" stroke-linecap="round" stroke-linejoin="round"/>
<path d="M194.498 502.889H269.421L276.401 410.867H187.518L194.498 502.889Z" fill="white"/>
<path d="M194.498 502.889H269.421L276.401 410.867H187.518L194.498 502.889Z" stroke="#202020" stroke-width="2.4" stroke-linecap="round" stroke-linejoin="round"/>
<path d="M211.962 502.889H251.957L255.683 410.867H208.236L211.962 502.889Z" stroke="#202020" stroke-width="2.4" stroke-linecap="round" stroke-linejoin="round"/>
<path d="M274.46 411.849H189.46C186.72 411.849 184.479 409.607 184.479 406.867C184.479 404.127 186.72 401.886 189.46 401.886H274.46C277.2 401.886 279.442 404.127 279.442 406.867C279.442 409.607 277.2 411.849 274.46 411.849Z" fill="#202020"/>
<path d="M274.46 411.849H189.46C186.72 411.849 184.479 409.607 184.479 406.867C184.479 404.127 186.72 401.886 189.46 401.886H274.46C277.2 401.886 279.442 404.127 279.442 406.867C279.442 409.607 277.2 411.849 274.46 411.849Z" stroke="#202020" stroke-width="2.4" stroke-linecap="round" stroke-linejoin="round"/>
<path d="M231.961 502.889V412.649" stroke="#202020" stroke-width="2.4" stroke-linecap="round" stroke-linejoin="round"/>
<path d="M193.932 484.869H270.576" stroke="#202020" stroke-width="2.4" stroke-linecap="round" stroke-linejoin="round"/>
<path d="M192.297 464.904H270.542" stroke="#202020" stroke-width="2.4" stroke-linecap="round" stroke-linejoin="round"/>
<path d="M190.664 444.939H272.109" stroke="#202020" stroke-width="2.4" stroke-linecap="round" stroke-linejoin="round"/>
<path d="M189.029 424.974H274.474" stroke="#202020" stroke-width="2.4" stroke-linecap="round" stroke-linejoin="round"/>
<path d="M567.443 412.15L563.919 428.017L576.996 437.671L561.128 434.148L551.473 447.224L555.137 431.049L541.92 421.703L557.928 424.919L567.443 412.15Z" fill="white"/>
<path d="M567.443 412.15L563.919 428.017L576.996 437.671L561.128 434.148L551.473 447.224L555.137 431.049L541.92 421.703L557.928 424.919L567.443 412.15Z" stroke="#202020" stroke-width="2.4" stroke-linecap="round" stroke-linejoin="round"/>
<path d="M373.311 398.449L338.588 409.484L363.973 435.879L333.676 415.405L329.061 451.783L326.006 415.216L294.866 434.183L321.352 409.06L287.137 396.334L323.219 401.572L311.693 366.736L330.202 398.391L350.045 367.677L337.041 401.912L373.311 398.449Z" fill="white"/>
<path d="M373.311 398.449L338.588 409.484L363.973 435.879L333.676 415.405L329.061 451.783L326.006 415.216L294.866 434.183L321.352 409.06L287.137 396.334L323.219 401.572L311.693 366.736L330.202 398.391L350.045 367.677L337.041 401.912L373.311 398.449Z" stroke="#202020" stroke-width="2.4" stroke-linecap="round" stroke-linejoin="round"/>
<path d="M490.186 18.3722C490.186 15.9906 488.256 14.0602 485.874 14.0602C483.493 14.0602 481.562 15.9906 481.562 18.3722C481.562 20.7538 483.493 22.6842 485.874 22.6842C488.256 22.6842 490.186 20.7538 490.186 18.3722Z" fill="white"/>
<path d="M490.186 18.3722C490.186 15.9906 488.256 14.0602 485.874 14.0602C483.493 14.0602 481.562 15.9906 481.562 18.3722C481.562 20.7538 483.493 22.6842 485.874 22.6842C488.256 22.6842 490.186 20.7538 490.186 18.3722Z" stroke="#202020" stroke-width="2.4" stroke-linecap="round" stroke-linejoin="round"/>
<path d="M109.381 45.9402C109.381 49.3234 112.124 52.0666 115.507 52.0666C118.89 52.0666 121.634 49.3234 121.634 45.9402C121.634 42.557 118.89 39.8138 115.507 39.8138C112.124 39.8138 109.381 42.557 109.381 45.9402Z" fill="white"/>
<path d="M109.381 45.9402C109.381 49.3234 112.124 52.0666 115.507 52.0666C118.89 52.0666 121.634 49.3234 121.634 45.9402C121.634 42.557 118.89 39.8138 115.507 39.8138C112.124 39.8138 109.381 42.557 109.381 45.9402Z" stroke="#202020" stroke-width="2.4" stroke-linecap="round" stroke-linejoin="round"/>
<path d="M101.468 423.911L37.9967 422.016C36.1352 421.975 34.5777 423.464 34.536 425.326L34.5243 425.852C34.4826 427.714 35.9724 429.271 37.8339 429.312L101.305 431.207C103.166 431.249 104.724 429.759 104.766 427.898L104.777 427.371C104.819 425.509 103.329 423.953 101.468 423.911Z" fill="white"/>
<path d="M101.468 423.911L37.9967 422.016C36.1352 421.975 34.5777 423.464 34.536 425.326L34.5243 425.852C34.4826 427.714 35.9724 429.271 37.8339 429.312L101.305 431.207C103.166 431.249 104.724 429.759 104.766 427.898L104.777 427.371C104.819 425.509 103.329 423.953 101.468 423.911Z" stroke="#202020" stroke-width="2.4" stroke-linecap="round" stroke-linejoin="round"/>
<path d="M64.5039 360.937C64.5039 364.32 67.2471 367.063 70.6303 367.063C74.0135 367.063 76.7567 364.32 76.7567 360.937C76.7567 357.554 74.0135 354.81 70.6303 354.81C67.2471 354.81 64.5039 357.554 64.5039 360.937Z" fill="white"/>
<path d="M64.5039 360.937C64.5039 364.32 67.2471 367.063 70.6303 367.063C74.0135 367.063 76.7567 364.32 76.7567 360.937C76.7567 357.554 74.0135 354.81 70.6303 354.81C67.2471 354.81 64.5039 357.554 64.5039 360.937Z" stroke="#202020" stroke-width="2.4" stroke-linecap="round" stroke-linejoin="round"/>
</g>
<defs>
<clipPath id="clip0_550_3">
<rect width="582" height="508" fill="white"/>
</clipPath>
</defs>
</svg>
