<svg width="676" height="460" viewBox="0 0 676 460" fill="none" xmlns="http://www.w3.org/2000/svg">
<g clip-path="url(#clip0_550_401)">
<path d="M229.988 27.7661L174.574 27.8501C172.632 27.8531 171.055 26.2811 171.052 24.3395C171.049 22.3979 172.621 20.8211 174.563 20.8182L229.977 20.7341C231.919 20.7311 233.496 22.3031 233.499 24.2447C233.501 26.1863 231.929 27.7631 229.988 27.7661Z" fill="white"/>
<path d="M229.988 27.7661L174.574 27.8501C172.632 27.8531 171.055 26.2811 171.052 24.3395C171.049 22.3979 172.621 20.8211 174.563 20.8182L229.977 20.7341C231.919 20.7311 233.496 22.3031 233.499 24.2447C233.501 26.1863 231.929 27.7631 229.988 27.7661Z" stroke="#202020" stroke-width="2.4" stroke-linecap="round" stroke-linejoin="round"/>
<path d="M613.427 257.09L657.526 291.435C659.061 292.63 659.336 294.843 658.141 296.377C656.946 297.912 654.733 298.187 653.199 296.992L609.099 262.646C607.565 261.451 607.29 259.239 608.485 257.704C609.68 256.17 611.892 255.895 613.427 257.09Z" fill="white"/>
<path d="M613.427 257.09L657.526 291.435C659.061 292.63 659.336 294.843 658.141 296.377C656.946 297.912 654.733 298.187 653.199 296.992L609.099 262.646C607.565 261.451 607.29 259.239 608.485 257.704C609.68 256.17 611.892 255.895 613.427 257.09Z" stroke="#202020" stroke-width="2.4" stroke-linecap="round" stroke-linejoin="round"/>
<path d="M630.554 126.72C630.554 123.205 627.705 120.356 624.19 120.356C620.675 120.356 617.826 123.205 617.826 126.72C617.826 130.235 620.675 133.084 624.19 133.084C627.705 133.084 630.554 130.235 630.554 126.72Z" fill="white"/>
<path d="M630.554 126.72C630.554 123.205 627.705 120.356 624.19 120.356C620.675 120.356 617.826 123.205 617.826 126.72C617.826 130.235 620.675 133.084 624.19 133.084C627.705 133.084 630.554 130.235 630.554 126.72Z" stroke="#202020" stroke-width="2.4" stroke-linecap="round" stroke-linejoin="round"/>
<path d="M118.843 8.83043C118.843 5.31523 115.994 2.46643 112.479 2.46643C108.964 2.46643 106.115 5.31523 106.115 8.83043C106.115 12.3456 108.964 15.1944 112.479 15.1944C115.994 15.1944 118.843 12.3456 118.843 8.83043Z" fill="white"/>
<path d="M118.843 8.83043C118.843 5.31523 115.994 2.46643 112.479 2.46643C108.964 2.46643 106.115 5.31523 106.115 8.83043C106.115 12.3456 108.964 15.1944 112.479 15.1944C115.994 15.1944 118.843 12.3456 118.843 8.83043Z" stroke="#202020" stroke-width="2.4" stroke-linecap="round" stroke-linejoin="round"/>
<path d="M552.594 12.5511C552.594 10.5423 550.966 8.91431 548.957 8.91431C546.948 8.91431 545.32 10.5423 545.32 12.5511C545.32 14.5599 546.948 16.1879 548.957 16.1879C550.966 16.1879 552.594 14.5599 552.594 12.5511Z" fill="white"/>
<path d="M552.594 12.5511C552.594 10.5423 550.966 8.91431 548.957 8.91431C546.948 8.91431 545.32 10.5423 545.32 12.5511C545.32 14.5599 546.948 16.1879 548.957 16.1879C550.966 16.1879 552.594 14.5599 552.594 12.5511Z" stroke="#202020" stroke-width="2.4" stroke-linecap="round" stroke-linejoin="round"/>
<path d="M80.9826 406.949C80.9826 404.94 79.3546 403.312 77.3458 403.312C75.337 403.312 73.709 404.94 73.709 406.949C73.709 408.958 75.337 410.586 77.3458 410.586C79.3546 410.586 80.9826 408.958 80.9826 406.949Z" fill="white"/>
<path d="M80.9826 406.949C80.9826 404.94 79.3546 403.312 77.3458 403.312C75.337 403.312 73.709 404.94 73.709 406.949C73.709 408.958 75.337 410.586 77.3458 410.586C79.3546 410.586 80.9826 408.958 80.9826 406.949Z" stroke="#202020" stroke-width="2.4" stroke-linecap="round" stroke-linejoin="round"/>
<path d="M673.876 444.532C673.876 436.794 583.139 430.522 471.209 430.522C359.28 430.522 268.543 436.794 268.543 444.532C268.543 452.27 359.28 458.542 471.209 458.542C583.139 458.542 673.876 452.27 673.876 444.532Z" fill="#202020"/>
<path d="M673.876 444.532C673.876 436.794 583.139 430.522 471.209 430.522C359.28 430.522 268.543 436.794 268.543 444.532C268.543 452.27 359.28 458.542 471.209 458.542C583.139 458.542 673.876 452.27 673.876 444.532Z" stroke="#202020" stroke-width="2.4" stroke-linecap="round" stroke-linejoin="round"/>
<path d="M384.63 97.4775H210.672V56.8663H384.63V97.4775Z" fill="#682EC6"/>
<path d="M384.63 97.4775H210.672V56.8663H384.63V97.4775Z" stroke="#202020" stroke-width="2.4" stroke-linecap="round" stroke-linejoin="round"/>
<path d="M384.865 385.624H210.906V57.1023H384.865V385.624Z" stroke="#202020" stroke-width="2.4" stroke-linecap="round" stroke-linejoin="round"/>
<path d="M196.886 385.389H22.9277V56.8672H196.886V385.389Z" stroke="#202020" stroke-width="2.4" stroke-linecap="round" stroke-linejoin="round"/>
<path d="M196.886 97.4775H22.9277V56.8663H196.886V97.4775Z" fill="#682EC6"/>
<path d="M196.886 97.4775H22.9277V56.8663H196.886V97.4775Z" stroke="#202020" stroke-width="2.4" stroke-linecap="round" stroke-linejoin="round"/>
<path d="M572.376 385.389H398.418V56.8672H572.376V385.389Z" stroke="#202020" stroke-width="2.4" stroke-linecap="round" stroke-linejoin="round"/>
<path d="M572.376 97.4775H398.418V56.8663H572.376V97.4775Z" fill="#682EC6"/>
<path d="M572.376 97.4775H398.418V56.8663H572.376V97.4775Z" stroke="#202020" stroke-width="2.4" stroke-linecap="round" stroke-linejoin="round"/>
<path d="M558.897 227.189H411.898V178.093H558.897V227.189Z" fill="white"/>
<path d="M558.897 227.189H411.898V178.093H558.897V227.189Z" stroke="#202020" stroke-width="2.4" stroke-linecap="round" stroke-linejoin="round"/>
<path d="M422.966 227.189H411.898V178.093H422.966V227.189Z" fill="#682EC6"/>
<path d="M422.966 227.189H411.898V178.093H422.966V227.189Z" stroke="#202020" stroke-width="2.4" stroke-linecap="round" stroke-linejoin="round"/>
<path d="M558.897 162.939H411.898V113.843H558.897V162.939Z" fill="white"/>
<path d="M558.897 162.939H411.898V113.843H558.897V162.939Z" stroke="#202020" stroke-width="2.4" stroke-linecap="round" stroke-linejoin="round"/>
<path d="M422.966 162.939H411.898V113.843H422.966V162.939Z" fill="#682EC6"/>
<path d="M422.966 162.939H411.898V113.843H422.966V162.939Z" stroke="#202020" stroke-width="2.4" stroke-linecap="round" stroke-linejoin="round"/>
<path d="M432.664 77.172C432.664 70.9792 427.643 65.9584 421.45 65.9584C415.257 65.9584 410.236 70.9792 410.236 77.172C410.236 83.3648 415.257 88.3856 421.45 88.3856C427.643 88.3856 432.664 83.3648 432.664 77.172Z" fill="#202020"/>
<path d="M432.664 77.172C432.664 70.9792 427.643 65.9584 421.45 65.9584C415.257 65.9584 410.236 70.9792 410.236 77.172C410.236 83.3648 415.257 88.3856 421.45 88.3856C427.643 88.3856 432.664 83.3648 432.664 77.172Z" stroke="#202020" stroke-width="2.4" stroke-linecap="round" stroke-linejoin="round"/>
<path d="M448.154 77.172H481.861" stroke="#202020" stroke-width="2.4" stroke-linecap="round" stroke-linejoin="round"/>
<path d="M183.405 162.939H36.4062V113.843H183.405V162.939Z" fill="white"/>
<path d="M183.405 162.939H36.4062V113.843H183.405V162.939Z" stroke="#202020" stroke-width="2.4" stroke-linecap="round" stroke-linejoin="round"/>
<path d="M47.4734 162.939H36.4062V113.843H47.4734V162.939Z" fill="#682EC6"/>
<path d="M47.4734 162.939H36.4062V113.843H47.4734V162.939Z" stroke="#202020" stroke-width="2.4" stroke-linecap="round" stroke-linejoin="round"/>
<path d="M183.405 291.438H36.4062V242.342H183.405V291.438Z" fill="white"/>
<path d="M183.405 291.438H36.4062V242.342H183.405V291.438Z" stroke="#202020" stroke-width="2.4" stroke-linecap="round" stroke-linejoin="round"/>
<path d="M47.4734 291.438H36.4062V242.342H47.4734V291.438Z" fill="#682EC6"/>
<path d="M47.4734 291.438H36.4062V242.342H47.4734V291.438Z" stroke="#202020" stroke-width="2.4" stroke-linecap="round" stroke-linejoin="round"/>
<mask id="mask0_550_401" style="mask-type:alpha" maskUnits="userSpaceOnUse" x="22" y="56" width="175" height="330">
<path d="M196.886 385.389H22.9277V56.8672H196.886V385.389Z" fill="#EE4878"/>
</mask>
<g mask="url(#mask0_550_401)">
<path d="M274.256 162.67L127.161 168.417L125.242 119.628L272.337 113.881L274.256 162.67Z" fill="#202020"/>
<path d="M274.256 162.67L127.161 168.417L125.242 119.628L272.337 113.881L274.256 162.67Z" stroke="#202020" stroke-width="2.4" stroke-linecap="round" stroke-linejoin="round"/>
</g>
<path d="M384.63 97.4775H210.672V56.8663H384.63V97.4775Z" fill="#682EC6"/>
<path d="M384.63 97.4775H210.672V56.8663H384.63V97.4775Z" stroke="#202020" stroke-width="2.4" stroke-linecap="round" stroke-linejoin="round"/>
<path d="M384.865 385.624H210.906V57.1023H384.865V385.624Z" stroke="#202020" stroke-width="2.4" stroke-linecap="round" stroke-linejoin="round"/>
<mask id="mask1_550_401" style="mask-type:alpha" maskUnits="userSpaceOnUse" x="209" y="55" width="178" height="332">
<path d="M384.867 385.624H210.908V57.1024H384.867V385.624Z" stroke="#231F20" stroke-width="2.4" stroke-linecap="round" stroke-linejoin="round"/>
<path d="M384.867 385.624H210.908V57.1024H384.867V385.624Z" fill="#EE4878"/>
</mask>
<g mask="url(#mask1_550_401)">
<path d="M274.256 162.67L127.161 168.417L125.242 119.628L272.337 113.881L274.256 162.67Z" fill="#202020"/>
<path d="M274.256 162.67L127.161 168.417L125.242 119.628L272.337 113.881L274.256 162.67Z" stroke="#202020" stroke-width="2.4" stroke-linecap="round" stroke-linejoin="round"/>
</g>
<path d="M280.22 145.597L133.125 151.344L131.207 102.555L278.302 96.808L280.22 145.597Z" fill="white"/>
<path d="M280.22 145.597L133.125 151.344L131.207 102.555L278.302 96.808L280.22 145.597Z" stroke="#202020" stroke-width="2.4" stroke-linecap="round" stroke-linejoin="round"/>
<path d="M144.763 150.886L133.125 151.344L131.207 102.555L142.844 102.097L144.763 150.886Z" stroke="#202020" stroke-width="2.4" stroke-linecap="round" stroke-linejoin="round"/>
<path d="M168.387 116.242C168.387 116.242 221.292 114.161 232.443 113.723" stroke="#202020" stroke-width="2.4" stroke-linecap="round" stroke-linejoin="round"/>
<path d="M169.164 136.012C169.164 136.012 188.656 135.246 199.488 134.82" stroke="#202020" stroke-width="2.4" stroke-linecap="round" stroke-linejoin="round"/>
<path d="M59.2608 227.868H36.4883V178.772H59.2608V227.868Z" fill="white"/>
<path d="M59.2608 227.868H36.4883V178.772H59.2608V227.868Z" stroke="#202020" stroke-width="2.4" stroke-linecap="round" stroke-linejoin="round"/>
<path d="M38.2149 227.868H36.4883V178.772H38.2149V227.868Z" fill="#682EC6"/>
<path d="M38.2149 227.868H36.4883V178.772H38.2149V227.868Z" stroke="#202020" stroke-width="2.4" stroke-linecap="round" stroke-linejoin="round"/>
<path d="M369.295 226.939H222.297V177.843H369.295V226.939Z" fill="white"/>
<path d="M369.295 226.939H222.297V177.843H369.295V226.939Z" stroke="#202020" stroke-width="2.4" stroke-linecap="round" stroke-linejoin="round"/>
<path d="M233.364 226.939H222.297V177.843H233.364V226.939Z" fill="#682EC6"/>
<path d="M233.364 226.939H222.297V177.843H233.364V226.939Z" stroke="#202020" stroke-width="2.4" stroke-linecap="round" stroke-linejoin="round"/>
<path d="M261.887 193.083H328.042" stroke="#202020" stroke-width="2.4" stroke-linecap="round" stroke-linejoin="round"/>
<path d="M261.887 212.869H299.292" stroke="#202020" stroke-width="2.4" stroke-linecap="round" stroke-linejoin="round"/>
<path d="M55.4171 77.1719C55.4171 71.7817 51.047 67.4116 45.6568 67.4116C40.2666 67.4116 35.8965 71.7817 35.8965 77.1719C35.8965 82.5622 40.2666 86.9323 45.6568 86.9323C51.047 86.9323 55.4171 82.5622 55.4171 77.1719Z" fill="white"/>
<path d="M55.4171 77.1719C55.4171 71.7817 51.047 67.4116 45.6568 67.4116C40.2666 67.4116 35.8965 71.7817 35.8965 77.1719C35.8965 82.5622 40.2666 86.9323 45.6568 86.9323C51.047 86.9323 55.4171 82.5622 55.4171 77.1719Z" stroke="#202020" stroke-width="2.08896" stroke-linecap="round" stroke-linejoin="round"/>
<path d="M72.3613 77.172H160.115" stroke="#202020" stroke-width="2.4" stroke-linecap="round" stroke-linejoin="round"/>
<path d="M244.614 77.1687C244.614 79.7711 243.731 82.1639 242.235 84.0615C240.199 86.6951 236.992 88.3839 233.399 88.3839C227.211 88.3839 222.191 83.3647 222.191 77.1687C222.191 70.9807 227.211 65.9615 233.399 65.9615C239.595 65.9615 244.614 70.9807 244.614 77.1687Z" fill="white"/>
<path d="M244.614 77.1687C244.614 79.7711 243.731 82.1639 242.235 84.0615C240.199 86.6951 236.992 88.3839 233.399 88.3839C227.211 88.3839 222.191 83.3647 222.191 77.1687C222.191 70.9807 227.211 65.9615 233.399 65.9615C239.595 65.9615 244.614 70.9807 244.614 77.1687Z" stroke="#202020" stroke-width="2.4" stroke-linecap="round" stroke-linejoin="round"/>
<path d="M244.57 76.0036C244.84 78.592 244.211 81.0643 242.921 83.1069L233.416 77.1687L232.252 66.0221C238.414 65.3784 243.927 69.8491 244.57 76.0036Z" fill="#202020"/>
<path d="M244.57 76.0036C244.84 78.592 244.211 81.0643 242.921 83.1069L233.416 77.1687L232.252 66.0221C238.414 65.3784 243.927 69.8491 244.57 76.0036Z" stroke="#202020" stroke-width="2.4" stroke-linecap="round" stroke-linejoin="round"/>
<path d="M260.104 77.1688H319.169" stroke="#202020" stroke-width="2.4" stroke-linecap="round" stroke-linejoin="round"/>
<path d="M451.887 253.282L467.258 197.455C476.11 191.306 483.396 192.133 491.967 198.541L498.35 253.768C498.806 265.292 447.75 268.534 451.887 253.282Z" fill="white"/>
<path d="M451.887 253.282L467.258 197.455C476.11 191.306 483.396 192.133 491.967 198.541L498.35 253.768C498.806 265.292 447.75 268.534 451.887 253.282Z" stroke="#202020" stroke-width="2.4" stroke-linecap="round" stroke-linejoin="round"/>
<path d="M472.134 213.29C478.322 214.34 478.824 216.432 480.828 219.128C493.494 218.689 496.659 208.756 495.508 204.094C494.357 199.431 491.049 192.891 479.744 192.967C476.192 190.696 473.206 184.002 466.717 182.301C456.253 179.399 446.363 192.181 448.696 203.497C451.161 214.701 459.405 214.51 465.345 213.043C467.64 212.446 469.206 212.112 472.134 213.29Z" fill="#202020"/>
<path d="M472.134 213.29C478.322 214.34 478.824 216.432 480.828 219.128C493.494 218.689 496.659 208.756 495.508 204.094C494.357 199.431 491.049 192.891 479.744 192.967C476.192 190.696 473.206 184.002 466.717 182.301C456.253 179.399 446.363 192.181 448.696 203.497C451.161 214.701 459.405 214.51 465.345 213.043C467.64 212.446 469.206 212.112 472.134 213.29Z" stroke="#202020" stroke-width="2.4" stroke-linecap="round" stroke-linejoin="round"/>
<path d="M472.111 213.521C472.111 213.521 475.581 207.882 479.401 209.296C483.22 210.71 482.466 217.15 480.375 220.027" fill="white"/>
<path d="M472.111 213.521C472.111 213.521 475.581 207.882 479.401 209.296C483.22 210.71 482.466 217.15 480.375 220.027" stroke="#202020" stroke-width="2.4" stroke-linecap="round" stroke-linejoin="round"/>
<path d="M458.967 227.573C462.079 229.67 465.722 229.596 469.522 227.659" stroke="#202020" stroke-width="2.4" stroke-linecap="round" stroke-linejoin="round"/>
<path d="M459.737 226.578L459.529 226.808C459.529 226.808 459.665 226.542 459.73 226.594C459.634 226.552 459.737 226.578 459.737 226.578Z" fill="white"/>
<path d="M459.737 226.578L459.529 226.808C459.529 226.808 459.665 226.542 459.73 226.594C459.634 226.552 459.737 226.578 459.737 226.578Z" stroke="#202020" stroke-width="2.4" stroke-linecap="round" stroke-linejoin="round"/>
<mask id="mask2_550_401" style="mask-type:alpha" maskUnits="userSpaceOnUse" x="265" y="119" width="411" height="341">
<path d="M673.876 444.532C673.876 436.794 672.28 120.682 469.609 120.922C233.599 121.2 268.543 436.794 268.543 444.532C268.543 452.27 359.28 458.542 471.209 458.542C583.139 458.542 673.876 452.27 673.876 444.532Z" fill="#231F20"/>
<path d="M673.876 444.532C673.876 436.794 672.28 120.682 469.609 120.922C233.599 121.2 268.543 436.794 268.543 444.532C268.543 452.27 359.28 458.542 471.209 458.542C583.139 458.542 673.876 452.27 673.876 444.532Z" stroke="#231F20" stroke-width="2.4" stroke-linecap="round" stroke-linejoin="round"/>
</mask>
<g mask="url(#mask2_550_401)">
<path d="M623.002 462.785C623.273 471.26 631.491 508.26 608.465 512.538C520.021 528.97 312.307 502.574 305.175 480.065C299.969 463.633 309.437 432.076 310.825 427.812C310.825 427.812 327.029 398.209 330.523 383.738C334.017 369.268 316.653 330.626 324.85 294.031C350.377 262.805 359.897 235.692 408.324 242.639L540.481 259.337C556.415 261.237 591.27 282.393 598.278 314.837C598.278 314.837 621.744 423.511 623.002 462.785Z" fill="#682EC6"/>
<path d="M623.002 462.785C623.273 471.26 631.491 508.26 608.465 512.538C520.021 528.97 312.307 502.574 305.175 480.065C299.969 463.633 309.437 432.076 310.825 427.812C310.825 427.812 327.029 398.209 330.523 383.738C334.017 369.268 316.653 330.626 324.85 294.031C350.377 262.805 359.897 235.692 408.324 242.639L540.481 259.337C556.415 261.237 591.27 282.393 598.278 314.837C598.278 314.837 621.744 423.511 623.002 462.785Z" stroke="#202020" stroke-width="2.4" stroke-linecap="round" stroke-linejoin="round"/>
</g>
<path d="M348.557 377.758C338.294 378.832 322.705 373.211 318.385 361.051C310.23 338.092 344.6 339.394 352.728 347.785C360.855 356.176 359.754 376.585 348.557 377.758Z" fill="#202020"/>
<path d="M348.557 377.758C338.294 378.832 322.705 373.211 318.385 361.051C310.23 338.092 344.6 339.394 352.728 347.785C360.855 356.176 359.754 376.585 348.557 377.758Z" stroke="#202020" stroke-width="2.4" stroke-linecap="round" stroke-linejoin="round"/>
<path d="M218.815 194.602C196.156 196.052 177.278 208.579 178.232 226.218C182.274 301.013 202.958 415.775 266.098 395.71C288.383 388.628 300.803 363.684 289.819 322.5C283.48 298.736 281.132 294.277 277.694 280.249C270.009 248.9 268.229 237.131 265.539 218.402C265.539 218.402 257.17 192.148 218.815 194.602Z" fill="white"/>
<path d="M218.815 194.602C196.156 196.052 177.278 208.579 178.232 226.218C182.274 301.013 202.958 415.775 266.098 395.71C288.383 388.628 300.803 363.684 289.819 322.5C283.48 298.736 281.132 294.277 277.694 280.249C270.009 248.9 268.229 237.131 265.539 218.402C265.539 218.402 257.17 192.148 218.815 194.602Z" stroke="#202020" stroke-width="2.4" stroke-linecap="round" stroke-linejoin="round"/>
<path d="M264.856 215.886C263.14 207.553 260.873 197.6 261.303 191.758C262.108 180.869 252.171 170.956 246.182 170.709C244.664 170.579 243.14 168.454 242.307 166.805C235.338 153.006 167.89 190.167 171.465 201.753C174.125 211.405 176.878 219.742 178.616 236.595C178.673 237.128 178.745 237.653 178.831 238.167" fill="white"/>
<path d="M264.856 215.886C263.14 207.553 260.873 197.6 261.303 191.758C262.108 180.869 252.171 170.956 246.182 170.709C244.664 170.579 243.14 168.454 242.307 166.805C235.338 153.006 167.89 190.167 171.465 201.753C174.125 211.405 176.878 219.742 178.616 236.595C178.673 237.128 178.745 237.653 178.831 238.167" stroke="#202020" stroke-width="2.4" stroke-linecap="round" stroke-linejoin="round"/>
<path d="M241.433 396.271C280.909 408.688 344.02 365.44 355.855 350.287C384.324 309.768 331.251 255.398 295.781 272.034C295.781 272.034 284.233 278.826 276.777 282.798C272.546 285.051 267.182 288.774 261.401 293.549" fill="white"/>
<path d="M241.433 396.271C280.909 408.688 344.02 365.44 355.855 350.287C384.324 309.768 331.251 255.398 295.781 272.034C295.781 272.034 284.233 278.826 276.777 282.798C272.546 285.051 267.182 288.774 261.401 293.549" stroke="#202020" stroke-width="2.4" stroke-linecap="round" stroke-linejoin="round"/>
<path d="M261.303 193.417C261.203 190.611 262.101 187.89 263.615 184.672C264.155 183.292 267.654 170.835 267.654 170.835C268.934 166.356 266.429 161.31 262.089 159.62C258.299 158.145 254.011 159.838 252.253 163.505L247.576 169.621C246.365 171.215 244.092 171.787 243.463 169.893" fill="white"/>
<path d="M261.303 193.417C261.203 190.611 262.101 187.89 263.615 184.672C264.155 183.292 267.654 170.835 267.654 170.835C268.934 166.356 266.429 161.31 262.089 159.62C258.299 158.145 254.011 159.838 252.253 163.505L247.576 169.621C246.365 171.215 244.092 171.787 243.463 169.893" stroke="#202020" stroke-width="2.4" stroke-linecap="round" stroke-linejoin="round"/>
<path d="M244.967 171.061C244.284 166.624 237.323 145.389 237.323 145.389C235.695 140.153 229.974 137.321 224.772 139.316C220.025 141.136 217.679 146.515 219.189 151.37L226.497 174.719" fill="white"/>
<path d="M244.967 171.061C244.284 166.624 237.323 145.389 237.323 145.389C235.695 140.153 229.974 137.321 224.772 139.316C220.025 141.136 217.679 146.515 219.189 151.37L226.497 174.719" stroke="#202020" stroke-width="2.4" stroke-linecap="round" stroke-linejoin="round"/>
<path d="M190.087 187.191L188.381 181.218C186.918 175.947 182.908 174.546 177.195 176.448C171.503 178.357 168.465 184.659 169.5 192.332C169.5 192.332 170.411 197.279 171.464 201.753" fill="white"/>
<path d="M190.087 187.191L188.381 181.218C186.918 175.947 182.908 174.546 177.195 176.448C171.503 178.357 168.465 184.659 169.5 192.332C169.5 192.332 170.411 197.279 171.464 201.753" stroke="#202020" stroke-width="2.4" stroke-linecap="round" stroke-linejoin="round"/>
<path d="M190.079 186.641L186.761 176.422C185.232 171.379 188.081 166.051 193.124 164.523C198.167 162.994 203.495 165.843 205.024 170.886L207.886 179.585" fill="white"/>
<path d="M190.079 186.641L186.761 176.422C185.232 171.379 188.081 166.051 193.124 164.523C198.167 162.994 203.495 165.843 205.024 170.886L207.886 179.585" stroke="#202020" stroke-width="2.4" stroke-linecap="round" stroke-linejoin="round"/>
<path d="M207.81 179.677L204.884 170.997C203.319 165.963 206.131 160.613 211.164 159.048C216.198 157.482 221.547 160.294 223.113 165.328L225.991 174.427" fill="white"/>
<path d="M207.81 179.677L204.884 170.997C203.319 165.963 206.131 160.613 211.164 159.048C216.198 157.482 221.547 160.294 223.113 165.328L225.991 174.427" stroke="#202020" stroke-width="2.4" stroke-linecap="round" stroke-linejoin="round"/>
<path d="M383.983 242.316C350.061 244.228 295.782 272.034 295.782 272.034C290.089 285.789 289.412 306.635 301.681 323.634C315.722 343.089 337.63 348.438 350.674 359.238C356.69 364.218 357.638 371.395 353.877 375.235L381.28 334.974" fill="#682EC6"/>
<path d="M383.983 242.316C350.061 244.228 295.782 272.034 295.782 272.034C290.089 285.789 289.412 306.635 301.681 323.634C315.722 343.089 337.63 348.438 350.674 359.238C356.69 364.218 357.638 371.395 353.877 375.235L381.28 334.974" stroke="#202020" stroke-width="2.4" stroke-linecap="round" stroke-linejoin="round"/>
<mask id="mask3_550_401" style="mask-type:alpha" maskUnits="userSpaceOnUse" x="265" y="119" width="411" height="341">
<path d="M673.876 444.532C673.876 436.794 672.28 120.682 469.609 120.922C233.599 121.2 268.543 436.794 268.543 444.532C268.543 452.27 359.28 458.542 471.209 458.542C583.139 458.542 673.876 452.27 673.876 444.532Z" fill="#231F20"/>
<path d="M673.876 444.532C673.876 436.794 672.28 120.682 469.609 120.922C233.599 121.2 268.543 436.794 268.543 444.532C268.543 452.27 359.28 458.542 471.209 458.542C583.139 458.542 673.876 452.27 673.876 444.532Z" stroke="#231F20" stroke-width="2.4" stroke-linecap="round" stroke-linejoin="round"/>
</mask>
<g mask="url(#mask3_550_401)">
<path d="M615.13 537.962C548.305 543.154 551.644 487.515 548.134 455.526C546.569 441.273 542.617 384.6 542.617 384.6C540.202 359.295 621.395 348.216 631.219 382.799C631.219 382.799 644.273 432.471 649.176 449.956C666.808 512.831 666.407 533.979 615.13 537.962Z" fill="white"/>
<path d="M615.13 537.962C548.305 543.154 551.644 487.515 548.134 455.526C546.569 441.273 542.617 384.6 542.617 384.6C540.202 359.295 621.395 348.216 631.219 382.799C631.219 382.799 644.273 432.471 649.176 449.956C666.808 512.831 666.407 533.979 615.13 537.962Z" stroke="#202020" stroke-width="2.4" stroke-linecap="round" stroke-linejoin="round"/>
</g>
<path d="M539.054 347.263L542.618 384.6C561.613 398.268 612.838 402.034 631.22 382.799L613.848 321.644C606.167 294.603 585.739 273.072 559.189 264.041C559.189 264.041 549.977 260.061 539.793 259.633" fill="#682EC6"/>
<path d="M539.054 347.263L542.618 384.6C561.613 398.268 612.838 402.034 631.22 382.799L613.848 321.644C606.167 294.603 585.739 273.072 559.189 264.041C559.189 264.041 549.977 260.061 539.793 259.633" stroke="#202020" stroke-width="2.4" stroke-linecap="round" stroke-linejoin="round"/>
<path d="M379.556 416.774C390.076 415.84 399.747 408.42 403.374 398.502" stroke="#202020" stroke-width="2.4" stroke-linecap="round" stroke-linejoin="round"/>
<path d="M503.434 368.846C501.668 375.759 505.303 383.665 511.699 386.824" stroke="#202020" stroke-width="2.4" stroke-linecap="round" stroke-linejoin="round"/>
<path d="M422.477 307.881C424.503 313.905 429.932 318.654 436.172 319.859" stroke="#202020" stroke-width="2.4" stroke-linecap="round" stroke-linejoin="round"/>
<path d="M344.724 305.644C351.143 308.694 359.131 308.157 365.083 304.275" stroke="#202020" stroke-width="2.4" stroke-linecap="round" stroke-linejoin="round"/>
<path d="M514.92 305.157C519.167 301.271 524.539 298.628 530.208 297.632" stroke="#202020" stroke-width="2.4" stroke-linecap="round" stroke-linejoin="round"/>
<path d="M418.765 268.125C423.013 264.239 428.384 261.595 434.054 260.599" stroke="#202020" stroke-width="2.4" stroke-linecap="round" stroke-linejoin="round"/>
<path d="M581.016 352.588C587.306 352.398 593.097 347.302 594.086 341.088" stroke="#202020" stroke-width="2.4" stroke-linecap="round" stroke-linejoin="round"/>
<path d="M295.156 451.477C330.072 455.698 395.836 458.542 471.211 458.542C559.575 458.542 634.731 454.633 662.46 449.179" stroke="#202020" stroke-width="2.4" stroke-linecap="round" stroke-linejoin="round"/>
<path d="M3.76356 208.675L45.4666 190.634C47.2499 189.862 49.3196 190.682 50.0912 192.466C50.8627 194.249 50.0427 196.319 48.2594 197.09L6.55638 215.131C4.77308 215.903 2.70339 215.083 1.93182 213.299C1.16025 211.516 1.98026 209.446 3.76356 208.675Z" fill="white"/>
<path d="M3.76356 208.675L45.4666 190.634C47.2499 189.862 49.3196 190.682 50.0912 192.466C50.8627 194.249 50.0427 196.319 48.2594 197.09L6.55638 215.131C4.77308 215.903 2.70339 215.083 1.93182 213.299C1.16025 211.516 1.98026 209.446 3.76356 208.675Z" stroke="#202020" stroke-width="2.4" stroke-linecap="round" stroke-linejoin="round"/>
<path d="M237.444 402.832L221.923 370.87C221.055 369.085 221.8 366.933 223.586 366.066C225.372 365.198 227.524 365.943 228.391 367.729L243.913 399.691C244.78 401.477 244.035 403.628 242.25 404.495C240.464 405.363 238.312 404.618 237.444 402.832Z" fill="white"/>
<path d="M237.444 402.832L221.923 370.87C221.055 369.085 221.8 366.933 223.586 366.066C225.372 365.198 227.524 365.943 228.391 367.729L243.913 399.691C244.78 401.477 244.035 403.628 242.25 404.495C240.464 405.363 238.312 404.618 237.444 402.832Z" stroke="#202020" stroke-width="2.4" stroke-linecap="round" stroke-linejoin="round"/>
<path d="M49.4329 339.886L53.3829 358.488L71.9839 362.439L53.3829 366.39L49.4299 384.991L45.48 365.995L26.8789 362.439L45.48 358.092L49.4329 339.886Z" fill="white"/>
<path d="M49.4329 339.886L53.3829 358.488L71.9839 362.439L53.3829 366.39L49.4299 384.991L45.48 365.995L26.8789 362.439L45.48 358.092L49.4329 339.886Z" stroke="#202020" stroke-width="2.3063" stroke-linecap="round" stroke-linejoin="round"/>
<path d="M584.821 41.332L587.934 52.8285L596.768 44.8395L593.171 56.1942L604.922 54.2499L595.758 61.8578L606.694 66.5754L594.872 68.0202L601.522 77.902L590.795 72.7255L591.047 84.6334L584.821 74.4799L578.595 84.6334L578.847 72.7255L568.12 77.902L574.77 68.0202L562.947 66.5754L573.884 61.8578L564.72 54.2499L576.471 56.1942L572.874 44.8395L581.708 52.8285L584.821 41.332Z" fill="white"/>
<path d="M584.821 41.332L587.934 52.8285L596.768 44.8395L593.171 56.1942L604.922 54.2499L595.758 61.8578L606.694 66.5754L594.872 68.0202L601.522 77.902L590.795 72.7255L591.047 84.6334L584.821 74.4799L578.595 84.6334L578.847 72.7255L568.12 77.902L574.77 68.0202L562.947 66.5754L573.884 61.8578L564.72 54.2499L576.471 56.1942L572.874 44.8395L581.708 52.8285L584.821 41.332Z" stroke="#202020" stroke-width="2.064" stroke-linecap="round" stroke-linejoin="round"/>
<path d="M378.153 27.2791L348.957 37.72L371.294 59.4553L344.905 42.9612L342.006 74.0345L338.297 43.0264L312.345 60.0386L334.109 37.8658L304.646 28.0067L335.494 31.366L324.706 2.05871L341.41 28.4211L357.42 1.7356L347.401 31.2486L378.153 27.2791Z" fill="white"/>
<path d="M378.153 27.2791L348.957 37.72L371.294 59.4553L344.905 42.9612L342.006 74.0345L338.297 43.0264L312.345 60.0386L334.109 37.8658L304.646 28.0067L335.494 31.366L324.706 2.05871L341.41 28.4211L357.42 1.7356L347.401 31.2486L378.153 27.2791Z" stroke="#202020" stroke-width="2.30246" stroke-linecap="round" stroke-linejoin="round"/>
<path d="M146.572 348.381C146.572 344.866 143.723 342.017 140.208 342.017C136.693 342.017 133.844 344.866 133.844 348.381C133.844 351.896 136.693 354.745 140.208 354.745C143.723 354.745 146.572 351.896 146.572 348.381Z" fill="white"/>
<path d="M146.572 348.381C146.572 344.866 143.723 342.017 140.208 342.017C136.693 342.017 133.844 344.866 133.844 348.381C133.844 351.896 136.693 354.745 140.208 354.745C143.723 354.745 146.572 351.896 146.572 348.381Z" stroke="#202020" stroke-width="2.4" stroke-linecap="round" stroke-linejoin="round"/>
<path d="M358.488 185.539C358.488 182.024 355.639 179.175 352.124 179.175C348.609 179.175 345.76 182.024 345.76 185.539C345.76 189.054 348.609 191.903 352.124 191.903C355.639 191.903 358.488 189.054 358.488 185.539Z" fill="white"/>
<path d="M358.488 185.539C358.488 182.024 355.639 179.175 352.124 179.175C348.609 179.175 345.76 182.024 345.76 185.539C345.76 189.054 348.609 191.903 352.124 191.903C355.639 191.903 358.488 189.054 358.488 185.539Z" stroke="#202020" stroke-width="2.4" stroke-linecap="round" stroke-linejoin="round"/>
<path d="M81.9924 225.139C81.9924 223.13 80.3644 221.502 78.3556 221.502C76.3468 221.502 74.7188 223.13 74.7188 225.139C74.7188 227.148 76.3468 228.776 78.3556 228.776C80.3644 228.776 81.9924 227.148 81.9924 225.139Z" fill="white"/>
<path d="M81.9924 225.139C81.9924 223.13 80.3644 221.502 78.3556 221.502C76.3468 221.502 74.7188 223.13 74.7188 225.139C74.7188 227.148 76.3468 228.776 78.3556 228.776C80.3644 228.776 81.9924 227.148 81.9924 225.139Z" stroke="#202020" stroke-width="2.4" stroke-linecap="round" stroke-linejoin="round"/>
<path d="M316.393 127.114C316.393 125.105 314.765 123.477 312.756 123.477C310.747 123.477 309.119 125.105 309.119 127.114C309.119 129.123 310.747 130.751 312.756 130.751C314.765 130.751 316.393 129.123 316.393 127.114Z" fill="white"/>
<path d="M316.393 127.114C316.393 125.105 314.765 123.477 312.756 123.477C310.747 123.477 309.119 125.105 309.119 127.114C309.119 129.123 310.747 130.751 312.756 130.751C314.765 130.751 316.393 129.123 316.393 127.114Z" stroke="#202020" stroke-width="2.4" stroke-linecap="round" stroke-linejoin="round"/>
<path d="M321.029 236.54C321.029 234.531 319.401 232.903 317.393 232.903C315.384 232.903 313.756 234.531 313.756 236.54C313.756 238.549 315.384 240.177 317.393 240.177C319.401 240.177 321.029 238.549 321.029 236.54Z" fill="white"/>
<path d="M321.029 236.54C321.029 234.531 319.401 232.903 317.393 232.903C315.384 232.903 313.756 234.531 313.756 236.54C313.756 238.549 315.384 240.177 317.393 240.177C319.401 240.177 321.029 238.549 321.029 236.54Z" stroke="#202020" stroke-width="2.4" stroke-linecap="round" stroke-linejoin="round"/>
</g>
<defs>
<clipPath id="clip0_550_401">
<rect width="676" height="460" fill="white"/>
</clipPath>
</defs>
</svg>
