<svg width="751" height="679" viewBox="0 0 751 679" fill="none" xmlns="http://www.w3.org/2000/svg">
<g clip-path="url(#clip0_386_2)">
<g clip-path="url(#clip1_386_2)">
<path d="M383.464 293.024H33.3666C19.6743 293.024 8.57422 281.927 8.57422 268.24V26.7367C8.57422 13.0489 19.6743 1.95245 33.3666 1.95245H383.464C397.157 1.95245 408.257 13.0489 408.257 26.7367V268.24C408.257 281.927 397.157 293.024 383.464 293.024Z" stroke="#231F20" stroke-width="2.4" stroke-linecap="round" stroke-linejoin="round"/>
<path d="M383.464 293.024H33.3666C19.6743 293.024 8.57422 281.927 8.57422 268.24V26.7367C8.57422 13.0489 19.6743 1.95245 33.3666 1.95245H383.464C397.157 1.95245 408.257 13.0489 408.257 26.7367V268.24C408.257 281.927 397.157 293.024 383.464 293.024Z" fill="#1B1D20"/>
<path d="M383.464 293.024H33.3666C19.6743 293.024 8.57422 281.927 8.57422 268.24V26.7367C8.57422 13.0489 19.6743 1.95245 33.3666 1.95245H383.464C397.157 1.95245 408.257 13.0489 408.257 26.7367V268.24C408.257 281.927 397.157 293.024 383.464 293.024Z" stroke="#231F20" stroke-width="2.4" stroke-linecap="round" stroke-linejoin="round"/>
<path d="M383.464 293.024H33.3666C19.6743 293.024 8.57422 281.927 8.57422 268.24V26.7367C8.57422 13.0489 19.6743 1.95245 33.3666 1.95245H383.464C397.157 1.95245 408.257 13.0489 408.257 26.7367V268.24C408.257 281.927 397.157 293.024 383.464 293.024Z" fill="#F0F5FC"/>
<path d="M383.464 293.024H33.3666C19.6743 293.024 8.57422 281.927 8.57422 268.24V26.7367C8.57422 13.0489 19.6743 1.95245 33.3666 1.95245H383.464C397.157 1.95245 408.257 13.0489 408.257 26.7367V268.24C408.257 281.927 397.157 293.024 383.464 293.024Z" stroke="#231F20" stroke-width="2.4" stroke-linecap="round" stroke-linejoin="round"/>
<path d="M383.464 293.024H33.3666C19.6743 293.024 8.57422 281.927 8.57422 268.24V26.7367C8.57422 13.0489 19.6743 1.95245 33.3666 1.95245H383.464C397.157 1.95245 408.257 13.0489 408.257 26.7367V268.24C408.257 281.927 397.157 293.024 383.464 293.024Z" fill="#1B1D20"/>
<path d="M292.842 128.846C319.097 133.332 337.205 143.69 352.748 169.697L421.824 300.454C421.824 300.454 414.117 323.251 402.108 323.332C390.099 323.413 349.424 318.559 349.424 318.559L306.556 238.513C306.556 238.513 267.054 178.623 269.96 154.442C272.866 130.262 292.842 128.846 292.842 128.846Z" fill="#1B1D20"/>
<path d="M292.842 128.846C319.097 133.332 337.205 143.69 352.748 169.697L421.824 300.454C421.824 300.454 414.117 323.251 402.108 323.332C390.099 323.413 349.424 318.559 349.424 318.559L306.556 238.513C306.556 238.513 267.054 178.623 269.96 154.442C272.866 130.262 292.842 128.846 292.842 128.846Z" fill="#1B1D20" stroke="#F0F5FC" stroke-width="2.4" stroke-linecap="round" stroke-linejoin="round"/>
<path d="M159.297 125.458C109.94 126.155 86.0332 147.269 70.9455 179.447L70.9496 179.449C70.9496 179.449 50.5508 228.795 26.2051 303.721C26.2051 303.721 31.6685 308.307 40.6551 308.246C53.0357 308.162 137.111 307.594 137.111 307.594L149.464 230.545L159.297 125.458Z" fill="#1B1D20"/>
<path d="M159.297 125.458C109.94 126.155 86.0332 147.269 70.9455 179.447L70.9496 179.449C70.9496 179.449 50.5508 228.795 26.2051 303.721C26.2051 303.721 31.6685 308.307 40.6551 308.246C53.0357 308.162 137.111 307.594 137.111 307.594L149.464 230.545L159.297 125.458Z" fill="#1B1D20" stroke="#F0F5FC" stroke-width="2.4" stroke-linecap="round" stroke-linejoin="round"/>
<path d="M159.288 124.184C159.288 124.184 211.223 124.484 228.535 124.584C235.415 124.623 263.656 124.691 263.656 124.691C274.425 125.247 284.083 126.097 292.834 127.603C316.972 132.17 339.113 253.006 336.493 306.247L125.423 307.673C123.686 247.126 115.109 124.482 159.288 124.184Z" fill="#F0F5FC"/>
<path d="M152.056 127.289C152.056 127.289 208.528 127.548 227.353 127.634C234.834 127.668 265.543 127.714 265.543 127.714C277.253 128.254 287.753 129.082 297.269 130.557C323.512 135.031 347.503 253.837 344.617 306.192L115.102 307.743C113.257 248.206 104.016 127.614 152.056 127.289Z" fill="#1B1D20"/>
<path d="M263.665 125.956L200.199 126.627L247.55 211.03L263.665 125.956Z" fill="#1B1D20"/>
<path d="M263.665 125.956L200.199 126.627L247.55 211.03L263.665 125.956Z" stroke="#F0F5FC" stroke-width="2.4" stroke-linecap="round" stroke-linejoin="round"/>
<path d="M249.513 303.786L247.5 210.5Z" fill="#F0F5FC"/>
<path d="M249.513 303.786L247.5 210.5" stroke="white" stroke-width="2.4" stroke-linecap="round" stroke-linejoin="round"/>
<path d="M241.001 202L199.114 185.049L205.044 160.21L180.698 151.991L186.676 126.63" fill="#1B1D20"/>
<path d="M241.001 202L199.114 185.049L205.044 160.21L180.698 151.991L186.676 126.63" stroke="#F0F5FC" stroke-width="2.4" stroke-linecap="round" stroke-linejoin="round"/>
<path d="M250.001 204L282.189 180.602L271.341 161.211L289.155 147.806L278.313 128.172" fill="#1B1D20"/>
<path d="M250.001 204L282.189 180.602L271.341 161.211L289.155 147.806L278.313 128.172" stroke="#F0F5FC" stroke-width="2.4" stroke-linecap="round" stroke-linejoin="round"/>
</g>
<rect x="8.5" y="2.50003" width="400" height="291" rx="24.5" stroke="black"/>
<path d="M83.1113 567.901L83.1617 567.504L7.57839 557.891C7.57838 557.891 7.57837 557.891 7.57836 557.891C5.19192 557.587 3.48628 555.386 3.78974 553L3.46914 552.959L3.78974 553C4.09323 550.614 6.2948 548.91 8.68112 549.214L8.68114 549.214L84.2645 558.827C86.6509 559.131 88.3566 561.332 88.0531 563.718C87.7496 566.103 85.5481 567.808 83.1617 567.504L83.1113 567.901Z" fill="#1B1D20" stroke="#F0F5FC" stroke-width="0.8"/>
<path d="M7.52794 558.287L83.1113 567.901C85.7167 568.232 88.1185 566.373 88.4499 563.768C88.7813 561.163 86.9203 558.762 84.3149 558.43L8.73157 548.817C6.12616 548.485 3.7243 550.345 3.39294 552.95C3.06156 555.554 4.92253 557.956 7.52794 558.287Z" fill="#1B1D20" stroke="#F0F5FC" stroke-width="2.4" stroke-linecap="round" stroke-linejoin="round"/>
<path d="M724.014 43.0213L678.51 82.07C677.11 83.2716 674.977 83.1086 673.775 81.7085C672.573 80.3088 672.736 78.1778 674.137 76.976L719.641 37.9273L719.38 37.6237L719.641 37.9272C721.041 36.7256 723.174 36.8886 724.376 38.2887C725.578 39.6884 725.415 41.8194 724.014 43.0213Z" fill="#1B1D20" stroke="#F0F5FC" stroke-width="0.8"/>
<path d="M678.771 82.3735L724.275 43.3248C725.843 41.9792 726.026 39.5956 724.68 38.0281C723.334 36.4606 720.948 36.2781 719.38 37.6237L673.876 76.6724C672.308 78.018 672.126 80.4016 673.472 81.9691C674.817 83.5366 677.203 83.7191 678.771 82.3735Z" fill="#1B1D20" stroke="#F0F5FC" stroke-width="2.4" stroke-linecap="round" stroke-linejoin="round"/>
<path d="M6.5166 473.23C6.5166 477.387 9.88742 480.757 14.0459 480.757C18.2043 480.757 21.5751 477.387 21.5751 473.23C21.5751 469.073 18.2043 465.703 14.0459 465.703C9.88742 465.703 6.5166 469.073 6.5166 473.23Z" fill="#1B1D20"/>
<path d="M6.5166 473.23C6.5166 477.387 9.88742 480.757 14.0459 480.757C18.2043 480.757 21.5751 477.387 21.5751 473.23C21.5751 469.073 18.2043 465.703 14.0459 465.703C9.88742 465.703 6.5166 469.073 6.5166 473.23Z" stroke="#F0F5FC" stroke-width="2.4" stroke-linecap="round" stroke-linejoin="round"/>
<path d="M543.686 573.484C539.749 573.484 536.557 570.293 536.557 566.357C536.557 562.421 539.749 559.23 543.686 559.23C547.624 559.23 550.816 562.421 550.816 566.357C550.816 570.293 547.624 573.484 543.686 573.484Z" fill="#1B1D20" stroke="#F0F5FC" stroke-width="0.8"/>
<path d="M536.157 566.357C536.157 570.514 539.528 573.884 543.686 573.884C547.845 573.884 551.216 570.514 551.216 566.357C551.216 562.2 547.845 558.83 543.686 558.83C539.528 558.83 536.157 562.2 536.157 566.357Z" fill="#1B1D20" stroke="#F0F5FC" stroke-width="2.4" stroke-linecap="round" stroke-linejoin="round"/>
<path d="M7.49262 346.766C4.77296 346.766 2.56895 344.562 2.56895 341.844C2.56895 339.125 4.77296 336.922 7.49262 336.922C10.2123 336.922 12.4163 339.125 12.4163 341.844C12.4163 344.562 10.2123 346.766 7.49262 346.766Z" fill="#1B1D20" stroke="#F0F5FC" stroke-width="0.8"/>
<path d="M2.16895 341.844C2.16895 344.783 4.55217 347.166 7.49262 347.166C10.4331 347.166 12.8163 344.783 12.8163 341.844C12.8163 338.904 10.4331 336.522 7.49262 336.522C4.55217 336.522 2.16895 338.904 2.16895 341.844Z" fill="#1B1D20" stroke="#F0F5FC" stroke-width="2.4" stroke-linecap="round" stroke-linejoin="round"/>
<path d="M700.974 97.895C699.01 98.3376 697.059 97.1048 696.616 95.1421C696.173 93.1791 697.406 91.2279 699.37 90.7854C701.334 90.3428 703.286 91.5755 703.728 93.5383C704.171 95.5013 702.938 97.4525 700.974 97.895Z" fill="#1B1D20" stroke="#F0F5FC" stroke-width="0.8"/>
<path d="M696.226 95.23C696.717 97.4085 698.883 98.7763 701.062 98.2852C703.242 97.7941 704.61 95.6288 704.119 93.4503C703.627 91.2718 701.461 89.9041 699.282 90.3952C697.103 90.8863 695.735 93.0516 696.226 95.23Z" fill="#1B1D20" stroke="#F0F5FC" stroke-width="2.4" stroke-linecap="round" stroke-linejoin="round"/>
<path d="M432.654 47.5568C430.69 47.9994 428.738 46.7666 428.296 44.8039C427.853 42.8409 429.086 40.8897 431.05 40.4472C433.014 40.0046 434.965 41.2373 435.408 43.2001C435.851 45.1631 434.618 47.1143 432.654 47.5568Z" fill="#1B1D20" stroke="#F0F5FC" stroke-width="0.8"/>
<path d="M427.906 44.8918C428.397 47.0703 430.563 48.4381 432.742 47.947C434.921 47.4559 436.289 45.2906 435.798 43.1121C435.307 40.9336 433.141 39.5659 430.962 40.057C428.783 40.5481 427.414 42.7134 427.906 44.8918Z" fill="#1B1D20" stroke="#F0F5FC" stroke-width="2.4" stroke-linecap="round" stroke-linejoin="round"/>
<path d="M458.697 61.5668C456.733 62.0094 454.781 60.7766 454.339 58.8139C453.896 56.8509 455.129 54.8997 457.093 54.4572C459.057 54.0146 461.008 55.2474 461.451 57.2101C461.894 59.1731 460.661 61.1243 458.697 61.5668Z" fill="#1B1D20" stroke="#F0F5FC" stroke-width="0.8"/>
<path d="M453.532 58.9118C454.023 61.0903 456.189 62.4581 458.368 61.967C460.547 61.4759 461.915 59.3106 461.424 57.1321C460.933 54.9536 458.767 53.5858 456.588 54.0769C454.409 54.568 453.04 56.7333 453.532 58.9118Z" stroke="#F0F5FC" stroke-width="2.4" stroke-linecap="round" stroke-linejoin="round"/>
<path d="M156.371 401.192C161.314 396.642 166.25 392.098 170.893 387.583C167.185 392.855 163.493 398.418 159.796 403.989C159.531 404.388 159.266 404.788 159.001 405.187C154.193 412.43 149.373 419.651 144.489 426.246L144.091 426.783L144.756 426.847C152.949 427.636 161.566 428.896 170.192 430.179C170.655 430.248 171.119 430.316 171.583 430.385C178.224 431.374 184.856 432.36 191.282 433.139C184.823 433.558 178.146 434.173 171.46 434.789C170.987 434.833 170.515 434.877 170.042 434.92C161.352 435.719 152.673 436.497 144.443 436.828L143.779 436.855L144.141 437.412C148.608 444.267 152.97 451.746 157.32 459.244C157.551 459.643 157.783 460.042 158.015 460.441C161.37 466.227 164.722 472.006 168.108 477.493C163.755 472.73 159.111 467.92 154.462 463.104C154.138 462.768 153.813 462.432 153.489 462.095C147.461 455.85 141.457 449.599 136.08 443.417L135.648 442.92L135.437 443.544C132.814 451.305 129.636 459.369 126.435 467.435C126.268 467.858 126.1 468.28 125.932 468.702C123.458 474.935 120.987 481.161 118.768 487.232C119.811 480.882 120.713 474.277 121.615 467.663C121.679 467.193 121.743 466.723 121.808 466.253C122.981 457.665 124.173 449.091 125.697 441.053L125.821 440.4L125.197 440.627C117.459 443.448 109.135 446.026 100.793 448.588C100.349 448.725 99.9044 448.861 99.4601 448.997C93.0317 450.971 86.6114 452.941 80.4688 455.012C86.1063 451.854 91.8563 448.427 97.6138 444.996C98.0265 444.75 98.4392 444.504 98.8518 444.258C106.343 439.796 113.834 435.357 121.112 431.513L121.703 431.201L121.131 430.856C114.106 426.612 106.903 421.763 99.7015 416.891C99.3153 416.629 98.9292 416.368 98.5431 416.107C92.9949 412.352 87.4538 408.601 82.009 405.128C88.012 407.536 94.2967 409.861 100.589 412.188C101.03 412.351 101.471 412.514 101.911 412.677C110.078 415.699 118.227 418.737 125.779 421.984L126.385 422.245L126.303 421.59C125.279 413.479 124.622 404.853 123.985 396.215C123.952 395.759 123.918 395.303 123.884 394.847C123.393 388.175 122.902 381.51 122.252 375.094C124.088 381.266 126.164 387.607 128.242 393.956C128.388 394.4 128.533 394.845 128.679 395.289C131.373 403.521 134.043 411.748 136.182 419.64L136.354 420.277L136.816 419.805C142.565 413.932 148.948 408.027 155.354 402.129C155.693 401.817 156.032 401.504 156.371 401.192Z" fill="#1B1D20" stroke="#F0F5FC" stroke-width="0.755396"/>
<path d="M121.41 370.834C125.851 386.596 132.264 403.736 136.546 419.541C148.06 407.779 162.107 395.894 173.737 384.247C164.09 397.554 154.575 413.264 144.792 426.471C161.201 428.052 179.298 431.517 195.69 433.262C179.213 434.092 160.94 436.542 144.458 437.205C153.403 450.936 161.925 467.151 170.733 480.969C159.839 468.697 146.563 456.045 135.795 443.665C130.543 459.208 123.068 475.955 117.664 491.445C120.552 475.315 122.273 457.082 125.326 440.982C109.829 446.632 91.9925 451.305 76.4404 456.8C90.9373 448.954 106.36 438.877 120.936 431.179C106.866 422.681 92.0922 411.761 78.1081 403.123C93.2969 409.474 110.804 415.134 125.928 421.637C123.878 405.392 123.299 387.099 121.41 370.834Z" fill="#1B1D20" stroke="#F0F5FC" stroke-width="2.26619" stroke-linecap="round" stroke-linejoin="round"/>
<path d="M250.976 93.9356L250.953 93.9342C250.413 83.9965 243.493 76.1516 233.763 75.6716C224.022 75.1915 216.161 82.112 214.722 91.9977L214.698 91.9964L208.488 125.507C205.054 143.146 254.456 142.501 253.575 127.917L250.976 93.9356Z" fill="#F0F5FC"/>
<path d="M250.976 93.9356L250.953 93.9342C250.413 83.9965 243.493 76.1516 233.763 75.6716C224.022 75.1915 216.161 82.112 214.722 91.9977L214.698 91.9964L208.488 125.507C205.054 143.146 254.456 142.501 253.575 127.917L250.976 93.9356Z" stroke="#202020" stroke-width="2.4" stroke-linecap="round" stroke-linejoin="round"/>
<path d="M250.975 93.9356L250.952 93.9342C250.412 83.9965 243.492 76.1516 233.762 75.6716C224.021 75.1915 216.16 82.112 214.721 91.9977L214.697 91.9964L208.487 125.507C205.053 143.146 254.455 142.501 253.574 127.917L250.975 93.9356Z" fill="#1B1D20"/>
<path d="M250.975 93.9356L250.952 93.9342C250.412 83.9965 243.492 76.1516 233.762 75.6716C224.021 75.1915 216.16 82.112 214.721 91.9977L214.697 91.9964L208.487 125.507C205.053 143.146 254.455 142.501 253.574 127.917L250.975 93.9356Z" stroke="#F0F5FC" stroke-width="2.4" stroke-linecap="round" stroke-linejoin="round"/>
<path d="M246.954 99.2223C246.954 99.2223 249 98 251 99.5" stroke="#F0F5FC" stroke-width="2.4001" stroke-linecap="round" stroke-linejoin="round"/>
<path d="M238.775 99.1122C238.775 99.1122 234.182 96.1856 231.08 100.177" stroke="#F0F5FC" stroke-width="2.40003" stroke-linecap="round" stroke-linejoin="round"/>
<mask id="path-47-inside-1_386_2" fill="white">
<path d="M250.118 111.462C244.913 114.549 236.248 110.954 236.611 111.428C236.875 111.516 239.071 112.777 244.299 112.824C249.032 112.869 250.14 111.278 250.118 111.462Z"/>
</mask>
<path d="M250.118 111.462C244.913 114.549 236.248 110.954 236.611 111.428C236.875 111.516 239.071 112.777 244.299 112.824C249.032 112.869 250.14 111.278 250.118 111.462Z" fill="#F0F5FC"/>
<path d="M250.118 111.462L250.526 112.15L250.866 111.948L250.913 111.556L250.118 111.462ZM236.611 111.428L235.975 111.914L236.125 112.11L236.358 112.188L236.611 111.428ZM244.299 112.824L244.306 112.024L244.306 112.024L244.299 112.824ZM249.71 110.774C247.366 112.164 244.146 112.084 241.405 111.635C240.058 111.415 238.876 111.114 238.04 110.894C237.634 110.787 237.279 110.69 237.046 110.639C236.951 110.618 236.787 110.583 236.637 110.585C236.593 110.585 236.513 110.588 236.419 110.612C236.339 110.633 236.142 110.695 235.984 110.889C235.791 111.124 235.775 111.4 235.822 111.596C235.861 111.758 235.94 111.869 235.975 111.914L237.246 110.942C237.27 110.974 237.342 111.071 237.378 111.222C237.423 111.408 237.409 111.674 237.222 111.902C237.069 112.089 236.882 112.145 236.816 112.162C236.737 112.183 236.676 112.184 236.654 112.184C236.594 112.185 236.583 112.175 236.701 112.201C236.892 112.244 237.195 112.326 237.632 112.441C238.481 112.665 239.723 112.981 241.147 113.214C243.95 113.673 247.665 113.847 250.526 112.15L249.71 110.774ZM236.358 112.188C236.34 112.182 236.342 112.182 236.474 112.241C236.574 112.286 236.713 112.348 236.888 112.419C237.24 112.561 237.734 112.739 238.386 112.914C239.69 113.264 241.613 113.599 244.291 113.623L244.306 112.024C241.756 112.001 239.968 111.682 238.801 111.369C238.217 111.212 237.785 111.055 237.488 110.935C237.339 110.875 237.221 110.823 237.131 110.782C237.072 110.756 236.947 110.697 236.863 110.669L236.358 112.188ZM244.291 113.623C246.749 113.647 248.322 113.246 249.305 112.827C249.798 112.617 250.131 112.407 250.343 112.258C250.395 112.222 250.438 112.19 250.47 112.166C250.488 112.154 250.499 112.145 250.509 112.138C250.52 112.13 250.523 112.127 250.523 112.128C250.523 112.128 250.519 112.13 250.514 112.134C250.509 112.137 250.499 112.143 250.485 112.151C250.475 112.156 250.388 112.208 250.261 112.233C250.121 112.26 249.713 112.28 249.454 111.898C249.28 111.641 249.322 111.382 249.324 111.367L250.913 111.556C250.916 111.53 250.956 111.263 250.78 111.001C250.518 110.614 250.104 110.633 249.956 110.662C249.82 110.688 249.723 110.744 249.7 110.757C249.662 110.778 249.631 110.799 249.614 110.811C249.581 110.833 249.542 110.863 249.519 110.88C249.49 110.901 249.46 110.924 249.424 110.949C249.287 111.045 249.051 111.196 248.678 111.355C247.93 111.674 246.582 112.045 244.306 112.024L244.291 113.623Z" fill="#F0F5FC" mask="url(#path-47-inside-1_386_2)"/>
<path d="M250.118 111.462C244.913 114.549 236.248 110.954 236.611 111.428C236.875 111.516 239.071 112.777 244.299 112.824C249.032 112.869 250.14 111.278 250.118 111.462Z" stroke="#F0F5FC" stroke-width="2.40003" stroke-linecap="round" stroke-linejoin="round"/>
<path d="M221.867 92.9982C224.873 82.3623 232.745 87.4944 232.745 87.4944C237.117 91.0958 248.946 90.7852 250.11 88.9712C248.158 81.5382 241.852 76.1045 233.763 75.6719C224.024 75.1511 216.095 82.1761 214.721 91.9978L214.698 91.9965L213.57 98.0831C216.383 99.3336 219.481 101.442 221.867 92.9982Z" fill="#1B1D20"/>
<path d="M221.867 92.9982C224.873 82.3623 232.745 87.4944 232.745 87.4944C237.117 91.0958 248.946 90.7852 250.11 88.9712C248.158 81.5382 241.852 76.1045 233.763 75.6719C224.024 75.1511 216.095 82.1761 214.721 91.9978L214.698 91.9965L213.57 98.0831C216.383 99.3336 219.481 101.442 221.867 92.9982Z" stroke="#F0F5FC" stroke-width="2.4" stroke-linecap="round" stroke-linejoin="round"/>
<path d="M148.081 235.193L138.687 290.595Z" fill="#F0F5FC"/>
<path d="M148.081 235.193L138.687 290.595" stroke="white" stroke-width="2.4" stroke-linecap="round" stroke-linejoin="round"/>
<path d="M333.075 289.283L317.828 258.837Z" fill="#F0F5FC"/>
<path d="M333.075 289.283L317.828 258.837" stroke="white" stroke-width="2.4" stroke-linecap="round" stroke-linejoin="round"/>
<path d="M408.257 26.7367C408.257 13.0489 397.158 1.95245 383.465 1.95245H33.3666C19.6743 1.95245 8.57422 13.0489 8.57422 26.7367V47.5211H408.257V26.7367Z" fill="#1B1D20"/>
<path d="M408.257 26.7367C408.257 13.0489 397.158 1.95245 383.465 1.95245H33.3666C19.6743 1.95245 8.57422 13.0489 8.57422 26.7367V47.5211H408.257V26.7367Z" stroke="#F0F5FC" stroke-width="2.4" stroke-linecap="round" stroke-linejoin="round"/>
<path d="M383.464 293.024H33.3666C19.6743 293.024 8.57422 281.927 8.57422 268.24V26.7367C8.57422 13.0489 19.6743 1.95245 33.3666 1.95245H383.464C397.157 1.95245 408.257 13.0489 408.257 26.7367V268.24C408.257 281.927 397.157 293.024 383.464 293.024Z" stroke="#F0F5FC" stroke-width="2.4" stroke-linecap="round" stroke-linejoin="round"/>
<path d="M77.6827 16.3117C81.808 16.3117 85.1514 19.6542 85.1514 23.7779C85.1514 27.9016 81.808 31.2441 77.6827 31.2441C73.5573 31.2441 70.2139 27.9016 70.2139 23.7779C70.2139 19.6542 73.5573 16.3117 77.6827 16.3117Z" fill="#1B1D20" stroke="#682EC6" stroke-width="0.763724"/>
<path d="M85.5333 23.7779C85.5333 19.4432 82.0188 15.9299 77.6827 15.9299C73.3465 15.9299 69.832 19.4432 69.832 23.7779C69.832 28.1127 73.3465 31.626 77.6827 31.626C82.0188 31.626 85.5333 28.1127 85.5333 23.7779Z" stroke="#682EC6" stroke-width="2.29117" stroke-linecap="round" stroke-linejoin="round"/>
<path d="M56.8963 23.7779C56.8963 19.2373 53.2149 15.5571 48.6727 15.5571C44.1306 15.5571 40.4492 19.2373 40.4492 23.7779C40.4492 28.3186 44.1306 31.9988 48.6727 31.9988C53.2149 31.9988 56.8963 28.3186 56.8963 23.7779Z" fill="#1B1D20"/>
<path d="M56.8963 23.7779C56.8963 19.2373 53.2149 15.5571 48.6727 15.5571C44.1306 15.5571 40.4492 19.2373 40.4492 23.7779C40.4492 28.3186 44.1306 31.9988 48.6727 31.9988C53.2149 31.9988 56.8963 28.3186 56.8963 23.7779Z" fill="#1B1D20" stroke="#682EC6" stroke-width="2.4" stroke-linecap="round" stroke-linejoin="round"/>
<path d="M469.257 268.111C462.182 291.864 449.74 309.297 442.835 307.242C435.93 305.187 437.18 284.422 444.254 260.67C451.329 236.917 462.66 219.329 469.565 221.384C476.47 223.438 476.331 244.359 469.257 268.111Z" fill="#202020"/>
<path d="M469.257 268.111C462.182 291.864 449.74 309.297 442.835 307.242C435.93 305.187 437.18 284.422 444.254 260.67C451.329 236.917 462.66 219.329 469.565 221.384C476.47 223.438 476.331 244.359 469.257 268.111Z" stroke="#202020" stroke-width="2.39998" stroke-linecap="round" stroke-linejoin="round"/>
<path d="M471.928 212.786C458.219 211.352 443.884 209.309 441.918 194.615C440.571 184.549 422.245 183.383 420.708 197.188C419.339 209.467 419.436 221.064 419.436 221.064C419.436 221.064 422.164 240.983 436.952 245.836" fill="#F0F5FC"/>
<path d="M471.928 212.786C458.219 211.352 443.884 209.309 441.918 194.615C440.571 184.549 422.245 183.383 420.708 197.188C419.339 209.467 419.436 221.064 419.436 221.064C419.436 221.064 422.164 240.983 436.952 245.836" stroke="#202020" stroke-width="2.39998" stroke-linecap="round" stroke-linejoin="round"/>
<path d="M604.445 281.203C595.536 313.568 550.358 314.092 524.404 280.291C508.716 259.861 472.16 214.635 478.785 181.758C484.193 154.922 494.254 142.287 534.461 147.698C555.583 150.541 558.262 159.868 576.79 195.95C593.549 228.587 609.765 261.876 604.445 281.203Z" fill="#F0F5FC"/>
<path d="M604.445 281.203C595.536 313.568 550.358 314.092 524.404 280.291C508.716 259.861 472.16 214.635 478.785 181.758C484.193 154.922 494.254 142.287 534.461 147.698C555.583 150.541 558.262 159.868 576.79 195.95C593.549 228.587 609.765 261.876 604.445 281.203Z" stroke="#202020" stroke-width="2.4" stroke-linecap="round" stroke-linejoin="round"/>
<path d="M527.26 237.637C509.668 226.14 477.899 213.525 470.64 212.579C470.64 212.579 472.901 302.886 442.656 307.72C442.656 307.72 451.727 308.1 477.146 316.571C502.564 325.042 559.965 353.955 580.151 355.467C606.318 357.426 616.795 335.06 616.795 335.06" fill="#F0F5FC"/>
<path d="M527.26 237.637C509.668 226.14 477.899 213.525 470.64 212.579C470.64 212.579 472.901 302.886 442.656 307.72C442.656 307.72 451.727 308.1 477.146 316.571C502.564 325.042 559.965 353.955 580.151 355.467C606.318 357.426 616.795 335.06 616.795 335.06" stroke="#202020" stroke-width="2.39998" stroke-linecap="round" stroke-linejoin="round"/>
<path d="M470.639 212.585L483.816 216.555C483.816 216.555 486.919 296.201 461.088 311.57L442.655 307.723C462.488 305.616 470.512 262.41 470.639 212.585Z" fill="#F0F5FC"/>
<path d="M470.639 212.585L483.816 216.555C483.816 216.555 486.919 296.201 461.088 311.57L442.655 307.723C462.488 305.616 470.512 262.41 470.639 212.585Z" stroke="#202020" stroke-width="2.39998" stroke-linecap="round" stroke-linejoin="round"/>
<path d="M496.058 210.75C496.058 210.75 463.669 337.666 469.09 343.612C474.512 349.558 517.934 347.362 547.31 348.014C589.162 348.942 676.497 330.318 676.497 330.318C685.833 277.665 652.266 139.75 621.423 142.473C608.686 142.403 598.099 143.896 592.628 144.858C589.342 145.436 586.041 145.868 582.715 146.129C571.343 147.023 546.3 148.084 532.591 148.315C520.7 148.515 518.346 145.559 508.83 147.27" fill="#1B1D20"/>
<path d="M496.058 210.75C496.058 210.75 463.669 337.666 469.09 343.612C474.512 349.558 517.934 347.362 547.31 348.014C589.162 348.942 676.497 330.318 676.497 330.318C685.833 277.665 652.266 139.75 621.423 142.473C608.686 142.403 598.099 143.896 592.628 144.858C589.342 145.436 586.041 145.868 582.715 146.129C571.343 147.023 546.3 148.084 532.591 148.315C520.7 148.515 518.346 145.559 508.83 147.27" fill="#1B1D20"/>
<path d="M496.058 210.75C496.058 210.75 463.669 337.666 469.09 343.612C474.512 349.558 517.934 347.362 547.31 348.014C589.162 348.942 676.497 330.318 676.497 330.318C685.833 277.665 652.266 139.75 621.423 142.473C608.686 142.403 598.099 143.896 592.628 144.858C589.342 145.436 586.041 145.868 582.715 146.129C571.343 147.023 546.3 148.084 532.591 148.315C520.7 148.515 518.346 145.559 508.83 147.27" stroke="#202020" stroke-width="2.4" stroke-linecap="round" stroke-linejoin="round"/>
<path d="M395.012 436.196L395.001 436.199L394.99 436.202C372.511 442.111 338.949 437.15 314.028 423.835C301.572 417.181 291.316 408.46 285.674 398.014C280.044 387.589 278.99 375.413 284.983 361.766C293.001 347.065 310.946 332.071 338.118 327.529L491.12 310.511C491.171 310.545 491.237 310.589 491.318 310.643C491.53 310.783 491.844 310.99 492.258 311.254C493.087 311.784 494.312 312.547 495.905 313.484C499.089 315.357 503.742 317.926 509.621 320.709C521.378 326.275 538.043 332.704 557.675 336.15C577.325 339.6 599.077 338.018 615.901 335.58C624.316 334.36 631.505 332.926 636.591 331.796C639.134 331.231 641.151 330.742 642.534 330.394C643.177 330.232 643.683 330.101 644.041 330.007C644.026 330.081 644.009 330.161 643.991 330.248C643.875 330.818 643.702 331.654 643.475 332.72C643.022 334.851 642.355 337.898 641.499 341.562C639.787 348.891 637.32 358.684 634.302 368.545C631.282 378.41 627.716 388.327 623.807 395.912C621.852 399.705 619.821 402.898 617.741 405.207C615.656 407.522 613.563 408.904 611.491 409.169C611.49 409.169 611.489 409.169 611.488 409.17L611.485 409.17L611.459 409.173L611.356 409.185L610.948 409.231L609.353 409.414C607.954 409.574 605.9 409.81 603.276 410.111C598.027 410.715 590.5 411.583 581.385 412.641C563.155 414.758 538.574 417.636 513.167 420.681C462.367 426.768 408.232 433.526 395.012 436.196Z" fill="#1B1D20" stroke="#682EC6" stroke-width="0.8"/>
<path d="M491.222 310.097L338.063 327.133C310.762 331.693 292.701 346.768 284.623 361.59C260.429 416.642 349.904 448.467 395.092 436.588C421.49 431.257 611.539 409.566 611.539 409.566C629.232 407.306 644.56 329.453 644.56 329.453C644.56 329.453 596.921 342.634 557.744 335.756C518.568 328.879 491.222 310.097 491.222 310.097Z" fill="#1B1D20" stroke="#682EC6" stroke-width="2.4" stroke-linecap="round" stroke-linejoin="round"/>
<mask id="path-78-inside-2_386_2" fill="white">
<path d="M388.279 432.469C383.548 441.074 323.914 582.878 323.914 582.878L202.621 559.751L269.819 391.396C273.153 382.973 284.449 355 298.682 344.773"/>
</mask>
<path d="M388.279 432.469C383.548 441.074 323.914 582.878 323.914 582.878L202.621 559.751L269.819 391.396C273.153 382.973 284.449 355 298.682 344.773" fill="#1B1D20"/>
<path d="M323.914 582.878L323.764 583.664L324.401 583.785L324.652 583.188L323.914 582.878ZM202.621 559.751L201.877 559.455L201.518 560.355L202.47 560.537L202.621 559.751ZM269.819 391.396L270.562 391.693L270.563 391.691L269.819 391.396ZM387.578 432.083C386.371 434.278 381.735 444.808 375.491 459.284C369.234 473.79 361.336 492.324 353.586 510.588C345.836 528.852 338.233 546.847 332.569 560.276C329.736 566.99 327.388 572.563 325.748 576.458C324.929 578.405 324.286 579.932 323.848 580.973C323.629 581.493 323.461 581.892 323.348 582.161C323.291 582.295 323.249 582.397 323.22 582.465C323.206 582.499 323.195 582.525 323.188 582.542C323.184 582.551 323.181 582.557 323.179 582.561C323.179 582.564 323.178 582.565 323.177 582.566C323.177 582.567 323.177 582.568 323.914 582.878C324.652 583.188 324.652 583.187 324.652 583.186C324.653 583.185 324.654 583.183 324.654 583.181C324.656 583.177 324.659 583.17 324.663 583.162C324.67 583.145 324.681 583.119 324.695 583.085C324.724 583.017 324.766 582.915 324.823 582.781C324.936 582.512 325.104 582.114 325.322 581.593C325.76 580.553 326.403 579.025 327.223 577.078C328.863 573.184 331.211 567.611 334.043 560.897C339.708 547.469 347.309 529.475 355.059 511.213C362.809 492.95 370.706 474.419 376.961 459.917C383.229 445.385 387.821 434.962 388.98 432.854L387.578 432.083ZM324.064 582.092L202.771 558.965L202.47 560.537L323.764 583.664L324.064 582.092ZM203.364 560.047L270.562 391.693L269.076 391.1L201.877 559.455L203.364 560.047ZM270.563 391.691C272.228 387.485 275.871 378.421 280.868 369.14C285.88 359.829 292.191 350.422 299.149 345.423L298.215 344.124C290.94 349.351 284.486 359.044 279.459 368.382C274.416 377.749 270.745 386.884 269.075 391.102L270.563 391.691Z" fill="#682EC6" mask="url(#path-78-inside-2_386_2)"/>
<path d="M388.279 432.469C383.548 441.074 323.914 582.878 323.914 582.878L202.621 559.751L269.819 391.396C273.153 382.973 284.449 355 298.682 344.773" fill="#1B1D20"/>
<path d="M388.279 432.469C383.548 441.074 323.914 582.878 323.914 582.878L202.621 559.751L269.819 391.396C273.153 382.973 284.449 355 298.682 344.773" stroke="#682EC6" stroke-width="2.4" stroke-linecap="round" stroke-linejoin="round"/>
<path d="M185.214 588.793C185.214 588.793 195.873 574.237 203.171 558.49C209.718 544.364 323.928 582.868 323.928 582.868L316.585 607.14C307.056 645.661 163.002 620.543 185.214 588.793Z" fill="#1B1D20"/>
<path d="M185.214 588.793C185.214 588.793 195.873 574.237 203.171 558.49C209.718 544.364 323.928 582.868 323.928 582.868L316.585 607.14C307.056 645.661 163.002 620.543 185.214 588.793Z" fill="#1B1D20" stroke="#F0F5FC" stroke-width="2.4" stroke-linecap="round" stroke-linejoin="round"/>
<path d="M181.524 596.431C181.524 596.431 174.523 554.637 157.088 569.588C140.03 584.216 181.524 596.431 181.524 596.431Z" stroke="#F0F5FC" stroke-width="2.4" stroke-linecap="round" stroke-linejoin="round"/>
<path d="M142.042 619.793L141.868 619.482L142.042 619.793C155.37 612.332 166.742 603.943 174.781 597.421C178.801 594.159 181.989 591.364 184.172 589.383C185.264 588.392 186.105 587.605 186.673 587.066C186.91 586.841 187.099 586.659 187.239 586.524C189.754 589.238 194.508 592.662 201.273 596.042C208.309 599.558 217.546 603.039 228.76 605.634C251.064 610.794 281.195 612.446 317.396 603.869L307.644 652.465L307.642 652.469C307.638 652.48 307.633 652.494 307.626 652.51C307.619 652.528 307.611 652.549 307.601 652.573C307.565 652.664 307.509 652.8 307.433 652.974C307.283 653.321 307.055 653.82 306.747 654.42C306.132 655.62 305.2 657.223 303.933 658.831C301.394 662.056 297.556 665.254 292.268 665.385C284.942 665.568 246.629 665.732 210.139 665.85C191.896 665.909 174.111 665.957 160.886 665.99C154.274 666.006 148.802 666.019 144.983 666.028L140.559 666.037L139.397 666.04L139.099 666.041L139.024 666.041L139.011 666.041L139 666.04L138.934 666.036C138.876 666.032 138.788 666.026 138.673 666.017C138.444 665.998 138.106 665.968 137.678 665.922C136.822 665.828 135.602 665.668 134.155 665.401C131.257 664.867 127.459 663.908 123.833 662.21C120.205 660.512 116.777 658.086 114.581 654.635C112.393 651.195 111.403 646.695 112.715 640.785L112.324 640.699L112.715 640.785C113.485 637.315 114.768 634.807 116.473 632.86C118.181 630.91 120.332 629.5 122.874 628.256C124.852 627.288 127.046 626.43 129.441 625.493C130.132 625.222 130.841 624.945 131.566 624.657C134.79 623.374 138.312 621.882 142.042 619.793Z" fill="#1B1D20" stroke="#F0F5FC" stroke-width="0.8"/>
<path d="M292.278 665.785C303.194 665.513 308.03 652.576 308.03 652.576L317.911 603.335C245.089 620.786 196.788 596.771 187.258 585.947C187.258 585.947 168.452 604.549 141.847 619.444C127.017 627.746 115.455 626.598 112.324 640.699C106.995 664.707 139 666.441 139 666.441C139 666.441 277.615 666.151 292.278 665.785Z" fill="#1B1D20" stroke="#F0F5FC" stroke-width="2.4" stroke-linecap="round" stroke-linejoin="round"/>
<path d="M173.272 598.164L182.828 607.881Z" fill="#1B1D20"/>
<path d="M173.272 598.164L182.828 607.881" stroke="#F0F5FC" stroke-width="2.4" stroke-linecap="round" stroke-linejoin="round"/>
<path d="M160.338 607.525L169.293 618.086Z" fill="#1B1D20"/>
<path d="M160.338 607.525L169.293 618.086" stroke="#F0F5FC" stroke-width="2.4" stroke-linecap="round" stroke-linejoin="round"/>
<path d="M145.861 616.886L155.571 626.759Z" fill="#1B1D20"/>
<path d="M145.861 616.886L155.571 626.759" stroke="#F0F5FC" stroke-width="2.4" stroke-linecap="round" stroke-linejoin="round"/>
<path d="M234.39 585.206C234.39 585.206 254.695 565.828 264.741 539.295C273.918 515.052 409.901 547.824 386.587 582.431C386.587 582.431 384.147 586.5 372.99 609.767C362.543 631.553 213.674 603.662 234.39 585.206Z" fill="#1B1D20"/>
<path d="M234.39 585.206C234.39 585.206 254.695 565.828 264.741 539.295C273.918 515.052 409.901 547.824 386.587 582.431C386.587 582.431 384.147 586.5 372.99 609.767C362.543 631.553 213.674 603.662 234.39 585.206Z" stroke="#F0F5FC" stroke-width="2.4" stroke-linecap="round" stroke-linejoin="round"/>
<path d="M234.391 585.207C234.391 585.207 236.042 589.326 244.586 594.114C259.41 602.422 290.939 612.71 374.643 607.023L349.716 655.401C349.716 655.401 343.194 665.984 335.408 666.313C324.613 666.77 183.462 666.313 183.462 666.313C183.462 666.313 152.971 667.333 158.817 643.446C160.659 635.921 167.239 632.328 182.548 624.948C204.723 614.259 234.391 585.207 234.391 585.207Z" fill="#682EC6"/>
<path d="M234.391 585.207C234.391 585.207 236.042 589.326 244.586 594.114C259.41 602.422 290.939 612.71 374.643 607.023L349.716 655.401C349.716 655.401 343.194 665.984 335.408 666.313C324.613 666.77 183.462 666.313 183.462 666.313C183.462 666.313 152.971 667.333 158.817 643.446C160.659 635.921 167.239 632.328 182.548 624.948C204.723 614.259 234.391 585.207 234.391 585.207Z" fill="#1B1D20" stroke="#F0F5FC" stroke-width="2.4" stroke-linecap="round" stroke-linejoin="round"/>
<path d="M224.239 595.9L233.949 605.772Z" fill="#682EC6"/>
<path d="M224.239 595.9L233.949 605.772" stroke="#F0F5FC" stroke-width="2.4" stroke-linecap="round" stroke-linejoin="round"/>
<path d="M214.572 605.563L224.282 615.436Z" fill="#682EC6"/>
<path d="M214.572 605.563L224.282 615.436" stroke="#F0F5FC" stroke-width="2.4" stroke-linecap="round" stroke-linejoin="round"/>
<path d="M201.657 613.905L211.367 623.778Z" fill="#682EC6"/>
<path d="M201.657 613.905L211.367 623.778" stroke="#F0F5FC" stroke-width="2.4" stroke-linecap="round" stroke-linejoin="round"/>
<path d="M234.455 585.726C234.455 585.726 215.085 540.604 199.572 562.222C184.394 583.373 234.455 585.726 234.455 585.726Z" stroke="#F0F5FC" stroke-width="2.4" stroke-linecap="round" stroke-linejoin="round"/>
<path d="M395.556 328.101C453.126 307.464 703.491 332.708 703.491 332.708C707.663 439.582 662.75 435.727 645.521 439.419C627.802 443.217 485.947 440.704 458.807 438.164C392.03 434.368 345.948 345.885 395.556 328.101Z" fill="#1B1D20"/>
<path d="M395.556 328.101C453.126 307.464 703.491 332.708 703.491 332.708C707.663 439.582 662.75 435.727 645.521 439.419C627.802 443.217 485.947 440.704 458.807 438.164C392.03 434.368 345.948 345.885 395.556 328.101Z" fill="#1B1D20" stroke="#682EC6" stroke-width="2.4" stroke-linecap="round" stroke-linejoin="round"/>
<path d="M466.45 425.063C462.547 436.271 457.469 447.483 451.892 458.118C429.246 501.3 386.113 583.571 386.113 583.571L257.511 554.387C257.511 554.387 313.742 425.967 349.173 369.831C360.01 352.66 372.685 338.823 387.805 331.747" fill="#1B1D20"/>
<path d="M466.45 425.063C462.547 436.271 457.469 447.483 451.892 458.118C429.246 501.3 386.113 583.571 386.113 583.571L257.511 554.387C257.511 554.387 313.742 425.967 349.173 369.831C360.01 352.66 372.685 338.823 387.805 331.747" stroke="#682EC6" stroke-width="2.4" stroke-linecap="round" stroke-linejoin="round"/>
<path d="M471.926 212.783C471.926 212.783 446.505 211.27 417.405 224.608C406.311 229.694 410.554 295.36 418.765 297.312C432.702 300.625 462.172 301.72 485.892 300.649C513.503 300.449 514.732 219.769 471.926 212.783Z" fill="#1B1D20"/>
<path d="M471.926 212.783C471.926 212.783 446.505 211.27 417.405 224.608C406.311 229.694 410.554 295.36 418.765 297.312C432.702 300.625 462.172 301.72 485.892 300.649C513.503 300.449 514.732 219.769 471.926 212.783Z" stroke="#202020" stroke-width="2.39998" stroke-linecap="round" stroke-linejoin="round"/>
<path d="M560.342 358.819C560.342 358.819 682.23 405.525 720.69 361.9C720.69 361.9 729.927 350.144 724.47 340.424C717.849 324.809 665.26 354.899 560.342 358.819Z" fill="#202020"/>
<path d="M534.586 148.371C530.886 148.198 522.126 147.731 517.439 148.025L523.204 243.347L621.427 142.475L605.527 143.164C598.407 143.892 564.689 148.599 534.586 148.371Z" fill="#1B1D20"/>
<path d="M534.586 148.371C530.886 148.198 522.126 147.731 517.439 148.025L523.204 243.347L621.427 142.475L605.527 143.164C598.407 143.892 564.689 148.599 534.586 148.371Z" stroke="#F0F5FC" stroke-width="2.4" stroke-linecap="round" stroke-linejoin="round"/>
<path d="M526.009 149.856L530.744 217.726L605.527 143.166C584.895 146.563 546.996 150.175 526.009 149.856Z" fill="#1B1D20"/>
<path d="M526.009 149.856L530.744 217.726L605.527 143.166C584.895 146.563 546.996 150.175 526.009 149.856Z" stroke="#F0F5FC" stroke-width="2.4" stroke-linecap="round" stroke-linejoin="round"/>
<path d="M569.042 118.911L569.019 118.914C566.939 109.492 557.813 103.265 548.202 104.917C538.592 106.569 532.074 115.485 533.264 125.06L533.241 125.064L535.108 154.8C534.718 168.647 581.603 154.055 578.016 142.593L569.042 118.911Z" fill="#F0F5FC"/>
<path d="M569.042 118.911L569.019 118.914C566.939 109.492 557.813 103.265 548.202 104.917C538.592 106.569 532.074 115.485 533.264 125.06L533.241 125.064L535.108 154.8C534.718 168.647 581.603 154.055 578.016 142.593L569.042 118.911Z" stroke="#202020" stroke-width="2.4" stroke-linecap="round" stroke-linejoin="round"/>
<path d="M569.042 118.911L569.019 118.914C566.939 109.492 557.813 103.265 548.202 104.917C538.592 106.569 532.074 115.485 533.264 125.06L533.241 125.064L535.108 154.8C534.718 168.647 581.603 154.055 578.016 142.593L569.042 118.911Z" fill="#1B1D20"/>
<path d="M569.042 118.911L569.019 118.914C566.939 109.492 557.813 103.265 548.202 104.917C538.592 106.569 532.074 115.485 533.264 125.06L533.241 125.064L535.108 154.8C534.718 168.647 581.603 154.055 578.016 142.593L569.042 118.911Z" stroke="#F0F5FC" stroke-width="2.4" stroke-linecap="round" stroke-linejoin="round"/>
<path d="M533.844 131.177C533.844 131.177 537.429 126.947 542.635 129.398" stroke="#F0F5FC" stroke-width="2.39997" stroke-linecap="round" stroke-linejoin="round"/>
<path d="M570.034 121.611C570.034 121.611 563.76 91.9061 538.135 98.1082C531.762 99.6502 527.261 105.082 526.049 110.985C526.049 110.985 535.613 118.312 556.93 111.029C556.93 111.029 562.39 127.265 570.034 121.611Z" fill="#1B1D20"/>
<path d="M570.034 121.611C570.034 121.611 563.76 91.9061 538.135 98.1082C531.762 99.6502 527.261 105.082 526.049 110.985C526.049 110.985 535.613 118.312 556.93 111.029C556.93 111.029 562.39 127.265 570.034 121.611Z" stroke="#682EC6" stroke-width="2.4" stroke-linecap="round" stroke-linejoin="round"/>
<path d="M549.479 127.625C549.479 127.625 553.745 124.081 558.445 127.399" stroke="#F0F5FC" stroke-width="2.39997" stroke-linecap="round" stroke-linejoin="round"/>
<path d="M555.372 136.463L555.372 136.463C555.067 139.329 552.983 141.039 550.583 141.473C548.17 141.91 545.509 141.043 544.1 138.809L544.1 138.809C543.896 138.487 543.892 138.322 543.922 138.229C543.956 138.122 544.082 137.958 544.48 137.746C544.867 137.54 545.435 137.328 546.221 137.082C547.002 136.837 547.975 136.566 549.161 136.238L549.162 136.238C551.482 135.595 553.151 135.296 554.198 135.374C554.721 135.412 555.02 135.54 555.179 135.696C555.323 135.836 555.415 136.06 555.372 136.463Z" fill="#F0F5FC" stroke="#F0F5FC" stroke-width="0.799991"/>
<path d="M555.77 136.505C555.116 142.653 546.785 143.816 543.761 139.022C542.858 137.59 544.315 137.165 549.055 135.852C553.691 134.567 555.975 134.579 555.77 136.505Z" stroke="#F0F5FC" stroke-width="2.39997" stroke-linecap="round" stroke-linejoin="round"/>
<path d="M530.277 135.048L546.17 318.857L433.074 311.236L403.944 134.403L530.277 135.048Z" fill="#1B1D20"/>
<path d="M530.277 135.048L546.17 318.857L433.074 311.236L403.944 134.403L530.277 135.048Z" stroke="#F0F5FC" stroke-width="2.39998" stroke-linecap="round" stroke-linejoin="round"/>
<path d="M437.077 122.689L489.18 123.899L492.91 141.975L438.406 140.939L437.077 122.689Z" fill="#1B1D20"/>
<path d="M437.077 122.689L489.18 123.899L492.91 141.975L438.406 140.939L437.077 122.689Z" stroke="#F0F5FC" stroke-width="2.39998" stroke-linecap="round" stroke-linejoin="round"/>
<path d="M455.51 124.988L454.772 117.551L467.162 117.839L468.519 125.403L455.51 124.988Z" fill="#1B1D20"/>
<path d="M455.51 124.988L454.772 117.551L467.162 117.839L468.519 125.403L455.51 124.988Z" stroke="#F0F5FC" stroke-width="2.39998" stroke-linecap="round" stroke-linejoin="round"/>
<path d="M426.631 233.051L408.856 231.957C403.317 231.774 398.963 227.621 399.117 221.557C399.271 215.492 404.035 209.946 409.575 210.128L427.35 211.222C432.889 211.404 437.256 216.154 437.033 223.315C436.811 230.477 432.17 233.233 426.631 233.051Z" fill="#1B1D20"/>
<path d="M426.631 233.051L408.856 231.957C403.317 231.774 398.963 227.621 399.117 221.557C399.271 215.492 404.035 209.946 409.575 210.128L427.35 211.222C432.889 211.404 437.256 216.154 437.033 223.315C436.811 230.477 432.17 233.233 426.631 233.051Z" fill="#1B1D20" stroke="#F0F5FC" stroke-width="2.39998" stroke-linecap="round" stroke-linejoin="round"/>
<path d="M429.277 250.608L429.275 250.608L411.537 251.851C411.536 251.851 411.536 251.851 411.535 251.851C408.927 252.014 406.294 250.625 404.316 248.514C402.338 246.401 401.083 243.634 401.166 241.151C401.337 236.067 404.942 231.183 410.215 230.851L410.218 230.851L427.955 229.609C427.955 229.609 427.955 229.609 427.956 229.609C430.638 229.44 433.31 230.14 435.349 231.857C437.382 233.569 438.829 236.327 439.002 240.361C439.176 244.402 438.058 246.846 436.301 248.334C434.522 249.841 432.015 250.436 429.277 250.608Z" fill="#1B1D20" stroke="#F0F5FC" stroke-width="0.799992"/>
<path d="M429.303 251.007L411.562 252.25C406.031 252.598 400.591 246.371 400.767 241.138C400.942 235.905 404.659 230.8 410.19 230.452L427.929 229.209C433.46 228.861 439.047 232.091 439.402 240.343C439.756 248.596 434.834 250.659 429.303 251.007Z" fill="#1B1D20" stroke="#F0F5FC" stroke-width="2.39998" stroke-linecap="round" stroke-linejoin="round"/>
<path d="M433.299 270.207L433.296 270.207L415.559 271.449C415.558 271.449 415.558 271.449 415.557 271.449C412.869 271.618 410.331 270.954 408.458 269.467C406.593 267.986 405.351 265.661 405.295 262.42C405.181 255.855 408.991 250.78 414.236 250.45L414.239 250.45L431.976 249.207C431.976 249.207 431.977 249.207 431.977 249.207C434.702 249.036 437.142 249.413 438.951 250.779C440.746 252.135 442.002 254.53 442.223 258.584C442.444 262.643 441.516 265.452 439.915 267.286C438.314 269.12 435.99 270.037 433.299 270.207Z" fill="#1B1D20" stroke="#F0F5FC" stroke-width="0.799992"/>
<path d="M433.324 270.606L415.584 271.848C410.053 272.197 405.011 269.125 404.895 262.427C404.778 255.729 408.68 250.399 414.211 250.051L431.951 248.808C437.482 248.46 442.172 250.309 442.622 258.563C443.073 266.817 438.855 270.258 433.324 270.606Z" fill="#1B1D20" stroke="#F0F5FC" stroke-width="2.39998" stroke-linecap="round" stroke-linejoin="round"/>
<mask id="path-137-inside-3_386_2" fill="white">
<path d="M419.059 297.459C408.727 295.97 407.17 286.502 407.251 281.69C407.332 276.878 411.47 270.482 417.466 270.105L433.515 268.969C439.511 268.593 442.748 273.363 441.846 280.429C440.935 287.567 432.273 288.464 421.865 289.188"/>
</mask>
<path d="M419.059 297.459C408.727 295.97 407.17 286.502 407.251 281.69C407.332 276.878 411.47 270.482 417.466 270.105L433.515 268.969C439.511 268.593 442.748 273.363 441.846 280.429C440.935 287.567 432.273 288.464 421.865 289.188" fill="#1B1D20"/>
<path d="M407.251 281.69L406.451 281.677L407.251 281.69ZM417.466 270.105L417.516 270.904L417.523 270.903L417.466 270.105ZM433.515 268.969L433.465 268.171L433.459 268.171L433.515 268.969ZM441.846 280.429L441.053 280.328L441.053 280.328L441.846 280.429ZM419.173 296.667C414.283 295.962 411.519 293.396 409.957 290.446C408.373 287.456 408.011 284.036 408.051 281.704L406.451 281.677C406.409 284.156 406.786 287.876 408.543 291.195C410.322 294.554 413.503 297.466 418.945 298.251L419.173 296.667ZM408.051 281.704C408.088 279.498 409.066 276.863 410.766 274.734C412.46 272.611 414.802 271.074 417.516 270.904L417.416 269.307C414.134 269.513 411.409 271.363 409.515 273.735C407.627 276.101 406.495 279.07 406.451 281.677L408.051 281.704ZM417.523 270.903L433.572 269.767L433.459 268.171L417.41 269.307L417.523 270.903ZM433.565 269.768C436.319 269.595 438.348 270.593 439.616 272.372C440.908 274.186 441.488 276.921 441.053 280.328L442.64 280.531C443.107 276.871 442.519 273.688 440.919 271.444C439.295 269.165 436.707 267.967 433.465 268.171L433.565 269.768ZM441.053 280.328C440.847 281.942 440.212 283.171 439.239 284.141C438.252 285.124 436.882 285.876 435.161 286.456C431.697 287.624 427.038 288.027 421.809 288.39L421.92 289.986C427.1 289.626 431.977 289.218 435.673 287.972C437.532 287.345 439.149 286.489 440.368 285.274C441.601 284.046 442.39 282.486 442.64 280.531L441.053 280.328Z" fill="#F0F5FC" mask="url(#path-137-inside-3_386_2)"/>
<path d="M419.472 297.058C409.14 295.569 407.583 286.101 407.664 281.289C407.745 276.477 411.883 270.081 417.879 269.704L433.928 268.569C439.924 268.192 443.162 272.962 442.259 280.028C441.348 287.166 432.686 288.063 422.278 288.787" stroke="#F0F5FC" stroke-width="2.39998" stroke-linecap="round" stroke-linejoin="round"/>
<path d="M559.786 304.511C551.166 331.864 536.075 351.485 526.081 348.337C516.087 345.188 514.974 320.462 523.594 293.109C532.214 265.756 549.405 242.883 559.399 246.032C569.394 249.18 568.407 277.158 559.786 304.511Z" fill="#202020"/>
<path d="M559.786 304.511C551.166 331.864 536.075 351.485 526.081 348.337C516.087 345.188 514.974 320.462 523.594 293.109C532.214 265.756 549.405 242.883 559.399 246.032C569.394 249.18 568.407 277.158 559.786 304.511Z" stroke="#202020" stroke-width="2.39998" stroke-linecap="round" stroke-linejoin="round"/>
<path d="M557.639 243.852L557.68 243.868L557.723 243.875C568 245.543 573.932 253.267 576.568 263.852C579.208 274.445 578.519 287.83 575.586 300.607C572.653 313.384 567.489 325.499 561.226 333.558C558.094 337.587 554.706 340.579 551.209 342.147C547.729 343.706 544.134 343.862 540.531 342.216L540.522 342.211L540.456 342.174L540.194 342.03C539.964 341.903 539.623 341.716 539.18 341.472C538.296 340.985 537.005 340.276 535.383 339.385C532.138 337.605 527.563 335.101 522.246 332.207C511.612 326.42 498.005 319.074 486.119 312.84L486.115 312.838C484.12 311.818 482.78 309.694 482.048 306.658C481.317 303.626 481.21 299.745 481.631 295.321C482.473 286.477 485.418 275.557 489.57 265.129C493.722 254.699 499.067 244.795 504.691 237.971C507.504 234.558 510.369 231.936 513.172 230.396C515.967 228.861 518.67 228.416 521.202 229.297C528.527 232.018 536.307 235.195 544.093 238.374C548.636 240.229 553.182 242.085 557.639 243.852Z" fill="#1B1D20" stroke="#F0F5FC" stroke-width="0.799992"/>
<path d="M521.338 228.92C532.941 233.231 545.706 238.692 557.787 243.48C599.757 250.292 570.133 356.215 540.351 342.574C540.351 342.574 509.7 325.659 485.933 313.194C468.801 304.431 499.97 221.48 521.338 228.92Z" fill="#1B1D20" stroke="#F0F5FC" stroke-width="2.39998" stroke-linecap="round" stroke-linejoin="round"/>
<mask id="path-144-inside-4_386_2" fill="white">
<path d="M485.93 313.197C478.68 309.394 472.069 306.006 467.165 303.638C447.084 293.941 459.261 281.813 466.322 283.063L485.401 292.078"/>
</mask>
<path d="M485.93 313.197C478.68 309.394 472.069 306.006 467.165 303.638C447.084 293.941 459.261 281.813 466.322 283.063L485.401 292.078" fill="#1B1D20"/>
<path d="M467.165 303.638L467.513 302.918L467.513 302.918L467.165 303.638ZM466.322 283.063L466.664 282.34L466.567 282.294L466.461 282.275L466.322 283.063ZM486.302 312.488C479.049 308.684 472.429 305.292 467.513 302.918L466.818 304.358C471.709 306.721 478.31 310.103 485.559 313.905L486.302 312.488ZM467.513 302.918C462.568 300.53 459.708 298.037 458.245 295.728C456.799 293.446 456.695 291.314 457.321 289.507C457.957 287.672 459.373 286.105 461.068 285.069C462.771 284.029 464.659 283.581 466.183 283.851L466.461 282.275C464.454 281.92 462.172 282.519 460.234 283.704C458.287 284.894 456.59 286.731 455.809 288.983C455.019 291.265 455.195 293.904 456.893 296.584C458.574 299.238 461.722 301.898 466.818 304.358L467.513 302.918ZM465.98 283.786L485.06 292.801L485.743 291.355L466.664 282.34L465.98 283.786Z" fill="#F0F5FC" mask="url(#path-144-inside-4_386_2)"/>
<path d="M485.93 313.197C478.68 309.394 472.069 306.006 467.165 303.638C447.084 293.941 459.261 281.813 466.322 283.063L485.401 292.078" fill="#1B1D20"/>
<path d="M485.93 313.197C478.68 309.394 472.069 306.006 467.165 303.638C447.084 293.941 459.261 281.813 466.322 283.063L485.401 292.078" stroke="#F0F5FC" stroke-width="2.39998" stroke-linecap="round" stroke-linejoin="round"/>
<mask id="path-148-inside-5_386_2" fill="white">
<path d="M508.498 251.964L492.886 244.56C492.886 244.56 473.317 238.458 482.24 224.811C483.632 222.682 486.083 221.602 489.357 221.335C496.845 220.723 508.367 224.103 521.339 228.923"/>
</mask>
<path d="M508.498 251.964L492.886 244.56C492.886 244.56 473.317 238.458 482.24 224.811C483.632 222.682 486.083 221.602 489.357 221.335C496.845 220.723 508.367 224.103 521.339 228.923" fill="#1B1D20"/>
<path d="M492.886 244.56L493.228 243.837L493.177 243.813L493.124 243.796L492.886 244.56ZM482.24 224.811L482.91 225.249L482.91 225.249L482.24 224.811ZM489.357 221.335L489.292 220.538L489.292 220.538L489.357 221.335ZM508.841 251.241L493.228 243.837L492.543 245.283L508.155 252.687L508.841 251.241ZM492.886 244.56C493.124 243.796 493.124 243.796 493.124 243.796C493.124 243.796 493.124 243.796 493.124 243.796C493.124 243.796 493.123 243.796 493.122 243.796C493.121 243.795 493.118 243.794 493.114 243.793C493.106 243.791 493.094 243.787 493.077 243.781C493.044 243.77 492.993 243.753 492.926 243.731C492.791 243.685 492.593 243.615 492.342 243.522C491.84 243.334 491.13 243.05 490.304 242.667C488.645 241.899 486.549 240.746 484.737 239.195C482.921 237.642 481.445 235.737 480.918 233.473C480.398 231.235 480.773 228.516 482.91 225.249L481.571 224.373C479.246 227.929 478.721 231.09 479.36 233.835C479.992 236.553 481.736 238.733 483.697 240.411C485.661 242.092 487.9 243.317 489.631 244.119C490.5 244.522 491.249 244.821 491.782 245.02C492.049 245.12 492.262 245.195 492.41 245.245C492.485 245.27 492.542 245.29 492.582 245.303C492.602 245.309 492.618 245.314 492.629 245.318C492.634 245.319 492.639 245.321 492.642 245.322C492.643 245.322 492.645 245.323 492.646 245.323C492.646 245.323 492.647 245.323 492.647 245.323C492.647 245.323 492.648 245.323 492.886 244.56ZM482.91 225.249C484.112 223.409 486.275 222.389 489.422 222.132L489.292 220.538C485.891 220.815 483.152 221.954 481.571 224.373L482.91 225.249ZM489.422 222.132C493.035 221.837 497.686 222.504 503.096 223.868C508.493 225.229 514.586 227.267 521.061 229.673L521.618 228.173C515.12 225.759 508.965 223.698 503.487 222.317C498.021 220.938 493.167 220.221 489.292 220.538L489.422 222.132Z" fill="#F0F5FC" mask="url(#path-148-inside-5_386_2)"/>
<path d="M508.498 251.964L492.886 244.56C492.886 244.56 473.317 238.458 482.24 224.811C483.632 222.682 486.083 221.602 489.357 221.335C496.845 220.723 508.367 224.103 521.339 228.923" fill="#1B1D20"/>
<path d="M508.498 251.964L492.886 244.56C492.886 244.56 473.317 238.458 482.24 224.811C483.632 222.682 486.083 221.602 489.357 221.335C496.845 220.723 508.367 224.103 521.339 228.923" stroke="#F0F5FC" stroke-width="2.39998" stroke-linecap="round" stroke-linejoin="round"/>
<mask id="path-152-inside-6_386_2" fill="white">
<path d="M485.403 292.078L466.323 283.063C466.323 283.063 456.635 275.237 461.719 268.233C468.209 259.289 478.082 265.62 481.913 266.625L481.882 266.692L499.172 274.466"/>
</mask>
<path d="M485.403 292.078L466.323 283.063C466.323 283.063 456.635 275.237 461.719 268.233C468.209 259.289 478.082 265.62 481.913 266.625L481.882 266.692L499.172 274.466" fill="#1B1D20"/>
<path d="M466.323 283.063L465.821 283.685L465.895 283.746L465.982 283.787L466.323 283.063ZM461.719 268.233L462.366 268.703L462.366 268.703L461.719 268.233ZM481.913 266.625L482.641 266.957L483.035 266.092L482.116 265.851L481.913 266.625ZM481.882 266.692L481.154 266.36L480.82 267.092L481.554 267.422L481.882 266.692ZM485.745 291.355L466.665 282.34L465.982 283.787L485.061 292.802L485.745 291.355ZM466.323 283.063C466.826 282.441 466.826 282.441 466.826 282.441C466.826 282.441 466.827 282.441 466.827 282.441C466.827 282.441 466.826 282.441 466.826 282.441C466.825 282.44 466.824 282.439 466.823 282.438C466.819 282.435 466.813 282.43 466.805 282.424C466.79 282.411 466.765 282.39 466.733 282.363C466.668 282.308 466.572 282.225 466.45 282.117C466.206 281.899 465.86 281.578 465.46 281.17C464.656 280.352 463.644 279.2 462.791 277.848C461.069 275.119 460.114 271.806 462.366 268.703L461.071 267.763C458.24 271.664 459.586 275.766 461.438 278.701C462.371 280.181 463.465 281.423 464.319 282.292C464.747 282.727 465.118 283.072 465.384 283.31C465.517 283.429 465.624 283.521 465.699 283.584C465.736 283.616 465.766 283.64 465.786 283.657C465.797 283.666 465.805 283.672 465.81 283.677C465.813 283.679 465.816 283.681 465.817 283.683C465.818 283.683 465.819 283.684 465.82 283.684C465.82 283.685 465.82 283.685 465.82 283.685C465.821 283.685 465.821 283.685 466.323 283.063ZM462.366 268.703C463.9 266.589 465.603 265.415 467.332 264.824C469.072 264.23 470.896 264.207 472.689 264.488C474.486 264.771 476.221 265.353 477.77 265.942C479.269 266.512 480.698 267.133 481.71 267.398L482.116 265.851C481.213 265.614 479.971 265.067 478.338 264.447C476.756 263.845 474.899 263.216 472.937 262.908C470.973 262.599 468.871 262.607 466.815 263.31C464.748 264.016 462.783 265.405 461.071 267.763L462.366 268.703ZM481.185 266.293L481.154 266.36L482.61 267.024L482.641 266.957L481.185 266.293ZM481.554 267.422L498.844 275.195L499.5 273.736L482.21 265.962L481.554 267.422Z" fill="#F0F5FC" mask="url(#path-152-inside-6_386_2)"/>
<path d="M485.403 292.078L466.323 283.063C466.323 283.063 456.635 275.237 461.719 268.233C468.209 259.289 478.082 265.62 481.913 266.625L481.882 266.692L499.172 274.466" fill="#1B1D20"/>
<path d="M485.403 292.078L466.323 283.063C466.323 283.063 456.635 275.237 461.719 268.233C468.209 259.289 478.082 265.62 481.913 266.625L481.882 266.692L499.172 274.466" stroke="#F0F5FC" stroke-width="2.39998" stroke-linecap="round" stroke-linejoin="round"/>
<path d="M499.171 274.466L481.912 266.625C481.912 266.625 461.882 256.166 470.618 245.128C477.769 236.09 492.884 244.559 492.884 244.559L508.496 251.963" fill="#1B1D20"/>
<path d="M499.171 274.466L481.912 266.625C481.912 266.625 461.882 256.166 470.618 245.128C477.769 236.09 492.884 244.559 492.884 244.559L508.496 251.963" stroke="#F0F5FC" stroke-width="2.39998" stroke-linecap="round" stroke-linejoin="round"/>
<path d="M623.915 345.995C602.136 310.582 619.305 259.092 619.305 259.092C619.305 259.092 665.652 334.578 657.43 346.024C649.209 357.47 641.318 374.293 623.915 345.995Z" fill="#202020"/>
<mask id="path-159-inside-7_386_2" fill="white">
<path d="M618.377 255.658L622.172 315.218C625.092 364.106 699.011 397.003 730.53 353.485C759.94 300.649 729.395 244.397 711.766 200.746C711.766 200.746 684.462 141.715 649.966 136.942C635.991 135.009 627.061 139.744 622.122 142.689"/>
</mask>
<path d="M618.377 255.658L622.172 315.218C625.092 364.106 699.011 397.003 730.53 353.485C759.94 300.649 729.395 244.397 711.766 200.746C711.766 200.746 684.462 141.715 649.966 136.942C635.991 135.009 627.061 139.744 622.122 142.689" fill="#1B1D20"/>
<path d="M622.172 315.218L622.97 315.171L622.97 315.168L622.172 315.218ZM730.53 353.485L731.178 353.954L731.206 353.916L731.229 353.874L730.53 353.485ZM711.766 200.746L712.508 200.446L712.501 200.428L712.493 200.41L711.766 200.746ZM649.966 136.942L650.076 136.15L650.076 136.15L649.966 136.942ZM617.578 255.708L621.373 315.269L622.97 315.168L619.175 255.607L617.578 255.708ZM621.373 315.266C622.857 340.107 642.35 360.775 665.335 369.749C688.341 378.731 715.138 376.1 731.178 353.954L729.882 353.016C714.402 374.388 688.481 377.068 665.917 368.259C643.334 359.442 624.407 339.217 622.97 315.171L621.373 315.266ZM731.229 353.874C746.063 327.223 745.758 299.729 739.566 273.487C733.384 247.284 721.296 222.204 712.508 200.446L711.024 201.045C719.866 222.938 731.864 247.809 738.009 273.854C744.145 299.861 744.406 326.911 729.831 353.096L731.229 353.874ZM711.766 200.746C712.493 200.41 712.492 200.41 712.492 200.409C712.492 200.408 712.491 200.408 712.491 200.407C712.49 200.405 712.489 200.402 712.487 200.398C712.483 200.39 712.478 200.379 712.471 200.365C712.458 200.335 712.437 200.292 712.411 200.235C712.357 200.122 712.277 199.954 712.172 199.735C711.962 199.298 711.65 198.657 711.241 197.841C710.423 196.21 709.217 193.876 707.661 191.061C704.552 185.433 700.043 177.875 694.45 170.164C688.858 162.456 682.168 154.574 674.689 148.312C667.215 142.054 658.904 137.371 650.076 136.15L649.856 137.735C658.276 138.9 666.314 143.386 673.661 149.538C681.004 155.687 687.608 163.457 693.154 171.103C698.699 178.747 703.173 186.245 706.261 191.834C707.804 194.628 709.001 196.943 709.81 198.558C710.215 199.366 710.523 199.998 710.73 200.428C710.833 200.643 710.911 200.807 710.963 200.917C710.989 200.972 711.009 201.014 711.021 201.041C711.028 201.055 711.033 201.065 711.036 201.072C711.037 201.075 711.038 201.078 711.039 201.079C711.039 201.08 711.04 201.081 711.04 201.081C711.04 201.081 711.04 201.081 711.766 200.746ZM650.076 136.15C635.843 134.181 626.724 139.013 621.712 142.002L622.531 143.376C627.399 140.474 636.139 135.837 649.856 137.735L650.076 136.15Z" fill="#F0F5FC" mask="url(#path-159-inside-7_386_2)"/>
<path d="M618.377 255.658L622.172 315.218C625.092 364.106 699.011 397.003 730.53 353.485C759.94 300.649 729.395 244.397 711.766 200.746C711.766 200.746 684.462 141.715 649.966 136.942C635.991 135.009 627.061 139.744 622.122 142.689" stroke="#F0F5FC" stroke-width="2.4" stroke-linecap="round" stroke-linejoin="round"/>
<path d="M740.582 325.513C738.266 336.518 731.127 347.389 721.448 355.91C672.55 398.961 528.292 348.765 528.292 348.765C560.759 351.483 562.512 289.769 562.727 244.859C589.243 245.586 633.066 273.322 664.767 274.64C665.585 274.674 666.395 274.711 667.197 274.752" fill="#1B1D20"/>
<path d="M740.582 325.513C738.266 336.518 731.127 347.389 721.448 355.91C672.55 398.961 528.292 348.765 528.292 348.765C560.759 351.483 562.512 289.769 562.727 244.859C589.243 245.586 633.066 273.322 664.767 274.64C665.585 274.674 666.395 274.711 667.197 274.752" stroke="#F0F5FC" stroke-width="2.39998" stroke-linecap="round" stroke-linejoin="round"/>
<path d="M575.985 247.147L562.444 244.827C563.287 274.267 559.777 340.775 531.822 348.575L546.664 353.758C546.664 353.758 583.198 359.517 575.985 247.147Z" fill="#1B1D20"/>
<path d="M575.985 247.147L562.444 244.827C563.287 274.267 559.777 340.775 531.822 348.575L546.664 353.758C546.664 353.758 583.198 359.517 575.985 247.147Z" stroke="#F0F5FC" stroke-width="2.39998" stroke-linecap="round" stroke-linejoin="round"/>
<path d="M700.614 437.58C704.674 438.42 708.207 439.706 710.931 441.595C717.824 446.376 719.394 454.422 717.147 461.307C714.9 468.195 708.858 473.846 700.595 473.846H700.59H700.581H700.566H700.547H700.523H700.494H700.461H700.423H700.379H700.332H700.279H700.222H700.16H700.093H700.022H699.946H699.866H699.781H699.691H699.597H699.498H699.395H699.287H699.175H699.059H698.938H698.812H698.683H698.548H698.41H698.267H698.12H697.968H697.813H697.653H697.488H697.32H697.147H696.97H696.789H696.604H696.415H696.222H696.024H695.823H695.617H695.408H695.194H694.976H694.755H694.529H694.3H694.067H693.829H693.588H693.343H693.095H692.842H692.586H692.326H692.062H691.794H691.523H691.247H690.969H690.686H690.4H690.111H689.817H689.52H689.22H688.916H688.608H688.297H687.983H687.665H687.344H687.019H686.69H686.359H686.024H685.685H685.344H684.999H684.65H684.299H683.944H683.586H683.224H682.86H682.492H682.121H681.747H681.37H680.99H680.606H680.22H679.831H679.438H679.043H678.644H678.243H677.838H677.431H677.021H676.608H676.192H675.773H675.351H674.927H674.499H674.069H673.636H673.201H672.762H672.321H671.878H671.431H670.982H670.531H670.076H669.62H669.16H668.698H668.234H667.767H667.297H666.825H666.351H665.874H665.395H664.913H664.429H663.943H663.454H662.963H662.47H661.974H661.477H660.976H660.474H659.97H659.463H658.954H658.443H657.93H657.415H656.897H656.378H655.856H655.333H654.807H654.28H653.751H653.219H652.686H652.151H651.613H651.074H650.533H649.991H649.446H648.9H648.352H647.802H647.25H646.697H646.142H645.585H645.027H644.467H643.905H643.342H642.777H642.21H641.642H641.073H640.502H639.929H639.355H638.78H638.203H637.624H637.045H636.464H635.881H635.297H634.712H634.126H633.538H632.949H632.359H631.768H631.175H630.581H629.986H629.39H628.793H628.195H627.595H626.995H626.393H625.79H625.187H624.582H623.977H623.37H622.763H622.154H621.545H620.935H620.324H619.712H619.099H618.486H617.871H617.256H616.641H616.024H615.407H614.789H614.17H613.551H612.931H612.311H611.69H611.068H610.446H609.823H609.2H608.576H607.952H607.328H606.702H606.077H605.451H604.825H604.198H603.571H602.944H602.316H601.688H601.06H600.432H599.803H599.174H598.545H597.916H597.287H596.657H596.028H595.398H594.768H594.139H593.509H592.879H592.249H591.619H590.989H590.36H589.73H589.101H588.471H587.842H587.213H586.584H585.955H585.326H584.698H584.07H583.442H582.815H582.188H581.561H580.934H580.308H579.683H579.057H578.432H577.808H577.184H576.56H575.937H575.315H574.693H574.072H573.451H572.831H572.211H571.592H570.974H570.356H569.739H569.123H568.508H567.893H567.279H566.666H566.053H565.442H564.831H564.221H563.612H563.004H562.397H561.791H561.186H560.582H559.979H559.376H558.775H558.175H557.576H556.978H556.382H555.786H555.192H554.598H554.006H553.415H552.826H552.237H551.65H551.064H550.48H549.896H549.314H548.734H548.155H547.577H547.001H546.426H545.853H545.281H544.71H544.141H543.574H543.008H542.444H541.881H541.32H540.761H540.203H539.647H539.093H538.54H537.989H537.44H536.893H536.347H535.804H535.262H534.722H534.183H533.647H533.112H532.58H532.049H531.521H530.994H530.469H529.947H529.426H528.908H528.391H527.877H527.365H526.854H526.347H525.841H525.337H524.836H524.337H523.84H523.345H522.853H522.363H521.875H521.39H520.907H520.426H519.948H519.472H518.999H518.528H518.059H517.593H517.13H516.669H516.211H515.755H515.302H514.851H514.404H513.958H513.516H513.076H512.639H512.204H511.773H511.344H510.918H510.494H510.074H509.656H509.241H508.829H508.42H508.014H507.611H507.211H506.814H506.42H506.028H505.64H505.255H504.873H504.494H504.118H503.746H503.376H503.01H502.646H502.286H501.93H501.576H501.226H500.879H500.535H500.195H499.858H499.525H499.194H498.867H498.544H498.224H497.908H497.595H497.285H496.979H496.676H496.378H496.082H495.79H495.502H495.218H494.937H494.66H494.386H494.116H493.85H493.588H493.329H493.075H492.824H492.576H492.333H492.094H491.858H491.626H491.399H491.175H490.955H490.739H490.527H490.319H490.115H489.916H489.72H489.528H489.341H489.157H488.978H488.803H488.632H488.466H488.303H488.145H487.991H487.841H487.696H487.555H487.418H487.286H487.158H487.034H486.915H486.801H486.69H486.585H486.483H486.387H486.294H486.207H486.124H486.045H485.971H485.902H485.837H485.777H485.722H485.671H485.626H485.584H485.548H485.517H485.49H485.468H485.451H485.439H485.431C485.43 473.846 485.429 473.846 485.429 474.246V473.846C475.736 473.846 467.879 465.991 467.879 456.302V455.599C467.879 450.52 469.361 446.904 471.749 444.32C474.145 441.728 477.488 440.137 481.274 439.181C487.695 437.56 495.269 437.793 501.397 437.981C502.514 438.016 503.582 438.049 504.587 438.069C508.029 438.137 522.298 437.898 541.708 437.573C558.893 437.286 580.108 436.931 601.407 436.662C624.091 436.375 646.877 436.186 665.008 436.279C674.074 436.325 681.973 436.442 688.113 436.653C694.268 436.864 698.619 437.168 700.614 437.58Z" fill="#1B1D20" stroke="#F0F5FC" stroke-width="0.8"/>
<path d="M700.695 437.189C704.784 438.035 708.375 439.336 711.159 441.267C725.291 451.066 717.532 474.246 700.595 474.246C700.24 474.246 485.429 474.246 485.429 474.246C475.515 474.246 467.479 466.212 467.479 456.302V455.599C467.479 434.947 491.632 437.412 504.595 437.669C517.558 437.925 684.417 433.821 700.695 437.189Z" stroke="#F0F5FC" stroke-width="2.4" stroke-linecap="round" stroke-linejoin="round"/>
<path d="M485.815 653.867C485.815 661.672 479.487 667.998 471.679 667.998C463.872 667.998 457.544 661.672 457.544 653.867C457.544 646.062 463.872 639.736 471.679 639.736C479.487 639.736 485.815 646.062 485.815 653.867Z" fill="#1B1D20" stroke="#F0F5FC" stroke-width="0.8"/>
<path d="M486.215 653.867C486.215 661.893 479.708 668.398 471.679 668.398C463.651 668.398 457.144 661.893 457.144 653.867C457.144 645.841 463.651 639.336 471.679 639.336C479.708 639.336 486.215 645.841 486.215 653.867Z" fill="#1B1D20" stroke="#F0F5FC" stroke-width="2.4" stroke-linecap="round" stroke-linejoin="round"/>
<path d="M581.123 595.975L581.038 606.95L472.151 638.668L472.236 627.693L581.123 595.975Z" fill="#1B1D20" stroke="#F0F5FC" stroke-width="0.8"/>
<path d="M581.436 607.251L471.747 639.203L471.838 627.392L581.527 595.44L581.436 607.251Z" stroke="#F0F5FC" stroke-width="2.4" stroke-linecap="round" stroke-linejoin="round"/>
<path d="M683.842 653.867C683.842 661.893 690.349 668.398 698.378 668.398C706.406 668.398 712.913 661.893 712.913 653.867C712.913 645.841 706.406 639.336 698.378 639.336C690.349 639.336 683.842 645.841 683.842 653.867Z" fill="#1B1D20"/>
<path d="M683.842 653.867C683.842 661.893 690.349 668.398 698.378 668.398C706.406 668.398 712.913 661.893 712.913 653.867C712.913 645.841 706.406 639.336 698.378 639.336C690.349 639.336 683.842 645.841 683.842 653.867Z" stroke="#F0F5FC" stroke-width="2.4" stroke-linecap="round" stroke-linejoin="round"/>
<path d="M601.75 595.995L697.82 627.682L697.904 638.648L601.835 606.961L601.75 595.995Z" fill="#1B1D20" stroke="#F0F5FC" stroke-width="0.8"/>
<path d="M601.437 607.251L698.309 639.203L698.217 627.392L601.346 595.44L601.437 607.251Z" stroke="#F0F5FC" stroke-width="2.4" stroke-linecap="round" stroke-linejoin="round"/>
<path d="M512.717 473.846C514.635 464.698 516.484 455.529 518.333 446.359C522.07 427.824 525.807 409.285 530.122 390.908C535.228 369.155 545.392 352.348 565.514 341.358C594.878 325.321 636.243 319.052 669.282 316.046C678.962 315.165 695.583 314.217 711.389 315.864C719.292 316.688 726.974 318.16 733.477 320.604C739.984 323.05 745.272 326.456 748.437 331.125C748.658 331.45 748.825 331.935 748.921 332.593C749.018 333.246 749.041 334.044 748.994 334.972C748.902 336.83 748.535 339.169 747.961 341.849C746.813 347.206 744.847 353.869 742.647 360.652C740.447 367.433 738.016 374.323 735.941 380.131C735.512 381.33 735.099 382.484 734.705 383.581C733.196 387.791 731.984 391.172 731.367 393.115L731.748 393.236L731.367 393.115C730.38 396.222 729.599 398.467 728.783 400.096C727.97 401.718 727.141 402.69 726.077 403.291C725.002 403.896 723.638 404.152 721.691 404.232C720.24 404.291 718.502 404.253 716.361 404.206C715.627 404.19 714.845 404.173 714.012 404.158C699.644 403.906 685.277 403.671 670.909 403.435C663.731 403.318 656.552 403.2 649.374 403.08C644.357 402.997 638.947 403.065 633.976 404.125C629.001 405.186 624.43 407.248 621.127 411.177C620.882 411.468 620.628 411.908 620.365 412.454C620.098 413.006 619.812 413.69 619.51 414.488C618.904 416.085 618.225 418.154 617.496 420.567C616.039 425.393 614.38 431.613 612.72 438.207C609.442 451.224 606.157 465.715 604.409 473.849L512.717 473.846Z" fill="#1B1D20" stroke="#F0F5FC" stroke-width="0.8"/>
<path d="M512.225 474.246C518.058 446.465 523.244 418.452 529.732 390.816C534.858 368.983 545.077 352.064 565.322 341.007C594.765 324.927 636.205 318.654 669.246 315.648C688.627 313.884 735.849 311.844 748.768 330.9C753.052 337.219 734.849 383.471 731.748 393.236C727.806 405.653 727.006 404.786 714.005 404.558C692.459 404.181 670.914 403.84 649.367 403.48C639.339 403.313 627.886 403.758 621.434 411.434C618.041 415.47 608.19 458.114 604.733 474.249C573.898 474.248 543.062 474.247 512.225 474.246Z" fill="#1B1D20" stroke="#F0F5FC" stroke-width="2.4" stroke-linecap="round" stroke-linejoin="round"/>
<path d="M581.918 606.42L581.918 606.42L581.919 606.415L582.007 595.96H601.031L601.118 606.326L586.368 638.498H581.232L581.918 606.42Z" fill="#1B1D20" stroke="#F0F5FC" stroke-width="0.8"/>
<path d="M581.519 606.412L580.823 638.898H586.625L601.519 606.412L601.428 595.56H581.61L581.519 606.412Z" fill="#1B1D20" stroke="#F0F5FC" stroke-width="2.4" stroke-linecap="round" stroke-linejoin="round"/>
<path d="M597.403 653.867C597.403 661.672 591.075 667.998 583.267 667.998C575.459 667.998 569.131 661.672 569.131 653.867C569.131 646.062 575.459 639.736 583.267 639.736C591.075 639.736 597.403 646.062 597.403 653.867Z" fill="#1B1D20" stroke="#F0F5FC" stroke-width="0.8"/>
<path d="M597.803 653.867C597.803 661.893 591.296 668.398 583.267 668.398C575.239 668.398 568.731 661.893 568.731 653.867C568.731 645.841 575.239 639.336 583.267 639.336C591.296 639.336 597.803 645.841 597.803 653.867Z" fill="#1B1D20" stroke="#F0F5FC" stroke-width="2.4" stroke-linecap="round" stroke-linejoin="round"/>
<path d="M600.808 595.442H581.338V474.248H600.808V595.442Z" fill="#1B1D20"/>
<path d="M600.808 595.442H581.338V474.248H600.808V595.442Z" stroke="#F0F5FC" stroke-width="2.4" stroke-linecap="round" stroke-linejoin="round"/>
<path d="M600.808 474.249H581.338V485.325H600.808V474.249Z" fill="#1B1D20"/>
</g>
<defs>
<clipPath id="clip0_386_2">
<rect width="751" height="679" fill="white"/>
</clipPath>
<clipPath id="clip1_386_2">
<rect x="8" y="2.00003" width="401" height="292" rx="25" fill="white"/>
</clipPath>
</defs>
</svg>
