<svg width="52" height="52" viewBox="0 0 52 52" fill="none" xmlns="http://www.w3.org/2000/svg">
<path d="M25.5484 51.0968C39.6584 51.0968 51.0968 39.6584 51.0968 25.5484C51.0968 11.4384 39.6584 0 25.5484 0C11.4384 0 0 11.4384 0 25.5484C0 39.6584 11.4384 51.0968 25.5484 51.0968Z" fill="#682EC6"/>
<path d="M21.3662 45.591C19.751 44.644 24.2739 41.1786 25.5445 39.7596C26.7615 40.9848 31.5271 44.4039 30.0528 45.46C28.0631 46.8855 23.7258 46.9744 21.3662 45.591Z" fill="#F0F5FC"/>
<path d="M22.0258 33.926C17.332 33.926 15.0743 29.1134 10.3805 28.2816C9.84579 30.2423 9.21691 35.3361 13.1136 37.8474C15.7872 39.5704 26.7196 33.926 22.0258 33.926Z" fill="#F0F5FC"/>
<path d="M28.9629 33.926C33.6566 33.926 35.9144 29.1134 40.6082 28.2816C41.1429 30.2423 41.7718 35.3361 37.8751 37.8474C35.2014 39.5704 24.2691 33.926 28.9629 33.926Z" fill="#F0F5FC"/>
</svg>
