<svg width="198" height="52" viewBox="0 0 198 52" fill="none" xmlns="http://www.w3.org/2000/svg">
<path d="M73.4045 21.297C72.3172 21.297 71.3289 21.0297 70.4394 20.495C69.5697 19.9406 68.8778 19.208 68.3639 18.297C67.85 17.3861 67.593 16.3663 67.593 15.2376L67.6227 5.9703C67.6227 4.88118 67.8697 3.89109 68.3639 3C68.8778 2.0891 69.5697 1.36634 70.4394 0.831683C71.3289 0.277224 72.3172 0 73.4045 0C74.4917 0 75.4701 0.267327 76.3398 0.80198C77.2095 1.33663 77.9015 2.0594 78.4154 2.9703C78.9293 3.86139 79.1863 4.86139 79.1863 5.9703V7.33663C79.1863 7.41585 79.1468 7.45544 79.0677 7.45544H75.7468C75.6677 7.45544 75.6282 7.41585 75.6282 7.33663V5.9703C75.6282 5.31683 75.4108 4.75248 74.9759 4.27723C74.5608 3.80198 74.037 3.56436 73.4045 3.56436C72.6929 3.56436 72.1493 3.81188 71.7737 4.30693C71.3981 4.78218 71.2103 5.33664 71.2103 5.9703V15.2376C71.2103 15.9703 71.4179 16.5644 71.833 17.0198C72.2679 17.4752 72.7917 17.703 73.4045 17.703C74.037 17.703 74.5608 17.4555 74.9759 16.9604C75.4108 16.4456 75.6282 15.8712 75.6282 15.2376V13.8713C75.6282 13.792 75.6677 13.7525 75.7468 13.7525H79.0973C79.1764 13.7525 79.2159 13.792 79.2159 13.8713V15.2376C79.2159 16.3663 78.9491 17.3861 78.4154 18.297C77.9015 19.208 77.2095 19.9406 76.3398 20.495C75.4701 21.0297 74.4917 21.297 73.4045 21.297ZM86.8694 21.297C85.802 21.297 84.8235 21.0297 83.934 20.495C83.0643 19.9406 82.3626 19.2178 81.8288 18.3267C81.2951 17.4158 81.0283 16.4159 81.0283 15.3267L81.0579 5.91089C81.0579 4.82178 81.3149 3.83168 81.8288 2.94059C82.3626 2.04951 83.0742 1.33663 83.9637 0.80198C84.8532 0.267327 85.8218 0 86.8694 0C87.9368 0 88.9054 0.267327 89.7751 0.80198C90.6448 1.33663 91.3367 2.04951 91.8506 2.94059C92.3843 3.83168 92.6512 4.82178 92.6512 5.91089L92.6808 15.3267C92.6808 16.4159 92.414 17.4158 91.8803 18.3267C91.3664 19.2178 90.6646 19.9406 89.7751 20.495C88.9054 21.0297 87.9368 21.297 86.8694 21.297ZM86.8694 17.703C87.4624 17.703 87.9763 17.4653 88.4112 16.9901C88.8658 16.495 89.0932 15.9406 89.0932 15.3267L89.0635 5.91089C89.0635 5.25743 88.856 4.70297 88.4409 4.24752C88.0258 3.79208 87.5019 3.56436 86.8694 3.56436C86.2566 3.56436 85.7328 3.79208 85.2979 4.24752C84.863 4.68317 84.6456 5.23762 84.6456 5.91089V15.3267C84.6456 15.9802 84.863 16.5446 85.2979 17.0198C85.7328 17.4752 86.2566 17.703 86.8694 17.703ZM95.0835 21C94.9847 21 94.9352 20.9505 94.9352 20.8515L94.9945 0.445545C94.9945 0.366333 95.034 0.326733 95.1131 0.326733L100.658 0.29703C101.745 0.277224 102.733 0.534653 103.623 1.06931C104.532 1.60396 105.253 2.32673 105.787 3.23762C106.321 4.12871 106.588 5.11881 106.588 6.20792V14.7327C106.588 15.8812 106.311 16.9307 105.758 17.8812C105.204 18.8118 104.463 19.5544 103.534 20.1089C102.605 20.6634 101.557 20.9505 100.391 20.9703L95.0835 21ZM98.5525 17.3465H100.391C101.122 17.3465 101.735 17.0891 102.229 16.5743C102.743 16.0594 103 15.4455 103 14.7327V6.17822C103 5.54456 102.763 5 102.288 4.54455C101.834 4.06931 101.29 3.84158 100.658 3.86139L98.5822 3.89109L98.5525 17.3465ZM109.039 21C108.96 21 108.921 20.9505 108.921 20.8515L108.95 0.445545C108.95 0.366333 108.99 0.326733 109.069 0.326733H118.587C118.666 0.326733 118.705 0.376242 118.705 0.475248V3.80198C118.705 3.88119 118.666 3.92079 118.587 3.92079H112.509V8.55445H118.587C118.666 8.55445 118.705 8.59402 118.705 8.67327L118.735 12.0297C118.735 12.109 118.695 12.1485 118.616 12.1485H112.509V17.3465H118.616C118.695 17.3465 118.735 17.3961 118.735 17.4951V20.8812C118.735 20.9604 118.695 21 118.616 21H109.039ZM72.8115 51C71.7046 51 70.7063 50.7425 69.8168 50.2277C68.9471 49.6931 68.2552 48.9703 67.7413 48.0594C67.247 47.1287 67 46.0891 67 44.9406V43.5743C67 43.495 67.0395 43.4554 67.1186 43.4554H70.4691C70.5482 43.4554 70.5877 43.505 70.5877 43.604V44.9406C70.5877 45.6733 70.7952 46.2674 71.2103 46.7228C71.6254 47.1782 72.1592 47.4059 72.8115 47.4059C73.4045 47.4059 73.9184 47.1585 74.3533 46.6634C74.7882 46.1683 75.0056 45.5941 75.0056 44.9406V30.1782C75.0056 30.099 75.0451 30.0594 75.1242 30.0594H78.445C78.5241 30.0594 78.5636 30.1089 78.5636 30.2079L78.5933 44.9406C78.5933 46.0297 78.3264 47.0396 77.7927 47.9703C77.2788 48.8812 76.5869 49.6138 75.7172 50.1683C74.8475 50.7228 73.8789 51 72.8115 51ZM86.2896 51C85.242 51 84.2734 50.7327 83.3839 50.198C82.4944 49.6435 81.7827 48.9109 81.249 48C80.7351 47.0891 80.4781 46.0891 80.4781 45L80.5374 30.1485C80.5374 30.0693 80.5769 30.0297 80.656 30.0297H83.9769C84.056 30.0297 84.0955 30.0693 84.0955 30.1485V45C84.0955 45.6733 84.303 46.2475 84.7181 46.7228C85.153 47.1782 85.6768 47.4059 86.2896 47.4059C86.9221 47.4059 87.446 47.1782 87.8611 46.7228C88.296 46.2475 88.5134 45.6733 88.5134 45V30.1485C88.5134 30.0693 88.5529 30.0297 88.632 30.0297H91.9528C92.0319 30.0297 92.0714 30.0693 92.0714 30.1485L92.1307 45C92.1307 46.1089 91.8638 47.1188 91.3301 48.0297C90.8162 48.9406 90.1145 49.6634 89.225 50.198C88.3553 50.7327 87.3768 51 86.2896 51ZM99.8979 51C98.8305 51 97.8619 50.7327 96.9922 50.198C96.1225 49.6634 95.4207 48.9505 94.887 48.0594C94.3731 47.1485 94.1161 46.1386 94.1161 45.0297V35.6139C94.1161 34.5446 94.3731 33.5644 94.887 32.6733C95.4207 31.7623 96.1225 31.0396 96.9922 30.505C97.8817 29.9703 98.8503 29.703 99.8979 29.703C100.985 29.703 101.964 29.9703 102.833 30.505C103.723 31.0198 104.425 31.7228 104.938 32.6139C105.452 33.505 105.709 34.505 105.709 35.6139V36.9802C105.709 37.0594 105.66 37.099 105.561 37.099H102.24C102.161 37.099 102.122 37.0594 102.122 36.9802V35.8515C102.122 35.099 101.904 34.4753 101.469 33.9802C101.054 33.4851 100.53 33.2376 99.8979 33.2376C99.3247 33.2376 98.8107 33.4752 98.3561 33.9505C97.9212 34.4257 97.7038 34.9802 97.7038 35.6139V45.0297C97.7038 45.6832 97.9212 46.2475 98.3561 46.7228C98.791 47.1782 99.3049 47.4059 99.8979 47.4059C100.53 47.4059 101.054 47.1782 101.469 46.7228C101.904 46.2674 102.122 45.703 102.122 45.0297V43.5743H100.046C99.9474 43.5743 99.8979 43.5247 99.8979 43.4257V40.099C99.8979 40 99.9474 39.9505 100.046 39.9505H105.591C105.67 39.9505 105.709 40 105.709 40.099V45.0297C105.709 46.1386 105.443 47.1485 104.909 48.0594C104.395 48.9505 103.703 49.6634 102.833 50.198C101.964 50.7327 100.985 51 99.8979 51ZM113.247 51C112.179 51 111.21 50.7327 110.341 50.198C109.471 49.6634 108.769 48.9505 108.235 48.0594C107.722 47.1485 107.465 46.1386 107.465 45.0297V35.6139C107.465 34.5446 107.722 33.5644 108.235 32.6733C108.769 31.7623 109.471 31.0396 110.341 30.505C111.23 29.9703 112.199 29.703 113.247 29.703C114.333 29.703 115.312 29.9703 116.181 30.505C117.071 31.0198 117.773 31.7228 118.287 32.6139C118.801 33.505 119.057 34.505 119.057 35.6139V36.9802C119.057 37.0594 119.009 37.099 118.909 37.099H115.588C115.51 37.099 115.47 37.0594 115.47 36.9802V35.8515C115.47 35.099 115.253 34.4753 114.818 33.9802C114.402 33.4851 113.879 33.2376 113.247 33.2376C112.673 33.2376 112.159 33.4752 111.705 33.9505C111.27 34.4257 111.052 34.9802 111.052 35.6139V45.0297C111.052 45.6832 111.27 46.2475 111.705 46.7228C112.139 47.1782 112.654 47.4059 113.247 47.4059C113.879 47.4059 114.402 47.1782 114.818 46.7228C115.253 46.2674 115.47 45.703 115.47 45.0297V43.5743H113.395C113.295 43.5743 113.247 43.5247 113.247 43.4257V40.099C113.247 40 113.295 39.9505 113.395 39.9505H118.939C119.018 39.9505 119.057 40 119.057 40.099V45.0297C119.057 46.1386 118.791 47.1485 118.257 48.0594C117.743 48.9505 117.051 49.6634 116.181 50.198C115.312 50.7327 114.333 51 113.247 51ZM121.287 50.703C121.208 50.703 121.169 50.6534 121.169 50.5545L121.199 30.1485C121.199 30.0693 121.238 30.0297 121.317 30.0297H130.835C130.914 30.0297 130.953 30.0792 130.953 30.1782V33.505C130.953 33.5842 130.914 33.6238 130.835 33.6238H124.757V38.2574H130.835C130.914 38.2574 130.953 38.297 130.953 38.3762L130.983 41.7327C130.983 41.8119 130.943 41.8515 130.864 41.8515H124.757V47.0495H130.864C130.943 47.0495 130.983 47.099 130.983 47.198V50.5842C130.983 50.6634 130.943 50.703 130.864 50.703H121.287ZM133.738 50.703C133.659 50.703 133.62 50.6534 133.62 50.5545L133.679 30.1485C133.679 30.0693 133.718 30.0297 133.798 30.0297H139.787C140.854 30.0297 141.832 30.297 142.722 30.8317C143.631 31.3465 144.353 32.0495 144.887 32.9406C145.421 33.8118 145.687 34.802 145.687 35.9109C145.687 36.6436 145.578 37.3069 145.362 37.901C145.144 38.4752 144.887 38.9703 144.59 39.3861C144.294 39.7821 144.027 40.0792 143.79 40.2772C144.857 41.4653 145.39 42.8614 145.39 44.4653L145.421 50.5545C145.421 50.6534 145.371 50.703 145.272 50.703H141.922C141.843 50.703 141.803 50.6733 141.803 50.6139V44.4653C141.803 43.7525 141.546 43.1386 141.032 42.6238C140.538 42.0891 139.925 41.8218 139.194 41.8218H137.237L137.208 50.5545C137.208 50.6534 137.167 50.703 137.088 50.703H133.738ZM137.237 38.2574H139.787C140.4 38.2574 140.943 38.0297 141.418 37.5743C141.891 37.1189 142.129 36.5644 142.129 35.9109C142.129 35.2773 141.891 34.7326 141.418 34.2772C140.963 33.8218 140.419 33.5941 139.787 33.5941H137.237V38.2574ZM148.19 50.703C148.032 50.703 147.954 50.6337 147.954 50.495L147.923 30.2673C147.923 30.1089 148.002 30.0297 148.161 30.0297H150.829L155.84 41.7327L155.692 30.2673C155.692 30.1089 155.781 30.0297 155.959 30.0297H158.894C159.012 30.0297 159.072 30.1089 159.072 30.2673L159.101 50.5248C159.101 50.6436 159.053 50.703 158.953 50.703H156.344L151.215 39.7723L151.422 50.4653C151.422 50.6237 151.333 50.703 151.155 50.703H148.19ZM160.67 50.5545L164.346 30.1485C164.365 30.0693 164.415 30.0297 164.494 30.0297H168.793C168.872 30.0297 168.922 30.0693 168.942 30.1485L172.47 50.5545C172.489 50.6534 172.45 50.703 172.351 50.703H169.06C168.981 50.703 168.931 50.6534 168.911 50.5545L168.586 48.3861H164.553L164.228 50.5545C164.208 50.6534 164.158 50.703 164.079 50.703H160.788C160.709 50.703 160.67 50.6534 160.67 50.5545ZM165.146 45.2079H167.993L166.777 36.8614L166.6 35.7624L166.48 36.8614L165.146 45.2079ZM179.41 51C178.362 51 177.394 50.7327 176.505 50.198C175.615 49.6435 174.903 48.9109 174.369 48C173.856 47.0891 173.599 46.0891 173.599 45L173.658 30.1485C173.658 30.0693 173.697 30.0297 173.776 30.0297H177.098C177.176 30.0297 177.216 30.0693 177.216 30.1485V45C177.216 45.6733 177.423 46.2475 177.839 46.7228C178.273 47.1782 178.797 47.4059 179.41 47.4059C180.043 47.4059 180.567 47.1782 180.981 46.7228C181.417 46.2475 181.633 45.6733 181.633 45V30.1485C181.633 30.0693 181.674 30.0297 181.753 30.0297H185.073C185.152 30.0297 185.191 30.0693 185.191 30.1485L185.252 45C185.252 46.1089 184.984 47.1188 184.45 48.0297C183.937 48.9406 183.235 49.6634 182.346 50.198C181.476 50.7327 180.497 51 179.41 51ZM190.557 50.703C190.479 50.703 190.439 50.6534 190.439 50.5545V33.6238H186.585C186.485 33.6238 186.436 33.5742 186.436 33.4752L186.465 30.1485C186.465 30.0693 186.505 30.0297 186.585 30.0297H197.852C197.95 30.0297 198 30.0693 198 30.1485V33.4752C198 33.5742 197.959 33.6238 197.881 33.6238H193.997L194.026 50.5545C194.026 50.6534 193.987 50.703 193.908 50.703H190.557Z" fill="#202020"/>
<path d="M25.5484 51.0968C39.6584 51.0968 51.0968 39.6584 51.0968 25.5484C51.0968 11.4384 39.6584 0 25.5484 0C11.4384 0 0 11.4384 0 25.5484C0 39.6584 11.4384 51.0968 25.5484 51.0968Z" fill="#682EC6"/>
<path d="M21.3662 45.591C19.751 44.644 24.2739 41.1786 25.5445 39.7596C26.7615 40.9848 31.5271 44.4039 30.0528 45.46C28.0631 46.8855 23.7258 46.9744 21.3662 45.591Z" fill="#F0F5FC"/>
<path d="M22.0258 33.926C17.332 33.926 15.0743 29.1134 10.3805 28.2816C9.84579 30.2423 9.21691 35.3361 13.1136 37.8474C15.7872 39.5704 26.7196 33.926 22.0258 33.926Z" fill="#F0F5FC"/>
<path d="M28.9629 33.926C33.6566 33.926 35.9144 29.1134 40.6082 28.2816C41.1429 30.2423 41.7718 35.3361 37.8751 37.8474C35.2014 39.5704 24.2691 33.926 28.9629 33.926Z" fill="#F0F5FC"/>
</svg>
