<svg width="275" height="94" viewBox="0 0 275 94" fill="none" xmlns="http://www.w3.org/2000/svg">
<g clip-path="url(#clip0_1344_5)">
<path d="M46 92C71.4051 92 92 71.4051 92 46C92 20.5949 71.4051 0 46 0C20.5949 0 0 20.5949 0 46C0 71.4051 20.5949 92 46 92Z" fill="#682EC6"/>
<path d="M38.47 82.0869C35.5617 80.3819 43.7052 74.1423 45.993 71.5875C48.1841 73.7934 56.7647 79.9495 54.1102 81.8511C50.5277 84.4177 42.7184 84.5777 38.47 82.0869Z" fill="#E3EBF5"/>
<path d="M39.6576 61.0839C31.2064 61.0839 27.1413 52.4188 18.6902 50.9211C17.7274 54.4514 16.5951 63.6229 23.611 68.1444C28.425 71.2467 48.1087 61.0839 39.6576 61.0839Z" fill="#E3EBF5"/>
<path d="M52.1482 61.0839C60.5994 61.0839 64.6645 52.4188 73.1157 50.9211C74.0785 54.4514 75.2107 63.6229 68.1947 68.1444C63.3808 71.2467 43.697 61.0839 52.1482 61.0839Z" fill="#E3EBF5"/>
<path d="M127.408 34.48C124.88 34.48 122.944 33.76 121.6 32.32C120.288 30.88 119.632 28.848 119.632 26.224V8.176C119.632 5.552 120.288 3.52 121.6 2.08C122.944 0.639998 124.88 -0.0800018 127.408 -0.0800018C129.936 -0.0800018 131.856 0.639998 133.168 2.08C134.512 3.52 135.184 5.552 135.184 8.176V11.728H130.192V7.84C130.192 5.76 129.312 4.72 127.552 4.72C125.792 4.72 124.912 5.76 124.912 7.84V26.608C124.912 28.656 125.792 29.68 127.552 29.68C129.312 29.68 130.192 28.656 130.192 26.608V21.472H135.184V26.224C135.184 28.848 134.512 30.88 133.168 32.32C131.856 33.76 129.936 34.48 127.408 34.48ZM146.069 34.48C143.477 34.48 141.493 33.744 140.117 32.272C138.741 30.8 138.053 28.72 138.053 26.032V8.368C138.053 5.68 138.741 3.6 140.117 2.128C141.493 0.655998 143.477 -0.0800018 146.069 -0.0800018C148.661 -0.0800018 150.645 0.655998 152.021 2.128C153.397 3.6 154.085 5.68 154.085 8.368V26.032C154.085 28.72 153.397 30.8 152.021 32.272C150.645 33.744 148.661 34.48 146.069 34.48ZM146.069 29.68C147.893 29.68 148.805 28.576 148.805 26.368V8.032C148.805 5.824 147.893 4.72 146.069 4.72C144.245 4.72 143.333 5.824 143.333 8.032V26.368C143.333 28.576 144.245 29.68 146.069 29.68ZM157.656 0.399998H165.72C168.344 0.399998 170.312 1.104 171.624 2.512C172.936 3.92 173.592 5.984 173.592 8.704V25.696C173.592 28.416 172.936 30.48 171.624 31.888C170.312 33.296 168.344 34 165.72 34H157.656V0.399998ZM165.624 29.2C166.488 29.2 167.144 28.944 167.592 28.432C168.072 27.92 168.312 27.088 168.312 25.936V8.464C168.312 7.312 168.072 6.48 167.592 5.968C167.144 5.456 166.488 5.2 165.624 5.2H162.936V29.2H165.624ZM177.156 0.399998H191.556V5.2H182.436V14.08H189.684V18.88H182.436V29.2H191.556V34H177.156V0.399998ZM118.72 58.4H123.808L126.16 84.224H126.256L128.752 58.4H134.512L137.008 84.224H137.104L139.456 58.4H144.016L140.608 92H134.032L131.632 69.344H131.536L129.136 92H122.128L118.72 58.4ZM146.687 58.4H161.087V63.2H151.967V72.08H159.215V76.88H151.967V87.2H161.087V92H146.687V58.4ZM164.124 58.4H172.092C174.812 58.4 176.796 59.04 178.044 60.32C179.292 61.568 179.916 63.504 179.916 66.128V67.472C179.916 69.2 179.628 70.608 179.052 71.696C178.508 72.784 177.66 73.568 176.508 74.048V74.144C179.132 75.04 180.444 77.376 180.444 81.152V84.032C180.444 86.624 179.756 88.608 178.38 89.984C177.036 91.328 175.052 92 172.428 92H164.124V58.4ZM171.468 72.08C172.524 72.08 173.308 71.808 173.82 71.264C174.364 70.72 174.636 69.808 174.636 68.528V66.656C174.636 65.44 174.412 64.56 173.964 64.016C173.548 63.472 172.876 63.2 171.948 63.2H169.404V72.08H171.468ZM172.428 87.2C173.356 87.2 174.044 86.96 174.492 86.48C174.94 85.968 175.164 85.104 175.164 83.888V80.96C175.164 79.424 174.892 78.368 174.348 77.792C173.836 77.184 172.972 76.88 171.756 76.88H169.404V87.2H172.428ZM190.395 92.48C187.835 92.48 185.899 91.76 184.587 90.32C183.275 88.848 182.619 86.752 182.619 84.032V82.112H187.611V84.416C187.611 86.592 188.523 87.68 190.347 87.68C191.243 87.68 191.915 87.424 192.363 86.912C192.843 86.368 193.083 85.504 193.083 84.32C193.083 82.912 192.763 81.68 192.123 80.624C191.483 79.536 190.299 78.24 188.571 76.736C186.395 74.816 184.875 73.088 184.011 71.552C183.147 69.984 182.715 68.224 182.715 66.272C182.715 63.616 183.387 61.568 184.73 60.128C186.075 58.656 188.027 57.92 190.587 57.92C193.115 57.92 195.019 58.656 196.299 60.128C197.611 61.568 198.267 63.648 198.267 66.368V67.76H193.275V66.032C193.275 64.88 193.051 64.048 192.603 63.536C192.155 62.992 191.499 62.72 190.635 62.72C188.875 62.72 187.995 63.792 187.995 65.936C187.995 67.152 188.315 68.288 188.955 69.344C189.627 70.4 190.827 71.68 192.555 73.184C194.763 75.104 196.283 76.848 197.115 78.416C197.947 79.984 198.363 81.824 198.363 83.936C198.363 86.688 197.675 88.8 196.299 90.272C194.955 91.744 192.987 92.48 190.395 92.48ZM201.39 58.4H206.67V72.08H212.334V58.4H217.614V92H212.334V76.88H206.67V92H201.39V58.4ZM225.626 58.4H232.778L238.25 92H232.97L232.01 85.328V85.424H226.01L225.05 92H220.154L225.626 58.4ZM231.386 80.864L229.034 64.256H228.938L226.634 80.864H231.386ZM240.812 58.4H248.636C251.356 58.4 253.34 59.04 254.588 60.32C255.836 61.568 256.46 63.504 256.46 66.128V68.192C256.46 71.68 255.308 73.888 253.004 74.816V74.912C254.284 75.296 255.18 76.08 255.692 77.264C256.236 78.448 256.508 80.032 256.508 82.016V87.92C256.508 88.88 256.54 89.664 256.604 90.272C256.668 90.848 256.828 91.424 257.084 92H251.708C251.516 91.456 251.388 90.944 251.324 90.464C251.26 89.984 251.228 89.12 251.228 87.872V81.728C251.228 80.192 250.972 79.12 250.46 78.512C249.98 77.904 249.132 77.6 247.916 77.6H246.092V92H240.812V58.4ZM248.012 72.8C249.068 72.8 249.852 72.528 250.364 71.984C250.908 71.44 251.18 70.528 251.18 69.248V66.656C251.18 65.44 250.956 64.56 250.508 64.016C250.092 63.472 249.42 63.2 248.492 63.2H246.092V72.8H248.012ZM260.171 58.4H274.571V63.2H265.451V72.08H272.699V76.88H265.451V87.2H274.571V92H260.171V58.4Z" fill="#202020"/>
</g>
<defs>
<clipPath id="clip0_1344_5">
<rect width="275" height="94" fill="white"/>
</clipPath>
</defs>
</svg>
