<svg width="222" height="318" viewBox="0 0 222 318" fill="none" xmlns="http://www.w3.org/2000/svg">
<path d="M91.118 315.944C77.575 316.16 62.095 311.96 45.049 302.728C-2.66497 276.887 -8.08997 232.871 15.9048 198.498C39.9 164.126 85.326 103.495 97.982 84.1919L192.246 139.495C174.08 177.392 144.839 296.883 91.118 315.944Z" fill="#682EC6"/>
<path d="M91.118 315.944C77.575 316.16 62.094 311.96 45.048 302.727C-2.66543 276.887 -8.09043 232.871 15.9044 198.499C39.899 164.126 85.326 103.495 97.981 84.1919L192.245 139.495C174.08 177.392 142.273 297.744 91.118 315.944Z" stroke="#202020" stroke-width="3" stroke-linecap="round" stroke-linejoin="round"/>
<path d="M130.644 47.4386C130.644 47.4386 135.031 25.848 133.15 14.4122C132.067 8.04642 128.362 2.63732 122.906 3.49572C116.208 4.54212 113.917 9.37372 113.646 15.0706C113.611 24.4226 112.529 29.038 105.297 49.1089C96.6561 73.0771 91.6621 96.7041 91.6621 96.7041" fill="white"/>
<path d="M130.644 47.4386C130.644 47.4386 135.031 25.848 133.15 14.4122C132.067 8.04642 128.362 2.63732 122.906 3.49572C116.208 4.54212 113.917 9.37372 113.646 15.0706C113.611 24.4226 112.529 29.038 105.297 49.1089C96.6561 73.0771 91.6621 96.7041 91.6621 96.7041" stroke="#202020" stroke-width="3" stroke-linecap="round" stroke-linejoin="round"/>
<path d="M153.135 52.9555C155.73 45.6345 158.237 20.0334 152.562 8.58296C150.504 4.55356 146.406 0.610756 140.804 2.47656C134.931 4.43796 133.735 10.7624 135.242 16.2487C137.852 25.7479 130.645 47.4384 130.645 47.4384C125.331 61.1077 147.964 67.5698 153.135 52.9555Z" fill="white"/>
<path d="M153.135 52.9555C155.73 45.6345 158.237 20.0334 152.562 8.58296C150.504 4.55356 146.406 0.610756 140.804 2.47656C134.931 4.43796 133.735 10.7624 135.242 16.2487C137.852 25.7479 130.645 47.4384 130.645 47.4384C125.331 61.1077 147.964 67.5698 153.135 52.9555Z" stroke="#202020" stroke-width="3" stroke-linecap="round" stroke-linejoin="round"/>
<path d="M174.834 59.9858C174.834 59.9858 182.658 29.2542 175.449 14.705C172.943 8.49374 168.109 4.80264 162.791 6.70614C157.743 8.52494 155.356 13.5215 157.302 20.2383C160.137 30.059 153.078 52.9396 153.078 52.9396C148.218 66.3466 170.632 75.5559 174.834 59.9858Z" fill="white"/>
<path d="M174.834 59.9858C174.834 59.9858 182.658 29.2542 175.449 14.705C172.943 8.49374 168.109 4.80264 162.791 6.70614C157.743 8.52494 155.356 13.5215 157.302 20.2383C160.137 30.059 153.078 52.9396 153.078 52.9396C148.218 66.3466 170.632 75.5559 174.834 59.9858Z" stroke="#202020" stroke-width="3" stroke-linecap="round" stroke-linejoin="round"/>
<path d="M174.835 59.9851C174.835 59.9851 178.885 43.2096 184.832 24.3859C186.968 17.9187 192.281 14.6172 197.644 16.0259C202.934 17.4146 205.503 22.9829 204.352 30.8034C201.665 45.3187 199.967 55.448 197.486 68.2079C194.966 81.1761 169.336 78.6091 174.835 59.9851Z" fill="white"/>
<path d="M174.835 59.9851C174.835 59.9851 178.885 43.2096 184.832 24.3859C186.968 17.9187 192.281 14.6172 197.644 16.0259C202.934 17.4146 205.503 22.9829 204.352 30.8034C201.665 45.3187 199.967 55.448 197.486 68.2079C194.966 81.1761 169.336 78.6091 174.835 59.9851Z" stroke="#202020" stroke-width="3" stroke-linecap="round" stroke-linejoin="round"/>
<path d="M108.129 41.6191C105.39 49.0337 102.795 56.3251 100.503 63.4541C98.2108 70.584 93.2878 88.467 91.6618 96.704C82.9618 122.091 192.133 180.586 197.692 123.081L198.175 63.8279" fill="white"/>
<path d="M108.129 41.6191C105.39 49.0337 102.795 56.3251 100.503 63.4541C98.2108 70.584 93.2878 88.467 91.6618 96.704C82.9618 122.091 192.133 180.586 197.692 123.081L198.175 63.8279" stroke="#202020" stroke-width="3" stroke-linecap="round" stroke-linejoin="round"/>
<path d="M197.693 123.081C197.693 123.081 209.959 92.777 218.404 69.969C222.715 58.3448 219.454 52.8927 214.207 49.8885C209.759 47.3423 202.444 46.4381 194.683 58.1558C191.509 62.9427 187.406 67.6698 187.406 67.6698C187.406 67.6698 174.121 70.364 162.783 81.386" fill="white"/>
<path d="M197.693 123.081C197.693 123.081 209.959 92.777 218.404 69.969C222.715 58.3448 219.454 52.8927 214.207 49.8885C209.759 47.3423 202.444 46.4381 194.683 58.1558C191.509 62.9427 187.406 67.6698 187.406 67.6698C187.406 67.6698 174.121 70.364 162.783 81.386" stroke="#202020" stroke-width="3" stroke-linecap="round" stroke-linejoin="round"/>
</svg>
