<svg width="854" height="500" viewBox="0 0 854 500" fill="none" xmlns="http://www.w3.org/2000/svg">
<g clip-path="url(#clip0_87_2478)">
<mask id="mask0_87_2478" style="mask-type:luminance" maskUnits="userSpaceOnUse" x="-33" y="-105" width="956" height="717">
<path d="M923 -105H-33V612H923V-105Z" fill="white"/>
</mask>
<g mask="url(#mask0_87_2478)">
<path d="M768.153 483.256L355.021 482.897C340.881 482.897 329.42 471.436 329.42 457.296C329.42 443.157 340.881 431.696 355.021 431.696L759.071 410.544C773.21 410.544 793.754 443.516 793.754 457.655C793.754 471.794 782.292 483.256 768.153 483.256Z" fill="#202020"/>
<path d="M768.153 483.256L355.021 482.897C340.881 482.897 329.42 471.436 329.42 457.296C329.42 443.157 340.881 431.696 355.021 431.696L759.071 410.544C773.21 410.544 793.754 443.516 793.754 457.655C793.754 471.794 782.292 483.256 768.153 483.256Z" stroke="#202020" stroke-width="2.4" stroke-linecap="round" stroke-linejoin="round"/>
<path d="M825.615 223.302L784.984 205.451L784.642 251.71L767.662 211.049L738.816 248.368L750.191 205.122L704.762 215.392L741.198 189.598L699.408 168.985L744.008 171.774L725.573 128.67L757.882 159.529L770.725 114.551L776.757 159.352L815.518 134.168L790.434 171.262L836.826 177.304L793.744 189.348L825.615 223.302Z" fill="white"/>
<path d="M825.615 223.302L784.984 205.451L784.642 251.71L767.662 211.049L738.816 248.368L750.191 205.122L704.762 215.392L741.198 189.598L699.408 168.985L744.008 171.774L725.573 128.67L757.882 159.529L770.725 114.551L776.757 159.352L815.518 134.168L790.434 171.262L836.826 177.304L793.744 189.348L825.615 223.302Z" stroke="#202020" stroke-width="2.01076" stroke-linecap="round" stroke-linejoin="round"/>
<path d="M401.185 397.449L107.272 393.442C88.2661 393.182 73.0684 377.565 73.3272 358.56L77.5303 49.903L440.269 54.8493L436.066 363.506C435.807 382.511 420.19 397.709 401.185 397.449Z" fill="#202020"/>
<path d="M401.185 397.449L107.272 393.442C88.2661 393.182 73.0684 377.565 73.3272 358.56L77.5303 49.903L440.269 54.8493L436.066 363.506C435.807 382.511 420.19 397.709 401.185 397.449Z" stroke="#202020" stroke-width="2.4" stroke-linecap="round" stroke-linejoin="round"/>
<mask id="mask1_87_2478" style="mask-type:alpha" maskUnits="userSpaceOnUse" x="72" y="48" width="370" height="351">
<path d="M401.185 397.449L107.272 393.442C88.2661 393.182 73.0684 377.565 73.3272 358.56L77.5303 49.903L440.269 54.8493L436.066 363.506C435.807 382.511 420.19 397.709 401.185 397.449Z" fill="#231F20"/>
<path d="M401.185 397.449L107.272 393.442C88.2661 393.182 73.0684 377.565 73.3272 358.56L77.5303 49.903L440.269 54.8493L436.066 363.506C435.807 382.511 420.19 397.709 401.185 397.449Z" stroke="#231F20" stroke-width="2.4" stroke-linecap="round" stroke-linejoin="round"/>
</mask>
<g mask="url(#mask1_87_2478)">
<path d="M153.225 88.5434L191.079 89.0592" stroke="white" stroke-width="2.4" stroke-linecap="round" stroke-linejoin="round"/>
<path d="M220.307 89.4575L406.433 91.9937" stroke="white" stroke-width="2.4" stroke-linecap="round" stroke-linejoin="round"/>
<path d="M219.902 119.124L288.751 120.062" stroke="white" stroke-width="2.4" stroke-linecap="round" stroke-linejoin="round"/>
<path d="M219.498 148.79L258.851 149.326" stroke="white" stroke-width="2.4" stroke-linecap="round" stroke-linejoin="round"/>
<path d="M285.892 149.695L405.624 151.326" stroke="white" stroke-width="2.4" stroke-linecap="round" stroke-linejoin="round"/>
<path d="M153.13 147.886L189.317 148.379" stroke="white" stroke-width="2.4" stroke-linecap="round" stroke-linejoin="round"/>
<path d="M219.095 178.456L317.045 179.79" stroke="white" stroke-width="2.4" stroke-linecap="round" stroke-linejoin="round"/>
<path d="M344.086 180.159L405.22 180.992" stroke="white" stroke-width="2.4" stroke-linecap="round" stroke-linejoin="round"/>
<path d="M218.691 208.121L316.641 209.456" stroke="white" stroke-width="2.4" stroke-linecap="round" stroke-linejoin="round"/>
<path d="M217.333 237.774L407.736 240.369" stroke="white" stroke-width="2.4" stroke-linecap="round" stroke-linejoin="round"/>
<path d="M151.513 266.549L187.7 267.042" stroke="white" stroke-width="2.4" stroke-linecap="round" stroke-linejoin="round"/>
<path d="M217.881 267.453L365.086 269.459" stroke="white" stroke-width="2.4" stroke-linecap="round" stroke-linejoin="round"/>
<path d="M217.477 297.119L406.927 299.7" stroke="white" stroke-width="2.4" stroke-linecap="round" stroke-linejoin="round"/>
<path d="M217.073 326.785L406.523 329.367" stroke="white" stroke-width="2.4" stroke-linecap="round" stroke-linejoin="round"/>
<path d="M295.257 357.522L363.872 358.457" stroke="white" stroke-width="2.4" stroke-linecap="round" stroke-linejoin="round"/>
<path d="M216.668 356.451L268.215 357.154" stroke="white" stroke-width="2.4" stroke-linecap="round" stroke-linejoin="round"/>
</g>
<path d="M440.269 54.8459L440.442 42.1445C440.701 23.1403 425.504 7.52376 406.498 7.26463L112.588 3.25732C93.5822 2.99819 77.965 18.1945 77.7062 37.1988L77.5332 49.9002L440.269 54.8459Z" fill="white"/>
<path d="M440.269 54.8459L440.442 42.1445C440.701 23.1403 425.504 7.52376 406.498 7.26463L112.588 3.25732C93.5822 2.99819 77.965 18.1945 77.7062 37.1988L77.5332 49.9002L440.269 54.8459Z" stroke="#202020" stroke-width="2.4" stroke-linecap="round" stroke-linejoin="round"/>
<path d="M119.993 392.199L124.631 51.8241" stroke="white" stroke-width="2.4" stroke-linejoin="round"/>
<path d="M109.129 147.825C109.058 152.997 104.808 157.134 99.6352 157.063C94.4627 156.993 90.3263 152.742 90.3968 147.57C90.4673 142.397 94.718 138.261 99.8904 138.331C105.063 138.402 109.199 142.653 109.129 147.825Z" fill="#682EC6"/>
<path d="M109.129 147.825C109.058 152.997 104.808 157.134 99.6352 157.063C94.4627 156.993 90.3263 152.742 90.3968 147.57C90.4673 142.397 94.718 138.261 99.8904 138.331C105.063 138.402 109.199 142.653 109.129 147.825Z" stroke="#202020" stroke-width="2.4" stroke-linecap="round" stroke-linejoin="round"/>
<path d="M109.937 88.4935C109.867 93.6659 105.616 97.8024 100.444 97.7319C95.2713 97.6614 91.1349 93.4107 91.2054 88.2382C91.2759 83.0658 95.5266 78.9294 100.699 78.9998C105.871 79.0703 110.008 83.3211 109.937 88.4935Z" fill="#682EC6"/>
<path d="M109.937 88.4935C109.867 93.6659 105.616 97.8024 100.444 97.7319C95.2713 97.6614 91.1349 93.4107 91.2054 88.2382C91.2759 83.0658 95.5266 78.9294 100.699 78.9998C105.871 79.0703 110.008 83.3211 109.937 88.4935Z" stroke="#202020" stroke-width="2.4" stroke-linecap="round" stroke-linejoin="round"/>
<path d="M614.388 106.419C614.508 110.458 608.364 113.648 607.288 117.328C606.173 121.142 609.587 127.132 607.391 130.345C605.174 133.59 598.335 132.584 595.227 134.99C592.15 137.372 591.412 144.255 587.671 145.594C584.06 146.885 579.138 142.072 575.099 142.192C571.059 142.311 566.43 147.407 562.749 146.331C558.936 145.216 557.791 138.389 554.578 136.193C551.333 133.976 544.566 135.384 542.161 132.276C539.779 129.199 542.833 123.017 541.495 119.276C540.203 115.665 533.881 112.845 533.762 108.805C533.642 104.766 539.786 101.576 540.862 97.8958C541.977 94.0821 538.563 88.0917 540.758 84.8791C542.976 81.6343 549.814 82.6399 552.922 80.2343C555.999 77.8526 556.738 70.9694 560.479 69.6306C564.089 68.3387 569.012 73.152 573.051 73.0324C577.09 72.9129 581.72 67.8168 585.4 68.8928C589.214 70.008 590.359 76.8354 593.572 79.0309C596.817 81.2485 603.584 79.8402 605.989 82.9481C608.371 86.0252 605.316 92.207 606.655 95.9481C607.947 99.5586 614.268 102.379 614.388 106.419Z" fill="#202020"/>
<path d="M614.388 106.419C614.508 110.458 608.364 113.648 607.288 117.328C606.173 121.142 609.587 127.132 607.391 130.345C605.174 133.59 598.335 132.584 595.227 134.99C592.15 137.372 591.412 144.255 587.671 145.594C584.06 146.885 579.138 142.072 575.099 142.192C571.059 142.311 566.43 147.407 562.749 146.331C558.936 145.216 557.791 138.389 554.578 136.193C551.333 133.976 544.566 135.384 542.161 132.276C539.779 129.199 542.833 123.017 541.495 119.276C540.203 115.665 533.881 112.845 533.762 108.805C533.642 104.766 539.786 101.576 540.862 97.8958C541.977 94.0821 538.563 88.0917 540.758 84.8791C542.976 81.6343 549.814 82.6399 552.922 80.2343C555.999 77.8526 556.738 70.9694 560.479 69.6306C564.089 68.3387 569.012 73.152 573.051 73.0324C577.09 72.9129 581.72 67.8168 585.4 68.8928C589.214 70.008 590.359 76.8354 593.572 79.0309C596.817 81.2485 603.584 79.8402 605.989 82.9481C608.371 86.0252 605.316 92.207 606.655 95.9481C607.947 99.5586 614.268 102.379 614.388 106.419Z" stroke="#202020" stroke-width="2.4" stroke-linecap="round" stroke-linejoin="round"/>
<path d="M542.305 158.862C544.047 142.721 547.601 108.262 547.81 107.065C549.715 96.1128 559.105 87.6384 570.649 87.2966C582.193 86.9549 592.068 94.8591 594.618 105.679C594.893 106.848 600.266 140.348 603.092 156.546C605.005 167.516 541.49 166.407 542.305 158.862Z" fill="white"/>
<path d="M542.305 158.862C544.047 142.721 547.601 108.262 547.81 107.065C549.715 96.1128 559.105 87.6384 570.649 87.2966C582.193 86.9549 592.068 94.8591 594.618 105.679C594.893 106.848 600.266 140.348 603.092 156.546C605.005 167.516 541.49 166.407 542.305 158.862Z" stroke="#202020" stroke-width="2.4" stroke-linecap="round" stroke-linejoin="round"/>
<path d="M594.715 105.578C592.094 94.6985 582.174 86.9441 570.632 87.3155C559.051 87.7159 550.133 96.0232 547.94 106.612C549.413 106.062 551.009 105.722 552.273 105.996C555.904 106.717 559.394 112.412 562.886 111.955C566.506 111.48 568.617 105.441 571.624 103.51C575.087 101.285 580.635 100.877 582.592 107.021C584.043 111.572 580.663 116.213 582.851 119.04C585.06 121.894 591.395 120.351 594.369 122.397C596.196 123.646 597.206 126.703 598.559 129.033C596.689 116.786 594.87 106.226 594.715 105.578Z" fill="#202020"/>
<path d="M594.715 105.578C592.094 94.6985 582.174 86.9441 570.632 87.3155C559.051 87.7159 550.133 96.0232 547.94 106.612C549.413 106.062 551.009 105.722 552.273 105.996C555.904 106.717 559.394 112.412 562.886 111.955C566.506 111.48 568.617 105.441 571.624 103.51C575.087 101.285 580.635 100.877 582.592 107.021C584.043 111.572 580.663 116.213 582.851 119.04C585.06 121.894 591.395 120.351 594.369 122.397C596.196 123.646 597.206 126.703 598.559 129.033C596.689 116.786 594.87 106.226 594.715 105.578Z" stroke="#202020" stroke-width="2.4" stroke-linecap="round" stroke-linejoin="round"/>
<path d="M549.753 130.415C549.753 130.415 553.114 134.415 560.758 134.188C568.403 133.962 573.068 129.998 573.068 129.998" stroke="#202020" stroke-width="2.4" stroke-linecap="round" stroke-linejoin="round"/>
<path d="M546.731 120.265C546.731 120.265 549.947 117.307 553.087 117.838C556.228 118.37 557.777 121.597 557.777 121.597" stroke="#202020" stroke-width="2.4" stroke-linecap="round" stroke-linejoin="round"/>
<path d="M565.54 121.462C565.54 121.462 567.925 118.391 571.782 118.854C575.638 119.318 576.456 122.407 576.456 122.407" stroke="#202020" stroke-width="2.4" stroke-linecap="round" stroke-linejoin="round"/>
<path d="M487.928 153.185L638.184 154.386C669.911 155.276 686.326 217.647 686.326 217.647C686.326 217.647 730.31 420.948 720.182 428.62C710.054 436.291 394.717 437.143 380.688 421.793C366.66 406.443 400.891 336.047 413.621 307.693L431.737 208.56C431.737 208.56 452.504 162.982 487.928 153.185Z" fill="white"/>
<path d="M487.928 153.185L638.184 154.386C669.911 155.276 686.326 217.647 686.326 217.647C686.326 217.647 730.31 420.948 720.182 428.62C710.054 436.291 394.717 437.143 380.688 421.793C366.66 406.443 400.891 336.047 413.621 307.693L431.737 208.56C431.737 208.56 452.504 162.982 487.928 153.185Z" stroke="#202020" stroke-width="2.4" stroke-linecap="round" stroke-linejoin="round"/>
<mask id="mask2_87_2478" style="mask-type:luminance" maskUnits="userSpaceOnUse" x="248" y="229" width="237" height="129">
<path d="M290.612 230.072C311.498 224.943 387.92 255.934 408.503 268.01C429.086 280.087 489.471 298.843 484.236 324.567C479 350.29 414.569 371.142 360.504 346.522C306.439 321.903 244.008 310.76 248.82 281.921C253.632 253.083 269.725 235.2 290.612 230.072Z" fill="white"/>
</mask>
<g mask="url(#mask2_87_2478)">
<path d="M493.416 153.231L497.209 199.575C497.209 199.575 500.018 229.469 484.919 261.009C474.603 282.557 471.469 306.755 461.725 323.763C458.732 328.098 447.862 335.917 417.801 323.216C400.178 315.585 404.512 302.872 380.438 288.755C364.744 279.551 337.786 291.852 323.922 278.454C305.878 259.828 300.318 257.068 300.262 257.091C306.948 250.492 348.005 251.161 378.883 225.163C398.644 207.209 394.263 197.451 412.802 186.191C435.402 172.465 463.542 152.556 493.416 153.231Z" fill="#202020"/>
<path d="M493.416 153.231L497.209 199.575C497.209 199.575 500.018 229.469 484.919 261.009C474.603 282.557 471.469 306.755 461.725 323.763C458.732 328.098 447.862 335.917 417.801 323.216C400.178 315.585 404.512 302.872 380.438 288.755C364.744 279.551 337.786 291.852 323.922 278.454C305.878 259.828 300.318 257.068 300.262 257.091C306.948 250.492 348.005 251.161 378.883 225.163C398.644 207.209 394.263 197.451 412.802 186.191C435.402 172.465 463.542 152.556 493.416 153.231Z" stroke="#202020" stroke-width="2.4" stroke-linecap="round" stroke-linejoin="round"/>
</g>
<path d="M274.063 370.676C286.704 336.035 370.173 235.47 403.714 194.938C412.663 184.124 426.296 178.328 440.293 179.381C467.598 181.435 486.149 208.011 478.671 234.351C458.269 306.208 420.264 430.123 410.033 444.466C371.197 490.629 247.683 431.218 274.063 370.676Z" fill="#682EC6"/>
<path d="M274.063 370.676C286.704 336.035 370.173 235.47 403.714 194.938C412.663 184.124 426.296 178.328 440.293 179.381C467.598 181.435 486.149 208.011 478.671 234.351C458.269 306.208 420.264 430.123 410.033 444.466C371.197 490.629 247.683 431.218 274.063 370.676Z" stroke="#202020" stroke-width="2.4" stroke-linecap="round" stroke-linejoin="round"/>
<path d="M495.741 236.339C494.428 244.574 492.308 253.597 488.952 262.754C480.73 285.184 477.087 300.273 461.641 324.598C461.769 324.049 436.856 300.304 430.151 296.507C414.234 288.669 396.17 298.065 380.817 289.255C360.61 276.941 348.829 255.897 328.802 254.767C316.36 254.191 306.855 257.729 299.624 257.301C299.694 257.124 329.244 221.67 345.191 215.651C371.418 202.84 368.507 218.301 406.794 172.316C423.577 152.158 463.685 152.641 493.56 153.315" fill="white"/>
<path d="M495.741 236.339C494.428 244.574 492.308 253.597 488.952 262.754C480.73 285.184 477.087 300.273 461.641 324.598C461.769 324.049 436.856 300.304 430.151 296.507C414.234 288.669 396.17 298.065 380.817 289.255C360.61 276.941 348.829 255.897 328.802 254.767C316.36 254.191 306.855 257.729 299.624 257.301C299.694 257.124 329.244 221.67 345.191 215.651C371.418 202.84 368.507 218.301 406.794 172.316C423.577 152.158 463.685 152.641 493.56 153.315" stroke="#202020" stroke-width="2.4" stroke-linecap="round" stroke-linejoin="round"/>
<mask id="mask3_87_2478" style="mask-type:luminance" maskUnits="userSpaceOnUse" x="656" y="241" width="206" height="125">
<path d="M860.751 256.395C855.824 232.047 762.18 239.776 713.084 263.013C663.987 286.249 649.403 325.054 658.614 346.509C667.826 367.964 748.169 374.175 799.654 350.925C851.14 327.674 865.677 280.743 860.751 256.395Z" fill="white"/>
</mask>
<g mask="url(#mask3_87_2478)">
<path d="M636.461 154.326L631.034 200.507C631.034 200.507 627.17 230.282 641.146 262.336C650.695 284.235 652.663 309.202 661.8 326.543C665.3 330.415 675.536 338.505 706.026 326.876C723.908 319.872 720.026 307.015 744.583 293.757C760.593 285.114 787.1 298.361 801.429 285.462C820.12 267.486 825.773 264.923 825.828 264.948C819.379 258.117 778.323 257.336 748.383 230.262C729.268 211.62 733.992 202.024 715.861 190.115C693.76 175.599 666.341 154.709 636.461 154.326Z" fill="#202020"/>
<path d="M636.461 154.326L631.034 200.507C631.034 200.507 627.17 230.282 641.146 262.336C650.695 284.235 652.663 309.202 661.8 326.543C665.3 330.415 675.536 338.505 706.026 326.876C723.908 319.872 720.026 307.015 744.583 293.757C760.593 285.114 787.1 298.361 801.429 285.462C820.12 267.486 825.773 264.923 825.828 264.948C819.379 258.117 778.323 257.336 748.383 230.262C729.268 211.62 733.992 202.024 715.861 190.115C693.76 175.599 666.341 154.709 636.461 154.326Z" stroke="#202020" stroke-width="2.4" stroke-linecap="round" stroke-linejoin="round"/>
</g>
<path d="M688.215 342.266C668.168 309.302 663.058 263.038 651.062 229.046C642.452 204.652 648.712 191.173 674.044 185.928L673.088 186.406C684.854 183.969 693.757 173.7 703.479 180.761C728.433 198.883 750.677 220.472 769.538 244.873L780.438 258.975C789.868 269.979 796.699 293.433 807.538 309.6C815.428 321.367 838.808 358.89 838.808 358.89C855.75 389.354 856.198 423.309 841.356 451.266C805.53 506.003 722.819 408.79 688.215 342.266Z" fill="#682EC6"/>
<path d="M688.215 342.266C668.168 309.302 663.058 263.038 651.062 229.046C642.452 204.652 648.712 191.173 674.044 185.928L673.088 186.406C684.854 183.969 693.757 173.7 703.479 180.761C728.433 198.883 750.677 220.472 769.538 244.873L780.438 258.975C789.868 269.979 796.699 293.433 807.538 309.6C815.428 321.367 838.808 358.89 838.808 358.89C855.75 389.354 856.198 423.309 841.356 451.266C805.53 506.003 722.819 408.79 688.215 342.266Z" stroke="#202020" stroke-width="2.4" stroke-linecap="round" stroke-linejoin="round"/>
<path d="M630.581 231.337C631.411 241.103 633.276 252.381 637.054 263.936C644.479 286.643 647.587 301.851 662.164 326.706C662.056 326.153 687.792 303.304 694.627 299.747C710.811 292.476 728.532 302.505 744.187 294.243C764.817 282.652 777.334 262.038 797.388 261.617C809.843 261.481 819.217 265.353 826.459 265.181C826.395 265.001 798.116 228.526 782.391 221.947C756.633 208.216 758.996 223.771 722.356 176.462C706.295 155.724 666.394 154.789 636.514 154.406" fill="white"/>
<path d="M630.581 231.337C631.411 241.103 633.276 252.381 637.054 263.936C644.479 286.643 647.587 301.851 662.164 326.706C662.056 326.153 687.792 303.304 694.627 299.747C710.811 292.476 728.532 302.505 744.187 294.243C764.817 282.652 777.334 262.038 797.388 261.617C809.843 261.481 819.217 265.353 826.459 265.181C826.395 265.001 798.116 228.526 782.391 221.947C756.633 208.216 758.996 223.771 722.356 176.462C706.295 155.724 666.394 154.789 636.514 154.406" stroke="#202020" stroke-width="2.4" stroke-linecap="round" stroke-linejoin="round"/>
<path d="M839.426 454.161C828.411 474.015 802.034 472.354 789.524 472.2C753.891 471.761 709.103 459.396 676.99 454.861C638.887 449.48 604.662 396.351 639.317 383.767C681.309 368.518 698.768 361.082 698.768 361.082C698.768 361.082 736.579 355.553 746.481 368.534" fill="#682EC6"/>
<path d="M839.426 454.161C828.411 474.015 802.034 472.354 789.524 472.2C753.891 471.761 709.103 459.396 676.99 454.861C638.887 449.48 604.662 396.351 639.317 383.767C681.309 368.518 698.768 361.082 698.768 361.082C698.768 361.082 736.579 355.553 746.481 368.534" stroke="#202020" stroke-width="2.4" stroke-linecap="round" stroke-linejoin="round"/>
<path d="M590.776 418.189C593.02 400.246 607.537 385.795 635.747 385.229C649.073 384.962 671.085 384.388 687.143 401.168C697.595 412.09 705.359 440.711 697.911 450.815C694.01 456.109 668.538 456.422 656.314 446.025C650.539 441.115 645.011 446.514 645.011 446.514C622.666 456.581 587.008 440.167 590.776 418.189Z" fill="white"/>
<path d="M590.776 418.189C593.02 400.246 607.537 385.795 635.747 385.229C649.073 384.962 671.085 384.388 687.143 401.168C697.595 412.09 705.359 440.711 697.911 450.815C694.01 456.109 668.538 456.422 656.314 446.025C650.539 441.115 645.011 446.514 645.011 446.514C622.666 456.581 587.008 440.167 590.776 418.189Z" stroke="#202020" stroke-width="2.16" stroke-linecap="round" stroke-linejoin="round"/>
<path d="M772.842 482.898C659.025 496.961 530.141 493.284 417.465 495.788C303.513 498.322 175.342 497.452 62.0884 482.898C175.367 468.344 303.46 471.298 417.465 470.006C531.452 471.298 659.587 468.344 772.842 482.898Z" fill="#202020"/>
<path d="M772.842 482.898C659.025 496.961 530.141 493.284 417.465 495.788C303.513 498.322 175.342 497.452 62.0884 482.898C175.367 468.344 303.46 471.298 417.465 470.006C531.452 471.298 659.587 468.344 772.842 482.898Z" stroke="#202020" stroke-width="2.4" stroke-linecap="round" stroke-linejoin="round"/>
<path d="M595.928 455.744C597.862 444.258 598.584 437.537 599.471 432.503C601.113 423.18 602.892 416.884 602.892 416.884" stroke="#202020" stroke-width="21.6" stroke-linecap="round" stroke-linejoin="round"/>
<path d="M595.928 455.744C597.862 444.258 598.584 437.537 599.471 432.503C601.113 423.18 602.892 416.884 602.892 416.884" stroke="white" stroke-width="17.28" stroke-linecap="round" stroke-linejoin="round"/>
<path d="M601.32 399.25C601.32 399.25 592.064 406.54 591.406 422.975C591.191 422.992 616.057 423.515 616.057 423.515C616.057 423.515 629.686 411.686 624.054 404.336C616.487 394.462 601.32 399.25 601.32 399.25Z" fill="white"/>
<path d="M616.496 457.038C618.592 445.581 619.409 438.869 620.366 433.848C622.14 424.55 624.006 418.279 624.006 418.279" stroke="#202020" stroke-width="21.6" stroke-linecap="round" stroke-linejoin="round"/>
<path d="M616.496 457.038C618.592 445.581 619.409 438.869 620.366 433.848C622.14 424.55 624.006 418.279 624.006 418.279" stroke="white" stroke-width="17.28" stroke-linecap="round" stroke-linejoin="round"/>
<path d="M626.907 397.031C609.014 395.095 604.523 414.053 604.523 414.053L643.208 415.627C643.208 415.627 641.82 398.644 626.907 397.031Z" fill="white"/>
<path d="M637.396 459.889C639.491 448.432 640.309 441.72 641.266 436.699C643.039 427.401 644.905 421.13 644.905 421.13" stroke="#202020" stroke-width="21.6" stroke-linecap="round" stroke-linejoin="round"/>
<path d="M637.396 459.889C639.491 448.432 640.309 441.72 641.266 436.699C643.039 427.401 644.905 421.13 644.905 421.13" stroke="white" stroke-width="17.28" stroke-linecap="round" stroke-linejoin="round"/>
<path d="M651.483 400.235C635.493 392.563 625.155 407.559 625.155 407.559L653.474 427.298C653.474 427.298 669.088 408.682 651.483 400.235Z" fill="white"/>
<path d="M658.854 458.389C660.949 446.931 661.767 440.22 662.724 435.199C664.497 425.9 666.363 419.63 666.363 419.63" stroke="#202020" stroke-width="21.6" stroke-linecap="round" stroke-linejoin="round"/>
<path d="M658.854 458.389C660.949 446.931 661.767 440.22 662.724 435.199C664.497 425.9 666.363 419.63 666.363 419.63" stroke="white" stroke-width="17.28" stroke-linecap="round" stroke-linejoin="round"/>
<path d="M670.531 399.874C646.539 394.887 647.263 416.545 647.263 416.545L685.438 423.248C685.438 423.248 686.991 403.295 670.531 399.874Z" fill="white"/>
<path d="M449.271 71.1996C449.271 65.8279 444.917 61.4731 439.545 61.4731C434.173 61.4731 429.818 65.8279 429.818 71.1996C429.818 76.5714 434.173 80.9261 439.545 80.9261C444.917 80.9261 449.271 76.5714 449.271 71.1996Z" fill="white"/>
<path d="M449.271 71.1996C449.271 65.8279 444.917 61.4731 439.545 61.4731C434.173 61.4731 429.818 65.8279 429.818 71.1996C429.818 76.5714 434.173 80.9261 439.545 80.9261C444.917 80.9261 449.271 76.5714 449.271 71.1996Z" stroke="#202020" stroke-width="2.10319" stroke-linecap="round" stroke-linejoin="round"/>
<path d="M255.694 341.05C255.898 382.06 250.345 477.397 336.957 474.104C435.68 470.352 418.545 388.727 418.545 388.727C418.545 388.727 388.283 200.933 380.299 179.063C369.785 150.265 269.183 169.718 267.832 192.677C265.48 232.828 255.5 302.158 255.694 341.05Z" fill="#682EC6"/>
<path d="M255.694 341.05C255.898 382.06 250.345 477.397 336.957 474.104C435.68 470.352 418.545 388.727 418.545 388.727C418.545 388.727 388.283 200.933 380.299 179.063C369.785 150.265 269.183 169.718 267.832 192.677C265.48 232.828 255.5 302.158 255.694 341.05Z" stroke="#202020" stroke-width="2.13331" stroke-linecap="round" stroke-linejoin="round"/>
<path d="M368.072 163.548C371.351 156.603 376.86 150.856 386.668 148.635C392.916 147.221 405.244 144.608 405.244 144.608C408.904 144.169 414.657 145.607 416.131 152.335C417.641 159.226 414.341 164.095 410.047 167.297L396.542 176.819C396.542 176.819 388.03 181.223 381.356 192.144" fill="white"/>
<path d="M368.072 163.548C371.351 156.603 376.86 150.856 386.668 148.635C392.916 147.221 405.244 144.608 405.244 144.608C408.904 144.169 414.657 145.607 416.131 152.335C417.641 159.226 414.341 164.095 410.047 167.297L396.542 176.819C396.542 176.819 388.03 181.223 381.356 192.144" stroke="#202020" stroke-width="2.25425" stroke-linecap="round" stroke-linejoin="round"/>
<path d="M382.922 188.302C383.156 192.611 368.321 200.49 324.682 202.613C284.433 204.571 267.35 195.577 268.287 186.137C269.225 176.697 272.087 159.964 275.458 144.12C279.292 126.1 274.679 110.683 287.949 109.116C306.719 106.901 302.856 124.841 303.767 125.006C304.714 125.687 300.98 106.746 314.746 105.938C333.18 104.856 329.807 123.096 330.491 123.157C332.024 123.691 326.804 103.966 341.846 104.87C357.115 105.788 353.743 126.892 354.594 127.09C365.562 131.719 376.985 137.263 378.185 145.893C378.882 150.908 379.482 155.468 379.998 159.585" fill="white"/>
<path d="M382.922 188.302C383.156 192.611 368.321 200.49 324.682 202.613C284.433 204.571 267.35 195.577 268.287 186.137C269.225 176.697 272.087 159.964 275.458 144.12C279.292 126.1 274.679 110.683 287.949 109.116C306.719 106.901 302.856 124.841 303.767 125.006C304.714 125.687 300.98 106.746 314.746 105.938C333.18 104.856 329.807 123.096 330.491 123.157C332.024 123.691 326.804 103.966 341.846 104.87C357.115 105.788 353.743 126.892 354.594 127.09C365.562 131.719 376.985 137.263 378.185 145.893C378.882 150.908 379.482 155.468 379.998 159.585" stroke="#202020" stroke-width="2.4" stroke-linecap="round" stroke-linejoin="round"/>
<path d="M364.64 81.8603C364.64 81.8603 364.575 108.028 368.508 143.923" stroke="#202020" stroke-width="21.6" stroke-linecap="round" stroke-linejoin="round"/>
<path d="M363 82C363 82 364.575 108.028 368.508 143.923" stroke="white" stroke-width="16.8" stroke-linecap="round" stroke-linejoin="round"/>
<path d="M375.332 134.848C375.332 134.848 347.455 125.422 340.643 134.147C332.002 145.215 332.443 155.942 344.47 163.394C356.497 170.846 378.128 157.029 378.072 156.635C375.803 140.58 375.332 134.848 375.332 134.848Z" fill="white"/>
<path d="M352.078 111.538C358.868 126.684 357.655 141.948 347.468 141.694C336.51 141.42 331.043 128.969 330.823 117.594" fill="white"/>
<path d="M352.078 111.538C358.868 126.684 357.655 141.948 347.468 141.694C336.51 141.42 331.043 128.969 330.823 117.594" stroke="#202020" stroke-width="2.4" stroke-linecap="round" stroke-linejoin="round"/>
<path d="M328.741 112.72C333.795 122.011 336.351 141.14 323.082 141.586C309.898 142.03 304.016 126.024 304.016 126.024" fill="white"/>
<path d="M328.741 112.72C333.795 122.011 336.351 141.14 323.082 141.586C309.898 142.03 304.016 126.024 304.016 126.024" stroke="#202020" stroke-width="2.4" stroke-linecap="round" stroke-linejoin="round"/>
<path d="M281.694 133.065C283.891 140.487 291.109 143.538 297.573 142.326C306.428 140.666 305.507 135.588 305.342 130.448L303.283 117.972" fill="white"/>
<path d="M281.694 133.065C283.891 140.487 291.109 143.538 297.573 142.326C306.428 140.666 305.507 135.588 305.342 130.448L303.283 117.972" stroke="#202020" stroke-width="2.4" stroke-linecap="round" stroke-linejoin="round"/>
<path d="M466.839 482.19H532.374L533.896 482.021L535.338 481.515L536.622 480.686L537.656 479.561L538.336 478.194L538.573 476.687V460.95L538.335 459.444L537.655 458.077L536.621 456.951L535.338 456.123L533.895 455.617L532.374 455.449H466.839V482.19Z" fill="white"/>
<path d="M466.839 482.19H532.374L533.896 482.021L535.338 481.515L536.622 480.686L537.656 479.561L538.336 478.194L538.573 476.687V460.95L538.335 459.444L537.655 458.077L536.621 456.951L535.338 456.123L533.895 455.617L532.374 455.449H466.839V482.19Z" stroke="#202020" stroke-width="2.4" stroke-linecap="round" stroke-linejoin="round"/>
<path d="M455.586 482.19H475.942L478.406 481.851L480.487 480.853L482.051 479.273L482.995 477.221L483.254 474.83L482.798 472.263L433.171 311.897L432.037 309.33L430.3 306.939L428.084 304.885L425.543 303.306L422.844 302.309L420.17 301.97H402.011L455.586 482.19Z" fill="white"/>
<path d="M455.586 482.19H475.942L478.406 481.851L480.487 480.853L482.051 479.273L482.995 477.221L483.254 474.83L482.798 472.263L433.171 311.897L432.037 309.33L430.3 306.939L428.084 304.885L425.543 303.306L422.844 302.309L420.17 301.97H402.011L455.586 482.19Z" stroke="#202020" stroke-width="2.4" stroke-linecap="round" stroke-linejoin="round"/>
<path d="M231.739 482.19H462.448L465.264 481.803L467.645 480.662L469.433 478.855L470.512 476.509L470.807 473.776L470.285 470.84L421.539 313.32L420.243 310.383L418.257 307.651L415.724 305.304L412.818 303.497L409.733 302.358L406.677 301.97H175.968L173.151 302.358L170.772 303.498L168.983 305.304L167.903 307.651L167.609 310.383L168.13 313.32L216.877 470.84L218.173 473.776L220.159 476.509L222.691 478.856L225.597 480.662L228.682 481.803L231.739 482.19Z" fill="white"/>
<path d="M231.739 482.19H462.448L465.264 481.803L467.645 480.662L469.433 478.855L470.512 476.509L470.807 473.776L470.285 470.84L421.539 313.32L420.243 310.383L418.257 307.651L415.724 305.304L412.818 303.497L409.733 302.358L406.677 301.97H175.968L173.151 302.358L170.772 303.498L168.983 305.304L167.903 307.651L167.609 310.383L168.13 313.32L216.877 470.84L218.173 473.776L220.159 476.509L222.691 478.856L225.597 480.662L228.682 481.803L231.739 482.19Z" stroke="#202020" stroke-width="2.4" stroke-linecap="round" stroke-linejoin="round"/>
<path d="M434.113 482.439L431.038 472.502L429.397 468.784L426.883 465.324L423.676 462.353L419.997 460.066L416.091 458.622L412.223 458.132H267.075L263.51 458.622L260.495 460.066L258.233 462.353L256.866 465.324L256.494 468.784L257.153 472.502L260.151 482.19" stroke="#202020" stroke-width="2.4" stroke-linecap="round" stroke-linejoin="round"/>
<path d="M339.469 392.079C342.931 403.269 336.668 412.341 325.478 412.341C314.288 412.341 302.408 403.269 298.946 392.079C295.483 380.889 301.747 371.818 312.937 371.818C324.127 371.818 336.006 380.889 339.469 392.079Z" stroke="#202020" stroke-width="2.4" stroke-linecap="round" stroke-linejoin="round"/>
<path d="M37.9216 310.421C42.1977 319.944 42.6882 367.191 42.6882 367.191C42.6882 367.191 7.70946 335.428 3.4339 325.904C-0.84167 316.38 3.412 305.194 12.9358 300.917C22.4595 296.641 33.6461 300.897 37.9216 310.421Z" fill="white"/>
<path d="M37.9216 310.421C42.1977 319.944 42.6882 367.191 42.6882 367.191C42.6882 367.191 7.70946 335.428 3.4339 325.904C-0.84167 316.38 3.412 305.194 12.9358 300.917C22.4595 296.641 33.6461 300.897 37.9216 310.421Z" stroke="#202020" stroke-width="2.4" stroke-linecap="round" stroke-linejoin="round"/>
<path d="M114.195 371.473C115.245 392.225 82.0235 480.204 82.0235 480.204C82.0235 480.204 40.0958 396.026 39.0462 375.275C37.9965 354.524 53.9677 336.848 74.7208 335.8C95.471 334.749 113.145 350.722 114.195 371.473Z" fill="white"/>
<path d="M114.195 371.473C115.245 392.225 82.0235 480.204 82.0235 480.204C82.0235 480.204 40.0958 396.026 39.0462 375.275C37.9965 354.524 53.9677 336.848 74.7208 335.8C95.471 334.749 113.145 350.722 114.195 371.473Z" stroke="#202020" stroke-width="2.4" stroke-linecap="round" stroke-linejoin="round"/>
<path d="M133.349 346.511C130.104 356.433 98.6754 391.715 98.6754 391.715C98.6754 391.715 94.1721 344.683 97.4179 334.76C100.664 324.838 111.337 319.425 121.261 322.669C131.184 325.913 136.595 336.588 133.349 346.511Z" fill="white"/>
<path d="M133.349 346.511C130.104 356.433 98.6754 391.715 98.6754 391.715C98.6754 391.715 94.1721 344.683 97.4179 334.76C100.664 324.838 111.337 319.425 121.261 322.669C131.184 325.913 136.595 336.588 133.349 346.511Z" stroke="#202020" stroke-width="2.4" stroke-linecap="round" stroke-linejoin="round"/>
<path d="M28.6861 277.85C30.9997 283.916 29.6124 313.268 29.6124 313.268C29.6124 313.268 9.03194 292.295 6.71827 286.228C4.40459 280.162 7.44712 273.369 13.5134 271.056C19.5797 268.742 26.3724 271.783 28.6861 277.85Z" fill="white"/>
<path d="M28.6861 277.85C30.9997 283.916 29.6124 313.268 29.6124 313.268C29.6124 313.268 9.03194 292.295 6.71827 286.228C4.40459 280.162 7.44712 273.369 13.5134 271.056C19.5797 268.742 26.3724 271.783 28.6861 277.85Z" stroke="#202020" stroke-width="2.4" stroke-linecap="round" stroke-linejoin="round"/>
<path d="M77.9391 482.897C59.6881 482.897 44.8921 468.101 44.8921 449.85V423.671H110.986V449.85C110.986 468.101 96.1901 482.897 77.9391 482.897Z" fill="#682EC6"/>
<path d="M77.9391 482.897C59.6881 482.897 44.8921 468.101 44.8921 449.85V423.671H110.986V449.85C110.986 468.101 96.1901 482.897 77.9391 482.897Z" stroke="#202020" stroke-width="2.4" stroke-linecap="round" stroke-linejoin="round"/>
<path d="M674.7 26.6944C676.452 31.3527 685.908 56.7655 687.236 60.6736C691.32 60.1195 717.273 57.4565 722.23 56.9447C717.572 58.6965 693.184 68.0094 689.275 69.3375C689.83 73.4214 692.656 100.183 693.167 105.14C691.416 100.481 681.94 75.285 680.612 71.377C676.528 71.931 651.009 74.6408 646.052 75.1525C650.71 73.4008 674.664 64.0412 678.572 62.713C678.018 58.6292 675.212 31.6512 674.7 26.6944Z" fill="white"/>
<path d="M674.7 26.6944C676.452 31.3527 685.908 56.7655 687.236 60.6736C691.32 60.1195 717.273 57.4565 722.23 56.9447C717.572 58.6965 693.184 68.0094 689.275 69.3375C689.83 73.4214 692.656 100.183 693.167 105.14C691.416 100.481 681.94 75.285 680.612 71.377C676.528 71.931 651.009 74.6408 646.052 75.1525C650.71 73.4008 674.664 64.0412 678.572 62.713C678.018 58.6292 675.212 31.6512 674.7 26.6944Z" stroke="#202020" stroke-width="2.4" stroke-linecap="round" stroke-linejoin="round"/>
<path d="M427.386 50.16C422.312 52.0065 424.521 59.2855 429.764 58.0008C434.838 56.1543 432.629 48.8753 427.386 50.16Z" fill="white"/>
<path d="M427.386 50.16C422.312 52.0065 424.521 59.2855 429.764 58.0008C434.838 56.1543 432.629 48.8753 427.386 50.16Z" stroke="#202020" stroke-width="2.08341" stroke-linecap="round" stroke-linejoin="round"/>
<path d="M78.0771 146.491C78.0771 170.82 97.0501 183.121 119.361 183.121L119.36 183.209C97.2891 183.209 78.2505 200.708 78.2505 222.497C78.2505 201.185 60.2713 183.121 35.0039 183.121C59.8021 181.017 78.0771 171.54 78.0771 146.491Z" fill="white"/>
<path d="M78.0771 146.491C78.0771 170.82 97.0501 183.121 119.361 183.121L119.36 183.209C97.2891 183.209 78.2505 200.708 78.2505 222.497C78.2505 201.185 60.2713 183.121 35.0039 183.121C59.8021 181.017 78.0771 171.54 78.0771 146.491Z" stroke="#202020" stroke-width="2.4" stroke-linecap="round" stroke-linejoin="round"/>
<path d="M826.409 61.864C826.409 55.9303 821.599 51.1203 815.665 51.1203C809.732 51.1203 804.922 55.9303 804.922 61.864C804.922 67.7976 809.732 72.6076 815.665 72.6076C821.599 72.6076 826.409 67.7976 826.409 61.864Z" fill="white"/>
<path d="M826.409 61.864C826.409 55.9303 821.599 51.1203 815.665 51.1203C809.732 51.1203 804.922 55.9303 804.922 61.864C804.922 67.7976 809.732 72.6076 815.665 72.6076C821.599 72.6076 826.409 67.7976 826.409 61.864Z" stroke="#202020" stroke-width="2.30663" stroke-linecap="round" stroke-linejoin="round"/>
</g>
</g>
<defs>
<clipPath id="clip0_87_2478">
<rect width="854" height="500" fill="white"/>
</clipPath>
</defs>
</svg>
