<svg width="723" height="470" viewBox="0 0 723 470" fill="none" xmlns="http://www.w3.org/2000/svg">
<g clip-path="url(#clip0_638_1003)">
<path d="M638.821 420.123L447.375 414.557C438.289 414.293 431.147 406.341 431.425 396.796L436.943 207.001C437.22 197.457 444.812 189.933 453.898 190.197L645.344 195.763C654.431 196.027 661.572 203.979 661.295 213.524L655.777 403.318C655.499 412.863 647.908 420.387 638.821 420.123Z" fill="#1B1D20"/>
<path d="M638.821 420.123L447.375 414.557C438.289 414.293 431.147 406.341 431.425 396.796L436.943 207.001C437.22 197.457 444.812 189.933 453.898 190.197L645.344 195.763C654.431 196.027 661.572 203.979 661.295 213.524L655.777 403.318C655.499 412.863 647.908 420.387 638.821 420.123Z" stroke="#202020" stroke-width="2.30043" stroke-linecap="round" stroke-linejoin="round"/>
<path d="M660.75 232.243L661.295 213.524C661.572 203.979 654.431 196.027 645.344 195.763L453.898 190.197C444.812 189.933 437.22 197.457 436.943 207.001L436.399 225.72L660.75 232.243Z" fill="#1B1D20"/>
<path d="M660.75 232.243L661.295 213.524C661.572 203.979 654.431 196.027 645.344 195.763L453.898 190.197C444.812 189.933 437.22 197.457 436.943 207.001L436.399 225.72L660.75 232.243Z" stroke="#F0F5FC" stroke-width="2.30043" stroke-linecap="round" stroke-linejoin="round"/>
<path d="M639.125 320.244L561.518 317.988L563.5 249.816L641.107 252.073L639.125 320.244Z" fill="#1B1D20"/>
<path d="M639.125 320.244L561.518 317.988L563.5 249.816L641.107 252.073L639.125 320.244Z" stroke="#682EC6" stroke-width="2.39596" stroke-linecap="round" stroke-linejoin="round"/>
<path d="M563.5 249.816L639.125 320.244" stroke="#682EC6" stroke-width="2.39596" stroke-linecap="round" stroke-linejoin="round"/>
<path d="M561.518 317.988L641.107 252.073" stroke="#682EC6" stroke-width="2.39596" stroke-linecap="round" stroke-linejoin="round"/>
<path d="M638.821 420.123L447.375 414.557C438.289 414.293 431.147 406.341 431.425 396.796L436.943 207.001C437.22 197.457 444.812 189.933 453.898 190.197L645.344 195.763C654.431 196.027 661.572 203.979 661.295 213.524L655.777 403.318C655.499 412.863 647.908 420.387 638.821 420.123Z" stroke="#F0F5FC" stroke-width="2.30043" stroke-linecap="round" stroke-linejoin="round"/>
<path d="M600.605 397.351L619.36 397.896" stroke="#202020" stroke-width="2.30043" stroke-linecap="round" stroke-linejoin="round"/>
<path d="M560.793 396.193L593.217 397.136" stroke="#202020" stroke-width="2.30043" stroke-linecap="round" stroke-linejoin="round"/>
<path d="M577.902 376.922L635.88 378.608" stroke="#202020" stroke-width="2.30043" stroke-linecap="round" stroke-linejoin="round"/>
<path d="M561.562 376.447L570.869 376.717" stroke="#202020" stroke-width="2.30043" stroke-linecap="round" stroke-linejoin="round"/>
<path d="M599.835 357.791L561.941 356.689" stroke="#202020" stroke-width="2.30043" stroke-linecap="round" stroke-linejoin="round"/>
<path d="M637.03 339.104L613.434 338.418" stroke="#202020" stroke-width="2.30043" stroke-linecap="round" stroke-linejoin="round"/>
<path d="M606.401 338.213L579.312 337.426" stroke="#202020" stroke-width="2.30043" stroke-linecap="round" stroke-linejoin="round"/>
<path d="M572.278 337.221L562.516 336.937" stroke="#202020" stroke-width="2.30043" stroke-linecap="round" stroke-linejoin="round"/>
<path d="M540.242 395.596L452.098 393.033L456.312 248.06L544.457 250.622L540.242 395.596Z" fill="#202020"/>
<path d="M540.242 395.596L452.098 393.033L456.312 248.06L544.457 250.622L540.242 395.596Z" stroke="#202020" stroke-width="2.30043" stroke-linecap="round" stroke-linejoin="round"/>
<path d="M351.266 129.731C346.856 131.112 332.699 149.162 333.768 154.783C334.837 160.404 355.218 158.769 360.465 156.438C365.711 154.108 375.104 151.982 375.104 140.897C375.104 129.812 355.676 128.349 351.266 129.731Z" fill="#1B1D20"/>
<path d="M351.266 129.731C346.856 131.112 332.699 149.162 333.768 154.783C334.837 160.404 355.218 158.769 360.465 156.438C365.711 154.108 375.104 151.982 375.104 140.897C375.104 129.812 355.676 128.349 351.266 129.731Z" stroke="#202020" stroke-width="2.4" stroke-linecap="round" stroke-linejoin="round"/>
<path d="M331.48 131.112C322.588 137.929 312.227 146 306.511 149.327C287.224 161.384 328.366 212.455 342.376 196.823C349.034 192.861 353.951 188.39 357.574 184.128C371.101 167.109 357.203 149.327 346.264 149.039C352.922 139.246 338.883 125.506 331.48 131.112Z" fill="#1B1D20"/>
<path d="M331.48 131.112C322.588 137.929 312.227 146 306.511 149.327C287.224 161.384 328.366 212.455 342.376 196.823C349.034 192.861 353.951 188.39 357.574 184.128C371.101 167.109 357.203 149.327 346.264 149.039C352.922 139.246 338.883 125.506 331.48 131.112Z" stroke="#F0F5FC" stroke-width="2.4" stroke-linecap="round" stroke-linejoin="round"/>
<mask id="path-24-inside-1_638_1003" fill="white">
<path d="M346.265 149.039C355.583 135.837 351.505 136.582 368.205 136.149C372.271 139.124 378.687 144.075 384.006 141.409C387.599 137.76 388.711 134.164 385.233 130.088C382.698 127.117 375.107 120.056 369.896 119.289C366.171 118.74 350.58 119.117 347.182 120.136C345.446 120.497 338.986 125.358 331.48 131.112"/>
</mask>
<path d="M346.265 149.039C355.583 135.837 351.505 136.582 368.205 136.149C372.271 139.124 378.687 144.075 384.006 141.409C387.599 137.76 388.711 134.164 385.233 130.088C382.698 127.117 375.107 120.056 369.896 119.289C366.171 118.74 350.58 119.117 347.182 120.136C345.446 120.497 338.986 125.358 331.48 131.112" fill="#1B1D20"/>
<path d="M368.205 136.149L368.677 135.503L368.457 135.342L368.184 135.349L368.205 136.149ZM384.006 141.409L384.364 142.124L384.483 142.065L384.576 141.97L384.006 141.409ZM385.233 130.088L384.625 130.607L384.625 130.607L385.233 130.088ZM369.896 119.289L369.78 120.08L369.78 120.08L369.896 119.289ZM347.182 120.136L347.345 120.92L347.379 120.913L347.412 120.903L347.182 120.136ZM346.919 149.5C349.256 146.188 350.771 143.726 351.943 141.958C353.134 140.161 353.945 139.128 354.917 138.467C355.867 137.821 357.053 137.478 359.116 137.286C361.193 137.091 364.026 137.057 368.226 136.948L368.184 135.349C364.035 135.457 361.115 135.492 358.968 135.693C356.808 135.894 355.3 136.272 354.017 137.144C352.756 138.001 351.796 139.284 350.609 141.074C349.403 142.894 347.933 145.288 345.611 148.577L346.919 149.5ZM367.733 136.794C369.744 138.266 372.435 140.304 375.301 141.621C378.164 142.937 381.383 143.619 384.364 142.124L383.647 140.694C381.31 141.865 378.661 141.404 375.97 140.167C373.282 138.932 370.733 137.007 368.677 135.503L367.733 136.794ZM384.576 141.97C386.42 140.098 387.731 138.139 388.061 136.033C388.399 133.88 387.69 131.735 385.842 129.569L384.625 130.607C386.254 132.517 386.728 134.208 386.481 135.785C386.226 137.407 385.185 139.071 383.436 140.847L384.576 141.97ZM385.842 129.569C384.537 128.039 381.965 125.494 379.06 123.231C376.187 120.993 372.843 118.914 370.013 118.497L369.78 120.08C372.161 120.431 375.217 122.266 378.076 124.493C380.903 126.695 383.394 129.166 384.625 130.607L385.842 129.569ZM370.013 118.497C368.068 118.211 363.167 118.172 358.391 118.325C355.987 118.402 353.589 118.528 351.573 118.7C349.584 118.869 347.892 119.088 346.952 119.37L347.412 120.903C348.17 120.675 349.702 120.465 351.709 120.294C353.688 120.125 356.057 120 358.442 119.924C363.242 119.771 367.999 119.818 369.78 120.08L370.013 118.497ZM347.019 119.353C346.699 119.42 346.333 119.573 345.959 119.76C345.573 119.953 345.126 120.208 344.632 120.513C343.642 121.124 342.42 121.957 341.03 122.951C338.247 124.939 334.745 127.601 330.994 130.477L331.967 131.747C335.721 128.869 339.202 126.223 341.96 124.253C343.34 123.267 344.527 122.458 345.472 121.875C345.944 121.584 346.346 121.355 346.674 121.191C347.015 121.021 347.231 120.943 347.345 120.92L347.019 119.353Z" fill="#F0F5FC" mask="url(#path-24-inside-1_638_1003)"/>
<path d="M346.265 149.039C355.583 135.837 351.505 136.582 368.205 136.149C372.271 139.124 378.687 144.075 384.006 141.409C387.599 137.76 388.711 134.164 385.233 130.088C382.698 127.117 375.107 120.056 369.896 119.289C366.171 118.74 350.58 119.117 347.182 120.136C345.446 120.497 338.986 125.358 331.48 131.112" fill="#1B1D20"/>
<path d="M346.265 149.039C355.583 135.837 351.505 136.582 368.205 136.149C372.271 139.124 378.687 144.075 384.006 141.409C387.599 137.76 388.711 134.164 385.233 130.088C382.698 127.117 375.107 120.056 369.896 119.289C366.171 118.74 350.58 119.117 347.182 120.136C345.446 120.497 338.986 125.358 331.48 131.112" stroke="#F0F5FC" stroke-width="2.4" stroke-linecap="round" stroke-linejoin="round"/>
<path d="M505.411 289.858H377.148V144.912H505.411V289.858Z" stroke="#202020" stroke-width="2.4" stroke-linecap="round" stroke-linejoin="round"/>
<path d="M540.242 395.596L452.098 393.033L456.312 248.06L544.457 250.622L540.242 395.596Z" fill="#1B1D20"/>
<path d="M540.242 395.596L452.098 393.033L456.312 248.06L544.457 250.622L540.242 395.596Z" stroke="#F0F5FC" stroke-width="2.30043" stroke-linecap="round" stroke-linejoin="round"/>
<path d="M505.411 289.858H377.148V144.912H505.411V289.858Z" stroke="white" stroke-width="2.4" stroke-linecap="round" stroke-linejoin="round"/>
<path d="M519.214 158.714H491.609V131.11H519.214V158.714Z" fill="#1B1D20"/>
<path d="M519.214 158.714H491.609V131.11H519.214V158.714Z" stroke="#F0F5FC" stroke-width="2.4" stroke-linecap="round" stroke-linejoin="round"/>
<path d="M519.214 303.523H491.609V275.918H519.214V303.523Z" fill="#1B1D20"/>
<path d="M519.214 303.523H491.609V275.918H519.214V303.523Z" stroke="#F0F5FC" stroke-width="2.4" stroke-linecap="round" stroke-linejoin="round"/>
<path d="M390.552 158.318L363.747 158.317L363.748 131.513L390.552 131.513L390.552 158.318Z" fill="#1B1D20" stroke="#F0F5FC" stroke-width="0.8"/>
<path d="M390.952 158.718L363.347 158.717L363.348 131.113L390.952 131.113L390.952 158.718Z" fill="#1B1D20" stroke="#F0F5FC" stroke-width="2.4" stroke-linecap="round" stroke-linejoin="round"/>
<path d="M390.956 303.797L363.351 303.797L363.352 276.192L390.956 276.192L390.956 303.797Z" fill="#1B1D20"/>
<path d="M390.956 303.797L363.351 303.797L363.352 276.192L390.956 276.192L390.956 303.797Z" stroke="#F0F5FC" stroke-width="2.4" stroke-linecap="round" stroke-linejoin="round"/>
<path d="M357.572 184.128C363.611 177.024 366.055 170.501 366.975 167.885C370.146 164.91 379.002 158.654 380.734 154.458C382.348 150.548 379.691 144.938 374.347 144.915C370.603 144.899 362.314 149.462 359.004 150.71C359.004 150.71 352.951 148.129 346.262 149.04" fill="#1B1D20"/>
<path d="M357.31 184.213C363.349 177.109 365.793 170.586 366.713 167.971C369.885 164.996 378.741 158.74 380.473 154.543C382.086 150.633 379.429 145.024 374.085 145C370.342 144.984 362.052 149.547 358.742 150.795C358.742 150.795 352.69 148.215 346 149.125" fill="#1B1D20"/>
<path d="M357.31 184.213C363.349 177.109 365.793 170.586 366.713 167.971C369.885 164.996 378.741 158.74 380.473 154.543C382.086 150.633 379.429 145.024 374.085 145C370.342 144.984 362.052 149.547 358.742 150.795C358.742 150.795 352.69 148.215 346 149.125" stroke="#F0F5FC" stroke-width="2.4" stroke-linecap="round" stroke-linejoin="round"/>
<path d="M173.359 155.362C173.742 155.476 173.742 155.476 173.742 155.475L173.743 155.474L173.745 155.468L173.752 155.444L173.78 155.348L173.891 154.976L174.311 153.562L175.811 148.515C177.052 144.337 178.708 138.765 180.365 133.189C182.023 127.612 183.682 122.031 184.931 117.835C185.555 115.737 186.076 113.985 186.443 112.753C186.627 112.137 186.772 111.651 186.872 111.317C186.92 111.157 186.956 111.038 186.98 110.955C187.01 110.857 187.023 110.812 187.022 110.816C189.241 104.884 195.425 101.169 201.899 102.273C208.374 103.377 212.976 108.932 213.103 115.265L213.103 115.266C213.103 115.265 213.103 115.303 213.101 115.382C213.1 115.47 213.097 115.609 213.093 115.799L213.064 117.312C213.039 118.61 213.002 120.459 212.959 122.674C212.871 127.103 212.755 132.998 212.638 138.889C212.521 144.78 212.404 150.668 212.316 155.082L212.21 160.416L212.18 161.91L212.173 162.304L212.171 162.405L212.17 162.43L212.17 162.43C211.947 165.989 209.284 168.159 205.268 169.188C201.249 170.218 195.99 170.063 190.88 169.031C185.771 167.998 180.867 166.099 177.551 163.687C174.22 161.264 172.625 158.439 173.733 155.503L173.738 155.49L173.742 155.476L173.359 155.362Z" fill="#1B1D20" stroke="#F0F5FC" stroke-width="0.8"/>
<path d="M212.57 162.447C212.57 162.447 213.506 115.378 213.503 115.257C213.372 108.736 208.634 103.016 201.967 101.879C195.3 100.742 188.932 104.567 186.647 110.676C186.591 110.825 173.359 155.362 173.359 155.362C168.53 168.153 211.629 177.705 212.57 162.447Z" stroke="#F0F5FC" stroke-width="2.4" stroke-linecap="round" stroke-linejoin="round"/>
<path d="M196.106 75.7716C196.771 83.2082 191.282 89.776 183.845 90.4415C176.409 91.1069 169.841 85.6177 169.175 78.1811C168.51 70.7444 173.999 64.1766 181.436 63.5112C188.872 62.8457 195.44 68.3349 196.106 75.7716Z" fill="#1B1D20"/>
<path d="M196.106 75.7716C196.771 83.2082 191.282 89.776 183.845 90.4415C176.409 91.1069 169.841 85.6177 169.175 78.1811C168.51 70.7444 173.999 64.1766 181.436 63.5112C188.872 62.8457 195.44 68.3349 196.106 75.7716Z" stroke="white" stroke-width="2.4" stroke-linecap="round" stroke-linejoin="round"/>
<path d="M182.363 125.073C182.363 125.073 177.303 115.924 179.238 107.834C180.847 101.103 184.505 91.8318 201.809 92.1271C218.631 92.4143 225.083 111.046 213.49 114.825C211.231 115.661 201.13 113.989 198.479 108.242C193.438 118.879 182.363 125.073 182.363 125.073Z" fill="#1B1D20"/>
<path d="M182.363 125.073C182.363 125.073 177.303 115.924 179.238 107.834C180.847 101.103 184.505 91.8318 201.809 92.1271C218.631 92.4143 225.083 111.046 213.49 114.825C211.231 115.661 201.13 113.989 198.479 108.242C193.438 118.879 182.363 125.073 182.363 125.073Z" stroke="#F0F5FC" stroke-width="2.4" stroke-linecap="round" stroke-linejoin="round"/>
<path d="M199.571 121.001C202.581 119.104 207.143 119.135 207.559 124.237" stroke="#F0F5FC" stroke-width="2.4" stroke-linecap="round" stroke-linejoin="round"/>
<path d="M197.891 135.948L197.891 135.948C197.21 134.712 197.093 133.414 197.449 132.383C197.801 131.364 198.624 130.572 199.915 130.326L199.915 130.326C200.642 130.187 201.492 130.258 202.469 130.45C203.238 130.601 204.058 130.821 204.935 131.057C205.172 131.12 205.413 131.185 205.658 131.25C207.809 131.818 210.245 132.379 212.774 132.074L212.621 139.767C212.492 139.778 212.331 139.791 212.143 139.805C211.625 139.845 210.902 139.891 210.088 139.918C208.45 139.973 206.477 139.951 205.04 139.659C201.766 138.994 199.112 138.167 197.891 135.948ZM199.84 129.934L199.84 129.934L199.84 129.934Z" fill="#1B1D20" stroke="#F0F5FC" stroke-width="0.8"/>
<path d="M204.961 140.051C201.71 139.391 198.863 138.543 197.54 136.141C196.087 133.501 196.977 130.479 199.84 129.933C203.05 129.32 207.97 132.466 213.183 131.612L213.014 140.132C213.014 140.132 207.933 140.655 204.961 140.051Z" stroke="#F0F5FC" stroke-width="2.4" stroke-linecap="round" stroke-linejoin="round"/>
<path d="M196.43 92.3746L184.123 97.1041C182.049 97.9047 179.719 96.8722 178.918 94.7982C178.118 92.7241 179.15 90.3936 181.224 89.593L193.531 84.8635C195.605 84.0629 197.935 85.0954 198.736 87.1694C199.536 89.2435 198.504 91.574 196.43 92.3746Z" fill="#1B1D20"/>
<path d="M196.43 92.3746L184.123 97.1041C182.049 97.9047 179.719 96.8722 178.918 94.7982C178.118 92.7241 179.15 90.3936 181.224 89.593L193.531 84.8635C195.605 84.0629 197.935 85.0954 198.736 87.1694C199.536 89.2435 198.504 91.574 196.43 92.3746Z" stroke="#F0F5FC" stroke-width="2.4" stroke-linecap="round" stroke-linejoin="round"/>
<path d="M103.647 333.947C159.233 360.127 168.929 323.279 135.18 311.193C110.875 302.489 95.8454 289.546 89.8697 297.745L81.7527 306.336C77.273 316.036 95.5855 329.726 103.647 333.947Z" fill="#202020"/>
<path d="M103.647 333.947C159.233 360.127 168.929 323.279 135.18 311.193C110.875 302.489 95.8454 289.546 89.8697 297.745L81.7527 306.336C77.273 316.036 95.5855 329.726 103.647 333.947Z" stroke="#202020" stroke-width="2.4" stroke-linecap="round" stroke-linejoin="round"/>
<path d="M310.642 339.34L105.04 277.034C96.9291 286.37 65.3219 312.017 70.9931 361.213C74.2459 389.427 92.0291 412.159 117.897 421.762C126.519 424.962 256.886 459.614 292.519 459.614C326.481 459.614 354.013 430.843 354.013 396.88C354.013 369.91 334.8 347.632 310.642 339.34Z" fill="#1B1D20"/>
<path d="M310.642 339.34L105.04 277.034C96.9291 286.37 65.3219 312.017 70.9931 361.213C74.2459 389.427 92.0291 412.159 117.897 421.762C126.519 424.962 256.886 459.614 292.519 459.614C326.481 459.614 354.013 430.843 354.013 396.88C354.013 369.91 334.8 347.632 310.642 339.34Z" stroke="#202020" stroke-width="2.4" stroke-linecap="round" stroke-linejoin="round"/>
<path d="M267.886 374.95C267.886 374.95 260.791 371.875 234.22 374.323C218.319 375.788 170.069 389.014 170.069 389.014C170.066 389.014 160.449 391.447 149.987 390.981C134.331 387.422 130.11 459.614 149.987 459.614L292.518 459.615C309.963 459.615 333.868 451.124 346.494 426.656" fill="#1B1D20"/>
<path d="M267.886 374.95C267.886 374.95 260.791 371.875 234.22 374.323C218.319 375.788 170.069 389.014 170.069 389.014C170.066 389.014 160.449 391.447 149.987 390.981C134.331 387.422 130.11 459.614 149.987 459.614L292.518 459.615C309.963 459.615 333.868 451.124 346.494 426.656" stroke="#F0F5FC" stroke-width="2.4" stroke-linecap="round" stroke-linejoin="round"/>
<path d="M243.822 356.377C293.199 351.707 340.957 339.32 364.556 332.39C355.316 277.831 265.664 323.479 229.52 308.74C193.375 294 203.871 219.468 183.915 204.239C163.66 188.781 158.805 234.054 158.805 234.054C159.681 269.051 160.221 278.025 162.922 301.426C167.675 342.6 195.754 360.923 243.822 356.377Z" fill="#202020"/>
<path d="M243.822 356.377C293.199 351.707 340.957 339.32 364.556 332.39C355.316 277.831 265.664 323.479 229.52 308.74C193.375 294 203.871 219.468 183.915 204.239C163.66 188.781 158.805 234.054 158.805 234.054C159.681 269.051 160.221 278.025 162.922 301.426C167.675 342.6 195.754 360.923 243.822 356.377Z" stroke="#202020" stroke-width="2.4" stroke-linecap="round" stroke-linejoin="round"/>
<path d="M310.642 339.34L105.04 277.034C96.9291 286.37 65.3219 312.017 70.9931 361.213C74.2459 389.427 92.0291 412.159 117.897 421.762C33 470 217 457.898 292.519 459.614C326.472 460.386 354.013 430.843 354.013 396.88C354.013 369.91 334.8 347.632 310.642 339.34Z" stroke="#F0F5FC" stroke-width="2.4" stroke-linecap="round" stroke-linejoin="round"/>
<path d="M81.3223 391.687C88.9295 404.222 100.19 414.153 114.031 420.189C131.387 427.248 138.045 384.74 116.856 379.026C97.2199 374.353 81.6071 391.374 81.3223 391.687Z" fill="#202020"/>
<path d="M81.3223 391.687C88.9295 404.222 100.19 414.153 114.031 420.189C131.387 427.248 138.045 384.74 116.856 379.026C97.2199 374.353 81.6071 391.374 81.3223 391.687Z" stroke="#202020" stroke-width="2.4" stroke-linecap="round" stroke-linejoin="round"/>
<path d="M165.344 403.6C165.344 396.602 171.792 395.796 170.07 389.013C170.07 389.013 151.673 393.671 138.084 388.87C124.957 384.31 122.342 378.467 111.585 378.467C100.599 378.467 94.7676 384.182 88.4156 399.158C84.2556 408.966 77.5919 420.467 57.0181 427.07C49.7502 429.402 34.4648 431.459 33.4531 431.563C28.4892 432.078 24.2876 435.946 23.6483 441.226C22.9397 447.074 27.1404 452.399 32.9367 453.447C32.9367 453.447 74.0568 459.932 99.4806 460.236C132.593 460.632 165.344 459.614 165.344 459.614C165.344 452.613 170.144 452.612 170.144 445.61C170.144 438.607 165.344 438.607 165.344 431.605C165.344 424.604 170.144 424.604 170.144 417.602C170.144 410.602 165.344 410.601 165.344 403.6Z" fill="#1B1D20"/>
<path d="M165.344 403.6C165.344 396.602 171.792 395.796 170.07 389.013C170.07 389.013 151.673 393.671 138.084 388.87C124.957 384.31 122.342 378.467 111.585 378.467C100.599 378.467 94.7676 384.182 88.4156 399.158C84.2556 408.966 77.5919 420.467 57.0181 427.07C49.7502 429.402 34.4648 431.459 33.4531 431.563C28.4892 432.078 24.2876 435.946 23.6483 441.226C22.9397 447.074 27.1404 452.399 32.9367 453.447C32.9367 453.447 74.0568 459.932 99.4806 460.236C132.593 460.632 165.344 459.614 165.344 459.614C165.344 452.613 170.144 452.612 170.144 445.61C170.144 438.607 165.344 438.607 165.344 431.605C165.344 424.604 170.144 424.604 170.144 417.602C170.144 410.602 165.344 410.601 165.344 403.6Z" stroke="#F0F5FC" stroke-width="2.4" stroke-linecap="round" stroke-linejoin="round"/>
<path d="M57.0168 427.071C49.7489 429.402 34.465 431.459 33.4532 431.563C28.6975 432.057 24.641 435.629 23.7473 440.571C22.6616 446.573 26.8049 452.473 32.7989 453.557C32.9692 453.588 50.7548 457.789 72.0923 458.595C55.1474 449.438 57.0102 427.129 57.0168 427.071Z" fill="#1B1D20"/>
<path d="M57.0168 427.071C49.7489 429.402 34.465 431.459 33.4532 431.563C28.6975 432.057 24.641 435.629 23.7473 440.571C22.6616 446.573 26.8049 452.473 32.7989 453.557C32.9692 453.588 50.7548 457.789 72.0923 458.595C55.1474 449.438 57.0102 427.129 57.0168 427.071Z" stroke="#682EC6" stroke-width="2.4" stroke-linecap="round" stroke-linejoin="round"/>
<path d="M165.343 459.614C165.343 452.613 170.143 452.613 170.143 445.61C170.143 438.608 165.343 438.608 165.343 431.606C165.343 424.605 170.143 424.604 170.143 417.602C170.143 410.602 165.343 410.602 165.343 403.601C165.343 396.602 171.792 395.797 170.07 389.014C170.07 389.014 151.672 393.672 138.084 388.87C136.596 397.481 134.332 399.454 134.332 403.601C134.332 410.602 139.132 410.602 139.132 417.602C139.132 424.604 134.332 424.605 134.332 431.606C134.332 438.608 139.132 438.608 139.132 445.61C139.132 452.613 134.332 452.613 134.332 459.614H165.343Z" fill="#1B1D20"/>
<path d="M165.343 459.614C165.343 452.613 170.143 452.613 170.143 445.61C170.143 438.608 165.343 438.608 165.343 431.606C165.343 424.605 170.143 424.604 170.143 417.602C170.143 410.602 165.343 410.602 165.343 403.601C165.343 396.602 171.792 395.797 170.07 389.014C170.07 389.014 151.672 393.672 138.084 388.87C136.596 397.481 134.332 399.454 134.332 403.601C134.332 410.602 139.132 410.602 139.132 417.602C139.132 424.604 134.332 424.605 134.332 431.606C134.332 438.608 139.132 438.608 139.132 445.61C139.132 452.613 134.332 452.613 134.332 459.614H165.343Z" stroke="#682EC6" stroke-width="2.4" stroke-linecap="round" stroke-linejoin="round"/>
<path d="M222.131 189.632C212.413 181.304 196.809 169.142 190.157 165.065C183.779 161.155 173.245 155.86 159.708 160.028C137.929 166.733 136.204 188.763 136.204 188.763C136.204 188.763 130.879 215.298 175.307 248.883C195.018 263.783 212.988 271.394 222.937 274.291C227.855 275.723 233.04 276.582 238.431 276.555C264.489 276.426 244.556 209.116 222.131 189.632Z" fill="#682EC6"/>
<path d="M222.131 189.632C212.413 181.304 196.809 169.142 190.157 165.065C183.779 161.155 173.245 155.86 159.708 160.028C137.929 166.733 136.204 188.763 136.204 188.763C136.204 188.763 130.879 215.298 175.307 248.883C195.018 263.783 212.988 271.394 222.937 274.291C227.855 275.723 233.04 276.582 238.431 276.555C264.489 276.426 244.556 209.116 222.131 189.632Z" stroke="#202020" stroke-width="2.4" stroke-linecap="round" stroke-linejoin="round"/>
<path d="M308.658 147.889C308.658 147.889 265.621 169.542 230.895 190.311C204.576 206.051 192.688 240.78 209.951 263.06C226.17 283.99 252.473 276.87 271.612 264.063C286.56 254.06 314.598 222.466 328.347 209.545C335.47 202.851 340.317 198.286 340.317 198.286C340.317 198.286 334.164 182.531 324.908 168.155C315.653 153.78 308.658 147.889 308.658 147.889Z" fill="#1B1D20"/>
<path d="M308.658 147.889C308.658 147.889 265.621 169.542 230.895 190.311C204.576 206.051 192.688 240.78 209.951 263.06C226.17 283.99 252.473 276.87 271.612 264.063C286.56 254.06 314.598 222.466 328.347 209.545C335.47 202.851 340.317 198.286 340.317 198.286C340.317 198.286 334.164 182.531 324.908 168.155C315.653 153.78 308.658 147.889 308.658 147.889Z" stroke="#202020" stroke-width="2.4" stroke-linecap="round" stroke-linejoin="round"/>
<path d="M308.656 147.889C308.656 147.889 265.619 169.542 230.893 190.311C204.574 206.051 192.686 240.78 209.95 263.06C226.168 283.99 252.471 276.87 271.61 264.063C286.558 254.06 314.596 222.466 328.345 209.545C335.468 202.851 340.315 198.286 340.315 198.286C340.315 198.286 334.162 182.531 324.907 168.155C315.651 153.78 308.656 147.889 308.656 147.889Z" stroke="#682EC6" stroke-width="2.4" stroke-linecap="round" stroke-linejoin="round"/>
<path d="M269.75 317.277C269.75 317.277 207.321 358.849 138.68 324.678C116.781 313.776 102.304 303.459 81.4785 306.092C81.4492 306.152 91.5058 287.169 101.343 252.877C112.519 213.914 116.872 196.158 128.972 174.157C138.272 156.669 156.802 144.867 178.034 143.026C209.524 140.296 237.612 161.219 244.753 191.066C244.754 191.074 244.754 191.075 244.754 191.075C248.181 203.553 269.75 317.277 269.75 317.277Z" fill="#1B1D20"/>
<path d="M269.75 317.277C269.75 317.277 207.321 358.849 138.68 324.678C116.781 313.776 102.304 303.459 81.4785 306.092C81.4492 306.152 91.5058 287.169 101.343 252.877C112.519 213.914 116.872 196.158 128.972 174.157C138.272 156.669 156.802 144.867 178.034 143.026C209.524 140.296 237.612 161.219 244.753 191.066C244.754 191.074 244.754 191.075 244.754 191.075C248.181 203.553 269.75 317.277 269.75 317.277Z" stroke="#682EC6" stroke-width="2.4" stroke-linecap="round" stroke-linejoin="round"/>
<path d="M352.002 269.972C352.002 269.972 337.458 260.091 315.086 270.453C296.811 277.034 306.186 335.631 328.088 329.706L371.478 317.998C381.924 312.632 370 294.923 362.787 289.335C370.977 286.004 360.57 269.627 352.002 269.972Z" fill="#1B1D20"/>
<path d="M352.002 269.972C352.002 269.972 337.458 260.091 315.086 270.453C296.811 277.034 306.186 335.631 328.088 329.706L371.478 317.998C381.924 312.632 370 294.923 362.787 289.335C370.977 286.004 360.57 269.627 352.002 269.972Z" stroke="#F0F5FC" stroke-width="2.4" stroke-linecap="round" stroke-linejoin="round"/>
<mask id="path-80-inside-2_638_1003" fill="white">
<path d="M371.475 317.998L391.679 307.619C391.679 307.619 401.816 298.73 402.503 293.709C403.033 289.837 399.506 287.013 395.808 287.013C390.952 287.319 384.328 292.616 384.328 292.616L369.998 294.923L362.785 289.335"/>
</mask>
<path d="M371.475 317.998L391.679 307.619C391.679 307.619 401.816 298.73 402.503 293.709C403.033 289.837 399.506 287.013 395.808 287.013C390.952 287.319 384.328 292.616 384.328 292.616L369.998 294.923L362.785 289.335" fill="#1B1D20"/>
<path d="M391.679 307.619L392.045 308.331L392.133 308.285L392.207 308.22L391.679 307.619ZM402.503 293.709L403.296 293.817L403.296 293.817L402.503 293.709ZM395.808 287.013L395.808 286.213L395.782 286.213L395.757 286.214L395.808 287.013ZM384.328 292.616L384.455 293.405L384.663 293.372L384.828 293.24L384.328 292.616ZM369.998 294.923L369.508 295.555L369.782 295.768L370.125 295.713L369.998 294.923ZM371.841 318.709L392.045 308.331L391.314 306.907L371.11 317.286L371.841 318.709ZM391.679 307.619C392.207 308.22 392.207 308.22 392.207 308.22C392.207 308.22 392.207 308.22 392.207 308.22C392.208 308.219 392.208 308.219 392.209 308.218C392.211 308.217 392.213 308.215 392.215 308.213C392.221 308.208 392.228 308.202 392.238 308.193C392.258 308.175 392.288 308.149 392.326 308.115C392.402 308.047 392.513 307.948 392.654 307.819C392.936 307.563 393.339 307.192 393.825 306.732C394.794 305.812 396.097 304.531 397.423 303.088C398.746 301.649 400.106 300.035 401.184 298.45C402.246 296.889 403.098 295.264 403.296 293.817L401.711 293.6C401.565 294.664 400.893 296.034 399.861 297.551C398.844 299.045 397.541 300.595 396.245 302.005C394.951 303.413 393.676 304.668 392.723 305.571C392.248 306.023 391.853 306.385 391.578 306.635C391.441 306.76 391.334 306.856 391.261 306.921C391.225 306.953 391.197 306.978 391.179 306.994C391.169 307.002 391.162 307.008 391.158 307.012C391.156 307.014 391.154 307.015 391.153 307.016C391.153 307.017 391.152 307.017 391.152 307.017C391.152 307.017 391.152 307.017 391.152 307.017C391.152 307.017 391.152 307.017 391.679 307.619ZM403.296 293.817C403.601 291.592 402.73 289.668 401.286 288.324C399.855 286.991 397.852 286.213 395.808 286.213L395.807 287.813C397.462 287.813 399.071 288.447 400.196 289.494C401.308 290.53 401.936 291.954 401.711 293.6L403.296 293.817ZM395.757 286.214C393.121 286.38 390.107 287.875 387.835 289.244C386.68 289.939 385.682 290.623 384.972 291.134C384.617 291.389 384.333 291.602 384.137 291.751C384.039 291.826 383.963 291.885 383.911 291.926C383.885 291.946 383.865 291.962 383.851 291.973C383.844 291.978 383.839 291.983 383.835 291.986C383.833 291.987 383.832 291.988 383.831 291.989C383.83 291.99 383.83 291.99 383.829 291.99C383.829 291.99 383.829 291.991 383.829 291.991C383.829 291.991 383.829 291.991 384.328 292.616C384.828 293.24 384.828 293.241 384.828 293.241C384.828 293.241 384.828 293.241 384.828 293.241C384.828 293.24 384.828 293.24 384.828 293.24C384.829 293.24 384.83 293.239 384.831 293.238C384.834 293.236 384.838 293.232 384.844 293.228C384.855 293.219 384.873 293.205 384.897 293.186C384.944 293.149 385.015 293.094 385.108 293.023C385.293 292.882 385.565 292.678 385.906 292.433C386.59 291.94 387.552 291.282 388.66 290.614C390.913 289.258 393.639 287.951 395.858 287.811L395.757 286.214ZM384.201 291.826L369.871 294.133L370.125 295.713L384.455 293.405L384.201 291.826ZM370.488 294.29L363.275 288.703L362.295 289.968L369.508 295.555L370.488 294.29Z" fill="#F0F5FC" mask="url(#path-80-inside-2_638_1003)"/>
<path d="M371.475 317.998L391.679 307.619C391.679 307.619 401.816 298.73 402.503 293.709C403.033 289.837 399.506 287.013 395.808 287.013C390.952 287.319 384.328 292.616 384.328 292.616L369.998 294.923L362.785 289.335" fill="#1B1D20"/>
<path d="M371.475 317.998L391.679 307.619C391.679 307.619 401.816 298.73 402.503 293.709C403.033 289.837 399.506 287.013 395.808 287.013C390.952 287.319 384.328 292.616 384.328 292.616L369.998 294.923L362.785 289.335" stroke="#F0F5FC" stroke-width="2.4" stroke-linecap="round" stroke-linejoin="round"/>
<path d="M362.788 289.335C362.788 289.335 378.153 283.086 378.169 283.08C380.603 281.943 382.303 279.376 382.303 276.386C382.303 272.341 379.195 269.062 375.36 269.062C374.394 269.062 352.004 269.972 352.004 269.972" fill="#1B1D20"/>
<path d="M362.788 289.335C362.788 289.335 378.153 283.086 378.169 283.08C380.603 281.943 382.303 279.376 382.303 276.386C382.303 272.341 379.195 269.062 375.36 269.062C374.394 269.062 352.004 269.972 352.004 269.972" fill="#1B1D20"/>
<path d="M362.788 289.335C362.788 289.335 378.153 283.086 378.169 283.08C380.603 281.943 382.303 279.376 382.303 276.386C382.303 272.341 379.195 269.062 375.36 269.062C374.394 269.062 352.004 269.972 352.004 269.972" stroke="#F0F5FC" stroke-width="2.4" stroke-linecap="round" stroke-linejoin="round"/>
<path d="M171.672 169.974C161.555 177.712 151.92 190.653 160.788 244.054C164.836 268.429 166.946 273.311 168.295 287.982C174.984 334.692 259.442 307.623 248.716 265.765C248.716 265.765 238.889 226.547 231.081 199.678" fill="#1B1D20"/>
<path d="M171.672 169.974C161.555 177.712 151.92 190.653 160.788 244.054C164.836 268.429 166.946 273.311 168.295 287.982C174.984 334.692 259.442 307.623 248.716 265.765C248.716 265.765 238.889 226.547 231.081 199.678" stroke="#682EC6" stroke-width="2.4" stroke-linecap="round" stroke-linejoin="round"/>
<path d="M167.675 279.223C167.397 280.922 167.439 282.885 167.869 285.16C176.649 331.567 199.519 346.168 232.222 345.515C269.563 344.768 326.977 329.938 326.977 329.938C326.977 329.938 338.992 291.196 316.047 270.267C300.278 272.095 277.732 267.802 259.782 264.891C240.831 261.817 229.403 260.354 220.509 260.665" fill="#1B1D20"/>
<path d="M167.675 279.223C167.397 280.922 167.439 282.885 167.869 285.16C176.649 331.567 199.519 346.168 232.222 345.515C269.563 344.768 326.977 329.938 326.977 329.938C326.977 329.938 338.992 291.196 316.047 270.267C300.278 272.095 277.732 267.802 259.782 264.891C240.831 261.817 229.403 260.354 220.509 260.665" stroke="#682EC6" stroke-width="2.4" stroke-linecap="round" stroke-linejoin="round"/>
<path d="M681.339 53.8954L688.302 83.1705L688.368 83.4491L688.653 83.4762L718.61 86.3193L689.335 93.2825L689.056 93.3487L689.029 93.6338L686.186 123.591L679.223 94.3156L679.157 94.037L678.872 94.01L648.915 91.1668L678.19 84.2037L678.469 84.1374L678.496 83.8523L681.339 53.8954Z" fill="#1B1D20" stroke="#F0F5FC" stroke-width="0.8"/>
<path d="M681.169 51.4524L688.691 83.078L721.053 86.1494L689.428 93.6716L686.356 126.034L678.834 94.4082L646.472 91.3367L678.097 83.8146L681.169 51.4524Z" fill="#1B1D20" stroke="#F0F5FC" stroke-width="2.4" stroke-linecap="round" stroke-linejoin="round"/>
<path d="M164.189 255.644C164.657 260.287 168.748 286.274 170.31 291.812C171.603 296.392 199.912 293.027 196.218 278.282C189.047 249.657 163.721 251.001 164.189 255.644Z" fill="#1B1D20"/>
<path d="M581.589 170.651L587.917 205.886L574.161 172.837L573.915 172.246L573.491 172.726L549.709 199.71L567.164 168.33L567.479 167.765L566.832 167.736L530.864 166.165L566.373 160.067L567.008 159.958L566.629 159.437L545.54 130.488L572.382 154.274L572.86 154.697L573.033 154.082L582.724 119.551L580.667 155.309L580.63 155.952L581.222 155.7L614.378 141.601L584.989 162.396L584.46 162.77L585.031 163.075L616.696 180.007L582.092 170.196L581.476 170.021L581.589 170.651Z" fill="#1B1D20" stroke="#F0F5FC" stroke-width="0.8"/>
<path d="M588.96 209.434L573.791 172.991L547.556 202.757L566.814 168.136L527.121 166.402L566.305 159.673L543.045 127.744L572.648 153.974L583.335 115.894L581.066 155.332L617.653 139.774L585.22 162.722L620.156 181.404L581.983 170.581L588.96 209.434Z" stroke="#F0F5FC" stroke-width="2.4" stroke-linecap="round" stroke-linejoin="round"/>
<path d="M677.014 282.229L608.554 283.25L658.554 331.993L659.887 312.232L686.089 323.275L691.032 309.972L664.93 298.988L677.014 282.229Z" fill="#1B1D20"/>
<path d="M677.014 282.229L608.554 283.25L658.554 331.993L659.887 312.232L686.089 323.275L691.032 309.972L664.93 298.988L677.014 282.229Z" stroke="#F0F5FC" stroke-width="2.30075" stroke-linecap="round" stroke-linejoin="round"/>
<path d="M31.463 125.282L33.4345 146.807L33.4607 147.092L33.739 147.159L54.7503 152.229L33.2258 154.201L32.9406 154.227L32.8735 154.505L27.8033 175.516L25.8318 153.992L25.8057 153.707L25.5273 153.64L4.51604 148.569L26.0405 146.598L26.3257 146.572L26.3929 146.293L31.463 125.282Z" fill="#1B1D20" stroke="#F0F5FC" stroke-width="0.8"/>
<path d="M31.6409 122.84L33.8329 146.77L57.1929 152.407L33.2623 154.599L27.6254 177.959L25.4335 154.028L2.0734 148.392L26.004 146.2L31.6409 122.84Z" fill="#1B1D20" stroke="#F0F5FC" stroke-width="2.4" stroke-linecap="round" stroke-linejoin="round"/>
<path d="M533.369 76.618C537.665 78.4512 535.454 84.6159 530.971 83.299C526.675 81.4657 528.886 75.301 533.369 76.618Z" fill="#1B1D20" stroke="#F0F5FC" stroke-width="0.8"/>
<path d="M533.505 76.2409C528.517 74.7521 526.041 81.6545 530.836 83.6761C535.824 85.1649 538.3 78.2625 533.505 76.2409Z" fill="#1B1D20" stroke="#F0F5FC" stroke-width="2.4" stroke-linecap="round" stroke-linejoin="round"/>
<path d="M702.174 413.975C706.47 415.808 704.259 421.973 699.776 420.656C695.48 418.823 697.691 412.658 702.174 413.975Z" fill="white" stroke="#F0F5FC" stroke-width="0.8"/>
<path d="M702.247 413.209C697.259 411.72 694.783 418.622 699.578 420.644C704.566 422.133 707.042 415.23 702.247 413.209Z" fill="#1B1D20" stroke="#F0F5FC" stroke-width="2.4" stroke-linecap="round" stroke-linejoin="round"/>
<path d="M121.135 121.049C125.431 122.882 123.22 129.047 118.737 127.73C114.441 125.897 116.652 119.732 121.135 121.049Z" fill="#1B1D20" stroke="#F0F5FC" stroke-width="0.8"/>
<path d="M121.27 120.672C116.282 119.183 113.806 126.085 118.601 128.107C123.589 129.596 126.065 122.693 121.27 120.672Z" fill="#1B1D20" stroke="#F0F5FC" stroke-width="2.4" stroke-linecap="round" stroke-linejoin="round"/>
<path d="M19.0464 347.398C24.0414 347.398 28.0912 351.448 28.0912 356.443C28.0912 361.438 24.0414 365.488 19.0464 365.488C14.0513 365.488 10.0016 361.438 10.0016 356.443C10.0016 351.448 14.0513 347.398 19.0464 347.398Z" fill="#1B1D20" stroke="#F0F5FC" stroke-width="0.8"/>
<path d="M28.4912 356.443C28.4912 351.227 24.2624 346.998 19.0464 346.998C13.8304 346.998 9.60156 351.227 9.60156 356.443C9.60156 361.659 13.8304 365.888 19.0464 365.888C24.2624 365.888 28.4912 361.659 28.4912 356.443Z" fill="#1B1D20" stroke="#F0F5FC" stroke-width="2.4" stroke-linecap="round" stroke-linejoin="round"/>
<path d="M16.8144 241.369L16.7095 241.734L16.8143 241.369C14.9282 240.827 13.8277 238.838 14.3697 236.952C14.9117 235.065 16.9005 233.964 18.7868 234.506L77.5727 251.4L77.6832 251.015L77.5727 251.4C79.4589 251.942 80.5593 253.931 80.0173 255.817C79.4754 257.704 77.4866 258.805 75.6002 258.263L16.8144 241.369Z" fill="#1B1D20" stroke="#F0F5FC" stroke-width="0.8"/>
<path d="M13.9853 236.841C14.5882 234.743 16.7986 233.519 18.8973 234.122L77.6832 251.015C79.7818 251.618 81.0047 253.829 80.4018 255.928C79.7988 258.026 77.5884 259.25 75.4898 258.647L16.7039 241.754C14.6052 241.151 13.3823 238.94 13.9853 236.841Z" fill="#1B1D20" stroke="#F0F5FC" stroke-width="2.4" stroke-linecap="round" stroke-linejoin="round"/>
<path d="M362.547 31.0104L362.547 31.0104L416.597 2.37905C416.597 2.37904 416.597 2.37904 416.597 2.37903C418.331 1.4604 420.504 2.12802 421.423 3.86236C422.341 5.59694 421.674 7.76977 419.94 8.6883L419.939 8.68832L365.889 37.3197C365.889 37.3197 365.889 37.3197 365.889 37.3197C364.155 38.2383 361.982 37.5707 361.063 35.8364C360.145 34.1018 360.812 31.929 362.547 31.0104Z" fill="#1B1D20" stroke="#F0F5FC" stroke-width="0.8"/>
<path d="M360.71 36.0236C359.688 34.0939 360.43 31.6789 362.36 30.6569L416.41 2.02556C418.339 1.00357 420.754 1.74545 421.776 3.67514C422.798 5.60484 422.056 8.0198 420.127 9.04179L366.077 37.6732C364.147 38.6952 361.732 37.9533 360.71 36.0236Z" fill="#1B1D20" stroke="#F0F5FC" stroke-width="2.4" stroke-linecap="round" stroke-linejoin="round"/>
<path d="M415.415 397.433C413.262 397.801 411.2 396.342 410.832 394.189L400.515 333.9C400.147 331.748 401.607 329.685 403.759 329.317C405.911 328.949 407.974 330.409 408.342 332.561L418.658 392.85C419.026 395.002 417.567 397.065 415.415 397.433Z" fill="#1B1D20"/>
<path d="M415.415 397.433C413.262 397.801 411.2 396.342 410.832 394.189L400.515 333.9C400.147 331.748 401.607 329.685 403.759 329.317C405.911 328.949 407.974 330.409 408.342 332.561L418.658 392.85C419.026 395.002 417.567 397.065 415.415 397.433Z" fill="#1B1D20" stroke="#F0F5FC" stroke-width="2.4" stroke-linecap="round" stroke-linejoin="round"/>
<path d="M334.062 410.171C345.39 405.09 354.688 394.456 358.495 382.673C363.778 393.916 374.226 403.479 386.155 407.16C374.771 412.208 365.428 422.879 361.609 434.698C356.344 423.457 345.899 414.007 334.062 410.171Z" fill="#1B1D20" stroke="#F0F5FC" stroke-width="0.787587"/>
<path d="M358.424 381.567C363.642 393.415 374.668 403.538 387.199 407.057L387.204 407.139C375.207 412.1 365.344 423.392 361.679 435.805C356.47 423.926 345.402 413.908 332.928 410.232C344.906 405.251 354.762 393.975 358.424 381.567Z" fill="#1B1D20" stroke="#F0F5FC" stroke-width="2.36276" stroke-linecap="round" stroke-linejoin="round"/>
<path d="M698.335 219.173C703.475 219.173 707.642 223.34 707.642 228.479C707.642 233.619 703.475 237.786 698.335 237.786C693.195 237.786 689.029 233.619 689.029 228.479C689.029 223.34 693.195 219.173 698.335 219.173Z" fill="#1B1D20" stroke="#F0F5FC" stroke-width="0.8"/>
<path d="M708.042 228.479C708.042 223.119 703.696 218.773 698.335 218.773C692.975 218.773 688.629 223.119 688.629 228.479C688.629 233.84 692.975 238.186 698.335 238.186C703.696 238.186 708.042 233.84 708.042 228.479Z" fill="#1B1D20" stroke="#F0F5FC" stroke-width="2.4" stroke-linecap="round" stroke-linejoin="round"/>
</g>
<defs>
<clipPath id="clip0_638_1003">
<rect width="723" height="470" fill="white"/>
</clipPath>
</defs>
</svg>
