<svg width="636" height="545" viewBox="0 0 636 545" fill="none" xmlns="http://www.w3.org/2000/svg">
<g clip-path="url(#clip0_636_376)">
<path d="M420.453 30.6642L174.135 32.4933L175.166 171.37L421.485 169.541L420.453 30.6642Z" fill="#1B1D20"/>
<path d="M420.453 30.6642L174.135 32.4933L175.166 171.37L421.485 169.541L420.453 30.6642Z" stroke="#F0F5FC" stroke-width="2.25" stroke-linecap="round" stroke-linejoin="round"/>
<path d="M192.035 3.61953L402.128 2.05945C412.131 1.98517 420.301 10.0345 420.375 20.0377L421.584 182.829L175.265 184.658L174.056 21.8668C173.982 11.8636 182.031 3.69381 192.035 3.61953Z" stroke="#F0F5FC" stroke-width="2.25" stroke-linecap="round" stroke-linejoin="round"/>
<path d="M421.485 169.54L175.166 171.369L175.265 184.657L421.583 182.828L421.485 169.54Z" fill="#1B1D20"/>
<path d="M421.485 169.54L175.166 171.369L175.265 184.657L421.583 182.828L421.485 169.54Z" stroke="#F0F5FC" stroke-width="2.25" stroke-linejoin="round"/>
<path d="M193.715 13.7406C196.187 13.7222 198.205 15.7107 198.223 18.1817C198.241 20.6528 196.253 22.671 193.782 22.6893C191.311 22.7077 189.293 20.7193 189.274 18.2482C189.256 15.7771 191.244 13.7589 193.715 13.7406Z" fill="#1B1D20" stroke="#F0F5FC" stroke-width="0.75"/>
<path d="M198.598 18.179C198.578 15.5008 196.391 13.3457 193.713 13.3656C191.034 13.3855 188.879 15.5728 188.899 18.251C188.919 20.9292 191.106 23.0842 193.785 23.0643C196.463 23.0444 198.618 20.8571 198.598 18.179Z" fill="#1B1D20" stroke="#F0F5FC" stroke-width="2.25" stroke-linecap="round" stroke-linejoin="round"/>
<path d="M219.159 18.0262C219.139 15.3481 216.951 13.193 214.273 13.2129C211.595 13.2328 209.44 15.4201 209.46 18.0983C209.48 20.7764 211.667 22.9315 214.345 22.9116C217.023 22.8917 219.178 20.7044 219.159 18.0262Z" fill="#1B1D20"/>
<path d="M219.159 18.0262C219.139 15.3481 216.951 13.193 214.273 13.2129C211.595 13.2328 209.44 15.4201 209.46 18.0983C209.48 20.7764 211.667 22.9315 214.345 22.9116C217.023 22.8917 219.178 20.7044 219.159 18.0262Z" fill="#1B1D20" stroke="#F0F5FC" stroke-width="2.25" stroke-linecap="round" stroke-linejoin="round"/>
<path d="M244.958 122.124L196.592 171.213L293.915 170.36L244.958 122.124ZM245.044 138.784L265.619 159.056L224.717 159.415L245.044 138.784Z" fill="#1B1D20"/>
<path d="M244.958 122.124L196.592 171.213L293.915 170.36L244.958 122.124ZM245.044 138.784L265.619 159.056L224.717 159.415L245.044 138.784Z" fill="#1B1D20" stroke="#F0F5FC" stroke-width="2.25" stroke-linecap="round" stroke-linejoin="round"/>
<path d="M361.793 169.51L300.002 169.969L299.901 156.333L361.692 155.874L361.793 169.51Z" fill="#1B1D20" stroke="#F0F5FC" stroke-width="0.75"/>
<path d="M362.171 169.882L299.63 170.347L299.523 155.96L362.064 155.496L362.171 169.882Z" stroke="#F0F5FC" stroke-width="2.25" stroke-linecap="round" stroke-linejoin="round"/>
<path d="M311.518 155.793L311.622 169.899" stroke="#F0F5FC" stroke-width="2.25" stroke-linecap="round" stroke-linejoin="round"/>
<path d="M283.7 89.7784C284.512 89.1364 285.314 88.4877 286.109 87.8345C297.64 78.3609 300.695 67.9961 295.78 64.2938C289.884 59.8532 277.938 84.5411 291.289 96.245C303.812 107.223 319.725 91.2007 322.818 80.9797C322.451 92.3655 330.419 100.822 347.049 99.7543" stroke="white" stroke-width="2.25" stroke-linecap="round" stroke-linejoin="round"/>
<path d="M198.48 327.106H374.639V221.853C374.639 215.064 369.135 209.56 362.345 209.56H210.774C203.985 209.56 198.48 215.064 198.48 221.853V327.106Z" fill="#1B1D20"/>
<path d="M198.48 327.106H374.639V221.853C374.639 215.064 369.135 209.56 362.345 209.56H210.774C203.985 209.56 198.48 215.064 198.48 221.853V327.106Z" stroke="#F0F5FC" stroke-width="2.25" stroke-linecap="round" stroke-linejoin="round"/>
<path d="M209.4 316.826H363.719V223.542H209.4V316.826Z" fill="#1B1D20"/>
<path d="M209.4 316.826H363.719V223.542H209.4V316.826Z" stroke="#F0F5FC" stroke-width="2.25" stroke-linecap="round" stroke-linejoin="round"/>
<path d="M176.894 490.555C176.894 490.555 167.295 482.156 167.295 467.477C167.295 452.798 178.107 444.441 178.107 444.441L65.635 444.442C65.635 444.442 54.8223 452.799 54.8223 467.478C54.8223 482.157 64.4223 490.556 64.4223 490.556L176.894 490.555Z" fill="#1B1D20"/>
<path d="M176.894 490.555C176.894 490.555 167.295 482.156 167.295 467.477C167.295 452.798 178.107 444.441 178.107 444.441L65.635 444.442C65.635 444.442 54.8223 452.799 54.8223 467.478C54.8223 482.157 64.4223 490.556 64.4223 490.556L176.894 490.555Z" stroke="#682EC6" stroke-width="2.25" stroke-linecap="round" stroke-linejoin="round"/>
<path d="M133.188 490.561C133.188 490.561 123.588 482.161 123.588 467.482C123.588 452.803 134.401 444.447 134.401 444.447H124.895C124.895 444.447 114.082 452.803 114.082 467.482C114.082 482.161 123.681 490.561 123.681 490.561H133.188Z" fill="#1B1D20"/>
<path d="M133.188 490.561C133.188 490.561 123.588 482.161 123.588 467.482C123.588 452.803 134.401 444.447 134.401 444.447H124.895C124.895 444.447 114.082 452.803 114.082 467.482C114.082 482.161 123.681 490.561 123.681 490.561H133.188Z" stroke="#F0F5FC" stroke-width="2.25" stroke-linecap="round" stroke-linejoin="round"/>
<path d="M257.794 450.851C257.794 450.851 250.96 457.741 250.96 467.864C250.96 477.987 257.429 485.141 257.429 485.141H181.719C181.719 485.141 175.848 478.508 175.848 467.642C175.848 456.776 181.571 450.851 181.571 450.851H257.794Z" fill="#1B1D20"/>
<path d="M257.794 450.851C257.794 450.851 250.96 457.741 250.96 467.864C250.96 477.987 257.429 485.141 257.429 485.141H181.719C181.719 485.141 175.848 478.508 175.848 467.642C175.848 456.776 181.571 450.851 181.571 450.851H257.794Z" stroke="#F0F5FC" stroke-width="2.25" stroke-linejoin="round"/>
<path d="M267.563 444.441H178.108C178.108 444.441 167.295 452.798 167.295 467.477C167.295 482.156 176.894 490.556 176.894 490.556L266.152 490.555L266.152 485.14H181.72C181.72 485.14 175.849 476.722 175.849 467.641C175.849 458.56 181.572 450.851 181.572 450.851H267.586L267.563 444.441Z" fill="#1B1D20"/>
<path d="M267.563 444.441H178.108C178.108 444.441 167.295 452.798 167.295 467.477C167.295 482.156 176.894 490.556 176.894 490.556L266.152 490.555L266.152 485.14H181.72C181.72 485.14 175.849 476.722 175.849 467.641C175.849 458.56 181.572 450.851 181.572 450.851H267.586L267.563 444.441Z" stroke="#682EC6" stroke-width="2.25" stroke-linecap="round" stroke-linejoin="round"/>
<path d="M110.997 490.561C110.997 490.561 101.397 482.161 101.397 467.482C101.397 452.803 112.21 444.447 112.21 444.447H102.703C102.703 444.447 91.8906 452.803 91.8906 467.482C91.8906 482.161 101.49 490.561 101.49 490.561H110.997Z" fill="#1B1D20"/>
<path d="M110.997 490.561C110.997 490.561 101.397 482.161 101.397 467.482C101.397 452.803 112.21 444.447 112.21 444.447H102.703C102.703 444.447 91.8906 452.803 91.8906 467.482C91.8906 482.161 101.49 490.561 101.49 490.561H110.997Z" fill="#1B1D20" stroke="#F0F5FC" stroke-width="2.25" stroke-linecap="round" stroke-linejoin="round"/>
<path d="M255.944 495.495C255.944 495.495 249.056 502.187 249.056 512.309C249.056 522.432 255.568 529.785 255.568 529.785H179.857C179.857 529.785 173.943 522.953 173.943 512.087C173.943 501.221 179.709 495.495 179.709 495.495H255.944Z" fill="#1B1D20"/>
<path d="M255.944 495.495C255.944 495.495 249.056 502.187 249.056 512.309C249.056 522.432 255.568 529.785 255.568 529.785H179.857C179.857 529.785 173.943 522.953 173.943 512.087C173.943 501.221 179.709 495.495 179.709 495.495H255.944Z" stroke="#F0F5FC" stroke-width="2.25" stroke-linejoin="round"/>
<path d="M272.847 495.12H179.709H179.52L179.408 495.272L179.709 495.495C179.408 495.272 179.407 495.272 179.407 495.272L179.407 495.272L179.406 495.274L179.402 495.279L179.389 495.297C179.378 495.313 179.361 495.336 179.339 495.366C179.296 495.427 179.233 495.516 179.153 495.632C178.994 495.865 178.767 496.207 178.496 496.644C177.953 497.519 177.23 498.779 176.507 500.327C175.064 503.417 173.61 507.671 173.61 512.286C173.61 516.902 175.101 521.332 176.58 524.596C177.32 526.23 178.061 527.578 178.617 528.519C178.895 528.989 179.127 529.358 179.29 529.61C179.372 529.735 179.436 529.832 179.48 529.898C179.502 529.931 179.519 529.956 179.531 529.973L179.544 529.992L179.548 529.998L179.549 529.999L179.549 529.999C179.549 530 179.55 530 179.857 529.785L179.55 530L179.661 530.16H179.857H271.414V534.451L175.815 534.45C175.812 534.448 175.809 534.445 175.806 534.443C175.734 534.383 175.627 534.292 175.49 534.171C175.216 533.928 174.822 533.564 174.348 533.08C173.401 532.112 172.135 530.668 170.869 528.77C168.337 524.975 165.807 519.37 165.807 512.122C165.807 504.883 168.633 499.106 171.468 495.13C172.886 493.143 174.303 491.61 175.365 490.574C175.896 490.057 176.338 489.664 176.645 489.401C176.799 489.27 176.92 489.171 177.001 489.106C177.009 489.099 177.017 489.093 177.024 489.087L272.825 489.086L272.847 495.12Z" fill="#1B1D20" stroke="#F0F5FC" stroke-width="0.75"/>
<path d="M273.199 488.711L176.895 488.712C176.895 488.712 165.432 497.443 165.432 512.122C165.432 526.801 175.682 534.825 175.682 534.825L271.789 534.826V529.785H179.857C179.857 529.785 173.985 521.367 173.985 512.286C173.985 503.205 179.709 495.495 179.709 495.495H273.223L273.199 488.711Z" fill="#1B1D20" stroke="#F0F5FC" stroke-width="2.25" stroke-linecap="round" stroke-linejoin="round"/>
<path d="M175.681 534.825C175.681 534.825 166.082 526.426 166.082 511.747C166.082 497.068 176.894 488.711 176.894 488.711L64.4221 488.712C64.4221 488.712 53.6094 497.069 53.6094 511.748C53.6094 526.427 63.2094 534.826 63.2094 534.826L175.681 534.825Z" fill="#1B1D20"/>
<path d="M175.681 534.825C175.681 534.825 166.082 526.426 166.082 511.747C166.082 497.068 176.894 488.711 176.894 488.711L64.4221 488.712C64.4221 488.712 53.6094 497.069 53.6094 511.748C53.6094 526.427 63.2094 534.826 63.2094 534.826L175.681 534.825Z" stroke="#F0F5FC" stroke-width="2.25" stroke-linecap="round" stroke-linejoin="round"/>
<path d="M122.805 534.776C122.805 534.776 113.205 526.376 113.205 511.697C113.205 497.018 124.018 488.661 124.018 488.661H102.705C102.705 488.661 91.8926 497.018 91.8926 511.697C91.8926 526.376 101.492 534.776 101.492 534.776H122.805Z" fill="#1B1D20"/>
<path d="M122.805 534.776C122.805 534.776 113.205 526.376 113.205 511.697C113.205 497.018 124.018 488.661 124.018 488.661H102.705C102.705 488.661 91.8926 497.018 91.8926 511.697C91.8926 526.376 101.492 534.776 101.492 534.776H122.805Z" stroke="#F0F5FC" stroke-width="2.25" stroke-linecap="round" stroke-linejoin="round"/>
<path d="M240.078 475.969C240.118 475.29 240.158 474.635 240.197 474.004C240.875 463.022 241.113 459.182 229.526 459.078C216.205 458.958 216.236 464.247 216.277 471.512C216.285 472.84 216.293 474.233 216.22 475.672M240.078 475.969L209.942 508.103M240.078 475.969C239.44 486.883 233.417 509.635 232.472 513.153L240.078 475.969ZM216.22 475.672C215.883 482.337 210.396 504.711 209.491 508.364L209.942 508.103M216.22 475.672L216.595 475.691M216.22 475.672L216.595 475.691M209.942 508.103L222.783 500.672L223.073 500.505L223.272 500.773L232.186 512.769C232.217 512.654 232.251 512.526 232.289 512.386C232.482 511.659 232.76 510.606 233.095 509.305C233.765 506.703 234.665 503.111 235.588 499.149C237.434 491.216 239.359 481.834 239.704 475.947L239.704 475.947C239.744 475.264 239.784 474.606 239.823 473.974C239.963 471.704 240.084 469.753 240.086 468.074C240.088 465.925 239.894 464.282 239.329 463.034C238.776 461.811 237.852 460.939 236.314 460.358C234.756 459.769 232.572 459.48 229.523 459.453C225.606 459.418 222.893 459.854 221.012 460.647C219.149 461.433 218.095 462.57 217.486 463.979C216.868 465.408 216.696 467.142 216.658 469.138C216.643 469.883 216.648 470.671 216.652 471.489C216.66 472.827 216.668 474.246 216.595 475.691M209.942 508.103C209.963 508.018 209.985 507.927 210.009 507.831C210.187 507.107 210.442 506.065 210.749 504.792C211.363 502.246 212.186 498.776 213.021 495.078C214.686 487.699 216.409 479.363 216.595 475.691" fill="#1B1D20" stroke="#F0F5FC" stroke-width="0.75"/>
<path d="M209.365 508.87C209.365 508.87 215.853 482.938 216.22 475.672C216.693 466.36 213.771 458.936 229.526 459.078C241.778 459.188 240.809 463.476 240.078 475.969C239.385 487.817 232.347 513.614 232.347 513.614L222.971 500.997L209.365 508.87Z" stroke="#F0F5FC" stroke-width="2.25" stroke-linecap="round" stroke-linejoin="round"/>
<path d="M201.84 472.669H240.028" stroke="#F0F5FC" stroke-width="2.25" stroke-linecap="round" stroke-linejoin="round"/>
<path d="M123.967 172.718C120.619 170.329 111.164 172.489 109.083 178.524C107.002 184.559 106.391 190.361 107.176 191.678C107.962 192.995 121.882 191.869 121.882 191.869C121.882 191.869 127.4 175.17 123.967 172.718Z" stroke="#F0F5FC" stroke-width="2.25" stroke-linecap="round" stroke-linejoin="round"/>
<path d="M117.627 192.756C117.627 192.756 116.721 160.078 116.476 155.742C115.866 144.95 131.742 140.221 136.593 148.988C143.091 160.734 155.405 193.248 155.405 193.248C161.399 207.429 118.228 206.462 117.627 192.756Z" fill="#1B1D20"/>
<path d="M117.627 192.756C117.627 192.756 116.721 160.078 116.476 155.742C115.866 144.95 131.742 140.221 136.593 148.988C143.091 160.734 155.405 193.248 155.405 193.248C161.399 207.429 118.228 206.462 117.627 192.756Z" stroke="#F0F5FC" stroke-width="2.25" stroke-linecap="round" stroke-linejoin="round"/>
<path d="M135.823 164.556C138.443 165.983 141.207 165.391 143.065 163.682" stroke="#F0F5FC" stroke-width="2.25" stroke-linecap="round" stroke-linejoin="round"/>
<path d="M129.816 155.874L129.816 155.874L129.801 155.895L129.788 155.917C128.765 157.724 128.249 159.476 127.846 161.135C127.75 161.531 127.66 161.919 127.573 162.3C127.289 163.531 127.022 164.692 126.593 165.812C126.039 167.26 125.22 168.619 123.758 169.885C122.366 171.091 120.375 172.227 117.441 173.268C117.205 165.393 116.961 157.68 116.851 155.721L116.851 155.721C116.596 151.224 119.315 147.808 122.908 146.066C126.451 144.349 130.759 144.302 133.774 146.399C133.724 148.54 132.778 150.862 131.805 152.694C131.307 153.632 130.808 154.429 130.434 154.991C130.247 155.272 130.092 155.494 129.983 155.646C129.929 155.721 129.887 155.779 129.858 155.818L129.826 155.861L129.818 155.872L129.816 155.874L129.816 155.874Z" fill="#1B1D20" stroke="#F0F5FC" stroke-width="0.75"/>
<path d="M130.115 156.101C130.115 156.101 134.159 150.783 134.151 146.208C127.829 141.583 115.946 146.377 116.476 155.742C116.589 157.737 116.841 165.736 117.081 173.79C129.993 169.406 126.124 163.153 130.115 156.101Z" stroke="#F0F5FC" stroke-width="2.25" stroke-linecap="round" stroke-linejoin="round"/>
<path d="M134.564 152.366L134.39 152.033L134.378 152.04C133.627 152.468 132.912 152.435 132.271 152.127C131.614 151.811 131.022 151.198 130.591 150.456C130.161 149.714 129.912 148.881 129.907 148.161C129.902 147.44 130.137 146.895 130.6 146.603C131.626 145.955 133.46 145.391 135.424 144.888C136.274 144.671 137.152 144.464 137.981 144.269C139.027 144.023 139.997 143.795 140.741 143.585C141.937 143.247 143.131 143.68 143.762 144.366C144.074 144.706 144.229 145.085 144.213 145.444C144.197 145.795 144.015 146.193 143.523 146.576L143.523 146.576C142.188 147.614 139.913 148.976 137.954 150.086C136.978 150.639 136.086 151.126 135.439 151.475C135.115 151.649 134.853 151.789 134.671 151.885C134.581 151.933 134.51 151.97 134.462 151.995L134.408 152.024L134.394 152.031L134.391 152.033L134.39 152.033L134.39 152.033L134.564 152.366Z" fill="#1B1D20" stroke="#F0F5FC" stroke-width="0.75"/>
<path d="M134.564 152.366C134.564 152.366 141.033 148.987 143.754 146.872C145.994 145.13 143.309 142.47 140.639 143.224C137.968 143.979 132.568 144.918 130.4 146.286C127.955 147.827 131.102 154.339 134.564 152.366Z" stroke="#F0F5FC" stroke-width="2.25" stroke-linecap="round" stroke-linejoin="round"/>
<path d="M116.747 162.939C119.526 160.818 137.507 150.701 137.507 150.701C137.507 150.701 134.485 141.908 123.493 145.396C112.5 148.884 116.747 162.939 116.747 162.939Z" fill="#1B1D20"/>
<path d="M116.747 162.939C119.526 160.818 137.507 150.701 137.507 150.701C137.507 150.701 134.485 141.908 123.493 145.396C112.5 148.884 116.747 162.939 116.747 162.939Z" fill="#1B1D20" stroke="#F0F5FC" stroke-width="2.25" stroke-linecap="round" stroke-linejoin="round"/>
<path d="M501.278 442.086C490.159 442.655 468.381 439.998 457.635 432.027C412.313 398.407 381.903 468.888 425.06 495.805C443.003 506.996 487.278 529.547 493.368 530.589C499.458 531.631 511.41 538.78 518.722 525.755C523.155 517.857 531.116 497.892 543.549 476.133C554.177 457.452 568.029 437.969 571.47 431.262C577.491 419.526 567.364 407.475 555.566 413.069C543.71 418.691 518.44 441.209 501.278 442.086Z" fill="#1B1D20"/>
<path d="M501.278 442.086C490.159 442.655 468.381 439.998 457.635 432.027C412.313 398.407 381.903 468.888 425.06 495.805C443.003 506.996 487.278 529.547 493.368 530.589C499.458 531.631 511.41 538.78 518.722 525.755C523.155 517.857 531.116 497.892 543.549 476.133C554.177 457.452 568.029 437.969 571.47 431.262C577.491 419.526 567.364 407.475 555.566 413.069C543.71 418.691 518.44 441.209 501.278 442.086Z" stroke="#F0F5FC" stroke-width="2.25" stroke-linecap="round" stroke-linejoin="round"/>
<path d="M559.936 449.124C565.913 441.143 569.733 434.647 571.47 431.262C577.491 419.526 567.363 407.475 555.566 413.069C553.77 413.921 550.6 415.583 548.248 417.122C545.093 430.003 551.717 444.303 559.936 449.124Z" fill="#1B1D20"/>
<path d="M559.936 449.124C565.913 441.143 569.733 434.647 571.47 431.262C577.491 419.526 567.363 407.475 555.566 413.069C553.77 413.921 550.6 415.583 548.248 417.122C545.093 430.003 551.717 444.303 559.936 449.124Z" stroke="#F0F5FC" stroke-width="2.25" stroke-linejoin="round"/>
<path d="M496.66 499.167C482.675 501.081 472.192 512.196 467.405 518.98C481.269 525.187 490.824 529.867 493.368 530.59C501.142 532.884 511.41 538.781 518.722 525.756C520.749 522.144 523.315 515.122 527.759 506.668C519.789 502.589 508.387 497.562 496.66 499.167Z" fill="#1B1D20"/>
<path d="M496.66 499.167C482.675 501.081 472.192 512.196 467.405 518.98C481.269 525.187 490.824 529.867 493.368 530.59C501.142 532.884 511.41 538.781 518.722 525.756C520.749 522.144 523.315 515.122 527.759 506.668C519.789 502.589 508.387 497.562 496.66 499.167Z" stroke="#F0F5FC" stroke-width="2.25" stroke-linejoin="round"/>
<path d="M290.34 397.342L424.667 494.066L458.693 430.352C458.693 430.352 347.402 335.175 328.963 325.889C316.227 319.476 306.477 318.315 291.481 319.696" fill="white"/>
<path d="M290.34 397.342L424.667 494.066L458.693 430.352C458.693 430.352 347.402 335.175 328.963 325.889C316.227 319.476 306.477 318.315 291.481 319.696" fill="#1B1D20"/>
<path d="M290.34 397.342L424.667 494.066L458.693 430.352C458.693 430.352 347.402 335.175 328.963 325.889C316.227 319.476 306.477 318.315 291.481 319.696" stroke="#F0F5FC" stroke-width="2.25" stroke-linecap="round" stroke-linejoin="round"/>
<path d="M295.921 319.756C282.271 320.47 88.832 349.014 79.7255 353.662C74.9983 353.662 52.5 314.5 55 389.5C55.8501 415.001 52.0347 440.972 102.703 442.603C136.075 443.678 141.467 435.01 145.307 431.065C148.931 427.342 300.79 406.8 309.484 402.126" stroke="#F0F5FC" stroke-width="2.25" stroke-linecap="round" stroke-linejoin="round"/>
<path d="M339.481 469.128C339.4 474.488 339.481 483.77 340.077 501.874C341.029 530.812 359.763 535.62 387.697 535.374C398.989 535.275 415.711 535.534 432.326 535.765C456.811 536.106 481.064 536.388 487.371 535.374C497.958 533.674 502.735 526.812 501.958 520.926C501.18 515.04 499.26 508.887 488.435 505.857C477.61 502.827 434.263 496.976 421.927 485.092C417.311 480.645 415.136 475.775 415.136 468.198C415.136 443.389 339.989 435.449 339.481 469.128Z" fill="#1B1D20"/>
<path d="M339.481 469.128C339.4 474.488 339.481 483.77 340.077 501.874C341.029 530.812 359.763 535.62 387.697 535.374C398.989 535.275 415.711 535.534 432.326 535.765C456.811 536.106 481.064 536.388 487.371 535.374C497.958 533.674 502.735 526.812 501.958 520.926C501.18 515.04 499.26 508.887 488.435 505.857C477.61 502.827 434.263 496.976 421.927 485.092C417.311 480.645 415.136 475.775 415.136 468.198C415.136 443.389 339.989 435.449 339.481 469.128Z" stroke="#F0F5FC" stroke-width="2.25" stroke-linecap="round" stroke-linejoin="round"/>
<path d="M501.958 520.927C500.399 509.91 494.095 505.945 477.7 503.505C476.563 506.124 473.001 511.938 469.234 518.142C464.855 525.356 463.063 528.437 457.875 536.052C471.958 536.14 483.337 536.022 487.372 535.374C497.959 533.674 502.79 526.806 501.958 520.927Z" fill="#1B1D20"/>
<path d="M501.958 520.927C500.399 509.91 494.095 505.945 477.7 503.505C476.563 506.124 473.001 511.938 469.234 518.142C464.855 525.356 463.063 528.437 457.875 536.052C471.958 536.14 483.337 536.022 487.372 535.374C497.959 533.674 502.79 526.806 501.958 520.927Z" stroke="#F0F5FC" stroke-width="2.25" stroke-linejoin="round"/>
<path d="M340.041 501.44C340.473 530.878 360.035 535.374 388.352 535.37C385.784 529.332 381.086 520.055 373.949 512.46C365.793 503.781 350.882 501.739 340.041 501.44Z" fill="#1B1D20"/>
<path d="M340.041 501.44C340.473 530.878 360.035 535.374 388.352 535.37C385.784 529.332 381.086 520.055 373.949 512.46C365.793 503.781 350.882 501.739 340.041 501.44Z" stroke="#F0F5FC" stroke-width="2.25" stroke-linejoin="round"/>
<path d="M343.495 363.139C343.328 368.488 339.48 469.129 339.48 469.129L381.107 468.617L415.136 468.199C415.136 468.199 414.732 356.034 414.896 336.734C415.136 308.502 403.035 287.821 382.694 287.848C342.802 287.899 344.015 346.525 343.495 363.139Z" fill="#1B1D20"/>
<path d="M343.495 363.139C343.328 368.488 339.48 469.129 339.48 469.129L381.107 468.617L415.136 468.199C415.136 468.199 414.732 356.034 414.896 336.734C415.136 308.502 403.035 287.821 382.694 287.848C342.802 287.899 344.015 346.525 343.495 363.139Z" fill="#1B1D20" stroke="#F0F5FC" stroke-width="2.25" stroke-linecap="round" stroke-linejoin="round"/>
<path d="M356.43 370.052C356.43 370.052 335.156 389.344 291.813 417.053C269.526 431.301 253.977 435.21 231.202 439.326C212.913 442.632 159.555 445.734 145.306 431.065C126.849 412.065 129.08 367.693 134.4 353.55C134.4 353.55 219.847 354.576 240.027 350.231C267.585 344.296 286.687 331.085 316.035 313.857C345.382 296.63 375.703 282.541 392.682 289.703" fill="#1B1D20"/>
<path d="M356.43 370.052C356.43 370.052 335.156 389.344 291.813 417.053C269.526 431.301 253.977 435.21 231.202 439.326C212.913 442.632 159.555 445.734 145.306 431.065C126.849 412.065 129.08 367.693 134.4 353.55C134.4 353.55 219.847 354.576 240.027 350.231C267.585 344.296 286.687 331.085 316.035 313.857C345.382 296.63 375.703 282.541 392.683 289.703" stroke="#F0F5FC" stroke-width="2.25" stroke-linecap="round" stroke-linejoin="round"/>
<path d="M222.653 340.836C217.003 338.683 56.5099 335.063 56.2851 352.831C56.0602 370.599 55.1033 406.012 58.6747 417.387C65.2443 438.311 89.8843 441.842 112.111 441.847C134.337 441.852 140.197 436.147 145.179 430.315C150.94 437.266 173.103 443.039 194.185 441.842C204.065 441.281 216.464 441.484 231 438.572" fill="#1B1D20"/>
<path d="M17.242 266.013C17.242 266.013 3.03554 311.069 2.22594 320.178C1.36714 329.842 3.40487 340.607 16.1728 346.122C22.8515 349.007 35.8995 346.513 38.9997 345.34C100.108 322.213 63.6955 275.706 63.6955 275.706C67.7451 250.816 23.6479 243.678 17.242 266.013Z" fill="#1B1D20"/>
<path d="M17.242 266.013C17.242 266.013 3.03554 311.069 2.22594 320.178C1.36714 329.842 3.40487 340.607 16.1728 346.122C22.8515 349.007 35.8995 346.513 38.9997 345.34C100.108 322.213 63.6955 275.706 63.6955 275.706C67.7451 250.816 23.6479 243.678 17.242 266.013Z" stroke="#F0F5FC" stroke-width="2.25" stroke-linecap="round" stroke-linejoin="round"/>
<path d="M17.242 266.013C17.242 266.013 3.03554 311.069 2.22594 320.178C1.36714 329.842 3.40487 340.607 16.1728 346.122C22.8515 349.007 35.8995 346.513 38.9997 345.34C100.108 322.213 63.6955 275.706 63.6955 275.706C67.7451 250.816 23.6479 243.678 17.242 266.013Z" stroke="#F0F5FC" stroke-width="2.25" stroke-linecap="round" stroke-linejoin="round"/>
<path d="M90.9979 187.886C61.0716 190.304 43.7943 206.912 33.9749 219.505C26.4794 229.117 17.2406 266.013 17.2406 266.013L62.5762 277.451C62.5762 277.451 79.5277 240.36 83.7947 229.61C88.0617 218.86 117.184 185.771 90.9979 187.886Z" fill="#1B1D20"/>
<path d="M90.9979 187.886C61.0716 190.304 43.7943 206.912 33.9749 219.505C26.4794 229.117 17.2406 266.013 17.2406 266.013L62.5762 277.451C62.5762 277.451 79.5277 240.36 83.7947 229.61C88.0617 218.86 117.184 185.771 90.9979 187.886Z" stroke="#682EC6" stroke-width="2.25" stroke-linecap="round" stroke-linejoin="round"/>
<path d="M58.4839 246.479C57.8682 253.965 57.6266 261.69 57.6191 269.352C57.6062 282.618 56.4156 352.48 56.4156 352.48C101.918 369.078 163.189 368.328 218.183 354.21C225.16 310.514 223.212 260.818 216.114 207.658C216.114 207.658 203.982 192.605 172.914 186.593C158.438 183.792 112.642 184.771 92.2263 187.642C90.4702 187.889 88.7993 188.269 87.2101 188.773" fill="#1B1D20"/>
<path d="M58.4839 246.479C57.8682 253.965 57.6266 261.69 57.6191 269.352C57.6062 282.618 56.4156 352.48 56.4156 352.48C101.918 369.078 163.189 368.328 218.183 354.21C225.16 310.514 223.212 260.818 216.114 207.658C216.114 207.658 203.982 192.605 172.914 186.593C158.438 183.792 112.642 184.771 92.2263 187.642C90.4702 187.889 88.7993 188.269 87.2101 188.773" stroke="#682EC6" stroke-width="2.25" stroke-linecap="round" stroke-linejoin="round"/>
<path d="M271.883 252.003C266.586 256.519 236.694 280.392 225.071 289.986C205.698 305.974 221.884 364.461 251.271 360.176C276.4 356.511 308.698 319.234 314.471 314.791" fill="#1B1D20"/>
<path d="M271.883 252.003C266.586 256.519 236.694 280.392 225.071 289.986C205.698 305.974 221.884 364.461 251.271 360.176C276.4 356.511 308.698 319.234 314.471 314.791" stroke="#F0F5FC" stroke-width="2.25" stroke-linecap="round" stroke-linejoin="round"/>
<path d="M314.47 314.791C326.89 304.899 341.562 294.631 341.562 294.631C354.094 284.802 316.498 236.776 304.607 244.568C304.607 244.568 289.237 242.412 282.353 245.014C276.278 247.31 268.596 254.73 268.596 254.73" fill="#1B1D20"/>
<path d="M314.47 314.791C326.89 304.899 341.562 294.631 341.562 294.631C354.094 284.802 316.498 236.776 304.607 244.568C304.607 244.568 289.237 242.412 282.353 245.014C276.278 247.31 268.596 254.73 268.596 254.73" stroke="#F0F5FC" stroke-width="2.25" stroke-linecap="round" stroke-linejoin="round"/>
<mask id="path-83-inside-1_636_376" fill="white">
<path d="M268.597 254.73C270.051 253.47 273.717 250.088 278.065 246.099C286.356 238.491 289.911 231.256 291.397 228.602C294.349 223.286 301.962 225.053 303.298 229.368C304.546 233.4 302.583 247.702 301.549 249.766"/>
</mask>
<path d="M268.597 254.73C270.051 253.47 273.717 250.088 278.065 246.099C286.356 238.491 289.911 231.256 291.397 228.602C294.349 223.286 301.962 225.053 303.298 229.368C304.546 233.4 302.583 247.702 301.549 249.766" fill="#1B1D20"/>
<path d="M278.065 246.099L278.572 246.651L278.572 246.651L278.065 246.099ZM291.397 228.602L292.052 228.968L292.053 228.966L291.397 228.602ZM303.298 229.368L302.582 229.59L302.582 229.59L303.298 229.368ZM269.088 255.296C270.553 254.027 274.232 250.633 278.572 246.651L277.558 245.546C273.202 249.543 269.549 252.912 268.106 254.163L269.088 255.296ZM278.572 246.651C286.963 238.952 290.569 231.616 292.052 228.968L290.743 228.235C289.253 230.896 285.749 238.029 277.558 245.546L278.572 246.651ZM292.053 228.966C293.353 226.624 295.665 225.832 297.857 226.117C300.093 226.407 302.024 227.788 302.582 229.59L304.014 229.146C303.236 226.632 300.692 224.972 298.05 224.629C295.364 224.281 292.393 225.263 290.741 228.238L292.053 228.966ZM302.582 229.59C302.856 230.475 302.972 232.019 302.947 233.956C302.923 235.866 302.764 238.071 302.534 240.225C302.303 242.378 302.002 244.467 301.696 246.14C301.543 246.977 301.39 247.704 301.245 248.279C301.096 248.873 300.968 249.252 300.879 249.431L302.22 250.102C302.389 249.764 302.549 249.245 302.7 248.646C302.855 248.028 303.015 247.267 303.172 246.41C303.486 244.695 303.791 242.569 304.025 240.385C304.259 238.201 304.422 235.946 304.447 233.975C304.471 232.032 304.365 230.277 304.014 229.146L302.582 229.59Z" fill="#F0F5FC" mask="url(#path-83-inside-1_636_376)"/>
<path d="M268.597 254.73C270.051 253.47 273.717 250.088 278.065 246.099C286.356 238.491 289.911 231.256 291.397 228.602C294.349 223.286 301.962 225.053 303.298 229.368C304.546 233.4 302.583 247.702 301.549 249.766" stroke="#F0F5FC" stroke-width="2.25" stroke-linecap="round" stroke-linejoin="round"/>
<mask id="path-86-inside-2_636_376" fill="white">
<path d="M315.843 256.186L323.281 249.562L323.006 248.986C324.26 246.478 328.974 245.316 333.214 247.166L333.215 247.166C336.846 249.069 338.269 253.045 336.463 257.639C335.134 261.92 325.814 269.78 325.814 269.78"/>
</mask>
<path d="M315.843 256.186L323.281 249.562L323.006 248.986C324.26 246.478 328.974 245.316 333.214 247.166L333.215 247.166C336.846 249.069 338.269 253.045 336.463 257.639C335.134 261.92 325.814 269.78 325.814 269.78" fill="#1B1D20"/>
<path d="M323.281 249.562L323.78 250.122L324.201 249.747L323.958 249.238L323.281 249.562ZM323.006 248.986L322.335 248.65L322.172 248.978L322.329 249.309L323.006 248.986ZM333.214 247.166L333.714 246.607L333.624 246.527L333.514 246.479L333.214 247.166ZM333.215 247.166L332.715 247.726L332.785 247.788L332.867 247.831L333.215 247.166ZM336.463 257.639L335.765 257.365L335.755 257.391L335.746 257.417L336.463 257.639ZM316.342 256.746L323.78 250.122L322.782 249.001L315.344 255.626L316.342 256.746ZM323.958 249.238L323.683 248.663L322.329 249.309L322.604 249.885L323.958 249.238ZM323.677 249.321C324.16 248.354 325.394 247.525 327.137 247.177C328.854 246.834 330.936 246.99 332.914 247.853L333.514 246.479C331.252 245.492 328.857 245.304 326.843 245.706C324.856 246.103 323.106 247.109 322.335 248.65L323.677 249.321ZM332.715 247.725L332.715 247.726L333.715 246.607L333.714 246.607L332.715 247.725ZM332.867 247.831C334.521 248.697 335.645 250.018 336.164 251.624C336.685 253.236 336.616 255.199 335.765 257.365L337.161 257.914C338.115 255.486 338.238 253.163 337.591 251.163C336.943 249.157 335.54 247.538 333.563 246.502L332.867 247.831ZM335.746 257.417C335.458 258.348 334.701 259.551 333.651 260.877C332.615 262.184 331.347 263.546 330.11 264.785C328.874 266.023 327.678 267.13 326.79 267.927C326.346 268.326 325.98 268.647 325.726 268.867C325.599 268.978 325.499 269.063 325.432 269.121C325.398 269.149 325.373 269.171 325.356 269.186C325.347 269.193 325.341 269.198 325.337 269.202C325.334 269.204 325.333 269.205 325.332 269.206C325.331 269.206 325.331 269.206 325.331 269.207C325.331 269.207 325.331 269.207 325.331 269.207C325.331 269.207 325.331 269.207 325.814 269.78C326.298 270.353 326.298 270.353 326.298 270.353C326.298 270.353 326.298 270.353 326.298 270.353C326.299 270.353 326.299 270.352 326.3 270.352C326.301 270.35 326.303 270.349 326.305 270.347C326.31 270.343 326.317 270.337 326.326 270.329C326.345 270.314 326.371 270.291 326.406 270.261C326.476 270.201 326.578 270.113 326.709 270.001C326.969 269.775 327.342 269.448 327.792 269.043C328.694 268.233 329.911 267.107 331.171 265.845C332.43 264.584 333.741 263.178 334.826 261.808C335.898 260.456 336.804 259.071 337.179 257.862L335.746 257.417Z" fill="#F0F5FC" mask="url(#path-86-inside-2_636_376)"/>
<path d="M315.843 256.186L323.281 249.562L323.006 248.986C324.26 246.478 328.974 245.316 333.214 247.166L333.215 247.166C336.846 249.069 338.269 253.045 336.463 257.639C335.134 261.92 325.814 269.78 325.814 269.78" fill="#1B1D20"/>
<path d="M315.843 256.186L323.281 249.562L323.006 248.986C324.26 246.478 328.974 245.316 333.214 247.166L333.215 247.166C336.846 249.069 338.269 253.045 336.463 257.639C335.134 261.92 325.814 269.78 325.814 269.78" stroke="#F0F5FC" stroke-width="2.25" stroke-linecap="round" stroke-linejoin="round"/>
<mask id="path-90-inside-3_636_376" fill="white">
<path d="M325.815 269.78L332.712 263.468L332.929 263.579C334.128 262.344 337.264 261.368 341.068 262.874C344.335 264.66 346.183 269.502 344.279 273.537C343.22 276.34 339.793 278.561 339.793 278.561L333.832 283.596"/>
</mask>
<path d="M325.815 269.78L332.712 263.468L332.929 263.579C334.128 262.344 337.264 261.368 341.068 262.874C344.335 264.66 346.183 269.502 344.279 273.537C343.22 276.34 339.793 278.561 339.793 278.561L333.832 283.596" fill="#1B1D20"/>
<path d="M332.712 263.468L333.053 262.8L332.59 262.564L332.206 262.915L332.712 263.468ZM332.929 263.579L332.588 264.247L333.082 264.499L333.467 264.101L332.929 263.579ZM341.068 262.874L341.428 262.216L341.387 262.194L341.344 262.177L341.068 262.874ZM344.279 273.537L343.6 273.217L343.588 273.244L343.577 273.272L344.279 273.537ZM339.793 278.561L339.385 277.931L339.346 277.957L339.309 277.988L339.793 278.561ZM326.321 270.333L333.218 264.022L332.206 262.915L325.308 269.227L326.321 270.333ZM332.371 264.136L332.588 264.247L333.27 262.911L333.053 262.8L332.371 264.136ZM333.467 264.101C334.404 263.136 337.195 262.148 340.792 263.571L341.344 262.177C337.332 260.589 333.851 261.552 332.391 263.057L333.467 264.101ZM340.708 263.532C343.627 265.128 345.335 269.542 343.6 273.217L344.957 273.857C347.031 269.462 345.042 264.192 341.428 262.216L340.708 263.532ZM343.577 273.272C343.11 274.508 342.093 275.667 341.132 276.547C340.66 276.979 340.219 277.328 339.897 277.569C339.736 277.689 339.605 277.781 339.516 277.843C339.472 277.873 339.438 277.896 339.415 277.911C339.404 277.919 339.396 277.924 339.391 277.928C339.388 277.929 339.387 277.93 339.386 277.931C339.385 277.931 339.385 277.931 339.385 277.931C339.385 277.931 339.385 277.931 339.385 277.931C339.385 277.931 339.385 277.931 339.385 277.931C339.385 277.931 339.385 277.931 339.793 278.561C340.201 279.19 340.201 279.19 340.201 279.19C340.201 279.19 340.202 279.19 340.202 279.189C340.202 279.189 340.202 279.189 340.203 279.189C340.204 279.188 340.205 279.188 340.206 279.187C340.208 279.185 340.211 279.183 340.215 279.181C340.223 279.175 340.235 279.168 340.249 279.158C340.277 279.139 340.318 279.112 340.369 279.077C340.471 279.006 340.617 278.903 340.794 278.771C341.147 278.508 341.628 278.127 342.145 277.653C343.163 276.722 344.388 275.369 344.98 273.802L343.577 273.272ZM339.309 277.988L333.348 283.023L334.316 284.169L340.277 279.133L339.309 277.988Z" fill="#F0F5FC" mask="url(#path-90-inside-3_636_376)"/>
<path d="M325.815 269.78L332.712 263.468L332.929 263.579C334.128 262.344 337.264 261.368 341.068 262.874C344.335 264.66 346.183 269.502 344.279 273.537C343.22 276.34 339.793 278.561 339.793 278.561L333.832 283.596" fill="#1B1D20"/>
<path d="M325.815 269.78L332.712 263.468L332.929 263.579C334.128 262.344 337.264 261.368 341.068 262.874C344.335 264.66 346.183 269.502 344.279 273.537C343.22 276.34 339.793 278.561 339.793 278.561L333.832 283.596" stroke="#F0F5FC" stroke-width="2.25" stroke-linecap="round" stroke-linejoin="round"/>
<path d="M333.037 284.248L339.991 278.408C343.132 275.978 344.325 275.131 344.667 275.572L344.504 275.569C347.238 276.123 348.547 280.261 347.951 282.559C347.791 284.67 346.412 288.797 343.982 291.576C342.47 293.306 339.635 295.309 339.635 295.309" fill="#1B1D20"/>
<path d="M333.037 284.248L339.991 278.408C343.132 275.978 344.325 275.131 344.667 275.572L344.504 275.569C347.238 276.123 348.547 280.261 347.951 282.559C347.791 284.67 346.412 288.797 343.982 291.576C342.47 293.306 339.635 295.309 339.635 295.309" fill="#1B1D20"/>
<path d="M333.037 284.248L339.991 278.408C343.132 275.978 344.325 275.131 344.667 275.572L344.504 275.569C347.238 276.123 348.547 280.261 347.951 282.559C347.791 284.67 346.412 288.797 343.982 291.576C342.47 293.306 339.635 295.309 339.635 295.309" stroke="#F0F5FC" stroke-width="2.25" stroke-linecap="round" stroke-linejoin="round"/>
<mask id="path-97-inside-4_636_376" fill="white">
<path d="M315.841 256.186C315.841 256.186 333.995 238.352 334.701 236.943C337.854 232.198 336.631 227.097 333.14 224.961C328.315 222.582 324.348 226.256 320.917 230.418C317.734 234.277 309.041 241.014 309.041 241.014C304.557 243.636 299.753 247.876 290.772 247.987"/>
</mask>
<path d="M315.841 256.186C315.841 256.186 333.995 238.352 334.701 236.943C337.854 232.198 336.631 227.097 333.14 224.961C328.315 222.582 324.348 226.256 320.917 230.418C317.734 234.277 309.041 241.014 309.041 241.014C304.557 243.636 299.753 247.876 290.772 247.987" fill="#1B1D20"/>
<path d="M334.701 236.943L334.076 236.528L334.051 236.566L334.03 236.607L334.701 236.943ZM333.14 224.961L333.531 224.321L333.502 224.303L333.471 224.288L333.14 224.961ZM320.917 230.418L321.495 230.895L321.495 230.895L320.917 230.418ZM309.041 241.014L309.42 241.662L309.462 241.637L309.5 241.607L309.041 241.014ZM315.841 256.186C316.367 256.721 316.367 256.721 316.367 256.721C316.367 256.72 316.367 256.72 316.368 256.72C316.368 256.719 316.369 256.719 316.37 256.717C316.372 256.715 316.376 256.712 316.38 256.708C316.389 256.699 316.402 256.686 316.419 256.669C316.453 256.636 316.505 256.585 316.571 256.52C316.704 256.389 316.9 256.196 317.149 255.951C317.647 255.46 318.359 254.758 319.216 253.91C320.93 252.216 323.222 249.941 325.537 247.623C327.851 245.304 330.19 242.939 331.996 241.064C332.899 240.127 333.672 239.309 334.243 238.678C334.529 238.363 334.769 238.089 334.951 237.869C335.114 237.671 335.283 237.455 335.371 237.279L334.03 236.607C334.03 236.607 333.974 236.696 333.794 236.914C333.633 237.109 333.41 237.363 333.132 237.671C332.575 238.285 331.815 239.091 330.916 240.024C329.119 241.889 326.788 244.246 324.475 246.563C322.164 248.879 319.874 251.151 318.161 252.844C317.305 253.69 316.594 254.392 316.096 254.882C315.848 255.127 315.652 255.32 315.519 255.45C315.453 255.516 315.402 255.566 315.368 255.6C315.35 255.617 315.337 255.629 315.329 255.638C315.324 255.642 315.321 255.645 315.319 255.647C315.318 255.649 315.317 255.649 315.316 255.65C315.316 255.65 315.316 255.65 315.316 255.65C315.316 255.651 315.316 255.651 315.841 256.186ZM335.325 237.358C338.669 232.328 337.452 226.72 333.531 224.321L332.748 225.601C335.809 227.473 337.04 232.068 334.076 236.528L335.325 237.358ZM333.471 224.288C330.797 222.97 328.336 223.343 326.137 224.583C323.984 225.797 322.06 227.851 320.338 229.941L321.495 230.895C323.204 228.822 324.979 226.958 326.874 225.89C328.723 224.847 330.657 224.573 332.808 225.634L333.471 224.288ZM320.338 229.94C318.796 231.811 315.878 234.419 313.302 236.59C312.022 237.668 310.842 238.627 309.98 239.316C309.55 239.66 309.2 239.937 308.957 240.128C308.836 240.223 308.742 240.297 308.678 240.346C308.646 240.371 308.622 240.39 308.606 240.403C308.598 240.409 308.591 240.414 308.587 240.417C308.585 240.418 308.584 240.42 308.583 240.42C308.582 240.421 308.582 240.421 308.582 240.421C308.582 240.421 308.582 240.421 308.582 240.421C308.582 240.421 308.582 240.421 309.041 241.014C309.5 241.607 309.5 241.607 309.501 241.607C309.501 241.607 309.501 241.607 309.501 241.607C309.501 241.606 309.502 241.606 309.502 241.606C309.503 241.605 309.505 241.604 309.507 241.602C309.512 241.598 309.518 241.593 309.526 241.587C309.543 241.574 309.568 241.554 309.601 241.529C309.666 241.478 309.762 241.403 309.884 241.307C310.13 241.114 310.483 240.834 310.918 240.487C311.786 239.792 312.977 238.825 314.269 237.737C316.835 235.574 319.855 232.884 321.495 230.895L320.338 229.94ZM308.662 240.367C304.074 243.05 299.491 247.13 290.762 247.237L290.781 248.737C300.014 248.623 305.041 244.222 309.42 241.662L308.662 240.367Z" fill="#F0F5FC" mask="url(#path-97-inside-4_636_376)"/>
<path d="M315.841 256.186C315.841 256.186 333.995 238.352 334.701 236.943C337.854 232.198 336.631 227.097 333.14 224.961C328.315 222.582 324.348 226.256 320.917 230.418C317.734 234.277 309.041 241.014 309.041 241.014C304.557 243.636 299.753 247.876 290.772 247.987" fill="#1B1D20"/>
<path d="M315.841 256.186C315.841 256.186 333.995 238.352 334.701 236.943C337.854 232.198 336.631 227.097 333.14 224.961C328.315 222.582 324.348 226.256 320.917 230.418C317.734 234.277 309.041 241.014 309.041 241.014C304.557 243.636 299.753 247.876 290.772 247.987" stroke="#F0F5FC" stroke-width="2.25" stroke-linecap="round" stroke-linejoin="round"/>
<path d="M255.558 293.298C255.558 293.298 242.213 259.133 238.293 247.555C234.372 235.974 215.072 229.116 200.495 239.193C191.175 245.637 190.008 258.055 194.465 278.466C200.337 305.359 210.87 347.888 227.437 356.555C237.775 361.964 250.054 361.945 259.907 357.801" fill="#1B1D20"/>
<path d="M255.558 293.298C255.558 293.298 242.213 259.133 238.293 247.555C234.372 235.974 215.072 229.116 200.495 239.193C191.175 245.637 190.008 258.055 194.465 278.466C200.337 305.359 210.87 347.888 227.437 356.555C237.775 361.964 250.054 361.945 259.907 357.801" stroke="#F0F5FC" stroke-width="2.25" stroke-linecap="round" stroke-linejoin="round"/>
<path d="M177.889 189.006C189.902 191.86 206.329 195.719 219.717 210.353C231.48 223.213 244.536 264.481 244.536 264.481L194.464 278.466C194.464 278.466 188.098 258.985 193.664 241.526" fill="#1B1D20"/>
<path d="M177.889 189.006C189.902 191.86 206.329 195.719 219.717 210.353C231.48 223.213 244.536 264.481 244.536 264.481L194.464 278.466C194.464 278.466 188.098 258.985 193.664 241.526" stroke="#682EC6" stroke-width="2.25" stroke-linecap="round" stroke-linejoin="round"/>
<path d="M126.794 186.287C85.8571 187.255 74.1874 193.411 74.1874 193.411C74.1874 193.411 94.6883 209.852 95.2263 211.734C95.7644 213.617 166.93 226.721 166.93 226.721L204.535 200.01C204.535 200.01 187.707 188.594 165.974 186.569C156.758 185.71 139.64 185.983 126.794 186.287Z" fill="#1B1D20"/>
<path d="M446.54 210.35C433.871 225.89 427.082 241.326 431.377 244.827C435.672 248.329 449.424 238.57 462.093 223.03C474.763 207.491 481.552 192.055 477.257 188.553C472.962 185.052 459.21 194.81 446.54 210.35Z" fill="#1B1D20"/>
<path d="M446.54 210.35C433.871 225.89 427.082 241.326 431.377 244.827C435.672 248.329 449.424 238.57 462.093 223.03C474.763 207.491 481.552 192.055 477.257 188.553C472.962 185.052 459.21 194.81 446.54 210.35Z" stroke="#F0F5FC" stroke-width="2.25" stroke-linecap="round" stroke-linejoin="round"/>
<path d="M633.971 209.915C637.383 168.519 606.591 132.196 565.195 128.785C523.8 125.374 487.477 156.166 484.065 197.561C480.654 238.956 511.446 275.279 552.841 278.691C594.237 282.102 630.56 251.31 633.971 209.915Z" fill="white"/>
<path d="M494.953 225.459L549.726 190.229C567.545 179.126 594.25 220.813 576.661 237.618C576.661 237.618 517.709 285.964 500.155 286.197C490.45 286.327 484.918 284.751 481.684 283.252" fill="#1B1D20"/>
<path d="M494.953 225.459L549.726 190.229C567.545 179.126 594.25 220.813 576.661 237.618C576.661 237.618 517.709 285.964 500.155 286.197C490.45 286.327 484.918 284.751 481.684 283.252" stroke="#F0F5FC" stroke-width="2.25" stroke-linecap="round" stroke-linejoin="round"/>
<path d="M634.024 210.177C637.398 168.779 606.574 132.483 565.175 129.109C523.777 125.735 487.482 156.56 484.108 197.958C480.733 239.357 511.558 275.652 552.957 279.026C594.355 282.4 630.65 251.576 634.024 210.177Z" fill="#1B1D20"/>
<path d="M633.745 209.973C637.119 168.574 606.294 132.279 564.896 128.905C523.497 125.531 487.202 156.356 483.828 197.754C480.454 239.153 511.279 275.448 552.677 278.822C594.076 282.196 630.371 251.371 633.745 209.973Z" stroke="#231F20" stroke-width="2.25" stroke-linecap="round" stroke-linejoin="round"/>
<path d="M422.497 206.436L450.749 243.421C463.516 258.502 502.209 219.866 483.394 195.112L457.872 161.914C444.681 141.724 402.548 180.006 422.497 206.436Z" fill="#1B1D20"/>
<path d="M422.497 206.436L450.749 243.421C463.516 258.502 502.209 219.866 483.394 195.112L457.872 161.914C444.681 141.724 402.548 180.006 422.497 206.436Z" stroke="#F0F5FC" stroke-width="2.25" stroke-linecap="round" stroke-linejoin="round"/>
<mask id="path-115-inside-5_636_376" fill="white">
<path d="M468.823 175.911C468.823 175.911 440.988 142.698 418.991 144.719C410.707 145.48 397.474 184.74 401.761 190.825C406.27 197.225 420.801 217.997 436.492 215.312"/>
</mask>
<path d="M468.823 175.911C468.823 175.911 440.988 142.698 418.991 144.719C410.707 145.48 397.474 184.74 401.761 190.825C406.27 197.225 420.801 217.997 436.492 215.312" fill="#1B1D20"/>
<path d="M418.991 144.719L418.923 143.972L418.923 143.972L418.991 144.719ZM401.761 190.825L401.148 191.257L401.148 191.257L401.761 190.825ZM468.823 175.911C469.398 175.429 469.398 175.429 469.397 175.429C469.397 175.428 469.397 175.428 469.396 175.427C469.395 175.426 469.394 175.424 469.392 175.422C469.388 175.418 469.383 175.412 469.376 175.403C469.362 175.387 469.341 175.362 469.314 175.33C469.26 175.266 469.179 175.172 469.073 175.049C468.862 174.803 468.549 174.445 468.145 173.989C467.335 173.079 466.156 171.783 464.672 170.234C461.705 167.138 457.517 163.028 452.635 158.98C447.755 154.933 442.164 150.933 436.391 148.068C430.625 145.207 424.616 143.449 418.923 143.972L419.06 145.466C424.365 144.978 430.084 146.613 435.724 149.412C441.356 152.206 446.848 156.13 451.677 160.134C456.503 164.136 460.649 168.204 463.589 171.272C465.058 172.806 466.225 174.088 467.024 174.986C467.423 175.435 467.73 175.788 467.937 176.028C468.04 176.148 468.119 176.24 468.171 176.301C468.197 176.332 468.217 176.355 468.23 176.371C468.236 176.378 468.241 176.384 468.244 176.388C468.246 176.39 468.247 176.391 468.247 176.392C468.248 176.392 468.248 176.392 468.248 176.393C468.248 176.393 468.248 176.393 468.823 175.911ZM418.923 143.972C417.62 144.091 416.35 144.943 415.164 146.141C413.959 147.358 412.744 149.033 411.559 151.001C409.186 154.941 406.87 160.16 404.956 165.523C403.041 170.889 401.516 176.434 400.74 181.036C400.352 183.335 400.147 185.421 400.181 187.143C400.214 188.828 400.475 190.302 401.148 191.257L402.374 190.393C401.975 189.827 401.712 188.743 401.681 187.114C401.65 185.52 401.84 183.535 402.219 181.286C402.977 176.791 404.475 171.333 406.368 166.027C408.262 160.72 410.54 155.601 412.844 151.775C413.997 149.86 415.142 148.296 416.23 147.196C417.337 146.078 418.291 145.536 419.06 145.466L418.923 143.972ZM401.148 191.257C403.4 194.454 408.202 201.309 414.426 207.027C420.62 212.718 428.41 217.455 436.618 216.051L436.365 214.572C428.883 215.853 421.562 211.546 415.441 205.923C409.349 200.327 404.63 193.596 402.374 190.393L401.148 191.257Z" fill="#F0F5FC" mask="url(#path-115-inside-5_636_376)"/>
<path d="M468.823 175.911C468.823 175.911 440.988 142.698 418.991 144.719C410.707 145.48 397.474 184.74 401.761 190.825C406.27 197.225 420.801 217.997 436.492 215.312" stroke="#F0F5FC" stroke-width="2.25" stroke-linecap="round" stroke-linejoin="round"/>
<path d="M432.812 150.546L428.868 152.756L375.225 57.0151L379.169 54.8054L432.812 150.546Z" fill="#1B1D20"/>
<path d="M432.812 150.546L428.868 152.756L375.225 57.0151L379.169 54.8054L432.812 150.546Z" stroke="#F0F5FC" stroke-width="2.25" stroke-linecap="round" stroke-linejoin="round"/>
<path d="M472.522 181.323C460.78 164.596 439.72 126.49 433.744 123.69C427.85 120.93 421.688 123.524 422.801 131.874C423.914 140.224 436.649 162.998 436.649 162.998" fill="#1B1D20"/>
<path d="M472.522 181.323C460.78 164.596 439.72 126.49 433.744 123.69C427.85 120.93 421.688 123.524 422.801 131.874C423.914 140.224 436.649 162.998 436.649 162.998" stroke="#F0F5FC" stroke-width="2.25" stroke-linecap="round" stroke-linejoin="round"/>
<path d="M420.83 155.737L420.83 155.737L406.853 149.09C406.853 149.09 406.853 149.09 406.853 149.09C403.342 147.42 401.835 143.18 403.505 139.669C405.175 136.157 409.416 134.65 412.927 136.32L412.927 136.32L426.903 142.966C426.903 142.966 426.903 142.966 426.903 142.966C430.415 144.636 431.922 148.877 430.252 152.388C428.582 155.899 424.341 157.407 420.83 155.737Z" fill="#1B1D20" stroke="#F0F5FC" stroke-width="0.75"/>
<path d="M420.669 156.075L406.692 149.429C402.994 147.67 401.407 143.206 403.166 139.508C404.925 135.809 409.39 134.222 413.088 135.981L427.064 142.628C430.763 144.387 432.35 148.851 430.591 152.549C428.832 156.247 424.367 157.834 420.669 156.075Z" fill="#1B1D20" stroke="#F0F5FC" stroke-width="2.25" stroke-linecap="round" stroke-linejoin="round"/>
<path d="M406.509 163.648L406.509 163.648C402.854 162.322 400.948 158.245 402.274 154.59C403.6 150.935 407.677 149.03 411.332 150.356C411.332 150.356 411.332 150.356 411.332 150.356L425.88 155.634L425.88 155.634C429.535 156.96 431.44 161.037 430.114 164.692C428.788 168.347 424.712 170.253 421.056 168.927L406.509 163.648Z" fill="#F0F5FC" stroke="#F0F5FC" stroke-width="0.75"/>
<path d="M420.929 169.279L406.381 164.001C402.531 162.604 400.525 158.312 401.921 154.463C403.318 150.613 407.61 148.607 411.46 150.003L426.008 155.282C429.857 156.678 431.863 160.97 430.467 164.82C429.07 168.67 424.778 170.676 420.929 169.279Z" fill="#1B1D20" stroke="#F0F5FC" stroke-width="2.25" stroke-linecap="round" stroke-linejoin="round"/>
<path d="M418.102 182.625L403.554 177.347C399.705 175.95 397.699 171.658 399.095 167.808C400.492 163.959 404.784 161.953 408.633 163.349L423.181 168.628C427.031 170.024 429.037 174.316 427.641 178.166C426.244 182.016 421.952 184.022 418.102 182.625Z" fill="white"/>
<path d="M418.102 182.625L403.554 177.347C399.705 175.95 397.699 171.658 399.095 167.808C400.492 163.959 404.784 161.953 408.633 163.349L423.181 168.628C427.031 170.024 429.037 174.316 427.641 178.166C426.244 182.016 421.952 184.022 418.102 182.625Z" fill="#1B1D20" stroke="#F0F5FC" stroke-width="2.25" stroke-linecap="round" stroke-linejoin="round"/>
<mask id="path-128-inside-6_636_376" fill="white">
<path d="M402.722 192.337C399.915 189.034 396.311 185.355 397.707 181.505C399.104 177.655 403.396 175.649 407.246 177.045L421.794 182.324C425.644 183.721 427.65 188.013 426.254 191.862C424.857 195.712 420.565 197.718 416.716 196.322L410.807 194.178"/>
</mask>
<path d="M402.722 192.337C399.915 189.034 396.311 185.355 397.707 181.505C399.104 177.655 403.396 175.649 407.246 177.045L421.794 182.324C425.644 183.721 427.65 188.013 426.254 191.862C424.857 195.712 420.565 197.718 416.716 196.322L410.807 194.178" fill="#1B1D20"/>
<path d="M397.707 181.505L397.002 181.249L397.002 181.249L397.707 181.505ZM407.246 177.045L407.502 176.34L407.502 176.34L407.246 177.045ZM421.794 182.324L421.539 183.029L421.539 183.029L421.794 182.324ZM426.254 191.862L425.549 191.607L425.549 191.607L426.254 191.862ZM416.716 196.322L416.46 197.027L416.46 197.027L416.716 196.322ZM403.294 191.851C401.859 190.163 400.319 188.486 399.283 186.743C398.258 185.016 397.825 183.381 398.413 181.761L397.002 181.249C396.194 183.479 396.865 185.608 397.994 187.509C399.113 189.394 400.778 191.208 402.151 192.823L403.294 191.851ZM398.413 181.761C399.668 178.3 403.53 176.495 406.99 177.751L407.502 176.34C403.263 174.803 398.54 177.01 397.002 181.249L398.413 181.761ZM406.99 177.751L421.539 183.029L422.05 181.619L407.502 176.34L406.99 177.751ZM421.539 183.029C424.999 184.284 426.804 188.146 425.549 191.607L426.959 192.118C428.497 187.879 426.289 183.157 422.05 181.619L421.539 183.029ZM425.549 191.607C424.294 195.067 420.432 196.872 416.971 195.617L416.46 197.027C420.699 198.565 425.421 196.357 426.959 192.118L425.549 191.607ZM416.971 195.617L411.063 193.473L410.551 194.883L416.46 197.027L416.971 195.617Z" fill="#F0F5FC" mask="url(#path-128-inside-6_636_376)"/>
<path d="M405 195C402.193 191.697 396.31 185.355 397.707 181.505C399.103 177.655 403.395 175.649 407.245 177.046L421.794 182.324C425.643 183.721 427.65 188.013 426.253 191.863C424.857 195.712 420.564 197.718 416.715 196.322L410.806 194.178" fill="#1B1D20"/>
<path d="M405 195C402.193 191.697 396.31 185.355 397.707 181.505C399.103 177.655 403.395 175.649 407.245 177.046L421.794 182.324C425.643 183.721 427.65 188.013 426.253 191.863C424.857 195.712 420.564 197.718 416.715 196.322L410.806 194.178" stroke="#F0F5FC" stroke-width="2.25" stroke-linecap="round" stroke-linejoin="round"/>
<path d="M503.206 285.809C472.47 293.223 445.899 255.531 431.377 244.827C431.377 244.827 436.561 242.796 440.093 239.222C446.077 233.167 476.333 185.822 476.333 185.822L504.982 222.186" fill="#1B1D20"/>
<path d="M503.206 285.809C472.47 293.223 445.899 255.531 431.377 244.827C431.377 244.827 436.561 242.796 440.093 239.222C446.077 233.167 476.333 185.822 476.333 185.822L504.983 222.186" stroke="#F0F5FC" stroke-width="2.25" stroke-linecap="round" stroke-linejoin="round"/>
<path d="M521.982 230.86C520.631 229.007 519.987 226.507 520.424 223.586C522.404 210.318 554.443 186.311 557.785 184.168C561.126 182.025 565.042 185.427 564.611 189.236L537.853 214.374" fill="#1B1D20"/>
<path d="M521.982 230.86C520.631 229.007 519.987 226.507 520.424 223.586C522.404 210.318 554.443 186.311 557.785 184.168C561.126 182.025 565.042 185.427 564.611 189.236L537.853 214.374" stroke="#F0F5FC" stroke-width="2.25" stroke-linecap="round" stroke-linejoin="round"/>
<path d="M550.025 205.261C550.025 205.261 552.48 175.452 553.327 166.812C554.094 159 566.328 154.793 569.339 165.379C571.897 174.37 574.489 190.564 574.489 190.564C579.38 209.411 549.258 218.569 550.025 205.261Z" fill="#1B1D20"/>
<path d="M550.025 205.261C550.025 205.261 552.48 175.452 553.327 166.812C554.094 159 566.328 154.793 569.339 165.379C571.897 174.37 574.489 190.564 574.489 190.564C579.38 209.411 549.258 218.569 550.025 205.261Z" stroke="#F0F5FC" stroke-width="2.25" stroke-linecap="round" stroke-linejoin="round"/>
<path d="M574.856 160.871C574.211 162.143 572.823 162.94 571.017 163.146C569.214 163.351 567.042 162.956 564.941 161.891C562.839 160.827 561.236 159.309 560.335 157.734C559.433 156.156 559.254 154.565 559.899 153.293C560.543 152.021 561.932 151.224 563.738 151.018C565.541 150.813 567.713 151.208 569.814 152.272C571.916 153.337 573.518 154.855 574.419 156.43C575.322 158.008 575.5 159.599 574.856 160.871Z" fill="#1B1D20" stroke="#F0F5FC" stroke-width="0.75"/>
<path d="M575.19 161.04C573.751 163.881 569.086 164.412 564.771 162.226C560.456 160.04 558.125 155.964 559.564 153.123C561.004 150.282 565.669 149.752 569.984 151.938C574.298 154.124 576.63 158.2 575.19 161.04Z" fill="#1B1D20" stroke="#F0F5FC" stroke-width="2.25" stroke-linecap="round" stroke-linejoin="round"/>
<path d="M564.083 167.948C565.686 171.515 567.449 172.891 571.166 172.849C570.58 170.159 569.958 167.557 569.339 165.379C566.862 156.674 558.156 157.975 554.711 163.055C559.436 163.623 562.817 165.099 564.083 167.948Z" fill="#1B1D20"/>
<path d="M564.083 167.948C565.686 171.515 567.449 172.891 571.166 172.849C570.58 170.159 569.958 167.557 569.339 165.379C566.862 156.674 558.156 157.975 554.711 163.055C559.436 163.623 562.817 165.099 564.083 167.948Z" stroke="#F0F5FC" stroke-width="2.25" stroke-linecap="round" stroke-linejoin="round"/>
<path d="M633.747 209.973C637.121 168.574 606.296 132.279 564.898 128.905C523.499 125.531 487.204 156.356 483.83 197.754C480.456 239.153 511.281 275.448 552.679 278.822C594.078 282.196 630.373 251.371 633.747 209.973Z" stroke="#F0F5FC" stroke-width="2.25" stroke-linecap="round" stroke-linejoin="round"/>
<path d="M560.217 242.893L562.029 279.619C585.885 280.496 609.235 264.279 616 253.5L580.149 187.691C575.373 179.511 553.017 200.035 555.591 211.815" fill="#1B1D20"/>
<path d="M560.217 242.893L562 279C584.5 279 608.735 263.779 615.5 253L580.149 187.691C575.373 179.511 553.017 200.035 555.591 211.815" stroke="#F0F5FC" stroke-width="2.25" stroke-linecap="round" stroke-linejoin="round"/>
<path d="M633.971 209.915C637.383 168.519 606.591 132.196 565.195 128.785C523.8 125.374 487.477 156.166 484.065 197.561C480.654 238.956 511.446 275.279 552.841 278.691C594.237 282.102 630.56 251.31 633.971 209.915Z" stroke="#F0F5FC" stroke-width="2.25" stroke-linecap="round" stroke-linejoin="round"/>
<path d="M537.852 214.373C537.852 214.373 571.989 181.832 578.539 176.882C585.089 171.932 591.688 179.801 588.014 185.521C583.906 191.917 541.793 230.618 532.905 233.699C528.449 235.243 524.232 233.949 521.981 230.859" fill="#1B1D20"/>
<path d="M537.852 214.373C537.852 214.373 571.989 181.832 578.539 176.882C585.089 171.932 591.688 179.801 588.014 185.521C583.906 191.917 541.793 230.618 532.905 233.699C528.449 235.243 524.232 233.949 521.981 230.859" stroke="#F0F5FC" stroke-width="2.25" stroke-linecap="round" stroke-linejoin="round"/>
<path d="M503.5 219.5L543 196" stroke="#F0F5FC" stroke-width="2.4" stroke-linecap="round"/>
<path d="M524.194 253.604C524.252 252.944 523.763 252.362 523.103 252.305C522.443 252.247 521.861 252.736 521.803 253.396L524.194 253.604ZM528.772 272.082C526.013 269.759 523.215 264.883 524.194 253.604L521.803 253.396C520.785 265.117 523.651 270.908 527.226 273.918L528.772 272.082Z" fill="#F0F5FC"/>
<path d="M483.501 199C482.5 233 500.501 257 522.627 270" stroke="#1B1D20" stroke-width="3"/>
<rect x="521.527" y="266" width="8" height="3" transform="rotate(57.401 521.527 266)" fill="#1B1D20"/>
<rect x="481.336" y="194" width="8" height="3" transform="rotate(51.123 481.336 194)" fill="#1B1D20"/>
</g>
<defs>
<clipPath id="clip0_636_376">
<rect width="636" height="545" fill="white"/>
</clipPath>
</defs>
</svg>
