<svg width="580" height="505" viewBox="0 0 580 505" fill="none" xmlns="http://www.w3.org/2000/svg">
<g clip-path="url(#clip0_524_10202)">
<path d="M144.879 263.805V258.046C144.879 254.673 142.021 251.914 138.529 251.914H44.9979C41.5058 251.914 38.6484 254.673 38.6484 258.046V263.805H144.879Z" fill="#1B1D20"/>
<path d="M144.879 263.805V258.046C144.879 254.673 142.022 251.914 138.529 251.914H44.9979C41.5058 251.914 38.6484 254.673 38.6484 258.046V263.805H144.879Z" stroke="#F0F5FC" stroke-width="2.33496" stroke-linecap="round" stroke-linejoin="round"/>
<path d="M59.4824 252.873C59.6782 244.541 59.6603 221.636 59.5298 213.318L73.2335 213.357C73.3583 221.66 73.3791 244.565 73.1826 252.881L59.4824 252.873Z" fill="#1B1D20"/>
<path d="M59.4824 252.873C59.6782 244.541 59.6603 221.636 59.5298 213.318L73.2335 213.357C73.3583 221.66 73.3791 244.565 73.1826 252.881L59.4824 252.873Z" stroke="#F0F5FC" stroke-width="2.33496" stroke-linecap="round" stroke-linejoin="round"/>
<path d="M149.547 251.914H136.044C136.219 240.344 135.957 225.411 136.142 214.647C136.142 214.647 91.3718 213.397 72.3356 213.353C72.4038 221.36 72.4174 242.91 72.3191 251.914H56.0155C52.5234 251.914 49.666 254.674 49.666 258.046V263.805H155.896V258.046C155.896 254.674 153.039 251.914 149.547 251.914Z" fill="#1B1D20"/>
<path d="M149.547 251.914H136.044C136.219 240.344 135.957 225.411 136.142 214.647C136.142 214.647 91.3718 213.397 72.3356 213.353C72.4038 221.36 72.4174 242.91 72.3191 251.914H56.0155C52.5234 251.914 49.666 254.674 49.666 258.046V263.805H155.896V258.046C155.896 254.674 153.039 251.914 149.547 251.914Z" stroke="#F0F5FC" stroke-width="2.33496" stroke-linecap="round" stroke-linejoin="round"/>
<path d="M137 214H61V225H137V214Z" fill="#1B1D20"/>
<path d="M170.791 87.8711H17.7449C13.3204 87.8711 9.73438 92.0951 9.73438 97.3057V205.521C9.73438 210.731 13.3204 214.955 17.7449 214.955H170.791C175.215 214.955 178.801 210.731 178.801 205.521V97.3057C178.801 92.0951 175.215 87.8711 170.791 87.8711Z" fill="#1B1D20"/>
<path d="M170.791 87.8711H17.7449C13.3204 87.8711 9.73438 92.0951 9.73438 97.3057V205.521C9.73438 210.731 13.3204 214.955 17.7449 214.955H170.791C175.215 214.955 178.801 210.731 178.801 205.521V97.3057C178.801 92.0951 175.215 87.8711 170.791 87.8711Z" stroke="#F0F5FC" stroke-width="2.33496" stroke-linecap="round" stroke-linejoin="round"/>
<path d="M177.962 87.8711H24.9168C20.4923 87.8711 16.9062 92.0951 16.9062 97.3057V205.521C16.9062 210.731 20.4923 214.955 24.9168 214.955H177.962C182.387 214.955 185.973 210.731 185.973 205.521V97.3057C185.973 92.0951 182.387 87.8711 177.962 87.8711Z" fill="#1B1D20"/>
<path d="M177.962 87.8711H24.9168C20.4923 87.8711 16.9062 92.0951 16.9062 97.3057V205.521C16.9062 210.731 20.4923 214.955 24.9168 214.955H177.962C182.387 214.955 185.973 210.731 185.973 205.521V97.3057C185.973 92.0951 182.387 87.8711 177.962 87.8711Z" stroke="#F0F5FC" stroke-width="2.33496" stroke-linecap="round" stroke-linejoin="round"/>
<path d="M248.826 16.8451L201.701 15.856C194.344 15.7016 188.216 22.6652 188.085 31.3293L187.674 58.5024L171.813 102.961L196.565 83.0885C197.856 83.6145 199.235 83.9216 200.67 83.9518L247.796 84.9408C255.153 85.0952 261.28 78.1317 261.412 69.4675L261.965 32.8799C262.096 24.2158 256.183 16.9995 248.826 16.8451Z" fill="#1B1D20"/>
<path d="M248.826 16.8451L201.701 15.856C194.344 15.7016 188.216 22.6652 188.085 31.3293L187.674 58.5024L171.813 102.961L196.565 83.0885C197.856 83.6145 199.235 83.9216 200.67 83.9518L247.796 84.9408C255.153 85.0952 261.28 78.1317 261.412 69.4675L261.965 32.8799C262.096 24.2158 256.183 16.9995 248.826 16.8451Z" stroke="#F0F5FC" stroke-width="2.36552" stroke-linecap="round" stroke-linejoin="round"/>
<path d="M277.087 13.6695L224.18 71.8031L224.01 71.6055L223.829 71.8L201.4 46.0142L211.33 35.2709L224.048 49.7739L224.34 50.1072L224.637 49.7807L267.491 2.52002L277.087 13.6695Z" fill="#F0F5FC" stroke="#F0F5FC" stroke-width="0.788508"/>
<path d="M277.613 13.6785L267.497 1.92457L224.344 49.5148L211.336 34.6817L200.871 46.0045L223.822 72.3902L224.001 72.1971L224.173 72.3976L277.613 13.6785Z" fill="#1B1D20" stroke="#F0F5FC" stroke-width="2.36552" stroke-linecap="round" stroke-linejoin="round"/>
<path d="M121.719 164.37C95.6116 164.387 49.6914 164.416 49.6914 164.416" stroke="#F0F5FC" stroke-width="2.33496" stroke-linecap="round" stroke-linejoin="round"/>
<path d="M107.669 158.27H97.2305V170.563H107.669V158.27Z" fill="white"/>
<path d="M107.669 158.27H97.2305V170.563H107.669V158.27Z" stroke="#202020" stroke-width="2.33496" stroke-linecap="round" stroke-linejoin="round"/>
<path d="M139.153 138.269C139.153 138.269 64.5461 138.165 52.9883 138.148" stroke="#F0F5FC" stroke-width="2.33496" stroke-linecap="round" stroke-linejoin="round"/>
<path d="M131.266 138.173L123.885 129.48L116.504 138.173L123.885 146.865L131.266 138.173Z" fill="#1B1D20"/>
<path d="M131.266 138.173L123.885 129.48L116.504 138.173L123.885 146.865L131.266 138.173Z" stroke="#F0F5FC" stroke-width="2.33496" stroke-linecap="round" stroke-linejoin="round"/>
<path d="M53.4576 87.5435C53.497 87.5764 53.5888 87.606 53.6971 87.6178C53.5895 87.6296 53.497 87.6583 53.4583 87.6921C53.4189 87.6583 53.3263 87.6296 53.2188 87.6178C53.3263 87.606 53.4189 87.5772 53.4576 87.5435Z" fill="white"/>
<path d="M53.4576 87.5435C53.497 87.5764 53.5888 87.606 53.6971 87.6178C53.5895 87.6296 53.497 87.6583 53.4583 87.6921C53.4189 87.6583 53.3263 87.6296 53.2188 87.6178C53.3263 87.606 53.4189 87.5772 53.4576 87.5435Z" stroke="#202020" stroke-width="2.33496" stroke-linecap="round" stroke-linejoin="round"/>
<path d="M331.427 146.764C320.916 161.289 290.534 197.041 297.301 211.499C302.682 222.997 334.516 245.899 353.539 234.035C378.826 218.263 405.714 171.308 411.016 157.731C421.754 130.233 345.386 127.475 331.427 146.764Z" fill="white"/>
<path d="M331.427 146.764C320.916 161.289 290.534 197.041 297.301 211.499C302.682 222.997 334.516 245.899 353.539 234.035C378.826 218.263 405.714 171.308 411.016 157.731C421.754 130.233 345.386 127.475 331.427 146.764Z" stroke="#202020" stroke-width="2.4" stroke-linecap="round" stroke-linejoin="round"/>
<mask id="mask0_524_10202" style="mask-type:alpha" maskUnits="userSpaceOnUse" x="295" y="133" width="119" height="106">
<path d="M331.427 146.764C320.916 161.289 290.534 197.041 297.301 211.499C302.682 222.997 334.516 245.899 353.539 234.035C378.826 218.263 405.714 171.308 411.016 157.731C421.754 130.233 345.386 127.475 331.427 146.764Z" fill="#B25539"/>
<path d="M331.427 146.764C320.916 161.289 290.534 197.041 297.301 211.499C302.682 222.997 334.516 245.899 353.539 234.035C378.826 218.263 405.714 171.308 411.016 157.731C421.754 130.233 345.386 127.475 331.427 146.764Z" stroke="#231F20" stroke-width="2.4" stroke-linecap="round" stroke-linejoin="round"/>
</mask>
<g mask="url(#mask0_524_10202)">
<path d="M366.163 162.743C363.173 162.444 341.145 166.32 337.153 175.791C333.161 185.261 359.52 204.859 367.039 203.859C374.557 202.859 382.599 196.216 383.556 190.739C384.512 185.261 375.356 163.663 366.163 162.743Z" fill="#202020"/>
</g>
<mask id="path-29-inside-1_524_10202" fill="white">
<path d="M312.341 180.465C284.068 191.337 254.416 225.342 239.484 234.759C229.322 241.168 268.236 295.711 281.65 289.232C299.59 280.569 338.293 252.341 363.954 221.248"/>
</mask>
<path d="M312.341 180.465C284.068 191.337 254.416 225.342 239.484 234.759C229.322 241.168 268.236 295.711 281.65 289.232C299.59 280.569 338.293 252.341 363.954 221.248" fill="#1B1D20"/>
<path d="M239.484 234.759L239.911 235.436L239.911 235.436L239.484 234.759ZM281.65 289.232L281.302 288.512L281.302 288.512L281.65 289.232ZM312.054 179.718C297.776 185.209 283.203 196.512 270.387 207.551C263.98 213.071 257.966 218.565 252.663 223.231C247.337 227.917 242.729 231.767 239.058 234.082L239.911 235.436C243.706 233.042 248.403 229.11 253.72 224.432C259.06 219.734 265.026 214.282 271.432 208.764C284.243 197.728 298.633 186.593 312.629 181.211L312.054 179.718ZM239.058 234.082C237.42 235.115 236.906 237.047 237.03 239.25C237.154 241.472 237.931 244.199 239.159 247.189C241.621 253.185 245.992 260.46 251.084 267.306C256.176 274.153 262.026 280.621 267.473 284.98C270.195 287.158 272.849 288.837 275.286 289.763C277.715 290.685 280.041 290.898 281.998 289.953L281.302 288.512C279.906 289.187 278.081 289.113 275.854 288.267C273.635 287.424 271.128 285.856 268.473 283.731C263.169 279.485 257.411 273.132 252.368 266.351C247.325 259.571 243.034 252.413 240.639 246.581C239.439 243.659 238.737 241.123 238.627 239.161C238.516 237.18 239.008 236.005 239.911 235.436L239.058 234.082ZM281.998 289.953C300.048 281.236 338.841 252.934 364.571 221.758L363.337 220.739C337.745 251.748 299.132 279.902 281.302 288.512L281.998 289.953Z" fill="#F0F5FC" mask="url(#path-29-inside-1_524_10202)"/>
<path d="M312.341 180.465C284.068 191.337 254.416 225.342 239.484 234.759C229.322 241.168 268.236 295.711 281.65 289.232C299.59 280.569 338.293 252.341 363.954 221.248" fill="#1B1D20"/>
<path d="M312.341 180.465C284.068 191.337 254.416 225.342 239.484 234.759C229.322 241.168 268.236 295.711 281.65 289.232C299.59 280.569 338.293 252.341 363.954 221.248" stroke="#F0F5FC" stroke-width="2.4" stroke-linecap="round" stroke-linejoin="round"/>
<path d="M239.959 234.203C239.959 234.203 222.975 238.674 212.029 253.676C203.93 264.777 212.068 268.233 190.9 277.439C183.476 280.297 214.539 328.259 227.684 322.188C237.936 317.453 272.258 296.914 287.381 285.887" fill="#1B1D20"/>
<path d="M239.959 234.203C239.959 234.203 222.975 238.674 212.029 253.676C203.93 264.777 212.068 268.233 190.9 277.439C183.476 280.297 214.539 328.259 227.684 322.188C237.936 317.453 272.258 296.914 287.381 285.887" stroke="#F0F5FC" stroke-width="2.4" stroke-linecap="round" stroke-linejoin="round"/>
<path d="M243.391 231.822C230.752 235.369 210.145 242.103 201.165 241.615C194.637 241.903 191.681 252.679 199.358 254.825C206.126 256.813 210.681 258.728 210.681 258.728C210.681 258.728 216.318 271.637 228.617 270.329" fill="white"/>
<path d="M243.391 231.822C230.752 235.369 210.145 242.103 201.165 241.615C194.637 241.903 191.681 252.679 199.358 254.825C206.126 256.813 210.681 258.728 210.681 258.728C210.681 258.728 216.318 271.637 228.617 270.329" stroke="#202020" stroke-width="2.4" stroke-linecap="round" stroke-linejoin="round"/>
<path d="M195.966 288.389C195.563 288.763 195.103 289.088 194.59 289.349C194.59 289.349 193.67 289.818 193.67 289.818C190.661 291.353 186.944 290.148 185.41 287.139L178.653 273.893C177.118 270.884 178.323 267.167 181.332 265.633L182.252 265.164C185.261 263.629 188.978 264.834 190.512 267.843C190.512 267.843 195.126 276.887 196.729 280.029" fill="white"/>
<path d="M195.966 288.389C195.563 288.763 195.103 289.088 194.59 289.349C194.59 289.349 193.67 289.818 193.67 289.818C190.661 291.353 186.944 290.148 185.41 287.139L178.653 273.893C177.118 270.884 178.323 267.167 181.332 265.633L182.252 265.164C185.261 263.629 188.978 264.834 190.512 267.843C190.512 267.843 195.126 276.887 196.729 280.029" stroke="#202020" stroke-width="2.4" stroke-linecap="round" stroke-linejoin="round"/>
<path d="M202.627 299.944C202.083 300.721 201.355 301.384 200.466 301.86C200.466 301.86 199.536 302.358 199.536 302.358C196.494 303.988 192.671 302.832 191.041 299.789L183.865 286.393C182.235 283.35 183.391 279.527 186.434 277.897L187.364 277.399C190.406 275.769 194.229 276.925 195.859 279.968C195.859 279.968 199.874 287.461 201.897 291.239" fill="white"/>
<path d="M202.627 299.944C202.083 300.721 201.355 301.384 200.466 301.86C200.466 301.86 199.536 302.358 199.536 302.358C196.494 303.988 192.671 302.832 191.041 299.789L183.865 286.393C182.235 283.35 183.391 279.527 186.434 277.897L187.364 277.399C190.406 275.769 194.229 276.925 195.859 279.968C195.859 279.968 199.874 287.461 201.897 291.239" stroke="#202020" stroke-width="2.4" stroke-linecap="round" stroke-linejoin="round"/>
<path d="M213.843 309.967C214.309 312.477 213.188 315.131 210.865 316.484C210.865 316.484 209.962 317.01 209.962 317.01C207.009 318.729 203.187 317.72 201.468 314.767L193.898 301.767C192.179 298.814 193.188 294.992 196.141 293.273L197.043 292.747C199.996 291.028 203.819 292.036 205.538 294.989C205.538 294.989 207.563 298.466 209.518 301.824" fill="white"/>
<path d="M213.843 309.967C214.309 312.477 213.188 315.131 210.865 316.484C210.865 316.484 209.962 317.01 209.962 317.01C207.009 318.729 203.187 317.72 201.468 314.767L193.898 301.767C192.179 298.814 193.188 294.992 196.141 293.273L197.043 292.747C199.996 291.028 203.819 292.036 205.538 294.989C205.538 294.989 207.563 298.466 209.518 301.824" stroke="#202020" stroke-width="2.4" stroke-linecap="round" stroke-linejoin="round"/>
<path d="M227.683 322.187C222.701 324.994 219.977 324.79 216.24 325.813C210.918 326.821 205.945 321.97 204.77 318.204L205.842 313.327C204.667 309.561 206.786 305.518 210.552 304.343C214.318 303.168 218.36 305.287 219.535 309.053L221.834 314.168" fill="white"/>
<path d="M227.683 322.187C222.701 324.994 219.977 324.79 216.24 325.813C210.918 326.821 205.945 321.97 204.77 318.204L205.842 313.327C204.667 309.561 206.786 305.518 210.552 304.343C214.318 303.168 218.36 305.287 219.535 309.053L221.834 314.168" stroke="#202020" stroke-width="2.4" stroke-linecap="round" stroke-linejoin="round"/>
<path d="M373.789 99.0886C358.45 106.527 352.253 117.103 332.894 144.919C346.639 147.781 379.959 153.042 413.482 170.086C415.201 170.96 438.506 139.817 439.217 122.03C439.698 110.019 440.145 93.2452 415.431 92.4944C393.665 91.8337 385.324 93.495 373.789 99.0886Z" fill="#1B1D20"/>
<path d="M373.789 99.0886C358.45 106.527 352.253 117.103 332.894 144.919C346.639 147.781 379.959 153.042 413.482 170.086C415.201 170.96 438.506 139.817 439.217 122.03C439.698 110.019 440.145 93.2452 415.431 92.4944C393.665 91.8337 385.324 93.495 373.789 99.0886Z" stroke="#682EC6" stroke-width="2.4" stroke-linecap="round" stroke-linejoin="round"/>
<path d="M285.616 169.615C333.553 179.763 366.289 198.679 404.046 219.416C440.327 239.343 484.024 241.764 488.077 270.128C496.927 332.047 455.205 335.287 414.87 335.359C374.533 335.431 270.674 264.266 270.674 264.266C258.216 256.287 231.43 227.27 241.409 195.992C249.227 171.486 260.958 164.396 285.616 169.615Z" fill="#1B1D20"/>
<path d="M285.616 169.615C333.553 179.763 366.289 198.679 404.046 219.416C440.327 239.343 484.024 241.764 488.077 270.128C496.927 332.047 455.205 335.287 414.87 335.359C374.533 335.431 270.674 264.266 270.674 264.266C258.216 256.287 231.43 227.27 241.409 195.992C249.227 171.486 260.958 164.396 285.616 169.615Z" stroke="#F0F5FC" stroke-width="2.4" stroke-linecap="round" stroke-linejoin="round"/>
<path d="M461.32 357.363V463.29H449.638V357.363H461.32Z" fill="#1B1D20" stroke="#F0F5FC" stroke-width="0.800001"/>
<path d="M449.238 463.69H461.72V356.963H449.238V463.69Z" stroke="#F0F5FC" stroke-width="2.4" stroke-linecap="round" stroke-linejoin="round"/>
<mask id="path-51-inside-2_524_10202" fill="white">
<path d="M503.365 350.379C513.496 350.379 521.135 334.014 521.135 312.311V269.073C521.135 247.37 513.496 231.005 503.365 231.005V247.508C504.787 247.508 509.076 255.156 509.076 269.073V312.311C509.076 326.228 504.787 333.876 503.365 333.876"/>
</mask>
<path d="M503.365 350.379C513.496 350.379 521.135 334.014 521.135 312.311V269.073C521.135 247.37 513.496 231.005 503.365 231.005V247.508C504.787 247.508 509.076 255.156 509.076 269.073V312.311C509.076 326.228 504.787 333.876 503.365 333.876" fill="#1B1D20"/>
<path d="M503.365 231.005V230.205H502.565V231.005H503.365ZM503.365 247.508H502.565V248.308H503.365V247.508ZM503.365 351.179C508.91 351.179 513.557 346.714 516.774 339.822C520.012 332.884 521.935 323.244 521.935 312.311H520.335C520.335 323.08 518.438 332.475 515.324 339.145C512.189 345.862 507.951 349.579 503.365 349.579V351.179ZM521.935 312.311V269.073H520.335V312.311H521.935ZM521.935 269.073C521.935 258.139 520.012 248.5 516.774 241.562C513.557 234.67 508.91 230.205 503.365 230.205V231.805C507.951 231.805 512.189 235.522 515.324 242.239C518.438 248.909 520.335 258.303 520.335 269.073H521.935ZM502.565 231.005V247.508H504.165V231.005H502.565ZM503.365 248.308C503.223 248.308 503.25 248.241 503.473 248.449C503.661 248.624 503.905 248.919 504.185 249.354C504.742 250.219 505.386 251.547 505.997 253.331C507.216 256.891 508.276 262.194 508.276 269.073H509.876C509.876 262.034 508.792 256.555 507.511 252.812C506.871 250.944 506.176 249.491 505.53 248.487C505.208 247.988 504.883 247.576 504.564 247.279C504.281 247.014 503.863 246.708 503.365 246.708V248.308ZM508.276 269.073V312.311H509.876V269.073H508.276ZM508.276 312.311C508.276 319.19 507.216 324.493 505.997 328.053C505.386 329.837 504.742 331.165 504.185 332.03C503.905 332.465 503.661 332.76 503.473 332.935C503.25 333.143 503.223 333.076 503.365 333.076V334.676C503.863 334.676 504.281 334.37 504.564 334.105C504.883 333.808 505.208 333.396 505.53 332.897C506.176 331.893 506.871 330.439 507.511 328.571C508.792 324.829 509.876 319.349 509.876 312.311H508.276Z" fill="#F0F5FC" mask="url(#path-51-inside-2_524_10202)"/>
<path d="M503.365 350.379C513.496 350.379 521.135 334.014 521.135 312.311V269.073C521.135 247.37 513.496 231.005 503.365 231.005V247.508C504.787 247.508 509.076 255.156 509.076 269.073V312.311C509.076 326.228 504.787 333.876 503.365 333.876" fill="#1B1D20"/>
<path d="M503.365 350.379C513.496 350.379 521.135 334.014 521.135 312.311V269.073C521.135 247.37 513.496 231.005 503.365 231.005V247.508C504.787 247.508 509.076 255.156 509.076 269.073V312.311C509.076 326.228 504.787 333.876 503.365 333.876" stroke="#F0F5FC" stroke-width="2.4" stroke-linecap="round" stroke-linejoin="round"/>
<path d="M527.262 272.478H502.551C494.633 272.478 488.152 265.997 488.152 258.079V219.301C488.152 211.383 494.633 204.902 502.551 204.902H527.262C535.18 204.902 541.661 211.383 541.661 219.301V258.079C541.661 265.997 535.18 272.478 527.262 272.478Z" fill="#1B1D20" stroke="#F0F5FC" stroke-width="0.800001"/>
<path d="M502.551 272.878H527.262C535.401 272.878 542.061 266.218 542.061 258.079V219.301C542.061 211.162 535.401 204.502 527.262 204.502H502.551C494.412 204.502 487.752 211.162 487.752 219.301V258.079C487.752 266.218 494.412 272.878 502.551 272.878Z" fill="#1B1D20" stroke="#F0F5FC" stroke-width="2.4" stroke-linecap="round" stroke-linejoin="round"/>
<path d="M396.478 358.325H514.507C521.296 358.325 526.851 352.77 526.851 345.98C526.851 339.19 521.296 333.635 514.507 333.635H396.478C389.688 333.635 384.133 339.19 384.133 345.98C384.133 352.77 389.688 358.325 396.478 358.325Z" fill="#1B1D20"/>
<path d="M396.478 358.325H514.507C521.296 358.325 526.851 352.77 526.851 345.98C526.851 339.19 521.296 333.635 514.507 333.635H396.478C389.688 333.635 384.133 339.19 384.133 345.98C384.133 352.77 389.688 358.325 396.478 358.325Z" stroke="#F0F5FC" stroke-width="2.4" stroke-linecap="round" stroke-linejoin="round"/>
<path d="M519.041 482.026V473.039C519.041 468.096 514.997 464.052 510.054 464.052H400.933C395.989 464.052 391.945 468.096 391.945 473.039V482.026" stroke="#F0F5FC" stroke-width="2.4" stroke-linecap="round" stroke-linejoin="round"/>
<path d="M403.305 491.667C403.305 497.877 398.272 502.91 392.062 502.91C385.853 502.91 380.82 497.877 380.82 491.667C380.82 485.458 385.853 480.425 392.062 480.425C398.272 480.425 403.305 485.458 403.305 491.667Z" fill="#1B1D20" stroke="#F0F5FC" stroke-width="0.800001"/>
<path d="M403.705 491.667C403.705 498.098 398.493 503.31 392.062 503.31C385.632 503.31 380.42 498.098 380.42 491.667C380.42 485.237 385.632 480.025 392.062 480.025C398.493 480.025 403.705 485.237 403.705 491.667Z" fill="#1B1D20" stroke="#F0F5FC" stroke-width="2.4" stroke-linecap="round" stroke-linejoin="round"/>
<path d="M449.731 464.052C444.788 464.052 440.744 468.096 440.744 473.039V482.026" stroke="#F0F5FC" stroke-width="2.4" stroke-linecap="round" stroke-linejoin="round"/>
<path d="M452.106 491.667C452.106 497.877 447.073 502.91 440.863 502.91C434.654 502.91 429.621 497.877 429.621 491.667C429.621 485.458 434.654 480.425 440.863 480.425C447.073 480.425 452.106 485.458 452.106 491.667Z" fill="#1B1D20" stroke="#F0F5FC" stroke-width="0.800001"/>
<path d="M452.506 491.667C452.506 498.098 447.294 503.31 440.863 503.31C434.433 503.31 429.221 498.098 429.221 491.667C429.221 485.237 434.433 480.025 440.863 480.025C447.294 480.025 452.506 485.237 452.506 491.667Z" stroke="#F0F5FC" stroke-width="2.4" stroke-linecap="round" stroke-linejoin="round"/>
<path d="M530.904 491.667C530.904 498.098 525.692 503.31 519.262 503.31C512.831 503.31 507.619 498.098 507.619 491.667C507.619 485.237 512.831 480.025 519.262 480.025C525.692 480.025 530.904 485.237 530.904 491.667Z" fill="#1B1D20"/>
<path d="M530.904 491.667C530.904 498.098 525.692 503.31 519.262 503.31C512.831 503.31 507.619 498.098 507.619 491.667C507.619 485.237 512.831 480.025 519.262 480.025C525.692 480.025 530.904 485.237 530.904 491.667Z" fill="#1B1D20" stroke="#F0F5FC" stroke-width="2.4" stroke-linecap="round" stroke-linejoin="round"/>
<path d="M518.655 466.942V471.652H392.332V466.942C392.332 463.091 395.453 459.97 399.303 459.97H511.684C515.534 459.97 518.655 463.091 518.655 466.942Z" fill="#1B1D20" stroke="#F0F5FC" stroke-width="0.800001"/>
<path d="M519.055 472.052V466.942C519.055 462.87 515.755 459.57 511.684 459.57H399.303C395.232 459.57 391.932 462.87 391.932 466.942V472.052H519.055Z" fill="#1B1D20" stroke="#F0F5FC" stroke-width="2.4" stroke-linecap="round" stroke-linejoin="round"/>
<path d="M158.693 231.526C168.001 278.599 156.3 284.11 147.596 284.249C138.2 284.399 131.926 275.065 125.271 233.409C119.867 199.585 130.977 194.275 136.859 193.163C143.934 191.826 152.6 200.712 158.693 231.526Z" fill="white"/>
<path d="M158.693 231.526C168.001 278.599 156.3 284.11 147.596 284.249C138.2 284.399 131.926 275.065 125.271 233.409C119.867 199.585 130.977 194.275 136.859 193.163C143.934 191.826 152.6 200.712 158.693 231.526Z" stroke="#202020" stroke-width="2.4" stroke-linecap="round" stroke-linejoin="round"/>
<path d="M143.697 264.222C123.25 268.846 112.575 270.034 89.978 275.398C80.7251 234.107 70.759 187.835 61.5061 146.542C61.5061 146.542 73.0865 144.057 82.0004 149.098C90.9143 154.14 100.288 167.635 108.596 177.233C119.105 189.376 132.834 194.939 132.834 194.939C143.231 194.497 161.383 188.323 167.975 195.644C183.842 213.27 205.418 256.084 143.697 264.222Z" fill="#1B1D20"/>
<path d="M143.697 264.222C123.25 268.846 112.575 270.034 89.978 275.398C80.7251 234.107 70.759 187.835 61.506 146.542C61.506 146.542 73.0865 144.057 82.0004 149.098C90.9143 154.14 100.288 167.635 108.596 177.233C119.105 189.376 132.834 194.939 132.834 194.939C143.231 194.497 161.383 188.323 167.975 195.644C183.842 213.27 205.418 256.084 143.697 264.222Z" stroke="#682EC6" stroke-width="2.4" stroke-linecap="round" stroke-linejoin="round"/>
<path d="M61.5291 146.584L58.3264 146.906C55.5601 147.183 53.6595 149.816 54.2653 152.529C62.8929 191.165 72.0813 233.704 80.7067 272.322C81.3061 275.005 83.9638 276.695 86.6484 276.104L89.9764 275.398L61.5291 146.584Z" fill="#1B1D20"/>
<path d="M61.5291 146.584L58.3264 146.906C55.5601 147.183 53.6595 149.816 54.2653 152.529C62.8929 191.165 72.0813 233.704 80.7067 272.322C81.3061 275.005 83.9638 276.695 86.6484 276.104L89.9764 275.398L61.5291 146.584Z" stroke="#F0F5FC" stroke-width="2.4" stroke-linecap="round" stroke-linejoin="round"/>
<path d="M81.452 236.958C84.3324 250.041 87.1883 262.947 89.978 275.398C106.516 271.472 116.671 269.782 128.942 267.346C124.332 248.232 104.975 231.888 81.452 236.958Z" fill="#1B1D20"/>
<path d="M81.452 236.958C84.3324 250.041 87.1883 262.947 89.978 275.398C106.516 271.472 116.671 269.782 128.942 267.346C124.332 248.232 104.975 231.888 81.452 236.958Z" stroke="#682EC6" stroke-width="2.4" stroke-linecap="round" stroke-linejoin="round"/>
<path d="M122.409 286.206C122.409 286.206 123.486 290.907 127.117 290.194C130.747 289.48 165.882 272.073 165.882 272.073C165.882 272.073 170.84 298.218 184.867 294.23C196.498 290.924 315.928 261.778 315.928 261.778C315.928 261.778 198.381 267.67 169.674 250.276L116.394 272.983L122.409 286.206Z" fill="#202020"/>
<path d="M280.1 266.305C266.97 268.944 220.66 277.804 173.134 281.569C164.716 282.235 156.26 282.742 147.943 283.027C147.943 283.027 161.552 261.236 137.876 193.441C137.876 193.441 139.074 193.144 141.246 192.615C160.444 187.934 256.321 167.456 273.115 170.297" fill="white"/>
<path d="M280.1 266.305C266.97 268.944 220.66 277.804 173.134 281.569C164.716 282.235 156.26 282.742 147.943 283.027C147.943 283.027 161.552 261.236 137.876 193.441C137.876 193.441 139.074 193.144 141.246 192.615C160.444 187.934 256.321 167.456 273.115 170.297" stroke="#202020" stroke-width="2.4" stroke-linecap="round" stroke-linejoin="round"/>
<mask id="mask1_524_10202" style="mask-type:alpha" maskUnits="userSpaceOnUse" x="136" y="168" width="146" height="117">
<path d="M280.1 266.305C266.97 268.944 220.66 277.804 173.134 281.569C164.716 282.235 156.26 282.742 147.943 283.027C147.943 283.027 161.552 261.236 137.876 193.441C137.876 193.441 139.074 193.144 141.246 192.615C160.444 187.934 256.321 167.456 273.115 170.297" fill="#7248EE"/>
<path d="M280.1 266.305C266.97 268.944 220.66 277.804 173.134 281.569C164.716 282.235 156.26 282.742 147.943 283.027C147.943 283.027 161.552 261.236 137.876 193.441C137.876 193.441 139.074 193.144 141.246 192.615C160.444 187.934 256.321 167.456 273.115 170.297" stroke="#231F20" stroke-width="2.4" stroke-linecap="round" stroke-linejoin="round"/>
</mask>
<g mask="url(#mask1_524_10202)">
<path d="M122.409 286.206C122.409 286.206 123.486 290.907 127.117 290.194C130.747 289.48 165.882 272.073 165.882 272.073C165.882 272.073 170.84 298.218 184.867 294.23C196.498 290.924 315.928 261.778 315.928 261.778C315.928 261.778 198.381 267.67 169.674 250.276L116.394 272.983L122.409 286.206Z" fill="#202020"/>
</g>
<path d="M397.829 92.6475C416.889 91.0173 432.229 94.5093 445.245 91.4531C458.261 88.3968 500.03 88.5928 524.9 90.0614C531.985 90.4827 529.829 128.421 525.49 167.656C520.961 208.622 514.054 251.002 512.805 253.564C507.323 270.16 466.091 259.357 428.839 253.739C375.952 245.764 343.812 212.161 343.812 212.161C349.58 197.62 375.554 147.512 375.554 147.512" fill="#1B1D20"/>
<path d="M397.829 92.6475C416.889 91.0173 432.229 94.5093 445.245 91.4531C458.261 88.3968 500.03 88.5928 524.9 90.0614C531.985 90.4827 529.829 128.421 525.49 167.656C520.961 208.622 514.054 251.002 512.805 253.564C507.323 270.16 466.091 259.357 428.839 253.739C375.952 245.764 343.812 212.161 343.812 212.161C349.58 197.62 375.554 147.512 375.554 147.512" fill="#1B1D20"/>
<path d="M397.829 92.6475C416.889 91.0173 432.229 94.5093 445.245 91.4531C458.261 88.3968 500.03 88.5928 524.9 90.0614C531.985 90.4827 529.829 128.421 525.49 167.656C520.961 208.622 514.054 251.002 512.805 253.564C507.323 270.16 466.091 259.357 428.839 253.739C375.952 245.764 343.812 212.161 343.812 212.161C349.58 197.62 375.554 147.512 375.554 147.512" stroke="#682EC6" stroke-width="2.4" stroke-linecap="round" stroke-linejoin="round"/>
<path d="M470.955 160.229L430.118 153.838L431.381 145.775L472.217 152.166L470.955 160.229Z" fill="#1B1D20"/>
<path d="M470.955 160.229L430.118 153.838L431.381 145.775L472.217 152.166L470.955 160.229Z" stroke="#F0F5FC" stroke-width="2.4" stroke-linecap="round" stroke-linejoin="round"/>
<path d="M426.041 99.0071C426.037 98.9981 426.035 98.9902 426.032 98.9834L424.812 62.8343L424.863 62.8254L424.819 62.4497C423.812 53.8573 429.711 45.905 438.335 44.4823C446.958 43.0595 455.098 48.6968 456.905 57.1575L456.985 57.5342L457.037 57.5252L466.83 89.9594C466.679 90.0239 466.477 90.1097 466.228 90.2142C465.626 90.4675 464.748 90.8312 463.648 91.2725C461.448 92.1552 458.359 93.3482 454.805 94.5886C447.69 97.0721 438.74 99.7354 431.33 100.493L431.371 100.891L431.33 100.493C428.767 100.756 427.438 100.296 426.762 99.8383C426.424 99.6089 426.238 99.372 426.137 99.2039C426.086 99.1191 426.057 99.0505 426.041 99.0071Z" fill="#1B1D20" stroke="#F0F5FC" stroke-width="0.800001"/>
<path d="M424.4 62.5L424.422 62.4963C423.39 53.6935 429.433 45.5455 438.27 44.0876C447.106 42.6298 455.445 48.4062 457.296 57.074L457.317 57.0703L467.316 90.1855C467.316 90.1855 446.287 99.3654 431.371 100.891C426.132 101.428 425.634 99.0452 425.634 99.0452L424.4 62.5Z" stroke="#F0F5FC" stroke-width="2.4" stroke-linecap="round" stroke-linejoin="round"/>
<path d="M460.539 69.3415C444.032 70.8341 440.608 57.9894 440.608 57.9894C424.568 63.1746 417.792 51.918 417.792 51.918C417.792 51.918 424.874 52.736 430.185 47.8029C439.233 39.4002 453.619 44.9046 456.543 54.5459C459.466 64.1871 460.539 69.3415 460.539 69.3415Z" fill="#1B1D20"/>
<path d="M460.539 69.3415C444.032 70.8341 440.608 57.9894 440.608 57.9894C424.568 63.1746 417.792 51.918 417.792 51.918C417.792 51.918 424.874 52.736 430.185 47.8029C439.233 39.4002 453.619 44.9046 456.543 54.5459C459.466 64.1871 460.539 69.3415 460.539 69.3415Z" stroke="#F0F5FC" stroke-width="2.4" stroke-linecap="round" stroke-linejoin="round"/>
<path d="M424.912 75.1951C424.912 75.1951 428.762 77.6917 437.044 73.4752" stroke="#F0F5FC" stroke-width="2.4" stroke-linecap="round" stroke-linejoin="round"/>
<path d="M429.906 68.1751C429.906 68.1751 434.287 63.741 438.189 67.8231" stroke="#F0F5FC" stroke-width="2.4" stroke-linecap="round" stroke-linejoin="round"/>
<path d="M431.369 100.892C431.369 100.892 456.193 93.0052 465.231 80.1607C465.231 80.1607 470.945 81.5812 473.47 84.7855C474.028 85.4938 473.637 86.7448 472.503 88.3352C467.835 94.8857 450.581 107.183 435.276 110.919L431.369 100.892L420.945 108.702C420.945 108.702 407.373 90.0795 425.166 85.2211C425.166 85.2211 424.36 95.7059 431.369 100.892Z" fill="#1B1D20"/>
<path d="M431.369 100.892C431.369 100.892 456.193 93.0052 465.231 80.1607C465.231 80.1607 470.945 81.5812 473.47 84.7855C474.028 85.4938 473.637 86.7448 472.503 88.3352C467.835 94.8857 450.581 107.183 435.276 110.919L431.369 100.892L420.945 108.702C420.945 108.702 407.373 90.0795 425.166 85.2211C425.166 85.2211 424.36 95.7059 431.369 100.892Z" fill="#1B1D20"/>
<path d="M431.369 100.892C431.369 100.892 456.193 93.0052 465.231 80.1607C465.231 80.1607 470.945 81.5812 473.47 84.7855C474.028 85.4938 473.637 86.7448 472.503 88.3352C467.835 94.8857 450.581 107.183 435.276 110.919L431.369 100.892ZM431.369 100.892L420.945 108.702C420.945 108.702 407.373 90.0795 425.166 85.2211C425.166 85.2211 424.36 95.7059 431.369 100.892Z" stroke="#F0F5FC" stroke-width="2.4" stroke-linecap="round" stroke-linejoin="round"/>
<path d="M317.16 166.478C363.857 181.32 390.401 197 428.121 217.804C464.366 237.796 508.058 240.295 512.062 268.665C520.801 330.6 479.074 333.766 438.738 333.766C398.401 333.766 289.669 264.616 289.669 264.616C277.177 265.027 255.491 225.351 265.525 194.09C273.387 169.599 295.924 159.729 317.16 166.478Z" fill="#1B1D20"/>
<path d="M317.16 166.478C363.857 181.32 390.401 197 428.121 217.804C464.366 237.796 508.058 240.295 512.062 268.665C520.801 330.6 479.074 333.766 438.738 333.766C398.401 333.766 289.669 264.616 289.669 264.616C277.177 265.027 255.491 225.351 265.525 194.09C273.387 169.599 295.924 159.729 317.16 166.478Z" stroke="#F0F5FC" stroke-width="2.4" stroke-linecap="round" stroke-linejoin="round"/>
<path d="M177.049 235.864C183.432 263.901 177.138 280.55 170.845 280.806C163.99 281.084 159.739 252.6 157.189 236.634C153.722 214.933 147.798 187.406 159.93 187.062C168.784 186.811 168.338 197.6 177.049 235.864Z" fill="white"/>
<path d="M177.049 235.864C183.432 263.901 177.138 280.55 170.845 280.806C163.99 281.084 159.739 252.6 157.189 236.634C153.722 214.933 147.798 187.406 159.93 187.062C168.784 186.811 168.338 197.6 177.049 235.864Z" stroke="#202020" stroke-width="2.4" stroke-linecap="round" stroke-linejoin="round"/>
<path d="M167.688 262.147C147.233 266.734 136.555 267.903 113.949 273.227C104.77 231.92 94.8863 185.629 85.7069 144.32C85.7069 144.32 97.2917 141.856 106.197 146.913C115.102 151.971 124.452 165.482 132.742 175.095C143.229 187.257 156.953 190.444 156.953 190.444C164.259 190.146 191.745 187.75 197.357 191.851C218.96 207.638 236.337 263.278 167.688 262.147Z" fill="#1B1D20"/>
<path d="M167.688 262.147C147.233 266.734 136.555 267.903 113.949 273.227C104.77 231.92 94.8863 185.629 85.7069 144.32C85.7069 144.32 97.2917 141.856 106.197 146.913C115.102 151.971 124.452 165.482 132.742 175.095C143.229 187.257 156.953 190.444 156.953 190.444C164.259 190.146 191.745 187.75 197.357 191.851C218.96 207.638 236.337 263.278 167.688 262.147Z" stroke="#682EC6" stroke-width="2.4" stroke-linecap="round" stroke-linejoin="round"/>
<path d="M85.7313 144.363L82.528 144.679C79.7612 144.951 77.856 147.58 78.4569 150.294C87.0158 188.946 96.1284 231.501 104.685 270.134C105.28 272.818 107.934 274.513 110.62 273.926L113.949 273.227L85.7313 144.363Z" fill="#1B1D20"/>
<path d="M85.7313 144.363L82.528 144.679C79.7612 144.951 77.856 147.58 78.4569 150.294C87.0158 188.946 96.1284 231.501 104.685 270.134C105.28 272.818 107.934 274.513 110.62 273.926L113.949 273.227L85.7313 144.363Z" stroke="#F0F5FC" stroke-width="2.4" stroke-linecap="round" stroke-linejoin="round"/>
<path d="M105.493 234.771C108.35 247.859 111.183 260.771 113.951 273.226C130.495 269.33 140.654 267.658 152.929 265.244C148.353 246.122 129.025 229.743 105.493 234.771Z" fill="#1B1D20"/>
<path d="M105.493 234.771C108.35 247.859 111.183 260.771 113.951 273.226C130.495 269.33 140.654 267.658 152.929 265.244C148.353 246.122 129.025 229.743 105.493 234.771Z" stroke="#682EC6" stroke-width="2.4" stroke-linecap="round" stroke-linejoin="round"/>
<mask id="path-107-inside-3_524_10202" fill="white">
<path d="M301.177 265.046C281.981 268.782 224.18 279.265 171.904 280.959C171.904 280.959 183.16 254.387 159.605 186.551C159.605 186.551 179.749 182.519 204.729 178.006C240.309 171.578 289.901 165.4 301.481 164.651"/>
</mask>
<path d="M301.177 265.046C281.981 268.782 224.18 279.265 171.904 280.959C171.904 280.959 183.16 254.387 159.605 186.551C159.605 186.551 179.749 182.519 204.729 178.006C240.309 171.578 289.901 165.4 301.481 164.651" fill="#1B1D20"/>
<path d="M171.904 280.959L171.168 280.647L170.68 281.799L171.93 281.758L171.904 280.959ZM159.605 186.551L159.448 185.767L158.548 185.947L158.849 186.814L159.605 186.551ZM204.729 178.006L204.872 178.794L204.872 178.794L204.729 178.006ZM301.024 264.261C281.836 267.995 224.087 278.467 171.878 280.159L171.93 281.758C224.273 280.062 282.126 269.568 301.33 265.831L301.024 264.261ZM171.904 280.959C172.641 281.271 172.641 281.27 172.642 281.269C172.642 281.269 172.642 281.268 172.643 281.267C172.643 281.265 172.644 281.263 172.645 281.261C172.647 281.256 172.65 281.25 172.653 281.242C172.66 281.225 172.669 281.202 172.68 281.173C172.704 281.114 172.736 281.029 172.777 280.917C172.858 280.692 172.972 280.361 173.107 279.918C173.377 279.032 173.732 277.702 174.08 275.899C174.778 272.293 175.454 266.799 175.388 259.187C175.257 243.963 172.162 220.274 160.361 186.289L158.849 186.814C170.604 220.665 173.658 244.18 173.788 259.2C173.853 266.711 173.186 272.099 172.51 275.595C172.171 277.343 171.83 278.619 171.577 279.451C171.45 279.867 171.345 280.173 171.273 280.371C171.237 280.47 171.209 280.542 171.191 280.588C171.182 280.611 171.176 280.627 171.172 280.637C171.17 280.642 171.168 280.645 171.168 280.647C171.167 280.647 171.167 280.648 171.167 280.648C171.167 280.648 171.167 280.647 171.167 280.647C171.168 280.647 171.168 280.647 171.904 280.959ZM159.605 186.551C159.762 187.336 159.762 187.336 159.762 187.336C159.762 187.336 159.762 187.336 159.763 187.335C159.763 187.335 159.764 187.335 159.766 187.335C159.768 187.334 159.772 187.334 159.776 187.333C159.786 187.331 159.801 187.328 159.82 187.324C159.859 187.316 159.917 187.305 159.994 187.289C160.147 187.259 160.375 187.213 160.675 187.154C161.274 187.035 162.158 186.86 163.297 186.636C165.575 186.187 168.873 185.542 172.951 184.757C181.107 183.185 192.385 181.049 204.872 178.794L204.587 177.219C192.093 179.476 180.809 181.613 172.648 183.186C168.568 183.972 165.268 184.617 162.988 185.066C161.848 185.29 160.963 185.465 160.363 185.584C160.063 185.644 159.835 185.69 159.681 185.72C159.604 185.736 159.546 185.747 159.507 185.755C159.487 185.759 159.473 185.762 159.463 185.764C159.458 185.765 159.454 185.766 159.452 185.766C159.45 185.766 159.449 185.766 159.449 185.767C159.449 185.767 159.448 185.767 159.448 185.767C159.448 185.767 159.448 185.767 159.605 186.551ZM204.872 178.794C240.434 172.369 289.994 166.196 301.533 165.45L301.429 163.853C289.809 164.604 240.184 170.788 204.587 177.219L204.872 178.794Z" fill="#F0F5FC" mask="url(#path-107-inside-3_524_10202)"/>
<path d="M301.177 265.046C281.981 268.782 224.18 279.265 171.904 280.959C171.904 280.959 183.16 254.387 159.605 186.551C159.605 186.551 179.749 182.519 204.729 178.006C240.309 171.578 289.901 165.4 301.481 164.651" fill="#1B1D20"/>
<path d="M301.177 265.046C281.981 268.782 224.18 279.265 171.904 280.959C171.904 280.959 183.16 254.387 159.605 186.551C159.605 186.551 179.749 182.519 204.729 178.006C240.309 171.578 289.901 165.4 301.481 164.651" stroke="#F0F5FC" stroke-width="2.4" stroke-linecap="round" stroke-linejoin="round"/>
<path d="M311.451 166.4C308.401 165.2 286.352 167.951 286.352 167.951C286.352 167.951 316.401 198.2 308.801 224.2C301.621 248.763 291.194 262.411 294.371 262.507C300.701 262.7 309.601 270.1 309.601 270.1C309.601 270.1 343.801 248.8 344.801 211C345.801 173.2 317.921 168.946 311.451 166.4Z" fill="#1B1D20"/>
<mask id="mask2_524_10202" style="mask-type:alpha" maskUnits="userSpaceOnUse" x="261" y="162" width="254" height="174">
<path d="M317.147 166.08C363.792 180.978 390.306 196.717 427.984 217.601C464.188 237.667 507.831 240.176 511.83 268.653C520.56 330.822 478.879 334 438.589 334C398.297 334 289.688 264.589 289.688 264.589C277.21 265.001 255.548 225.175 265.571 193.797C273.424 169.213 295.936 159.306 317.147 166.08Z" stroke="#F0F5FC" stroke-width="2.4" stroke-linecap="round" stroke-linejoin="round"/>
</mask>
<g mask="url(#mask2_524_10202)">
<path d="M348.859 214C348.859 214 389.41 240.582 450.528 264.157C514.381 288.786 536.753 242.47 536.753 242.47C536.753 242.47 508.385 254.028 464.243 248.871C433.493 245.279 406.422 231.348 388.535 225.735C370.964 220.222 348.859 214 348.859 214Z" fill="#F0F5FC"/>
</g>
<path d="M572.997 185.297C572.411 189.921 552.824 191.243 529.25 188.252C505.676 185.262 487.041 179.09 487.627 174.466C488.213 169.843 507.8 168.521 531.374 171.511C554.948 174.502 573.583 180.674 572.997 185.297Z" fill="#202020"/>
<path d="M28.5465 280.707H265.91V323.413H28.5465V280.707Z" fill="#1B1D20" stroke="#F0F5FC" stroke-width="0.8"/>
<path d="M28.1465 280.307H266.31V323.813H28.1465V280.307Z" fill="#1B1D20" stroke="#F0F5FC" stroke-width="2.4" stroke-linecap="round" stroke-linejoin="round"/>
<path d="M294.298 280.306H-0.09375V263.49H294.298V280.306Z" fill="#1B1D20"/>
<path d="M294.298 280.306H-0.09375V263.49H294.298V280.306Z" stroke="#F0F5FC" stroke-width="2.4" stroke-linecap="round" stroke-linejoin="round"/>
<path d="M266.311 503.309V280.546H283.127V503.309H266.311Z" fill="#1B1D20"/>
<path d="M266.311 503.309V280.546H283.127V503.309H266.311Z" stroke="#F0F5FC" stroke-width="2.4" stroke-linecap="round" stroke-linejoin="round"/>
<path d="M11.5094 502.909V280.946H27.5254V502.909H11.5094Z" fill="#1B1D20" stroke="#F0F5FC" stroke-width="0.8"/>
<path d="M11.1094 503.309V280.546H27.9254V503.309H11.1094Z" fill="#1B1D20" stroke="#F0F5FC" stroke-width="2.4" stroke-linecap="round" stroke-linejoin="round"/>
<path d="M147.102 323.813V283.534" stroke="#F0F5FC" stroke-width="2.4" stroke-linecap="round" stroke-linejoin="round"/>
<path d="M219.407 295.598V301.44H194.021V295.598H219.407Z" fill="#1B1D20" stroke="#F0F5FC" stroke-width="0.8"/>
<path d="M193.621 301.84H219.807V295.198H193.621V301.84Z" stroke="#F0F5FC" stroke-width="2.4" stroke-linecap="round" stroke-linejoin="round"/>
<path d="M100.207 295.598V301.44H74.8219V295.598H100.207Z" fill="#1B1D20" stroke="#F0F5FC" stroke-width="0.8"/>
<path d="M74.4219 301.84H100.607V295.198H74.4219V301.84Z" fill="#1B1D20" stroke="#F0F5FC" stroke-width="2.4" stroke-linecap="round" stroke-linejoin="round"/>
<path d="M322.84 104.702C321.15 108.397 329.145 114.791 330.719 131.546C331.261 135.948 333.135 113.769 331.091 108.798C329.229 104.15 324.406 101.278 322.84 104.702Z" fill="#1B1D20"/>
<path d="M322.84 104.702C321.15 108.397 329.145 114.791 330.719 131.546C331.261 135.948 333.135 113.769 331.091 108.798C329.229 104.15 324.406 101.278 322.84 104.702Z" stroke="#F0F5FC" stroke-width="2"/>
<path d="M335.778 170.7L349.806 140.13L355.263 138.106L385.833 152.133L387.858 157.59L373.83 188.16L368.373 190.184L337.803 176.157L335.778 170.7ZM378.659 157.898L355.571 147.304L344.977 170.392L368.065 180.986L378.659 157.898Z" fill="#F0F5FC"/>
<path d="M335.778 170.7L349.806 140.13L355.263 138.106L385.833 152.133L387.858 157.59L373.83 188.16L368.373 190.184L337.803 176.157L335.778 170.7ZM378.659 157.898L355.571 147.304L344.977 170.392L368.065 180.986L378.659 157.898Z" stroke="#202020" stroke-width="2.4" stroke-linecap="round" stroke-linejoin="round"/>
<path d="M319.683 112.159L297.076 161.43C292.957 170.408 296.93 181.123 305.908 185.242L327.743 195.262C336.721 199.381 347.437 195.406 351.556 186.429L374.164 137.157L319.683 112.159Z" fill="#1B1D20"/>
<path d="M319.683 112.159L297.076 161.43C292.957 170.408 296.93 181.123 305.908 185.242L327.743 195.262C336.721 199.381 347.437 195.406 351.556 186.429L374.164 137.157L319.683 112.159Z" stroke="#F0F5FC" stroke-width="2.4" stroke-linecap="round" stroke-linejoin="round"/>
<path d="M405.559 161.936C390.239 158.221 387.235 170.509 381.026 198.907C374.882 227.014 375.721 230.505 387.913 233.981C445.973 251.104 487.182 263.661 507.106 258.773C543.573 249.826 514.259 176.082 478.446 174.675C453.289 173.474 421.682 165.658 405.559 161.936Z" fill="#1B1D20"/>
<path d="M405.559 161.936C390.239 158.221 387.235 170.509 381.026 198.907C374.882 227.014 375.721 230.505 387.913 233.981C445.973 251.104 487.182 263.661 507.106 258.773C543.573 249.826 514.259 176.082 478.446 174.675C453.289 173.474 421.682 165.658 405.559 161.936Z" fill="#1B1D20" stroke="#F0F5FC" stroke-width="2.4" stroke-linecap="round" stroke-linejoin="round"/>
<path d="M510.759 257.573C520.476 253.531 527.13 247.165 534.7 238.056C549.499 220.247 561.65 196.413 566.729 177.483C574.47 145.654 516.544 127.257 501.249 145.33C485.602 161.331 470.447 181.685 470.447 181.685" fill="#1B1D20"/>
<path d="M510.759 257.573C520.476 253.531 527.13 247.165 534.7 238.056C549.499 220.247 561.65 196.413 566.729 177.483C574.47 145.654 516.544 127.257 501.249 145.33C485.602 161.331 470.447 181.685 470.447 181.685" stroke="#F0F5FC" stroke-width="2.4" stroke-linecap="round" stroke-linejoin="round"/>
<mask id="path-138-inside-4_524_10202" fill="white">
<path d="M406.011 161.679C393.706 158.737 374.953 155.482 369.644 154.818C353.79 152.833 346.973 165.53 344.854 178.959C341.655 199.234 336.912 223.319 352.524 225.3C361.159 226.527 374.978 230.968 385.604 233.411"/>
</mask>
<path d="M406.011 161.679C393.706 158.737 374.953 155.482 369.644 154.818C353.79 152.833 346.973 165.53 344.854 178.959C341.655 199.234 336.912 223.319 352.524 225.3C361.159 226.527 374.978 230.968 385.604 233.411" fill="#1B1D20"/>
<path d="M369.644 154.818L369.743 154.024L369.743 154.024L369.644 154.818ZM344.854 178.959L344.064 178.834L344.064 178.834L344.854 178.959ZM352.524 225.3L352.637 224.508L352.625 224.507L352.524 225.3ZM406.197 160.901C393.866 157.953 375.084 154.692 369.743 154.024L369.544 155.611C374.823 156.272 393.547 159.521 405.825 162.457L406.197 160.901ZM369.743 154.024C361.549 152.998 355.616 155.779 351.491 160.587C347.404 165.351 345.134 172.049 344.064 178.834L345.644 179.084C346.692 172.44 348.891 166.075 352.705 161.629C356.481 157.228 361.884 154.652 369.544 155.611L369.743 154.024ZM344.064 178.834C342.471 188.927 340.466 200.119 340.836 209.023C341.021 213.479 341.802 217.464 343.602 220.485C345.43 223.55 348.277 225.568 352.423 226.094L352.625 224.507C348.965 224.042 346.551 222.307 344.977 219.665C343.375 216.979 342.615 213.304 342.434 208.957C342.073 200.254 344.038 189.266 345.644 179.084L344.064 178.834ZM352.412 226.093C356.674 226.698 362.243 228.102 368.111 229.673C373.957 231.237 380.094 232.965 385.425 234.191L385.783 232.631C380.489 231.414 374.403 229.7 368.524 228.127C362.668 226.56 357.009 225.13 352.637 224.508L352.412 226.093Z" fill="#F0F5FC" mask="url(#path-138-inside-4_524_10202)"/>
<path d="M406.011 161.679C393.706 158.737 374.953 155.482 369.644 154.818C353.79 152.833 346.973 165.53 344.854 178.959C341.655 199.234 336.912 223.319 352.524 225.3C361.159 226.527 374.978 230.968 385.604 233.411" fill="#1B1D20"/>
<path d="M406.011 161.679C393.706 158.737 374.953 155.482 369.644 154.818C353.79 152.833 346.973 165.53 344.854 178.959C341.655 199.234 336.912 223.319 352.524 225.3C361.159 226.527 374.978 230.968 385.604 233.411" stroke="#F0F5FC" stroke-width="2.4" stroke-linecap="round" stroke-linejoin="round"/>
<mask id="path-142-inside-5_524_10202" fill="white">
<path d="M343.12 205.071C338.283 205.833 330.585 203.047 328.47 202.876C324.402 202.548 321.433 205.561 320.462 210.136C319.441 214.949 322.885 218.017 326.307 219.248C330.589 220.787 347.066 224.489 351.865 225.133"/>
</mask>
<path d="M343.12 205.071C338.283 205.833 330.585 203.047 328.47 202.876C324.402 202.548 321.433 205.561 320.462 210.136C319.441 214.949 322.885 218.017 326.307 219.248C330.589 220.787 347.066 224.489 351.865 225.133" fill="#1B1D20"/>
<path d="M328.47 202.876L328.535 202.079L328.535 202.079L328.47 202.876ZM320.462 210.136L321.245 210.302L321.245 210.302L320.462 210.136ZM326.307 219.248L326.037 220.001L326.037 220.001L326.307 219.248ZM342.996 204.281C340.743 204.636 337.742 204.165 334.949 203.542C333.565 203.234 332.269 202.898 331.165 202.622C330.095 202.355 329.144 202.128 328.535 202.079L328.406 203.674C328.854 203.71 329.658 203.895 330.778 204.174C331.863 204.445 333.191 204.79 334.6 205.104C337.394 205.727 340.661 206.268 343.245 205.861L342.996 204.281ZM328.535 202.079C326.269 201.896 324.29 202.65 322.758 204.084C321.239 205.505 320.19 207.562 319.68 209.97L321.245 210.302C321.704 208.135 322.625 206.399 323.851 205.252C325.064 204.117 326.603 203.528 328.406 203.674L328.535 202.079ZM319.68 209.97C319.118 212.617 319.788 214.823 321.082 216.52C322.359 218.194 324.219 219.347 326.037 220.001L326.578 218.495C324.973 217.918 323.4 216.921 322.354 215.55C321.327 214.202 320.785 212.468 321.245 210.302L319.68 209.97ZM326.037 220.001C328.231 220.79 333.471 222.11 338.714 223.306C343.966 224.504 349.318 225.599 351.759 225.926L351.971 224.34C349.613 224.024 344.327 222.945 339.07 221.746C333.805 220.545 328.665 219.245 326.578 218.495L326.037 220.001Z" fill="#F0F5FC" mask="url(#path-142-inside-5_524_10202)"/>
<path d="M343.12 205.071C338.283 205.833 330.585 203.047 328.47 202.876C324.402 202.548 321.433 205.561 320.462 210.136C319.441 214.949 322.885 218.017 326.307 219.248C330.589 220.787 347.066 224.489 351.865 225.133" stroke="#F0F5FC" stroke-width="2.4" stroke-linecap="round" stroke-linejoin="round"/>
<mask id="path-145-inside-6_524_10202" fill="white">
<path d="M350.579 187.811C347.919 187.212 321.039 180.226 321.039 180.226C317.714 179.646 314.736 181.356 313.45 186.382C312.359 190.65 314.532 193.781 317.579 195.255C319.743 196.301 340.959 204.317 343.262 204.651"/>
</mask>
<path d="M350.579 187.811C347.919 187.212 321.039 180.226 321.039 180.226C317.714 179.646 314.736 181.356 313.45 186.382C312.359 190.65 314.532 193.781 317.579 195.255C319.743 196.301 340.959 204.317 343.262 204.651" fill="#1B1D20"/>
<path d="M321.039 180.226L321.241 179.451L321.209 179.443L321.177 179.438L321.039 180.226ZM313.45 186.382L314.225 186.581L314.225 186.581L313.45 186.382ZM317.579 195.255L317.927 194.534L317.927 194.534L317.579 195.255ZM350.755 187.031C349.441 186.734 342.075 184.843 335.012 183.019C331.486 182.108 328.043 181.216 325.482 180.552C324.201 180.22 323.141 179.945 322.401 179.753C322.03 179.657 321.74 179.581 321.543 179.53C321.444 179.504 321.369 179.485 321.318 179.471C321.292 179.465 321.273 179.46 321.26 179.456C321.254 179.455 321.249 179.454 321.245 179.453C321.244 179.452 321.243 179.452 321.242 179.452C321.241 179.452 321.241 179.452 321.241 179.451C321.241 179.451 321.241 179.451 321.039 180.226C320.838 181 320.838 181 320.838 181C320.839 181 320.839 181 320.839 181C320.84 181 320.841 181.001 320.843 181.001C320.846 181.002 320.851 181.003 320.858 181.005C320.871 181.008 320.89 181.013 320.915 181.02C320.966 181.033 321.042 181.053 321.141 181.079C321.338 181.13 321.628 181.205 321.998 181.301C322.739 181.494 323.799 181.769 325.08 182.101C327.642 182.765 331.085 183.657 334.612 184.568C341.653 186.387 349.057 188.288 350.403 188.591L350.755 187.031ZM321.177 179.438C319.335 179.117 317.528 179.425 316.002 180.56C314.49 181.686 313.348 183.556 312.675 186.184L314.225 186.581C314.839 184.183 315.828 182.685 316.958 181.844C318.074 181.012 319.419 180.755 320.902 181.014L321.177 179.438ZM312.675 186.184C312.083 188.498 312.369 190.552 313.254 192.238C314.133 193.913 315.578 195.176 317.23 195.975L317.927 194.534C316.533 193.86 315.367 192.82 314.671 191.494C313.98 190.179 313.726 188.534 314.225 186.581L312.675 186.184ZM317.23 195.975C318.356 196.519 324.248 198.801 330.09 200.97C333.024 202.059 335.965 203.127 338.319 203.945C339.496 204.353 340.531 204.701 341.346 204.957C342.137 205.206 342.784 205.39 343.148 205.443L343.377 203.859C343.165 203.828 342.645 203.689 341.826 203.431C341.032 203.181 340.014 202.84 338.844 202.433C336.505 201.621 333.575 200.557 330.647 199.47C324.764 197.286 318.966 195.037 317.927 194.534L317.23 195.975Z" fill="#F0F5FC" mask="url(#path-145-inside-6_524_10202)"/>
<path d="M350.579 187.811C347.919 187.212 321.039 180.226 321.039 180.226C317.714 179.646 314.736 181.356 313.45 186.382C312.359 190.65 314.532 193.781 317.579 195.255C319.743 196.301 340.959 204.317 343.262 204.651" fill="#1B1D20"/>
<path d="M350.579 187.811C347.919 187.212 321.039 180.226 321.039 180.226C317.714 179.646 314.736 181.356 313.45 186.382C312.359 190.65 314.532 193.781 317.579 195.255C319.743 196.301 340.959 204.317 343.262 204.651" stroke="#F0F5FC" stroke-width="2.4" stroke-linecap="round" stroke-linejoin="round"/>
<path d="M355.829 171.168C355.829 171.168 328.315 162.828 325.022 161.853C319.694 160.276 314.975 162.638 313.681 167.472C312.473 171.984 313.493 177.119 317.508 178.736C317.508 178.736 347.487 187.149 350.578 187.81" fill="#1B1D20"/>
<path d="M355.829 171.168C355.829 171.168 328.315 162.828 325.022 161.853C319.694 160.276 314.975 162.638 313.681 167.472C312.473 171.984 313.493 177.119 317.508 178.736C317.508 178.736 347.487 187.149 350.578 187.81" fill="#1B1D20"/>
<path d="M355.829 171.168C355.829 171.168 328.315 162.828 325.022 161.853C319.694 160.276 314.975 162.638 313.681 167.472C312.473 171.984 313.493 177.119 317.508 178.736C317.508 178.736 347.487 187.149 350.578 187.81" stroke="#F0F5FC" stroke-width="2.4" stroke-linecap="round" stroke-linejoin="round"/>
<mask id="path-152-inside-7_524_10202" fill="white">
<path d="M369.644 154.818C362.098 154.294 337.183 146.791 337.183 146.791C332.579 145.948 327.642 147.605 326.026 152.558C324.611 156.898 325.678 160.594 327.126 162.136C331.668 164.408 355.83 171.169 355.83 171.169"/>
</mask>
<path d="M369.644 154.818C362.098 154.294 337.183 146.791 337.183 146.791C332.579 145.948 327.642 147.605 326.026 152.558C324.611 156.898 325.678 160.594 327.126 162.136C331.668 164.408 355.83 171.169 355.83 171.169" fill="#1B1D20"/>
<path d="M337.183 146.791L337.414 146.025L337.371 146.012L337.327 146.004L337.183 146.791ZM326.026 152.558L326.787 152.806L326.787 152.806L326.026 152.558ZM327.126 162.136L326.542 162.683L326.64 162.787L326.768 162.851L327.126 162.136ZM369.699 154.02C366.022 153.765 357.992 151.785 350.793 149.836C347.213 148.867 343.867 147.914 341.417 147.203C340.191 146.848 339.19 146.553 338.495 146.348C338.148 146.245 337.877 146.164 337.694 146.109C337.602 146.082 337.532 146.061 337.484 146.046C337.461 146.039 337.443 146.034 337.431 146.03C337.425 146.029 337.421 146.027 337.418 146.026C337.416 146.026 337.415 146.026 337.415 146.025C337.414 146.025 337.414 146.025 337.414 146.025C337.414 146.025 337.414 146.025 337.183 146.791C336.952 147.557 336.952 147.557 336.953 147.557C336.953 147.557 336.953 147.557 336.953 147.558C336.954 147.558 336.955 147.558 336.957 147.559C336.96 147.56 336.965 147.561 336.971 147.563C336.983 147.566 337.001 147.572 337.025 147.579C337.072 147.593 337.143 147.614 337.235 147.642C337.42 147.697 337.692 147.778 338.041 147.882C338.738 148.088 339.742 148.384 340.971 148.74C343.428 149.453 346.783 150.408 350.375 151.381C357.519 153.314 365.72 155.348 369.588 155.616L369.699 154.02ZM337.327 146.004C332.485 145.118 327.048 146.843 325.266 152.31L326.787 152.806C328.235 148.366 332.674 146.779 337.039 147.578L337.327 146.004ZM325.266 152.31C323.783 156.857 324.849 160.879 326.542 162.683L327.709 161.588C326.508 160.308 325.439 156.94 326.787 152.806L325.266 152.31ZM326.768 162.851C327.966 163.45 330.386 164.316 333.278 165.266C336.191 166.222 339.645 167.283 342.952 168.271C346.26 169.259 349.425 170.176 351.763 170.846C352.932 171.181 353.895 171.454 354.565 171.644C354.9 171.739 355.162 171.813 355.341 171.863C355.43 171.888 355.498 171.907 355.544 171.92C355.567 171.926 355.585 171.931 355.596 171.935C355.602 171.936 355.607 171.937 355.61 171.938C355.611 171.939 355.612 171.939 355.613 171.939C355.613 171.939 355.614 171.939 355.614 171.939C355.614 171.939 355.614 171.94 355.83 171.169C356.045 170.399 356.045 170.399 356.045 170.399C356.045 170.399 356.045 170.399 356.044 170.398C356.044 170.398 356.042 170.398 356.041 170.397C356.038 170.397 356.034 170.395 356.028 170.394C356.016 170.391 355.999 170.386 355.976 170.379C355.931 170.367 355.863 170.347 355.774 170.322C355.596 170.273 355.335 170.199 355 170.104C354.332 169.915 353.371 169.642 352.204 169.308C349.87 168.639 346.711 167.724 343.41 166.738C340.109 165.752 336.671 164.696 333.777 163.746C330.861 162.788 328.557 161.957 327.484 161.42L326.768 162.851Z" fill="#F0F5FC" mask="url(#path-152-inside-7_524_10202)"/>
<path d="M369.644 154.818C362.098 154.294 337.183 146.791 337.183 146.791C332.579 145.948 327.642 147.605 326.026 152.558C324.611 156.898 325.678 160.594 327.126 162.136C331.668 164.408 355.83 171.169 355.83 171.169" fill="#1B1D20"/>
<path d="M369.644 154.818C362.098 154.294 337.183 146.791 337.183 146.791C332.579 145.948 327.642 147.605 326.026 152.558C324.611 156.898 325.678 160.594 327.126 162.136C331.669 164.408 355.83 171.169 355.83 171.169" stroke="#F0F5FC" stroke-width="2.4" stroke-linecap="round" stroke-linejoin="round"/>
<path d="M523.96 89.8714C531.302 91.4413 538.579 93.7199 542.281 95.5841C574.591 111.856 571.797 185.046 571.797 185.046C571.623 181.653 561.307 177.643 534.703 177.121C493.437 176.311 482.532 162.675 482.532 162.675L495.886 142.254" fill="#1B1D20"/>
<path d="M523.96 89.8714C531.302 91.4413 538.579 93.7199 542.281 95.5841C574.591 111.856 571.797 185.046 571.797 185.046C571.623 181.653 561.307 177.643 534.703 177.121C493.437 176.311 482.532 162.675 482.532 162.675L495.886 142.254" stroke="#682EC6" stroke-width="2.4" stroke-linecap="round" stroke-linejoin="round"/>
<path d="M59.4002 312.347L59.4032 312.347C60.5602 312.503 61.3812 313.579 61.2253 314.736C61.2253 314.736 61.2253 314.736 61.2253 314.736L61.1725 315.126L61.1724 315.126C61.0164 316.283 59.9405 317.103 58.7841 316.948C58.7837 316.948 58.7832 316.948 58.7827 316.948L11.9059 310.268L11.903 310.268C10.7459 310.112 9.92491 309.036 10.0809 307.879C10.0809 307.879 10.0809 307.879 10.0809 307.879L10.1337 307.489L10.1337 307.489C10.2897 306.332 11.3658 305.512 12.5222 305.667C12.5226 305.667 12.523 305.667 12.5234 305.667L59.4002 312.347Z" fill="white" stroke="#F0F5FC" stroke-width="0.8"/>
<path d="M59.4567 311.951L12.5769 305.271C11.2011 305.085 9.92291 306.059 9.73728 307.435L9.68447 307.825C9.49884 309.201 10.4737 310.479 11.8495 310.664L58.7292 317.344C60.105 317.53 61.3832 316.555 61.5689 315.18L61.6217 314.79C61.8073 313.414 60.8325 312.136 59.4567 311.951Z" fill="#1B1D20" stroke="#F0F5FC" stroke-width="2.4" stroke-linecap="round" stroke-linejoin="round"/>
<path d="M576.46 71.8798L529.65 64.723C528.276 64.5234 526.988 65.4846 526.789 66.8584L526.732 67.2479C526.532 68.6217 527.494 69.9092 528.868 70.1088L575.677 77.2657C577.051 77.4653 578.339 76.5041 578.539 75.1302L578.595 74.7408C578.795 73.3669 577.833 72.0795 576.46 71.8798Z" fill="#1B1D20"/>
<path d="M576.46 71.8798L529.65 64.723C528.276 64.5234 526.988 65.4846 526.789 66.8584L526.732 67.2479C526.532 68.6217 527.494 69.9092 528.868 70.1088L575.677 77.2657C577.051 77.4653 578.339 76.5041 578.539 75.1302L578.595 74.7408C578.795 73.3669 577.833 72.0795 576.46 71.8798Z" stroke="#F0F5FC" stroke-width="2.4" stroke-linecap="round" stroke-linejoin="round"/>
<path d="M212.223 409.584L250.183 369.958L271.229 401.915L234.589 444.164L212.223 409.584Z" fill="#1B1D20"/>
<path d="M212.223 409.584L250.183 369.958L271.229 401.915L234.589 444.164L212.223 409.584Z" stroke="#F0F5FC" stroke-width="2.4" stroke-linecap="round" stroke-linejoin="round"/>
<path d="M187.566 408.586L207.507 379.475L250.619 415.763L232.582 445.755L187.566 408.586Z" fill="#1B1D20" stroke="#F0F5FC" stroke-width="0.8"/>
<path d="M207.427 378.884L251.138 415.676L232.685 446.359L187.029 408.662L207.427 378.884Z" fill="#1B1D20" stroke="#F0F5FC" stroke-width="2.4" stroke-linecap="round" stroke-linejoin="round"/>
<path d="M192.498 502.889H267.421L274.401 410.867H185.518L192.498 502.889Z" fill="#1B1D20"/>
<path d="M192.498 502.889H267.421L274.401 410.867H185.518L192.498 502.889Z" stroke="#F0F5FC" stroke-width="2.4" stroke-linecap="round" stroke-linejoin="round"/>
<path d="M209.962 502.889H249.957L253.683 410.867H206.236L209.962 502.889Z" stroke="#F0F5FC" stroke-width="2.4" stroke-linecap="round" stroke-linejoin="round"/>
<path d="M272.46 411.849H187.46C184.72 411.849 182.479 409.607 182.479 406.867C182.479 404.127 184.72 401.886 187.46 401.886H272.46C275.2 401.886 277.442 404.127 277.442 406.867C277.442 409.607 275.2 411.849 272.46 411.849Z" fill="#1B1D20"/>
<path d="M272.46 411.849H187.46C184.72 411.849 182.479 409.607 182.479 406.867C182.479 404.127 184.72 401.886 187.46 401.886H272.46C275.2 401.886 277.442 404.127 277.442 406.867C277.442 409.607 275.2 411.849 272.46 411.849Z" stroke="#F0F5FC" stroke-width="2.4" stroke-linecap="round" stroke-linejoin="round"/>
<path d="M229.961 502.889V412.649" stroke="#F0F5FC" stroke-width="2.4" stroke-linecap="round" stroke-linejoin="round"/>
<path d="M191.932 484.869H268.576" stroke="#F0F5FC" stroke-width="2.4" stroke-linecap="round" stroke-linejoin="round"/>
<path d="M190.297 464.904H268.542" stroke="#F0F5FC" stroke-width="2.4" stroke-linecap="round" stroke-linejoin="round"/>
<path d="M188.664 444.939H270.109" stroke="#F0F5FC" stroke-width="2.4" stroke-linecap="round" stroke-linejoin="round"/>
<path d="M187.029 424.974H272.474" stroke="#F0F5FC" stroke-width="2.4" stroke-linecap="round" stroke-linejoin="round"/>
<path d="M564.648 413.887L561.528 427.93L561.472 428.184L561.681 428.339L573.239 436.871L559.215 433.757L558.961 433.701L558.806 433.91L550.285 445.451L553.527 431.138L553.587 430.877L553.368 430.723L541.694 422.468L555.85 425.311L556.098 425.361L556.249 425.158L564.648 413.887Z" fill="#1B1D20" stroke="#F0F5FC" stroke-width="0.8"/>
<path d="M565.443 412.15L561.919 428.017L574.996 437.671L559.128 434.148L549.473 447.224L553.137 431.05L539.92 421.703L555.928 424.919L565.443 412.15Z" stroke="#F0F5FC" stroke-width="2.4" stroke-linecap="round" stroke-linejoin="round"/>
<path d="M371.311 398.449L336.588 409.484L361.973 435.879L331.676 415.405L327.061 451.783L324.006 415.216L292.866 434.183L319.352 409.06L285.137 396.334L321.219 401.572L309.693 366.736L328.202 398.391L348.045 367.677L335.041 401.912L371.311 398.449Z" fill="#1B1D20"/>
<path d="M371.311 398.449L336.588 409.484L361.973 435.879L331.676 415.405L327.061 451.783L324.006 415.216L292.866 434.183L319.352 409.06L285.137 396.334L321.219 401.572L309.693 366.736L328.202 398.391L348.045 367.677L335.041 401.912L371.311 398.449Z" fill="#1B1D20" stroke="#F0F5FC" stroke-width="2.4" stroke-linecap="round" stroke-linejoin="round"/>
<path d="M483.874 14.4603C486.035 14.4603 487.786 16.2116 487.786 18.3723C487.786 20.533 486.035 22.2843 483.874 22.2843C481.714 22.2843 479.963 20.533 479.963 18.3723C479.963 16.2116 481.714 14.4603 483.874 14.4603Z" fill="#1B1D20" stroke="#F0F5FC" stroke-width="0.8"/>
<path d="M488.186 18.3723C488.186 15.9907 486.256 14.0603 483.874 14.0603C481.493 14.0603 479.562 15.9907 479.562 18.3723C479.562 20.7539 481.493 22.6843 483.874 22.6843C486.256 22.6843 488.186 20.7539 488.186 18.3723Z" fill="#1B1D20" stroke="#F0F5FC" stroke-width="2.4" stroke-linecap="round" stroke-linejoin="round"/>
<path d="M113.507 51.6668C110.345 51.6668 107.781 49.1027 107.781 45.9404C107.781 42.7781 110.345 40.214 113.507 40.214C116.67 40.214 119.234 42.7781 119.234 45.9404C119.234 49.1027 116.67 51.6668 113.507 51.6668Z" fill="#1B1D20" stroke="#F0F5FC" stroke-width="0.8"/>
<path d="M107.381 45.9404C107.381 49.3236 110.124 52.0668 113.507 52.0668C116.89 52.0668 119.634 49.3236 119.634 45.9404C119.634 42.5572 116.89 39.814 113.507 39.814C110.124 39.814 107.381 42.5572 107.381 45.9404Z" fill="#1B1D20" stroke="#F0F5FC" stroke-width="2.4" stroke-linecap="round" stroke-linejoin="round"/>
<path d="M99.4677 423.911L35.9967 422.017C34.1352 421.975 32.5777 423.464 32.536 425.326L32.5243 425.852C32.4826 427.714 33.9724 429.271 35.8339 429.313L99.3049 431.207C101.166 431.249 102.724 429.759 102.766 427.898L102.777 427.371C102.819 425.51 101.329 423.953 99.4677 423.911Z" fill="#1B1D20"/>
<path d="M99.4677 423.911L35.9967 422.017C34.1352 421.975 32.5777 423.464 32.536 425.326L32.5243 425.852C32.4826 427.714 33.9724 429.271 35.8339 429.313L99.3049 431.207C101.166 431.249 102.724 429.759 102.766 427.898L102.777 427.371C102.819 425.51 101.329 423.953 99.4677 423.911Z" stroke="#F0F5FC" stroke-width="2.4" stroke-linecap="round" stroke-linejoin="round"/>
<path d="M62.5039 360.937C62.5039 364.32 65.2471 367.063 68.6303 367.063C72.0135 367.063 74.7567 364.32 74.7567 360.937C74.7567 357.554 72.0135 354.81 68.6303 354.81C65.2471 354.81 62.5039 357.554 62.5039 360.937Z" fill="#1B1D20"/>
<path d="M62.5039 360.937C62.5039 364.32 65.2471 367.063 68.6303 367.063C72.0135 367.063 74.7567 364.32 74.7567 360.937C74.7567 357.554 72.0135 354.81 68.6303 354.81C65.2471 354.81 62.5039 357.554 62.5039 360.937Z" fill="#1B1D20" stroke="#F0F5FC" stroke-width="2.4" stroke-linecap="round" stroke-linejoin="round"/>
</g>
<defs>
<clipPath id="clip0_524_10202">
<rect width="580" height="505" fill="white"/>
</clipPath>
</defs>
</svg>
