<svg width="751" height="678" viewBox="0 0 751 678" fill="none" xmlns="http://www.w3.org/2000/svg">
<g clip-path="url(#clip0_73_2)">
<mask id="mask0_73_2" style="mask-type:luminance" maskUnits="userSpaceOnUse" x="-116" y="-39" width="1015" height="761">
<path d="M899 -39H-116V722H899V-39Z" fill="white"/>
</mask>
<g mask="url(#mask0_73_2)">
<mask id="mask1_73_2" style="mask-type:luminance" maskUnits="userSpaceOnUse" x="-123" y="-61" width="1016" height="813">
<path d="M-122.344 -60.5616H892.656V751.172H-122.344V-60.5616Z" fill="white"/>
</mask>
<g mask="url(#mask1_73_2)">
<path d="M7.11095 558.297L82.6943 567.911C85.2997 568.242 87.7016 566.383 88.0329 563.778C88.3643 561.173 86.5033 558.772 83.8979 558.44L8.31458 548.827C5.70916 548.495 3.30731 550.355 2.97594 552.959C2.64457 555.564 4.50553 557.966 7.11095 558.297Z" fill="white"/>
<path d="M7.11095 558.297L82.6943 567.911C85.2997 568.242 87.7016 566.383 88.0329 563.778C88.3643 561.173 86.5033 558.772 83.8979 558.44L8.31458 548.827C5.70916 548.495 3.30731 550.355 2.97594 552.959C2.64457 555.564 4.50553 557.966 7.11095 558.297Z" stroke="#202020" stroke-width="2.4" stroke-linecap="round" stroke-linejoin="round"/>
<path d="M678.354 82.3834L723.858 43.3347C725.426 41.9891 725.609 39.6056 724.263 38.038C722.917 36.4705 720.531 36.288 718.963 37.6337L673.459 76.6824C671.891 78.028 671.709 80.4115 673.055 81.9791C674.4 83.5466 676.786 83.7291 678.354 82.3834Z" fill="white"/>
<path d="M678.354 82.3834L723.858 43.3347C725.426 41.9891 725.609 39.6056 724.263 38.038C722.917 36.4705 720.531 36.288 718.963 37.6337L673.459 76.6824C671.891 78.028 671.709 80.4115 673.055 81.9791C674.4 83.5466 676.786 83.7291 678.354 82.3834Z" stroke="#202020" stroke-width="2.4" stroke-linecap="round" stroke-linejoin="round"/>
<path d="M6.5166 473.23C6.5166 477.387 9.88742 480.757 14.0459 480.757C18.2043 480.757 21.5751 477.387 21.5751 473.23C21.5751 469.073 18.2043 465.703 14.0459 465.703C9.88742 465.703 6.5166 469.073 6.5166 473.23Z" fill="white"/>
<path d="M6.5166 473.23C6.5166 477.387 9.88742 480.757 14.0459 480.757C18.2043 480.757 21.5751 477.387 21.5751 473.23C21.5751 469.073 18.2043 465.703 14.0459 465.703C9.88742 465.703 6.5166 469.073 6.5166 473.23Z" stroke="#202020" stroke-width="2.4" stroke-linecap="round" stroke-linejoin="round"/>
<path d="M535.74 566.367C535.74 570.524 539.111 573.894 543.27 573.894C547.428 573.894 550.799 570.524 550.799 566.367C550.799 562.21 547.428 558.84 543.27 558.84C539.111 558.84 535.74 562.21 535.74 566.367Z" fill="white"/>
<path d="M535.74 566.367C535.74 570.524 539.111 573.894 543.27 573.894C547.428 573.894 550.799 570.524 550.799 566.367C550.799 562.21 547.428 558.84 543.27 558.84C539.111 558.84 535.74 562.21 535.74 566.367Z" stroke="#202020" stroke-width="2.4" stroke-linecap="round" stroke-linejoin="round"/>
<path d="M2.16895 341.844C2.16895 344.783 4.55217 347.166 7.49262 347.166C10.4331 347.166 12.8163 344.783 12.8163 341.844C12.8163 338.904 10.4331 336.522 7.49262 336.522C4.55217 336.522 2.16895 338.904 2.16895 341.844Z" fill="white"/>
<path d="M2.16895 341.844C2.16895 344.783 4.55217 347.166 7.49262 347.166C10.4331 347.166 12.8163 344.783 12.8163 341.844C12.8163 338.904 10.4331 336.522 7.49262 336.522C4.55217 336.522 2.16895 338.904 2.16895 341.844Z" stroke="#202020" stroke-width="2.4" stroke-linecap="round" stroke-linejoin="round"/>
<path d="M695.809 95.24C696.3 97.4185 698.466 98.7863 700.645 98.2952C702.825 97.8041 704.193 95.6388 703.702 93.4603C703.21 91.2818 701.044 89.914 698.865 90.4051C696.686 90.8962 695.318 93.0615 695.809 95.24Z" fill="white"/>
<path d="M695.809 95.24C696.3 97.4185 698.466 98.7863 700.645 98.2952C702.825 97.8041 704.193 95.6388 703.702 93.4603C703.21 91.2818 701.044 89.914 698.865 90.4051C696.686 90.8962 695.318 93.0615 695.809 95.24Z" stroke="#202020" stroke-width="2.4" stroke-linecap="round" stroke-linejoin="round"/>
<path d="M427.489 44.9018C427.98 47.0803 430.146 48.448 432.325 47.9569C434.504 47.4658 435.872 45.3005 435.381 43.122C434.89 40.9436 432.724 39.5758 430.545 40.0669C428.366 40.558 426.997 42.7233 427.489 44.9018Z" fill="white"/>
<path d="M427.489 44.9018C427.98 47.0803 430.146 48.448 432.325 47.9569C434.504 47.4658 435.872 45.3005 435.381 43.122C434.89 40.9436 432.724 39.5758 430.545 40.0669C428.366 40.558 426.997 42.7233 427.489 44.9018Z" stroke="#202020" stroke-width="2.4" stroke-linecap="round" stroke-linejoin="round"/>
<path d="M453.532 58.9118C454.023 61.0903 456.189 62.4581 458.368 61.967C460.547 61.4759 461.915 59.3106 461.424 57.1321C460.933 54.9536 458.767 53.5858 456.588 54.0769C454.409 54.568 453.04 56.7333 453.532 58.9118Z" fill="white"/>
<path d="M453.532 58.9118C454.023 61.0903 456.189 62.4581 458.368 61.967C460.547 61.4759 461.915 59.3106 461.424 57.1321C460.933 54.9536 458.767 53.5858 456.588 54.0769C454.409 54.568 453.04 56.7333 453.532 58.9118Z" stroke="#202020" stroke-width="2.4" stroke-linecap="round" stroke-linejoin="round"/>
<path d="M120.993 370.844C125.434 386.606 131.847 403.746 136.129 419.551C147.643 407.788 161.69 395.904 173.32 384.257C163.673 397.564 154.158 413.274 144.375 426.481C160.784 428.062 178.881 431.527 195.273 433.272C178.797 434.102 160.523 436.552 144.041 437.215C152.986 450.946 161.508 467.161 170.316 480.979C159.422 468.707 146.146 456.055 135.378 443.675C130.126 459.218 122.651 475.965 117.247 491.455C120.135 475.325 121.856 457.092 124.909 440.992C109.412 446.642 91.5755 451.315 76.0234 456.81C90.5203 448.964 105.943 438.887 120.519 431.189C106.449 422.691 91.6752 411.771 77.6911 403.133C92.8799 409.484 110.387 415.144 125.511 421.647C123.461 405.402 122.882 387.109 120.993 370.844Z" fill="white"/>
<path d="M120.993 370.844C125.434 386.606 131.847 403.746 136.129 419.551C147.643 407.788 161.69 395.904 173.32 384.257C163.673 397.564 154.158 413.274 144.375 426.481C160.784 428.062 178.881 431.527 195.273 433.272C178.797 434.102 160.523 436.552 144.041 437.215C152.986 450.946 161.508 467.161 170.316 480.979C159.422 468.707 146.146 456.055 135.378 443.675C130.126 459.218 122.651 475.965 117.247 491.455C120.135 475.325 121.856 457.092 124.909 440.992C109.412 446.642 91.5755 451.315 76.0234 456.81C90.5203 448.964 105.943 438.887 120.519 431.189C106.449 422.691 91.6752 411.771 77.6911 403.133C92.8799 409.484 110.387 415.144 125.511 421.647C123.461 405.402 122.882 387.109 120.993 370.844Z" stroke="#202020" stroke-width="2.26619" stroke-linecap="round" stroke-linejoin="round"/>
</g>
<path d="M250.976 93.9356L250.953 93.9342C250.413 83.9965 243.493 76.1516 233.763 75.6716C224.022 75.1915 216.161 82.112 214.722 91.9977L214.698 91.9964L208.488 125.507C205.054 143.146 254.456 142.501 253.575 127.917L250.976 93.9356Z" fill="white"/>
<path d="M250.976 93.9356L250.953 93.9342C250.413 83.9965 243.493 76.1516 233.763 75.6716C224.022 75.1915 216.161 82.112 214.722 91.9977L214.698 91.9964L208.488 125.507C205.054 143.146 254.456 142.501 253.575 127.917L250.976 93.9356Z" stroke="#202020" stroke-width="2.4" stroke-linecap="round" stroke-linejoin="round"/>
<mask id="mask2_73_2" style="mask-type:alpha" maskUnits="userSpaceOnUse" x="207" y="74" width="48" height="67">
<path d="M250.975 93.9356L250.952 93.9342C250.412 83.9965 243.492 76.1516 233.762 75.6716C224.021 75.1915 216.16 82.112 214.721 91.9977L214.697 91.9964L208.487 125.507C205.053 143.146 254.455 142.501 253.574 127.917L250.975 93.9356Z" fill="#F5B7A6"/>
<path d="M250.975 93.9356L250.952 93.9342C250.412 83.9965 243.492 76.1516 233.762 75.6716C224.021 75.1915 216.16 82.112 214.721 91.9977L214.697 91.9964L208.487 125.507C205.053 143.146 254.455 142.501 253.574 127.917L250.975 93.9356Z" stroke="#231F20" stroke-width="2.4" stroke-linecap="round" stroke-linejoin="round"/>
</mask>
<g mask="url(#mask2_73_2)">
<path d="M246.954 99.2223C246.954 99.2223 251.624 96.4204 254.617 100.494" stroke="#202020" stroke-width="2.4001" stroke-linecap="round" stroke-linejoin="round"/>
</g>
<path d="M238.775 99.1122C238.775 99.1122 234.182 96.1856 231.08 100.177" stroke="#202020" stroke-width="2.40003" stroke-linecap="round" stroke-linejoin="round"/>
<path d="M250.118 111.462C244.913 114.549 236.248 110.954 236.611 111.428C236.875 111.516 239.071 112.777 244.299 112.824C249.032 112.869 250.14 111.278 250.118 111.462Z" fill="white"/>
<path d="M250.118 111.462C244.913 114.549 236.248 110.954 236.611 111.428C236.875 111.516 239.071 112.777 244.299 112.824C249.032 112.869 250.14 111.278 250.118 111.462Z" stroke="#202020" stroke-width="2.40003" stroke-linecap="round" stroke-linejoin="round"/>
<path d="M221.867 92.9981C224.873 82.3622 232.745 87.4943 232.745 87.4943C237.117 91.0957 248.946 90.7851 250.11 88.9712C248.158 81.5381 241.852 76.1044 233.763 75.6718C224.024 75.151 216.095 82.1761 214.721 91.9978L214.698 91.9964L213.57 98.083C216.383 99.3336 219.481 101.442 221.867 92.9981Z" fill="#202020"/>
<path d="M221.867 92.9981C224.873 82.3622 232.745 87.4943 232.745 87.4943C237.117 91.0957 248.946 90.7851 250.11 88.9712C248.158 81.5381 241.852 76.1044 233.763 75.6718C224.024 75.151 216.095 82.1761 214.721 91.9978L214.698 91.9964L213.57 98.083C216.383 99.3336 219.481 101.442 221.867 92.9981Z" stroke="#202020" stroke-width="2.4" stroke-linecap="round" stroke-linejoin="round"/>
<mask id="mask3_73_2" style="mask-type:alpha" maskUnits="userSpaceOnUse" x="7" y="0" width="403" height="295">
<path d="M383.464 293.024H33.3666C19.6743 293.024 8.57422 281.927 8.57422 268.24V26.7367C8.57422 13.0489 19.6743 1.95245 33.3666 1.95245H383.464C397.157 1.95245 408.257 13.0489 408.257 26.7367V268.24C408.257 281.927 397.157 293.024 383.464 293.024Z" stroke="#231F20" stroke-width="2.4" stroke-linecap="round" stroke-linejoin="round"/>
<path d="M383.464 293.024H33.3666C19.6743 293.024 8.57422 281.927 8.57422 268.24V26.7367C8.57422 13.0489 19.6743 1.95245 33.3666 1.95245H383.464C397.157 1.95245 408.257 13.0489 408.257 26.7367V268.24C408.257 281.927 397.157 293.024 383.464 293.024Z" fill="white"/>
</mask>
<g mask="url(#mask3_73_2)">
<path d="M292.842 128.846C319.097 133.333 337.205 143.69 352.748 169.697L421.824 300.454C421.824 300.454 414.117 323.251 402.108 323.332C390.099 323.413 349.424 318.559 349.424 318.559L306.556 238.513C306.556 238.513 267.054 178.623 269.96 154.442C272.866 130.262 292.842 128.846 292.842 128.846Z" fill="#202020"/>
<path d="M292.842 128.846C319.097 133.333 337.205 143.69 352.748 169.697L421.824 300.454C421.824 300.454 414.117 323.251 402.108 323.332C390.099 323.413 349.424 318.559 349.424 318.559L306.556 238.513C306.556 238.513 267.054 178.623 269.96 154.442C272.866 130.262 292.842 128.846 292.842 128.846Z" stroke="#202020" stroke-width="2.4" stroke-linecap="round" stroke-linejoin="round"/>
</g>
<mask id="mask4_73_2" style="mask-type:alpha" maskUnits="userSpaceOnUse" x="7" y="0" width="403" height="295">
<path d="M383.464 293.024H33.3666C19.6743 293.024 8.57422 281.927 8.57422 268.24V26.7367C8.57422 13.0489 19.6743 1.95245 33.3666 1.95245H383.464C397.157 1.95245 408.257 13.0489 408.257 26.7367V268.24C408.257 281.927 397.157 293.024 383.464 293.024Z" stroke="#231F20" stroke-width="2.4" stroke-linecap="round" stroke-linejoin="round"/>
<path d="M383.464 293.024H33.3666C19.6743 293.024 8.57422 281.927 8.57422 268.24V26.7367C8.57422 13.0489 19.6743 1.95245 33.3666 1.95245H383.464C397.157 1.95245 408.257 13.0489 408.257 26.7367V268.24C408.257 281.927 397.157 293.024 383.464 293.024Z" fill="white"/>
</mask>
<g mask="url(#mask4_73_2)">
<path d="M159.297 125.458C109.94 126.155 86.0332 147.269 70.9455 179.447L70.9496 179.449C70.9496 179.449 50.5508 228.794 26.2051 303.72C26.2051 303.72 31.6685 308.307 40.6551 308.246C53.0357 308.162 137.111 307.594 137.111 307.594L149.464 230.545L159.297 125.458Z" fill="#202020"/>
<path d="M159.297 125.458C109.94 126.155 86.0332 147.269 70.9455 179.447L70.9496 179.449C70.9496 179.449 50.5508 228.794 26.2051 303.72C26.2051 303.72 31.6685 308.307 40.6551 308.246C53.0357 308.162 137.111 307.594 137.111 307.594L149.464 230.545L159.297 125.458Z" stroke="#202020" stroke-width="2.4" stroke-linecap="round" stroke-linejoin="round"/>
</g>
<mask id="mask5_73_2" style="mask-type:alpha" maskUnits="userSpaceOnUse" x="7" y="0" width="403" height="295">
<path d="M383.464 293.024H33.3666C19.6743 293.024 8.57422 281.927 8.57422 268.24V26.7367C8.57422 13.0489 19.6743 1.95245 33.3666 1.95245H383.464C397.157 1.95245 408.257 13.0489 408.257 26.7367V268.24C408.257 281.927 397.157 293.024 383.464 293.024Z" stroke="#231F20" stroke-width="2.4" stroke-linecap="round" stroke-linejoin="round"/>
<path d="M383.464 293.024H33.3666C19.6743 293.024 8.57422 281.927 8.57422 268.24V26.7367C8.57422 13.0489 19.6743 1.95245 33.3666 1.95245H383.464C397.157 1.95245 408.257 13.0489 408.257 26.7367V268.24C408.257 281.927 397.157 293.024 383.464 293.024Z" fill="white"/>
</mask>
<g mask="url(#mask5_73_2)">
<path d="M159.297 125.458C159.297 125.458 211.232 125.753 228.543 125.851C235.424 125.89 263.665 125.956 263.665 125.956C274.434 126.508 284.091 127.351 292.843 128.847C316.98 133.381 339.116 253.376 336.494 306.247L125.423 307.673C123.689 247.547 115.117 125.756 159.297 125.458Z" fill="#202020"/>
<path d="M159.297 125.458C159.297 125.458 211.232 125.753 228.543 125.851C235.424 125.89 263.665 125.956 263.665 125.956C274.434 126.508 284.091 127.351 292.843 128.847C316.98 133.381 339.116 253.376 336.494 306.247L125.423 307.673C123.689 247.547 115.117 125.756 159.297 125.458Z" stroke="#202020" stroke-width="2.4" stroke-linecap="round" stroke-linejoin="round"/>
<path d="M263.665 125.956L200.199 126.626L247.55 211.029L263.665 125.956Z" fill="white"/>
<path d="M263.665 125.956L200.199 126.626L247.55 211.029L263.665 125.956Z" stroke="#202020" stroke-width="2.4" stroke-linecap="round" stroke-linejoin="round"/>
<path d="M249.513 303.786L246.17 204.505" stroke="white" stroke-width="2.4" stroke-linecap="round" stroke-linejoin="round"/>
<path d="M246.17 204.505L200.69 187.001L207.138 161.326L180.702 152.84L187.204 126.626" stroke="white" stroke-width="2.4" stroke-linecap="round" stroke-linejoin="round"/>
<path d="M246.17 204.505L281.494 180.939L269.606 161.431L289.155 147.931L277.274 128.179" stroke="white" stroke-width="2.4" stroke-linecap="round" stroke-linejoin="round"/>
</g>
<path d="M148.081 235.193L138.687 290.595" stroke="white" stroke-width="2.4" stroke-linecap="round" stroke-linejoin="round"/>
<path d="M333.075 289.283L317.828 258.837" stroke="white" stroke-width="2.4" stroke-linecap="round" stroke-linejoin="round"/>
<path d="M408.257 26.7367C408.257 13.0489 397.158 1.95245 383.465 1.95245H33.3666C19.6743 1.95245 8.57422 13.0489 8.57422 26.7367V47.5211H408.257V26.7367Z" fill="white"/>
<path d="M408.257 26.7367C408.257 13.0489 397.158 1.95245 383.465 1.95245H33.3666C19.6743 1.95245 8.57422 13.0489 8.57422 26.7367V47.5211H408.257V26.7367Z" stroke="#202020" stroke-width="2.4" stroke-linecap="round" stroke-linejoin="round"/>
<path d="M383.464 293.024H33.3666C19.6743 293.024 8.57422 281.927 8.57422 268.24V26.7367C8.57422 13.0489 19.6743 1.95245 33.3666 1.95245H383.464C397.157 1.95245 408.257 13.0489 408.257 26.7367V268.24C408.257 281.927 397.157 293.024 383.464 293.024Z" stroke="#202020" stroke-width="2.4" stroke-linecap="round" stroke-linejoin="round"/>
<path d="M85.5333 23.7779C85.5333 19.4432 82.0188 15.9299 77.6827 15.9299C73.3465 15.9299 69.832 19.4432 69.832 23.7779C69.832 28.1127 73.3465 31.626 77.6827 31.626C82.0188 31.626 85.5333 28.1127 85.5333 23.7779Z" fill="white"/>
<path d="M85.5333 23.7779C85.5333 19.4432 82.0188 15.9299 77.6827 15.9299C73.3465 15.9299 69.832 19.4432 69.832 23.7779C69.832 28.1127 73.3465 31.626 77.6827 31.626C82.0188 31.626 85.5333 28.1127 85.5333 23.7779Z" stroke="#202020" stroke-width="2.29117" stroke-linecap="round" stroke-linejoin="round"/>
<path d="M56.8963 23.7779C56.8963 19.2373 53.2149 15.5571 48.6727 15.5571C44.1306 15.5571 40.4492 19.2373 40.4492 23.7779C40.4492 28.3186 44.1306 31.9988 48.6727 31.9988C53.2149 31.9988 56.8963 28.3186 56.8963 23.7779Z" fill="white"/>
<path d="M56.8963 23.7779C56.8963 19.2373 53.2149 15.5571 48.6727 15.5571C44.1306 15.5571 40.4492 19.2373 40.4492 23.7779C40.4492 28.3186 44.1306 31.9988 48.6727 31.9988C53.2149 31.9988 56.8963 28.3186 56.8963 23.7779Z" stroke="#202020" stroke-width="2.4" stroke-linecap="round" stroke-linejoin="round"/>
<path d="M722.009 668.077C593.154 655.407 446.556 654.832 317.702 667.503C446.557 680.173 593.155 680.748 722.009 668.077Z" fill="#202020"/>
<path d="M469.257 268.111C462.182 291.864 449.74 309.297 442.835 307.242C435.93 305.187 437.18 284.422 444.254 260.67C451.329 236.917 462.66 219.329 469.565 221.384C476.47 223.438 476.331 244.359 469.257 268.111Z" fill="#202020"/>
<path d="M469.257 268.111C462.182 291.864 449.74 309.297 442.835 307.242C435.93 305.187 437.18 284.422 444.254 260.67C451.329 236.917 462.66 219.329 469.565 221.384C476.47 223.438 476.331 244.359 469.257 268.111Z" stroke="#202020" stroke-width="2.39998" stroke-linecap="round" stroke-linejoin="round"/>
<path d="M471.928 212.786C458.219 211.352 443.884 209.309 441.918 194.615C440.571 184.549 422.245 183.383 420.708 197.188C419.339 209.467 419.436 221.064 419.436 221.064C419.436 221.064 422.164 240.983 436.952 245.836" fill="white"/>
<path d="M471.928 212.786C458.219 211.352 443.884 209.309 441.918 194.615C440.571 184.549 422.245 183.383 420.708 197.188C419.339 209.467 419.436 221.064 419.436 221.064C419.436 221.064 422.164 240.983 436.952 245.836" stroke="#202020" stroke-width="2.39998" stroke-linecap="round" stroke-linejoin="round"/>
<path d="M604.445 281.203C595.536 313.568 550.358 314.092 524.404 280.291C508.716 259.861 472.16 214.635 478.785 181.758C484.193 154.922 494.254 142.287 534.461 147.698C555.583 150.541 558.262 159.868 576.79 195.95C593.549 228.587 609.765 261.876 604.445 281.203Z" fill="white"/>
<path d="M604.445 281.203C595.536 313.568 550.358 314.092 524.404 280.291C508.716 259.861 472.16 214.635 478.785 181.758C484.193 154.922 494.254 142.287 534.461 147.698C555.583 150.541 558.262 159.868 576.79 195.95C593.549 228.587 609.765 261.876 604.445 281.203Z" stroke="#202020" stroke-width="2.4" stroke-linecap="round" stroke-linejoin="round"/>
<path d="M527.26 237.637C509.668 226.14 477.899 213.525 470.64 212.579C470.64 212.579 472.901 302.886 442.656 307.72C442.656 307.72 451.727 308.1 477.146 316.571C502.564 325.042 559.965 353.955 580.151 355.467C606.318 357.426 616.795 335.06 616.795 335.06" fill="white"/>
<path d="M527.26 237.637C509.668 226.14 477.899 213.525 470.64 212.579C470.64 212.579 472.901 302.886 442.656 307.72C442.656 307.72 451.727 308.1 477.146 316.571C502.564 325.042 559.965 353.955 580.151 355.467C606.318 357.426 616.795 335.06 616.795 335.06" stroke="#202020" stroke-width="2.39998" stroke-linecap="round" stroke-linejoin="round"/>
<path d="M470.639 212.585L483.816 216.555C483.816 216.555 486.919 296.201 461.088 311.57L442.655 307.723C462.488 305.616 470.512 262.41 470.639 212.585Z" fill="white"/>
<path d="M470.639 212.585L483.816 216.555C483.816 216.555 486.919 296.201 461.088 311.57L442.655 307.723C462.488 305.616 470.512 262.41 470.639 212.585Z" stroke="#202020" stroke-width="2.39998" stroke-linecap="round" stroke-linejoin="round"/>
<path d="M496.058 210.75C496.058 210.75 463.669 337.666 469.09 343.612C474.512 349.558 517.934 347.362 547.31 348.014C589.162 348.942 676.497 330.318 676.497 330.318C685.833 277.665 652.266 139.75 621.423 142.473C608.686 142.403 598.099 143.896 592.628 144.858C589.342 145.436 586.041 145.868 582.715 146.129C571.343 147.023 546.3 148.084 532.591 148.315C520.7 148.515 518.346 145.559 508.83 147.27" fill="white"/>
<path d="M496.058 210.75C496.058 210.75 463.669 337.666 469.09 343.612C474.512 349.558 517.934 347.362 547.31 348.014C589.162 348.942 676.497 330.318 676.497 330.318C685.833 277.665 652.266 139.75 621.423 142.473C608.686 142.403 598.099 143.896 592.628 144.858C589.342 145.436 586.041 145.868 582.715 146.129C571.343 147.023 546.3 148.084 532.591 148.315C520.7 148.515 518.346 145.559 508.83 147.27" stroke="#202020" stroke-width="2.4" stroke-linecap="round" stroke-linejoin="round"/>
<path d="M491.222 310.097L338.063 327.133C310.762 331.693 292.701 346.768 284.623 361.59C260.429 416.642 349.904 448.467 395.092 436.588C421.49 431.257 611.539 409.566 611.539 409.566C629.232 407.306 644.56 329.453 644.56 329.453C644.56 329.453 596.921 342.634 557.744 335.756C518.568 328.879 491.222 310.097 491.222 310.097Z" fill="#682EC6"/>
<path d="M491.222 310.097L338.063 327.133C310.762 331.693 292.701 346.768 284.623 361.59C260.429 416.642 349.904 448.467 395.092 436.588C421.49 431.257 611.539 409.566 611.539 409.566C629.232 407.306 644.56 329.453 644.56 329.453C644.56 329.453 596.921 342.634 557.744 335.756C518.568 328.879 491.222 310.097 491.222 310.097Z" fill="#682EC6" stroke="#202020" stroke-width="2.4" stroke-linecap="round" stroke-linejoin="round"/>
<path d="M388.279 432.469C383.548 441.074 323.914 582.878 323.914 582.878L202.621 559.751L269.819 391.396C273.153 382.973 284.449 355 298.682 344.773" fill="#682EC6"/>
<path d="M388.279 432.469C383.548 441.074 323.914 582.878 323.914 582.878L202.621 559.751L269.819 391.396C273.153 382.973 284.449 355 298.682 344.773" fill="#682EC6"/>
<path d="M388.279 432.469C383.548 441.074 323.914 582.878 323.914 582.878L202.621 559.751L269.819 391.396C273.153 382.973 284.449 355 298.682 344.773" stroke="#202020" stroke-width="2.4" stroke-linecap="round" stroke-linejoin="round"/>
<path d="M185.214 588.793C185.214 588.793 195.873 574.237 203.171 558.49C209.718 544.364 323.928 582.868 323.928 582.868L316.585 607.14C307.056 645.66 163.002 620.543 185.214 588.793Z" fill="white"/>
<path d="M185.214 588.793C185.214 588.793 195.873 574.237 203.171 558.49C209.718 544.364 323.928 582.868 323.928 582.868L316.585 607.14C307.056 645.66 163.002 620.543 185.214 588.793Z" stroke="#202020" stroke-width="2.4" stroke-linecap="round" stroke-linejoin="round"/>
<path d="M181.524 596.431C181.524 596.431 174.523 554.637 157.088 569.588C140.03 584.216 181.524 596.431 181.524 596.431Z" stroke="#202020" stroke-width="2.4" stroke-linecap="round" stroke-linejoin="round"/>
<path d="M292.278 665.785C303.194 665.513 308.03 652.576 308.03 652.576L317.911 603.335C245.089 620.786 196.788 596.771 187.258 585.947C187.258 585.947 168.452 604.549 141.847 619.445C127.017 627.747 115.455 626.598 112.324 640.699C106.995 664.707 139 666.441 139 666.441C139 666.441 277.615 666.151 292.278 665.785Z" fill="#682EC6"/>
<path d="M292.278 665.785C303.194 665.513 308.03 652.576 308.03 652.576L317.911 603.335C245.089 620.786 196.788 596.771 187.258 585.947C187.258 585.947 168.452 604.549 141.847 619.445C127.017 627.747 115.455 626.598 112.324 640.699C106.995 664.707 139 666.441 139 666.441C139 666.441 277.615 666.151 292.278 665.785Z" fill="#682EC6" stroke="#202020" stroke-width="2.4" stroke-linecap="round" stroke-linejoin="round"/>
<path d="M173.272 598.164L182.828 607.881Z" fill="#682EC6"/>
<path d="M173.272 598.164L182.828 607.881" stroke="#202020" stroke-width="2.4" stroke-linecap="round" stroke-linejoin="round"/>
<path d="M160.338 607.525L169.293 618.086Z" fill="#682EC6"/>
<path d="M160.338 607.525L169.293 618.086" stroke="#202020" stroke-width="2.4" stroke-linecap="round" stroke-linejoin="round"/>
<path d="M145.861 616.887L155.571 626.759Z" fill="#682EC6"/>
<path d="M145.861 616.887L155.571 626.759" stroke="#202020" stroke-width="2.4" stroke-linecap="round" stroke-linejoin="round"/>
<path d="M234.39 585.206C234.39 585.206 254.695 565.828 264.741 539.295C273.918 515.052 409.901 547.824 386.587 582.431C386.587 582.431 384.147 586.5 372.99 609.767C362.543 631.553 213.674 603.662 234.39 585.206Z" fill="white"/>
<path d="M234.39 585.206C234.39 585.206 254.695 565.828 264.741 539.295C273.918 515.052 409.901 547.824 386.587 582.431C386.587 582.431 384.147 586.5 372.99 609.767C362.543 631.553 213.674 603.662 234.39 585.206Z" stroke="#202020" stroke-width="2.4" stroke-linecap="round" stroke-linejoin="round"/>
<path d="M234.391 585.207C234.391 585.207 236.042 589.326 244.586 594.114C259.41 602.422 290.939 612.71 374.643 607.023L349.716 655.401C349.716 655.401 343.194 665.984 335.408 666.313C324.613 666.77 183.462 666.313 183.462 666.313C183.462 666.313 152.971 667.333 158.817 643.446C160.659 635.921 167.239 632.328 182.548 624.948C204.723 614.259 234.391 585.207 234.391 585.207Z" fill="#682EC6"/>
<path d="M234.391 585.207C234.391 585.207 236.042 589.326 244.586 594.114C259.41 602.422 290.939 612.71 374.643 607.023L349.716 655.401C349.716 655.401 343.194 665.984 335.408 666.313C324.613 666.77 183.462 666.313 183.462 666.313C183.462 666.313 152.971 667.333 158.817 643.446C160.659 635.921 167.239 632.328 182.548 624.948C204.723 614.259 234.391 585.207 234.391 585.207Z" fill="#682EC6" stroke="#202020" stroke-width="2.4" stroke-linecap="round" stroke-linejoin="round"/>
<path d="M224.239 595.9L233.949 605.772Z" fill="#682EC6"/>
<path d="M224.239 595.9L233.949 605.772" stroke="#202020" stroke-width="2.4" stroke-linecap="round" stroke-linejoin="round"/>
<path d="M214.572 605.563L224.282 615.436Z" fill="#682EC6"/>
<path d="M214.572 605.563L224.282 615.436" stroke="#202020" stroke-width="2.4" stroke-linecap="round" stroke-linejoin="round"/>
<path d="M201.657 613.905L211.367 623.778Z" fill="#682EC6"/>
<path d="M201.657 613.905L211.367 623.778" stroke="#202020" stroke-width="2.4" stroke-linecap="round" stroke-linejoin="round"/>
<path d="M234.455 585.726C234.455 585.726 215.085 540.604 199.572 562.222C184.394 583.373 234.455 585.726 234.455 585.726Z" stroke="#202020" stroke-width="2.4" stroke-linecap="round" stroke-linejoin="round"/>
<path d="M395.556 328.101C453.126 307.464 703.491 332.708 703.491 332.708C707.663 439.582 662.75 435.727 645.521 439.419C627.802 443.217 485.947 440.704 458.807 438.164C392.03 434.368 345.948 345.885 395.556 328.101Z" fill="#682EC6"/>
<path d="M395.556 328.101C453.126 307.464 703.491 332.708 703.491 332.708C707.663 439.582 662.75 435.727 645.521 439.419C627.802 443.217 485.947 440.704 458.807 438.164C392.03 434.368 345.948 345.885 395.556 328.101Z" fill="#682EC6" stroke="#202020" stroke-width="2.4" stroke-linecap="round" stroke-linejoin="round"/>
<path d="M466.45 425.063C462.547 436.271 457.469 447.483 451.892 458.118C429.246 501.3 386.113 583.571 386.113 583.571L257.511 554.387C257.511 554.387 313.742 425.967 349.173 369.831C360.01 352.66 372.685 338.823 387.805 331.747" fill="#682EC6"/>
<path d="M466.45 425.063C462.547 436.271 457.469 447.483 451.892 458.118C429.246 501.3 386.113 583.571 386.113 583.571L257.511 554.387C257.511 554.387 313.742 425.967 349.173 369.831C360.01 352.66 372.685 338.823 387.805 331.747" stroke="#202020" stroke-width="2.4" stroke-linecap="round" stroke-linejoin="round"/>
<path d="M471.926 212.783C471.926 212.783 446.505 211.27 417.405 224.608C406.311 229.694 410.554 295.36 418.765 297.312C432.702 300.625 462.172 301.72 485.892 300.649C513.503 300.449 514.732 219.769 471.926 212.783Z" fill="white"/>
<path d="M471.926 212.783C471.926 212.783 446.505 211.27 417.405 224.608C406.311 229.694 410.554 295.36 418.765 297.312C432.702 300.625 462.172 301.72 485.892 300.649C513.503 300.449 514.732 219.769 471.926 212.783Z" stroke="#202020" stroke-width="2.39998" stroke-linecap="round" stroke-linejoin="round"/>
<path d="M560.342 358.819C560.342 358.819 682.23 405.525 720.69 361.9C720.69 361.9 729.927 350.144 724.47 340.424C717.849 324.809 665.26 354.899 560.342 358.819Z" fill="#202020"/>
<path d="M534.586 148.371C530.886 148.198 522.126 147.731 517.439 148.025L523.204 243.347L621.427 142.475L605.527 143.164C598.407 143.892 564.689 148.599 534.586 148.371Z" fill="white"/>
<path d="M534.586 148.371C530.886 148.198 522.126 147.731 517.439 148.025L523.204 243.347L621.427 142.475L605.527 143.164C598.407 143.892 564.689 148.599 534.586 148.371Z" stroke="#202020" stroke-width="2.4" stroke-linecap="round" stroke-linejoin="round"/>
<path d="M526.009 149.856L530.744 217.726L605.527 143.166C584.895 146.563 546.996 150.175 526.009 149.856Z" fill="#202020"/>
<path d="M526.009 149.856L530.744 217.726L605.527 143.166C584.895 146.563 546.996 150.175 526.009 149.856Z" stroke="#202020" stroke-width="2.4" stroke-linecap="round" stroke-linejoin="round"/>
<path d="M569.042 118.911L569.019 118.914C566.939 109.492 557.813 103.265 548.202 104.917C538.592 106.569 532.074 115.485 533.264 125.06L533.241 125.064L535.108 154.8C534.718 168.647 581.603 154.055 578.016 142.593L569.042 118.911Z" fill="white"/>
<path d="M569.042 118.911L569.019 118.914C566.939 109.492 557.813 103.265 548.202 104.917C538.592 106.569 532.074 115.485 533.264 125.06L533.241 125.064L535.108 154.8C534.718 168.647 581.603 154.055 578.016 142.593L569.042 118.911Z" stroke="#202020" stroke-width="2.4" stroke-linecap="round" stroke-linejoin="round"/>
<mask id="mask6_73_2" style="mask-type:alpha" maskUnits="userSpaceOnUse" x="531" y="103" width="49" height="59">
<path d="M569.042 118.911L569.019 118.914C566.939 109.492 557.813 103.265 548.202 104.917C538.592 106.569 532.074 115.485 533.264 125.06L533.241 125.064L535.108 154.8C534.718 168.647 581.603 154.055 578.016 142.593L569.042 118.911Z" fill="#F5B7A6"/>
<path d="M569.042 118.911L569.019 118.914C566.939 109.492 557.813 103.265 548.202 104.917C538.592 106.569 532.074 115.485 533.264 125.06L533.241 125.064L535.108 154.8C534.718 168.647 581.603 154.055 578.016 142.593L569.042 118.911Z" stroke="#231F20" stroke-width="2.4" stroke-linecap="round" stroke-linejoin="round"/>
</mask>
<g mask="url(#mask6_73_2)">
<path d="M533.844 131.177C533.844 131.177 537.429 126.947 542.635 129.398" stroke="#202020" stroke-width="2.39997" stroke-linecap="round" stroke-linejoin="round"/>
</g>
<path d="M570.034 121.611C570.034 121.611 563.76 91.9061 538.135 98.1082C531.762 99.6502 527.261 105.082 526.049 110.985C526.049 110.985 535.613 118.312 556.93 111.029C556.93 111.029 562.39 127.265 570.034 121.611Z" fill="#682EC6"/>
<path d="M570.034 121.611C570.034 121.611 563.76 91.9061 538.135 98.1082C531.762 99.6502 527.261 105.082 526.049 110.985C526.049 110.985 535.613 118.312 556.93 111.029C556.93 111.029 562.39 127.265 570.034 121.611Z" stroke="#202020" stroke-width="2.4" stroke-linecap="round" stroke-linejoin="round"/>
<path d="M549.479 127.625C549.479 127.625 553.745 124.081 558.445 127.399" stroke="#202020" stroke-width="2.39997" stroke-linecap="round" stroke-linejoin="round"/>
<path d="M555.77 136.505C555.116 142.653 546.785 143.816 543.761 139.022C542.858 137.59 544.315 137.165 549.055 135.852C553.691 134.567 555.975 134.579 555.77 136.505Z" fill="white"/>
<path d="M555.77 136.505C555.116 142.653 546.785 143.816 543.761 139.022C542.858 137.59 544.315 137.165 549.055 135.852C553.691 134.567 555.975 134.579 555.77 136.505Z" stroke="#202020" stroke-width="2.39997" stroke-linecap="round" stroke-linejoin="round"/>
<path d="M529.864 135.449L545.757 319.258L432.66 311.637L403.531 134.804L529.864 135.449Z" fill="white"/>
<path d="M529.864 135.449L545.757 319.258L432.66 311.637L403.531 134.804L529.864 135.449Z" stroke="#202020" stroke-width="2.39998" stroke-linecap="round" stroke-linejoin="round"/>
<path d="M436.664 123.09L488.766 124.3L492.497 142.376L437.993 141.34L436.664 123.09Z" fill="#202020"/>
<path d="M436.664 123.09L488.766 124.3L492.497 142.376L437.993 141.34L436.664 123.09Z" stroke="#202020" stroke-width="2.39998" stroke-linecap="round" stroke-linejoin="round"/>
<path d="M455.097 125.389L454.359 117.952L466.749 118.24L468.106 125.803L455.097 125.389Z" fill="white"/>
<path d="M455.097 125.389L454.359 117.952L466.749 118.24L468.106 125.803L455.097 125.389Z" stroke="#202020" stroke-width="2.39998" stroke-linecap="round" stroke-linejoin="round"/>
<path d="M426.631 233.051L408.856 231.957C403.317 231.774 398.963 227.621 399.117 221.557C399.271 215.492 404.035 209.946 409.575 210.128L427.35 211.222C432.889 211.405 437.256 216.154 437.033 223.315C436.811 230.477 432.17 233.233 426.631 233.051Z" fill="white"/>
<path d="M426.631 233.051L408.856 231.957C403.317 231.774 398.963 227.621 399.117 221.557C399.271 215.492 404.035 209.946 409.575 210.128L427.35 211.222C432.889 211.405 437.256 216.154 437.033 223.315C436.811 230.477 432.17 233.233 426.631 233.051Z" stroke="#202020" stroke-width="2.39998" stroke-linecap="round" stroke-linejoin="round"/>
<path d="M428.889 251.408L411.149 252.651C405.618 252.999 400.178 246.772 400.354 241.539C400.529 236.306 404.245 231.201 409.777 230.853L427.516 229.61C433.047 229.262 438.634 232.491 438.989 240.744C439.343 248.997 434.42 251.06 428.889 251.408Z" fill="white"/>
<path d="M428.889 251.408L411.149 252.651C405.618 252.999 400.178 246.772 400.354 241.539C400.529 236.306 404.245 231.201 409.777 230.853L427.516 229.61C433.047 229.262 438.634 232.491 438.989 240.744C439.343 248.997 434.42 251.06 428.889 251.408Z" stroke="#202020" stroke-width="2.39998" stroke-linecap="round" stroke-linejoin="round"/>
<path d="M432.911 271.007L415.171 272.249C409.64 272.597 404.598 269.526 404.482 262.828C404.365 256.129 408.267 250.8 413.798 250.451L431.537 249.209C437.068 248.861 441.759 250.709 442.209 258.963C442.66 267.218 438.442 270.659 432.911 271.007Z" fill="white"/>
<path d="M432.911 271.007L415.171 272.249C409.64 272.597 404.598 269.526 404.482 262.828C404.365 256.129 408.267 250.8 413.798 250.451L431.537 249.209C437.068 248.861 441.759 250.709 442.209 258.963C442.66 267.218 438.442 270.659 432.911 271.007Z" stroke="#202020" stroke-width="2.39998" stroke-linecap="round" stroke-linejoin="round"/>
<path d="M419.06 297.459C408.728 295.97 407.171 286.502 407.252 281.69C407.333 276.878 411.471 270.482 417.467 270.105L433.516 268.969C439.512 268.593 442.749 273.363 441.847 280.429C440.936 287.567 432.274 288.464 421.866 289.188" fill="white"/>
<path d="M419.06 297.459C408.728 295.97 407.171 286.502 407.252 281.69C407.333 276.878 411.471 270.482 417.467 270.105L433.516 268.969C439.512 268.593 442.749 273.363 441.847 280.429C440.936 287.567 432.274 288.464 421.866 289.188" stroke="#202020" stroke-width="2.39998" stroke-linecap="round" stroke-linejoin="round"/>
<path d="M559.786 304.511C551.166 331.864 536.075 351.485 526.081 348.336C516.087 345.188 514.974 320.462 523.594 293.109C532.214 265.756 549.405 242.883 559.399 246.032C569.394 249.18 568.407 277.158 559.786 304.511Z" fill="#202020"/>
<path d="M559.786 304.511C551.166 331.864 536.075 351.485 526.081 348.336C516.087 345.188 514.974 320.462 523.594 293.109C532.214 265.756 549.405 242.883 559.399 246.032C569.394 249.18 568.407 277.158 559.786 304.511Z" stroke="#202020" stroke-width="2.39998" stroke-linecap="round" stroke-linejoin="round"/>
<path d="M521.338 228.92C532.941 233.231 545.706 238.692 557.787 243.48C599.757 250.292 570.133 356.215 540.351 342.574C540.351 342.574 509.7 325.659 485.933 313.194C468.801 304.431 499.97 221.48 521.338 228.92Z" fill="white"/>
<path d="M521.338 228.92C532.941 233.231 545.706 238.692 557.787 243.48C599.757 250.292 570.133 356.215 540.351 342.574C540.351 342.574 509.7 325.659 485.933 313.194C468.801 304.431 499.97 221.48 521.338 228.92Z" stroke="#202020" stroke-width="2.39998" stroke-linecap="round" stroke-linejoin="round"/>
<path d="M485.93 313.197C478.68 309.394 472.069 306.006 467.165 303.638C447.084 293.941 459.261 281.813 466.322 283.063L485.401 292.078" fill="white"/>
<path d="M485.93 313.197C478.68 309.394 472.069 306.006 467.165 303.638C447.084 293.941 459.261 281.813 466.322 283.063L485.401 292.078" stroke="#202020" stroke-width="2.39998" stroke-linecap="round" stroke-linejoin="round"/>
<path d="M508.498 251.964L492.886 244.56C492.886 244.56 473.317 238.458 482.24 224.811C483.632 222.682 486.083 221.602 489.357 221.335C496.845 220.723 508.367 224.103 521.339 228.923" fill="white"/>
<path d="M508.498 251.964L492.886 244.56C492.886 244.56 473.317 238.458 482.24 224.811C483.632 222.682 486.083 221.602 489.357 221.335C496.845 220.723 508.367 224.103 521.339 228.923" stroke="#202020" stroke-width="2.39998" stroke-linecap="round" stroke-linejoin="round"/>
<path d="M485.403 292.078L466.323 283.063C466.323 283.063 456.635 275.237 461.719 268.233C468.209 259.289 478.082 265.62 481.913 266.625L481.882 266.692L499.172 274.466" fill="white"/>
<path d="M485.403 292.078L466.323 283.063C466.323 283.063 456.635 275.237 461.719 268.233C468.209 259.289 478.082 265.62 481.913 266.625L481.882 266.692L499.172 274.466" stroke="#202020" stroke-width="2.39998" stroke-linecap="round" stroke-linejoin="round"/>
<path d="M499.171 274.466L481.912 266.625C481.912 266.625 461.882 256.166 470.618 245.128C477.769 236.09 492.884 244.559 492.884 244.559L508.496 251.964" fill="white"/>
<path d="M499.171 274.466L481.912 266.625C481.912 266.625 461.882 256.166 470.618 245.128C477.769 236.09 492.884 244.559 492.884 244.559L508.496 251.964" stroke="#202020" stroke-width="2.39998" stroke-linecap="round" stroke-linejoin="round"/>
<path d="M623.915 345.995C602.136 310.582 619.305 259.092 619.305 259.092C619.305 259.092 665.652 334.578 657.43 346.024C649.209 357.47 641.318 374.293 623.915 345.995Z" fill="#202020"/>
<path d="M618.377 255.658L622.172 315.218C625.092 364.106 699.011 397.003 730.53 353.485C759.94 300.649 729.395 244.397 711.766 200.746C711.766 200.746 684.462 141.715 649.966 136.942C635.991 135.009 627.061 139.744 622.122 142.689" fill="white"/>
<path d="M618.377 255.658L622.172 315.218C625.092 364.106 699.011 397.003 730.53 353.485C759.94 300.649 729.395 244.397 711.766 200.746C711.766 200.746 684.462 141.715 649.966 136.942C635.991 135.009 627.061 139.744 622.122 142.689" stroke="#202020" stroke-width="2.4" stroke-linecap="round" stroke-linejoin="round"/>
<path d="M740.582 325.513C738.266 336.518 731.127 347.389 721.448 355.909C672.55 398.961 528.292 348.765 528.292 348.765C560.759 351.483 562.512 289.769 562.727 244.859C589.243 245.586 633.066 273.322 664.767 274.64C665.585 274.674 666.395 274.711 667.197 274.752" fill="white"/>
<path d="M740.582 325.513C738.266 336.518 731.127 347.389 721.448 355.909C672.55 398.961 528.292 348.765 528.292 348.765C560.759 351.483 562.512 289.769 562.727 244.859C589.243 245.586 633.066 273.322 664.767 274.64C665.585 274.674 666.395 274.711 667.197 274.752" stroke="#202020" stroke-width="2.39998" stroke-linecap="round" stroke-linejoin="round"/>
<path d="M575.985 247.147L562.444 244.827C563.287 274.267 559.777 340.775 531.822 348.575L546.664 353.758C546.664 353.758 583.198 359.517 575.985 247.147Z" fill="white"/>
<path d="M575.985 247.147L562.444 244.827C563.287 274.267 559.777 340.775 531.822 348.575L546.664 353.758C546.664 353.758 583.198 359.517 575.985 247.147Z" stroke="#202020" stroke-width="2.39998" stroke-linecap="round" stroke-linejoin="round"/>
<path d="M700.695 437.189C704.784 438.035 708.375 439.336 711.159 441.267C725.291 451.066 717.532 474.246 700.595 474.246C700.24 474.246 485.429 474.246 485.429 474.246C475.515 474.246 467.479 466.212 467.479 456.302V455.599C467.479 434.947 491.632 437.412 504.595 437.669C517.558 437.925 684.417 433.821 700.695 437.189Z" fill="white"/>
<path d="M700.695 437.189C704.784 438.035 708.375 439.336 711.159 441.267C725.291 451.066 717.532 474.246 700.595 474.246C700.24 474.246 485.429 474.246 485.429 474.246C475.515 474.246 467.479 466.212 467.479 456.302V455.599C467.479 434.947 491.632 437.412 504.595 437.669C517.558 437.925 684.417 433.821 700.695 437.189Z" stroke="#202020" stroke-width="2.4" stroke-linecap="round" stroke-linejoin="round"/>
<path d="M486.215 653.867C486.215 661.893 479.708 668.398 471.679 668.398C463.651 668.398 457.144 661.893 457.144 653.867C457.144 645.841 463.651 639.336 471.679 639.336C479.708 639.336 486.215 645.841 486.215 653.867Z" fill="white"/>
<path d="M486.215 653.867C486.215 661.893 479.708 668.398 471.679 668.398C463.651 668.398 457.144 661.893 457.144 653.867C457.144 645.841 463.651 639.336 471.679 639.336C479.708 639.336 486.215 645.841 486.215 653.867Z" stroke="#202020" stroke-width="2.4" stroke-linecap="round" stroke-linejoin="round"/>
<path d="M581.436 607.251L471.747 639.203L471.838 627.392L581.527 595.44L581.436 607.251Z" fill="white"/>
<path d="M581.436 607.251L471.747 639.203L471.838 627.392L581.527 595.44L581.436 607.251Z" stroke="#202020" stroke-width="2.4" stroke-linecap="round" stroke-linejoin="round"/>
<path d="M683.842 653.867C683.842 661.893 690.349 668.398 698.378 668.398C706.406 668.398 712.913 661.893 712.913 653.867C712.913 645.841 706.406 639.336 698.378 639.336C690.349 639.336 683.842 645.841 683.842 653.867Z" fill="white"/>
<path d="M683.842 653.867C683.842 661.893 690.349 668.398 698.378 668.398C706.406 668.398 712.913 661.893 712.913 653.867C712.913 645.841 706.406 639.336 698.378 639.336C690.349 639.336 683.842 645.841 683.842 653.867Z" stroke="#202020" stroke-width="2.4" stroke-linecap="round" stroke-linejoin="round"/>
<path d="M601.437 607.251L698.309 639.203L698.217 627.392L601.346 595.44L601.437 607.251Z" fill="white"/>
<path d="M601.437 607.251L698.309 639.203L698.217 627.392L601.346 595.44L601.437 607.251Z" stroke="#202020" stroke-width="2.4" stroke-linecap="round" stroke-linejoin="round"/>
<path d="M512.225 474.246C518.058 446.465 523.244 418.452 529.732 390.816C534.858 368.983 545.077 352.064 565.322 341.007C594.765 324.927 636.205 318.654 669.246 315.648C688.627 313.884 735.849 311.844 748.768 330.9C753.052 337.219 734.849 383.471 731.748 393.236C727.806 405.653 727.006 404.786 714.005 404.558C692.459 404.181 670.914 403.84 649.367 403.48C639.339 403.313 627.886 403.758 621.434 411.434C618.041 415.47 608.19 458.114 604.733 474.249C573.898 474.248 543.062 474.247 512.225 474.246Z" fill="white"/>
<path d="M512.225 474.246C518.058 446.465 523.244 418.452 529.732 390.816C534.858 368.983 545.077 352.064 565.322 341.007C594.765 324.927 636.205 318.654 669.246 315.648C688.627 313.884 735.849 311.844 748.768 330.9C753.052 337.219 734.849 383.471 731.748 393.236C727.806 405.653 727.006 404.786 714.005 404.558C692.459 404.181 670.914 403.84 649.367 403.48C639.339 403.313 627.886 403.758 621.434 411.434C618.041 415.47 608.19 458.114 604.733 474.249C573.898 474.248 543.062 474.247 512.225 474.246Z" stroke="#202020" stroke-width="2.4" stroke-linecap="round" stroke-linejoin="round"/>
<path d="M581.519 606.412L580.823 638.898H586.625L601.519 606.412L601.428 595.56H581.61L581.519 606.412Z" fill="white"/>
<path d="M581.519 606.412L580.823 638.898H586.625L601.519 606.412L601.428 595.56H581.61L581.519 606.412Z" stroke="#202020" stroke-width="2.4" stroke-linecap="round" stroke-linejoin="round"/>
<path d="M597.803 653.867C597.803 661.893 591.296 668.398 583.267 668.398C575.239 668.398 568.731 661.893 568.731 653.867C568.731 645.841 575.239 639.336 583.267 639.336C591.296 639.336 597.803 645.841 597.803 653.867Z" fill="white"/>
<path d="M597.803 653.867C597.803 661.893 591.296 668.398 583.267 668.398C575.239 668.398 568.731 661.893 568.731 653.867C568.731 645.841 575.239 639.336 583.267 639.336C591.296 639.336 597.803 645.841 597.803 653.867Z" stroke="#202020" stroke-width="2.4" stroke-linecap="round" stroke-linejoin="round"/>
<path d="M600.808 595.442H581.338V474.248H600.808V595.442Z" fill="white"/>
<path d="M600.808 595.442H581.338V474.248H600.808V595.442Z" stroke="#202020" stroke-width="2.4" stroke-linecap="round" stroke-linejoin="round"/>
<path d="M600.808 474.249H581.338V485.325H600.808V474.249Z" fill="#202020"/>
</g>
</g>
<defs>
<clipPath id="clip0_73_2">
<rect width="751" height="678" fill="white"/>
</clipPath>
</defs>
</svg>
