<svg width="222" height="318" viewBox="0 0 222 318" fill="none" xmlns="http://www.w3.org/2000/svg">
<path d="M91.1181 315.944C77.5751 316.16 62.0941 311.96 45.0481 302.728C-2.66544 276.887 -8.09043 232.871 15.9044 198.498C39.8991 164.126 85.3261 103.495 97.9811 84.1919L192.245 139.495C174.08 177.392 144.838 296.883 91.1181 315.944Z" fill="#1B1D20"/>
<path d="M91.1175 315.944C77.5745 316.16 62.0945 311.96 45.0485 302.727C-2.66553 276.887 -8.09043 232.871 15.9044 198.499C39.8995 164.126 85.3255 103.495 97.9815 84.1919L192.245 139.495C174.079 177.392 142.273 297.744 91.1175 315.944Z" stroke="#682EC6" stroke-width="3" stroke-linecap="round" stroke-linejoin="round"/>
<path d="M130.644 47.4385C130.644 47.4385 135.031 25.8479 133.15 14.4121C132.067 8.0463 128.362 2.6372 122.906 3.4956C116.208 4.542 113.917 9.3736 113.646 15.0705C113.611 24.4225 112.529 29.0379 105.297 49.1088C96.6561 73.077 91.6621 96.704 91.6621 96.704" fill="#1B1D20"/>
<path d="M130.644 47.4385C130.644 47.4385 135.031 25.8479 133.15 14.4121C132.067 8.0463 128.362 2.6372 122.906 3.4956C116.208 4.542 113.917 9.3736 113.646 15.0705C113.611 24.4225 112.529 29.0379 105.297 49.1088C96.6561 73.077 91.6621 96.704 91.6621 96.704" stroke="#F0F5FC" stroke-width="3" stroke-linecap="round" stroke-linejoin="round"/>
<path d="M153.135 52.9555C155.731 45.6345 158.238 20.0334 152.563 8.58296C150.505 4.55356 146.406 0.610756 140.805 2.47656C134.932 4.43796 133.736 10.7624 135.243 16.2487C137.852 25.7479 130.646 47.4384 130.646 47.4384C125.332 61.1077 147.964 67.5698 153.135 52.9555Z" fill="#1B1D20"/>
<path d="M153.135 52.9555C155.731 45.6345 158.238 20.0334 152.563 8.58296C150.505 4.55356 146.406 0.610756 140.805 2.47656C134.932 4.43796 133.736 10.7624 135.243 16.2487C137.852 25.7479 130.646 47.4384 130.646 47.4384C125.332 61.1077 147.964 67.5698 153.135 52.9555Z" stroke="#F0F5FC" stroke-width="3" stroke-linecap="round" stroke-linejoin="round"/>
<path d="M174.834 59.9858C174.834 59.9858 182.658 29.2542 175.45 14.705C172.943 8.49374 168.11 4.80264 162.791 6.70614C157.744 8.52494 155.357 13.5215 157.303 20.2383C160.137 30.059 153.079 52.9396 153.079 52.9396C148.218 66.3466 170.632 75.5559 174.834 59.9858Z" fill="#1B1D20"/>
<path d="M174.834 59.9858C174.834 59.9858 182.658 29.2542 175.45 14.705C172.943 8.49374 168.11 4.80264 162.791 6.70614C157.744 8.52494 155.357 13.5215 157.303 20.2383C160.137 30.059 153.079 52.9396 153.079 52.9396C148.218 66.3466 170.632 75.5559 174.834 59.9858Z" stroke="#F0F5FC" stroke-width="3" stroke-linecap="round" stroke-linejoin="round"/>
<path d="M174.835 59.985C174.835 59.985 178.885 43.2095 184.832 24.3858C186.968 17.9186 192.281 14.6171 197.643 16.0258C202.934 17.4145 205.503 22.9828 204.352 30.8033C201.664 45.3186 199.966 55.4479 197.485 68.2078C194.966 81.176 169.336 78.609 174.835 59.985Z" fill="#1B1D20"/>
<path d="M174.835 59.985C174.835 59.985 178.885 43.2095 184.832 24.3858C186.968 17.9186 192.281 14.6171 197.643 16.0258C202.934 17.4145 205.503 22.9828 204.352 30.8033C201.664 45.3186 199.966 55.4479 197.485 68.2078C194.966 81.176 169.336 78.609 174.835 59.985Z" stroke="#F0F5FC" stroke-width="3" stroke-linecap="round" stroke-linejoin="round"/>
<path d="M108.129 41.6191C105.39 49.0337 102.795 56.3251 100.503 63.4541C98.2113 70.584 93.2883 88.467 91.6633 96.704C82.9633 122.091 192.134 180.586 197.693 123.081L198.175 63.8279" fill="#1B1D20"/>
<path d="M108.129 41.6191C105.39 49.0337 102.795 56.3251 100.503 63.4541C98.2113 70.584 93.2883 88.467 91.6633 96.704C82.9633 122.091 192.134 180.586 197.693 123.081L198.175 63.8279" stroke="#F0F5FC" stroke-width="3" stroke-linecap="round" stroke-linejoin="round"/>
<path d="M197.693 123.081C197.693 123.081 209.959 92.777 218.404 69.969C222.715 58.3448 219.454 52.8927 214.207 49.8885C209.759 47.3423 202.444 46.4381 194.683 58.1558C191.509 62.9427 187.406 67.6698 187.406 67.6698C187.406 67.6698 174.121 70.364 162.783 81.386" fill="#1B1D20"/>
<path d="M197.693 123.081C197.693 123.081 209.959 92.777 218.404 69.969C222.715 58.3448 219.454 52.8927 214.207 49.8885C209.759 47.3423 202.444 46.4381 194.683 58.1558C191.509 62.9427 187.406 67.6698 187.406 67.6698C187.406 67.6698 174.121 70.364 162.783 81.386" stroke="#F0F5FC" stroke-width="3" stroke-linecap="round" stroke-linejoin="round"/>
</svg>
