<svg width="854" height="500" viewBox="0 0 854 500" fill="none" xmlns="http://www.w3.org/2000/svg">
<g clip-path="url(#clip0_263_350)">
<mask id="mask0_263_350" style="mask-type:luminance" maskUnits="userSpaceOnUse" x="-33" y="-106" width="956" height="717">
<path d="M923 -106H-33V611H923V-106Z" fill="white"/>
</mask>
<g mask="url(#mask0_263_350)">
<path d="M784.649 204.448L784.319 249.067L767.972 209.92L767.749 209.388L767.397 209.844L739.56 245.858L750.515 204.208L750.656 203.674L750.117 203.796L706.327 213.695L741.392 188.872L741.851 188.546L741.346 188.298L701.055 168.424L743.987 171.109L744.53 171.143L744.316 170.642L726.524 129.042L757.651 158.771L758.052 159.155L758.205 158.621L770.607 115.185L776.425 158.397L776.496 158.922L776.94 158.633L814.315 134.349L790.157 170.074L789.852 170.524L790.391 170.594L835.153 176.424L793.654 188.025L793.121 188.174L793.499 188.577L824.248 221.335L785.118 204.144L784.652 203.939L784.649 204.448Z" fill="#1B1D20" stroke="#F0F5FC" stroke-width="0.670253"/>
<path d="M825.615 222.302L784.984 204.451L784.642 250.71L767.662 210.049L738.816 247.368L750.191 204.122L704.762 214.392L741.198 188.598L699.408 167.985L744.008 170.774L725.573 127.67L757.882 158.529L770.725 113.551L776.757 158.352L815.518 133.168L790.434 170.262L836.826 176.304L793.744 188.348L825.615 222.302Z" fill="#1B1D20" stroke="#F0F5FC" stroke-width="2.01076" stroke-linecap="round" stroke-linejoin="round"/>
<path d="M401.19 396.049L107.277 392.042C88.4925 391.786 73.4714 376.35 73.7272 357.565L77.9248 49.3085L439.864 54.2438L435.666 362.501C435.41 381.285 419.975 396.306 401.19 396.049Z" fill="#1B1D20" stroke="#F0F5FC" stroke-width="0.8"/>
<path d="M401.185 396.449L107.272 392.442C88.2661 392.183 73.0684 376.565 73.3272 357.56L77.5303 48.9031L440.269 53.8493L436.066 362.506C435.807 381.511 420.19 396.709 401.185 396.449Z" stroke="#F0F5FC" stroke-width="2.4" stroke-linecap="round" stroke-linejoin="round"/>
<mask id="mask1_263_350" style="mask-type:alpha" maskUnits="userSpaceOnUse" x="72" y="47" width="370" height="351">
<path d="M401.185 396.449L107.272 392.442C88.2661 392.183 73.0684 376.565 73.3272 357.56L77.5303 48.9031L440.269 53.8493L436.066 362.506C435.807 381.511 420.19 396.709 401.185 396.449Z" fill="#1B1D20"/>
<path d="M401.185 396.449L107.272 392.442C88.2661 392.183 73.0684 376.565 73.3272 357.56L77.5303 48.9031L440.269 53.8493L436.066 362.506C435.807 381.511 420.19 396.709 401.185 396.449Z" stroke="#1B1D20" stroke-width="2.4" stroke-linecap="round" stroke-linejoin="round"/>
</mask>
<g mask="url(#mask1_263_350)">
<path d="M153.225 87.5434L191.079 88.0592L153.225 87.5434Z" fill="#F0F5FC"/>
<path d="M153.225 87.5434L191.079 88.0592" stroke="#F0F5FC" stroke-width="2.4" stroke-linecap="round" stroke-linejoin="round"/>
<path d="M220.307 88.4575L406.433 90.9937Z" fill="#F0F5FC"/>
<path d="M220.307 88.4575L406.433 90.9937" stroke="#F0F5FC" stroke-width="2.4" stroke-linecap="round" stroke-linejoin="round"/>
<path d="M219.902 118.124L288.751 119.062Z" fill="#F0F5FC"/>
<path d="M219.902 118.124L288.751 119.062" stroke="#F0F5FC" stroke-width="2.4" stroke-linecap="round" stroke-linejoin="round"/>
<path d="M219.498 147.79L258.851 148.326L219.498 147.79Z" fill="#F0F5FC"/>
<path d="M219.498 147.79L258.851 148.326" stroke="#F0F5FC" stroke-width="2.4" stroke-linecap="round" stroke-linejoin="round"/>
<path d="M285.892 148.695L405.624 150.326Z" fill="#F0F5FC"/>
<path d="M285.892 148.695L405.624 150.326" stroke="#F0F5FC" stroke-width="2.4" stroke-linecap="round" stroke-linejoin="round"/>
<path d="M153.13 146.885L189.317 147.379L153.13 146.885Z" fill="#F0F5FC"/>
<path d="M153.13 146.885L189.317 147.379" stroke="#F0F5FC" stroke-width="2.4" stroke-linecap="round" stroke-linejoin="round"/>
<path d="M219.095 177.456L317.045 178.79Z" fill="#F0F5FC"/>
<path d="M219.095 177.456L317.045 178.79" stroke="#F0F5FC" stroke-width="2.4" stroke-linecap="round" stroke-linejoin="round"/>
<path d="M218.691 207.121L316.641 208.456Z" fill="#F0F5FC"/>
<path d="M218.691 207.121L316.641 208.456" stroke="#F0F5FC" stroke-width="2.4" stroke-linecap="round" stroke-linejoin="round"/>
<path d="M217.333 236.774L407.736 239.369Z" fill="#F0F5FC"/>
<path d="M217.333 236.774L407.736 239.369" stroke="#F0F5FC" stroke-width="2.4" stroke-linecap="round" stroke-linejoin="round"/>
<path d="M151.513 265.549L187.7 266.042L151.513 265.549Z" fill="#F0F5FC"/>
<path d="M151.513 265.549L187.7 266.042" stroke="#F0F5FC" stroke-width="2.4" stroke-linecap="round" stroke-linejoin="round"/>
<path d="M217.881 266.453L365.086 268.459Z" fill="#F0F5FC"/>
<path d="M217.881 266.453L365.086 268.459" stroke="#F0F5FC" stroke-width="2.4" stroke-linecap="round" stroke-linejoin="round"/>
<path d="M217.477 296.119L406.927 298.7Z" fill="#F0F5FC"/>
<path d="M217.477 296.119L406.927 298.7" stroke="#F0F5FC" stroke-width="2.4" stroke-linecap="round" stroke-linejoin="round"/>
<path d="M217.073 325.785L406.523 328.367Z" fill="#F0F5FC"/>
<path d="M217.073 325.785L406.523 328.367" stroke="#F0F5FC" stroke-width="2.4" stroke-linecap="round" stroke-linejoin="round"/>
<path d="M295.257 356.522L363.872 357.457Z" fill="#F0F5FC"/>
<path d="M295.257 356.522L363.872 357.457" stroke="#F0F5FC" stroke-width="2.4" stroke-linecap="round" stroke-linejoin="round"/>
<path d="M216.668 355.451L268.215 356.154Z" fill="#F0F5FC"/>
<path d="M216.668 355.451L268.215 356.154" stroke="#F0F5FC" stroke-width="2.4" stroke-linecap="round" stroke-linejoin="round"/>
</g>
<path d="M440.042 41.1391L439.875 53.4405L77.9386 48.5057L78.1061 36.2043C78.3619 17.4209 93.7976 2.40119 112.582 2.65731L406.493 6.66462C425.277 6.92074 440.298 22.3558 440.042 41.1391Z" fill="#1B1D20" stroke="#F0F5FC" stroke-width="0.8"/>
<path d="M440.269 53.8459L440.442 41.1446C440.701 22.1403 425.504 6.52379 406.498 6.26466L112.588 2.25735C93.5822 1.99822 77.965 17.1946 77.7062 36.1988L77.5332 48.9002L440.269 53.8459Z" fill="#1B1D20" stroke="#F0F5FC" stroke-width="2.4" stroke-linecap="round" stroke-linejoin="round"/>
<path d="M119.993 391.199L124.631 50.8241Z" fill="#F0F5FC"/>
<path d="M119.993 391.199L124.631 50.8241" stroke="#F0F5FC" stroke-width="2.4" stroke-linejoin="round"/>
<path d="M108.729 146.82C108.661 151.771 104.592 155.731 99.6406 155.663C94.6891 155.596 90.7293 151.527 90.7968 146.575C90.8642 141.624 94.9334 137.664 99.885 137.731C104.837 137.799 108.796 141.868 108.729 146.82Z" fill="#1B1D20" stroke="#682EC6" stroke-width="0.8"/>
<path d="M109.129 146.825C109.058 151.997 104.808 156.134 99.6352 156.063C94.4627 155.993 90.3263 151.742 90.3968 146.57C90.4673 141.397 94.718 137.261 99.8904 137.331C105.063 137.402 109.199 141.653 109.129 146.825Z" fill="#1B1D20" stroke="#682EC6" stroke-width="2.4" stroke-linecap="round" stroke-linejoin="round"/>
<path d="M109.937 87.4936C109.867 92.666 105.616 96.8025 100.444 96.732C95.2713 96.6615 91.1349 92.4108 91.2054 87.2383C91.2759 82.0659 95.5266 77.9295 100.699 77.9999C105.871 78.0704 110.008 82.3211 109.937 87.4936Z" fill="#1B1D20"/>
<path d="M109.937 87.4936C109.867 92.666 105.616 96.8025 100.444 96.732C95.2713 96.6615 91.1349 92.4108 91.2054 87.2383C91.2759 82.0659 95.5266 77.9295 100.699 77.9999C105.871 78.0704 110.008 82.3211 109.937 87.4936Z" stroke="#682EC6" stroke-width="2.4" stroke-linecap="round" stroke-linejoin="round"/>
<path d="M614.388 105.419C614.508 109.458 608.364 112.648 607.288 116.328C606.173 120.142 609.587 126.132 607.391 129.345C605.174 132.59 598.335 131.584 595.227 133.99C592.15 136.371 591.412 143.255 587.671 144.593C584.06 145.885 579.138 141.072 575.099 141.192C571.059 141.311 566.43 146.407 562.749 145.331C558.936 144.216 557.791 137.389 554.578 135.193C551.333 132.976 544.566 134.384 542.161 131.276C539.779 128.199 542.833 122.017 541.495 118.276C540.203 114.665 533.881 111.845 533.762 107.805C533.642 103.766 539.786 100.576 540.862 96.8957C541.977 93.082 538.563 87.0916 540.758 83.8791C542.976 80.6343 549.814 81.6398 552.922 79.2342C555.999 76.8525 556.738 69.9693 560.479 68.6305C564.089 67.3386 569.012 72.1519 573.051 72.0324C577.09 71.9128 581.72 66.8167 585.4 67.8928C589.214 69.0079 590.359 75.8354 593.572 78.0309C596.817 80.2484 603.584 78.8401 605.989 81.9481C608.371 85.0251 605.316 91.207 606.655 94.9481C607.947 98.5586 614.268 101.379 614.388 105.419Z" fill="#1B1D20"/>
<path d="M614.388 105.419C614.508 109.458 608.364 112.648 607.288 116.328C606.173 120.142 609.587 126.132 607.391 129.345C605.174 132.59 598.335 131.584 595.227 133.99C592.15 136.371 591.412 143.255 587.671 144.593C584.06 145.885 579.138 141.072 575.099 141.192C571.059 141.311 566.43 146.407 562.749 145.331C558.936 144.216 557.791 137.389 554.578 135.193C551.333 132.976 544.566 134.384 542.161 131.276C539.779 128.199 542.833 122.017 541.495 118.276C540.203 114.665 533.881 111.845 533.762 107.805C533.642 103.766 539.786 100.576 540.862 96.8957C541.977 93.082 538.563 87.0916 540.758 83.8791C542.976 80.6343 549.814 81.6398 552.922 79.2342C555.999 76.8525 556.738 69.9693 560.479 68.6305C564.089 67.3386 569.012 72.1519 573.051 72.0324C577.09 71.9128 581.72 66.8167 585.4 67.8928C589.214 69.0079 590.359 75.8354 593.572 78.0309C596.817 80.2484 603.584 78.8401 605.989 81.9481C608.371 85.0251 605.316 91.207 606.655 94.9481C607.947 98.5586 614.268 101.379 614.388 105.419Z" stroke="#F0F5FC" stroke-width="2.4" stroke-linecap="round" stroke-linejoin="round"/>
<path d="M542.305 157.862C544.047 141.721 547.601 107.262 547.81 106.065C549.715 95.1128 559.105 86.6384 570.649 86.2966C582.193 85.9549 592.068 93.8591 594.618 104.679C594.893 105.848 600.266 139.348 603.092 155.546C605.005 166.516 541.49 165.407 542.305 157.862Z" fill="#1B1D20"/>
<path d="M542.305 157.862C544.047 141.721 547.601 107.262 547.81 106.065C549.715 95.1128 559.105 86.6384 570.649 86.2966C582.193 85.9549 592.068 93.8591 594.618 104.679C594.893 105.848 600.266 139.348 603.092 155.546C605.005 166.516 541.49 165.407 542.305 157.862Z" fill="#1B1D20" stroke="#F0F5FC" stroke-width="2.4" stroke-linecap="round" stroke-linejoin="round"/>
<path d="M596.944 104.28C594.179 93.2702 583.71 85.4231 571.53 85.7989C559.308 86.2041 549.897 94.6108 547.582 105.326C549.138 104.77 550.821 104.426 552.156 104.703C555.987 105.433 559.67 111.196 563.356 110.733C567.175 110.253 569.403 104.141 572.576 102.187C576.231 99.9354 582.086 99.5223 584.151 105.74C585.683 110.345 582.115 115.042 584.424 117.903C586.756 120.791 593.442 119.229 596.579 121.3C598.508 122.564 599.573 125.657 601.001 128.015C599.028 115.622 597.109 104.936 596.944 104.28Z" fill="#1B1D20"/>
<path d="M596.944 104.28C594.179 93.2702 583.71 85.4231 571.53 85.7989C559.308 86.2041 549.897 94.6108 547.582 105.326C549.138 104.77 550.821 104.426 552.156 104.703C555.987 105.433 559.67 111.196 563.356 110.733C567.175 110.253 569.403 104.141 572.576 102.187C576.231 99.9354 582.086 99.5223 584.151 105.74C585.683 110.345 582.115 115.042 584.424 117.903C586.756 120.791 593.442 119.229 596.579 121.3C598.508 122.564 599.573 125.657 601.001 128.015C599.028 115.622 597.109 104.936 596.944 104.28Z" stroke="#1B1D20" stroke-width="2.4" stroke-linecap="round" stroke-linejoin="round"/>
<path d="M549.753 129.415C549.753 129.415 553.114 133.415 560.758 133.188C568.403 132.962 573.068 128.998 573.068 128.998" stroke="#F0F5FC" stroke-width="2.4" stroke-linecap="round" stroke-linejoin="round"/>
<path d="M546.731 119.265C546.731 119.265 549.947 116.307 553.087 116.838C556.228 117.37 557.777 120.597 557.777 120.597" stroke="#F0F5FC" stroke-width="2.4" stroke-linecap="round" stroke-linejoin="round"/>
<path d="M565.54 120.462C565.54 120.462 567.925 117.391 571.782 117.854C575.638 118.318 576.456 121.407 576.456 121.407" stroke="#F0F5FC" stroke-width="2.4" stroke-linecap="round" stroke-linejoin="round"/>
<path d="M413.986 306.857L414.006 306.813L414.015 306.765L432.121 207.681L432.16 207.598C432.2 207.513 432.26 207.385 432.339 207.218C432.499 206.884 432.738 206.392 433.055 205.762C433.69 204.502 434.637 202.689 435.883 200.482C438.377 196.068 442.07 190.08 446.866 183.789C456.458 171.207 470.42 157.462 487.981 152.586L638.173 153.785C638.174 153.786 638.175 153.786 638.177 153.786C645.969 154.006 652.851 157.999 658.809 163.929C664.768 169.861 669.771 177.7 673.797 185.533C677.82 193.363 680.856 201.169 682.887 207.019C683.902 209.943 684.666 212.378 685.175 214.08C685.43 214.931 685.621 215.6 685.748 216.054C685.812 216.282 685.86 216.456 685.891 216.573C685.907 216.632 685.919 216.676 685.927 216.705L685.935 216.734L685.936 216.738L685.937 216.741L685.938 216.747L685.939 216.749L685.943 216.769L685.966 216.879L686.06 217.315C686.143 217.7 686.266 218.271 686.426 219.016C686.746 220.507 687.213 222.694 687.804 225.481C688.987 231.054 690.666 239.025 692.648 248.614C696.613 267.792 701.794 293.442 706.659 319.33C711.523 345.221 716.07 371.344 718.768 391.472C720.117 401.537 721.002 410.093 721.235 416.367C721.352 419.505 721.304 422.058 721.074 423.937C720.958 424.878 720.799 425.635 720.598 426.207C720.395 426.788 720.165 427.131 719.94 427.301C719.695 427.487 719.153 427.704 718.259 427.931C717.383 428.152 716.224 428.369 714.796 428.58C711.94 429.002 708.037 429.396 703.232 429.76C693.621 430.486 680.425 431.089 664.824 431.548C633.624 432.467 592.824 432.813 551.901 432.439C510.978 432.066 469.937 430.973 438.253 429.015C422.41 428.035 408.914 426.84 398.945 425.412C393.959 424.697 389.866 423.926 386.806 423.097C385.276 422.682 384.013 422.256 383.03 421.819C382.04 421.379 381.366 420.942 380.983 420.523C379.309 418.69 378.328 416.006 377.951 412.602C377.575 409.201 377.806 405.12 378.521 400.538C379.95 391.375 383.301 380.279 387.496 368.756C394.36 349.902 403.461 329.961 410.032 315.562C411.493 312.362 412.828 309.437 413.986 306.857Z" fill="#1B1D20" stroke="#F0F5FC" stroke-width="0.8"/>
<path d="M487.928 152.185L638.184 153.386C669.911 154.276 686.326 216.647 686.326 216.647C686.326 216.647 730.31 419.948 720.182 427.62C710.054 435.291 394.717 436.143 380.688 420.793C366.66 405.443 400.891 335.047 413.621 306.693L431.737 207.56C431.737 207.56 452.504 161.981 487.928 152.185Z" fill="#1B1D20" stroke="#F0F5FC" stroke-width="2.4" stroke-linecap="round" stroke-linejoin="round"/>
<mask id="mask2_263_350" style="mask-type:luminance" maskUnits="userSpaceOnUse" x="248" y="228" width="237" height="129">
<path d="M290.612 229.071C311.498 223.943 387.92 254.933 408.503 267.01C429.086 279.087 489.471 297.843 484.236 323.567C479 349.29 414.569 370.142 360.504 345.522C306.439 320.902 244.008 309.76 248.82 280.921C253.632 252.082 269.725 234.2 290.612 229.071Z" fill="white"/>
</mask>
<g mask="url(#mask2_263_350)">
<path d="M493.416 152.231L497.209 198.575C497.209 198.575 500.018 228.469 484.919 260.009C474.603 281.557 471.469 305.755 461.725 322.763C458.732 327.098 447.862 334.917 417.801 322.216C400.178 314.585 404.512 301.872 380.438 287.755C364.744 278.551 337.786 290.852 323.922 277.454C305.878 258.828 300.318 256.068 300.262 256.09C306.948 249.492 348.005 250.161 378.883 224.163C398.644 206.209 394.263 196.451 412.802 185.191C435.402 171.465 463.542 151.556 493.416 152.231Z" fill="#1B1D20"/>
<path d="M493.416 152.231L497.209 198.575C497.209 198.575 500.018 228.469 484.919 260.009C474.603 281.557 471.469 305.755 461.725 322.763C458.732 327.098 447.862 334.917 417.801 322.216C400.178 314.585 404.512 301.872 380.438 287.755C364.744 278.551 337.786 290.852 323.922 277.454C305.878 258.828 300.318 256.068 300.262 256.09C306.948 249.492 348.005 250.161 378.883 224.163C398.644 206.209 394.263 196.451 412.802 185.191C435.402 171.465 463.542 151.556 493.416 152.231Z" stroke="#F0F5FC" stroke-width="2.4" stroke-linecap="round" stroke-linejoin="round"/>
</g>
<path d="M274.063 369.676C286.704 335.035 370.173 234.47 403.714 193.938C412.663 183.124 426.296 177.328 440.293 178.381C467.598 180.435 486.149 207.011 478.671 233.351C458.269 305.208 420.264 429.123 410.033 443.466C371.197 489.629 247.683 430.218 274.063 369.676Z" fill="#1B1D20"/>
<path d="M274.063 369.676C286.704 335.035 370.173 234.47 403.714 193.938C412.663 183.124 426.296 177.328 440.293 178.381C467.598 180.435 486.149 207.011 478.671 233.351C458.269 305.208 420.264 429.123 410.033 443.466C371.197 489.629 247.683 430.218 274.063 369.676Z" stroke="#682EC6" stroke-width="2.4" stroke-linecap="round" stroke-linejoin="round"/>
<path d="M495.741 235.339C494.428 243.574 492.308 252.597 488.952 261.754C480.73 284.184 477.087 299.273 461.641 323.597C461.769 323.049 436.856 299.304 430.151 295.507C414.234 287.669 396.17 297.065 380.817 288.255C360.61 275.941 348.829 254.896 328.802 253.767C316.36 253.191 306.855 256.728 299.624 256.301C299.694 256.124 329.244 220.67 345.191 214.651C371.418 201.84 368.507 217.301 406.794 171.316C423.577 151.158 463.685 151.641 493.56 152.315" fill="#1B1D20"/>
<path d="M495.741 235.339C494.428 243.574 492.308 252.597 488.952 261.754C480.73 284.184 477.087 299.273 461.641 323.597C461.769 323.049 436.856 299.304 430.151 295.507C414.234 287.669 396.17 297.065 380.817 288.255C360.61 275.941 348.829 254.896 328.802 253.767C316.36 253.191 306.855 256.728 299.624 256.301C299.694 256.124 329.244 220.67 345.191 214.651C371.418 201.84 368.507 217.301 406.794 171.316C423.577 151.158 463.685 151.641 493.56 152.315" stroke="#F0F5FC" stroke-width="2.4" stroke-linecap="round" stroke-linejoin="round"/>
<mask id="mask3_263_350" style="mask-type:luminance" maskUnits="userSpaceOnUse" x="656" y="240" width="206" height="125">
<path d="M860.751 255.395C855.824 231.047 762.18 238.776 713.084 262.013C663.987 285.249 649.403 324.054 658.614 345.509C667.826 366.964 748.169 373.176 799.654 349.925C851.14 326.674 865.677 279.744 860.751 255.395Z" fill="white"/>
</mask>
<g mask="url(#mask3_263_350)">
<path d="M636.461 153.326L631.034 199.507C631.034 199.507 627.17 229.282 641.146 261.336C650.695 283.235 652.663 308.202 661.8 325.543C665.3 329.415 675.536 337.505 706.026 325.876C723.908 318.872 720.026 306.015 744.583 292.757C760.593 284.115 787.1 297.361 801.429 284.462C820.12 266.486 825.773 263.923 825.828 263.948C819.379 257.117 778.323 256.336 748.383 229.262C729.268 210.62 733.992 201.024 715.861 189.115C693.76 174.599 666.341 153.709 636.461 153.326Z" fill="#1B1D20"/>
<path d="M636.461 153.326L631.034 199.507C631.034 199.507 627.17 229.282 641.146 261.336C650.695 283.235 652.663 308.202 661.8 325.543C665.3 329.415 675.536 337.505 706.026 325.876C723.908 318.872 720.026 306.015 744.583 292.757C760.593 284.115 787.1 297.361 801.429 284.462C820.12 266.486 825.773 263.923 825.828 263.948C819.379 257.117 778.323 256.336 748.383 229.262C729.268 210.62 733.992 201.024 715.861 189.115C693.76 174.599 666.341 153.709 636.461 153.326Z" stroke="white" stroke-width="2.4" stroke-linecap="round" stroke-linejoin="round"/>
</g>
<path d="M688.57 341.082L688.563 341.07L688.556 341.058C678.565 324.629 672.288 304.869 667.006 284.939C665.454 279.083 663.988 273.21 662.538 267.403C659.06 253.471 655.678 239.923 651.439 227.913C647.145 215.748 646.602 206.415 650.18 199.49C653.653 192.768 661.075 188.194 673.081 185.543L673.169 185.797C676.154 185.179 678.948 184.067 681.598 182.867C682.58 182.423 683.536 181.97 684.476 181.525C686.09 180.76 687.652 180.019 689.2 179.392C691.637 178.405 693.974 177.729 696.285 177.721C698.584 177.714 700.881 178.368 703.244 180.084C728.167 198.185 750.384 219.747 769.221 244.117L780.122 258.219L780.128 258.227L780.134 258.235C784.805 263.686 788.848 272.243 793.096 281.518C793.355 282.084 793.615 282.653 793.876 283.223C797.878 291.977 802.097 301.203 807.206 308.823C811.147 314.7 818.961 327.018 825.793 337.871C829.208 343.296 832.377 348.354 834.692 352.055C835.85 353.906 836.794 355.418 837.448 356.467L837.812 357.05C837.97 357.303 838.101 357.513 838.204 357.678L838.401 357.994L838.451 358.075L838.463 358.093C855.335 388.438 855.776 422.238 841.012 450.062C836.571 456.842 831.421 461.246 825.753 463.658C820.08 466.072 813.857 466.505 807.252 465.289C794.026 462.853 779.314 453.811 764.591 440.938C735.156 415.202 705.855 374.312 688.57 341.082Z" fill="#1B1D20" stroke="#682EC6" stroke-width="0.8"/>
<path d="M688.215 341.266C668.168 308.302 663.058 262.038 651.062 228.046C642.452 203.652 648.712 190.173 674.044 184.928L673.088 185.406C684.854 182.969 693.757 172.7 703.479 179.761C728.433 197.883 750.677 219.472 769.538 243.873L780.438 257.975C789.868 268.979 796.699 292.433 807.538 308.6C815.428 320.367 838.808 357.89 838.808 357.89C855.75 388.354 856.198 422.309 841.356 450.266C805.53 505.003 722.819 407.791 688.215 341.266Z" fill="#1B1D20" stroke="#682EC6" stroke-width="2.4" stroke-linecap="round" stroke-linejoin="round"/>
<mask id="path-69-inside-1_263_350" fill="white">
<path d="M630.581 230.337C631.411 240.103 633.276 251.381 637.054 262.937C644.479 285.643 647.587 300.851 662.164 325.706C662.056 325.153 687.792 302.304 694.627 298.747C710.811 291.477 728.532 301.505 744.187 293.243C764.817 281.652 777.334 261.038 797.388 260.618C809.843 260.481 819.217 264.353 826.459 264.181C826.395 264.001 798.116 227.526 782.391 220.947C756.633 207.217 758.996 222.771 722.356 175.462C706.295 154.724 666.394 153.789 636.514 153.406"/>
</mask>
<path d="M630.581 230.337C631.411 240.103 633.276 251.381 637.054 262.937C644.479 285.643 647.587 300.851 662.164 325.706C662.056 325.153 687.792 302.304 694.627 298.747C710.811 291.477 728.532 301.505 744.187 293.243C764.817 281.652 777.334 261.038 797.388 260.618C809.843 260.481 819.217 264.353 826.459 264.181C826.395 264.001 798.116 227.526 782.391 220.947C756.633 207.217 758.996 222.771 722.356 175.462C706.295 154.724 666.394 153.789 636.514 153.406" fill="#1B1D20"/>
<path d="M637.054 262.937L636.294 263.185L636.294 263.185L637.054 262.937ZM662.164 325.706L661.474 326.111L662.949 325.551L662.164 325.706ZM694.627 298.747L694.299 298.017L694.278 298.027L694.258 298.037L694.627 298.747ZM744.187 293.243L744.56 293.951L744.57 293.946L744.579 293.941L744.187 293.243ZM797.388 260.618L797.379 259.818L797.371 259.818L797.388 260.618ZM826.459 264.181L826.478 264.981L827.583 264.955L827.213 263.913L826.459 264.181ZM782.391 220.947L782.014 221.653L782.047 221.67L782.082 221.685L782.391 220.947ZM722.356 175.462L721.724 175.952L721.724 175.952L722.356 175.462ZM629.784 230.405C630.618 240.218 632.492 251.559 636.294 263.185L637.814 262.688C634.059 251.203 632.205 239.988 631.379 230.27L629.784 230.405ZM636.294 263.185C643.702 285.841 646.841 301.161 661.474 326.111L662.854 325.301C648.332 300.541 645.256 285.445 637.814 262.688L636.294 263.185ZM662.949 325.551C662.987 325.744 662.942 325.892 662.927 325.936C662.908 325.996 662.886 326.037 662.878 326.052C662.86 326.083 662.85 326.094 662.863 326.077C662.886 326.047 662.936 325.989 663.023 325.895C663.192 325.712 663.454 325.449 663.804 325.109C664.502 324.433 665.518 323.488 666.768 322.353C669.265 320.083 672.68 317.069 676.312 313.961C679.945 310.852 683.79 307.653 687.15 305.011C690.531 302.353 693.365 300.306 694.997 299.457L694.258 298.037C692.472 298.966 689.525 301.109 686.161 303.753C682.777 306.413 678.914 309.628 675.272 312.745C671.629 315.863 668.202 318.887 665.692 321.168C664.437 322.308 663.407 323.267 662.691 323.96C662.335 324.305 662.048 324.593 661.849 324.807C661.752 324.912 661.662 325.014 661.594 325.103C661.561 325.145 661.517 325.206 661.479 325.276C661.46 325.31 661.43 325.368 661.406 325.441C661.387 325.5 661.34 325.66 661.379 325.86L662.949 325.551ZM694.955 299.477C702.833 295.938 711.098 296.597 719.552 297.165C727.937 297.729 736.505 298.202 744.56 293.951L743.813 292.536C736.214 296.546 728.094 296.136 719.659 295.569C711.293 295.006 702.606 294.286 694.299 298.017L694.955 299.477ZM744.579 293.941C754.972 288.101 763.366 279.958 771.507 273.363C779.702 266.724 787.663 261.622 797.405 261.417L797.371 259.818C787.059 260.034 778.735 265.448 770.5 272.12C762.212 278.834 754.031 286.794 743.795 292.546L744.579 293.941ZM797.397 261.417C803.54 261.35 808.933 262.271 813.727 263.198C818.481 264.117 822.747 265.069 826.478 264.981L826.44 263.381C822.929 263.464 818.888 262.566 814.031 261.627C809.213 260.695 803.691 259.748 797.379 259.818L797.397 261.417ZM827.213 263.913C827.198 263.875 827.172 263.818 827.162 263.799C827.155 263.787 827.144 263.767 827.139 263.759C827.129 263.743 827.12 263.729 827.115 263.722C827.105 263.706 827.094 263.691 827.085 263.678C827.066 263.652 827.041 263.619 827.012 263.58C826.953 263.502 826.869 263.391 826.76 263.25C826.544 262.969 826.227 262.562 825.82 262.046C825.007 261.015 823.833 259.546 822.377 257.768C819.465 254.213 815.423 249.421 810.89 244.426C806.359 239.433 801.327 234.229 796.435 229.856C791.559 225.498 786.76 221.908 782.699 220.209L782.082 221.685C785.884 223.275 790.517 226.712 795.368 231.049C800.203 235.371 805.194 240.53 809.706 245.501C814.216 250.471 818.239 255.242 821.139 258.782C822.589 260.552 823.757 262.013 824.564 263.037C824.968 263.549 825.28 263.95 825.493 264.226C825.599 264.364 825.679 264.469 825.732 264.54C825.759 264.576 825.776 264.6 825.787 264.614C825.792 264.622 825.793 264.622 825.79 264.618C825.789 264.617 825.783 264.608 825.775 264.596C825.771 264.589 825.761 264.571 825.755 264.56C825.745 264.542 825.72 264.486 825.705 264.449L827.213 263.913ZM782.767 220.241C776.269 216.777 771.535 215.157 767.529 213.935C763.514 212.71 760.344 211.914 756.822 210.086C749.79 206.436 741.317 198.637 722.989 174.972L721.724 175.952C740.035 199.596 748.7 207.674 756.086 211.506C759.773 213.42 763.132 214.266 767.063 215.465C771.003 216.667 775.634 218.252 782.014 221.653L782.767 220.241ZM722.989 174.972C714.771 164.362 700.531 158.897 684.761 156.014C668.967 153.126 651.456 152.797 636.524 152.606L636.503 154.206C651.452 154.397 668.832 154.728 684.473 157.588C700.139 160.452 713.88 165.824 721.724 175.952L722.989 174.972Z" fill="#F0F5FC" mask="url(#path-69-inside-1_263_350)"/>
<path d="M630.581 230.337C631.411 240.103 633.276 251.381 637.054 262.937C644.479 285.643 647.587 300.851 662.164 325.706C662.056 325.153 687.792 302.304 694.627 298.747C710.811 291.477 728.532 301.505 744.187 293.243C764.817 281.652 777.334 261.038 797.388 260.618C809.843 260.481 819.217 264.353 826.459 264.181C826.395 264.001 798.116 227.526 782.391 220.947C756.633 207.217 758.996 222.771 722.356 175.462C706.295 154.724 666.394 153.789 636.514 153.406" fill="#1B1D20"/>
<path d="M630.581 230.337C631.411 240.103 633.276 251.381 637.054 262.937C644.479 285.643 647.587 300.851 662.164 325.706C662.056 325.153 687.792 302.304 694.627 298.747C710.811 291.477 728.532 301.505 744.187 293.243C764.817 281.652 777.334 261.038 797.388 260.618C809.843 260.481 819.217 264.353 826.459 264.181C826.395 264.001 798.116 227.526 782.391 220.947C756.633 207.217 758.996 222.771 722.356 175.462C706.295 154.724 666.394 153.789 636.514 153.406" stroke="#F0F5FC" stroke-width="2.4" stroke-linecap="round" stroke-linejoin="round"/>
<mask id="path-73-inside-2_263_350" fill="white">
<path d="M839.426 453.161C828.411 473.015 802.034 471.354 789.524 471.2C753.891 470.761 709.103 458.396 676.99 453.861C638.887 448.48 604.662 395.351 639.317 382.767C681.309 367.518 698.768 360.082 698.768 360.082C698.768 360.082 736.579 354.553 746.481 367.534"/>
</mask>
<path d="M839.426 453.161C828.411 473.015 802.034 471.354 789.524 471.2C753.891 470.761 709.103 458.396 676.99 453.861C638.887 448.48 604.662 395.351 639.317 382.767C681.309 367.518 698.768 360.082 698.768 360.082C698.768 360.082 736.579 354.553 746.481 367.534" fill="#1B1D20"/>
<path d="M789.524 471.2L789.534 470.4L789.534 470.4L789.524 471.2ZM676.99 453.861L676.878 454.653L676.878 454.653L676.99 453.861ZM639.317 382.767L639.59 383.519L639.59 383.519L639.317 382.767ZM698.768 360.082L698.652 359.29L698.549 359.305L698.454 359.346L698.768 360.082ZM838.727 452.773C833.372 462.424 824.276 466.882 814.868 468.902C805.441 470.926 795.826 470.478 789.534 470.4L789.514 472C795.731 472.077 805.56 472.537 815.203 470.466C824.865 468.391 834.465 463.753 840.126 453.549L838.727 452.773ZM789.534 470.4C771.792 470.182 751.746 466.993 732.086 463.28C712.457 459.574 693.182 455.34 677.101 453.069L676.878 454.653C692.911 456.917 712.087 461.133 731.789 464.853C751.459 468.567 771.623 471.78 789.514 472L789.534 470.4ZM677.101 453.069C658.343 450.42 640.453 435.977 631.562 420.615C627.118 412.937 624.985 405.138 626.016 398.552C627.036 392.034 631.172 386.576 639.59 383.519L639.044 382.015C630.135 385.25 625.554 391.153 624.435 398.304C623.327 405.387 625.633 413.566 630.177 421.416C639.26 437.11 657.534 451.922 676.878 454.653L677.101 453.069ZM639.59 383.519C660.592 375.893 675.461 370.219 685.081 366.451C689.891 364.567 693.389 363.16 695.686 362.223C696.834 361.754 697.682 361.403 698.243 361.169C698.524 361.053 698.733 360.965 698.872 360.906C698.941 360.877 698.993 360.855 699.028 360.84C699.046 360.833 699.059 360.827 699.068 360.823C699.072 360.822 699.075 360.82 699.078 360.819C699.079 360.819 699.08 360.818 699.08 360.818C699.08 360.818 699.081 360.818 699.081 360.818C699.081 360.818 699.081 360.818 698.768 360.082C698.454 359.346 698.454 359.346 698.454 359.346C698.454 359.346 698.454 359.346 698.453 359.346C698.453 359.346 698.452 359.346 698.451 359.347C698.449 359.348 698.446 359.349 698.442 359.351C698.434 359.354 698.421 359.36 698.404 359.367C698.37 359.381 698.319 359.403 698.251 359.432C698.114 359.489 697.906 359.576 697.628 359.693C697.07 359.925 696.226 360.274 695.081 360.741C692.792 361.675 689.301 363.08 684.498 364.961C674.891 368.724 660.034 374.393 639.044 382.015L639.59 383.519ZM698.768 360.082C698.883 360.873 698.883 360.873 698.883 360.873C698.884 360.873 698.884 360.873 698.884 360.873C698.885 360.873 698.887 360.873 698.889 360.872C698.893 360.872 698.9 360.871 698.908 360.87C698.926 360.867 698.952 360.863 698.987 360.858C699.058 360.849 699.163 360.834 699.301 360.816C699.576 360.779 699.984 360.726 700.507 360.664C701.552 360.539 703.059 360.375 704.898 360.218C708.579 359.904 713.585 359.62 718.893 359.74C724.207 359.859 729.791 360.382 734.643 361.667C739.514 362.956 743.528 364.982 745.845 368.019L747.117 367.048C744.482 363.595 740.057 361.445 735.053 360.12C730.03 358.79 724.306 358.261 718.929 358.14C713.546 358.019 708.48 358.307 704.762 358.624C702.902 358.782 701.378 358.948 700.317 359.075C699.786 359.139 699.372 359.192 699.089 359.23C698.947 359.249 698.839 359.264 698.765 359.274C698.729 359.279 698.701 359.283 698.682 359.286C698.672 359.287 698.665 359.288 698.66 359.289C698.657 359.289 698.655 359.29 698.654 359.29C698.653 359.29 698.653 359.29 698.653 359.29C698.652 359.29 698.652 359.29 698.768 360.082Z" fill="#682EC6" mask="url(#path-73-inside-2_263_350)"/>
<path d="M839.426 453.161C828.411 473.015 802.034 471.354 789.524 471.2C753.891 470.761 709.103 458.396 676.99 453.861C638.887 448.48 604.662 395.351 639.317 382.767C681.309 367.518 698.768 360.082 698.768 360.082C698.768 360.082 736.579 354.553 746.481 367.534" fill="#1B1D20"/>
<path d="M839.426 453.161C828.411 473.015 802.034 471.354 789.524 471.2C753.891 470.761 709.103 458.396 676.99 453.861C638.887 448.48 604.662 395.351 639.317 382.767C681.309 367.518 698.768 360.082 698.768 360.082C698.768 360.082 736.579 354.553 746.481 367.534" stroke="#682EC6" stroke-width="2.4" stroke-linecap="round" stroke-linejoin="round"/>
<path d="M590.776 417.189C593.02 399.246 607.537 384.795 635.747 384.229C649.073 383.962 671.085 383.388 687.143 400.168C697.595 411.09 705.359 439.711 697.911 449.815C694.01 455.109 668.538 455.422 656.314 445.026C650.539 440.115 645.011 445.514 645.011 445.514C622.666 455.581 587.008 439.167 590.776 417.189Z" fill="#1B1D20"/>
<path d="M590.776 417.189C593.02 399.246 607.537 384.795 635.747 384.229C649.073 383.962 671.085 383.388 687.143 400.168C697.595 411.09 705.359 439.711 697.911 449.815C694.01 455.109 668.538 455.422 656.314 445.026C650.539 440.115 645.011 445.514 645.011 445.514C622.666 455.581 587.008 439.167 590.776 417.189Z" stroke="#F0F5FC" stroke-width="2.16" stroke-linecap="round" stroke-linejoin="round"/>
<path d="M595.928 454.744C597.862 443.258 598.584 436.537 599.471 431.503C601.113 422.18 602.892 415.884 602.892 415.884" fill="#1B1D20"/>
<path d="M595.928 454.744C597.862 443.258 598.584 436.537 599.471 431.503C601.113 422.18 602.892 415.884 602.892 415.884" stroke="#F0F5FC" stroke-width="21.6" stroke-linecap="round" stroke-linejoin="round"/>
<path d="M595.928 454.744C597.862 443.258 598.584 436.537 599.471 431.503C601.113 422.18 602.892 415.884 602.892 415.884" fill="#1B1D20"/>
<path d="M595.928 454.744C597.862 443.258 598.584 436.537 599.471 431.503C601.113 422.18 602.892 415.884 602.892 415.884" stroke="#1B1D20" stroke-width="17.28" stroke-linecap="round" stroke-linejoin="round"/>
<path d="M615.924 422.152L615.785 422.149L614.997 422.132L612.183 422.073C609.855 422.023 606.753 421.957 603.659 421.891C600.564 421.825 597.476 421.758 595.175 421.706C594.025 421.681 593.071 421.659 592.412 421.643C592.155 421.637 591.943 421.632 591.781 421.627C592.165 413.666 594.584 407.912 596.916 404.138C598.1 402.222 599.263 400.816 600.127 399.891C600.559 399.429 600.916 399.087 601.163 398.861C601.287 398.749 601.384 398.665 601.448 398.61C601.465 398.596 601.48 398.584 601.493 398.573C601.518 398.566 601.552 398.556 601.592 398.544C601.702 398.512 601.866 398.467 602.077 398.412C602.5 398.302 603.114 398.155 603.876 398.009C605.4 397.718 607.508 397.432 609.847 397.45C614.533 397.487 620.082 398.745 623.768 403.555C625.094 405.286 625.298 407.286 624.829 409.354C624.358 411.432 623.211 413.555 621.872 415.476C620.535 417.392 619.022 419.085 617.84 420.301C617.25 420.908 616.744 421.394 616.386 421.729C616.207 421.896 616.065 422.025 615.968 422.112C615.952 422.126 615.937 422.14 615.924 422.152Z" fill="#1B1D20" stroke="#F0F5FC" stroke-width="0.72"/>
<path d="M601.32 398.25C601.32 398.25 592.064 405.54 591.406 421.975C591.191 421.991 616.057 422.515 616.057 422.515C616.057 422.515 629.686 410.686 624.054 403.336C616.487 393.462 601.32 398.25 601.32 398.25Z" fill="#1B1D20"/>
<path d="M616.496 456.038C618.592 444.581 619.409 437.869 620.366 432.848C622.14 423.55 624.006 417.279 624.006 417.279" fill="#1B1D20"/>
<path d="M616.496 456.038C618.592 444.581 619.409 437.869 620.366 432.848C622.14 423.55 624.006 417.279 624.006 417.279" stroke="#F0F5FC" stroke-width="21.6" stroke-linecap="round" stroke-linejoin="round"/>
<path d="M616.496 456.038C618.592 444.581 619.409 437.869 620.366 432.848C622.14 423.55 624.006 417.279 624.006 417.279" fill="#1B1D20"/>
<path d="M616.496 456.038C618.592 444.581 619.409 437.869 620.366 432.848C622.14 423.55 624.006 417.279 624.006 417.279" stroke="#1B1D20" stroke-width="17.28" stroke-linecap="round" stroke-linejoin="round"/>
<path d="M626.869 396.389L626.907 396.031L626.869 396.389C634.164 397.178 638.151 401.717 640.327 406.094C641.416 408.285 642.048 410.429 642.406 412.027C642.586 412.826 642.697 413.486 642.762 413.945C642.779 414.06 642.792 414.162 642.804 414.25L604.987 412.711C605.017 412.607 605.053 412.485 605.095 412.347C605.25 411.841 605.492 411.118 605.838 410.255C606.531 408.528 607.638 406.248 609.294 404.031C612.599 399.607 618.081 395.438 626.869 396.389Z" fill="#1B1D20" stroke="#F0F5FC" stroke-width="0.72"/>
<path d="M626.907 396.031C609.014 394.095 604.523 413.052 604.523 413.052L643.208 414.627C643.208 414.627 641.82 397.644 626.907 396.031Z" fill="#1B1D20"/>
<path d="M637.396 458.889C639.491 447.432 640.309 440.72 641.266 435.699C643.039 426.401 644.905 420.13 644.905 420.13" fill="#1B1D20"/>
<path d="M637.396 458.889C639.491 447.432 640.309 440.72 641.266 435.699C643.039 426.401 644.905 420.13 644.905 420.13" stroke="#F0F5FC" stroke-width="21.6" stroke-linecap="round" stroke-linejoin="round"/>
<path d="M637.396 458.889C639.491 447.432 640.309 440.72 641.266 435.699C643.039 426.401 644.905 420.13 644.905 420.13" fill="#1B1D20"/>
<path d="M637.396 458.889C639.491 447.432 640.309 440.72 641.266 435.699C643.039 426.401 644.905 420.13 644.905 420.13" stroke="#1B1D20" stroke-width="17.28" stroke-linecap="round" stroke-linejoin="round"/>
<path d="M651.327 399.56L651.468 399.265L651.327 399.56C655.659 401.638 657.906 404.319 658.881 407.145C659.859 409.982 659.574 413.018 658.735 415.831C657.897 418.643 656.513 421.203 655.334 423.065C654.746 423.994 654.21 424.747 653.822 425.266C653.651 425.495 653.509 425.678 653.404 425.811L625.663 406.474C625.73 406.385 625.813 406.278 625.912 406.154C626.22 405.766 626.68 405.218 627.281 404.583C628.485 403.313 630.253 401.701 632.51 400.327C637.014 397.585 643.466 395.788 651.327 399.56Z" fill="#1B1D20" stroke="#F0F5FC" stroke-width="0.72"/>
<path d="M651.483 399.235C635.493 391.563 625.155 406.559 625.155 406.559L653.474 426.298C653.474 426.298 669.088 407.682 651.483 399.235Z" fill="#1B1D20"/>
<path d="M658.854 457.389C660.949 445.931 661.767 439.22 662.724 434.199C664.497 424.9 666.363 418.63 666.363 418.63" fill="#1B1D20"/>
<path d="M658.854 457.389C660.949 445.931 661.767 439.22 662.724 434.199C664.497 424.9 666.363 418.63 666.363 418.63" stroke="#F0F5FC" stroke-width="21.6" stroke-linecap="round" stroke-linejoin="round"/>
<path d="M658.854 457.389C660.949 445.931 661.767 439.22 662.724 434.199C664.497 424.9 666.363 418.63 666.363 418.63" fill="#1B1D20"/>
<path d="M658.854 457.389C660.949 445.931 661.767 439.22 662.724 434.199C664.497 424.9 666.363 418.63 666.363 418.63" stroke="#1B1D20" stroke-width="17.28" stroke-linecap="round" stroke-linejoin="round"/>
<path d="M670.458 399.227L670.531 398.875L670.458 399.227C678.515 400.902 682.167 406.61 683.813 411.95C684.637 414.622 684.953 417.193 685.064 419.097C685.119 420.049 685.123 420.833 685.113 421.377C685.109 421.551 685.105 421.7 685.1 421.823L647.621 415.242C647.623 415.093 647.627 414.89 647.639 414.641C647.665 414.069 647.729 413.256 647.881 412.295C648.183 410.37 648.832 407.866 650.21 405.522C651.586 403.183 653.688 401.004 656.908 399.709C660.132 398.413 664.509 397.99 670.458 399.227Z" fill="#1B1D20" stroke="#F0F5FC" stroke-width="0.72"/>
<path d="M670.531 398.874C646.539 393.887 647.263 415.545 647.263 415.545L685.438 422.248C685.438 422.248 686.991 402.295 670.531 398.874Z" fill="#1B1D20"/>
<path d="M439.545 60.8237C444.723 60.8237 448.921 65.0215 448.921 70.1996C448.921 75.3778 444.723 79.5756 439.545 79.5756C434.367 79.5756 430.169 75.3778 430.169 70.1996C430.169 65.0215 434.367 60.8237 439.545 60.8237Z" fill="#1B1D20" stroke="#F0F5FC" stroke-width="0.701062"/>
<path d="M449.271 70.1996C449.271 64.8279 444.917 60.4731 439.545 60.4731C434.173 60.4731 429.818 64.8279 429.818 70.1996C429.818 75.5714 434.173 79.9261 439.545 79.9261C444.917 79.9261 449.271 75.5714 449.271 70.1996Z" fill="#1B1D20" stroke="#F0F5FC" stroke-width="2.10319" stroke-linecap="round" stroke-linejoin="round"/>
<path d="M255.694 340.05C255.898 381.06 250.345 476.397 336.957 473.104C435.68 469.352 418.545 387.727 418.545 387.727C418.545 387.727 388.283 199.933 380.299 178.063C369.785 149.265 269.183 168.718 267.832 191.677C265.48 231.828 255.5 301.158 255.694 340.05Z" fill="#1B1D20"/>
<path d="M255.694 340.05C255.898 381.06 250.345 476.397 336.957 473.104C435.68 469.352 418.545 387.727 418.545 387.727C418.545 387.727 388.283 199.933 380.299 178.063C369.785 149.265 269.183 168.718 267.832 191.677C265.48 231.828 255.5 301.158 255.694 340.05Z" stroke="#682EC6" stroke-width="2.13331" stroke-linecap="round" stroke-linejoin="round"/>
<path d="M368.072 162.548C371.351 155.603 376.86 149.856 386.668 147.635C392.916 146.221 405.244 143.608 405.244 143.608C408.904 143.169 414.657 144.607 416.131 151.335C417.641 158.226 414.341 163.095 410.047 166.297L396.542 175.819C396.542 175.819 388.03 180.223 381.356 191.144" fill="#1B1D20"/>
<path d="M368.072 162.548C371.351 155.603 376.86 149.856 386.668 147.635C392.916 146.221 405.244 143.608 405.244 143.608C408.904 143.169 414.657 144.607 416.131 151.335C417.641 158.226 414.341 163.095 410.047 166.297L396.542 175.819C396.542 175.819 388.03 180.223 381.356 191.144" stroke="#F0F5FC" stroke-width="2.25425" stroke-linecap="round" stroke-linejoin="round"/>
<path d="M382.922 187.302C383.156 191.611 368.321 199.49 324.682 201.613C284.433 203.571 267.35 194.577 268.287 185.137C269.225 175.697 272.087 158.964 275.458 143.12C279.292 125.1 274.679 109.683 287.949 108.116C306.719 105.901 302.856 123.84 303.767 124.005C304.714 124.687 300.98 105.746 314.746 104.938C333.18 103.856 329.807 122.096 330.491 122.157C332.024 122.691 326.804 102.966 341.846 103.87C357.115 104.788 353.743 125.892 354.594 126.09C365.562 130.719 376.985 136.263 378.185 144.893C378.882 149.908 379.482 154.468 379.998 158.585" fill="#1B1D20"/>
<path d="M382.922 187.302C383.156 191.611 368.321 199.49 324.682 201.613C284.433 203.571 267.35 194.577 268.287 185.137C269.225 175.697 272.087 158.964 275.458 143.12C279.292 125.1 274.679 109.683 287.949 108.116C306.719 105.901 302.856 123.84 303.767 124.005C304.714 124.687 300.98 105.746 314.746 104.938C333.18 103.856 329.807 122.096 330.491 122.157C332.024 122.691 326.804 102.966 341.846 103.87C357.115 104.788 353.743 125.892 354.594 126.09C365.562 130.719 376.985 136.263 378.185 144.893C378.882 149.908 379.482 154.468 379.998 158.585" stroke="#F0F5FC" stroke-width="2.4" stroke-linecap="round" stroke-linejoin="round"/>
<path d="M362.468 80.8321C362.468 80.8321 364.064 107.024 368.111 143.206" stroke="#F0F5FC" stroke-width="21.6" stroke-linecap="round" stroke-linejoin="round"/>
<path d="M362.468 80.8321C362.468 80.8321 364.064 107.024 368.111 143.206Z" fill="#F0F5FC"/>
<path d="M362.468 80.8321C362.468 80.8321 364.064 107.024 368.111 143.206" stroke="#1B1D20" stroke-width="16.8" stroke-linecap="round" stroke-linejoin="round"/>
<path d="M375.735 134.589C375.735 134.589 347.858 125.163 341.046 133.888C332.406 144.956 332.846 155.684 344.873 163.135C356.9 170.587 378.531 156.77 378.476 156.376C376.207 140.321 375.735 134.589 375.735 134.589Z" fill="#1B1D20"/>
<mask id="path-115-inside-3_263_350" fill="white">
<path d="M352.078 110.538C358.868 125.684 357.655 140.948 347.468 140.694C336.51 140.42 331.043 127.969 330.823 116.594"/>
</mask>
<path d="M352.078 110.538C358.868 125.684 357.655 140.948 347.468 140.694C336.51 140.42 331.043 127.969 330.823 116.594" fill="#1B1D20"/>
<path d="M347.468 140.694L347.488 139.894L347.488 139.894L347.468 140.694ZM351.348 110.865C354.703 118.35 356.05 125.801 355.346 131.289C354.994 134.032 354.14 136.218 352.841 137.69C351.565 139.136 349.81 139.952 347.488 139.894L347.448 141.494C350.22 141.563 352.437 140.566 354.041 138.749C355.622 136.957 356.557 134.427 356.933 131.493C357.685 125.626 356.243 117.872 352.808 110.211L351.348 110.865ZM347.488 139.894C342.357 139.766 338.47 136.801 335.803 132.393C333.128 127.97 331.731 122.159 331.623 116.578L330.024 116.609C330.135 122.403 331.582 128.505 334.434 133.221C337.295 137.95 341.621 141.348 347.448 141.494L347.488 139.894Z" fill="#F0F5FC" mask="url(#path-115-inside-3_263_350)"/>
<path d="M352.078 110.538C358.868 125.684 357.655 140.948 347.468 140.694C336.51 140.42 331.043 127.969 330.823 116.594" stroke="#F0F5FC" stroke-width="2.4" stroke-linecap="round" stroke-linejoin="round"/>
<mask id="path-118-inside-4_263_350" fill="white">
<path d="M328.741 111.72C333.795 121.011 336.351 140.14 323.082 140.586C309.898 141.03 304.016 125.024 304.016 125.024"/>
</mask>
<path d="M328.741 111.72C333.795 121.011 336.351 140.14 323.082 140.586C309.898 141.03 304.016 125.024 304.016 125.024" fill="#1B1D20"/>
<path d="M323.082 140.586L323.055 139.787L323.055 139.787L323.082 140.586ZM328.038 112.102C330.503 116.633 332.361 123.589 331.984 129.418C331.796 132.329 331.056 134.876 329.642 136.705C328.252 138.502 326.155 139.682 323.055 139.787L323.109 141.386C326.644 141.267 329.203 139.889 330.908 137.683C332.588 135.51 333.381 132.61 333.581 129.521C333.98 123.352 332.033 116.098 329.444 111.338L328.038 112.102ZM323.055 139.787C316.829 139.996 312.279 136.33 309.233 132.475C307.716 130.555 306.596 128.617 305.855 127.156C305.485 126.427 305.211 125.819 305.031 125.396C304.94 125.185 304.873 125.02 304.83 124.909C304.808 124.854 304.792 124.812 304.781 124.785C304.776 124.771 304.772 124.761 304.77 124.755C304.769 124.752 304.768 124.75 304.768 124.748C304.767 124.748 304.767 124.747 304.767 124.747C304.767 124.747 304.767 124.747 304.767 124.747C304.767 124.748 304.767 124.748 304.016 125.024C303.266 125.299 303.266 125.3 303.266 125.3C303.266 125.3 303.266 125.301 303.266 125.301C303.266 125.302 303.267 125.303 303.267 125.305C303.268 125.307 303.27 125.311 303.271 125.315C303.275 125.325 303.28 125.338 303.286 125.354C303.299 125.388 303.317 125.436 303.342 125.497C303.391 125.621 303.463 125.799 303.559 126.025C303.752 126.476 304.04 127.115 304.428 127.879C305.202 129.406 306.377 131.441 307.978 133.467C311.168 137.505 316.151 141.62 323.109 141.386L323.055 139.787Z" fill="#F0F5FC" mask="url(#path-118-inside-4_263_350)"/>
<path d="M328.741 111.72C333.795 121.011 336.351 140.14 323.082 140.586C309.898 141.03 304.016 125.024 304.016 125.024" fill="#1B1D20"/>
<path d="M328.741 111.72C333.795 121.011 336.351 140.14 323.082 140.586C309.898 141.03 304.016 125.024 304.016 125.024" stroke="#F0F5FC" stroke-width="2.4" stroke-linecap="round" stroke-linejoin="round"/>
<mask id="path-122-inside-5_263_350" fill="white">
<path d="M281.694 132.065C283.891 139.487 291.109 142.538 297.573 141.326C306.428 139.666 305.507 134.588 305.342 129.448L303.283 116.972"/>
</mask>
<path d="M281.694 132.065C283.891 139.487 291.109 142.538 297.573 141.326C306.428 139.666 305.507 134.588 305.342 129.448L303.283 116.972" fill="#1B1D20"/>
<path d="M297.573 141.326L297.721 142.112L297.721 142.112L297.573 141.326ZM305.342 129.448L306.142 129.423L306.14 129.37L306.132 129.318L305.342 129.448ZM280.927 132.292C283.264 140.186 290.939 143.383 297.721 142.112L297.426 140.54C291.278 141.692 284.518 138.788 282.461 131.838L280.927 132.292ZM297.721 142.112C302.304 141.253 304.587 139.454 305.582 136.992C306.061 135.805 306.213 134.527 306.243 133.258C306.272 132.004 306.182 130.666 306.142 129.423L304.543 129.474C304.585 130.8 304.671 132.025 304.643 133.22C304.615 134.401 304.475 135.46 304.098 136.392C303.381 138.169 301.697 139.739 297.426 140.54L297.721 142.112ZM306.132 129.318L304.072 116.842L302.493 117.102L304.553 129.579L306.132 129.318Z" fill="#F0F5FC" mask="url(#path-122-inside-5_263_350)"/>
<path d="M281.694 132.065C283.891 139.487 291.109 142.538 297.573 141.326C306.428 139.666 305.507 134.588 305.342 129.448L303.283 116.972" fill="#1B1D20"/>
<path d="M281.694 132.065C283.891 139.487 291.109 142.538 297.573 141.326C306.428 139.666 305.507 134.588 305.342 129.448L303.283 116.972" stroke="#F0F5FC" stroke-width="2.4" stroke-linecap="round" stroke-linejoin="round"/>
<path d="M533.806 480.628L532.351 480.79H467.239V454.848H532.352L533.805 455.009L535.161 455.485L536.361 456.26L537.322 457.305L537.95 458.567L538.173 459.982V475.656L537.951 477.071L537.323 478.332L536.362 479.378L535.161 480.153L533.806 480.628Z" fill="#1B1D20" stroke="#F0F5FC" stroke-width="0.8"/>
<path d="M466.839 481.19H532.374L533.896 481.021L535.338 480.515L536.622 479.686L537.656 478.561L538.336 477.194L538.573 475.687V459.95L538.335 458.444L537.655 457.077L536.621 455.951L535.338 455.123L533.895 454.617L532.374 454.448H466.839V481.19Z" fill="#1B1D20" stroke="#F0F5FC" stroke-width="2.4" stroke-linecap="round" stroke-linejoin="round"/>
<path d="M478.289 480.464L475.915 480.79H455.884L402.547 301.37H420.145L422.748 301.7L425.366 302.667L427.84 304.205L429.999 306.205L431.688 308.53L432.795 311.037L482.408 471.357L482.85 473.844L482.605 476.113L481.717 478.042L480.251 479.523L478.289 480.464Z" fill="#1B1D20" stroke="#F0F5FC" stroke-width="0.8"/>
<path d="M455.586 481.19H475.942L478.406 480.851L480.487 479.853L482.051 478.273L482.995 476.221L483.254 473.83L482.798 471.263L433.171 310.896L432.037 308.33L430.3 305.939L428.084 303.885L425.543 302.306L422.844 301.309L420.17 300.97H402.011L455.586 481.19Z" fill="#1B1D20" stroke="#F0F5FC" stroke-width="2.4" stroke-linecap="round" stroke-linejoin="round"/>
<path d="M465.147 480.415L462.421 480.79H231.764L228.778 480.411L225.773 479.301L222.935 477.537L220.459 475.242L218.522 472.575L217.252 469.7L168.52 312.226L168.013 309.369L168.294 306.759L169.317 304.535L171.007 302.829L173.268 301.745L175.995 301.37H406.652L409.637 301.749L412.641 302.858L415.48 304.623L417.957 306.918L419.894 309.584L421.164 312.46L469.895 469.934L470.403 472.79L470.122 475.401L469.099 477.624L467.41 479.331L465.147 480.415Z" fill="#1B1D20" stroke="#F0F5FC" stroke-width="0.8"/>
<path d="M231.739 481.19H462.448L465.264 480.803L467.645 479.662L469.433 477.855L470.512 475.509L470.807 472.776L470.285 469.84L421.539 312.32L420.243 309.383L418.257 306.651L415.724 304.304L412.818 302.497L409.733 301.358L406.677 300.97H175.968L173.151 301.358L170.772 302.498L168.983 304.304L167.903 306.651L167.609 309.383L168.13 312.32L216.877 469.84L218.173 472.776L220.159 475.509L222.691 477.856L225.597 479.662L228.682 480.803L231.739 481.19Z" fill="#1B1D20" stroke="#F0F5FC" stroke-width="2.4" stroke-linecap="round" stroke-linejoin="round"/>
<path d="M434.113 481.439L431.038 471.502L429.397 467.784L426.883 464.324L423.676 461.353L419.997 459.066L416.091 457.622L412.223 457.132H267.075L263.51 457.622L260.495 459.066L258.233 461.353L256.866 464.324L256.494 467.784L257.153 471.502L260.151 481.19" stroke="#F0F5FC" stroke-width="2.4" stroke-linecap="round" stroke-linejoin="round"/>
<path d="M339.469 391.079C342.931 402.269 336.668 411.34 325.478 411.34C314.288 411.34 302.408 402.269 298.946 391.079C295.483 379.889 301.747 370.818 312.937 370.818C324.127 370.818 336.006 379.889 339.469 391.079Z" stroke="#F0F5FC" stroke-width="2.4" stroke-linecap="round" stroke-linejoin="round"/>
<path d="M37.5567 309.585L37.9116 309.426L37.5567 309.585C38.0715 310.731 38.54 312.474 38.9613 314.67C39.3813 316.859 39.7498 319.475 40.0729 322.354C40.7188 328.11 41.1805 334.9 41.5089 341.397C41.8373 347.894 42.0321 354.094 42.1449 358.67C42.2012 360.958 42.2371 362.839 42.2588 364.149C42.2662 364.591 42.2719 364.968 42.2763 365.273C42.051 365.067 41.7731 364.812 41.4476 364.513C40.4835 363.627 39.1012 362.349 37.4291 360.787C34.0846 357.662 29.5813 353.396 24.9449 348.834C20.3079 344.271 15.5412 339.414 11.6686 335.106C9.73219 332.952 8.02254 330.938 6.66552 329.169C5.30434 327.395 4.31356 325.887 3.79881 324.74C-0.386287 315.418 3.77736 304.469 13.0996 300.282C22.4218 296.096 33.3716 300.262 37.5567 309.585Z" fill="#1B1D20" stroke="#F0F5FC" stroke-width="0.8"/>
<path d="M37.9216 309.421C42.1977 318.944 42.6882 366.191 42.6882 366.191C42.6882 366.191 7.70946 334.428 3.4339 324.904C-0.84167 315.38 3.412 304.194 12.9358 299.917C22.4595 295.641 33.6461 299.897 37.9216 309.421Z" fill="#1B1D20" stroke="#F0F5FC" stroke-width="2.4" stroke-linecap="round" stroke-linejoin="round"/>
<path d="M113.795 370.494C113.924 373.04 113.527 376.647 112.721 381.031C111.915 385.409 110.706 390.537 109.224 396.114C106.261 407.269 102.209 420.203 98.1233 432.494C94.0376 444.785 89.919 456.427 86.8217 464.997C85.2731 469.282 83.9798 472.799 83.0738 475.245C82.6208 476.467 82.2646 477.422 82.0217 478.071C82.0048 478.116 81.9885 478.16 81.9728 478.202C81.9529 478.161 81.9322 478.12 81.9109 478.077C81.6038 477.455 81.1531 476.541 80.579 475.371C79.4309 473.029 77.7895 469.661 75.8164 465.554C71.8703 457.34 66.5981 446.173 61.2934 434.357C55.9882 422.541 50.6526 410.082 46.5785 399.283C44.5413 393.884 42.8213 388.904 41.5783 384.63C40.3334 380.349 39.5744 376.8 39.4457 374.255C38.4071 353.724 54.2086 336.237 74.741 335.199C95.2706 334.16 112.757 349.963 113.795 370.494Z" fill="#1B1D20" stroke="#F0F5FC" stroke-width="0.8"/>
<path d="M114.195 370.473C115.245 391.225 82.0235 479.204 82.0235 479.204C82.0235 479.204 40.0958 395.026 39.0462 374.275C37.9965 353.524 53.9677 335.848 74.7208 334.8C95.471 333.749 113.145 349.722 114.195 370.473Z" fill="#1B1D20" stroke="#F0F5FC" stroke-width="2.4" stroke-linecap="round" stroke-linejoin="round"/>
<path d="M132.969 345.386L132.969 345.387C132.579 346.581 131.753 348.185 130.587 350.093C129.424 351.996 127.937 354.179 126.239 356.525C122.843 361.219 118.616 366.552 114.486 371.58C110.358 376.607 106.33 381.324 103.334 384.785C101.837 386.516 100.597 387.932 99.7318 388.915C99.4397 389.247 99.1903 389.53 98.988 389.759C98.9601 389.455 98.926 389.08 98.8866 388.639C98.7699 387.335 98.6068 385.46 98.4211 383.179C98.0498 378.617 97.5886 372.431 97.2288 365.937C96.869 359.441 96.6109 352.641 96.6451 346.848C96.6622 343.952 96.7523 341.312 96.9387 339.09C97.1255 336.862 97.4073 335.079 97.7981 333.885C100.975 324.172 111.423 318.874 121.136 322.049C130.85 325.224 136.146 335.674 132.969 345.386Z" fill="#1B1D20" stroke="#F0F5FC" stroke-width="0.8"/>
<path d="M133.349 345.511C130.104 355.433 98.6754 390.715 98.6754 390.715C98.6754 390.715 94.1721 343.683 97.4179 333.761C100.664 323.838 111.337 318.425 121.261 321.669C131.184 324.913 136.595 335.588 133.349 345.511Z" fill="#1B1D20" stroke="#F0F5FC" stroke-width="2.4" stroke-linecap="round" stroke-linejoin="round"/>
<path d="M28.3123 276.992C28.5844 277.706 28.8111 278.79 28.9936 280.166C29.1752 281.535 29.3101 283.168 29.4075 284.965C29.6021 288.558 29.6457 292.786 29.6169 296.831C29.5881 300.875 29.4871 304.73 29.3933 307.574C29.3464 308.996 29.3012 310.165 29.2679 310.979C29.2628 311.103 29.2579 311.219 29.2534 311.327C29.1785 311.25 29.0975 311.166 29.0108 311.077C28.4442 310.492 27.632 309.65 26.65 308.62C24.686 306.561 22.0436 303.752 19.3295 300.755C16.6147 297.756 13.8314 294.573 11.5839 291.763C10.4601 290.358 9.47334 289.05 8.69713 287.907C7.91707 286.759 7.36407 285.799 7.09201 285.086C4.85707 279.226 7.79604 272.664 13.6559 270.429C19.5158 268.194 26.0774 271.133 28.3123 276.992Z" fill="#1B1D20" stroke="#F0F5FC" stroke-width="0.8"/>
<path d="M28.6861 276.85C30.9997 282.916 29.6124 312.268 29.6124 312.268C29.6124 312.268 9.03194 291.295 6.71827 285.228C4.40459 279.162 7.44712 272.369 13.5134 270.056C19.5797 267.742 26.3724 270.784 28.6861 276.85Z" fill="#1B1D20" stroke="#F0F5FC" stroke-width="2.4" stroke-linecap="round" stroke-linejoin="round"/>
<path d="M76.9391 481.497C58.909 481.497 44.2921 466.88 44.2921 448.85V423.071H109.586V448.85C109.586 466.88 94.9692 481.497 76.9391 481.497Z" fill="#1B1D20" stroke="#682EC6" stroke-width="0.8"/>
<path d="M76.9391 481.897C58.6881 481.897 43.8921 467.101 43.8921 448.85V422.671H109.986V448.85C109.986 467.101 95.1901 481.897 76.9391 481.897Z" fill="#1B1D20" stroke="#682EC6" stroke-width="2.4" stroke-linecap="round" stroke-linejoin="round"/>
<path d="M675.42 28.7597C678.487 36.9742 685.711 56.4294 686.857 59.8023L686.963 60.1143L687.29 60.07C690.815 59.5918 710.697 57.536 719.216 56.6576C718.155 57.0603 716.906 57.5345 715.53 58.057C706.523 61.4773 692.073 66.9645 689.147 67.9589L688.835 68.0649L688.879 68.3914C689.357 71.9162 691.535 92.4032 692.447 101.085C689.376 92.9138 682.137 73.6211 680.99 70.2483L680.884 69.9363L680.558 69.9806C677.033 70.4589 657.475 72.5498 649.044 73.4375C650.953 72.7031 653.467 71.7307 656.232 70.6616C664.943 67.2924 676.139 62.9623 678.701 62.0918L679.013 61.9858L678.968 61.6593C678.49 58.1345 676.327 37.486 675.42 28.7597Z" fill="#1B1D20" stroke="#F0F5FC" stroke-width="0.8"/>
<path d="M674.7 25.6945C676.452 30.3527 685.908 55.7655 687.236 59.6736C691.32 59.1196 717.273 56.4565 722.23 55.9448C717.572 57.6965 693.184 67.0094 689.275 68.3376C689.83 72.4214 692.656 99.183 693.167 104.14C691.416 99.4815 681.94 74.2851 680.612 70.377C676.528 70.9311 651.009 73.6409 646.052 74.1526C650.71 72.4009 674.664 63.0412 678.572 61.7131C678.018 57.6292 675.212 30.6512 674.7 25.6945Z" fill="#1B1D20" stroke="#F0F5FC" stroke-width="2.4" stroke-linecap="round" stroke-linejoin="round"/>
<path d="M427.487 49.4928C432.285 48.3354 434.297 54.963 429.663 56.668C424.866 57.8253 422.853 51.1978 427.487 49.4928Z" fill="#1B1D20" stroke="#F0F5FC" stroke-width="0.694471"/>
<path d="M427.386 49.16C422.312 51.0065 424.521 58.2855 429.764 57.0008C434.838 55.1543 432.629 47.8753 427.386 49.16Z" fill="#1B1D20" stroke="#F0F5FC" stroke-width="2.08341" stroke-linecap="round" stroke-linejoin="round"/>
<path d="M113.448 182.227C95.6163 184.756 80.843 198.51 78.2531 216.013C75.6737 198.363 60.7636 184.017 40.1147 181.971C50.4197 180.603 59.3999 177.751 66.0801 172.73C72.5492 167.868 76.8321 160.995 78.0912 151.55C79.4068 160.864 83.7806 168.108 90.1004 173.24C96.3618 178.325 104.513 181.32 113.448 182.227Z" fill="#1B1D20" stroke="#F0F5FC" stroke-width="0.8"/>
<path d="M78.0771 145.491C78.0771 169.82 97.0501 182.121 119.361 182.121L119.36 182.209C97.2891 182.209 78.2505 199.708 78.2505 221.497C78.2505 200.185 60.2713 182.121 35.0039 182.121C59.8021 180.017 78.0771 170.54 78.0771 145.491Z" fill="#1B1D20" stroke="#F0F5FC" stroke-width="2.4" stroke-linecap="round" stroke-linejoin="round"/>
<path d="M815.665 50.5048C821.387 50.5048 826.025 55.1426 826.025 60.864C826.025 66.5853 821.387 71.2232 815.665 71.2232C809.944 71.2232 805.306 66.5853 805.306 60.864C805.306 55.1426 809.944 50.5048 815.665 50.5048Z" fill="#1B1D20" stroke="#F0F5FC" stroke-width="0.768877"/>
<path d="M826.409 60.864C826.409 54.9303 821.599 50.1204 815.665 50.1204C809.732 50.1204 804.922 54.9303 804.922 60.864C804.922 66.7976 809.732 71.6076 815.665 71.6076C821.599 71.6076 826.409 66.7976 826.409 60.864Z" fill="#1B1D20" stroke="#F0F5FC" stroke-width="2.30663" stroke-linecap="round" stroke-linejoin="round"/>
</g>
</g>
<defs>
<clipPath id="clip0_263_350">
<rect width="854" height="500" fill="white"/>
</clipPath>
</defs>
</svg>
