<svg width="1794" height="1065" viewBox="0 0 1794 1065" fill="none" xmlns="http://www.w3.org/2000/svg">
<g clip-path="url(#clip0_67_4326)">
<mask id="mask0_67_4326" style="mask-type:luminance" maskUnits="userSpaceOnUse" x="-115" y="-216" width="2054" height="1540">
<path d="M1939 -216H-115V1324H1939V-216Z" fill="white"/>
</mask>
<g mask="url(#mask0_67_4326)">
<mask id="mask1_67_4326" style="mask-type:luminance" maskUnits="userSpaceOnUse" x="-114" y="-273" width="2055" height="1644">
<path d="M-113.459 -272.467H1940.54V1370.2H-113.459V-272.467Z" fill="white"/>
</mask>
<g mask="url(#mask1_67_4326)">
<path d="M618.074 98.364L524.161 169.702L630.347 221.033L512.536 215.333L560.872 322.887L474.288 242.819L442.159 356.27L427.315 239.298L329.757 305.561L393.598 206.416L276.254 194.488L388.911 159.561L306.692 75.0215L415.447 120.658L406.824 3.06116L460.792 107.906L529.797 12.2819L503.727 127.275L618.074 98.364Z" fill="#682EC6"/>
<path d="M618.074 98.364L524.161 169.702L630.347 221.033L512.536 215.333L560.872 322.887L474.288 242.819L442.159 356.27L427.315 239.298L329.757 305.561L393.598 206.416L276.254 194.488L388.911 159.561L306.692 75.0215L415.447 120.658L406.824 3.06116L460.792 107.906L529.797 12.2819L503.727 127.275L618.074 98.364Z" stroke="#202020" stroke-width="4.8" stroke-linecap="round" stroke-linejoin="round"/>
<path d="M1729.22 873.506C1729.34 884.771 1732.25 925.78 1732.05 935.122C1741.16 937.11 1780.35 949.555 1791.3 952.309C1780.03 952.424 1739 955.333 1729.66 955.128C1727.68 964.242 1715.23 1003.42 1712.47 1014.36C1712.35 1003.1 1709.45 962.088 1709.66 952.748C1700.53 950.76 1661.34 938.315 1650.4 935.559C1661.67 935.446 1702.69 932.537 1712.03 932.742C1714.02 923.628 1726.48 884.444 1729.22 873.506Z" fill="white"/>
<path d="M1729.22 873.506C1729.34 884.771 1732.25 925.78 1732.05 935.122C1741.16 937.11 1780.35 949.555 1791.3 952.309C1780.03 952.424 1739 955.333 1729.66 955.128C1727.68 964.242 1715.23 1003.42 1712.47 1014.36C1712.35 1003.1 1709.45 962.088 1709.66 952.748C1700.53 950.76 1661.34 938.315 1650.4 935.559C1661.67 935.446 1702.69 932.537 1712.03 932.742C1714.02 923.628 1726.48 884.444 1729.22 873.506Z" stroke="#202020" stroke-width="4.8" stroke-linecap="round" stroke-linejoin="round"/>
<path d="M81.6309 695.026C81.817 706.289 84.9891 747.279 84.8441 756.62C93.9741 758.55 133.249 770.745 144.207 773.429C132.94 773.616 91.9368 776.788 82.5924 776.642C80.6616 785.769 68.4634 825.031 65.7778 835.986C65.5917 824.722 62.4183 783.732 62.5646 774.391C53.4346 772.461 14.1595 760.266 3.20117 757.582C14.4689 757.396 55.4719 754.224 64.8163 754.369C66.7471 745.242 78.9453 705.98 81.6309 695.026Z" fill="white"/>
<path d="M81.6309 695.026C81.817 706.289 84.9891 747.279 84.8441 756.62C93.9741 758.55 133.249 770.745 144.207 773.429C132.94 773.616 91.9368 776.788 82.5924 776.642C80.6616 785.769 68.4634 825.031 65.7778 835.986C65.5917 824.722 62.4182 783.732 62.5646 774.391C53.4346 772.461 14.1595 760.266 3.20117 757.582C14.4689 757.396 55.4719 754.224 64.8163 754.369C66.7471 745.242 78.9453 705.98 81.6309 695.026Z" stroke="#202020" stroke-width="4.8" stroke-linecap="round" stroke-linejoin="round"/>
<path d="M314.826 565.638L102.785 520.995C95.0976 519.376 90.1757 511.832 91.7958 504.148C93.4159 496.462 100.962 491.543 108.649 493.162L320.69 537.806C328.377 539.425 333.299 546.969 331.679 554.653C330.059 562.338 322.513 567.258 314.826 565.638Z" fill="white"/>
<path d="M314.826 565.638L102.785 520.995C95.0976 519.376 90.1757 511.832 91.7958 504.148C93.4159 496.462 100.962 491.543 108.649 493.162L320.69 537.806C328.377 539.425 333.299 546.969 331.679 554.653C330.059 562.338 322.513 567.258 314.826 565.638Z" stroke="#202020" stroke-width="4.8" stroke-linecap="round" stroke-linejoin="round"/>
<path d="M354.18 449.218L230.243 355.592C225.756 352.202 224.866 345.82 228.258 341.336C231.648 336.851 238.033 335.963 242.518 339.352L366.455 432.978C370.942 436.368 371.831 442.749 368.44 447.234C365.049 451.718 358.665 452.608 354.18 449.218Z" fill="white"/>
<path d="M354.18 449.218L230.243 355.592C225.756 352.202 224.866 345.82 228.258 341.336C231.648 336.851 238.033 335.963 242.518 339.352L366.455 432.978C370.942 436.368 371.831 442.749 368.44 447.234C365.049 451.718 358.665 452.608 354.18 449.218Z" stroke="#202020" stroke-width="4.8" stroke-linecap="round" stroke-linejoin="round"/>
<path d="M1584.6 221.809C1572.32 224.98 1575.04 241.715 1587.52 239.837C1599.78 236.668 1597.06 219.933 1584.6 221.809Z" fill="white"/>
<path d="M1584.6 221.809C1572.32 224.98 1575.04 241.715 1587.52 239.837C1599.78 236.668 1597.06 219.933 1584.6 221.809Z" stroke="#202020" stroke-width="4.8" stroke-linecap="round" stroke-linejoin="round"/>
<path d="M176.147 152.657C163.341 148.835 156.983 166.551 169.295 171.74C182.101 175.562 188.458 157.845 176.147 152.657Z" fill="white"/>
<path d="M176.147 152.657C163.341 148.835 156.983 166.551 169.295 171.74C182.101 175.562 188.458 157.845 176.147 152.657Z" stroke="#202020" stroke-width="4.8" stroke-linecap="round" stroke-linejoin="round"/>
<path d="M133.182 290.838C133.182 276.944 121.913 265.679 108.014 265.679C94.1145 265.679 82.8457 276.944 82.8457 290.838C82.8457 304.733 94.1145 315.998 108.014 315.998C121.913 315.998 133.182 304.733 133.182 290.838Z" fill="white"/>
<path d="M133.182 290.838C133.182 276.944 121.913 265.679 108.014 265.679C94.1145 265.679 82.8457 276.944 82.8457 290.838C82.8457 304.733 94.1145 315.998 108.014 315.998C121.913 315.998 133.182 304.733 133.182 290.838Z" stroke="#202020" stroke-width="4.8" stroke-linecap="round" stroke-linejoin="round"/>
<path d="M1657.46 326.928C1657.46 313.034 1646.2 301.769 1632.3 301.769C1618.4 301.769 1607.12 313.034 1607.12 326.928C1607.12 340.823 1618.4 352.088 1632.3 352.088C1646.2 352.088 1657.46 340.823 1657.46 326.928Z" fill="white"/>
<path d="M1657.46 326.928C1657.46 313.034 1646.2 301.769 1632.3 301.769C1618.4 301.769 1607.12 313.034 1607.12 326.928C1607.12 340.823 1618.4 352.088 1632.3 352.088C1646.2 352.088 1657.46 340.823 1657.46 326.928Z" stroke="#202020" stroke-width="4.8" stroke-linecap="round" stroke-linejoin="round"/>
</g>
<path d="M1584.58 1040.59C1363.39 1065.2 1113.26 1060.2 890.648 1062.39C668.072 1060.2 417.864 1065.2 196.715 1040.59C417.91 1015.99 668.036 1020.98 890.648 1018.8C1113.2 1020.98 1362.9 1015.93 1584.58 1040.59Z" fill="#202020"/>
<path d="M1584.58 1040.59C1363.39 1065.2 1113.26 1060.2 890.649 1062.39C668.072 1060.2 417.864 1065.2 196.715 1040.59C417.91 1015.99 668.036 1020.98 890.649 1018.8C1113.2 1020.98 1362.9 1015.93 1584.58 1040.59Z" stroke="#202020" stroke-width="4.8" stroke-linecap="round" stroke-linejoin="round"/>
<path d="M1129.94 978.288H763.741V798.224H1129.94V978.288Z" fill="white"/>
<path d="M1129.94 978.288H763.741V798.224H1129.94V978.288Z" stroke="#202020" stroke-width="4.8" stroke-linecap="round" stroke-linejoin="round"/>
<path d="M763.74 978.288H690.046V798.224H763.74V978.288Z" fill="#202020"/>
<path d="M763.74 978.288H690.046V798.224H763.74V978.288Z" stroke="#202020" stroke-width="4.8" stroke-linecap="round" stroke-linejoin="round"/>
<path d="M690.047 1036.24H574.715V1011.14C574.715 992.996 589.427 978.288 607.579 978.288H690.047V1036.24Z" fill="#202020"/>
<path d="M690.047 1036.24H574.715V1011.14C574.715 992.996 589.427 978.288 607.579 978.288H690.047V1036.24Z" stroke="#202020" stroke-width="4.8" stroke-linecap="round" stroke-linejoin="round"/>
<path d="M1129.94 843.766H690.046V798.224H1129.94V843.766Z" fill="#202020"/>
<path d="M1129.94 843.766H690.046V798.224H1129.94V843.766Z" stroke="#202020" stroke-width="4.8" stroke-linecap="round" stroke-linejoin="round"/>
<path d="M1244.95 1036.24H648.406V1011.14C648.406 992.996 663.119 978.288 681.27 978.288H1212.09C1230.24 978.288 1244.95 992.996 1244.95 1011.14V1036.24Z" fill="white"/>
<path d="M1244.95 1036.24H648.406V1011.14C648.406 992.996 663.119 978.288 681.27 978.288H1212.09C1230.24 978.288 1244.95 992.996 1244.95 1011.14V1036.24Z" stroke="#202020" stroke-width="4.8" stroke-linecap="round" stroke-linejoin="round"/>
<path d="M1328.68 798.224H440.073C417.384 798.224 398.993 779.837 398.993 757.157V220.981C398.993 198.301 417.384 179.915 440.073 179.915H1328.68C1351.36 179.915 1369.76 198.301 1369.76 220.981V757.157C1369.76 779.837 1351.36 798.224 1328.68 798.224Z" fill="#202020"/>
<path d="M1328.68 798.224H440.073C417.384 798.224 398.993 779.837 398.993 757.157V220.981C398.993 198.301 417.384 179.915 440.073 179.915H1328.68C1351.36 179.915 1369.76 198.301 1369.76 220.981V757.157C1369.76 779.837 1351.36 798.224 1328.68 798.224Z" stroke="#202020" stroke-width="4.8" stroke-linecap="round" stroke-linejoin="round"/>
<path d="M1369.07 798.224H480.461C457.772 798.224 439.381 779.837 439.381 757.157V220.981C439.381 198.301 457.772 179.915 480.461 179.915H1369.07C1391.75 179.915 1410.15 198.301 1410.15 220.981V757.157C1410.15 779.837 1391.75 798.224 1369.07 798.224Z" fill="white"/>
<path d="M1369.07 798.224H480.461C457.772 798.224 439.381 779.837 439.381 757.157V220.981C439.381 198.301 457.772 179.915 480.461 179.915H1369.07C1391.75 179.915 1410.15 198.301 1410.15 220.981V757.157C1410.15 779.837 1391.75 798.224 1369.07 798.224Z" stroke="#202020" stroke-width="4.8" stroke-linecap="round" stroke-linejoin="round"/>
<path d="M1410.15 286.027V220.981C1410.15 198.301 1391.75 179.915 1369.07 179.915H480.461C457.772 179.915 439.381 198.301 439.381 220.981V286.027H1410.15Z" fill="white"/>
<path d="M1410.15 286.027V220.981C1410.15 198.301 1391.75 179.915 1369.07 179.915H480.461C457.772 179.915 439.381 198.301 439.381 220.981V286.027H1410.15Z" stroke="#202020" stroke-width="4.8" stroke-linecap="round" stroke-linejoin="round"/>
<path d="M1291.3 233.902C1291.3 223.537 1282.89 215.135 1272.52 215.135C1262.16 215.135 1253.75 223.537 1253.75 233.902C1253.75 244.266 1262.16 252.669 1272.52 252.669C1282.89 252.669 1291.3 244.266 1291.3 233.902Z" fill="#682EC6"/>
<path d="M1291.3 233.902C1291.3 223.537 1282.89 215.135 1272.52 215.135C1262.16 215.135 1253.75 223.537 1253.75 233.902C1253.75 244.266 1262.16 252.669 1272.52 252.669C1282.89 252.669 1291.3 244.266 1291.3 233.902Z" stroke="#202020" stroke-width="4.8" stroke-linecap="round" stroke-linejoin="round"/>
<path d="M1368.31 233.902C1368.31 223.537 1359.9 215.135 1349.54 215.135C1339.17 215.135 1330.76 223.537 1330.76 233.902C1330.76 244.266 1339.17 252.669 1349.54 252.669C1359.9 252.669 1368.31 244.266 1368.31 233.902Z" fill="#682EC6"/>
<path d="M1368.31 233.902C1368.31 223.537 1359.9 215.135 1349.54 215.135C1339.17 215.135 1330.76 223.537 1330.76 233.902C1330.76 244.266 1339.17 252.669 1349.54 252.669C1359.9 252.669 1368.31 244.266 1368.31 233.902Z" stroke="#202020" stroke-width="4.8" stroke-linecap="round" stroke-linejoin="round"/>
<path d="M723.085 399.123C724.5 392.399 717.814 382.522 721.175 376.691C724.569 370.802 736.498 371.624 741.54 367.062C746.531 362.546 746.894 350.579 753.169 347.773C759.224 345.064 768.354 352.71 775.309 351.966C782.263 351.223 789.568 341.82 796.06 343.188C802.788 344.601 805.671 356.223 811.505 359.583C817.398 362.976 828.883 359.646 833.445 364.685C837.964 369.675 833.52 380.744 836.326 387.016C839.033 393.071 850.315 397.093 851.058 404.046C851.802 410.998 841.629 417.313 840.262 423.805C838.847 430.528 845.533 440.406 842.172 446.237C838.778 452.125 826.849 451.303 821.807 455.865C816.816 460.382 816.454 472.348 810.179 475.155C804.123 477.862 794.993 470.218 788.038 470.961C781.084 471.704 773.779 481.107 767.287 479.74C760.559 478.326 757.676 466.704 751.842 463.344C745.949 459.952 734.464 463.281 729.902 458.241C725.383 453.252 729.829 442.183 727.021 435.91C724.314 429.855 713.032 425.831 712.289 418.882C711.545 411.929 721.718 405.613 723.085 399.123Z" fill="#202020"/>
<path d="M723.085 399.123C724.5 392.399 717.814 382.522 721.175 376.691C724.569 370.802 736.498 371.624 741.54 367.062C746.531 362.546 746.894 350.579 753.169 347.773C759.224 345.064 768.354 352.71 775.309 351.966C782.263 351.223 789.568 341.82 796.06 343.188C802.788 344.601 805.671 356.223 811.505 359.583C817.398 362.976 828.883 359.646 833.445 364.685C837.964 369.675 833.52 380.744 836.326 387.016C839.033 393.071 850.315 397.093 851.058 404.046C851.802 410.998 841.629 417.313 840.262 423.805C838.847 430.528 845.533 440.406 842.172 446.237C838.778 452.125 826.849 451.303 821.807 455.865C816.816 460.382 816.454 472.348 810.179 475.155C804.123 477.862 794.993 470.218 788.038 470.961C781.084 471.704 773.779 481.107 767.287 479.74C760.559 478.326 757.676 466.704 751.842 463.344C745.949 459.952 734.464 463.281 729.902 458.241C725.383 453.252 729.829 442.183 727.021 435.91C724.314 429.855 713.032 425.831 712.289 418.882C711.545 411.929 721.718 405.613 723.085 399.123Z" stroke="#202020" stroke-width="4.8" stroke-linecap="round" stroke-linejoin="round"/>
<path d="M937.092 143.903C863.655 161.145 818.104 234.636 835.351 308.05C841.971 336.229 856.902 360.276 876.917 378.268L866.581 440.978L918.15 403.808C943.177 413.715 971.363 416.377 999.551 409.758C1072.99 392.516 1118.54 319.024 1101.29 245.611C1084.05 172.197 1010.53 126.66 937.092 143.903Z" fill="white"/>
<path d="M937.092 143.903C863.655 161.145 818.104 234.636 835.351 308.05C841.971 336.229 856.902 360.276 876.917 378.268L866.581 440.978L918.15 403.808C943.177 413.715 971.363 416.377 999.551 409.758C1072.99 392.516 1118.54 319.024 1101.29 245.611C1084.05 172.197 1010.53 126.66 937.092 143.903Z" stroke="#202020" stroke-width="4.8" stroke-linecap="round" stroke-linejoin="round"/>
<path d="M894.42 264.366L967.721 344.744" stroke="#202020" stroke-width="9.50256" stroke-linecap="round" stroke-linejoin="round"/>
<path d="M903.734 255.878L885.108 272.854" stroke="#202020" stroke-width="9.50256" stroke-linecap="round" stroke-linejoin="round"/>
<path d="M977.033 336.258L958.407 353.234" stroke="#202020" stroke-width="9.50256" stroke-linecap="round" stroke-linejoin="round"/>
<path d="M935.805 226.652L1009.11 307.03" stroke="#202020" stroke-width="9.50256" stroke-linecap="round" stroke-linejoin="round"/>
<path d="M945.119 218.162L926.493 235.138" stroke="#202020" stroke-width="9.50256" stroke-linecap="round" stroke-linejoin="round"/>
<path d="M1018.42 298.542L999.793 315.517" stroke="#202020" stroke-width="9.50256" stroke-linecap="round" stroke-linejoin="round"/>
<path d="M931.291 304.355L972.083 267.176" stroke="#202020" stroke-width="9.50256" stroke-linecap="round" stroke-linejoin="round"/>
<path d="M1004.66 234.632L1043.7 277.451" stroke="#202020" stroke-width="9.8351" stroke-linecap="round" stroke-linejoin="round"/>
<path d="M1014.29 225.848L995.017 243.417" stroke="#202020" stroke-width="9.8351" stroke-linecap="round" stroke-linejoin="round"/>
<path d="M1053.34 268.666L1034.06 286.235" stroke="#202020" stroke-width="9.8351" stroke-linecap="round" stroke-linejoin="round"/>
<path d="M996.895 217.061C999.359 219.765 999.168 223.954 996.463 226.418C993.758 228.88 989.568 228.689 987.103 225.985C984.639 223.281 984.831 219.091 987.536 216.628C990.24 214.166 994.432 214.357 996.895 217.061Z" fill="#202020"/>
<path d="M743.061 517.031C743.061 517.031 745.793 415.446 746.054 412.713C747.883 393.573 762.954 377.711 782.824 375.586C802.694 373.462 820.78 385.779 826.617 404.1C827.45 406.717 851.608 505.426 851.608 505.426C859.594 540.641 740.973 543.876 743.061 517.031Z" fill="white"/>
<path d="M743.061 517.031C743.061 517.031 745.793 415.446 746.054 412.713C747.883 393.573 762.954 377.711 782.824 375.586C802.694 373.462 820.78 385.779 826.617 404.1C827.45 406.717 851.608 505.426 851.608 505.426C859.594 540.641 740.973 543.876 743.061 517.031Z" stroke="#202020" stroke-width="4.8" stroke-linecap="round" stroke-linejoin="round"/>
<path d="M746.053 412.713C745.945 413.861 745.396 432.425 744.803 453.58C746.621 449.146 747.648 443.524 750.546 440.902C755.178 436.712 766.76 437.969 769.877 432.558C772.964 427.201 765.928 419.8 767.378 411.664C769.328 400.713 778.795 400.128 785.263 403.1C790.883 405.683 795.884 415.644 802.199 415.607C808.293 415.571 812.897 404.922 818.993 402.902C821.05 402.22 823.561 402.434 826.167 402.871C819.92 385.242 802.24 373.511 782.824 375.587C762.954 377.711 747.884 393.573 746.053 412.713Z" fill="#202020"/>
<path d="M746.053 412.713C745.945 413.861 745.396 432.425 744.803 453.58C746.621 449.146 747.648 443.524 750.546 440.902C755.178 436.712 766.76 437.969 769.877 432.558C772.964 427.201 765.928 419.8 767.378 411.664C769.328 400.713 778.795 400.128 785.263 403.1C790.883 405.683 795.884 415.644 802.199 415.607C808.293 415.571 812.897 404.922 818.993 402.902C821.05 402.22 823.561 402.434 826.167 402.871C819.92 385.242 802.24 373.511 782.824 375.587C762.954 377.711 747.884 393.573 746.053 412.713Z" stroke="#202020" stroke-width="4.79999" stroke-linecap="round" stroke-linejoin="round"/>
<path d="M828.722 444.009C828.722 444.009 824.455 451.55 810.971 454.145C797.487 456.739 789.139 451.806 789.139 451.806C789.139 451.806 795.818 457.124 810.838 454.427C826.378 451.639 828.722 444.009 828.722 444.009Z" fill="white"/>
<path d="M828.722 444.009C828.722 444.009 824.455 451.55 810.971 454.145C797.487 456.739 789.139 451.806 789.139 451.806C789.139 451.806 795.818 457.124 810.838 454.427C826.378 451.639 828.722 444.009 828.722 444.009Z" stroke="#202020" stroke-width="4.79999" stroke-linecap="round" stroke-linejoin="round"/>
<path d="M813.246 430.941C815.905 423.237 825.035 420.626 831.866 426.067" stroke="#202020" stroke-width="4.79999" stroke-linecap="round" stroke-linejoin="round"/>
<path d="M781.416 436.714C784.717 428.753 794.291 427.73 799.907 432.53" stroke="#202020" stroke-width="4.79999" stroke-linecap="round" stroke-linejoin="round"/>
<mask id="mask2_67_4326" style="mask-type:alpha" maskUnits="userSpaceOnUse" x="436" y="177" width="977" height="624">
<path d="M1369.07 798.224H480.461C457.772 798.224 439.381 779.837 439.381 757.157V220.981C439.381 198.301 457.772 179.915 480.461 179.915H1369.07C1391.75 179.915 1410.15 198.301 1410.15 220.981V757.157C1410.15 779.837 1391.75 798.224 1369.07 798.224Z" fill="white"/>
<path d="M1369.07 798.224H480.461C457.772 798.224 439.381 779.837 439.381 757.157V220.981C439.381 198.301 457.772 179.915 480.461 179.915H1369.07C1391.75 179.915 1410.15 198.301 1410.15 220.981V757.157C1410.15 779.837 1391.75 798.224 1369.07 798.224Z" stroke="#231F20" stroke-width="4.8" stroke-linecap="round" stroke-linejoin="round"/>
</mask>
<g mask="url(#mask2_67_4326)">
<path d="M920.061 489.743C980.369 490.436 1028.29 485.7 1093.02 531.057C1170.6 585.415 1256.08 676.895 1311.08 726.69C1366.08 776.486 1393.75 901.143 1266.3 906.1C1160.99 910.197 1130.68 879.038 1064.64 784.969C999.595 692.329 938.912 599.046 938.912 599.046" fill="#682EC6"/>
<path d="M920.061 489.743C980.369 490.436 1028.29 485.7 1093.02 531.057C1170.6 585.415 1256.08 676.895 1311.08 726.69C1366.08 776.486 1393.75 901.143 1266.3 906.1C1160.99 910.197 1130.68 879.038 1064.64 784.969C999.595 692.329 938.912 599.046 938.912 599.046" stroke="#202020" stroke-width="4.8" stroke-linecap="round" stroke-linejoin="round"/>
</g>
<mask id="mask3_67_4326" style="mask-type:alpha" maskUnits="userSpaceOnUse" x="436" y="177" width="977" height="624">
<path d="M1369.07 798.224H480.461C457.772 798.224 439.381 779.837 439.381 757.157V220.981C439.381 198.301 457.772 179.915 480.461 179.915H1369.07C1391.75 179.915 1410.15 198.301 1410.15 220.981V757.157C1410.15 779.837 1391.75 798.224 1369.07 798.224Z" fill="white"/>
<path d="M1369.07 798.224H480.461C457.772 798.224 439.381 779.837 439.381 757.157V220.981C439.381 198.301 457.772 179.915 480.461 179.915H1369.07C1391.75 179.915 1410.15 198.301 1410.15 220.981V757.157C1410.15 779.837 1391.75 798.224 1369.07 798.224Z" stroke="#231F20" stroke-width="4.8" stroke-linecap="round" stroke-linejoin="round"/>
</mask>
<g mask="url(#mask3_67_4326)">
<path d="M968.168 573.604C968.168 573.604 1027.11 668.464 1064.64 784.969C1064.64 784.969 1113.05 881.486 810.787 903.426C562.869 921.421 549.902 814.052 549.902 814.052C541.996 767.829 555.942 525.951 658.764 504.552C743.303 495.631 827.814 488.681 920.061 489.742" fill="#682EC6"/>
<path d="M968.168 573.604C968.168 573.604 1027.11 668.464 1064.64 784.969C1064.64 784.969 1113.05 881.486 810.787 903.426C562.869 921.421 549.902 814.052 549.902 814.052C541.996 767.829 555.942 525.951 658.764 504.552C743.303 495.631 827.814 488.681 920.061 489.742" stroke="#202020" stroke-width="4.8" stroke-linecap="round" stroke-linejoin="round"/>
</g>
<mask id="mask4_67_4326" style="mask-type:alpha" maskUnits="userSpaceOnUse" x="436" y="177" width="977" height="624">
<path d="M1369.07 798.224H480.461C457.772 798.224 439.381 779.837 439.381 757.157V220.981C439.381 198.301 457.772 179.915 480.461 179.915H1369.07C1391.75 179.915 1410.15 198.301 1410.15 220.981V757.157C1410.15 779.837 1391.75 798.224 1369.07 798.224Z" fill="white"/>
<path d="M1369.07 798.224H480.461C457.772 798.224 439.381 779.837 439.381 757.157V220.981C439.381 198.301 457.772 179.915 480.461 179.915H1369.07C1391.75 179.915 1410.15 198.301 1410.15 220.981V757.157C1410.15 779.837 1391.75 798.224 1369.07 798.224Z" stroke="#231F20" stroke-width="4.8" stroke-linecap="round" stroke-linejoin="round"/>
</mask>
<g mask="url(#mask4_67_4326)">
<path d="M625.382 592.628C625.382 592.628 571.208 754.917 554.485 813.283C523.147 922.666 335.882 797.289 376.107 711.057C391.741 677.545 423.804 637.977 460.859 599.092C497.228 560.931 532.094 517.918 658.762 504.552" fill="#682EC6"/>
<path d="M625.382 592.628C625.382 592.628 571.208 754.917 554.485 813.283C523.147 922.666 335.882 797.289 376.107 711.057C391.741 677.545 423.804 637.977 460.859 599.092C497.228 560.931 532.094 517.918 658.762 504.552" stroke="#202020" stroke-width="4.8" stroke-linecap="round" stroke-linejoin="round"/>
</g>
<path d="M698.973 180.174C699.137 180.147 698.818 180.15 698.556 179.86C698.575 179.907 698.818 179.987 698.812 179.657C698.737 179.747 698.977 179.907 698.833 179.94C698.494 179.907 699.298 179.827 698.973 180.174Z" fill="white"/>
<path d="M698.973 180.174C699.137 180.147 698.818 180.15 698.556 179.86C698.575 179.907 698.818 179.987 698.812 179.657C698.737 179.747 698.977 179.907 698.833 179.94C698.494 179.907 699.298 179.827 698.973 180.174Z" stroke="#202020" stroke-width="4.8" stroke-linecap="round" stroke-linejoin="round"/>
<mask id="mask5_67_4326" style="mask-type:luminance" maskUnits="userSpaceOnUse" x="316" y="462" width="245" height="340">
<path d="M343.042 500.613C294.773 551.947 305.043 808.613 424.175 801.427C543.307 794.24 582.333 588.907 548.442 517.04C514.551 445.173 391.311 449.28 343.042 500.613Z" fill="white"/>
</mask>
<g mask="url(#mask5_67_4326)">
<path d="M1366.5 801.817H477.893C455.204 801.817 436.813 783.431 436.813 760.75V224.575C436.813 201.894 455.204 183.508 477.893 183.508H1366.5C1389.18 183.508 1407.58 201.894 1407.58 224.575V760.75C1407.58 783.431 1389.18 801.817 1366.5 801.817Z" stroke="#202020" stroke-width="4.8" stroke-linecap="round" stroke-linejoin="round"/>
</g>
<path d="M1479.28 479.12C1479.28 479.12 1502.74 446.811 1520.33 435.355C1530.16 429.025 1541.94 427.394 1547.48 435.785C1554.3 446.074 1550.65 455.065 1543.37 462.398C1530.92 473.884 1526.08 480.985 1508.14 515.263C1486.71 556.202 1461.27 591.819 1461.27 591.819" fill="white"/>
<path d="M1479.28 479.12C1479.28 479.12 1502.74 446.811 1520.33 435.355C1530.16 429.025 1541.94 427.394 1547.48 435.785C1554.3 446.074 1550.65 455.065 1543.37 462.398C1530.92 473.884 1526.08 480.985 1508.14 515.263C1486.71 556.202 1461.27 591.819 1461.27 591.819" stroke="#202020" stroke-width="4.8" stroke-linecap="round" stroke-linejoin="round"/>
<path d="M1444.32 455.612C1450.92 443.166 1482.05 408.48 1504.31 402.11C1512.22 399.95 1522.51 400.642 1526.89 410.459C1531.47 420.759 1524.49 430.103 1515.31 434.786C1499.42 442.894 1479.28 479.119 1479.28 479.119C1467.53 502.986 1431.14 480.443 1444.32 455.612Z" fill="white"/>
<path d="M1444.32 455.612C1450.92 443.166 1482.05 408.48 1504.31 402.11C1512.22 399.95 1522.51 400.642 1526.89 410.459C1531.47 420.759 1524.49 430.103 1515.31 434.786C1499.42 442.894 1479.28 479.119 1479.28 479.119C1467.53 502.986 1431.14 480.443 1444.32 455.612Z" stroke="#202020" stroke-width="4.8" stroke-linecap="round" stroke-linejoin="round"/>
<path d="M1408.31 435.02C1408.31 435.02 1439.78 386.906 1468.06 378.808C1479.43 374.584 1490.29 376.572 1494.27 386.054C1498.03 395.069 1494.28 404.392 1482.92 409.99C1466.32 418.187 1444.41 455.668 1444.41 455.668C1432.46 478.605 1392.66 459.716 1408.31 435.02Z" fill="white"/>
<path d="M1408.31 435.02C1408.31 435.02 1439.78 386.906 1468.06 378.808C1479.43 374.584 1490.29 376.572 1494.27 386.054C1498.03 395.069 1494.28 404.392 1482.92 409.99C1466.32 418.187 1444.41 455.668 1444.41 455.668C1432.46 478.605 1392.66 459.716 1408.31 435.02Z" stroke="#202020" stroke-width="4.8" stroke-linecap="round" stroke-linejoin="round"/>
<path d="M1408.31 435.017C1408.31 435.017 1425.76 409.05 1443.61 378.027C1449.63 367.243 1447.53 356.057 1439.07 350.566C1430.72 345.148 1420.13 348.502 1411.1 359.616C1395 380.985 1383.55 395.658 1369.54 414.603C1355.3 433.853 1390.17 465.193 1408.31 435.017Z" fill="white"/>
<path d="M1408.31 435.017C1408.31 435.017 1425.76 409.05 1443.61 378.027C1449.63 367.243 1447.53 356.057 1439.07 350.566C1430.72 345.148 1420.13 348.502 1411.1 359.616C1395 380.985 1383.55 395.658 1369.54 414.603C1355.3 433.853 1390.17 465.193 1408.31 435.017Z" stroke="#202020" stroke-width="4.8" stroke-linecap="round" stroke-linejoin="round"/>
<path d="M1514.67 502.292C1508.12 515.046 1501.56 527.454 1494.85 539.257C1488.13 551.061 1470.28 579.558 1461.26 591.819C1438.02 634.573 1225.95 559.254 1295.97 481.44L1374.55 408.319" fill="white"/>
<path d="M1514.67 502.292C1508.12 515.046 1501.56 527.454 1494.85 539.257C1488.13 551.061 1470.28 579.558 1461.26 591.819C1438.02 634.573 1225.95 559.254 1295.97 481.44L1374.55 408.319" stroke="#202020" stroke-width="4.8" stroke-linecap="round" stroke-linejoin="round"/>
<path d="M1295.97 481.439C1295.97 481.439 1321.41 427.874 1341.53 388.616C1351.77 368.599 1363.06 366.318 1373.51 369.702C1382.37 372.571 1392.55 381.306 1386.41 406.079C1383.91 416.203 1382.62 427.504 1382.62 427.504C1382.62 427.504 1395.32 448.672 1394.5 477.406" fill="white"/>
<path d="M1295.97 481.439C1295.97 481.439 1321.41 427.874 1341.53 388.616C1351.77 368.599 1363.06 366.318 1373.51 369.702C1382.37 372.571 1392.55 381.306 1386.41 406.079C1383.91 416.203 1382.62 427.504 1382.62 427.504C1382.62 427.504 1395.32 448.672 1394.5 477.406" stroke="#202020" stroke-width="4.8" stroke-linecap="round" stroke-linejoin="round"/>
<mask id="mask6_67_4326" style="mask-type:alpha" maskUnits="userSpaceOnUse" x="982" y="613" width="431" height="188">
<path d="M1369.07 798.223H984.917L1047.64 668.46L1410.15 615.6V757.157C1410.15 779.837 1391.75 798.223 1369.07 798.223Z" fill="white"/>
<path d="M1369.07 798.223H984.917L1047.64 668.46L1410.15 615.6V757.157C1410.15 779.837 1391.75 798.223 1369.07 798.223Z" stroke="#231F20" stroke-width="4.8" stroke-linecap="round" stroke-linejoin="round"/>
</mask>
<g mask="url(#mask6_67_4326)">
<path d="M1167.83 857.715C1184.18 876.186 1208.82 891.866 1242.1 903.503C1335.27 936.079 1400.81 889.601 1417.31 815.353C1433.81 741.106 1459.1 605.969 1469.37 565.374L1279.6 506.211C1251.23 576.927 1207.6 646.541 1173.96 708.092" fill="#682EC6"/>
<path d="M1167.83 857.715C1184.18 876.186 1208.82 891.866 1242.1 903.503C1335.27 936.079 1400.81 889.601 1417.31 815.353C1433.81 741.106 1459.1 605.969 1469.37 565.374L1279.6 506.211C1251.23 576.927 1207.6 646.541 1173.96 708.092" stroke="#202020" stroke-width="4.8" stroke-linecap="round" stroke-linejoin="round"/>
</g>
<mask id="mask7_67_4326" style="mask-type:luminance" maskUnits="userSpaceOnUse" x="1145" y="447" width="466" height="275">
<path d="M1414.74 467.476C1414.74 467.476 1202.82 405.612 1158.45 500.699C1114.07 595.787 1194.52 661.826 1285.21 694.103C1375.92 726.381 1591.44 750.377 1609.15 646.102C1626.87 541.829 1414.74 467.476 1414.74 467.476Z" fill="white"/>
</mask>
<g mask="url(#mask7_67_4326)">
<path d="M1167.83 857.715C1184.18 876.186 1208.82 891.866 1242.1 903.503C1335.28 936.079 1400.81 889.601 1417.31 815.353C1433.81 741.106 1459.1 605.969 1469.37 565.374L1279.6 506.211C1251.23 576.927 1207.6 646.541 1173.96 708.092" fill="#682EC6"/>
<path d="M1167.83 857.715C1184.18 876.186 1208.82 891.866 1242.1 903.503C1335.28 936.079 1400.81 889.601 1417.31 815.353C1433.81 741.106 1459.1 605.969 1469.37 565.374L1279.6 506.211C1251.23 576.927 1207.6 646.541 1173.96 708.092" stroke="#202020" stroke-width="4.8" stroke-linecap="round" stroke-linejoin="round"/>
</g>
<mask id="mask8_67_4326" style="mask-type:alpha" maskUnits="userSpaceOnUse" x="436" y="177" width="977" height="624">
<path d="M1369.07 798.224H480.461C457.772 798.224 439.381 779.837 439.381 757.157V220.981C439.381 198.301 457.772 179.915 480.461 179.915H1369.07C1391.75 179.915 1410.15 198.301 1410.15 220.981V757.157C1410.15 779.837 1391.75 798.224 1369.07 798.224Z" fill="white"/>
<path d="M1369.07 798.224H480.461C457.772 798.224 439.381 779.837 439.381 757.157V220.981C439.381 198.301 457.772 179.915 480.461 179.915H1369.07C1391.75 179.915 1410.15 198.301 1410.15 220.981V757.157C1410.15 779.837 1391.75 798.224 1369.07 798.224Z" stroke="#231F20" stroke-width="4.8" stroke-linecap="round" stroke-linejoin="round"/>
</mask>
<g mask="url(#mask8_67_4326)">
<path d="M1544.68 776.49C1544.68 776.49 1517.34 589.453 1499.66 556.327C1482 523.2 1410.16 555.544 1410.16 555.544C1338.44 585.715 1288.07 656.606 1288.06 739.271C1288.06 759.793 1291.17 779.588 1296.93 798.218C1296.93 798.218 1317.66 847.109 1344.75 871.628C1359.21 884.718 1544.68 799.835 1544.68 776.49Z" fill="#202020"/>
</g>
<path d="M801.598 799.373H1333.58" stroke="#202020" stroke-width="4.8"/>
<path d="M1500.36 948.145L1493.89 948.452L1487.4 948.556L1480.92 948.462L1474.45 948.164L1467.98 947.663V989.633H1506.81V947.638L1500.36 948.145Z" fill="white"/>
<path d="M1500.36 948.145L1493.89 948.452L1487.4 948.556L1480.92 948.462L1474.45 948.164L1467.98 947.663V989.633H1506.81V947.638L1500.36 948.145Z" stroke="#202020" stroke-width="4.8" stroke-linecap="round" stroke-linejoin="round"/>
<path d="M1584.58 1018.05H1390.21L1467.98 989.631H1506.81L1584.58 1018.05Z" fill="white"/>
<path d="M1584.58 1018.05H1390.21L1467.98 989.631H1506.81L1584.58 1018.05Z" stroke="#202020" stroke-width="4.8" stroke-linecap="round" stroke-linejoin="round"/>
<path d="M1390.21 1040.59V1018.05H1584.58V1040.59H1390.21Z" fill="white"/>
<path d="M1390.21 1040.59V1018.05H1584.58V1040.59H1390.21Z" stroke="#202020" stroke-width="4.8" stroke-linecap="round" stroke-linejoin="round"/>
<path d="M1396.94 927.989C1424.31 941.168 1454.99 948.554 1487.4 948.556C1602.67 948.56 1696.11 855.15 1696.13 739.916C1696.13 656.885 1647.61 585.181 1577.38 551.589L1396.94 927.989Z" stroke="#202020" stroke-width="4.8" stroke-linecap="round" stroke-linejoin="round"/>
<path d="M1668.15 739.283C1668.15 639.488 1587.24 558.587 1487.42 558.583C1387.59 558.579 1306.65 639.475 1306.65 739.27C1306.65 839.064 1387.58 919.966 1487.4 919.969C1587.23 919.973 1668.15 839.077 1668.15 739.283Z" fill="white"/>
<mask id="mask9_67_4326" style="mask-type:alpha" maskUnits="userSpaceOnUse" x="1306" y="558" width="363" height="362">
<path d="M1668.15 739.283C1668.15 639.488 1587.24 558.587 1487.42 558.583C1387.59 558.579 1306.65 639.475 1306.65 739.27C1306.65 839.064 1387.58 919.966 1487.4 919.969C1587.23 919.973 1668.15 839.077 1668.15 739.283Z" fill="white"/>
</mask>
<g mask="url(#mask9_67_4326)">
<path d="M1359.04 677.817L1341.29 692.658L1329.06 723.215L1336.05 752.317L1372.43 762.506L1377.09 777.639L1382.62 795.392L1376.22 821.874C1376.22 821.874 1385.54 867.856 1386.41 868.148C1387.28 868.44 1412.32 863.2 1412.32 863.2L1418.13 844.575L1439.97 823.623L1438.22 792.774L1472.29 767.456L1461.52 754.359L1450.46 752.321L1437.64 712.743L1427.45 692.08L1411.74 692.953L1398.64 678.691L1359.04 677.817Z" fill="#202020"/>
<path d="M1359.04 677.817L1341.29 692.658L1329.06 723.215L1336.05 752.317L1372.43 762.506L1377.09 777.639L1382.62 795.392L1376.22 821.874C1376.22 821.874 1385.54 867.856 1386.41 868.148C1387.28 868.44 1412.32 863.2 1412.32 863.2L1418.13 844.575L1439.97 823.623L1438.22 792.774L1472.29 767.456L1461.52 754.359L1450.46 752.321L1437.64 712.743L1427.45 692.08L1411.74 692.953L1398.64 678.691L1359.04 677.817Z" stroke="#202020" stroke-width="4.8" stroke-linecap="round" stroke-linejoin="round"/>
<path d="M1419.8 613.017L1386.79 623.881L1366.23 650.267L1372.04 656.863L1407.76 646.775L1417.85 660.744L1426.78 658.806L1427.55 643.67L1458.61 646.001L1464.44 656.867L1445.8 656.09L1440.37 665.79L1455.12 675.881L1448.13 691.789L1457.44 725.935L1481.11 733.697L1491.6 720.892L1486.55 709.639L1475.68 704.983L1474.13 691.014C1474.13 691.014 1516.44 715.072 1520.72 715.849C1524.98 716.625 1520.32 737.58 1520.32 737.58L1528.08 762.801L1536.24 762.413L1554.48 730.594L1564.18 737.581L1571.17 755.431L1578.55 761.638L1592.13 784.533L1601.45 773.282L1597.96 737.582L1623.18 721.674L1620.08 699.554L1643.76 666.962L1639.49 645.618L1630.57 635.919L1637.55 627.769L1658.51 623.503L1659.67 639.8L1672.48 653.769L1677.91 644.456L1674.43 620.787L1688.78 608.759L1658.51 590.909L1636.78 592.071L1606.5 578.876L1590.97 585.085L1563.8 577.325L1554.09 567.621L1530.04 571.502L1522.27 581.589L1487.34 586.634L1473.36 595.944L1469.87 586.245L1478.02 577.707L1458.22 570.336L1414.74 593.616L1414.36 600.599L1433.38 602.153L1419.8 613.017Z" fill="#202020"/>
<path d="M1419.8 613.017L1386.79 623.881L1366.23 650.267L1372.04 656.863L1407.76 646.775L1417.85 660.744L1426.78 658.806L1427.55 643.67L1458.61 646.001L1464.44 656.867L1445.8 656.09L1440.37 665.79L1455.12 675.881L1448.13 691.789L1457.44 725.935L1481.11 733.697L1491.6 720.892L1486.55 709.639L1475.68 704.983L1474.13 691.014C1474.13 691.014 1516.44 715.072 1520.72 715.849C1524.98 716.625 1520.32 737.58 1520.32 737.58L1528.08 762.801L1536.24 762.413L1554.48 730.594L1564.18 737.581L1571.17 755.431L1578.55 761.638L1592.13 784.533L1601.45 773.282L1597.96 737.582L1623.18 721.674L1620.08 699.554L1643.76 666.962L1639.49 645.618L1630.57 635.919L1637.55 627.769L1658.51 623.503L1659.67 639.8L1672.48 653.769L1677.91 644.456L1674.43 620.787L1688.78 608.759L1658.51 590.909L1636.78 592.071L1606.5 578.876L1590.97 585.085L1563.8 577.325L1554.09 567.621L1530.04 571.502L1522.27 581.589L1487.34 586.634L1473.36 595.944L1469.87 586.245L1478.02 577.707L1458.22 570.336L1414.74 593.616L1414.36 600.599L1433.38 602.153L1419.8 613.017Z" stroke="#202020" stroke-width="4.8" stroke-linecap="round" stroke-linejoin="round"/>
<path d="M1291.37 511.347L1281.48 526.48L1264 525.899L1256.44 516.003L1234.9 516.002L1221.51 510.763L1211.61 498.539L1197.63 495.63L1188.9 506.106L1166.78 500.867L1154.55 509.597L1132.42 507.849L1106.81 514.834L1107.39 526.474L1129.51 524.146L1145.82 534.626L1129.81 557.878L1117.59 580.815L1107.32 626.481L1117.77 628.494L1125.64 613.362L1127.45 633.135L1121.63 641.512L1134.82 659.028L1159.36 675.004L1168.5 700.116L1182.74 704.695L1186.41 709.192L1173.59 718.001L1160.65 742.354L1166.3 771.819L1184.26 794.878L1142.37 868.694L1149.48 883.909L1155.33 880.11L1156.85 870.973L1173.59 859.558L1226.13 842.065L1231.45 832.927L1261.15 829.89L1277.89 807.818L1296.17 794.882L1294.66 781.946L1261.15 762.15L1265.87 746.175L1261.91 735.067L1248.97 727.901L1242.87 712.685L1205.58 695.929L1193.67 700.137L1189.57 693.279H1177.4L1180.46 671.965L1162.94 663.588L1175.87 645.313L1167.6 640.755L1154.29 653.361L1146.32 647.611L1143.92 633.895L1156.86 620.199L1171.82 619.441L1179.7 626.299L1187.3 623.24L1193.4 642.274L1201 642.275V627.06L1220.81 619.442L1222.32 611.065L1243.64 606.508L1249.74 611.066L1260.4 604.228L1271.82 607.269L1272.58 600.431L1247.44 574.537L1238.75 572.258L1225.38 579.875L1206.34 567.698L1220.05 562.36L1218.96 557.298L1256.44 556.164L1274.49 541.613L1283.8 556.746L1276.82 570.717L1285.55 579.449L1305.93 565.478L1312.34 538.704L1298.36 513.676L1291.37 511.347Z" fill="#202020"/>
<path d="M1291.37 511.347L1281.48 526.48L1264 525.899L1256.44 516.003L1234.9 516.002L1221.51 510.763L1211.61 498.539L1197.63 495.63L1188.9 506.106L1166.78 500.867L1154.55 509.597L1132.42 507.849L1106.81 514.834L1107.39 526.474L1129.51 524.146L1145.82 534.626L1129.81 557.878L1117.59 580.815L1107.32 626.481L1117.77 628.494L1125.64 613.362L1127.45 633.135L1121.63 641.512L1134.82 659.028L1159.36 675.004L1168.5 700.116L1182.74 704.695L1186.41 709.192L1173.59 718.001L1160.65 742.354L1166.3 771.819L1184.26 794.878L1142.37 868.694L1149.48 883.909L1155.33 880.11L1156.85 870.973L1173.59 859.558L1226.13 842.065L1231.45 832.927L1261.15 829.89L1277.89 807.818L1296.17 794.882L1294.66 781.946L1261.15 762.15L1265.87 746.175L1261.91 735.067L1248.97 727.901L1242.87 712.685L1205.58 695.929L1193.67 700.137L1189.57 693.279H1177.4L1180.46 671.965L1162.94 663.588L1175.87 645.313L1167.6 640.755L1154.29 653.361L1146.32 647.611L1143.92 633.895L1156.86 620.199L1171.82 619.441L1179.7 626.299L1187.3 623.24L1193.4 642.274L1201 642.275V627.06L1220.81 619.442L1222.32 611.065L1243.64 606.508L1249.74 611.066L1260.4 604.228L1271.82 607.269L1272.58 600.431L1247.44 574.537L1238.75 572.258L1225.38 579.875L1206.34 567.698L1220.05 562.36L1218.96 557.298L1256.44 556.164L1274.49 541.613L1283.8 556.746L1276.82 570.717L1285.55 579.449L1305.93 565.478L1312.34 538.704L1298.36 513.676L1291.37 511.347Z" stroke="#202020" stroke-width="4.8" stroke-linecap="round" stroke-linejoin="round"/>
</g>
<path d="M1668.15 739.282C1668.15 639.488 1585.7 558.587 1485.87 558.583C1386.04 558.579 1305.11 639.475 1305.11 739.27C1305.11 839.064 1386.04 919.966 1485.86 919.969C1585.69 919.973 1668.15 839.077 1668.15 739.282Z" stroke="#202020" stroke-width="4.8" stroke-linecap="round" stroke-linejoin="round"/>
<path d="M1423.78 453.909C1389.79 455.77 1363.74 484.833 1365.6 518.803C1367.46 552.783 1433.41 629.697 1433.41 629.697C1433.41 629.697 1490.56 546.047 1488.7 512.067C1486.84 478.097 1457.79 452.049 1423.78 453.909Z" fill="#682EC6"/>
<path d="M1423.78 453.909C1389.79 455.77 1363.74 484.833 1365.6 518.803C1367.46 552.783 1433.41 629.697 1433.41 629.697C1433.41 629.697 1490.56 546.047 1488.7 512.067C1486.84 478.097 1457.79 452.049 1423.78 453.909Z" stroke="#202020" stroke-width="4.97094" stroke-linecap="round" stroke-linejoin="round"/>
<path d="M1428.57 541.259C1414 542.056 1401.54 530.888 1400.75 516.335C1399.95 501.78 1411.11 489.321 1425.68 488.524C1440.25 487.726 1452.7 498.894 1453.5 513.448C1454.29 528.001 1443.14 540.461 1428.57 541.259Z" fill="white"/>
<path d="M1428.57 541.259C1414 542.056 1401.54 530.888 1400.75 516.335C1399.95 501.78 1411.11 489.321 1425.68 488.524C1440.25 487.726 1452.7 498.894 1453.5 513.448C1454.29 528.001 1443.14 540.461 1428.57 541.259Z" stroke="#202020" stroke-width="4.97094" stroke-linecap="round" stroke-linejoin="round"/>
<path d="M462.222 631.992C462.222 631.992 261.525 631.969 248.688 631.992C227.761 632.027 199.132 632.283 199.22 631.992C199.132 632.156 199.519 649.993 199.605 676.109C199.656 692.023 199.605 1040.59 199.605 1040.59H503.302V673.059C503.302 650.377 484.911 631.992 462.222 631.992Z" fill="white"/>
<path d="M462.222 631.992C462.222 631.992 261.525 631.969 248.688 631.992C227.761 632.027 199.132 632.283 199.22 631.992C199.132 632.156 199.519 649.993 199.605 676.109C199.656 692.023 199.605 1040.59 199.605 1040.59H503.302V673.059C503.302 650.377 484.911 631.992 462.222 631.992Z" stroke="#202020" stroke-width="4.8" stroke-linecap="round" stroke-linejoin="round"/>
<path d="M503.302 1040.59H806.997V631.992H544.382C521.693 631.992 503.302 650.377 503.302 673.059V1040.59Z" fill="white"/>
<path d="M503.302 1040.59H806.997V631.992H544.382C521.693 631.992 503.302 650.377 503.302 673.059V1040.59Z" stroke="#202020" stroke-width="4.8" stroke-linecap="round" stroke-linejoin="round"/>
<path d="M452.062 820.837H244.744" stroke="#202020" stroke-width="4.8" stroke-linecap="round" stroke-linejoin="round"/>
<path d="M452.062 863.136H244.744" stroke="#202020" stroke-width="4.8" stroke-linecap="round" stroke-linejoin="round"/>
<path d="M452.062 905.434H244.744" stroke="#202020" stroke-width="4.8" stroke-linecap="round" stroke-linejoin="round"/>
<path d="M452.062 947.733H244.744" stroke="#202020" stroke-width="4.8" stroke-linecap="round" stroke-linejoin="round"/>
<path d="M452.062 990.032H244.744" stroke="#202020" stroke-width="4.8" stroke-linecap="round" stroke-linejoin="round"/>
<path d="M452.062 778.515H244.744V693.942H452.062V778.515Z" fill="#202020"/>
<path d="M452.062 778.515H244.744V693.942H452.062V778.515Z" stroke="#202020" stroke-width="4.8" stroke-linecap="round" stroke-linejoin="round"/>
<path d="M452.062 756.492H377.399L368.078 747.178H338.613L315.382 723.958H244.744V693.942H340.671L364.744 718.002H452.062V756.492Z" fill="white"/>
<path d="M452.062 756.492H377.399L368.078 747.178H338.613L315.382 723.958H244.744V693.942H340.671L364.744 718.002H452.062V756.492Z" stroke="#202020" stroke-width="4.8" stroke-linecap="round" stroke-linejoin="round"/>
<path d="M452.059 693.945H340.671L364.744 718.002H452.059V693.945Z" fill="#202020"/>
<path d="M452.059 693.945H340.671L364.744 718.002H452.059V693.945Z" stroke="#202020" stroke-width="4.8" stroke-linecap="round" stroke-linejoin="round"/>
<path d="M761.859 693.942H554.541" stroke="#202020" stroke-width="4.8" stroke-linecap="round" stroke-linejoin="round"/>
<path d="M761.859 736.233H554.541" stroke="#202020" stroke-width="4.8" stroke-linecap="round" stroke-linejoin="round"/>
<path d="M761.859 778.524H554.541" stroke="#202020" stroke-width="4.8" stroke-linecap="round" stroke-linejoin="round"/>
<path d="M761.859 820.837H554.541" stroke="#202020" stroke-width="4.8" stroke-linecap="round" stroke-linejoin="round"/>
<path d="M761.859 989.995H554.541V863.136H761.859V989.995Z" fill="white"/>
<mask id="mask10_67_4326" style="mask-type:alpha" maskUnits="userSpaceOnUse" x="552" y="860" width="213" height="133">
<path d="M761.859 989.995H554.541V863.136H761.859V989.995Z" fill="white"/>
<path d="M761.859 989.995H554.541V863.136H761.859V989.995Z" stroke="#231F20" stroke-width="4.8" stroke-linecap="round" stroke-linejoin="round"/>
</mask>
<g mask="url(#mask10_67_4326)">
<path d="M759.172 990.169L830.055 905.972L879.663 955.552L902.745 932.487L960.228 989.936L792.293 989.995L759.172 990.169Z" fill="#202020"/>
<path d="M759.172 990.169L830.055 905.972L879.663 955.552L902.745 932.487L960.228 989.936L792.293 989.995L759.172 990.169Z" stroke="#202020" stroke-width="4.8" stroke-linecap="round" stroke-linejoin="round"/>
</g>
<mask id="mask11_67_4326" style="mask-type:alpha" maskUnits="userSpaceOnUse" x="552" y="860" width="213" height="133">
<path d="M761.859 989.995H554.541V863.136H761.859V989.995Z" fill="white"/>
<path d="M761.859 989.995H554.541V863.136H761.859V989.995Z" stroke="#231F20" stroke-width="4.8" stroke-linecap="round" stroke-linejoin="round"/>
</mask>
<g mask="url(#mask11_67_4326)">
<path d="M730.931 965.149C730.57 980.638 712.056 992.768 689.579 992.244C667.102 991.722 649.173 978.742 649.534 963.254C649.894 947.765 668.409 935.635 690.886 936.159C713.364 936.682 731.292 949.661 730.931 965.149Z" fill="#682EC6"/>
<path d="M730.931 965.149C730.57 980.638 712.056 992.768 689.579 992.244C667.102 991.722 649.173 978.742 649.534 963.254C649.894 947.765 668.409 935.635 690.886 936.159C713.364 936.682 731.292 949.661 730.931 965.149Z" stroke="#202020" stroke-width="4.6624" stroke-linecap="round" stroke-linejoin="round"/>
<path d="M786.584 991.097L759.369 990.777H552.058L531.005 991.27C614.685 949.267 753.33 961.168 786.584 991.097Z" fill="white"/>
<path d="M786.584 991.097L759.369 990.777H552.058L531.005 991.27C614.685 949.267 753.33 961.168 786.584 991.097Z" stroke="#202020" stroke-width="4.8" stroke-linecap="round" stroke-linejoin="round"/>
</g>
<path d="M761.859 989.995H554.541V863.136H761.859V989.995Z" stroke="#202020" stroke-width="4.8" stroke-linecap="round" stroke-linejoin="round"/>
<path d="M450.732 1014.48H168.488C163.217 1014.48 158.943 1010.21 158.943 1004.94V914.975C158.943 909.707 163.217 905.436 168.488 905.436H450.732C456.003 905.436 460.277 909.707 460.277 914.975V1004.94C460.277 1010.21 456.003 1014.48 450.732 1014.48Z" fill="#682EC6"/>
<path d="M450.732 1014.48H168.488C163.217 1014.48 158.943 1010.21 158.943 1004.94V914.975C158.943 909.707 163.217 905.436 168.488 905.436H450.732C456.003 905.436 460.277 909.707 460.277 914.975V1004.94C460.277 1010.21 456.003 1014.48 450.732 1014.48Z" stroke="#202020" stroke-width="4.8" stroke-linecap="round" stroke-linejoin="round"/>
<path d="M422.504 1040.39H196.716L177.254 1014.48H441.966L422.504 1040.39Z" fill="#682EC6"/>
<path d="M422.504 1040.39H196.716L177.254 1014.48H441.966L422.504 1040.39Z" stroke="#202020" stroke-width="4.8" stroke-linecap="round" stroke-linejoin="round"/>
<path d="M332.971 959.151L295.423 936.54V981.763L332.971 959.151Z" fill="white"/>
<path d="M332.971 959.151L295.423 936.54V981.763L332.971 959.151Z" stroke="#202020" stroke-width="4.36992" stroke-linecap="round" stroke-linejoin="round"/>
</g>
</g>
<defs>
<clipPath id="clip0_67_4326">
<rect width="1794" height="1065" fill="white"/>
</clipPath>
</defs>
</svg>
