<svg width="1793" height="1065" viewBox="0 0 1793 1065" fill="none" xmlns="http://www.w3.org/2000/svg">
<g clip-path="url(#clip0_356_2)">
<mask id="mask0_356_2" style="mask-type:luminance" maskUnits="userSpaceOnUse" x="0" y="0" width="1793" height="1065">
<path d="M1793 0H0V1065H1793V0Z" fill="white"/>
</mask>
<g mask="url(#mask0_356_2)">
<mask id="mask1_356_2" style="mask-type:luminance" maskUnits="userSpaceOnUse" x="-116" y="-216" width="2054" height="1540">
<path d="M1938 -216H-116V1324H1938V-216Z" fill="white"/>
</mask>
<g mask="url(#mask1_356_2)">
<path d="M617.074 98.3639L523.161 169.702L629.347 221.033L511.536 215.333L559.872 322.887L473.288 242.819L441.159 356.27L426.315 239.298L328.757 305.561L392.598 206.416L275.254 194.488L387.911 159.561L305.692 75.0214L414.447 120.658L405.824 3.06104L459.792 107.906L528.797 12.2818L502.727 127.275L617.074 98.3639Z" fill="#1B1D20"/>
<path d="M617.074 98.3639L523.161 169.702L629.347 221.033L511.536 215.333L559.872 322.887L473.288 242.819L441.159 356.27L426.315 239.298L328.757 305.561L392.598 206.416L275.254 194.488L387.911 159.561L305.692 75.0214L414.447 120.658L405.824 3.06104L459.792 107.906L528.797 12.2818L502.727 127.275L617.074 98.3639Z" stroke="#682EC6" stroke-width="4.8" stroke-linecap="round" stroke-linejoin="round"/>
<path d="M1728.22 873.506C1728.34 884.771 1731.25 925.78 1731.05 935.122C1740.16 937.11 1779.35 949.555 1790.3 952.309C1779.03 952.424 1738 955.333 1728.66 955.128C1726.68 964.242 1714.23 1003.42 1711.47 1014.36C1711.35 1003.1 1708.45 962.088 1708.66 952.748C1699.53 950.76 1660.34 938.315 1649.4 935.559C1660.67 935.446 1701.69 932.537 1711.03 932.742C1713.02 923.628 1725.48 884.444 1728.22 873.506Z" fill="#1B1D20"/>
<path d="M1728.22 873.506C1728.34 884.771 1731.25 925.78 1731.05 935.122C1740.16 937.11 1779.35 949.555 1790.3 952.309C1779.03 952.424 1738 955.333 1728.66 955.128C1726.68 964.242 1714.23 1003.42 1711.47 1014.36C1711.35 1003.1 1708.45 962.088 1708.66 952.748C1699.53 950.76 1660.34 938.315 1649.4 935.559C1660.67 935.446 1701.69 932.537 1711.03 932.742C1713.02 923.628 1725.48 884.444 1728.22 873.506Z" stroke="#F0F5FC" stroke-width="4.8" stroke-linecap="round" stroke-linejoin="round"/>
<path d="M80.6309 695.025C80.817 706.289 83.9891 747.279 83.8441 756.62C92.9741 758.55 132.249 770.745 143.207 773.429C131.94 773.615 90.9368 776.788 81.5924 776.642C79.6616 785.769 67.4634 825.031 64.7778 835.985C64.5917 824.722 61.4182 783.732 61.5646 774.391C52.4346 772.46 13.1595 760.266 2.20117 757.581C13.4689 757.395 54.4719 754.224 63.8163 754.369C65.7471 745.242 77.9453 705.98 80.6309 695.025Z" fill="#1B1D20"/>
<path d="M80.6309 695.025C80.817 706.289 83.9891 747.279 83.8441 756.62C92.9741 758.55 132.249 770.745 143.207 773.429C131.94 773.615 90.9368 776.788 81.5924 776.642C79.6616 785.769 67.4634 825.031 64.7778 835.985C64.5917 824.722 61.4182 783.732 61.5646 774.391C52.4346 772.46 13.1595 760.266 2.20117 757.581C13.4689 757.395 54.4719 754.224 63.8163 754.369C65.7471 745.242 77.9453 705.98 80.6309 695.025Z" stroke="#F0F5FC" stroke-width="4.8" stroke-linecap="round" stroke-linejoin="round"/>
<path d="M313.826 565.638L101.785 520.995C94.0976 519.376 89.1757 511.832 90.7958 504.148C92.4159 496.462 99.9618 491.543 107.649 493.162L319.69 537.806C327.377 539.425 332.299 546.968 330.679 554.653C329.059 562.338 321.513 567.258 313.826 565.638Z" fill="#1B1D20"/>
<path d="M313.826 565.638L101.785 520.995C94.0976 519.376 89.1757 511.832 90.7958 504.148C92.4159 496.462 99.9618 491.543 107.649 493.162L319.69 537.806C327.377 539.425 332.299 546.968 330.679 554.653C329.059 562.338 321.513 567.258 313.826 565.638Z" stroke="#F0F5FC" stroke-width="4.8" stroke-linecap="round" stroke-linejoin="round"/>
<path d="M353.18 449.218L229.243 355.592C224.756 352.202 223.866 345.82 227.258 341.336C230.648 336.851 237.033 335.963 241.518 339.352L365.455 432.978C369.942 436.368 370.831 442.749 367.44 447.234C364.049 451.718 357.665 452.608 353.18 449.218Z" fill="#1B1D20"/>
<path d="M353.18 449.218L229.243 355.592C224.756 352.202 223.866 345.82 227.258 341.336C230.648 336.851 237.033 335.963 241.518 339.352L365.455 432.978C369.942 436.368 370.831 442.749 367.44 447.234C364.049 451.718 357.665 452.608 353.18 449.218Z" stroke="#F0F5FC" stroke-width="4.8" stroke-linecap="round" stroke-linejoin="round"/>
<path d="M1583.6 221.809C1571.32 224.98 1574.04 241.715 1586.52 239.837C1598.78 236.668 1596.06 219.933 1583.6 221.809Z" fill="#1B1D20"/>
<path d="M1583.6 221.809C1571.32 224.98 1574.04 241.715 1586.52 239.837C1598.78 236.668 1596.06 219.933 1583.6 221.809Z" stroke="#F0F5FC" stroke-width="4.8" stroke-linecap="round" stroke-linejoin="round"/>
<path d="M175.147 152.657C162.341 148.835 155.983 166.551 168.295 171.74C181.101 175.562 187.458 157.845 175.147 152.657Z" fill="#1B1D20"/>
<path d="M175.147 152.657C162.341 148.835 155.983 166.551 168.295 171.74C181.101 175.562 187.458 157.845 175.147 152.657Z" stroke="#F0F5FC" stroke-width="4.8" stroke-linecap="round" stroke-linejoin="round"/>
<path d="M132.182 290.838C132.182 276.944 120.913 265.679 107.014 265.679C93.1145 265.679 81.8457 276.944 81.8457 290.838C81.8457 304.733 93.1145 315.998 107.014 315.998C120.913 315.998 132.182 304.733 132.182 290.838Z" fill="#1B1D20"/>
<path d="M132.182 290.838C132.182 276.944 120.913 265.679 107.014 265.679C93.1145 265.679 81.8457 276.944 81.8457 290.838C81.8457 304.733 93.1145 315.998 107.014 315.998C120.913 315.998 132.182 304.733 132.182 290.838Z" stroke="#F0F5FC" stroke-width="4.8" stroke-linecap="round" stroke-linejoin="round"/>
<path d="M1656.46 326.928C1656.46 313.034 1645.2 301.769 1631.3 301.769C1617.4 301.769 1606.12 313.034 1606.12 326.928C1606.12 340.823 1617.4 352.088 1631.3 352.088C1645.2 352.088 1656.46 340.823 1656.46 326.928Z" fill="#1B1D20"/>
<path d="M1656.46 326.928C1656.46 313.034 1645.2 301.769 1631.3 301.769C1617.4 301.769 1606.12 313.034 1606.12 326.928C1606.12 340.823 1617.4 352.088 1631.3 352.088C1645.2 352.088 1656.46 340.823 1656.46 326.928Z" stroke="#F0F5FC" stroke-width="4.8" stroke-linecap="round" stroke-linejoin="round"/>
<path d="M1128.94 978.288H762.741V798.224H1128.94V978.288Z" fill="#1B1D20"/>
<path d="M1128.94 978.288H762.741V798.224H1128.94V978.288Z" stroke="#F0F5FC" stroke-width="4.8" stroke-linecap="round" stroke-linejoin="round"/>
<path d="M762.24 977.788H689.546V798.724H762.24V977.788Z" fill="#202020" stroke="#F0F5FC"/>
<path d="M762.74 978.288H689.046V798.224H762.74V978.288Z" stroke="#F0F5FC" stroke-width="4.8" stroke-linecap="round" stroke-linejoin="round"/>
<path d="M688.547 1035.74H574.215V1011.14C574.215 993.273 588.703 978.788 606.579 978.788H688.547V1035.74Z" fill="#202020" stroke="#F0F5FC"/>
<path d="M689.047 1036.24H573.715V1011.14C573.715 992.996 588.427 978.288 606.579 978.288H689.047V1036.24Z" stroke="#F0F5FC" stroke-width="4.8" stroke-linecap="round" stroke-linejoin="round"/>
<path d="M1128.94 843.767H689.046V798.224H1128.94V843.767Z" fill="#1B1D20"/>
<path d="M1128.94 843.767H689.046V798.224H1128.94V843.767Z" stroke="#F0F5FC" stroke-width="4.8" stroke-linecap="round" stroke-linejoin="round"/>
<path d="M1243.95 1036.24H647.406V1011.14C647.406 992.996 662.119 978.288 680.27 978.288H1211.09C1229.24 978.288 1243.95 992.996 1243.95 1011.14V1036.24Z" fill="#1B1D20"/>
<path d="M1243.95 1036.24H647.406V1011.14C647.406 992.996 662.119 978.288 680.27 978.288H1211.09C1229.24 978.288 1243.95 992.996 1243.95 1011.14V1036.24Z" stroke="#F0F5FC" stroke-width="4.8" stroke-linecap="round" stroke-linejoin="round"/>
<path d="M1327.68 795.824H439.073C417.709 795.824 400.393 778.511 400.393 757.157V220.981C400.393 199.627 417.709 182.315 439.073 182.315H1327.68C1349.04 182.315 1366.36 199.627 1366.36 220.981V757.157C1366.36 778.511 1349.04 795.824 1327.68 795.824Z" stroke="#F0F5FC" stroke-width="4.8"/>
<path d="M1327.68 798.224H439.073C416.384 798.224 397.993 779.837 397.993 757.157V220.981C397.993 198.301 416.384 179.915 439.073 179.915H1327.68C1350.36 179.915 1368.76 198.301 1368.76 220.981V757.157C1368.76 779.837 1350.36 798.224 1327.68 798.224Z" fill="#1B1D20" stroke="#F0F5FC" stroke-width="4.8" stroke-linecap="round" stroke-linejoin="round"/>
<path d="M1368.07 798.224H479.461C456.772 798.224 438.381 779.837 438.381 757.157V220.981C438.381 198.301 456.772 179.915 479.461 179.915H1368.07C1390.75 179.915 1409.15 198.301 1409.15 220.981V757.157C1409.15 779.837 1390.75 798.224 1368.07 798.224Z" fill="#1B1D20"/>
<path d="M1368.07 798.224H479.461C456.772 798.224 438.381 779.837 438.381 757.157V220.981C438.381 198.301 456.772 179.915 479.461 179.915H1368.07C1390.75 179.915 1409.15 198.301 1409.15 220.981V757.157C1409.15 779.837 1390.75 798.224 1368.07 798.224Z" stroke="#F0F5FC" stroke-width="4.8" stroke-linecap="round" stroke-linejoin="round"/>
<path d="M1409.15 286.027V220.981C1409.15 198.301 1390.75 179.915 1368.07 179.915H479.461C456.772 179.915 438.381 198.301 438.381 220.981V286.027H1409.15Z" fill="#1B1D20"/>
<path d="M1409.15 286.027V220.981C1409.15 198.301 1390.75 179.915 1368.07 179.915H479.461C456.772 179.915 438.381 198.301 438.381 220.981V286.027H1409.15Z" stroke="#F0F5FC" stroke-width="4.8" stroke-linecap="round" stroke-linejoin="round"/>
<path d="M1290.3 233.902C1290.3 223.536 1281.89 215.135 1271.52 215.135C1261.16 215.135 1252.75 223.536 1252.75 233.902C1252.75 244.266 1261.16 252.669 1271.52 252.669C1281.89 252.669 1290.3 244.266 1290.3 233.902Z" fill="#1B1D20"/>
<path d="M1290.3 233.902C1290.3 223.536 1281.89 215.135 1271.52 215.135C1261.16 215.135 1252.75 223.536 1252.75 233.902C1252.75 244.266 1261.16 252.669 1271.52 252.669C1281.89 252.669 1290.3 244.266 1290.3 233.902Z" stroke="#682EC6" stroke-width="4.8" stroke-linecap="round" stroke-linejoin="round"/>
<path d="M1367.31 233.902C1367.31 223.536 1358.9 215.135 1348.54 215.135C1338.17 215.135 1329.76 223.536 1329.76 233.902C1329.76 244.266 1338.17 252.669 1348.54 252.669C1358.9 252.669 1367.31 244.266 1367.31 233.902Z" fill="#1B1D20"/>
<path d="M1367.31 233.902C1367.31 223.536 1358.9 215.135 1348.54 215.135C1338.17 215.135 1329.76 223.536 1329.76 233.902C1329.76 244.266 1338.17 252.669 1348.54 252.669C1358.9 252.669 1367.31 244.266 1367.31 233.902Z" stroke="#682EC6" stroke-width="4.8" stroke-linecap="round" stroke-linejoin="round"/>
<path d="M722.085 399.123C723.5 392.399 716.814 382.522 720.175 376.691C723.569 370.802 735.498 371.624 740.54 367.062C745.531 362.546 745.894 350.579 752.169 347.773C758.224 345.064 767.354 352.71 774.309 351.966C781.263 351.223 788.568 341.82 795.06 343.188C801.788 344.601 804.671 356.223 810.505 359.583C816.398 362.976 827.883 359.645 832.445 364.685C836.964 369.675 832.52 380.743 835.326 387.016C838.033 393.071 849.315 397.093 850.058 404.046C850.802 410.998 840.629 417.313 839.262 423.804C837.847 430.528 844.533 440.406 841.172 446.237C837.778 452.125 825.849 451.302 820.807 455.865C815.816 460.382 815.454 472.348 809.179 475.154C803.123 477.862 793.993 470.218 787.038 470.961C780.084 471.704 772.779 481.107 766.287 479.74C759.559 478.326 756.676 466.704 750.842 463.344C744.949 459.952 733.464 463.281 728.902 458.241C724.383 453.252 728.829 442.183 726.021 435.91C723.314 429.855 712.032 425.831 711.289 418.882C710.545 411.929 720.718 405.613 722.085 399.123Z" stroke="#F0F5FC" stroke-width="4.8" stroke-linecap="round" stroke-linejoin="round"/>
<path d="M936.093 143.903C862.656 161.145 817.105 234.636 834.352 308.051C840.972 336.229 855.903 360.276 875.918 378.268L865.582 440.978L917.151 403.808C942.178 413.715 970.364 416.377 998.552 409.759C1071.99 392.516 1117.54 319.024 1100.29 245.611C1083.05 172.197 1009.53 126.66 936.093 143.903Z" fill="#1B1D20"/>
<path d="M936.093 143.903C862.656 161.145 817.105 234.636 834.352 308.051C840.972 336.229 855.903 360.276 875.918 378.268L865.582 440.978L917.151 403.808C942.178 413.715 970.364 416.377 998.552 409.759C1071.99 392.516 1117.54 319.024 1100.29 245.611C1083.05 172.197 1009.53 126.66 936.093 143.903Z" stroke="#F0F5FC" stroke-width="4.8" stroke-linecap="round" stroke-linejoin="round"/>
<path d="M893.421 264.366L966.722 344.743" stroke="#F0F5FC" stroke-width="9.50256" stroke-linecap="round" stroke-linejoin="round"/>
<path d="M902.734 255.878L884.108 272.854" stroke="#F0F5FC" stroke-width="9.50256" stroke-linecap="round" stroke-linejoin="round"/>
<path d="M976.034 336.258L957.408 353.234" stroke="#F0F5FC" stroke-width="9.50256" stroke-linecap="round" stroke-linejoin="round"/>
<path d="M934.805 226.652L1008.11 307.03" stroke="#F0F5FC" stroke-width="9.50256" stroke-linecap="round" stroke-linejoin="round"/>
<path d="M944.12 218.162L925.494 235.138" stroke="#F0F5FC" stroke-width="9.50256" stroke-linecap="round" stroke-linejoin="round"/>
<path d="M1017.42 298.542L998.793 315.517" stroke="#F0F5FC" stroke-width="9.50256" stroke-linecap="round" stroke-linejoin="round"/>
<path d="M930.291 304.354L971.083 267.176" stroke="#F0F5FC" stroke-width="9.50256" stroke-linecap="round" stroke-linejoin="round"/>
<path d="M1003.66 234.632L1042.7 277.451" stroke="#F0F5FC" stroke-width="9.8351" stroke-linecap="round" stroke-linejoin="round"/>
<path d="M1013.29 225.848L994.017 243.417" stroke="#F0F5FC" stroke-width="9.8351" stroke-linecap="round" stroke-linejoin="round"/>
<path d="M1052.34 268.666L1033.06 286.235" stroke="#F0F5FC" stroke-width="9.8351" stroke-linecap="round" stroke-linejoin="round"/>
<path d="M993.848 224.643C995.571 223.073 995.694 220.403 994.122 218.677C992.553 216.955 989.88 216.83 988.152 218.403C986.43 219.971 986.305 222.642 987.878 224.368L993.848 224.643ZM993.848 224.643C992.121 226.215 989.449 226.091 987.878 224.369L993.848 224.643Z" fill="#1B1D20"/>
<path d="M993.848 224.643C995.571 223.073 995.694 220.403 994.122 218.677C992.553 216.955 989.88 216.83 988.152 218.403C986.43 219.971 986.305 222.642 987.878 224.368L993.848 224.643ZM993.848 224.643C992.121 226.215 989.449 226.091 987.878 224.369L993.848 224.643Z" stroke="#F0F5FC" stroke-width="4.8"/>
<path d="M742.061 517.031C742.061 517.031 744.793 415.446 745.054 412.713C746.883 393.573 761.954 377.711 781.824 375.586C801.694 373.462 819.78 385.779 825.617 404.1C826.45 406.717 850.608 505.426 850.608 505.426C858.594 540.641 739.973 543.876 742.061 517.031Z" fill="#1B1D20"/>
<path d="M742.061 517.031C742.061 517.031 744.793 415.446 745.054 412.713C746.883 393.573 761.954 377.711 781.824 375.586C801.694 373.462 819.78 385.779 825.617 404.1C826.45 406.717 850.608 505.426 850.608 505.426C858.594 540.641 739.973 543.876 742.061 517.031Z" stroke="#F0F5FC" stroke-width="4.8" stroke-linecap="round" stroke-linejoin="round"/>
<path d="M827.722 444.009C827.722 444.009 823.455 451.55 809.971 454.145C796.487 456.739 788.139 451.806 788.139 451.806C788.139 451.806 794.818 457.124 809.838 454.427C825.378 451.639 827.722 444.009 827.722 444.009Z" fill="#1B1D20"/>
<path d="M827.722 444.009C827.722 444.009 823.455 451.55 809.971 454.145C796.487 456.739 788.139 451.806 788.139 451.806C788.139 451.806 794.818 457.124 809.838 454.427C825.378 451.639 827.722 444.009 827.722 444.009Z" stroke="#F0F5FC" stroke-width="4.79999" stroke-linecap="round" stroke-linejoin="round"/>
<path d="M812.246 430.941C814.905 423.237 824.035 420.626 830.866 426.067" stroke="#F0F5FC" stroke-width="4.79999" stroke-linecap="round" stroke-linejoin="round"/>
<path d="M780.416 436.714C783.717 428.753 793.291 427.73 798.907 432.53" stroke="#F0F5FC" stroke-width="4.79999" stroke-linecap="round" stroke-linejoin="round"/>
<mask id="mask2_356_2" style="mask-type:alpha" maskUnits="userSpaceOnUse" x="435" y="177" width="977" height="624">
<path d="M1387.93 798H932.074C920.435 798 911 787.325 911 774.156V462.844C911 449.675 920.435 439 932.074 439H1387.93C1399.56 439 1409 449.675 1409 462.844V774.156C1409 787.325 1399.56 798 1387.93 798Z" fill="white"/>
<path d="M1368.07 798.224H479.461C456.772 798.224 438.381 779.837 438.381 757.157V220.981C438.381 198.301 456.772 179.915 479.461 179.915H1368.07C1390.75 179.915 1409.15 198.301 1409.15 220.981V757.157C1409.15 779.837 1390.75 798.224 1368.07 798.224Z" stroke="#231F20" stroke-width="4.8" stroke-linecap="round" stroke-linejoin="round"/>
</mask>
<g mask="url(#mask2_356_2)">
<path d="M919.061 489.744C979.369 490.437 1027.29 485.7 1092.02 531.057C1169.6 585.415 1255.08 676.895 1310.08 726.691C1365.08 776.486 1392.75 901.143 1265.3 906.101C1159.99 910.197 1129.68 879.038 1063.64 784.969C998.595 692.329 937.912 599.046 937.912 599.046" fill="#1B1D20"/>
<path d="M919.061 489.744C979.369 490.437 1027.29 485.7 1092.02 531.057C1169.6 585.415 1255.08 676.895 1310.08 726.691C1365.08 776.486 1392.75 901.143 1265.3 906.101C1159.99 910.197 1129.68 879.038 1063.64 784.969C998.595 692.329 937.912 599.046 937.912 599.046" stroke="#682EC6" stroke-width="4.8" stroke-linecap="round" stroke-linejoin="round"/>
</g>
<mask id="mask3_356_2" style="mask-type:alpha" maskUnits="userSpaceOnUse" x="435" y="177" width="977" height="624">
<path d="M1038.47 798H464.533C449.878 798 438 788.306 438 776.348V493.652C438 481.694 449.878 472 464.533 472H1038.47C1053.12 472 1065 481.694 1065 493.652V776.348C1065 788.306 1053.12 798 1038.47 798Z" fill="white"/>
<path d="M1368.07 798.224H479.461C456.772 798.224 438.381 779.837 438.381 757.157V220.981C438.381 198.301 456.772 179.915 479.461 179.915H1368.07C1390.75 179.915 1409.15 198.301 1409.15 220.981V757.157C1409.15 779.837 1390.75 798.224 1368.07 798.224Z" stroke="#231F20" stroke-width="4.8" stroke-linecap="round" stroke-linejoin="round"/>
</mask>
<g mask="url(#mask3_356_2)">
<path d="M967.168 573.604C967.168 573.604 1026.11 668.464 1063.64 784.969C1063.64 784.969 1112.05 881.486 809.787 903.426C561.869 921.421 548.902 814.052 548.902 814.052C540.996 767.829 554.942 525.952 657.764 504.552C742.303 495.631 826.814 488.681 919.061 489.742" fill="#1B1D20"/>
<path d="M967.168 573.604C967.168 573.604 1026.11 668.464 1063.64 784.969C1063.64 784.969 1112.05 881.486 809.787 903.426C561.869 921.421 548.902 814.052 548.902 814.052C540.996 767.829 554.942 525.952 657.764 504.552C742.303 495.631 826.814 488.681 919.061 489.742" stroke="#682EC6" stroke-width="4.8" stroke-linecap="round" stroke-linejoin="round"/>
</g>
<mask id="mask4_356_2" style="mask-type:alpha" maskUnits="userSpaceOnUse" x="435" y="490" width="316" height="311">
<path d="M734.898 798.224H451.483C444.247 798.224 438.381 789.147 438.381 777.951V513.272C438.381 502.076 444.247 493 451.483 493H734.898C742.133 493 748 502.076 748 513.272V777.951C748 789.147 742.133 798.224 734.898 798.224Z" fill="#1B1D20"/>
<path d="M734.898 798.224H451.483C444.247 798.224 438.381 789.147 438.381 777.951V513.272C438.381 502.076 444.247 493 451.483 493H734.898C742.133 493 748 502.076 748 513.272V777.951C748 789.147 742.133 798.224 734.898 798.224Z" stroke="#231F20" stroke-width="4.8" stroke-linecap="round" stroke-linejoin="round"/>
</mask>
<g mask="url(#mask4_356_2)">
<path d="M624.382 592.628C624.382 592.628 570.208 754.917 553.485 813.283C522.147 922.666 334.882 797.289 375.107 711.057C390.741 677.545 422.804 637.978 459.859 599.093C496.228 560.931 531.094 517.918 657.762 504.552" fill="#1B1D20"/>
<path d="M624.382 592.628C624.382 592.628 570.208 754.917 553.485 813.283C522.147 922.666 334.882 797.289 375.107 711.057C390.741 677.545 422.804 637.978 459.859 599.093C496.228 560.931 531.094 517.918 657.762 504.552" stroke="#682EC6" stroke-width="4.8" stroke-linecap="round" stroke-linejoin="round"/>
</g>
<path d="M697.974 180.174C698.138 180.147 697.819 180.15 697.557 179.86C697.576 179.907 697.819 179.987 697.813 179.657C697.738 179.747 697.978 179.907 697.834 179.94C697.495 179.907 698.299 179.827 697.974 180.174Z" fill="#1B1D20"/>
<path d="M697.974 180.174C698.138 180.147 697.819 180.15 697.557 179.86C697.576 179.907 697.819 179.987 697.813 179.657C697.738 179.747 697.978 179.907 697.834 179.94C697.495 179.907 698.299 179.827 697.974 180.174Z" stroke="#F0F5FC" stroke-width="4.8" stroke-linecap="round" stroke-linejoin="round"/>
<mask id="mask5_356_2" style="mask-type:luminance" maskUnits="userSpaceOnUse" x="315" y="462" width="245" height="340">
<path d="M342.042 500.613C293.773 551.947 304.043 808.613 423.175 801.427C542.307 794.24 581.333 588.907 547.442 517.04C513.551 445.173 390.311 449.28 342.042 500.613Z" fill="white"/>
</mask>
<g mask="url(#mask5_356_2)">
<path d="M1365.5 801.817H476.893C454.204 801.817 435.812 783.431 435.812 760.75V224.575C435.812 201.894 454.204 183.508 476.893 183.508H1365.5C1388.18 183.508 1406.58 201.894 1406.58 224.575V760.75C1406.58 783.431 1388.18 801.817 1365.5 801.817Z" stroke="#F0F5FC" stroke-width="4.8" stroke-linecap="round" stroke-linejoin="round"/>
</g>
<path d="M1478.28 479.12C1478.28 479.12 1501.74 446.811 1519.33 435.355C1529.16 429.025 1540.94 427.394 1546.48 435.785C1553.3 446.074 1549.65 455.065 1542.37 462.398C1529.92 473.884 1525.08 480.985 1507.14 515.263C1485.71 556.202 1460.27 591.819 1460.27 591.819" fill="#1B1D20"/>
<path d="M1478.28 479.12C1478.28 479.12 1501.74 446.811 1519.33 435.355C1529.16 429.025 1540.94 427.394 1546.48 435.785C1553.3 446.074 1549.65 455.065 1542.37 462.398C1529.92 473.884 1525.08 480.985 1507.14 515.263C1485.71 556.202 1460.27 591.819 1460.27 591.819" stroke="#F0F5FC" stroke-width="4.8" stroke-linecap="round" stroke-linejoin="round"/>
<path d="M1443.32 455.612C1449.92 443.166 1481.05 408.48 1503.31 402.11C1511.22 399.95 1521.51 400.642 1525.89 410.459C1530.47 420.759 1523.49 430.103 1514.31 434.786C1498.42 442.894 1478.28 479.119 1478.28 479.119C1466.53 502.986 1430.14 480.443 1443.32 455.612Z" fill="#1B1D20"/>
<path d="M1443.32 455.612C1449.92 443.166 1481.05 408.48 1503.31 402.11C1511.22 399.95 1521.51 400.642 1525.89 410.459C1530.47 420.759 1523.49 430.103 1514.31 434.786C1498.42 442.894 1478.28 479.119 1478.28 479.119C1466.53 502.986 1430.14 480.443 1443.32 455.612Z" stroke="#F0F5FC" stroke-width="4.8" stroke-linecap="round" stroke-linejoin="round"/>
<path d="M1407.31 435.02C1407.31 435.02 1438.78 386.906 1467.06 378.808C1478.43 374.584 1489.29 376.572 1493.27 386.054C1497.03 395.07 1493.28 404.392 1481.92 409.99C1465.32 418.188 1443.41 455.669 1443.41 455.669C1431.46 478.606 1391.66 459.716 1407.31 435.02Z" fill="#1B1D20"/>
<path d="M1407.31 435.02C1407.31 435.02 1438.78 386.906 1467.06 378.808C1478.43 374.584 1489.29 376.572 1493.27 386.054C1497.03 395.07 1493.28 404.392 1481.92 409.99C1465.32 418.188 1443.41 455.669 1443.41 455.669C1431.46 478.606 1391.66 459.716 1407.31 435.02Z" stroke="#F0F5FC" stroke-width="4.8" stroke-linecap="round" stroke-linejoin="round"/>
<path d="M1407.31 435.017C1407.31 435.017 1424.76 409.05 1442.61 378.027C1448.64 367.243 1446.53 356.057 1438.07 350.566C1429.73 345.148 1419.13 348.502 1410.1 359.616C1394 380.985 1382.55 395.658 1368.54 414.603C1354.31 433.853 1389.17 465.193 1407.31 435.017Z" fill="#1B1D20"/>
<path d="M1407.31 435.017C1407.31 435.017 1424.76 409.05 1442.61 378.027C1448.64 367.243 1446.53 356.057 1438.07 350.566C1429.73 345.148 1419.13 348.502 1410.1 359.616C1394 380.985 1382.55 395.658 1368.54 414.603C1354.31 433.853 1389.17 465.193 1407.31 435.017Z" stroke="#F0F5FC" stroke-width="4.8" stroke-linecap="round" stroke-linejoin="round"/>
<path d="M1513.67 502.292C1507.12 515.046 1500.56 527.454 1493.85 539.257C1487.13 551.061 1469.28 579.558 1460.27 591.819C1437.02 634.573 1224.95 559.254 1294.97 481.44L1373.55 408.319" fill="#1B1D20"/>
<path d="M1513.67 502.292C1507.12 515.046 1500.56 527.454 1493.85 539.257C1487.13 551.061 1469.28 579.558 1460.27 591.819C1437.02 634.573 1224.95 559.254 1294.97 481.44L1373.55 408.319" stroke="#F0F5FC" stroke-width="4.8" stroke-linecap="round" stroke-linejoin="round"/>
<path d="M1294.97 481.439C1294.97 481.439 1320.41 427.874 1340.53 388.616C1350.77 368.599 1362.06 366.318 1372.51 369.702C1381.37 372.571 1391.55 381.306 1385.41 406.079C1382.91 416.203 1381.62 427.504 1381.62 427.504C1381.62 427.504 1394.32 448.672 1393.5 477.406" fill="#1B1D20"/>
<path d="M1294.59 481.524C1294.59 481.524 1320.03 427.959 1340.15 388.701C1350.39 368.685 1361.68 366.403 1372.13 369.787C1380.99 372.657 1391.17 381.391 1385.03 406.164C1382.53 416.289 1381.24 427.59 1381.24 427.59C1381.24 427.59 1393.94 448.757 1393.12 477.491" stroke="#F0F5FC" stroke-width="4.8" stroke-linecap="round" stroke-linejoin="round"/>
<mask id="mask6_356_2" style="mask-type:alpha" maskUnits="userSpaceOnUse" x="981" y="613" width="431" height="188">
<path d="M1368.07 798.224H983.917L1046.64 668.461L1409.15 615.6V757.157C1409.15 779.837 1390.75 798.224 1368.07 798.224Z" fill="white"/>
<path d="M1368.07 798.224H983.917L1046.64 668.461L1409.15 615.6V757.157C1409.15 779.837 1390.75 798.224 1368.07 798.224Z" stroke="#231F20" stroke-width="4.8" stroke-linecap="round" stroke-linejoin="round"/>
</mask>
<g mask="url(#mask6_356_2)">
<path d="M1166.83 857.715C1183.18 876.186 1207.82 891.866 1241.1 903.503C1334.27 936.079 1399.81 889.601 1416.31 815.354C1432.81 741.106 1458.1 605.969 1468.37 565.374L1278.6 506.211C1250.23 576.927 1206.6 646.541 1172.96 708.093" fill="#1B1D20"/>
<path d="M1166.83 857.715C1183.18 876.186 1207.82 891.866 1241.1 903.503C1334.27 936.079 1399.81 889.601 1416.31 815.354C1432.81 741.106 1458.1 605.969 1468.37 565.374L1278.6 506.211C1250.23 576.927 1206.6 646.541 1172.96 708.093" stroke="#682EC6" stroke-width="4.8" stroke-linecap="round" stroke-linejoin="round"/>
</g>
<mask id="mask7_356_2" style="mask-type:luminance" maskUnits="userSpaceOnUse" x="1144" y="447" width="466" height="275">
<path d="M1413.74 467.476C1413.74 467.476 1201.82 405.612 1157.45 500.699C1113.07 595.787 1193.52 661.826 1284.21 694.103C1374.92 726.381 1590.44 750.377 1608.15 646.102C1625.87 541.829 1413.74 467.476 1413.74 467.476Z" fill="white"/>
</mask>
<g mask="url(#mask7_356_2)">
<path d="M1166.83 857.715C1183.18 876.186 1207.82 891.866 1241.1 903.503C1334.28 936.079 1399.81 889.601 1416.31 815.353C1432.81 741.106 1458.1 605.969 1468.37 565.374L1278.6 506.211C1250.23 576.927 1206.6 646.541 1172.96 708.092" fill="#1B1D20"/>
<path d="M1166 859.504C1182.35 877.975 1206.98 893.654 1240.27 905.292C1333.44 937.868 1398.98 891.389 1415.48 817.142C1431.97 742.895 1457.26 607.757 1467.53 567.163L1277.77 508C1249.4 578.716 1205.76 648.33 1172.13 709.881" stroke="#682EC6" stroke-width="4.8" stroke-linecap="round" stroke-linejoin="round"/>
</g>
<path d="M800.598 799.373H1332.58" stroke="#F0F5FC" stroke-width="4.8"/>
<path d="M1499.36 948.145L1492.89 948.452L1486.4 948.556L1479.92 948.462L1473.45 948.164L1466.98 947.663V989.633H1505.81V947.638L1499.36 948.145Z" fill="#1B1D20"/>
<path d="M1499.36 948.145L1492.89 948.452L1486.4 948.556L1479.92 948.462L1473.45 948.164L1466.98 947.663V989.633H1505.81V947.638L1499.36 948.145Z" stroke="#F0F5FC" stroke-width="4.8" stroke-linecap="round" stroke-linejoin="round"/>
<path d="M1583.58 1018.05H1389.21L1466.98 989.631H1505.81L1583.58 1018.05Z" fill="#1B1D20"/>
<path d="M1583.58 1018.05H1389.21L1466.98 989.631H1505.81L1583.58 1018.05Z" stroke="#F0F5FC" stroke-width="4.8" stroke-linecap="round" stroke-linejoin="round"/>
<path d="M1389.21 1040.59V1018.05H1583.58V1040.59H1389.21Z" fill="#1B1D20"/>
<path d="M1389.21 1040.59V1018.05H1583.58V1040.59H1389.21Z" stroke="#F0F5FC" stroke-width="4.8" stroke-linecap="round" stroke-linejoin="round"/>
<path d="M1395.94 927.989C1423.31 941.168 1453.99 948.554 1486.4 948.556C1601.67 948.56 1695.11 855.15 1695.13 739.917C1695.13 656.885 1646.61 585.181 1576.38 551.589L1395.94 927.989Z" stroke="#F0F5FC" stroke-width="4.8" stroke-linecap="round" stroke-linejoin="round"/>
<path d="M1667.15 739.282C1667.15 639.488 1586.24 558.587 1486.42 558.583C1386.59 558.579 1305.65 639.475 1305.65 739.27C1305.65 839.064 1386.58 919.966 1486.4 919.969C1586.23 919.973 1667.15 839.077 1667.15 739.282Z" fill="#1B1D20"/>
<mask id="mask8_356_2" style="mask-type:alpha" maskUnits="userSpaceOnUse" x="1305" y="558" width="363" height="362">
<path d="M1667.15 739.282C1667.15 639.488 1586.24 558.587 1486.42 558.583C1386.59 558.579 1305.65 639.475 1305.65 739.27C1305.65 839.064 1386.58 919.966 1486.4 919.969C1586.23 919.973 1667.15 839.077 1667.15 739.282Z" fill="#1B1D20"/>
</mask>
<g mask="url(#mask8_356_2)">
<path d="M1358.04 677.817L1340.29 692.658L1328.06 723.215L1335.05 752.317L1371.43 762.506L1376.09 777.639L1381.62 795.392L1375.22 821.874C1375.22 821.874 1384.54 867.856 1385.41 868.148C1386.28 868.44 1411.32 863.2 1411.32 863.2L1417.13 844.575L1438.97 823.623L1437.22 792.774L1471.29 767.455L1460.52 754.359L1449.46 752.321L1436.64 712.743L1426.45 692.08L1410.74 692.953L1397.64 678.691L1358.04 677.817Z" stroke="#F0F5FC" stroke-width="4.8" stroke-linecap="round" stroke-linejoin="round"/>
<path d="M1418.8 613.017L1385.79 623.881L1365.23 650.267L1371.04 656.863L1406.76 646.775L1416.85 660.744L1425.78 658.806L1426.55 643.67L1457.61 646.001L1463.44 656.867L1444.8 656.09L1439.37 665.79L1454.12 675.881L1447.13 691.789L1456.44 725.934L1480.11 733.697L1490.6 720.892L1485.55 709.639L1474.68 704.983L1473.13 691.014C1473.13 691.014 1515.44 715.072 1519.72 715.849C1523.98 716.625 1519.32 737.579 1519.32 737.579L1527.08 762.801L1535.24 762.413L1553.48 730.594L1563.18 737.581L1570.17 755.431L1577.55 761.638L1591.13 784.533L1600.45 773.282L1596.96 737.582L1622.18 721.674L1619.08 699.554L1642.76 666.961L1638.49 645.618L1629.57 635.919L1636.55 627.768L1657.51 623.503L1658.67 639.8L1671.48 653.769L1676.91 644.456L1673.43 620.787L1687.78 608.758L1657.51 590.909L1635.78 592.071L1605.5 578.876L1589.97 585.085L1562.8 577.324L1553.09 567.621L1529.04 571.502L1521.27 581.589L1486.34 586.634L1472.36 595.944L1468.87 586.245L1477.02 577.707L1457.22 570.335L1413.74 593.616L1413.36 600.599L1432.38 602.153L1418.8 613.017Z" stroke="#F0F5FC" stroke-width="4.8" stroke-linecap="round" stroke-linejoin="round"/>
<path d="M1270.39 606.636L1259.53 603.745L1259.31 603.688L1259.13 603.807L1248.76 610.458L1242.94 606.107L1242.76 605.971L1242.54 606.019L1221.22 610.576L1220.89 610.646L1220.83 610.976L1219.36 619.077L1199.82 626.593L1199.5 626.717V627.06V641.775L1192.76 641.774L1186.78 623.087L1186.61 622.575L1186.11 622.776L1178.8 625.721L1171.15 619.064L1170.99 618.931L1170.79 618.942L1155.83 619.7L1155.63 619.71L1155.5 619.856L1142.55 633.552L1142.38 633.734L1142.43 633.981L1144.83 647.698L1144.86 647.898L1145.03 648.017L1153 653.766L1153.33 654.008L1153.63 653.724L1166.68 641.369L1174.14 645.481L1161.53 663.299L1161.19 663.783L1161.72 664.039L1178.91 672.258L1175.91 693.208L1175.83 693.779H1176.4H1188.29L1192.24 700.393L1192.45 700.745L1192.83 700.608L1204.56 696.467L1241.48 713.059L1247.51 728.087L1247.57 728.252L1247.73 728.338L1260.5 735.413L1264.34 746.19L1259.67 762.009L1259.56 762.382L1259.9 762.581L1293.19 782.25L1294.64 794.645L1276.61 807.409L1276.54 807.454L1276.5 807.516L1259.89 829.414L1230.4 832.43L1230.14 832.456L1230.02 832.676L1224.8 841.65L1172.43 859.083L1172.37 859.105L1172.31 859.145L1155.57 870.56L1155.39 870.68L1155.36 870.891L1153.87 879.811L1148.69 883.177L1141.93 868.716L1183.69 795.125L1183.86 794.834L1183.65 794.571L1165.77 771.607L1160.18 742.432L1172.97 718.344L1185.7 709.604L1186.15 709.297L1185.8 708.876L1182.13 704.379L1182.04 704.265L1181.9 704.219L1167.89 699.715L1158.83 674.833L1158.78 674.676L1158.64 674.585L1134.17 658.657L1121.25 641.5L1126.86 633.42L1126.96 633.271L1126.94 633.09L1125.14 613.316L1124.98 611.619L1124.2 613.131L1116.5 627.932L1106.92 626.088L1117.06 580.991L1129.24 558.138L1145.23 534.909L1145.52 534.484L1145.09 534.205L1128.78 523.725L1128.64 523.63L1128.46 523.649L1106.86 525.921L1106.33 515.211L1131.47 508.354L1153.51 510.095L1153.69 510.109L1153.84 510.004L1165.88 501.406L1187.79 506.592L1188.09 506.664L1188.29 506.426L1196.83 496.181L1210.34 498.993L1220.12 511.078L1220.21 511.181L1220.33 511.229L1233.72 516.467L1233.81 516.502H1233.9L1255.2 516.503L1262.61 526.202L1262.75 526.391L1262.99 526.399L1280.46 526.98L1280.74 526.989L1280.89 526.754L1290.58 511.943L1297.02 514.089L1310.81 538.777L1304.49 565.174L1284.61 578.801L1276.42 570.618L1283.25 556.97L1283.37 556.721L1283.23 556.484L1273.92 541.351L1273.62 540.868L1273.18 541.224L1255.26 555.669L1217.94 556.798L1217.34 556.817L1217.47 557.403L1218.47 562.048L1205.16 567.232L1204.24 567.589L1205.07 568.119L1224.11 580.296L1224.36 580.458L1224.62 580.309L1237.82 572.793L1246.18 574.985L1271.06 600.61L1270.39 606.636Z" fill="#202020" stroke="#F0F5FC"/>
<path d="M1290.37 511.347L1280.48 526.48L1263 525.899L1255.44 516.003L1233.9 516.002L1220.51 510.763L1210.61 498.539L1196.63 495.63L1187.9 506.106L1165.78 500.867L1153.55 509.597L1131.42 507.849L1105.81 514.834L1106.39 526.474L1128.51 524.146L1144.82 534.625L1128.81 557.878L1116.59 580.815L1106.32 626.481L1116.77 628.494L1124.64 613.362L1126.45 633.135L1120.63 641.512L1133.82 659.028L1158.36 675.004L1167.5 700.116L1181.74 704.695L1185.41 709.192L1172.59 718.001L1159.65 742.353L1165.3 771.819L1183.26 794.878L1141.37 868.694L1148.48 883.909L1154.33 880.11L1155.85 870.973L1172.59 859.558L1225.13 842.065L1230.45 832.927L1260.15 829.89L1276.89 807.818L1295.17 794.882L1293.66 781.946L1260.15 762.15L1264.87 746.175L1260.91 735.067L1247.97 727.901L1241.87 712.685L1204.58 695.929L1192.67 700.137L1188.57 693.279H1176.4L1179.46 671.965L1161.94 663.588L1174.87 645.313L1166.6 640.755L1153.29 653.361L1145.32 647.611L1142.92 633.895L1155.86 620.199L1170.82 619.441L1178.7 626.299L1186.3 623.24L1192.4 642.274L1200 642.275V627.06L1219.81 619.442L1221.32 611.065L1242.64 606.507L1248.74 611.066L1259.4 604.228L1270.82 607.269L1271.58 600.431L1246.44 574.537L1237.75 572.258L1224.38 579.874L1205.34 567.698L1219.05 562.36L1217.96 557.298L1255.44 556.164L1273.49 541.613L1282.8 556.746L1275.82 570.717L1284.55 579.448L1304.93 565.478L1311.34 538.704L1297.36 513.676L1290.37 511.347Z" stroke="#F0F5FC" stroke-width="4.8" stroke-linecap="round" stroke-linejoin="round"/>
</g>
<path d="M1667.15 739.282C1667.15 639.488 1584.7 558.587 1484.88 558.583C1385.04 558.579 1304.11 639.475 1304.11 739.27C1304.11 839.064 1385.04 919.966 1484.86 919.969C1584.69 919.973 1667.15 839.077 1667.15 739.282Z" stroke="#F0F5FC" stroke-width="4.8" stroke-linecap="round" stroke-linejoin="round"/>
<path d="M1422.78 453.909C1388.79 455.77 1362.74 484.833 1364.6 518.803C1366.46 552.783 1432.41 629.697 1432.41 629.697C1432.41 629.697 1489.56 546.047 1487.7 512.067C1485.84 478.097 1456.79 452.049 1422.78 453.909Z" fill="#1B1D20"/>
<path d="M1422.78 453.909C1388.79 455.77 1362.74 484.833 1364.6 518.803C1366.46 552.783 1432.41 629.697 1432.41 629.697C1432.41 629.697 1489.56 546.047 1487.7 512.067C1485.84 478.097 1456.79 452.049 1422.78 453.909Z" stroke="#682EC6" stroke-width="4.97094" stroke-linecap="round" stroke-linejoin="round"/>
<path d="M1427.57 541.259C1413 542.056 1400.54 530.889 1399.75 516.336C1398.95 501.78 1410.11 489.321 1424.68 488.524C1439.25 487.726 1451.7 498.894 1452.5 513.448C1453.29 528.001 1442.14 540.461 1427.57 541.259Z" fill="#1B1D20"/>
<path d="M1427.57 541.259C1413 542.056 1400.54 530.889 1399.75 516.336C1398.95 501.78 1410.11 489.321 1424.68 488.524C1439.25 487.726 1451.7 498.894 1452.5 513.448C1453.29 528.001 1442.14 540.461 1427.57 541.259Z" stroke="#F0F5FC" stroke-width="4.97094" stroke-linecap="round" stroke-linejoin="round"/>
<path d="M461.222 631.992C461.222 631.992 260.525 631.969 247.688 631.992C226.761 632.027 198.132 632.284 198.22 631.992C198.132 632.156 198.519 649.994 198.605 676.109C198.656 692.023 198.605 1040.59 198.605 1040.59H502.302V673.059C502.302 650.377 483.911 631.992 461.222 631.992Z" fill="#1B1D20"/>
<path d="M461.222 631.992C461.222 631.992 260.525 631.969 247.688 631.992C226.761 632.027 198.132 632.284 198.22 631.992C198.132 632.156 198.519 649.994 198.605 676.109C198.656 692.023 198.605 1040.59 198.605 1040.59H502.302V673.059C502.302 650.377 483.911 631.992 461.222 631.992Z" stroke="#F0F5FC" stroke-width="4.8" stroke-linecap="round" stroke-linejoin="round"/>
<path d="M805.497 632.492V1040.09H502.802V673.059C502.802 650.654 520.969 632.492 543.382 632.492H805.497Z" fill="#1B1D20" stroke="#F0F5FC"/>
<path d="M502.302 1040.59H805.997V631.992H543.382C520.693 631.992 502.302 650.377 502.302 673.059V1040.59Z" stroke="#F0F5FC" stroke-width="4.8" stroke-linecap="round" stroke-linejoin="round"/>
<path d="M451.062 820.837H243.744" stroke="#F0F5FC" stroke-width="4.8" stroke-linecap="round" stroke-linejoin="round"/>
<path d="M451.062 863.136H243.744" stroke="#F0F5FC" stroke-width="4.8" stroke-linecap="round" stroke-linejoin="round"/>
<path d="M451.062 905.435H243.744" stroke="#F0F5FC" stroke-width="4.8" stroke-linecap="round" stroke-linejoin="round"/>
<path d="M451.062 947.733H243.744" stroke="#F0F5FC" stroke-width="4.8" stroke-linecap="round" stroke-linejoin="round"/>
<path d="M451.062 990.032H243.744" stroke="#F0F5FC" stroke-width="4.8" stroke-linecap="round" stroke-linejoin="round"/>
<path d="M450.562 778.016H244.244V694.443H450.562V778.016Z" stroke="#F0F5FC"/>
<path d="M451.062 778.516H243.744V693.943H451.062V778.516Z" stroke="#F0F5FC" stroke-width="4.8" stroke-linecap="round" stroke-linejoin="round"/>
<path d="M365.15 746.104L364.449 745.41H363.462H338.298L318.382 725.688L317.681 724.993H316.693H256.4V703.4H338.15L358.814 723.861L359.516 724.556H360.503H435.6V753.6H372.722L365.15 746.104Z" stroke="#F0F5FC" stroke-width="4.8"/>
<path d="M760.859 693.943H553.541" stroke="#F0F5FC" stroke-width="4.8" stroke-linecap="round" stroke-linejoin="round"/>
<path d="M760.859 736.233H553.541" stroke="#F0F5FC" stroke-width="4.8" stroke-linecap="round" stroke-linejoin="round"/>
<path d="M760.859 778.524H553.541" stroke="#F0F5FC" stroke-width="4.8" stroke-linecap="round" stroke-linejoin="round"/>
<path d="M760.859 820.837H553.541" stroke="#F0F5FC" stroke-width="4.8" stroke-linecap="round" stroke-linejoin="round"/>
<path d="M760.859 989.995H553.541V863.136H760.859V989.995Z" fill="#1B1D20"/>
<mask id="mask9_356_2" style="mask-type:alpha" maskUnits="userSpaceOnUse" x="551" y="860" width="213" height="133">
<path d="M760.859 989.995H553.541V863.136H760.859V989.995Z" fill="white"/>
<path d="M760.859 989.995H553.541V863.136H760.859V989.995Z" stroke="#231F20" stroke-width="4.8" stroke-linecap="round" stroke-linejoin="round"/>
</mask>
<g mask="url(#mask9_356_2)">
<path d="M759.251 989.664L829.087 906.711L878.31 955.906L878.663 956.26L879.017 955.906L901.745 933.194L958.02 989.436L791.292 989.495H791.29L759.251 989.664Z" fill="#202020" stroke="#F0F5FC"/>
<path d="M758.172 990.169L829.055 905.972L878.663 955.553L901.745 932.487L959.228 989.936L791.293 989.995L758.172 990.169Z" stroke="#F0F5FC" stroke-width="4.8" stroke-linecap="round" stroke-linejoin="round"/>
</g>
<path d="M760.859 989.995H553.541V863.136H760.859V989.995Z" fill="#1B1D20" stroke="#F0F5FC" stroke-width="4.8" stroke-linecap="round" stroke-linejoin="round"/>
<path d="M729.931 963.149C729.57 978.638 711.056 990.768 688.579 990.244C666.102 989.722 648.173 976.742 648.534 961.254C648.894 945.765 667.409 933.635 689.886 934.159C712.364 934.683 730.292 947.661 729.931 963.149Z" stroke="#682EC6" stroke-width="4.6624" stroke-linecap="round" stroke-linejoin="round"/>
<path d="M785.584 991.097L758.369 990.778H551.058L530.005 991.27C613.685 949.267 752.33 961.168 785.584 991.097Z" fill="#1B1D20"/>
<path d="M762 990.828L739.851 990.512H571.134L554 991C622.102 949.364 734.936 961.161 762 990.828Z" stroke="#F0F5FC" stroke-width="4.8" stroke-linecap="round" stroke-linejoin="round"/>
<path d="M760.859 989.995H553.541V863.136H760.859V989.995Z" stroke="#F0F5FC" stroke-width="4.8" stroke-linecap="round" stroke-linejoin="round"/>
<path d="M449.732 1014.48H167.488C162.217 1014.48 157.943 1010.21 157.943 1004.94V914.975C157.943 909.706 162.217 905.436 167.488 905.436H449.732C455.003 905.436 459.277 909.706 459.277 914.975V1004.94C459.277 1010.21 455.003 1014.48 449.732 1014.48Z" fill="#1B1D20"/>
<path d="M449.732 1014.48H167.488C162.217 1014.48 157.943 1010.21 157.943 1004.94V914.975C157.943 909.706 162.217 905.436 167.488 905.436H449.732C455.003 905.436 459.277 909.706 459.277 914.975V1004.94C459.277 1010.21 455.003 1014.48 449.732 1014.48Z" stroke="#682EC6" stroke-width="4.8" stroke-linecap="round" stroke-linejoin="round"/>
<path d="M421.504 1040.39H195.716L176.254 1014.48H440.966L421.504 1040.39Z" fill="#1B1D20"/>
<path d="M421.504 1040.39H195.716L176.254 1014.48H440.966L421.504 1040.39Z" stroke="#682EC6" stroke-width="4.8" stroke-linecap="round" stroke-linejoin="round"/>
<path d="M331.971 959.151L294.423 936.54V981.763L331.971 959.151Z" fill="#1B1D20"/>
<path d="M331.971 959.151L294.423 936.54V981.763L331.971 959.151Z" stroke="#F0F5FC" stroke-width="4.36992" stroke-linecap="round" stroke-linejoin="round"/>
<path d="M824.951 366.709L734 378L739.552 422.726L830.503 411.435L824.951 366.709Z" fill="#1B1D20"/>
</g>
</g>
</g>
<defs>
<clipPath id="clip0_356_2">
<rect width="1793" height="1065" fill="white"/>
</clipPath>
</defs>
</svg>
